<svg width="166" height="164" viewBox="0 0 166 164" fill="none" xmlns="http://www.w3.org/2000/svg">
<rect x="36.2373" y="19.1553" width="93.682" height="125.69" rx="11" stroke="#1E9DD8" stroke-width="4"/>
<rect x="44.748" y="33.083" width="76.4998" height="20.4648" rx="3" stroke="#1E9DD8" stroke-width="4"/>
<rect x="48.7954" y="66.2188" width="17.2131" height="10.7198" rx="2" stroke="#1E9DD8" stroke-width="4"/>
<rect x="48.7954" y="85.0303" width="17.2131" height="10.7198" rx="3" stroke="#1E9DD8" stroke-width="4"/>
<rect x="48.7954" y="103.844" width="17.2131" height="10.7198" rx="3" stroke="#1E9DD8" stroke-width="4"/>
<rect x="48.7954" y="122.655" width="17.2131" height="10.7198" rx="3" stroke="#1E9DD8" stroke-width="4"/>
<rect x="74.3921" y="66.2188" width="17.2131" height="10.7198" rx="3" stroke="#1E9DD8" stroke-width="4"/>
<rect x="74.3921" y="85.0303" width="17.2131" height="10.7198" rx="3" stroke="#1E9DD8" stroke-width="4"/>
<rect x="74.3921" y="103.844" width="17.2131" height="10.7198" rx="3" stroke="#1E9DD8" stroke-width="4"/>
<rect x="74.3921" y="122.655" width="17.2131" height="10.7198" rx="3" stroke="#1E9DD8" stroke-width="4"/>
<rect x="99.9888" y="66.2188" width="17.2131" height="10.7198" rx="3" stroke="#1E9DD8" stroke-width="4"/>
<rect x="99.9888" y="85.0303" width="17.2131" height="10.7198" rx="3" stroke="#1E9DD8" stroke-width="4"/>
<rect x="99.9888" y="103.844" width="17.2131" height="29.5327" rx="3" stroke="#1E9DD8" stroke-width="4"/>
</svg>
