<svg width="436" height="372" viewBox="0 0 436 372" fill="none" xmlns="http://www.w3.org/2000/svg">
<path d="M358.318 238.822C356.265 236.838 353.51 235.787 350.664 235.557L329.721 233.864C322.45 233.276 316.849 227.204 316.849 219.909V175.846C316.849 168.81 311.145 163.106 304.109 163.106V163.106C299.515 163.106 295.324 160.6 292.807 156.757C272.581 125.878 237.683 105.478 198.011 105.478C135.472 105.478 84.7722 156.171 84.7722 218.713C84.7722 221.907 84.9131 225.068 85.1803 228.194C85.4066 230.841 84.7483 233.501 83.2031 235.662V235.662C78.1751 242.694 83.2016 252.467 91.8464 252.467H357.561C361.699 252.467 365.627 249.995 363.942 246.216C363.057 244.233 361.37 241.771 358.318 238.822Z" stroke="white" stroke-width="7" stroke-miterlimit="10"/>
<path d="M296.674 163.106V187.939" stroke="white" stroke-width="7" stroke-miterlimit="10"/>
<path d="M204.003 204.154H178.859C171.127 204.154 164.859 210.422 164.859 218.154V238.468C164.859 246.2 171.127 252.468 178.859 252.468H204.003C211.735 252.468 218.003 246.2 218.003 238.468V218.154C218.003 210.422 211.735 204.154 204.003 204.154Z" stroke="white" stroke-width="7" stroke-miterlimit="10"/>
<path d="M267.609 172.356C251.547 143.703 219.958 125.856 186.973 129.112C159.735 131.794 135.598 148.644 122.295 172.356" stroke="white" stroke-width="7" stroke-miterlimit="10"/>
<path d="M290.766 252.468H99.1322C95.2512 252.468 92.105 255.614 92.105 259.495C92.105 263.376 95.2512 266.522 99.1322 266.522H290.766C294.647 266.522 297.793 263.376 297.793 259.495C297.793 255.614 294.647 252.468 290.766 252.468Z" stroke="white" stroke-width="7" stroke-miterlimit="10"/>
</svg>
