<svg width="436" height="372" viewBox="0 0 436 372" fill="none" xmlns="http://www.w3.org/2000/svg">
<path d="M298.712 293.878H298.712H136.865H136.858L136.851 293.878C136.637 293.879 136.425 293.838 136.227 293.757C136.029 293.676 135.85 293.557 135.698 293.406C135.546 293.256 135.426 293.076 135.344 292.879C135.262 292.682 135.22 292.47 135.22 292.256V234.859C135.266 234.473 135.448 234.115 135.734 233.849C136.039 233.567 136.438 233.41 136.853 233.41C137.268 233.41 137.667 233.567 137.972 233.849C138.258 234.115 138.44 234.473 138.486 234.859V288.064V290.564H140.986H294.591H297.091V288.064V234.743C297.091 234.313 297.261 233.901 297.565 233.597C297.87 233.292 298.282 233.122 298.712 233.122C299.142 233.122 299.555 233.292 299.859 233.597C300.163 233.901 300.334 234.313 300.334 234.743V292.186V292.207L300.334 292.229C300.338 292.444 300.298 292.658 300.219 292.858C300.139 293.058 300.02 293.24 299.869 293.393C299.718 293.547 299.538 293.669 299.339 293.752C299.141 293.835 298.928 293.878 298.712 293.878Z" stroke="white" stroke-width="5"/>
<path d="M276.78 127.006L276.778 126.999C273.384 113.969 265.763 102.433 255.109 94.1991C244.455 85.9651 231.371 81.4981 217.906 81.4981C204.441 81.4981 191.356 85.9651 180.702 94.1991C170.052 102.43 162.433 113.961 159.037 126.985L158.695 128.238H137.08C130.106 128.09 123.174 129.335 116.687 131.898C110.192 134.466 104.275 138.304 99.283 143.189C94.2912 148.073 90.3251 153.906 87.6174 160.344C84.9097 166.781 83.5149 173.695 83.5149 180.679C83.5149 187.663 84.9097 194.577 87.6174 201.015C90.3251 207.453 94.2912 213.285 99.283 218.17C104.275 223.054 110.192 226.893 116.687 229.46C123.173 232.024 130.106 233.268 137.079 233.121H151.184C151.614 233.121 152.026 233.292 152.33 233.596C152.634 233.9 152.805 234.312 152.805 234.742C152.805 235.172 152.634 235.585 152.33 235.889C152.026 236.193 151.614 236.364 151.184 236.364H137.053C122.281 236.364 108.115 230.496 97.6695 220.051C87.2244 209.606 81.3564 195.439 81.3564 180.668C81.3564 165.896 87.2244 151.729 97.6695 141.284C108.115 130.839 122.281 124.971 137.053 124.971H154.41H156.252L156.798 123.212C160.852 110.149 168.979 98.7251 179.991 90.6121C191.003 82.4991 204.322 78.1226 218 78.1226C231.678 78.1226 244.997 82.4991 256.009 90.6121C267.021 98.7251 275.148 110.149 279.202 123.212L279.748 124.971H281.589H298.947C313.719 124.971 327.885 130.839 338.33 141.284C348.775 151.729 354.643 165.896 354.643 180.668C354.643 195.439 348.775 209.606 338.33 220.051C327.885 230.496 313.719 236.364 298.947 236.364H298.712H182.908C182.478 236.364 182.065 236.193 181.761 235.889C181.457 235.585 181.286 235.172 181.286 234.742C181.286 234.312 181.457 233.9 181.761 233.596C182.065 233.292 182.478 233.121 182.908 233.121H298.685C305.658 233.268 312.591 232.024 319.077 229.46C325.572 226.893 331.489 223.054 336.481 218.17C341.473 213.285 345.439 207.453 348.147 201.015C350.855 194.577 352.249 187.663 352.249 180.679C352.249 173.695 350.855 166.781 348.147 160.344C345.439 153.906 341.473 148.073 336.481 143.189C331.489 138.304 325.572 134.466 319.077 131.898C312.591 129.335 305.658 128.09 298.685 128.238H277.098L276.78 127.006Z" stroke="white" stroke-width="5"/>
<path d="M184.529 269.034V269.034C184.529 269.468 184.357 269.885 184.051 270.194C183.746 270.5 183.333 270.674 182.901 270.679C182.467 270.677 182.051 270.504 181.745 270.197C181.436 269.888 181.263 269.47 181.263 269.034V257.633C181.309 257.247 181.491 256.888 181.777 256.623C182.082 256.341 182.481 256.184 182.896 256.184C183.311 256.184 183.71 256.341 184.015 256.623C184.301 256.888 184.483 257.247 184.529 257.633V269.034Z" stroke="white" stroke-width="5"/>
<path d="M216.165 269.048L216.165 269.041V269.034V253.348C216.165 252.918 216.336 252.506 216.64 252.202C216.944 251.897 217.357 251.727 217.787 251.727C218.217 251.727 218.629 251.897 218.933 252.202C219.237 252.506 219.408 252.918 219.408 253.348V269.034V269.041L219.408 269.048C219.409 269.262 219.368 269.473 219.287 269.671C219.207 269.869 219.087 270.049 218.937 270.2C218.786 270.352 218.607 270.472 218.409 270.554C218.212 270.636 218 270.679 217.787 270.679H217.787C217.573 270.679 217.361 270.636 217.164 270.554C216.967 270.472 216.787 270.352 216.637 270.2C216.486 270.049 216.367 269.869 216.286 269.671C216.205 269.473 216.164 269.262 216.165 269.048Z" stroke="white" stroke-width="5"/>
<path d="M251.046 269.048L251.046 269.04V269.033V257.517C251.046 257.087 251.217 256.674 251.521 256.37C251.825 256.066 252.237 255.895 252.668 255.895C253.098 255.895 253.51 256.066 253.814 256.37C254.118 256.674 254.289 257.086 254.289 257.517V269.033V269.04L254.289 269.048C254.29 269.261 254.249 269.473 254.168 269.671C254.087 269.869 253.968 270.049 253.817 270.2C253.667 270.352 253.488 270.472 253.29 270.554C253.093 270.636 252.881 270.678 252.668 270.678H252.667C252.454 270.678 252.242 270.636 252.045 270.554C251.847 270.472 251.668 270.352 251.518 270.2C251.367 270.049 251.248 269.869 251.167 269.671C251.086 269.473 251.045 269.261 251.046 269.048Z" stroke="white" stroke-width="5"/>
</svg>
