<svg width="641" height="640" viewBox="0 0 641 640" fill="none" xmlns="http://www.w3.org/2000/svg">
<path d="M313.993 63.8613V76.0901" stroke="white" stroke-width="11"/>
<path d="M313.993 200.654V212.883" stroke="white" stroke-width="11"/>
<circle cx="313.993" cy="136.106" r="100.01" stroke="white" stroke-width="11"/>
<path d="M559.931 252.357V36C559.931 19.4315 546.5 6 529.931 6H193.124C177.846 6 163.144 11.8279 152.015 22.2952L88.862 81.6967C76.8065 93.036 69.9703 108.851 69.9703 125.401L69.9702 247.459M496.145 293.712L469.853 311.547C467.669 313.028 465.314 314.269 462.756 314.919C450.309 318.079 437.68 315.788 426.035 308.866L376.295 276.935C360.888 266.91 345.427 261.632 323.485 264.039C306.546 268.253 297.518 273.432 282.342 286.76" stroke="white" stroke-width="11"/>
<path d="M173.957 8.58984V61.3613C173.957 83.4527 156.049 101.361 133.957 101.361H76.7139" stroke="white" stroke-width="12"/>
<rect x="57.2392" y="248.5" width="81.373" height="246.178" rx="24.5" transform="rotate(11.8153 57.2392 248.5)" stroke="white" stroke-width="11"/>
<rect x="491.324" y="268.948" width="81.373" height="246.178" rx="24.5" transform="rotate(-15 491.324 268.948)" stroke="white" stroke-width="11"/>
<path d="M140.968 285.295H284.612L209.102 368.716C200.555 378.159 198.866 392.189 207.906 401.16C213.596 406.806 220.026 411.675 225.616 413.549C238.676 417.926 288.033 403.288 304.278 384.478C315.818 371.116 346.187 376.539 364.621 382.312C368.843 383.634 372.573 386.12 375.663 389.287L472.407 488.42C492.515 509.024 491.113 542.31 469.342 561.15L465.023 564.888M465.023 564.888V564.888C472.402 572.267 471.938 584.367 464.014 591.159L450.068 603.113C435.871 615.282 414.669 614.356 401.587 600.995V600.995M465.023 564.888L412.011 514.441M401.587 600.995L385.288 613.196C365.315 628.147 337.377 626.087 319.814 608.368L307.464 595.909M401.587 600.995L352.932 551.306M307.464 595.909L295.41 605.759C275.646 621.909 246.89 620.58 228.699 602.677L98.2173 474.255M307.464 595.909L280.648 568.855" stroke="white" stroke-width="11"/>
<path d="M548.134 485.831L486.616 511.756" stroke="white" stroke-width="12"/>
<path d="M372.174 468.441C369.989 466.331 366.507 466.392 364.397 468.578C362.287 470.763 362.348 474.245 364.534 476.355L372.174 468.441ZM420.2 514.81L372.174 468.441L364.534 476.355L412.559 522.724L420.2 514.81Z" fill="white"/>
<path d="M309.67 501.819C307.485 499.709 304.003 499.77 301.893 501.956C299.783 504.141 299.845 507.623 302.03 509.733L309.67 501.819ZM357.696 548.188L309.67 501.819L302.03 509.733L350.056 556.101L357.696 548.188Z" fill="white"/>
<path d="M251.339 531.732C249.192 529.583 245.71 529.581 243.561 531.728C241.411 533.875 241.409 537.357 243.556 539.506L251.339 531.732ZM298.516 578.965L251.339 531.732L243.556 539.506L290.733 586.738L298.516 578.965Z" fill="white"/>
<path d="M341.032 99.7461C336.556 82.5153 321.141 78.398 313.993 78.4932C295.97 78.4932 281.359 92.4901 281.359 109.756C281.359 127.022 293.784 135.726 311.806 135.726L313.993 135.726C332.016 135.726 346.626 149.723 346.626 166.989C346.626 184.255 332.016 198.252 313.993 198.252C304.294 197.896 284.543 192.815 283.128 175.337" stroke="white" stroke-width="11" stroke-linecap="round"/>
</svg>
