<svg width="37" height="37" viewBox="0 0 37 37" fill="none" xmlns="http://www.w3.org/2000/svg">
<path d="M7.47194 20.3789L18.7029 22.3001C21.2898 22.7426 23.6821 23.9577 25.5653 25.7855L27.3532 27.5209C28.2114 28.3539 29.6515 27.8967 29.8722 26.7213L31.357 18.8117L32.416 17.7381C32.9723 17.1742 33.2842 16.4139 33.2842 15.6218V15.6218C33.2842 14.5697 32.7355 13.5938 31.8367 13.0471L31.357 12.7554L29.8118 4.67667C29.6026 3.5829 28.3165 3.09041 27.4303 3.76468L26.1625 4.7292C23.8995 6.45084 21.1346 7.38308 18.2911 7.38308H10.7158C6.84985 7.38308 3.71584 10.5171 3.71583 14.3831L3.71583 15.5682C3.71582 17.8436 5.26444 19.827 7.47194 20.3789V20.3789ZM7.47194 20.3789L12.2485 32.5014C12.702 33.6524 14.0811 34.1197 15.1409 33.4816L15.9829 32.9746C17.7798 31.8926 18.4357 29.6062 17.4856 27.7361L15.0689 22.9794" stroke="#1E9DD8" stroke-width="1.5" stroke-linecap="round"/>
<path d="M30.306 12.3652L31.2256 12.655" stroke="#1E9DD8" stroke-width="1.5" stroke-linecap="round"/>
<path d="M30.4324 18.998L31.3567 18.7236" stroke="#1E9DD8" stroke-width="1.5" stroke-linecap="round"/>
<path d="M27.0921 7.2334C22.0151 11.6754 23.9983 20.3221 27.0921 23.1778" stroke="#1E9DD8" stroke-width="1.5" stroke-linecap="round"/>
</svg>
