<svg width="38" height="38" viewBox="0 0 38 38" fill="none" xmlns="http://www.w3.org/2000/svg">
<path d="M13.4706 27.6584C13.4706 29.8811 11.6687 31.683 9.44598 31.683C7.22326 31.683 5.42139 29.8811 5.42139 27.6584C5.42139 25.4357 7.22326 23.6338 9.44598 23.6338C11.6687 23.6338 13.4706 25.4357 13.4706 27.6584Z" stroke="#1E9DD8" stroke-width="1.5"/>
<path d="M21.9425 9.11529C22.2354 8.8224 22.2354 8.34752 21.9425 8.05463L17.1696 3.28166C16.8767 2.98877 16.4018 2.98877 16.1089 3.28166C15.816 3.57455 15.816 4.04943 16.1089 4.34232L20.3516 8.58496L16.1089 12.8276C15.816 13.1205 15.816 13.5954 16.1089 13.8883C16.4018 14.1812 16.8767 14.1812 17.1696 13.8883L21.9425 9.11529ZM10.0771 23.3389V14.585H8.57715V23.3389H10.0771ZM15.3271 9.33496H21.4122V7.83496H15.3271V9.33496ZM10.0771 14.585C10.0771 11.6855 12.4277 9.33496 15.3271 9.33496V7.83496C11.5992 7.83496 8.57715 10.857 8.57715 14.585H10.0771Z" fill="#1E9DD8"/>
<path d="M25.4882 12.4402C25.4882 10.2175 27.29 8.41565 29.5128 8.41565C31.7355 8.41565 33.5374 10.2175 33.5374 12.4402C33.5374 14.663 31.7355 16.4648 29.5128 16.4648C27.29 16.4648 25.4882 14.663 25.4882 12.4402Z" stroke="#1E9DD8" stroke-width="1.5"/>
<path d="M17.0162 30.9833C16.7233 31.2762 16.7233 31.7511 17.0162 32.044L21.7892 36.817C22.0821 37.1099 22.5569 37.1099 22.8498 36.817C23.1427 36.5241 23.1427 36.0492 22.8498 35.7563L18.6072 31.5137L22.8498 27.271C23.1427 26.9781 23.1427 26.5033 22.8498 26.2104C22.5569 25.9175 22.0821 25.9175 21.7892 26.2104L17.0162 30.9833ZM28.8816 16.7598L28.8816 25.5137L30.3816 25.5137L30.3816 16.7598L28.8816 16.7598ZM23.6316 30.7637L17.5465 30.7637L17.5465 32.2637L23.6316 32.2637L23.6316 30.7637ZM28.8816 25.5137C28.8816 28.4132 26.5311 30.7637 23.6316 30.7637L23.6316 32.2637C27.3595 32.2637 30.3816 29.2416 30.3816 25.5137L28.8816 25.5137Z" fill="#1E9DD8"/>
</svg>
