<svg width="38" height="37" viewBox="0 0 38 37" fill="none" xmlns="http://www.w3.org/2000/svg">
<path d="M26.7488 26.7693V7.54395C26.7488 4.78252 24.5103 2.54395 21.7488 2.54395H9.92676C7.16533 2.54395 4.92676 4.78252 4.92676 7.54395V29.7894C4.92676 32.2555 7.10629 34.1528 9.54891 33.8129V33.8129" stroke="#1E9DD8" stroke-width="1.5"/>
<path d="M11.9923 29.0525C11.9027 27.8252 12.821 26.7236 14.0515 26.7236H30.7038C31.5674 26.7236 32.352 27.2735 32.5617 28.1113C33.088 30.2149 32.8669 31.6337 31.0807 33.3535C30.7374 33.684 30.2703 33.8496 29.7939 33.8496H9.06717C11.2759 33.3915 12.2449 32.5138 11.9923 29.0525Z" stroke="#1E9DD8" stroke-width="1.5"/>
<path d="M11.1161 10.5584L13.1167 12.5594L17.5882 9.61719" stroke="#1E9DD8" stroke-width="1.5" stroke-linecap="round"/>
<path d="M11.4211 19.0194L13.4217 21.0204L17.8932 18.0781" stroke="#1E9DD8" stroke-width="1.5" stroke-linecap="round"/>
<path d="M30.0032 4.08691C30.0032 3.53463 30.451 3.08691 31.0032 3.08691H31.8115C32.3638 3.08691 32.8115 3.53463 32.8115 4.08691V20.3131C32.8115 20.4385 32.7879 20.5628 32.7419 20.6796L31.5004 23.8319C31.4671 23.9164 31.3475 23.9164 31.3143 23.8319L30.0728 20.6795C30.0268 20.5628 30.0032 20.4385 30.0032 20.3131V4.08691Z" stroke="#1E9DD8" stroke-width="1.5"/>
</svg>
