<svg width="37" height="37" viewBox="0 0 37 37" fill="none" xmlns="http://www.w3.org/2000/svg">
<path d="M17.4037 9.40138L18.5 7.47277L19.5963 9.40138C19.7708 9.70854 20.0673 9.92746 20.4122 10.004L22.5709 10.483L21.083 12.1892C20.8565 12.449 20.7473 12.7907 20.7811 13.1337L21.0042 15.3909L19.0144 14.4924C18.6873 14.3447 18.3126 14.3447 17.9856 14.4924L15.9958 15.3909L16.2188 13.1337C16.2527 12.7907 16.1435 12.449 15.917 12.1892L14.4291 10.483L16.5878 10.004C16.9327 9.92746 17.2291 9.70854 17.4037 9.40138Z" stroke="#1E9DD8" stroke-width="1.5"/>
<path d="M18.9678 3.11914C16.0404 3.11914 14.6613 3.11914 10.6022 3.11914C7.84086 3.11914 5.89744 5.8543 6.86085 8.44216C9.99315 16.8559 11.6092 19.346 15.3039 21.0324V27.0298C15.3039 29.2914 14.0322 31.3609 12.0145 32.3826L9.42754 33.6926C9.33364 33.7402 9.36747 33.8818 9.47271 33.8818H18.9678" stroke="#1E9DD8" stroke-width="1.5"/>
<path d="M18.0323 3.11914C20.9596 3.11914 22.3388 3.11914 26.3978 3.11914C29.1592 3.11914 31.1026 5.8543 30.1392 8.44216C27.0069 16.8559 25.3909 19.346 21.6961 21.0324V27.0298C21.6961 29.2914 22.9679 31.3609 24.9856 32.3826L27.5725 33.6926C27.6664 33.7402 27.6326 33.8818 27.5273 33.8818H18.0323" stroke="#1E9DD8" stroke-width="1.5"/>
<path d="M29.9261 8.84294C31.7482 7.363 37.568 8.63999 34.7299 14.0581C31.8918 19.4761 27.002 20.9654 24.9818 19.3446" stroke="#1E9DD8" stroke-width="1.5"/>
<path d="M7.07393 8.84294C5.25178 7.363 -0.568047 8.63999 2.27006 14.0581C5.10817 19.4761 9.998 20.9654 12.0182 19.3446" stroke="#1E9DD8" stroke-width="1.5"/>
</svg>
