<svg width="11" height="11" viewBox="0 0 21 21" fill="none" xmlns="http://www.w3.org/2000/svg">
<path fill-rule="evenodd" clip-rule="evenodd" d="M16.1073 7.47801C16.4095 7.16897 16.4038 6.67353 16.0948 6.37141C15.7858 6.06929 15.2903 6.0749 14.9882 6.38394L8.49199 13.0289L5.12202 10.1144C4.79514 9.83167 4.30096 9.86748 4.01824 10.1944C3.73553 10.5213 3.77134 11.0154 4.09823 11.2981L7.4682 14.2127C8.09394 14.7539 9.0328 14.7146 9.61113 14.123L16.1073 7.47801Z" fill="#0093D8"/>
<path fill-rule="evenodd" clip-rule="evenodd" d="M16.1073 7.47801C16.4095 7.16897 16.4038 6.67353 16.0948 6.37141C15.7858 6.06929 15.2903 6.0749 14.9882 6.38394L8.49199 13.0289L5.12202 10.1144C4.79514 9.83167 4.30096 9.86748 4.01824 10.1944C3.73553 10.5213 3.77134 11.0154 4.09823 11.2981L7.4682 14.2127C8.09394 14.7539 9.0328 14.7146 9.61113 14.123L16.1073 7.47801Z" fill="#0093D8"/>
<path fill-rule="evenodd" clip-rule="evenodd" d="M10.079 18.9093C14.794 18.9093 18.6163 15.0871 18.6163 10.3721C18.6163 5.65706 14.794 1.8348 10.079 1.8348C5.36397 1.8348 1.54171 5.65706 1.54171 10.3721C1.54171 15.0871 5.36397 18.9093 10.079 18.9093ZM20.079 10.3721C20.079 15.8949 15.6018 20.3721 10.079 20.3721C4.55613 20.3721 0.0789795 15.8949 0.0789795 10.3721C0.0789795 4.84922 4.55613 0.37207 10.079 0.37207C15.6018 0.37207 20.079 4.84922 20.079 10.3721Z" fill="#0093D8"/>
</svg>
