<svg width="166" height="165" viewBox="0 0 166 165" fill="none" xmlns="http://www.w3.org/2000/svg">
<rect x="22.7383" y="39.8027" width="121.181" height="95.9072" rx="13" stroke="#1E9DD8" stroke-width="4"/>
<path d="M54.5532 29.1074V48.786" stroke="#1E9DD8" stroke-width="4" stroke-linecap="round"/>
<path d="M143.919 63.1729L22.7389 63.1729" stroke="#1E9DD8" stroke-width="4" stroke-linecap="round"/>
<path d="M83.3286 29.1074V48.786" stroke="#1E9DD8" stroke-width="4" stroke-linecap="round"/>
<path d="M110.843 29.1074V48.786" stroke="#1E9DD8" stroke-width="4" stroke-linecap="round"/>
<rect x="37.6235" y="72.3545" width="13.2715" height="13.2715" rx="3" stroke="#1E9DD8" stroke-width="4"/>
<rect x="37.6235" y="92.1484" width="13.2715" height="13.2715" rx="3" stroke="#1E9DD8" stroke-width="4"/>
<rect x="37.6235" y="111.941" width="13.2715" height="13.2715" rx="3" stroke="#1E9DD8" stroke-width="4"/>
<rect x="63.6699" y="72.3545" width="13.2715" height="13.2715" rx="3" stroke="#1E9DD8" stroke-width="4"/>
<rect x="63.6699" y="92.1484" width="13.2715" height="13.2715" rx="3" stroke="#1E9DD8" stroke-width="4"/>
<rect x="63.6699" y="111.941" width="13.2715" height="13.2715" rx="3" stroke="#1E9DD8" stroke-width="4"/>
<rect x="89.7163" y="72.3545" width="13.2715" height="13.2715" rx="3" stroke="#1E9DD8" stroke-width="4"/>
<rect x="89.7163" y="92.1484" width="13.2715" height="13.2715" rx="3" stroke="#1E9DD8" stroke-width="4"/>
<rect x="89.7163" y="111.941" width="13.2715" height="13.2715" rx="3" stroke="#1E9DD8" stroke-width="4"/>
<rect x="115.763" y="72.3545" width="13.2715" height="13.2715" rx="3" stroke="#1E9DD8" stroke-width="4"/>
<rect x="115.763" y="92.1484" width="13.2715" height="13.2715" rx="3" stroke="#1E9DD8" stroke-width="4"/>
</svg>
