<svg width="208" height="208" viewBox="0 0 208 208" fill="none" xmlns="http://www.w3.org/2000/svg">
<rect x="2.44678" y="2.31934" width="49.0302" height="63.4831" rx="4" stroke="white" stroke-width="4"/>
<rect x="155.122" y="2.31934" width="49.0302" height="63.4831" rx="4" stroke="white" stroke-width="4"/>
<path d="M13.8889 52.8467H40.0347" stroke="white" stroke-width="4" stroke-linecap="round"/>
<path d="M166.564 52.8467H192.71" stroke="white" stroke-width="4" stroke-linecap="round"/>
<rect x="82.4956" y="2.31934" width="41.7985" height="31.7413" rx="4" stroke="white" stroke-width="4"/>
<path d="M83.0015 34.3301L66.8666 50.0212C66.0922 50.7743 65.6553 51.8086 65.6553 52.8888V62.1582C65.6553 64.3673 67.4461 66.1582 69.6553 66.1582H137.088C139.297 66.1582 141.088 64.3673 141.088 62.1582V52.9314C141.088 51.8261 140.631 50.7702 139.825 50.014L123.105 34.3301" stroke="white" stroke-width="4"/>
<path d="M65.6553 52.3027H108.623" stroke="white" stroke-width="4" stroke-linecap="round"/>
<path d="M117.694 52.3027L141.088 52.3027" stroke="white" stroke-width="4" stroke-linecap="round"/>
<rect x="2.44678" y="126.962" width="203.242" height="78.3077" rx="4" stroke="white" stroke-width="4"/>
<line x1="2.44678" y1="147.355" x2="205.689" y2="147.355" stroke="white" stroke-width="4"/>
<line x1="69.1035" y1="126.962" x2="69.1035" y2="204.232" stroke="white" stroke-width="4"/>
<line x1="137.202" y1="126.962" x2="137.202" y2="204.232" stroke="white" stroke-width="4"/>
<rect x="83.5139" y="160.241" width="40.0644" height="26.9603" rx="4" stroke="white" stroke-width="4"/>
<path d="M30.2026 136.799H41.062" stroke="white" stroke-width="4" stroke-linecap="round"/>
<path d="M165.769 136.799H176.629" stroke="white" stroke-width="4" stroke-linecap="round"/>
<path d="M164.076 160.241H178.322" stroke="white" stroke-width="4" stroke-linecap="round"/>
<path d="M28.5093 160.241H42.7555" stroke="white" stroke-width="4" stroke-linecap="round"/>
<path d="M83.5139 136.799L88.9374 136.799" stroke="white" stroke-width="4" stroke-linecap="round"/>
<path d="M100.834 136.799L106.258 136.799" stroke="white" stroke-width="4" stroke-linecap="round"/>
<path d="M100.683 170.58L106.107 170.58" stroke="white" stroke-width="4" stroke-linecap="round"/>
<path d="M118.155 136.799L123.579 136.799" stroke="white" stroke-width="4" stroke-linecap="round"/>
<path d="M87.4189 85.1748C98.3375 97.7884 76.4607 99.9564 87.4189 113.358" stroke="white" stroke-width="3"/>
<path d="M104.121 85.1748C115.039 97.7884 93.1623 99.9564 104.121 113.358" stroke="white" stroke-width="3"/>
<path d="M121.146 85.1748C132.065 97.7884 110.188 99.9564 121.146 113.358" stroke="white" stroke-width="3"/>
</svg>
