<svg width="166" height="164" viewBox="0 0 166 164" fill="none" xmlns="http://www.w3.org/2000/svg">
<path d="M99.7684 45.9337C100.549 45.1527 100.549 43.8864 99.7684 43.1053L87.0405 30.3774C86.2594 29.5963 84.9931 29.5963 84.212 30.3774C83.431 31.1584 83.431 32.4248 84.212 33.2058L95.5258 44.5195L84.212 55.8332C83.431 56.6143 83.431 57.8806 84.212 58.6617C84.9931 59.4427 86.2594 59.4427 87.0405 58.6617L99.7684 45.9337ZM124.578 106.242C125.578 106.711 126.769 106.282 127.239 105.282L134.891 88.9892C135.361 87.9894 134.931 86.7983 133.931 86.3287C132.931 85.8592 131.74 86.289 131.27 87.2888L124.469 101.771L109.986 94.9692C108.987 94.4997 107.795 94.9295 107.326 95.9293C106.856 96.9291 107.286 98.1202 108.286 98.5898L124.578 106.242ZM118.1 84.1223L116.219 84.8012L118.1 84.1223ZM98.3542 42.5195H43.0977V46.5195H98.3542V42.5195ZM31.0977 54.5195V67.5166H35.0977V54.5195H31.0977ZM43.0977 79.5166H108.694V75.5166H43.0977V79.5166ZM116.219 84.8012L123.547 105.11L127.31 103.753L119.981 83.4434L116.219 84.8012ZM108.694 79.5166C112.065 79.5166 115.074 81.63 116.219 84.8012L119.981 83.4434C118.265 78.6868 113.751 75.5166 108.694 75.5166V79.5166ZM31.0977 67.5166C31.0977 74.144 36.4702 79.5166 43.0977 79.5166V75.5166C38.6794 75.5166 35.0977 71.9349 35.0977 67.5166H31.0977ZM43.0977 42.5195C36.4703 42.5195 31.0977 47.8921 31.0977 54.5195H35.0977C35.0977 50.1013 38.6794 46.5195 43.0977 46.5195V42.5195Z" fill="#1E9DD8"/>
<path d="M64.3119 120.884C63.5308 121.665 63.5308 122.931 64.3119 123.712L77.0398 136.44C77.8208 137.221 79.0872 137.221 79.8682 136.44C80.6493 135.659 80.6493 134.393 79.8682 133.612L68.5545 122.298L79.8682 110.984C80.6493 110.203 80.6493 108.937 79.8682 108.156C79.0872 107.375 77.8208 107.375 77.0398 108.156L64.3119 120.884ZM101.131 124.298C102.236 124.298 103.131 123.402 103.131 122.298C103.131 121.193 102.236 120.298 101.131 120.298V124.298ZM65.7261 124.298H101.131V120.298H65.7261V124.298Z" fill="#1E9DD8"/>
<circle cx="121.145" cy="41.702" r="9.4373" stroke="#1E9DD8" stroke-width="4"/>
<circle cx="121.145" cy="122.298" r="9.4373" stroke="#1E9DD8" stroke-width="4"/>
<circle cx="44.535" cy="122.298" r="9.4373" stroke="#1E9DD8" stroke-width="4"/>
</svg>
