<svg width="436" height="372" viewBox="0 0 436 372" fill="none" xmlns="http://www.w3.org/2000/svg">
<path d="M118.887 288.329C116.928 290.198 118.251 293.5 120.958 293.5H335.887C337.544 293.5 338.887 292.157 338.887 290.5V85.5071C338.887 82.8684 335.726 81.515 333.816 83.3361L118.887 288.329ZM296.722 250.539C296.722 252.195 295.379 253.539 293.722 253.539H220.365C217.658 253.539 216.336 250.236 218.294 248.368L291.651 178.399C293.561 176.578 296.722 177.931 296.722 180.57V250.539Z" stroke="white" stroke-width="6" stroke-miterlimit="10"/>
<path d="M141.085 282.332V293.5" stroke="white" stroke-width="3" stroke-miterlimit="10"/>
<path d="M155.283 282.332V293.5" stroke="white" stroke-width="3" stroke-miterlimit="10"/>
<path d="M169.486 282.332V293.5" stroke="white" stroke-width="3" stroke-miterlimit="10"/>
<path d="M183.682 282.332V293.5" stroke="white" stroke-width="3" stroke-miterlimit="10"/>
<path d="M197.889 282.332V293.5" stroke="white" stroke-width="3" stroke-miterlimit="10"/>
<path d="M212.085 282.332V293.5" stroke="white" stroke-width="3" stroke-miterlimit="10"/>
<path d="M226.282 282.332V293.5" stroke="white" stroke-width="3" stroke-miterlimit="10"/>
<path d="M240.489 282.332V293.5" stroke="white" stroke-width="3" stroke-miterlimit="10"/>
<path d="M254.685 282.332V293.5" stroke="white" stroke-width="3" stroke-miterlimit="10"/>
<path d="M268.893 282.332V293.5" stroke="white" stroke-width="3" stroke-miterlimit="10"/>
<path d="M283.088 282.332V293.5" stroke="white" stroke-width="3" stroke-miterlimit="10"/>
<path d="M297.292 282.332V293.5" stroke="white" stroke-width="3" stroke-miterlimit="10"/>
<path d="M311.492 282.332V293.5" stroke="white" stroke-width="3" stroke-miterlimit="10"/>
<path d="M325.695 282.332V293.5" stroke="white" stroke-width="3" stroke-miterlimit="10"/>
<path d="M144.161 232.754C143.181 234.044 141.353 234.323 140.033 233.383L136.648 230.975C135.269 229.994 134.974 228.065 135.998 226.717L223.845 110.987C224.824 109.697 226.649 109.417 227.97 110.353L231.428 112.805C232.812 113.785 233.108 115.717 232.082 117.067L144.161 232.754Z" stroke="white" stroke-width="3" stroke-miterlimit="10" stroke-linecap="round" stroke-linejoin="round"/>
<path d="M136.034 227.116C135.053 228.405 133.226 228.684 131.906 227.745L128.521 225.336C127.141 224.355 126.847 222.427 127.87 221.078L215.718 105.348C216.696 104.059 218.521 103.778 219.842 104.714L223.301 107.166C224.684 108.147 224.981 110.078 223.955 111.429L136.034 227.116Z" stroke="white" stroke-width="3" stroke-miterlimit="10" stroke-linecap="round" stroke-linejoin="round"/>
<path d="M235.69 112.32C234.721 113.595 232.92 113.883 231.601 112.975L220.046 105.02C218.636 104.05 218.322 102.098 219.358 100.735L222.147 97.0627C223.116 95.7871 224.916 95.4978 226.236 96.4055L237.797 104.356C239.208 105.326 239.522 107.28 238.485 108.643L235.69 112.32Z" stroke="white" stroke-width="3" stroke-miterlimit="10" stroke-linecap="round" stroke-linejoin="round"/>
<path d="M238.03 104.516C239.35 105.424 241.151 105.134 242.119 103.858L243.873 101.546C247.218 97.1411 246.237 91.0323 241.681 87.8928C237.122 84.7633 230.717 85.7916 227.372 90.1901L225.782 92.2793C224.745 93.6429 225.059 95.5967 226.47 96.5675L238.03 104.516Z" stroke="white" stroke-width="3" stroke-miterlimit="10" stroke-linecap="round" stroke-linejoin="round"/>
<path d="M124.835 227.899C125.347 225.873 127.721 224.978 129.443 226.162L138.522 232.402C140.33 233.645 140.236 236.345 138.345 237.459L125.827 244.835C123.531 246.188 120.742 244.099 121.395 241.515L124.835 227.899Z" stroke="white" stroke-width="3" stroke-miterlimit="10" stroke-linecap="round" stroke-linejoin="round"/>
<path d="M126.278 238.705C124.556 237.521 122.182 238.415 121.669 240.441L121.398 241.514C120.744 244.098 123.532 246.188 125.829 244.835L126.815 244.254C128.706 243.14 128.801 240.441 126.993 239.197L126.278 238.705Z" stroke="white" stroke-width="3" stroke-miterlimit="10" stroke-linecap="round" stroke-linejoin="round"/>
<path d="M225.707 108.92L134.152 229.393" stroke="white" stroke-width="3" stroke-miterlimit="10" stroke-linecap="round" stroke-linejoin="round"/>
</svg>
