<svg width="233" height="170" viewBox="0 0 233 170" fill="none" xmlns="http://www.w3.org/2000/svg">
<path fill-rule="evenodd" clip-rule="evenodd" d="M221.645 147.58C220.721 147.771 219.779 147.862 218.835 147.852H216.428C215.321 147.867 214.218 147.723 213.151 147.426C212.228 147.168 211.377 146.7 210.665 146.058C210.24 145.673 209.892 145.211 209.639 144.696C209.397 144.192 209.272 143.64 209.274 143.081V142.088H213.394V143.081C213.391 143.203 213.415 143.324 213.465 143.436C213.531 143.572 213.623 143.693 213.736 143.792C214.012 144.035 214.343 144.207 214.701 144.293C215.279 144.442 215.874 144.511 216.471 144.499H218.812C219.408 144.512 220.004 144.443 220.582 144.293C220.929 144.196 221.25 144.02 221.518 143.778C221.64 143.683 221.744 143.565 221.823 143.432C221.87 143.326 221.894 143.211 221.893 143.095V142.102H226.037V143.095C226.044 143.83 225.846 144.553 225.465 145.183C225.064 145.819 224.516 146.35 223.869 146.733C223.181 147.14 222.429 147.426 221.645 147.58ZM230.756 147.421V164.202H226.627V150.155L211.142 163.95L210.857 164.202H206.01V146.41H210.14V159.904L224.969 146.709L225.259 146.452H230.756V147.421ZM204.849 157.797C204.849 160.329 204.148 162.066 202.747 163.008C201.96 163.497 201.079 163.816 200.162 163.945C198.924 164.144 197.67 164.235 196.416 164.216H187.398C184.377 164.216 182.207 163.759 180.89 162.845C179.451 161.852 178.733 160.174 178.736 157.811V152.895C178.707 151.88 178.866 150.869 179.204 149.912C179.517 149.057 180.064 148.308 180.782 147.749C181.599 147.173 182.533 146.783 183.517 146.606C184.787 146.355 186.08 146.239 187.375 146.26H196.402C199.258 146.26 201.308 146.681 202.55 147.524C203.343 148.064 203.952 148.834 204.297 149.729C204.675 150.739 204.856 151.812 204.83 152.89L204.849 157.797ZM200.719 152.745C200.737 152.194 200.666 151.644 200.509 151.115C200.427 150.842 200.263 150.6 200.04 150.422C199.674 150.203 199.266 150.061 198.842 150.006C198.031 149.874 197.21 149.815 196.388 149.828H187.365C185.564 149.828 184.331 150.049 183.666 150.493C183.407 150.671 183.211 150.927 183.105 151.223C182.929 151.711 182.848 152.227 182.866 152.745V157.797C182.847 158.314 182.925 158.83 183.095 159.319C183.188 159.595 183.367 159.835 183.606 160.002C184.23 160.414 185.478 160.62 187.351 160.62H196.398C197.241 160.635 198.083 160.577 198.917 160.447C199.332 160.4 199.733 160.269 200.097 160.063C200.301 159.892 200.446 159.661 200.513 159.403C200.666 158.882 200.736 158.34 200.719 157.797V152.745ZM158.981 154.093H170.401C171.082 154.102 171.763 154.065 172.438 153.981C172.763 153.952 173.08 153.866 173.375 153.728C173.522 153.637 173.635 153.501 173.698 153.339C173.818 153.003 173.872 152.647 173.857 152.291C173.857 151.42 173.67 150.834 173.286 150.544C173.005 150.353 172.685 150.225 172.349 150.17C171.77 150.052 171.18 149.999 170.589 150.01H158.981V154.093ZM154.866 163.186V146.428H169.765C170.942 146.413 172.118 146.514 173.276 146.728C174.195 146.888 175.074 147.223 175.866 147.716C176.583 148.183 177.149 148.848 177.495 149.631C177.855 150.472 178.031 151.381 178.01 152.295C178.033 153.179 177.862 154.056 177.509 154.866C177.171 155.617 176.6 156.24 175.88 156.64C174.647 157.333 172.618 157.68 169.793 157.68H158.981V164.188H154.866V163.186ZM131.131 146.428H154.346V150.01H144.274V164.202H140.144V150.01H130.134V146.428H131.131ZM121.265 164.249H112.257C110.99 164.267 109.726 164.154 108.483 163.912C107.509 163.735 106.585 163.352 105.772 162.788C105.036 162.24 104.475 161.49 104.156 160.63C103.803 159.665 103.633 158.642 103.655 157.614V153.016C103.634 151.984 103.805 150.956 104.161 149.987C104.487 149.115 105.05 148.351 105.786 147.782C106.599 147.199 107.528 146.798 108.511 146.606C109.742 146.349 110.999 146.228 112.257 146.246H121.289C126.945 146.246 129.773 148.078 129.773 151.743V152.74H125.643V151.743C125.652 151.471 125.595 151.202 125.479 150.956C125.368 150.761 125.207 150.599 125.011 150.488C124.594 150.251 124.137 150.092 123.663 150.02C122.89 149.887 122.106 149.826 121.322 149.837H112.257C111.431 149.822 110.606 149.888 109.794 150.034C109.342 150.098 108.91 150.257 108.525 150.502C108.272 150.708 108.086 150.985 107.991 151.298C107.815 151.852 107.735 152.431 107.752 153.012V157.61C107.752 158.832 108.01 159.632 108.515 159.998C109.14 160.441 110.388 160.663 112.261 160.663H121.293C122.064 160.674 122.835 160.62 123.597 160.503C124.052 160.445 124.494 160.309 124.903 160.101C125.127 159.984 125.312 159.805 125.437 159.586C125.568 159.326 125.631 159.038 125.62 158.748V157.75H129.75V158.748C129.792 159.582 129.611 160.414 129.224 161.155C128.837 161.896 128.259 162.52 127.549 162.962C126.734 163.453 125.833 163.783 124.894 163.936C123.697 164.156 122.482 164.261 121.265 164.249ZM102.714 147.421V164.202H98.5842V150.155L83.0999 163.95L82.8142 164.202H77.968V146.41H82.0978V159.904L96.9267 146.709L97.217 146.452H102.714V147.421ZM54.3645 146.428H77.5794V150.01H67.5078V164.202H63.378V150.01H53.3672V146.428H54.3645ZM53.0394 147.421V164.202H48.9097V150.155L33.4253 163.95L33.1443 164.202H28.2935V146.41H32.4233V159.904L47.2568 146.709L47.5424 146.452H53.0394V147.421ZM18.3576 164.249H9.32545C8.05921 164.267 6.79448 164.154 5.55151 163.912C4.57715 163.733 3.65164 163.35 2.83578 162.788C2.1025 162.238 1.542 161.489 1.22038 160.63C0.869029 159.664 0.700714 158.642 0.724058 157.614V153.016C0.702618 151.984 0.87412 150.956 1.22975 149.987C1.55595 149.115 2.11857 148.351 2.85451 147.782C3.66662 147.199 4.59438 146.799 5.57493 146.606C6.80661 146.35 8.06273 146.229 9.32077 146.246H18.3529C24.0029 146.246 26.8295 148.078 26.8326 151.743V152.74H22.7028V151.743C22.7126 151.472 22.658 151.202 22.5436 150.956C22.4314 150.762 22.2699 150.6 22.0754 150.488C21.6566 150.251 21.198 150.092 20.7222 150.02C19.9492 149.886 19.1654 149.825 18.381 149.837H9.35354C8.52969 149.822 7.70637 149.888 6.89533 150.034C6.44364 150.097 6.01086 150.257 5.62643 150.502C5.3731 150.709 5.18592 150.986 5.08796 151.298C4.9167 151.853 4.83761 152.432 4.85385 153.012V157.61C4.83823 158.16 4.9158 158.71 5.08328 159.234C5.1793 159.537 5.36554 159.804 5.61707 159.998C6.22108 160.443 7.48999 160.663 9.36291 160.663H18.3951C19.1661 160.674 19.9366 160.62 20.6988 160.503C21.154 160.445 21.5958 160.308 22.0051 160.101C22.2286 159.984 22.4139 159.805 22.5389 159.586C22.6656 159.325 22.7267 159.037 22.7168 158.748V157.75H26.8466V158.748C26.8617 159.591 26.6738 160.426 26.2988 161.182C25.9197 161.916 25.3505 162.533 24.6506 162.971C23.8351 163.46 22.9343 163.791 21.9958 163.945C20.7956 164.162 19.5773 164.264 18.3576 164.249Z" fill="#0093D8"/>
<path fill-rule="evenodd" clip-rule="evenodd" d="M173.664 128.448L115.177 135.027V116.274L173.664 128.448ZM167.132 113.727L170.41 120.821L157.051 117.164L157.383 123.55L115.346 114.771L115.191 114.738V97.0767L167.132 113.727ZM160.647 99.6239L164.229 107.425L156.344 104.208L156.616 108.825L115.411 95.6158L115.191 95.5409V77.6873L160.647 99.6239ZM152.79 82.5335L159.687 97.5168L115.491 76.2404L115.177 76.0859V59.8758L152.79 82.5335ZM145.036 65.6772L151.704 80.1923L115.533 58.3728L115.196 58.1667V43.5814L145.036 65.6772ZM137.207 48.657L143.763 62.8959L115.613 42.0877L115.182 41.7646V28.8696L137.207 48.657ZM127.084 26.6502L135.667 45.3279L115.645 27.3572L115.177 26.9311V15.1691L127.084 26.6502ZM115.177 0.738281L125.413 22.998L115.683 13.6333L115.177 13.1651V0.738281Z" fill="#0093D8"/>
<path fill-rule="evenodd" clip-rule="evenodd" d="M85.3135 65.6731L91.7657 67.1528L91.4848 72.4391L114.831 58.3734L115.173 58.1674V43.582L85.3135 65.6731Z" fill="#0093D8"/>
<path fill-rule="evenodd" clip-rule="evenodd" d="M56.6858 128.448L115.177 135.026V116.274L56.6858 128.448ZM63.2176 113.726L89.3449 113.001L88.8766 120.23L115.023 114.771L115.177 114.738V97.0761L63.2176 113.726ZM69.7026 99.6233L66.5514 106.474L115.168 86.6159V77.6867L69.7026 99.6233ZM77.5595 82.5329L90.9743 82.177L90.67 87.9269L114.859 76.2211L115.168 76.0666V59.8565L77.5595 82.5329ZM85.3181 65.6766L81.2819 74.4466L115.177 50.8805V43.5808L85.3181 65.6766ZM93.1422 48.6564L92.4539 54.2752L92.2104 58.7562L114.742 42.1012L115.177 41.7781V28.869L93.1422 48.6564ZM103.265 26.6496L94.6733 45.3367L114.704 27.366L115.172 26.9399V15.1686L103.265 26.6496ZM115.177 0.74707L104.942 23.0067L114.671 13.6421L115.177 13.1739V0.74707Z" fill="#0093D8"/>
<path fill-rule="evenodd" clip-rule="evenodd" d="M69.7029 99.6233L90.1973 96.8139L89.8227 103.664L114.953 95.6153L115.177 95.5404V77.6914L69.7029 99.6233Z" fill="#0093D8"/>
<path fill-rule="evenodd" clip-rule="evenodd" d="M56.6858 128.448L115.177 135.026V116.274L56.6858 128.448ZM63.2176 113.726L59.8136 121.101L115.154 105.912V97.0808L63.2176 113.726ZM69.7026 99.6233L66.5514 106.474L115.168 86.7376V77.6867L69.7026 99.6233ZM77.5595 82.5329L73.3454 91.7383L115.187 69.0619V76.0854V59.8752L77.5595 82.5329ZM85.3181 65.6766L81.2819 74.4466L115.177 51.5033V43.5902L85.3181 65.6766ZM93.1422 48.6564L89.3964 56.8083L115.182 35.3165V28.869L93.1422 48.6564ZM103.265 26.6496L100.55 32.5446L115.177 18.4134V15.1358L103.265 26.6496ZM115.177 0.74707L104.942 23.0067L115.177 6.95112V0.74707Z" fill="#8ED8FB"/>
<path fill-rule="evenodd" clip-rule="evenodd" d="M232.769 169.712H1.22473V168.048H232.769V169.712Z" fill="#0093D8"/>
</svg>
