<svg width="436" height="372" viewBox="0 0 436 372" fill="none" xmlns="http://www.w3.org/2000/svg">
<path d="M361.388 50.73H74.6113C69.0885 50.73 64.6113 55.2071 64.6113 60.73V258.443C64.6113 263.965 69.0885 268.443 74.6113 268.443H361.388C366.911 268.443 371.388 263.965 371.388 258.443V60.73C371.388 55.2071 366.911 50.73 361.388 50.73Z" stroke="white" stroke-width="6" stroke-linecap="round"/>
<path d="M134.206 93.2547L98.2473 109.578C97.4585 109.936 97.4672 111.06 98.2614 111.406L110.583 116.772L135.83 127.767C136.097 127.883 136.402 127.877 136.664 127.751L170.487 111.428C171.248 111.061 171.239 109.974 170.472 109.62L135.039 93.2574C134.775 93.1355 134.471 93.1345 134.206 93.2547Z" stroke="white" stroke-width="6" stroke-linecap="round"/>
<path d="M111.912 117.939L98.283 123.969C97.4866 124.321 97.4899 125.452 98.2884 125.8L110.583 131.154L135.83 142.15C136.097 142.266 136.402 142.26 136.664 142.133L170.503 125.803C171.261 125.437 171.256 124.355 170.493 123.998L157.589 117.939" stroke="white" stroke-width="6" stroke-linecap="round"/>
<path d="M157.315 132.479L170.44 138.392C171.215 138.741 171.229 139.835 170.464 140.204L136.664 156.515C136.402 156.642 136.097 156.648 135.83 156.532L110.583 145.536L98.2201 140.152C97.4324 139.809 97.4154 138.698 98.1923 138.331L110.583 132.479" stroke="white" stroke-width="6" stroke-linecap="round"/>
<circle cx="218" cy="161.783" r="26.0447" stroke="white" stroke-width="6"/>
<circle cx="236.823" cy="190.824" r="26.0447" stroke="white" stroke-width="6"/>
<circle cx="201.391" cy="190.824" r="26.0447" stroke="white" stroke-width="6"/>
<rect x="165.954" y="227.563" width="9.75732" height="9.75732" rx="0.5" stroke="white" stroke-width="6"/>
<rect x="214.272" y="227.563" width="9.75732" height="9.75732" rx="0.5" stroke="white" stroke-width="6"/>
<rect x="262.59" y="227.563" width="9.75732" height="9.75732" rx="0.5" stroke="white" stroke-width="6"/>
<path d="M177.312 232.861H213.911M262.307 232.027L224.686 232.861" stroke="white" stroke-width="6" stroke-linecap="round"/>
<path d="M283.601 105.638L309.05 120.342M283.601 105.638L308.544 91.5035C308.857 91.3263 309.235 91.3274 309.544 91.5115C317.754 96.4054 333.379 105.638 333.933 105.638M283.601 105.638V134.604C283.601 134.965 283.795 135.297 284.108 135.474L309.05 149.608M309.05 120.342C317.58 115.441 334.499 105.638 333.933 105.638M309.05 120.342V149.608M333.933 105.638V134.611C333.933 134.968 333.743 135.297 333.435 135.476L309.05 149.608" stroke="white" stroke-width="6" stroke-linecap="round"/>
<path d="M162.242 321.27H272.287" stroke="white" stroke-width="6" stroke-linecap="round"/>
<path d="M251.66 279.338H182.834C182.121 279.338 181.618 280.073 181.733 280.777C182.842 287.539 176.411 301.174 172.165 308.732C171.787 309.406 172.27 310.246 173.043 310.246H261.178C262.045 310.246 262.51 309.207 261.965 308.533C253.664 298.251 252.272 286.313 252.686 280.47C252.729 279.868 252.263 279.338 251.66 279.338Z" stroke="white" stroke-width="6" stroke-linecap="round"/>
</svg>
