<svg width="111" height="84" viewBox="0 0 111 84" fill="none" xmlns="http://www.w3.org/2000/svg">
<path fill-rule="evenodd" clip-rule="evenodd" d="M108.527 12.9778C107.25 7.86684 103.499 3.85035 98.727 2.4822C90.0864 0 55.4221 0 55.4221 0C55.4221 0 20.7582 0 12.1173 2.4822C7.34524 3.85035 3.59506 7.86684 2.31763 12.9778C1.70982 15.4049 1.26141 18.5242 0.930597 21.8058L2.03105 22.4337L2.04135 22.4396L50.0465 49.3323C53.3864 51.2033 57.4589 51.2033 60.7988 49.3323L108.825 22.428L108.832 22.4239L108.839 22.42L109.912 21.8265C109.581 18.5373 109.133 15.41 108.527 12.9778ZM110.426 28.408L63.7313 54.5669C58.5696 57.4585 52.2757 57.4585 47.1141 54.5669L0.414726 28.4056C5.7818e-09 35.4174 0 41.5525 0 41.5525C0 41.5525 0 60.8728 2.31763 70.1273C3.59506 75.2383 7.34524 79.2547 12.1173 80.6227C20.7582 83.105 55.4221 83.105 55.4221 83.105C55.4221 83.105 90.0864 83.105 98.727 80.6227C103.499 79.2547 107.25 75.2383 108.527 70.1273C110.845 60.8728 110.845 41.5525 110.845 41.5525C110.845 41.5525 110.842 35.4188 110.426 28.408Z" fill="white"/>
</svg>
