<svg width="240" height="241" viewBox="0 0 240 241" fill="none" xmlns="http://www.w3.org/2000/svg">
<path d="M83.2975 56.0221L51.2631 45.1533C28.0594 37.2806 3.98633 54.5339 3.98633 79.0368V79.0368M83.2975 56.0221V236.243M83.2975 56.0221L116.977 47.4772M161.192 213.583L83.2975 236.243M161.192 213.583L179.958 219.248M161.192 213.583L162.704 112.458M83.2975 236.243L25.7447 219.799C12.8656 216.12 3.98633 204.348 3.98633 190.954V91.4292M192.351 222.681L236.255 236.243V76.5663C236.255 62.4965 226.477 50.3169 212.739 47.2756L201.692 44.8299M116.977 47.4772C119.386 79.0368 147.751 105.415 162.704 112.458M116.977 47.4772C123.713 -19.5801 201.692 -2.75463 201.692 44.8299M162.704 112.458C174.673 103.972 192.351 87.146 201.692 44.8299" stroke="white" stroke-width="6"/>
<path d="M39.772 184.447L55.0787 199.754" stroke="white" stroke-width="6" stroke-linecap="round"/>
<path d="M204.745 121.689L220.051 136.996" stroke="white" stroke-width="6" stroke-linecap="round"/>
<path d="M39.772 199.754L55.0786 184.447" stroke="white" stroke-width="6" stroke-linecap="round"/>
<path d="M204.745 136.996L220.052 121.689" stroke="white" stroke-width="6" stroke-linecap="round"/>
<path d="M177.873 157.575L219.712 161.317" stroke="white" stroke-width="6" stroke-linecap="round"/>
<path d="M177.873 174.242L219.712 177.984" stroke="white" stroke-width="6" stroke-linecap="round"/>
<path d="M177.873 191.08L219.712 194.822" stroke="white" stroke-width="6" stroke-linecap="round"/>
<path d="M68.6848 192.951L95.3059 190.05C110.539 188.39 122.308 175.907 123.068 160.603V160.603C123.864 144.597 136.663 131.801 152.668 131.01L186.377 129.343" stroke="white" stroke-width="6" stroke-linecap="round"/>
<circle cx="160.317" cy="44.8528" r="19.7503" stroke="white" stroke-width="6"/>
<path d="M31.1413 114.453H25.8268C25.0815 114.453 24.5948 113.674 24.9325 113.009C30.3481 102.352 40.1838 83.5247 43.8192 78.4503C44.2049 77.912 44.959 78.0075 45.2836 78.5847L64.6213 112.963C64.9963 113.629 64.5146 114.453 63.7497 114.453H56.5907M31.1413 114.453L19.2149 136.499C18.8545 137.165 19.3369 137.974 20.0944 137.974H43.866M31.1413 114.453H56.5907M56.5907 114.453L68.5171 136.499C68.8776 137.165 68.3951 137.974 67.6376 137.974H43.866M43.866 137.974V153.47C43.866 154.023 43.4183 154.47 42.866 154.47H33.4548H43.5477H55.6405" stroke="white" stroke-width="6"/>
</svg>
