<svg width="77" height="78" viewBox="0 0 77 78" fill="none" xmlns="http://www.w3.org/2000/svg">
<path fill-rule="evenodd" clip-rule="evenodd" d="M5.06392 54.8884C1.81474 55.9875 1.54172 57.6133 1.37295 59.0036C1.1494 60.2219 0.989944 61.5355 0.821176 62.9258C0.662884 64.2299 0.842018 66.4943 2.48691 68.6011C4.12683 70.712 7.91897 76.3972 16.9726 77.4962C26.0306 78.5957 35.6595 72.4623 36.9763 71.6249C38.2925 70.7922 59.0172 60.1921 68.9129 40.6397C77.1143 24.3746 76.3341 20.7918 76.4038 17.064C76.4773 13.3416 73.4308 4.66741 69.2965 2.42394C65.2313 0.271545 61.4897 -0.182646 60.6802 0.215314C59.8752 0.613814 59.254 1.95409 58.0422 3.79673C56.8989 5.73526 51.2159 15.0038 50.3868 16.8102C49.5616 18.622 49.1044 19.8946 50.7396 21.4212C52.4537 22.9574 56.1015 27.3018 57.1506 28.6697C58.2084 29.9657 58.2092 31.2064 57.0713 33.0628C55.9286 34.9966 53.1965 41.2228 45.9773 48.1498C40.3832 53.5324 33.839 56.805 31.896 57.8146C29.8844 58.7283 29.0294 57.6321 28.2593 56.4586C27.5485 55.4577 26.3409 54.1484 25.4118 53.0383C24.4778 51.9325 23.6971 51.5069 22.5892 50.6233C21.4709 49.8259 20.3084 50.0156 19.3542 50.396C18.4696 50.7897 8.94981 53.5309 5.06392 54.8884Z" fill="white"/>
</svg>
