<svg width="436" height="372" viewBox="0 0 436 372" fill="none" xmlns="http://www.w3.org/2000/svg">
<path d="M46.4224 245.841V228.036C46.4224 224.722 49.1087 222.036 52.4224 222.036H109.413" stroke="white" stroke-width="6" stroke-linecap="round"/>
<path d="M44.5415 278.88V292.109C44.5415 295.423 47.2278 298.109 50.5415 298.109H385.458C388.772 298.109 391.458 295.423 391.458 292.109V79.8887C391.458 76.575 388.772 73.8887 385.458 73.8887H116.311C112.998 73.8887 110.311 76.575 110.311 79.8887V240.874C110.311 242.465 110.944 243.991 112.069 245.117L131.821 264.869" stroke="white" stroke-width="6" stroke-linecap="round"/>
<path d="M109.877 298.111V278.991" stroke="white" stroke-width="6" stroke-linecap="round"/>
<path d="M111.615 128.641H152.027" stroke="white" stroke-width="6" stroke-linecap="round"/>
<path d="M189.832 74.3232V122.641C189.832 125.954 192.518 128.641 195.832 128.641H224.595" stroke="white" stroke-width="6" stroke-linecap="round"/>
<path d="M190.266 128.641L172.885 153.845" stroke="white" stroke-width="6" stroke-linecap="round"/>
<path d="M288.038 73.8887V129.51M288.038 166.881V129.51M288.038 129.51H256.79C254.856 129.51 253.041 130.442 251.914 132.014L237.197 152.541" stroke="white" stroke-width="6" stroke-linecap="round"/>
<path d="M287.169 296.981V223.37M265.007 181.654L285.036 198.541C286.388 199.681 287.169 201.36 287.169 203.129V223.37M287.169 223.37H169.76C166.446 223.37 163.76 226.057 163.76 229.37V248.574" stroke="white" stroke-width="6" stroke-linecap="round"/>
<path d="M164.629 298.109L164.629 272.908" stroke="white" stroke-width="6" stroke-linecap="round"/>
</svg>
