<svg width="204" height="198" viewBox="0 0 204 198" fill="none" xmlns="http://www.w3.org/2000/svg">
<path d="M16.951 2.54965C16.1699 1.76861 14.9036 1.76861 14.1225 2.54965L1.39461 15.2776C0.613558 16.0586 0.613558 17.325 1.39461 18.106C2.17566 18.8871 3.44199 18.8871 4.22303 18.106L15.5367 6.79229L26.8505 18.106C27.6315 18.8871 28.8978 18.8871 29.6789 18.106C30.4599 17.325 30.4599 16.0586 29.6789 15.2776L16.951 2.54965ZM14.1225 150.441C14.9036 151.222 16.1699 151.222 16.951 150.441L29.6789 137.713C30.4599 136.932 30.4599 135.665 29.6789 134.884C28.8978 134.103 27.6315 134.103 26.8504 134.884L15.5367 146.198L4.22303 134.884C3.44198 134.103 2.17565 134.103 1.3946 134.884C0.613553 135.665 0.613553 136.932 1.3946 137.713L14.1225 150.441ZM13.5367 3.96387L13.5367 149.026L17.5367 149.026L17.5367 3.96387L13.5367 3.96387Z" fill="white"/>
<path d="M193.713 184.694C194.494 183.912 194.494 182.646 193.713 181.865L180.985 169.137C180.204 168.356 178.937 168.356 178.156 169.137C177.375 169.918 177.375 171.185 178.156 171.966L189.47 183.279L178.156 194.593C177.375 195.374 177.375 196.64 178.156 197.421C178.937 198.202 180.204 198.202 180.985 197.421L193.713 184.694ZM60.5093 181.865C59.7282 182.646 59.7282 183.912 60.5093 184.693L73.2372 197.421C74.0182 198.202 75.2846 198.202 76.0656 197.421C76.8467 196.64 76.8467 195.374 76.0656 194.593L64.7519 183.279L76.0656 171.966C76.8467 171.185 76.8467 169.918 76.0656 169.137C75.2846 168.356 74.0182 168.356 73.2372 169.137L60.5093 181.865ZM192.298 181.279L61.9235 181.279L61.9235 185.279L192.298 185.279L192.298 181.279Z" fill="white"/>
<path fill-rule="evenodd" clip-rule="evenodd" d="M60.901 0.285156H84.8783L84.8783 85.3525C84.8783 87.8378 86.893 89.8525 89.3783 89.8525C91.8636 89.8525 93.8783 87.8378 93.8783 85.3525V65.498H133.438C135.923 65.498 137.938 63.4833 137.938 60.998C137.938 58.5128 135.923 56.498 133.438 56.498H93.8783L93.8783 0.285156H193.321C198.844 0.285156 203.321 4.76231 203.321 10.2852V56.498H166.066C163.581 56.498 161.566 58.5128 161.566 60.998C161.566 63.4833 163.581 65.498 166.066 65.498H203.321V142.705C203.321 148.228 198.844 152.705 193.321 152.705H93.8783V119.274C93.8783 116.789 91.8636 114.774 89.3783 114.774C86.893 114.774 84.8783 116.789 84.8783 119.274V152.705H60.901C55.3782 152.705 50.901 148.228 50.901 142.705V10.2852C50.901 4.76231 55.3782 0.285156 60.901 0.285156Z" fill="white"/>
</svg>
