<svg width="436" height="372" viewBox="0 0 436 372" fill="none" xmlns="http://www.w3.org/2000/svg">
<path d="M324.719 302.282H111.793C110.133 302.255 108.548 301.583 107.373 300.409C106.199 299.234 105.527 297.649 105.5 295.988V46.8754C105.527 45.2147 106.199 43.6297 107.373 42.4552C108.548 41.2808 110.133 40.609 111.793 40.582H324.195C325.856 40.609 327.441 41.2808 328.615 42.4552C329.79 43.6297 330.461 45.2147 330.489 46.8754V295.988C330.538 296.784 330.427 297.581 330.161 298.333C329.895 299.084 329.481 299.774 328.942 300.362C328.404 300.949 327.752 301.422 327.026 301.752C326.301 302.082 325.516 302.262 324.719 302.282Z" stroke="white" stroke-width="5"/>
<path d="M105.5 291V325.125C105.527 326.786 106.199 328.371 107.373 329.545C108.548 330.72 110.133 331.392 111.793 331.419H324.719C325.516 331.399 326.301 331.219 327.026 330.889C327.752 330.559 328.404 330.086 328.942 329.499C329.481 328.911 329.895 328.221 330.161 327.469C330.427 326.718 330.538 325.921 330.489 325.125V291" stroke="white" stroke-width="5"/>
<path d="M111.793 101.942H324.719C326.296 101.811 327.765 101.09 328.834 99.9236C329.903 98.7574 330.494 97.2312 330.489 95.6491V46.8754C330.462 45.2147 329.79 43.6297 328.615 42.4552C327.441 41.2808 325.856 40.609 324.195 40.582H111.793C110.133 40.609 108.548 41.2808 107.373 42.4552C106.199 43.6297 105.527 45.2147 105.5 46.8754V95.6491C105.527 97.3098 106.199 98.8949 107.373 100.069C108.548 101.244 110.133 101.915 111.793 101.942Z" stroke="white" stroke-width="5"/>
<path d="M300.069 65.2319C301.313 65.2319 302.53 65.6011 303.565 66.2926C304.6 66.9841 305.407 67.967 305.883 69.117C306.359 70.2669 306.484 71.5323 306.241 72.7531C305.998 73.9739 305.399 75.0953 304.519 75.9755C303.639 76.8556 302.517 77.455 301.296 77.6978C300.076 77.9407 298.81 77.816 297.66 77.3396C296.51 76.8633 295.527 76.0567 294.836 75.0217C294.144 73.9868 293.775 72.7701 293.775 71.5254C293.775 69.8563 294.438 68.2555 295.619 67.0752C296.799 65.895 298.399 65.2319 300.069 65.2319Z" stroke="white" stroke-width="4"/>
<path d="M275.944 65.2319C277.189 65.2319 278.405 65.6011 279.44 66.2926C280.475 66.9841 281.282 67.967 281.758 69.117C282.234 70.2669 282.359 71.5323 282.116 72.7531C281.873 73.9739 281.274 75.0953 280.394 75.9755C279.514 76.8556 278.393 77.455 277.172 77.6978C275.951 77.9407 274.685 77.816 273.535 77.3396C272.385 76.8633 271.403 76.0567 270.711 75.0217C270.02 73.9868 269.65 72.7701 269.65 71.5254C269.65 69.8563 270.314 68.2555 271.494 67.0752C272.674 65.895 274.275 65.2319 275.944 65.2319Z" stroke="white" stroke-width="4"/>
<path d="M267.588 138.129C268.833 138.129 270.05 138.499 271.085 139.19C272.12 139.882 272.926 140.864 273.403 142.014C273.879 143.164 274.004 144.43 273.761 145.651C273.518 146.871 272.919 147.993 272.038 148.873C271.158 149.753 270.037 150.352 268.816 150.595C267.595 150.838 266.33 150.713 265.18 150.237C264.03 149.761 263.047 148.954 262.356 147.919C261.664 146.884 261.295 145.667 261.295 144.423C261.295 142.754 261.958 141.153 263.138 139.973C264.319 138.792 265.919 138.129 267.588 138.129Z" stroke="white" stroke-width="4"/>
<path d="M169.066 65.2319C170.31 65.2319 171.527 65.6011 172.562 66.2926C173.597 66.9841 174.404 67.967 174.88 69.117C175.356 70.2669 175.481 71.5323 175.238 72.7531C174.995 73.9739 174.396 75.0953 173.516 75.9755C172.636 76.8556 171.514 77.455 170.293 77.6978C169.073 77.9407 167.807 77.816 166.657 77.3396C165.508 76.8633 164.524 76.0567 163.833 75.0217C163.141 73.9868 162.772 72.7701 162.772 71.5254C162.772 69.8563 163.435 68.2555 164.616 67.0752C165.796 65.895 167.396 65.2319 169.066 65.2319Z" stroke="white" stroke-width="4"/>
<path d="M136.444 65.2319C137.689 65.2319 138.905 65.6011 139.94 66.2926C140.975 66.9841 141.782 67.967 142.258 69.117C142.734 70.2669 142.859 71.5323 142.616 72.7531C142.373 73.9739 141.774 75.0953 140.894 75.9755C140.014 76.8556 138.892 77.455 137.671 77.6978C136.451 77.9407 135.185 77.816 134.035 77.3396C132.885 76.8633 131.902 76.0567 131.211 75.0217C130.519 73.9868 130.15 72.7701 130.15 71.5254C130.15 69.8563 130.813 68.2555 131.994 67.0752C133.174 65.895 134.775 65.2319 136.444 65.2319Z" stroke="white" stroke-width="4"/>
<path d="M300.071 278.156H136.444C134.783 278.129 133.198 277.457 132.024 276.283C130.849 275.108 130.177 273.523 130.15 271.862V119.772C130.177 118.112 130.849 116.527 132.024 115.352C133.198 114.178 134.783 113.506 136.444 113.479H300.596C302.257 113.506 303.842 114.178 305.016 115.352C306.191 116.527 306.863 118.112 306.89 119.772V271.862C306.661 273.54 305.855 275.085 304.611 276.234C303.367 277.382 301.762 278.062 300.071 278.156Z" stroke="white" stroke-width="5"/>
<path d="M227.434 65.2319H209.078C205.747 65.2319 203.047 67.9322 203.047 71.2631C203.047 74.594 205.747 77.2943 209.078 77.2943H227.434C230.765 77.2943 233.465 74.594 233.465 71.2631C233.465 67.9322 230.765 65.2319 227.434 65.2319Z" stroke="white" stroke-width="5"/>
<path d="M136.443 143.856H239.759" stroke="white" stroke-width="5" stroke-linecap="round"/>
<path d="M258.506 175.295C252.877 179.978 243.346 192.782 250.253 206.543C257.16 220.303 246.728 235.107 240.648 240.789" stroke="white" stroke-width="6" stroke-linecap="round"/>
<path d="M226.763 175.295C221.135 179.978 211.604 192.782 218.511 206.543C225.418 220.303 214.986 235.107 208.906 240.789" stroke="white" stroke-width="6" stroke-linecap="round"/>
<path d="M195.352 175.295C189.723 179.978 180.193 192.782 187.1 206.543C194.007 220.303 183.575 235.107 177.495 240.789" stroke="white" stroke-width="6" stroke-linecap="round"/>
</svg>
