<svg width="436" height="372" viewBox="0 0 436 372" fill="none" xmlns="http://www.w3.org/2000/svg">
<path d="M167.486 291.143V291.143C165.933 293.689 162.574 294.432 160.092 292.78L108.264 258.277C104.215 255.582 103.04 250.157 105.611 246.028L212.907 73.7132C214.35 71.3957 217.351 70.6072 219.747 71.9162V71.9162L271.952 102.278C276.313 104.814 277.738 110.439 275.111 114.746L273.02 118.172M167.486 291.143L187.222 299.032C191.879 300.894 197.159 298.59 198.962 293.909L255.708 146.547M167.486 291.143L255.708 146.547M255.708 146.547L259.74 139.939M200.343 295.808L217.991 300.163C222.967 301.391 227.962 298.221 228.971 293.196L259.74 139.939M259.74 139.939L265.194 130.999M231.389 295.808H251.033C255.887 295.808 259.867 291.957 260.028 287.105L265.194 130.999M265.194 130.999L271.36 120.892M261.658 285.701L288.234 281.021C293.081 280.168 296.343 275.58 295.558 270.723L271.36 120.892M271.36 120.892L273.02 118.172M296.973 265.878L311.278 259.481C315.495 257.595 317.6 252.822 316.148 248.437L314.33 242.944M273.02 118.172L314.33 242.944M273.02 118.172L331.29 218.294C333.449 222.004 332.688 226.722 329.471 229.565L314.33 242.944" stroke="white" stroke-width="5"/>
<circle cx="248.574" cy="112.505" r="7.64346" fill="white"/>
</svg>
