<svg width="104" height="33" viewBox="0 0 104 33" fill="none" xmlns="http://www.w3.org/2000/svg">
<path fill-rule="evenodd" clip-rule="evenodd" d="M7.25745 3.75501C7.25745 5.67459 5.70132 7.23071 3.78174 7.23071C1.86216 7.23071 0.30603 5.67459 0.30603 3.75501C0.30603 1.83542 1.86216 0.279297 3.78174 0.279297C5.70132 0.279297 7.25745 1.83542 7.25745 3.75501Z" fill="#0093D8"/>
<path fill-rule="evenodd" clip-rule="evenodd" d="M43.3026 3.75501C43.3026 5.67459 41.7465 7.23071 39.8269 7.23071C37.9073 7.23071 36.3512 5.67459 36.3512 3.75501C36.3512 1.83542 37.9073 0.279297 39.8269 0.279297C41.7465 0.279297 43.3026 1.83542 43.3026 3.75501Z" fill="#0093D8"/>
<path fill-rule="evenodd" clip-rule="evenodd" d="M103.136 3.75501C103.136 5.67459 101.58 7.23071 99.6606 7.23071C97.7411 7.23071 96.1849 5.67459 96.1849 3.75501C96.1849 1.83542 97.7411 0.279297 99.6606 0.279297C101.58 0.279297 103.136 1.83542 103.136 3.75501Z" fill="#0093D8"/>
<path fill-rule="evenodd" clip-rule="evenodd" d="M103.136 28.8859C103.136 30.8054 101.58 32.3616 99.6606 32.3616C97.7411 32.3616 96.1849 30.8054 96.1849 28.8859C96.1849 26.9663 97.7411 25.4102 99.6606 25.4102C101.58 25.4102 103.136 26.9663 103.136 28.8859Z" fill="#0093D8"/>
<path fill-rule="evenodd" clip-rule="evenodd" d="M61.7682 28.8859C61.7682 30.8054 60.2121 32.3616 58.2925 32.3616C56.3729 32.3616 54.8168 30.8054 54.8168 28.8859C54.8168 26.9663 56.3729 25.4102 58.2925 25.4102C60.2121 25.4102 61.7682 26.9663 61.7682 28.8859Z" fill="#0093D8"/>
<path d="M5.48376 3.75488H100.829" stroke="#0093D8" stroke-width="2"/>
<path d="M40.3661 3.88184L58.1025 29.2286L100.248 28.3395" stroke="#0093D8" stroke-width="2"/>
</svg>
