<svg width="338" height="338" viewBox="0 0 338 338" fill="none" xmlns="http://www.w3.org/2000/svg">
<path fill-rule="evenodd" clip-rule="evenodd" d="M169.14 337.396C262.193 337.396 337.627 261.961 337.627 168.908C337.627 75.8552 262.193 0.420898 169.14 0.420898C76.0867 0.420898 0.652344 75.8552 0.652344 168.908C0.652344 220.205 23.5765 266.148 59.7391 297.051L191.645 114.355L94.1209 130.099C85.9426 131.42 78.2423 125.86 76.922 117.682C75.6016 109.503 81.1612 101.803 89.3396 100.483L222.614 78.9666C230.792 77.6463 238.493 83.2058 239.813 91.3842L261.329 224.659C262.649 232.837 257.09 240.537 248.911 241.858C240.733 243.178 233.033 237.618 231.713 229.44L215.968 131.916L84.1852 314.441C109.127 329.033 138.157 337.396 169.14 337.396Z" fill="#0093D8"/>
</svg>
