<svg width="165" height="165" viewBox="0 0 165 165" fill="none" xmlns="http://www.w3.org/2000/svg">
<path d="M46.0485 22.8799H136.113C137.77 22.8799 139.113 24.223 139.113 25.8799V31.513C139.113 33.1699 137.77 34.513 136.113 34.513H27.9634C26.3065 34.513 24.9634 33.1699 24.9634 31.513V25.8799C24.9634 24.223 26.3065 22.8799 27.9634 22.8799H36.4146" stroke="#1E9DD8" stroke-width="4" stroke-linecap="round"/>
<path d="M27.1445 33.6045L16.7837 52.1445H148.565L136.023 33.6045" stroke="#1E9DD8" stroke-width="4"/>
<path d="M35.6875 52.5078C35.6875 50.1813 39.444 40.0268 41.3223 35.2402" stroke="#1E9DD8" stroke-width="4"/>
<path d="M57.4995 34.5127L54.2275 51.7812" stroke="#1E9DD8" stroke-width="4"/>
<path d="M73.8584 34.6943L72.5859 51.5986" stroke="#1E9DD8" stroke-width="4"/>
<path d="M90.2173 35.0586L91.8535 51.2354" stroke="#1E9DD8" stroke-width="4"/>
<path d="M106.577 35.2402L110.575 53.417" stroke="#1E9DD8" stroke-width="4"/>
<path d="M122.572 35.2402L129.843 52.8711" stroke="#1E9DD8" stroke-width="4"/>
<path d="M15.6934 53.417V62.233C15.6934 67.3025 19.803 71.4121 24.8725 71.4121V71.4121C29.942 71.4121 34.0516 67.3025 34.0516 62.233V53.417" stroke="#1E9DD8" stroke-width="4"/>
<path d="M34.0518 53.417V62.233C34.0518 67.3025 38.1614 71.4121 43.2309 71.4121V71.4121C48.3004 71.4121 52.41 67.3025 52.41 62.233V53.417" stroke="#1E9DD8" stroke-width="4"/>
<path d="M54.2275 53.417V62.233C54.2275 67.3025 58.3372 71.4121 63.4067 71.4121V71.4121C68.4761 71.4121 72.5858 67.3025 72.5858 62.233V53.417" stroke="#1E9DD8" stroke-width="4"/>
<path d="M73.4951 53.417V62.233C73.4951 67.3025 77.6047 71.4121 82.6742 71.4121V71.4121C87.7437 71.4121 91.8533 67.3025 91.8533 62.233V53.417" stroke="#1E9DD8" stroke-width="4"/>
<path d="M91.8535 53.417V62.233C91.8535 67.3025 95.9631 71.4121 101.033 71.4121V71.4121C106.102 71.4121 110.212 67.3025 110.212 62.233V53.417" stroke="#1E9DD8" stroke-width="4"/>
<path d="M111.121 53.417V62.233C111.121 67.3025 115.231 71.4121 120.3 71.4121V71.4121C125.37 71.4121 129.479 67.3025 129.479 62.233V53.417" stroke="#1E9DD8" stroke-width="4"/>
<path d="M131.857 54.0254V62.8414C131.857 67.9109 135.967 72.0205 141.037 72.0205V72.0205C146.106 72.0205 150.216 67.9109 150.216 62.8414V54.0254" stroke="#1E9DD8" stroke-width="4"/>
<path d="M25.5088 72.1387V127.941" stroke="#1E9DD8" stroke-width="4"/>
<path d="M139.113 72.6846V128.487" stroke="#1E9DD8" stroke-width="4"/>
<rect x="14.7842" y="129.759" width="133.508" height="12.1787" rx="4" stroke="#1E9DD8" stroke-width="4"/>
<path d="M33.6879 128.486C33.4154 126.306 33.5472 99.5885 33.6646 84.02C33.677 82.3727 35.0162 81.0449 36.6635 81.0449H56.3171C57.974 81.0449 59.3171 82.3881 59.3171 84.0449V128.486" stroke="#1E9DD8" stroke-width="4"/>
<path d="M52.0464 101.948C52.0465 102.675 52.0464 106.493 52.0464 108.311" stroke="#1E9DD8" stroke-width="4" stroke-linecap="round"/>
<path d="M94.3979 81.1357H71.042C69.3851 81.1357 68.042 82.4789 68.042 84.1357V114.944C68.042 116.601 69.3851 117.944 71.042 117.944H126.479C128.136 117.944 129.479 116.601 129.479 114.944V84.227C129.479 82.5702 128.136 81.227 126.479 81.227H102.032" stroke="#1E9DD8" stroke-width="4" stroke-linecap="round"/>
</svg>
