<svg width="37" height="37" viewBox="0 0 37 37" fill="none" xmlns="http://www.w3.org/2000/svg">
<path d="M9.23858 13.5193C9.06487 13.6803 8.84373 13.76 8.625 13.76C8.38361 13.76 8.13896 13.6628 7.96085 13.4687C7.96067 13.4685 7.96049 13.4683 7.96031 13.4681L5.25937 10.5469C4.913 10.2335 4.7 9.73779 4.7 9.22963C4.7 8.71417 4.91825 8.2207 5.29857 7.87321L7.9604 4.99229C7.96054 4.99213 7.96068 4.99197 7.96082 4.99182C8.30017 4.62214 8.87199 4.60222 9.23914 4.94056L9.23968 4.94106C9.60655 5.28082 9.62809 5.85204 9.29032 6.21872L9.28994 6.21912L7.34137 8.32667H31.664L29.7126 6.21931C29.3724 5.85187 29.3966 5.28054 29.7624 4.94141C30.1288 4.60055 30.7006 4.6238 31.0409 4.99112L31.0411 4.99129L33.743 7.91235C34.0894 8.22575 34.3024 8.72146 34.3024 9.22963C34.3024 9.74507 34.0842 10.2385 33.7039 10.586L31.0413 13.469L31.0401 13.4702C30.863 13.6599 30.6213 13.76 30.3774 13.76C30.1572 13.76 29.9374 13.6802 29.7639 13.5194C29.3971 13.1796 29.3755 12.6084 29.7133 12.2417L29.7137 12.2413L31.6623 10.1338H7.33723L9.28857 12.2412L9.06846 12.445M9.23858 13.5193C9.23855 13.5193 9.23851 13.5194 9.23847 13.5194L9.03463 13.2993L9.23858 13.5193ZM9.23858 13.5193C9.60461 13.1802 9.62893 12.6087 9.28858 12.2412L9.06846 12.445M9.06846 12.445L6.92837 10.1338L9.06846 12.445ZM7.41667 33.3963L7.11667 33.3951V33.3963C7.11667 33.8955 7.52165 34.3005 8.02083 34.3005C8.52002 34.3005 8.925 33.8955 8.925 33.3963V31.7893C9.21606 31.8472 9.51835 31.8838 9.83333 31.8838H29.1667C29.4817 31.8838 29.7839 31.8472 30.075 31.7893V33.3963C30.075 33.8955 30.48 34.3005 30.9792 34.3005C31.4784 34.3005 31.8833 33.8955 31.8833 33.3963L31.8833 33.3951V33.395L31.8833 33.3947L31.8833 33.3933L31.8833 33.3881L31.8832 33.3675L31.8829 33.2895L31.8818 33.0109L31.8782 32.164C31.8768 31.8555 31.8754 31.5463 31.8742 31.3128L31.8728 31.0866C33.3205 30.1819 34.3 28.5873 34.3 26.7505V23.7296C34.3 22.2115 33.2766 20.9291 31.8833 20.5348V18.8963C31.8833 16.3985 29.8519 14.3671 27.3542 14.3671H11.6458C9.14806 14.3671 7.11667 16.3985 7.11667 18.8963V20.5348C5.72336 20.9291 4.7 22.2115 4.7 23.7296V26.7505C4.7 28.5873 5.67952 30.1819 7.1272 31.0866L7.12585 31.3128C7.1246 31.5463 7.12316 31.8555 7.1218 32.164L7.11822 33.0109L7.11709 33.2895L7.11678 33.3675L7.1167 33.3881L7.11668 33.3933L7.11667 33.3947L7.11667 33.395L7.11667 33.3951L7.41667 33.3963ZM11.6458 16.1755H27.3542C28.8536 16.1755 30.075 17.3969 30.075 18.8963V20.5348C28.6817 20.9291 27.6583 22.2115 27.6583 23.7296V25.2421H11.3417V23.7296C11.3417 22.2115 10.3183 20.9291 8.925 20.5348V18.8963C8.925 17.3969 10.1464 16.1755 11.6458 16.1755ZM32.4917 26.7505C32.4917 28.5834 30.9996 30.0755 29.1667 30.0755H9.83333C8.00044 30.0755 6.50833 28.5834 6.50833 26.7505V23.7296C6.50833 22.896 7.18723 22.2171 8.02083 22.2171C8.85444 22.2171 9.53333 22.896 9.53333 23.7296V26.1463C9.53333 26.6455 9.93831 27.0505 10.4375 27.0505H28.5625C29.0617 27.0505 29.4667 26.6455 29.4667 26.1463V23.7296C29.4667 22.896 30.1456 22.2171 30.9792 22.2171C31.8128 22.2171 32.4917 22.896 32.4917 23.7296V26.7505Z" fill="#1E9DD8" stroke="#1E9DD8" stroke-width="0.6"/>
</svg>
