<svg width="37" height="37" viewBox="0 0 37 37" fill="none" xmlns="http://www.w3.org/2000/svg">
<g clip-path="url(#clip0_548_35)">
<path d="M22.6667 33H20.3333V30.6667H22.6667C22.9761 30.6667 23.2728 30.5438 23.4916 30.325C23.7104 30.1062 23.8333 29.8094 23.8333 29.5C23.8333 29.1906 23.7104 28.8938 23.4916 28.675C23.2728 28.4562 22.9761 28.3333 22.6667 28.3333H18C17.0718 28.3333 16.1815 27.9646 15.5251 27.3082C14.8688 26.6518 14.5 25.7616 14.5 24.8333C14.5 23.9051 14.8688 23.0148 15.5251 22.3585C16.1815 21.7021 17.0718 21.3333 18 21.3333H26.1667C26.4761 21.3333 26.7728 21.2104 26.9916 20.9916C27.2104 20.7728 27.3333 20.4761 27.3333 20.1667C27.3333 19.8572 27.2104 19.5605 26.9916 19.3417C26.7728 19.1229 26.4761 19 26.1667 19H11C1.74601 18.7048 1.75301 5.29167 11 5H27.3333C28.571 5 29.758 5.49167 30.6332 6.36684C31.5083 7.242 32 8.42899 32 9.66667C32 10.9043 31.5083 12.0913 30.6332 12.9665C29.758 13.8417 28.571 14.3333 27.3333 14.3333H11V12H27.3333C27.9522 12 28.5457 11.7542 28.9833 11.3166C29.4208 10.879 29.6667 10.2855 29.6667 9.66667C29.6667 9.04783 29.4208 8.45434 28.9833 8.01675C28.5457 7.57917 27.9522 7.33333 27.3333 7.33333H11C9.76233 7.33333 8.57535 7.825 7.70018 8.70017C6.82501 9.57534 6.33334 10.7623 6.33334 12C6.33334 13.2377 6.82501 14.4247 7.70018 15.2998C8.57535 16.175 9.76233 16.6667 11 16.6667H26.1667C27.0949 16.6667 27.9852 17.0354 28.6415 17.6918C29.2979 18.3482 29.6667 19.2384 29.6667 20.1667C29.6667 21.0949 29.2979 21.9852 28.6415 22.6415C27.9852 23.2979 27.0949 23.6667 26.1667 23.6667H18C17.6906 23.6667 17.3938 23.7896 17.1751 24.0084C16.9563 24.2272 16.8333 24.5239 16.8333 24.8333C16.8333 25.1428 16.9563 25.4395 17.1751 25.6583C17.3938 25.8771 17.6906 26 18 26H22.6667C23.5949 26 24.4852 26.3687 25.1415 27.0251C25.7979 27.6815 26.1667 28.5717 26.1667 29.5C26.1667 30.4283 25.7979 31.3185 25.1415 31.9749C24.4852 32.6313 23.5949 33 22.6667 33Z" fill="#1E9DD8"/>
</g>
<defs>
<clipPath id="clip0_548_35">
<rect width="28" height="28" fill="white" transform="translate(4 5)"/>
</clipPath>
</defs>
</svg>
