<svg width="37" height="37" viewBox="0 0 37 37" fill="none" xmlns="http://www.w3.org/2000/svg">
<circle cx="18.5" cy="15.7843" r="14.548" stroke="#1E9DD8" stroke-width="2"/>
<rect x="10.1982" y="12.3926" width="6.15143" height="10.5938" rx="1" stroke="#1E9DD8" stroke-width="2"/>
<path d="M19.9538 9.28216C20.181 12.3118 17.7975 13.6227 16.7645 14.1777C16.4969 14.3215 16.3497 14.5952 16.3497 14.899V20.704C16.3497 21.0534 16.532 21.3774 16.8307 21.5588L18.6334 22.6533C18.7898 22.7483 18.9694 22.7985 19.1524 22.7985H24.9156C25.4251 22.7985 25.8532 22.4154 25.9095 21.9089L26.6784 14.9886C26.7442 14.3962 26.2805 13.8781 25.6845 13.8781H23.1998C23.0171 13.8781 22.8768 13.7161 22.9029 13.5353L23.2028 11.4583C23.3095 10.7193 23.2773 9.96688 23.1079 9.23968L23.0855 9.14352C22.8535 8.1478 21.908 7.48734 20.8932 7.61227L20.7454 7.63047C20.188 7.69909 19.7965 8.21304 19.8782 8.76859L19.9538 9.28216Z" stroke="#1E9DD8" stroke-width="2"/>
<path d="M8.46842 26.5967L5.57353 32.4246C5.50749 32.5576 5.60421 32.7136 5.75265 32.7136H9.78889C9.86909 32.7136 9.94153 32.7615 9.97293 32.8353L11.069 35.4119C11.1321 35.5603 11.336 35.5768 11.4221 35.4404L14.8144 30.0695C14.8571 30.0018 14.9361 29.9661 15.0152 29.9788L18.8264 30.5902C18.8467 30.5935 18.8673 30.5936 18.8876 30.5906L23.0316 29.9733C23.0961 29.9636 23.1613 29.9861 23.2062 30.0335L28.2892 35.3987C28.4136 35.5299 28.6344 35.4419 28.6344 35.2611V31.5501C28.6344 31.4536 28.7033 31.3709 28.7982 31.3534L32.5219 30.667C32.6834 30.6373 32.7422 30.4364 32.6222 30.3242L28.6344 26.5967" stroke="#1E9DD8" stroke-width="2"/>
</svg>
