<svg width="37" height="37" viewBox="0 0 37 37" fill="none" xmlns="http://www.w3.org/2000/svg">
<path d="M21.5189 24.0287L21.5197 24.0291C21.9082 24.2033 22.3677 24.0375 22.5452 23.6455C22.7218 23.2566 22.5501 22.7963 22.1607 22.6194C20.6761 21.9443 19.0899 21.601 17.4461 21.601C11.4142 21.601 6.41461 26.3141 6.06626 32.331C6.04147 32.7587 6.36707 33.1247 6.79483 33.1495L6.79481 33.1497H6.80351H6.80358H6.80364H6.80371H6.80377H6.80384H6.80391H6.80397H6.80404H6.8041H6.80417H6.80424H6.8043H6.80437H6.80444H6.8045H6.80457H6.80463H6.8047H6.80477H6.80483H6.8049H6.80497H6.80503H6.8051H6.80517H6.80523H6.8053H6.80537H6.80543H6.8055H6.80557H6.80563H6.8057H6.80577H6.80583H6.8059H6.80597H6.80603H6.8061H6.80617H6.80624H6.8063H6.80637H6.80644H6.8065H6.80657H6.80664H6.80671H6.80677H6.80684H6.80691H6.80697H6.80704H6.80711H6.80718H6.80724H6.80731H6.80738H6.80745H6.80751H6.80758H6.80765H6.80772H6.80778H6.80785H6.80792H6.80799H6.80806H6.80812H6.80819H6.80826H6.80833H6.80839H6.80846H6.80853H6.8086H6.80867H6.80873H6.8088H6.80887H6.80894H6.80901H6.80907H6.80914H6.80921H6.80928H6.80935H6.80942H6.80948H6.80955H6.80962H6.80969H6.80976H6.80982H6.80989H6.80996H6.81003H6.8101H6.81017H6.81024H6.8103H6.81037H6.81044H6.81051H6.81058H6.81065H6.81072H6.81078H6.81085H6.81092H6.81099H6.81106H6.81113H6.8112H6.81127H6.81133H6.8114H6.81147H6.81154H6.81161H6.81168H6.81175H6.81182H6.81189H6.81195H6.81202H6.81209H6.81216H6.81223H6.8123H6.81237H6.81244H6.81251H6.81258H6.81265H6.81272H6.81279H6.81285H6.81292H6.81299H6.81306H6.81313H6.8132H6.81327H6.81334H6.81341H6.81348H6.81355H6.81362H6.81369H6.81376H6.81383H6.8139H6.81397H6.81404H6.81411H6.81418H6.81425H6.81432H6.81438H6.81445H6.81452H6.81459H6.81466H6.81473H6.8148H6.81487H6.81494H6.81501H6.81508H6.81515H6.81522H6.81529H6.81536H6.81543H6.8155H6.81557H6.81564H6.81571H6.81578H6.81585H6.81592H6.81599H6.81607H6.81614H6.81621H6.81628H6.81635H6.81642H6.81649H6.81656H6.81663H6.8167H6.81677H6.81684H6.81691H6.81698H6.81705H6.81712H6.81719H6.81726H6.81733H6.8174H6.81747H6.81754H6.81761H6.81769H6.81776H6.81783H6.8179H6.81797H6.81804H6.81811H6.81818H6.81825H6.81832H6.81839H6.81846H6.81853H6.81861H6.81868H6.81875H6.81882H6.81889H6.81896H6.81903H6.8191H6.81917H6.81924H6.81931H6.81939H6.81946H6.81953H6.8196H6.81967H6.81974H6.81981H6.81988H6.81995H6.82003H6.8201H6.82017H6.82024H6.82031H6.82038H6.82045H6.82052H6.8206H6.82067H6.82074H6.82081H6.82088H6.82095H6.82102H6.82109H6.82117H6.82124H6.82131H6.82138H6.82145H6.82152H6.82159H6.82167H6.82174H6.82181H6.82188H6.82195H6.82202H6.8221H6.82217H6.82224H6.82231H6.82238H6.82245H6.82253H6.8226H6.82267H6.82274H6.82281H6.82288H6.82296H6.82303H6.8231H6.82317H6.82324H6.82331H6.82339H6.82346H6.82353H6.8236H6.82367H6.82375H6.82382H6.82389H6.82396H6.82403H6.82411H6.82418H6.82425H6.82432H6.82439H6.82447H6.82454H6.82461H6.82468H6.82475H6.82483H6.8249H6.82497H6.82504H6.82511H6.82519H6.82526H6.82533H6.8254H6.82547H6.82555H6.82562H6.82569H6.82576H6.82584H6.82591H6.82598H6.82605H6.82612H6.8262H6.82627H6.82634H6.82641H6.82649H6.82656H6.82663H6.8267H6.82678H6.82685H6.82692H6.82699H6.82706H6.82714H6.82721H6.82728H6.82735H6.82743H6.8275H6.82757H6.82764H6.82772H6.82779H6.82786H6.82793H6.82801H6.82808H6.82815H6.82822H6.8283H6.82837H6.82844H6.82851H6.82859H6.82866H6.82873H6.82881H6.82888H6.82895H6.82902H6.8291H6.82917H6.82924H6.82931H6.82939H6.82946H6.82953H6.8296H6.82968H6.82975H6.82982H6.8299H6.82997H6.83004H6.83011H6.83019H6.83026H6.83033H6.8304H6.83048H6.83055H6.83062H6.8307H6.83077H6.83084H6.83091H6.83099H6.83106H6.83113H6.83121H6.83128H6.83135H6.83142H6.8315H6.83157H6.83164H6.83172H6.83179H6.83186H6.83193H6.83201H6.83208H6.83215H6.83223H6.8323H6.83237H6.83245H6.83252H6.83259H6.83266H6.83274H6.83281H6.83288H6.83296H6.83303H6.8331H6.83317H6.83325H6.83332H6.83339H6.83347H6.83354H6.83361H6.83369H6.83376H6.83383H6.83391H6.83398H6.83405H6.83412H6.8342H6.83427H6.83434H6.83442H6.83449H6.83456H6.83464H6.83471H6.83478H6.83486H6.83493H6.835H6.83507H6.83515H6.83522H6.83529H6.83537H6.83544H6.83551H6.83559H6.83566H6.83573H6.83581H6.83588H6.83595H6.83603H6.8361H6.83617H6.83625H6.83632H6.83639H6.83646H6.83654H6.83661H6.83668H6.83676H6.83683H6.8369H6.83698H6.83705H6.83712H6.8372H6.83727H6.83734H6.83742H6.83749H6.83756H6.83764H6.83771H6.83778H6.83786H6.83793H6.838H6.83808H6.83815H6.83822H6.8383H6.83837H6.83844H6.83851H6.83859H6.83866H6.83873H6.83881H6.83888H6.83895H6.83903H6.8391H6.83917H6.83925H6.83932H6.83939H6.83947H6.83954H6.83961H6.83969H6.83976C7.24707 33.1497 7.58986 32.8324 7.61326 32.4197C7.9149 27.2216 12.2341 23.1497 17.4461 23.1497C18.8674 23.1497 20.2374 23.4452 21.5189 24.0287Z" fill="#1E9DD8" stroke="#1E9DD8" stroke-width="0.3"/>
<path d="M24.2149 12C24.2149 15.9278 21.245 19 17.7149 19C14.1849 19 11.2149 15.9278 11.2149 12C11.2149 8.07223 14.1849 5 17.7149 5C21.245 5 24.2149 8.07223 24.2149 12Z" stroke="#1E9DD8" stroke-width="2"/>
<path d="M9.21494 11H26.2149" stroke="#1E9DD8" stroke-width="2" stroke-linecap="round"/>
<path d="M16.2149 6L16.2149 8" stroke="#1E9DD8" stroke-width="2" stroke-linecap="round"/>
<path d="M19.2149 6L19.2149 8" stroke="#1E9DD8" stroke-width="2" stroke-linecap="round"/>
<path d="M27.2149 20.6826C27.2149 20.1303 26.7672 19.6826 26.2149 19.6826C25.6627 19.6826 25.2149 20.1303 25.2149 20.6826H27.2149ZM25.5078 34.7745C25.8984 35.165 26.5315 35.165 26.922 34.7745L33.286 28.4105C33.6765 28.02 33.6765 27.3868 33.286 26.9963C32.8955 26.6058 32.2623 26.6058 31.8718 26.9963L26.2149 32.6532L20.5581 26.9963C20.1676 26.6058 19.5344 26.6058 19.1439 26.9963C18.7533 27.3868 18.7533 28.02 19.1439 28.4105L25.5078 34.7745ZM25.2149 20.6826V34.0674H27.2149V20.6826H25.2149Z" fill="#1E9DD8"/>
</svg>
