<svg width="37" height="37" viewBox="0 0 37 37" fill="none" xmlns="http://www.w3.org/2000/svg">
<path d="M28.8333 2.7H21.7292C20.4953 2.7 19.4917 3.70361 19.4917 4.9375V10.1042C19.4917 11.3381 20.4953 12.3417 21.7292 12.3417H32.0625C33.2964 12.3417 34.3 11.3381 34.3 10.1042V8.16667C34.3 5.15156 31.8484 2.7 28.8333 2.7ZM32.4083 10.1042C32.4083 10.2946 32.2524 10.45 32.0625 10.45H21.7292C21.5393 10.45 21.3833 10.2946 21.3833 10.1042V4.9375C21.3833 4.74708 21.5393 4.59167 21.7292 4.59167H28.8333C30.8041 4.59167 32.4083 6.19594 32.4083 8.16667V10.1042ZM32.0625 16.9083H13.6333V11.3958C13.6333 10.1619 12.6297 9.15833 11.3958 9.15833H8.16667C5.15156 9.15833 2.7 11.6099 2.7 14.625V28.8333C2.7 31.8484 5.15156 34.3 8.16667 34.3H28.8333C31.8484 34.3 34.3 31.8484 34.3 28.8333V19.1458C34.3 17.9119 33.2964 16.9083 32.0625 16.9083ZM32.4083 19.1458V24.6583H19.4458V18.8H32.0625C32.2524 18.8 32.4083 18.9554 32.4083 19.1458ZM23.3667 26.55V32.4083H13.6333V26.55H23.3667ZM4.59167 14.625C4.59167 12.6543 6.19594 11.05 8.16667 11.05H11.3958C11.5857 11.05 11.7417 11.2054 11.7417 11.3958V16.9083H4.59167V14.625ZM17.5542 18.8V24.6583H4.59167V18.8H17.5542ZM4.59167 28.8333V26.55H11.7417V32.4083H8.16667C6.19594 32.4083 4.59167 30.8041 4.59167 28.8333ZM28.8333 32.4083H25.2583V26.55H32.4083V28.8333C32.4083 30.8041 30.8041 32.4083 28.8333 32.4083Z" fill="#0093D8" stroke="#1E9DD8" stroke-width="0.6"/>
</svg>
