<svg width="37" height="37" viewBox="0 0 37 37" fill="none" xmlns="http://www.w3.org/2000/svg">
<g clip-path="url(#clip0_548_27)">
<path d="M9.25 28.0003C9.25 29.7266 7.85125 31.1253 6.125 31.1253C4.39875 31.1253 3 29.7266 3 28.0003C3 26.2741 4.39875 24.8753 6.125 24.8753C7.85125 24.8753 9.25 26.2741 9.25 28.0003ZM29.875 11.1253C31.6013 11.1253 33 9.72656 33 8.00031C33 6.27406 31.6013 4.87531 29.875 4.87531C28.1487 4.87531 26.75 6.27406 26.75 8.00031C26.75 9.72656 28.1487 11.1253 29.875 11.1253ZM28.625 21.1253V21.7503C28.625 22.4403 29.185 23.0003 29.875 23.0003C30.565 23.0003 31.125 22.4403 31.125 21.7503V21.1253C31.125 18.0241 28.6012 15.5003 25.5 15.5003H8.625C6.9025 15.5003 5.5 14.0978 5.5 12.3753C5.5 10.6528 6.9025 9.25031 8.625 9.25031H20.785L19.1688 10.8666C18.68 11.3553 18.68 12.1453 19.1688 12.6341C19.4125 12.8778 19.7325 13.0003 20.0525 13.0003C20.3725 13.0003 20.6925 12.8778 20.9362 12.6341L23.4012 10.1691C24.575 8.99656 24.575 7.08656 23.4012 5.91281L20.855 3.36656C20.3663 2.87781 19.5762 2.87781 19.0875 3.36656C18.5987 3.85531 18.5987 4.64531 19.0875 5.13406L20.7038 6.75031H8.625C5.52375 6.75031 3 9.27406 3 12.3753C3 15.4766 5.52375 18.0003 8.625 18.0003H25.5C27.2225 18.0003 28.625 19.4028 28.625 21.1253ZM29.875 24.8753C28.1487 24.8753 26.75 26.2741 26.75 28.0003C26.75 29.7266 28.1487 31.1253 29.875 31.1253C31.6013 31.1253 33 29.7266 33 28.0003C33 26.2741 31.6013 24.8753 29.875 24.8753ZM20.855 23.3666C20.3663 22.8778 19.5762 22.8778 19.0875 23.3666C18.5987 23.8553 18.5987 24.6453 19.0875 25.1341L20.7038 26.7503H13C12.31 26.7503 11.75 27.3103 11.75 28.0003C11.75 28.6903 12.31 29.2503 13 29.2503H20.785L19.1688 30.8666C18.68 31.3553 18.68 32.1453 19.1688 32.6341C19.4125 32.8778 19.7325 33.0003 20.0525 33.0003C20.3725 33.0003 20.6925 32.8778 20.9362 32.6341L23.4012 30.1691C24.575 28.9966 24.575 27.0866 23.4012 25.9128L20.855 23.3666Z" fill="#1E9DD8"/>
</g>
<defs>
<clipPath id="clip0_548_27">
<rect width="30" height="30" fill="white" transform="translate(3 3)"/>
</clipPath>
</defs>
</svg>
