<svg width="37" height="37" viewBox="0 0 37 37" fill="none" xmlns="http://www.w3.org/2000/svg">
<g clip-path="url(#clip0_548_41)">
<path d="M25.7246 19.7378C24.3725 18.3893 22.3256 18.1452 20.7221 19.0044L14.8835 13.1657V9.43678C14.8835 8.21273 14.2249 7.07327 13.1652 6.46186L9.56316 4.38473C8.4382 3.73465 7.01116 3.92436 6.09041 4.84269L4.85187 6.08365C3.93233 7.00078 3.74504 8.42903 4.39391 9.55398L6.47104 13.156C7.08245 14.2169 8.22312 14.8755 9.44595 14.8755H13.1749L19.0063 20.7069C18.6704 21.3207 18.4915 22.0107 18.4915 22.7297C18.4915 23.8607 18.9326 24.9216 19.7337 25.7215L25.7923 31.7632C26.5874 32.5558 27.67 33.0005 28.789 33.0005C29.9792 33.0005 31.312 32.3709 32.0732 31.4429C33.4338 29.7851 33.2525 27.244 31.6612 25.6587L25.7246 19.7378ZM8.56387 11.9501L6.48674 8.34686C6.38283 8.16802 6.41304 7.93965 6.56045 7.79223L7.79899 6.55248C7.94641 6.40627 8.17479 6.37486 8.35483 6.47878L11.9557 8.55711C12.2698 8.73836 12.4656 9.07669 12.4656 9.43798V12.4588H9.44474C9.08224 12.4588 8.74512 12.2643 8.56387 11.9501ZM30.2051 29.9096C29.8716 30.3168 29.4004 30.5548 28.8796 30.5814C28.3709 30.6056 27.8634 30.4134 27.4997 30.0522L21.4411 24.0105C21.0979 23.6685 20.9094 23.2142 20.9094 22.7297C20.9094 22.2451 21.0991 21.792 21.4411 21.4488C21.7963 21.0948 22.264 20.9172 22.7304 20.9172C23.1968 20.9172 23.6632 21.0948 24.0185 21.4488L29.9562 27.3684C30.6764 28.0874 30.7851 29.2027 30.2051 29.9096ZM16.6114 24.6618C17.0826 25.1354 17.0814 25.8991 16.609 26.3704L11.1992 31.7619C10.4042 32.5546 9.3227 32.9993 8.20258 32.9993C7.13804 32.9993 5.67958 32.3697 4.91833 31.4405C3.55895 29.7839 3.73899 27.2428 5.33158 25.6574L12.1804 18.8243C12.6517 18.3531 13.4177 18.3531 13.889 18.8267C14.3602 19.2992 14.359 20.0641 13.8866 20.5353L7.03654 27.3684C6.31637 28.0874 6.2052 29.2027 6.7852 29.9084C7.11991 30.3168 7.59116 30.5548 8.11195 30.5814C8.6267 30.6044 9.12816 30.4134 9.49187 30.0522L14.9028 24.6606C15.3752 24.1893 16.1389 24.1893 16.6126 24.663L16.6114 24.6618ZM15.954 9.5999C17.0657 6.76878 19.608 4.67715 22.589 4.14186C23.6318 3.95577 24.6794 3.95215 25.7053 4.13461C26.51 4.27719 27.1589 4.84511 27.3994 5.61361C27.6761 6.49448 27.3994 7.46357 26.6599 8.20548L23.8384 10.9146C23.2524 11.5006 23.1569 12.4383 23.639 13.0279C23.917 13.3675 24.3072 13.5657 24.7398 13.5886C25.1615 13.6092 25.5784 13.4533 25.8841 13.1476L29.0427 10.1014C29.63 9.51411 30.5084 9.2954 31.3301 9.55761C32.1324 9.81015 32.7209 10.4784 32.8671 11.2988C33.0483 12.3235 33.0459 13.3735 32.8598 14.4175C32.5203 16.317 31.5307 18.086 30.0734 19.3995C29.8426 19.6073 29.5526 19.71 29.265 19.71C28.9352 19.71 28.6053 19.5759 28.3672 19.3113C27.9202 18.8159 27.96 18.051 28.4555 17.6039C29.5152 16.6493 30.2341 15.3661 30.4806 13.9934C30.599 13.3312 30.616 12.6703 30.5326 12.0214L27.5782 14.8719C26.8109 15.6416 25.7295 16.0609 24.6202 16.0029C23.5134 15.9473 22.4742 15.4216 21.7685 14.5589C20.5095 13.0195 20.6762 10.6608 22.148 9.19028L24.9682 6.48119L24.9791 6.47032C24.3326 6.38815 23.6729 6.40507 23.0155 6.52348C20.855 6.91015 19.0123 8.42903 18.204 10.4856C17.9611 11.1067 17.259 11.4124 16.638 11.1683C16.0169 10.9242 15.71 10.2234 15.9552 9.60232L15.954 9.5999Z" fill="#1E9DD8"/>
</g>
<defs>
<clipPath id="clip0_548_41">
<rect width="29" height="29" fill="white" transform="translate(4 4)"/>
</clipPath>
</defs>
</svg>
