<svg width="165" height="164" viewBox="0 0 165 164" fill="none" xmlns="http://www.w3.org/2000/svg">
<path d="M82.4365 83.6442L53.3695 123.57C51.0042 126.819 49.73 130.734 49.73 134.753V135.057C49.73 135.609 50.1777 136.057 50.73 136.057H114.143C114.695 136.057 115.143 135.609 115.143 135.057V134.753C115.143 130.734 113.869 126.819 111.503 123.57L82.4365 83.6442ZM82.4365 83.6442L111.503 43.7184C113.869 40.4695 115.143 36.5543 115.143 32.5356V29.1484C115.143 28.5962 114.695 28.1484 114.143 28.1484H50.73C50.1777 28.1484 49.73 28.5962 49.73 29.1484V32.5356C49.73 36.5543 51.0042 40.4695 53.3695 43.7184L82.4365 83.6442Z" stroke="#1E9DD8" stroke-width="4"/>
<path d="M60.646 53.459L82.4406 61.5809L103.607 53.459" stroke="#1E9DD8" stroke-width="4" stroke-linecap="round" stroke-linejoin="round"/>
<path d="M57.9136 117.203L82.5971 108.653L107.213 117.203" stroke="#1E9DD8" stroke-width="4" stroke-linecap="round" stroke-linejoin="round"/>
<path d="M38.186 20.4248H126.814" stroke="#1E9DD8" stroke-width="4" stroke-linecap="round"/>
<path d="M38.186 143.575H126.814" stroke="#1E9DD8" stroke-width="4" stroke-linecap="round"/>
</svg>
