<svg width="436" height="372" viewBox="0 0 436 372" fill="none" xmlns="http://www.w3.org/2000/svg">
<path d="M200.271 75.8562H102.064C101.652 75.8562 101.245 75.7838 100.865 75.6423C100.485 75.5009 100.14 75.2935 99.8487 75.0322C99.5578 74.7708 99.327 74.4607 99.1696 74.1193C99.0121 73.7778 98.9312 73.4119 98.9312 73.0423C98.9312 72.6728 99.0121 72.3068 99.1696 71.9654C99.327 71.624 99.5578 71.3138 99.8487 71.0525C100.14 70.7912 100.485 70.5837 100.865 70.4423C101.245 70.3009 101.652 70.228 102.064 70.228H200.271C200.682 70.228 201.09 70.3009 201.47 70.4423C201.85 70.5837 202.195 70.7912 202.486 71.0525C202.777 71.3138 203.008 71.624 203.165 71.9654C203.322 72.3068 203.404 72.6728 203.404 73.0423C203.404 73.4119 203.322 73.7778 203.165 74.1193C203.008 74.4607 202.777 74.7708 202.486 75.0322C202.195 75.2935 201.85 75.5009 201.47 75.6423C201.09 75.7838 200.682 75.8562 200.271 75.8562Z" stroke="white" stroke-width="5"/>
<path d="M111.387 50.7461H294.829C298.971 50.7461 302.329 54.104 302.329 58.2461V97.3392V118.847C302.329 122.989 298.971 126.347 294.829 126.347H106C101.858 126.347 98.5 122.989 98.5 118.847V58.2461C98.5 54.104 101.858 50.7461 106 50.7461H111.387Z" stroke="white" stroke-width="5"/>
<path d="M218.797 226.774V313.753C218.797 317.896 215.439 321.253 211.297 321.253H190.264C186.122 321.253 182.764 317.896 182.764 313.753V226.774C182.764 222.632 186.122 219.274 190.264 219.274H211.297C215.439 219.274 218.797 222.632 218.797 226.774Z" stroke="white" stroke-width="5"/>
<path d="M203.281 252.678C203.281 251.298 202.161 250.178 200.781 250.178C199.4 250.178 198.281 251.298 198.281 252.678H203.281ZM203.281 323.753V252.678H198.281V323.753H203.281Z" fill="white"/>
<path d="M304.829 88.5464H330C335.523 88.5464 340 93.0235 340 98.5464V151.981C340 156.449 337.036 160.374 332.74 161.598L208.239 197.064C203.943 198.288 200.979 202.213 200.979 206.681V216.774" stroke="white" stroke-width="5"/>
<path d="M249.656 75.8562H221.854C221.442 75.8562 221.035 75.7838 220.655 75.6423C220.275 75.5009 219.93 75.2935 219.639 75.0322C219.348 74.7708 219.117 74.4607 218.96 74.1193C218.802 73.7778 218.721 73.4119 218.721 73.0423C218.721 72.6728 218.802 72.3068 218.96 71.9654C219.117 71.624 219.348 71.3138 219.639 71.0525C219.93 70.7912 220.275 70.5837 220.655 70.4423C221.035 70.3009 221.442 70.228 221.854 70.228H249.656C250.486 70.228 251.283 70.5247 251.871 71.0525C252.458 71.5802 252.788 72.296 252.788 73.0423C252.788 73.7887 252.458 74.5044 251.871 75.0322C251.283 75.5599 250.486 75.8562 249.656 75.8562Z" stroke="white" stroke-width="5"/>
</svg>
