<svg width="111" height="82" viewBox="0 0 111 82" fill="none" xmlns="http://www.w3.org/2000/svg">
<path fill-rule="evenodd" clip-rule="evenodd" d="M108.64 13.5457C107.361 8.58451 103.607 4.68574 98.8293 3.35769C90.1794 0.948243 55.4777 0.948242 55.4777 0.948242C55.4777 0.948242 20.7765 0.948243 12.1262 3.35769C7.34901 4.68574 3.59478 8.58451 2.31597 13.5457C-0.00414956 22.5289 -0.00415039 41.2828 -0.00415039 41.2828C-0.00415039 41.2828 -0.00414956 60.0368 2.31597 69.0201C3.59478 73.9813 7.34901 77.88 12.1262 79.2078C20.7765 81.6174 55.4777 81.6174 55.4777 81.6174C55.4777 81.6174 90.1794 81.6174 98.8293 79.2078C103.607 77.88 107.361 73.9813 108.64 69.0201C110.96 60.0368 110.96 41.2828 110.96 41.2828C110.96 41.2828 110.951 22.5289 108.64 13.5457ZM44.3645 58.5694L73.1926 41.286L44.3645 24.0023V58.5694Z" fill="white"/>
</svg>
