<svg width="100" height="100" viewBox="0 0 100 100" fill="none" xmlns="http://www.w3.org/2000/svg">
<path d="M99.3595 43.8339C99.2478 44.0009 99.1401 44.1706 99.0237 44.334C98.8178 44.6227 98.6874 44.9375 98.6766 45.295C98.6589 45.8814 98.6375 46.4676 98.6296 47.0539C98.6122 48.3625 98.6039 49.6714 98.5878 50.98C98.586 51.1217 98.5732 51.2666 98.5389 51.4036C98.494 51.5837 98.3996 51.6469 98.2197 51.5977C98.064 51.555 97.9085 51.4833 97.7756 51.3914C97.4641 51.1763 97.2003 50.9053 96.9773 50.6006C96.2975 49.6723 95.6267 48.7372 94.9482 47.8075C94.4162 47.0785 93.8789 46.3533 93.3412 45.6284C93.267 45.5284 93.1765 45.4402 93.0564 45.3045C93.0309 45.4557 93.0045 45.5539 92.9993 45.6535C92.9334 46.8862 92.9255 48.1194 93.004 49.352C93.0225 49.6438 93.0727 49.9338 93.1128 50.2241C93.158 50.5511 93.2848 50.8405 93.4886 51.1045C93.7211 51.4056 93.6753 51.5248 93.2984 51.597C93.0413 51.6462 92.7768 51.6726 92.5152 51.678C92.1931 51.6848 91.8699 51.6641 91.5478 51.6435C91.4702 51.6386 91.3876 51.5991 91.3212 51.5548C91.2246 51.4905 91.2161 51.4165 91.2955 51.3271C91.3537 51.2616 91.4275 51.2014 91.5061 51.1641C91.9015 50.9768 92.0895 50.6586 92.1085 50.2324C92.1299 49.7517 92.1588 49.2707 92.1602 48.79C92.1629 47.7823 92.1518 46.7745 92.141 45.7668C92.1385 45.5264 92.1105 45.2865 92.101 45.0461C92.0863 44.6692 91.9155 44.3719 91.6469 44.1201C91.5485 44.0277 91.4458 43.9368 91.3639 43.8307C91.2409 43.6714 91.2759 43.5775 91.472 43.5172C91.5571 43.491 91.6485 43.4743 91.7374 43.4727C92.008 43.468 92.2786 43.4691 92.5493 43.4743C93.0873 43.4843 93.5238 43.7127 93.8604 44.1228C94.1274 44.448 94.3826 44.7838 94.6298 45.1246C95.4775 46.2938 96.3187 47.4676 97.1644 48.6381C97.2876 48.8087 97.4237 48.9699 97.5523 49.1367C97.5975 49.1954 97.6381 49.2576 97.6808 49.3184C97.7024 49.3078 97.7241 49.2971 97.7458 49.2865C97.7595 49.2172 97.7825 49.1486 97.7859 49.0789C97.8047 48.6959 97.834 48.3126 97.8309 47.9299C97.8239 47.0952 97.8132 46.2601 97.7751 45.4266C97.76 45.0919 97.6735 44.7597 97.6108 44.4281C97.572 44.2234 97.4711 44.0496 97.3099 43.912C97.2533 43.8637 97.1993 43.8079 97.1585 43.7461C97.0682 43.61 97.1039 43.5192 97.2592 43.4784C97.3169 43.4633 97.3776 43.4551 97.4375 43.4522C97.9645 43.4251 98.4899 43.4382 99.0122 43.5201C99.1474 43.5414 99.2719 43.5851 99.36 43.6989V43.8343L99.3595 43.8339Z" fill="#141414"/>
<path d="M31.5332 62.3091C31.6156 62.196 31.6621 62.1295 31.7113 62.0654C32.2886 61.3138 32.8669 60.5631 33.4433 59.8106C33.4977 59.7395 33.5521 59.6641 33.5846 59.582C33.6275 59.4736 33.5719 59.3888 33.4589 59.4091C33.2765 59.4416 33.0887 59.4843 32.9237 59.5646C32.5497 59.7467 32.2256 60.007 31.9214 60.2889C31.3294 60.8375 30.7893 61.4341 30.3241 62.0938C30.2054 62.2619 30.0772 62.3364 29.8779 62.3111C29.7917 62.3003 29.703 62.3093 29.5608 62.3093C30.0851 61.6076 30.5767 60.9497 31.1008 60.2485C31.0044 60.2735 30.9635 60.2835 30.9229 60.295C30.8218 60.3239 30.7225 60.3609 30.6198 60.3819C30.3295 60.4414 30.0619 60.4196 29.8766 60.1286C29.8206 60.1643 29.77 60.1925 29.724 60.2266C28.9916 60.7667 28.2578 61.305 27.5297 61.8509C27.4178 61.9349 27.3221 62.0466 27.2377 62.1597C27.1582 62.2662 27.0727 62.3231 26.9368 62.3105C26.8341 62.301 26.7299 62.3087 26.5689 62.3087C26.9799 61.7803 27.3596 61.2921 27.7392 60.8039C27.2747 61.0389 26.8138 61.2104 26.2902 60.9671C26.2426 61.0179 26.1952 61.0635 26.1537 61.1138C25.8652 61.4632 25.5479 61.7832 25.1795 62.0489C24.8891 62.2583 24.5735 62.4125 24.2106 62.445C24.1217 62.4529 24.0296 62.4524 23.9416 62.4389C23.6547 62.3944 23.4904 62.2048 23.4827 61.9137C23.4762 61.6591 23.5563 61.4241 23.6662 61.1998C23.8608 60.8021 24.1431 60.4717 24.4677 60.1751C24.5221 60.1255 24.5767 60.0758 24.6663 59.9941C24.5769 60.0031 24.5304 60.0045 24.4855 60.0131C24.2494 60.0578 24.0149 60.1119 23.7777 60.1469C23.6764 60.1618 23.5667 60.151 23.4656 60.1293C23.29 60.0916 23.2261 59.9824 23.2877 59.812C23.3539 59.6287 23.4419 59.4536 23.52 59.2746C23.5344 59.2414 23.5464 59.2071 23.5703 59.1459C23.4175 59.1811 23.2837 59.1985 23.1613 59.2461C23.1008 59.2696 23.0548 59.3439 23.0142 59.4035C22.7341 59.8126 22.4743 60.2367 22.175 60.631C21.8049 61.1188 21.3612 61.5377 20.8429 61.8701C20.1442 62.3184 19.3777 62.5197 18.5487 62.4768C18.2731 62.4626 18.014 62.3868 17.7931 62.2152C17.4353 61.9374 17.4353 61.4169 17.7877 61.1425C17.9197 61.0395 18.0693 61.0028 18.2327 61.0222C18.4291 61.0454 18.5426 61.2059 18.5119 61.4108C18.4853 61.5887 18.3442 61.6683 18.137 61.6205C18.086 61.6088 18.0373 61.5857 17.9858 61.5763C17.8348 61.548 17.7346 61.6444 17.7603 61.7965C17.789 61.9663 17.8946 62.0922 18.0468 62.1493C18.2271 62.2172 18.4192 62.2775 18.6099 62.2908C19.1689 62.3301 19.6781 62.1581 20.1489 61.8652C20.4834 61.6571 20.7732 61.3953 21.0407 61.1077C21.4875 60.6272 21.8757 60.1006 22.2506 59.5639C22.2709 59.5348 22.2829 59.4998 22.3143 59.4362C21.5372 59.5642 20.8779 59.8894 20.2548 60.3216C20.2193 60.2631 20.1936 60.2205 20.1618 60.1674C20.2148 60.1255 20.2579 60.0857 20.3062 60.0539C20.9337 59.6391 21.6151 59.3484 22.3495 59.1877C22.493 59.1563 22.5881 59.0895 22.6725 58.9728C23.2611 58.1585 23.9235 57.4121 24.7171 56.7894C24.8223 56.7068 24.9315 56.6292 25.0493 56.5416C25.0861 56.5899 25.1118 56.6233 25.1511 56.6747C24.4056 57.3148 23.8066 58.0673 23.3085 58.9392C23.5791 58.9184 23.7989 58.8952 23.9757 58.6823C24.1066 58.5246 24.2957 58.4138 24.4636 58.2885C24.5101 58.254 24.5715 58.2325 24.6291 58.2221C24.6681 58.2149 24.7342 58.2244 24.7496 58.2497C24.7721 58.2871 24.7778 58.3535 24.7591 58.3928C24.7275 58.4587 24.6814 58.5264 24.6236 58.5697C24.4442 58.7047 24.2634 58.8408 24.0695 58.9525C23.9587 59.0164 23.8732 59.0863 23.8256 59.2024C23.7658 59.3482 23.6994 59.4919 23.6497 59.6413C23.5629 59.9025 23.6161 59.9684 23.8964 59.9456C24.0231 59.9352 24.1499 59.9106 24.2734 59.8799C24.7263 59.7675 25.1698 59.6289 25.5892 59.4181C25.8458 59.289 26.1164 59.1972 26.4071 59.1841C26.7597 59.1681 26.9587 59.3922 26.8976 59.74C26.8488 60.018 26.7263 60.2677 26.585 60.5089C26.5322 60.5992 26.4784 60.689 26.4195 60.7883C26.7129 60.9355 26.9962 60.9204 27.2797 60.8098C27.7331 60.6326 28.087 60.3205 28.3994 59.9582C28.5416 59.7932 28.674 59.619 28.8009 59.4418C28.8699 59.3454 28.9483 59.3035 29.0663 59.3141C29.1681 59.3231 29.2715 59.3159 29.429 59.3159C28.8941 60.0045 28.3901 60.6532 27.8859 61.302C27.8933 61.3117 27.9008 61.3212 27.9082 61.3309C27.9536 61.3009 28.0006 61.2731 28.0439 61.2402C28.6303 60.7938 29.2184 60.3494 29.8003 59.8968C29.8985 59.8205 29.982 59.7174 30.0508 59.6125C30.242 59.322 30.4959 59.2003 30.8672 59.2854C30.8236 59.3394 30.7902 59.382 30.7552 59.4235C30.6196 59.5838 30.4794 59.7406 30.349 59.9052C30.2986 59.9686 30.2544 60.0517 30.3187 60.1325C30.3812 60.2108 30.4641 60.2214 30.5627 60.1945C30.848 60.1171 31.1224 60.0133 31.3599 59.8363C31.4598 59.7619 31.5404 59.6574 31.6181 59.5576C31.8065 59.3159 31.8038 59.3139 32.1169 59.3157C32.169 59.3159 32.2211 59.3157 32.3157 59.3157C32.1387 59.6086 31.932 59.8433 31.7779 60.1248C31.823 60.0959 31.8695 60.069 31.9128 60.0377C32.1322 59.8792 32.3423 59.7059 32.5723 59.5646C32.7691 59.4436 32.9813 59.338 33.1998 59.2653C33.3505 59.2154 33.5248 59.2157 33.6866 59.2261C33.8936 59.2391 33.9683 59.3344 33.9518 59.5375C33.9434 59.64 33.9071 59.7416 33.8746 59.8406C33.8473 59.9239 33.8071 60.0029 33.7965 60.1054C33.8588 60.0596 33.9195 60.0117 33.9834 59.9684C34.2502 59.7865 34.5124 59.5969 34.7871 59.4276C34.9995 59.2965 35.2365 59.217 35.4899 59.2044C35.8515 59.1866 36.0318 59.4105 35.9091 59.7515C35.8438 59.9327 35.7502 60.1119 35.6335 60.2645C35.3642 60.6168 35.0726 60.952 34.7912 61.2948C34.6433 61.4749 34.4966 61.6562 34.3511 61.8383C34.3186 61.8792 34.2858 61.9227 34.2664 61.9703C34.215 62.0956 34.2903 62.2035 34.4253 62.1899C34.5061 62.182 34.5905 62.1601 34.663 62.124C34.9449 61.9834 35.2351 61.8546 35.4992 61.6851C36.0824 61.3104 36.618 60.8728 37.1161 60.3889C37.5668 59.951 38.0618 59.5709 38.6567 59.3479C38.8587 59.2723 39.0736 59.2132 39.2873 59.1899C39.6446 59.1509 39.7823 59.2741 39.8432 59.6657C39.9116 59.5741 39.9683 59.5093 40.012 59.4369C40.0691 59.3423 40.145 59.3064 40.2544 59.3141C40.3716 59.3222 40.4898 59.3159 40.6436 59.3159C40.5919 59.3958 40.5637 59.4454 40.5298 59.491C40.036 60.1548 39.5394 60.8166 39.0481 61.4821C38.9458 61.6207 38.8538 61.7686 38.775 61.9214C38.7459 61.978 38.7405 62.0843 38.775 62.1258C38.8093 62.1674 38.917 62.1841 38.9754 62.1635C39.1226 62.1112 39.2713 62.048 39.399 61.96C39.7331 61.7295 40.0581 61.4853 40.3835 61.2427C40.7514 60.9685 41.1207 60.6958 41.4804 60.4114C41.8402 60.127 42.0379 59.7072 42.3252 59.3615C42.9935 58.5571 43.6551 57.7473 44.4042 57.0151C44.765 56.6623 45.1492 56.336 45.5733 56.0602C45.7942 55.9164 46.0206 55.7826 46.2849 55.7309C46.6009 55.669 46.7817 55.8489 46.6733 56.1529C46.6016 56.354 46.4939 56.5572 46.3531 56.7158C46.0091 57.1031 45.6525 57.4819 45.2724 57.8333C44.4646 58.5801 43.5783 59.2297 42.6688 59.8467C42.5358 59.937 42.4264 60.0429 42.3347 60.1753C42.0183 60.6331 41.6912 61.0836 41.3773 61.5429C41.2805 61.6844 41.2035 61.8419 41.1356 61.9999C41.1098 62.0602 41.108 62.1789 41.1439 62.2057C41.1958 62.2448 41.308 62.2547 41.3669 62.224C41.5924 62.1067 41.8231 61.9886 42.0217 61.8327C42.3702 61.5593 42.6965 61.2578 43.0443 60.9574C43.0779 60.9867 43.1143 61.0186 43.1698 61.0675C43.0172 61.2248 42.8755 61.3776 42.7268 61.523C42.4356 61.8076 42.13 62.0748 41.7651 62.2635C41.584 62.3572 41.3985 62.4391 41.1886 62.4409C40.8828 62.4434 40.7426 62.2985 40.7668 61.9963C40.7882 61.7277 40.9042 61.4909 41.0279 61.2576C41.0792 61.161 41.1311 61.0646 41.1539 60.9411C41.0959 60.9804 41.036 61.0174 40.9798 61.0594C40.5709 61.3666 40.1646 61.6772 39.7534 61.9814C39.5225 62.1522 39.2749 62.2962 38.9883 62.3515C38.9021 62.3682 38.8075 62.3739 38.7222 62.3574C38.4978 62.3138 38.406 62.1721 38.4434 61.9487C38.4642 61.8248 38.4904 61.7018 38.5247 61.5228C38.4163 61.6167 38.35 61.6747 38.2832 61.7322C37.9844 61.9902 37.66 62.2087 37.2768 62.3161C37.1132 62.3619 36.9371 62.3858 36.7674 62.382C36.5051 62.3764 36.3451 62.2082 36.351 61.9471C36.3548 61.7769 36.4004 61.607 36.4327 61.4381C36.4449 61.3745 36.4726 61.314 36.5105 61.1996C36.4128 61.2788 36.3564 61.3228 36.3018 61.3688C35.868 61.7334 35.41 62.062 34.8758 62.2637C34.709 62.3267 34.5309 62.3755 34.3542 62.3931C34.0448 62.424 33.8753 62.2297 33.9252 61.9171C33.9777 61.5882 34.143 61.3113 34.3551 61.061C34.6616 60.6994 34.9699 60.3397 35.2771 59.9788C35.3405 59.9043 35.4042 59.83 35.4635 59.7522C35.4996 59.7045 35.5346 59.6535 35.5574 59.5989C35.6093 59.4752 35.568 59.4089 35.436 59.4059C35.3694 59.4046 35.2965 59.4073 35.2367 59.4326C35.0435 59.5134 34.8426 59.5856 34.6673 59.6971C34.1053 60.0541 33.611 60.4956 33.1747 60.9971C32.849 61.3713 32.5403 61.7607 32.2358 62.1522C32.1482 62.2649 32.0638 62.3274 31.9185 62.312C31.8083 62.3005 31.6959 62.3098 31.5325 62.3098L31.5332 62.3091ZM26.6671 59.7847C26.6919 59.5371 26.5969 59.4238 26.3769 59.4362C26.3037 59.4405 26.2272 59.461 26.1613 59.4928C26.0331 59.5547 25.9034 59.6188 25.7882 59.7014C25.0789 60.2097 24.4715 60.8193 23.9881 61.5483C23.9427 61.6164 23.9046 61.6918 23.8768 61.7688C23.7804 62.0367 23.9395 62.2581 24.2242 62.2518C24.298 62.2502 24.3733 62.233 24.4447 62.2121C24.716 62.1324 24.9611 61.9963 25.1646 61.8042C25.465 61.5207 25.7478 61.2188 26.0404 60.9269C26.1259 60.8416 26.1541 60.7493 26.1471 60.6249C26.1236 60.2074 26.2823 59.9594 26.6673 59.7849L26.6671 59.7847ZM36.9911 62.2028C37.0443 62.1877 37.1436 62.1735 37.2298 62.1319C37.4185 62.041 37.6153 61.9566 37.7821 61.8331C38.4082 61.37 38.9449 60.8157 39.3932 60.1783C39.4573 60.0869 39.5081 59.9846 39.5536 59.8822C39.6092 59.7576 39.6597 59.6258 39.5473 59.5037C39.4234 59.3691 39.2745 59.3978 39.1314 59.4588C39.0145 59.5086 38.8991 59.5666 38.7935 59.6368C37.9988 60.1634 37.3727 60.8556 36.8435 61.6404C36.7859 61.7257 36.7444 61.8277 36.7198 61.9279C36.6782 62.0972 36.776 62.2057 36.9913 62.2028H36.9911ZM42.9042 59.4186C42.9177 59.4294 42.9312 59.4402 42.9448 59.4509C42.9753 59.4305 43.0066 59.4111 43.0364 59.3899C44.0286 58.6792 44.9718 57.91 45.8213 57.0314C45.9827 56.8646 46.1256 56.6786 46.2659 56.4928C46.3328 56.4044 46.3858 56.3005 46.4235 56.1958C46.495 55.9967 46.405 55.8918 46.2055 55.9469C46.0773 55.9823 45.9459 56.0351 45.8387 56.1119C45.6315 56.2599 45.4309 56.4206 45.244 56.5937C44.7129 57.0857 44.2507 57.641 43.8085 58.2122C43.5009 58.6094 43.2055 59.0159 42.9046 59.4184L42.9042 59.4186Z" fill="#141414"/>
<path d="M39.7062 43.5472C39.8726 43.4513 40.04 43.4368 40.2021 43.4334C41.1414 43.4133 42.0808 43.3901 43.0202 43.3928C43.4707 43.3941 43.9157 43.4731 44.3527 43.5989C46.0019 44.0733 46.2307 46.0592 45.2498 47.0489C45.0287 47.2721 44.7716 47.4594 44.5303 47.6626C44.491 47.6955 44.4479 47.7242 44.394 47.7639C44.4969 47.9275 44.6012 48.0812 44.6935 48.2417C45.0454 48.8543 45.3914 49.4702 45.7439 50.0823C45.8261 50.2249 45.9116 50.3698 46.0202 50.4919C46.2585 50.7596 46.5654 50.9106 46.9214 50.9591C46.9512 50.9632 46.9841 50.958 47.0107 50.9688C47.083 50.9984 47.1836 51.016 47.2159 51.0718C47.2685 51.1623 47.2186 51.2715 47.1385 51.3322C47.0263 51.4169 46.9058 51.5017 46.7751 51.5484C46.3768 51.6909 45.9662 51.6972 45.5527 51.6137C45.2356 51.5496 44.9745 51.3916 44.8009 51.1194C44.5951 50.7969 44.3985 50.4673 44.2164 50.1308C43.9731 49.6819 43.7514 49.221 43.5115 48.7701C43.4379 48.632 43.3458 48.4999 43.2427 48.3821C43.0073 48.1126 42.7037 47.9795 42.344 47.9907C42.1198 47.9977 42.0054 48.086 41.9808 48.3106C41.9483 48.6085 41.9357 48.9096 41.9312 49.2095C41.9253 49.5853 41.9429 49.9595 42.0192 50.3308C42.0799 50.6262 42.1995 50.8858 42.3963 51.1126C42.4701 51.1977 42.539 51.2871 42.6078 51.3765C42.6737 51.462 42.6448 51.5342 42.5615 51.5832C42.511 51.613 42.4512 51.6335 42.3932 51.6423C42.2672 51.6615 42.1397 51.6807 42.0126 51.6816C41.5014 51.6859 40.99 51.6866 40.4788 51.6816C40.3063 51.6798 40.1337 51.6613 39.9624 51.6403C39.8897 51.6315 39.813 51.6087 39.7509 51.571C39.6125 51.4873 39.5945 51.3207 39.7123 51.209C39.7823 51.1426 39.8658 51.088 39.9504 51.0406C40.2404 50.8786 40.4194 50.6474 40.4341 50.3053C40.4503 49.9223 40.4801 49.5397 40.4831 49.1567C40.4923 47.9614 40.4964 46.7661 40.4919 45.5706C40.4907 45.2785 40.4569 44.9856 40.4235 44.6946C40.3858 44.3658 40.2228 44.1022 39.9671 43.8925C39.859 43.8038 39.7374 43.7221 39.7062 43.5474V43.5472ZM41.8576 45.6902C41.8576 45.9342 41.8553 46.1068 41.858 46.2797C41.8619 46.5199 41.856 46.7611 41.879 46.9997C41.9023 47.2389 41.9745 47.303 42.2101 47.3114C42.4649 47.3206 42.7222 47.3261 42.9757 47.3028C43.7363 47.2331 44.306 46.7 44.4071 45.9685C44.4306 45.7985 44.4236 45.6236 44.4211 45.4509C44.4111 44.7815 43.9986 44.248 43.3429 44.1022C43.0829 44.0444 42.8062 44.039 42.5378 44.0442C42.0465 44.0534 41.9294 44.1728 41.9005 44.6581C41.8786 45.0255 41.8693 45.3934 41.8571 45.6904L41.8576 45.6902Z" fill="#141414"/>
<path d="M79.6709 47.4546C79.6502 48.389 79.4484 49.2638 78.9471 50.0571C78.3786 50.9565 77.5884 51.558 76.5389 51.7778C74.5692 52.1904 72.814 51.2325 72.1366 49.3391C71.5986 47.8346 71.7096 46.3581 72.5558 44.9843C73.1198 44.0688 73.9332 43.4572 75.0143 43.2705C76.1724 43.0706 77.246 43.2656 78.1734 44.033C78.9162 44.6475 79.3527 45.4479 79.5387 46.3841C79.6086 46.7357 79.6283 47.0975 79.6707 47.4548L79.6709 47.4546ZM73.3331 47.4609C73.3288 47.9515 73.3631 48.4382 73.4947 48.9132C73.659 49.5062 73.8966 50.0625 74.3223 50.5216C75.1763 51.4427 76.5204 51.3941 77.2882 50.4015C77.4519 50.19 77.5821 49.9463 77.6922 49.7014C77.9448 49.1394 78.052 48.542 78.0741 47.9272C78.1012 47.1769 78.04 46.44 77.7852 45.7275C77.6268 45.2847 77.4216 44.8696 77.0957 44.5229C76.3249 43.7034 75.1506 43.6684 74.3349 44.4397C74.0339 44.7243 73.8228 45.0676 73.6732 45.4503C73.4204 46.0967 73.3263 46.7705 73.3331 47.4609Z" fill="#141414"/>
<path d="M81.6347 47.5751C81.6351 46.5274 81.908 45.5662 82.5393 44.7234C83.1254 43.9411 83.888 43.4202 84.8658 43.2602C87.1837 42.8808 88.7291 44.274 89.2179 45.9072C89.6271 47.274 89.5504 48.6167 88.8537 49.8824C88.2869 50.9121 87.4236 51.5817 86.2563 51.7955C85.1434 51.9993 84.0952 51.8165 83.1854 51.105C82.4736 50.5482 82.0459 49.7969 81.8053 48.9352C81.7489 48.7332 81.7058 48.5253 81.6809 48.3172C81.6516 48.0714 81.6487 47.8225 81.6344 47.5751H81.6347ZM83.1482 47.4735C83.1139 48.2125 83.2466 48.9381 83.5547 49.6306C83.7213 50.005 83.9352 50.3474 84.2368 50.63C85.1073 51.4459 86.3841 51.3402 87.1099 50.3932C87.3415 50.0912 87.4986 49.7515 87.6213 49.394C87.8746 48.6558 87.9211 47.894 87.8732 47.1226C87.8353 46.5091 87.6949 45.9194 87.4433 45.3578C87.285 45.0048 87.0806 44.6828 86.7937 44.4178C86.0175 43.7003 84.912 43.7087 84.1458 44.4365C83.805 44.7602 83.5779 45.1536 83.426 45.5932C83.2177 46.1965 83.1236 46.8179 83.148 47.4738L83.1482 47.4735Z" fill="#141414"/>
<path d="M37.1358 45.0769C37.0085 44.9911 36.9095 44.9381 36.8269 44.8663C36.3093 44.4147 35.6902 44.2382 35.0228 44.1932C34.8432 44.1811 34.6617 44.1779 34.4818 44.1867C34.0329 44.2088 33.8086 44.3785 33.6673 44.8008C33.4953 45.3152 33.4736 45.8481 33.4926 46.3834C33.4996 46.5836 33.6072 46.7254 33.7998 46.7861C34.2202 46.919 34.875 46.966 35.2666 46.4667C35.3354 46.3789 35.4189 46.2986 35.5088 46.2324C35.6733 46.1112 35.8351 46.1471 35.9148 46.3342C35.9726 46.4701 36.017 46.622 36.0209 46.7683C36.0333 47.2262 36.0274 47.685 36.0197 48.1432C36.0179 48.2464 35.9931 48.3533 35.9568 48.4506C35.8827 48.6492 35.7634 48.6779 35.5979 48.5447C35.4573 48.4314 35.3212 48.3127 35.1831 48.1965C34.7671 47.8464 34.2936 47.8338 33.8 47.9694C33.6199 48.0189 33.5088 48.1525 33.4594 48.3305C33.4355 48.4168 33.4168 48.5075 33.4152 48.5964C33.4071 49.0713 33.4337 49.5439 33.545 50.0075C33.5745 50.1309 33.6172 50.2526 33.6655 50.3702C33.7892 50.6722 34.004 50.8584 34.3394 50.8934C34.8815 50.95 35.4198 50.9547 35.9498 50.8031C36.3014 50.7024 36.6176 50.5359 36.9027 50.3061C37.0546 50.1835 37.2094 50.063 37.3728 49.9569C37.4834 49.8852 37.5561 49.9195 37.5615 50.0402C37.5811 50.4923 37.5197 50.9254 37.2374 51.3019C37.1067 51.4761 36.9255 51.5684 36.7199 51.591C36.3095 51.6361 35.8976 51.6838 35.4857 51.6901C34.636 51.7032 33.7858 51.6989 32.936 51.6835C32.5009 51.6756 32.0659 51.6348 31.6322 51.5951C31.5164 51.5844 31.3979 51.5371 31.2941 51.4815C31.1762 51.4186 31.1647 51.3188 31.2557 51.2204C31.3263 51.1439 31.4096 51.0759 31.4967 51.0184C31.7877 50.8261 31.9459 50.5537 31.9703 50.2124C32.0041 49.7403 32.0393 49.2667 32.0402 48.7939C32.0425 47.6358 32.0264 46.478 32.0152 45.3199C32.0136 45.1624 31.9971 45.0049 31.987 44.8473C31.9673 44.542 31.8163 44.3081 31.5881 44.1167C31.5076 44.049 31.4225 43.9865 31.3451 43.9154C31.2072 43.7886 31.2121 43.6556 31.38 43.5796C31.513 43.5193 31.6671 43.4861 31.8138 43.4787C32.2944 43.4543 32.7758 43.4448 33.257 43.4342C33.851 43.4209 34.445 43.3999 35.0389 43.4051C35.5343 43.4096 36.0297 43.4405 36.5242 43.4728C36.8485 43.494 37.0381 43.6888 37.1284 43.9946C37.213 44.2808 37.2202 44.5724 37.2006 44.8661C37.1968 44.9225 37.1672 44.9771 37.1352 45.0771L37.1358 45.0769Z" fill="#141414"/>
<path d="M63.5764 43.6149C63.6845 43.5731 63.763 43.5221 63.8458 43.5144C64.2568 43.4758 64.6685 43.437 65.0809 43.4198C65.5991 43.3984 66.1182 43.3984 66.6368 43.3885C67.1119 43.3794 67.5841 43.4029 68.0481 43.5137C68.9737 43.7347 69.5996 44.2838 69.7808 45.2311C69.974 46.2402 69.6335 47.0694 68.7875 47.6686C68.3806 47.9569 67.9107 48.0914 67.4225 48.1647C67.0138 48.2263 66.6062 48.2968 66.1954 48.3412C65.9584 48.3669 65.8544 48.4879 65.8115 48.7062C65.7327 49.1081 65.7248 49.5124 65.7521 49.9186C65.7566 49.9861 65.7677 50.0534 65.7693 50.1209C65.7774 50.5124 65.9564 50.8083 66.2692 51.0334C66.3726 51.1078 66.4782 51.1832 66.5662 51.2742C66.7208 51.4344 66.6928 51.545 66.478 51.5859C66.2351 51.6321 65.9871 51.6662 65.7404 51.673C65.1842 51.6881 64.6274 51.6886 64.0711 51.6827C63.9079 51.6809 63.7409 51.6525 63.5834 51.6089C63.4096 51.5608 63.3859 51.4642 63.5062 51.3274C63.5899 51.2324 63.6856 51.1424 63.7908 51.0731C64.0625 50.8941 64.2072 50.6379 64.2422 50.3265C64.2833 49.9611 64.3182 49.5927 64.3209 49.2253C64.3307 47.9769 64.3264 46.7286 64.3234 45.4803C64.323 45.2699 64.2966 45.0598 64.2932 44.8494C64.2878 44.5208 64.1535 44.2549 63.9217 44.031C63.8569 43.9683 63.789 43.908 63.7307 43.8392C63.6793 43.7785 63.6398 43.7078 63.5764 43.6142V43.6149ZM65.7765 45.8522C65.7738 45.8522 65.7711 45.8522 65.7681 45.8522C65.7681 46.2876 65.7584 46.7234 65.7715 47.1583C65.7808 47.4669 65.8771 47.558 66.1848 47.5756C66.4091 47.5885 66.6362 47.5928 66.8598 47.5747C67.601 47.5149 68.1759 47.0132 68.284 46.2925C68.3323 45.9702 68.3258 45.6306 68.2854 45.306C68.2262 44.8307 67.9599 44.4712 67.5266 44.254C67.0871 44.0337 66.617 44.0112 66.1414 44.0841C65.9033 44.1204 65.8266 44.2166 65.7882 44.4565C65.7787 44.5154 65.7767 44.5761 65.7767 44.6361C65.7758 45.0415 65.7763 45.4471 65.7763 45.8524L65.7765 45.8522Z" fill="#141414"/>
<path d="M3.98157 51.8051C3.40784 51.7782 2.93342 51.7056 2.46893 51.5708C2.36082 51.5394 2.24978 51.5185 2.14144 51.4873C2.00286 51.4476 1.89814 51.4905 1.79657 51.59C1.5729 51.8094 1.35623 51.7825 1.19283 51.5117C1.13211 51.4112 1.08788 51.2928 1.06892 51.1772C0.996467 50.7375 0.967126 50.2943 1.05086 49.853C1.07546 49.723 1.12241 49.5894 1.1917 49.4779C1.28491 49.328 1.4104 49.3364 1.51535 49.4766C1.54221 49.5124 1.56613 49.5513 1.58712 49.591C1.78867 49.9753 2.09337 50.2588 2.45539 50.4884C2.81899 50.719 3.20674 50.8953 3.61142 51.0427C4.03844 51.1984 4.86179 51.0215 5.21027 50.4789C5.49059 50.0426 5.46396 49.5944 5.21659 49.1552C5.06921 48.8931 4.84577 48.699 4.5817 48.5611C4.19553 48.3596 3.80123 48.1738 3.41168 47.9786C3.10269 47.8238 2.79326 47.6694 2.48947 47.5051C2.35111 47.4304 2.22134 47.3378 2.09495 47.2437C0.810039 46.2849 1.09893 44.4487 2.26648 43.7406C2.7339 43.4572 3.23563 43.2992 3.78701 43.3204C4.22397 43.3371 4.65754 43.3662 5.06199 43.5619C5.27573 43.6652 5.5003 43.6174 5.65829 43.4057C5.88399 43.1033 6.1388 43.143 6.26474 43.5014C6.40355 43.8966 6.42047 44.3126 6.38955 44.7274C6.37624 44.9057 6.34125 45.0851 6.29228 45.2573C6.23743 45.4501 6.10675 45.4925 5.95463 45.363C5.82418 45.2521 5.72171 45.109 5.60186 44.9849C5.38835 44.764 5.19199 44.5195 4.95095 44.3333C4.44267 43.9406 3.85585 43.8882 3.25888 44.0776C2.64069 44.2735 2.31026 44.9082 2.48902 45.4914C2.57456 45.7701 2.75534 45.9832 2.99255 46.1371C3.22502 46.2879 3.47194 46.4188 3.72111 46.5404C4.13978 46.7447 4.56748 46.93 4.98706 47.1329C5.18296 47.2275 5.373 47.3365 5.5574 47.452C6.34622 47.9474 6.73826 48.6636 6.67348 49.5944C6.60848 50.5319 6.07899 51.1598 5.25361 51.5571C4.82365 51.7638 4.36142 51.8134 3.98134 51.8044L3.98157 51.8051Z" fill="#141414"/>
<path d="M61.0367 44.4539C60.9972 44.706 60.9706 44.9755 60.9092 45.2371C60.8578 45.4567 60.7135 45.4966 60.5458 45.3477C60.4231 45.2387 60.3258 45.1017 60.2116 44.9825C60.0042 44.7661 59.8121 44.5288 59.5785 44.3447C59.0736 43.9461 58.4888 43.8926 57.8889 44.0702C57.3563 44.2282 57.0486 44.6828 57.0588 45.2278C57.064 45.5063 57.1725 45.7447 57.3696 45.9313C57.5154 46.0695 57.6772 46.2015 57.8537 46.2945C58.2387 46.4976 58.6405 46.6687 59.0303 46.8632C59.4266 47.0612 59.8288 47.2515 60.2066 47.481C60.7801 47.8297 61.1467 48.3411 61.2573 49.0126C61.5026 50.502 60.4621 51.4136 59.5261 51.6846C59.0097 51.8341 58.4848 51.8327 57.9609 51.7494C57.6206 51.6952 57.2854 51.6068 56.9482 51.533C56.8895 51.5201 56.8304 51.5079 56.7731 51.4903C56.6288 51.4463 56.5151 51.4813 56.4065 51.5907C56.1944 51.8047 55.9788 51.7817 55.8156 51.5282C55.7561 51.4357 55.7078 51.3265 55.6886 51.2188C55.6071 50.7572 55.5787 50.2918 55.6669 49.8283C55.6902 49.7057 55.7364 49.5798 55.8032 49.4753C55.898 49.327 56.0213 49.336 56.1269 49.4775C56.1537 49.5136 56.1795 49.5513 56.2 49.5913C56.4029 49.9851 56.718 50.2688 57.0866 50.5011C57.4443 50.7263 57.821 50.9123 58.225 51.0387C58.7953 51.2172 59.5153 50.9629 59.8329 50.4575C60.1035 50.0269 60.0694 49.5841 59.8265 49.1532C59.6868 48.9056 59.4794 48.7151 59.2305 48.5822C58.8662 48.3876 58.492 48.2116 58.1239 48.0242C57.7424 47.8301 57.3556 47.6446 56.9857 47.43C56.7866 47.3146 56.6033 47.1616 56.4383 46.9993C55.5148 46.0918 55.7409 44.4426 56.8776 43.7375C57.5106 43.3446 58.1945 43.2561 58.9165 43.3536C59.163 43.3868 59.4018 43.4412 59.632 43.5443C59.9306 43.6782 60.073 43.6342 60.2809 43.3834C60.3098 43.3487 60.3359 43.311 60.3684 43.2805C60.484 43.1719 60.6197 43.162 60.7271 43.2805C60.8047 43.3663 60.8772 43.4771 60.9009 43.5874C60.9605 43.8653 60.9912 44.1494 61.037 44.4532L61.0367 44.4539Z" fill="#141414"/>
<path d="M25.5022 49.8061C25.6519 49.707 25.6963 49.577 25.7437 49.4537C25.9026 49.04 26.059 48.6252 26.2096 48.2081C26.5693 47.2119 26.9311 46.2159 27.2022 45.1905C27.2521 45.002 27.29 44.8097 27.3198 44.6172C27.3606 44.3541 27.3006 44.111 27.1492 43.8889C27.0869 43.7977 27.0401 43.6961 26.974 43.5772C27.0498 43.5361 27.1033 43.4951 27.1634 43.4779C27.2494 43.4533 27.3408 43.4325 27.4295 43.4341C27.8723 43.4427 28.3153 43.4556 28.7577 43.4754C28.853 43.4797 28.9505 43.5102 29.0405 43.5454C29.1994 43.6074 29.2294 43.6943 29.1507 43.8469C29.12 43.9063 29.0784 43.9622 29.0322 44.0105C28.9545 44.092 28.8721 44.1697 28.7864 44.2426C28.5115 44.4759 28.3065 44.7547 28.1799 45.0959C27.6676 46.4765 27.1525 47.856 26.6321 49.2335C26.401 49.8449 26.1613 50.4531 25.9119 51.0571C25.8385 51.235 25.7388 51.4108 25.6158 51.5577C25.3948 51.8213 25.0939 51.8188 24.8504 51.5726C24.6563 51.3762 24.5383 51.1318 24.4428 50.877C24.2399 50.3353 24.0424 49.7914 23.8415 49.249C23.3353 47.8822 22.8216 46.5183 22.3255 45.1476C22.1662 44.7073 21.9319 44.3426 21.5344 44.0855C21.4421 44.0257 21.3622 43.9383 21.2952 43.8494C21.1753 43.6905 21.2054 43.5849 21.3909 43.5237C21.5254 43.4795 21.6685 43.4411 21.8087 43.4384C22.3943 43.4264 22.9805 43.4269 23.5662 43.4287C23.6544 43.4289 23.7456 43.4528 23.8302 43.4811C24.007 43.5397 24.032 43.6095 23.967 43.7882C23.9056 43.9571 23.837 44.125 23.7957 44.299C23.7348 44.5549 23.7867 44.8104 23.863 45.0546C24.1408 45.9434 24.42 46.832 24.7143 47.7154C24.9066 48.2925 25.1242 48.8615 25.3343 49.4325C25.3797 49.556 25.442 49.6733 25.5018 49.8052L25.5022 49.8061Z" fill="#141414"/>
<path d="M17.453 51.701C16.7761 51.701 16.0993 51.7053 15.4224 51.6985C15.2129 51.6965 15.0035 51.6676 14.795 51.6446C14.7367 51.6383 14.6774 51.6159 14.6245 51.5891C14.4871 51.5191 14.4587 51.4214 14.5474 51.2954C14.6029 51.2164 14.6726 51.1449 14.7457 51.0812C15.0216 50.84 15.1678 50.5393 15.1804 50.1732C15.2062 49.4219 15.2495 48.6705 15.2536 47.919C15.259 46.934 15.2342 45.9488 15.2202 44.9639C15.2188 44.8666 15.203 44.7693 15.1947 44.672C15.171 44.3949 15.0209 44.1981 14.7974 44.0487C14.7225 43.9986 14.6415 43.9566 14.5708 43.9013C14.5004 43.8462 14.4286 43.7871 14.3763 43.716C14.2734 43.5756 14.3095 43.4758 14.476 43.4316C14.5697 43.4068 14.6688 43.3876 14.7652 43.3887C15.5696 43.3982 16.3739 43.412 17.1783 43.4282C17.2515 43.4298 17.3296 43.4465 17.3959 43.477C17.544 43.5447 17.5688 43.6826 17.4627 43.8069C17.4286 43.8467 17.3916 43.8866 17.3487 43.9157C16.9028 44.2173 16.7403 44.666 16.7082 45.1738C16.6732 45.7288 16.6373 46.2847 16.6337 46.8403C16.6283 47.7124 16.647 48.5848 16.6617 49.4571C16.6658 49.6898 16.6901 49.9223 16.7107 50.1543C16.7179 50.2362 16.7344 50.3186 16.7579 50.3974C16.8527 50.7142 17.0547 50.9205 17.3921 50.9571C18.0067 51.0234 18.6081 50.9715 19.1837 50.7264C19.4893 50.5962 19.7199 50.3707 19.9416 50.1333C20.0955 49.9685 20.2465 49.8006 20.4074 49.6428C20.4853 49.5666 20.5756 49.4652 20.6995 49.5169C20.8254 49.5695 20.8076 49.7027 20.8062 49.8128C20.7992 50.3044 20.7205 50.7851 20.5789 51.2559C20.5158 51.4656 20.3817 51.5872 20.1573 51.5997C19.6622 51.6272 19.1674 51.6642 18.6718 51.6805C18.2662 51.694 17.8595 51.6832 17.4535 51.6832C17.4535 51.689 17.4535 51.6947 17.4535 51.7005L17.453 51.701Z" fill="#141414"/>
<path d="M58.7805 42.3246C57.5936 42.279 56.5114 42.539 55.635 43.4009C55.6081 43.4273 55.581 43.4535 55.5517 43.4767C55.3759 43.6162 55.2632 43.5905 55.1594 43.3917C54.85 42.7987 54.546 42.2029 54.2262 41.6156C54.1045 41.3922 53.949 41.187 53.8034 40.9774C53.7321 40.8747 53.6321 40.8259 53.5003 40.8099C53.0981 40.7609 52.8519 40.4014 52.9399 40.0134C53.0322 39.6074 53.4351 39.3785 53.8235 39.5114C54.1846 39.6351 54.3898 40.07 54.2137 40.4117C54.1169 40.5998 54.17 40.7108 54.2828 40.8503C54.5342 41.1611 54.8344 41.3807 55.2434 41.4209C55.7878 41.4743 56.076 41.2477 56.2229 40.82C56.3123 40.5598 56.3283 40.2928 56.3089 40.0193C56.2976 39.8619 56.236 39.7789 56.0823 39.7301C55.7616 39.6288 55.6068 39.3975 55.6135 39.07C55.6194 38.7822 55.7918 38.5511 56.0663 38.4631C56.3601 38.3687 56.6463 38.4491 56.8176 38.6739C56.9975 38.9099 57.0431 39.2422 56.8495 39.4473C56.6364 39.6733 56.7283 39.8443 56.8486 40.0434C57.0519 40.3802 57.3264 40.6192 57.7231 40.6982C58.1253 40.7783 58.4971 40.6232 58.714 40.2752C58.844 40.0667 58.9042 39.8367 58.9178 39.5916C58.9259 39.4421 58.8848 39.3383 58.746 39.2577C58.5054 39.1183 58.3896 38.8998 58.4108 38.6161C58.4314 38.3396 58.628 38.08 58.8898 38.0243C59.185 37.9613 59.4545 38.0078 59.654 38.3182C59.814 38.5669 59.8075 38.8869 59.605 39.0916C59.4588 39.2392 59.415 39.402 59.3972 39.5943C59.3353 40.2644 59.3922 40.9315 59.4317 41.5994C59.4405 41.7492 59.4633 41.8984 59.477 42.0481C59.4989 42.2844 59.4186 42.3683 59.1861 42.3534C59.0509 42.3449 58.916 42.3343 58.781 42.3246H58.7805Z" fill="#141414"/>
<path d="M10.4905 43.3815C10.8889 43.3815 11.2875 43.3793 11.6858 43.3831C11.7901 43.3842 11.8969 43.3935 11.9975 43.4192C12.1688 43.463 12.1993 43.5594 12.0851 43.6973C12.0188 43.7772 11.9395 43.8519 11.8529 43.9088C11.4933 44.1448 11.2997 44.473 11.2809 44.9025C11.2554 45.488 11.2128 46.0734 11.2121 46.6591C11.2105 47.7265 11.2308 48.7936 11.2507 49.8609C11.2548 50.0773 11.2852 50.2954 11.325 50.5087C11.3735 50.77 11.506 50.9804 11.747 51.1178C11.8635 51.1842 11.9632 51.2796 12.0734 51.358C12.2018 51.4491 12.1668 51.6311 11.9876 51.6809C11.938 51.6947 11.8833 51.6945 11.831 51.6949C11.0194 51.7042 10.2075 51.7141 9.3959 51.7195C9.28395 51.7202 9.1711 51.7024 9.06029 51.6841C8.97791 51.6706 8.89643 51.6426 8.87634 51.5439C8.85716 51.4505 8.90568 51.3846 8.97362 51.3306C9.03817 51.2792 9.10136 51.2241 9.17223 51.1828C9.55931 50.9576 9.734 50.6086 9.75409 50.1755C9.77869 49.6426 9.80645 49.1091 9.80871 48.576C9.81322 47.4861 9.806 46.3962 9.79291 45.3063C9.7902 45.0749 9.74551 44.8438 9.71233 44.6136C9.67216 44.3349 9.51575 44.1326 9.28034 43.9848C9.17878 43.9209 9.07834 43.8541 8.98355 43.7808C8.91087 43.7244 8.854 43.6546 8.88695 43.5483C8.919 43.4452 9.00251 43.4145 9.09301 43.3991C9.15914 43.3878 9.22776 43.3894 9.29524 43.3892C9.6936 43.3883 10.0922 43.3887 10.4905 43.3887C10.4905 43.3865 10.4905 43.3842 10.4905 43.382V43.3815Z" fill="#141414"/>
<path d="M70.24 61.5087C70.0584 61.6574 69.913 61.7753 69.7692 61.8944C69.4997 62.1174 69.2018 62.2885 68.8662 62.3901C68.6674 62.4503 68.4591 62.4968 68.2875 62.3447C68.1108 62.1878 68.1548 61.9755 68.2024 61.7748C68.2787 61.4539 68.4466 61.1765 68.6401 60.9165C69.0037 60.4278 69.3804 59.9489 69.7437 59.46C69.8245 59.3515 69.9092 59.3018 70.0437 59.314C70.1617 59.3246 70.2813 59.3163 70.436 59.3163C70.3845 59.3959 70.3538 59.4517 70.3154 59.5016C69.7977 60.1755 69.275 60.8456 68.764 61.5247C68.6577 61.666 68.5775 61.8333 68.5164 61.9998C68.4514 62.1772 68.5498 62.2838 68.7364 62.2411C68.8804 62.2082 69.0219 62.147 69.1526 62.0763C69.5663 61.8524 69.9144 61.5403 70.2561 61.2225C70.8147 60.703 71.3008 60.12 71.7328 59.4925C71.8184 59.3684 71.9093 59.3025 72.063 59.3178C72.1745 59.3289 72.2878 59.3201 72.4458 59.3201C72.3851 59.407 72.3436 59.4711 72.2971 59.5316C71.7653 60.2234 71.2315 60.9133 70.7023 61.6069C70.6118 61.7256 70.5285 61.8527 70.463 61.9863C70.4355 62.0425 70.4357 62.1486 70.4716 62.1899C70.5093 62.2332 70.6091 62.2483 70.6741 62.2359C70.7592 62.2194 70.8438 62.1741 70.9165 62.1235C71.5529 61.6823 72.1887 61.2399 72.82 60.7912C72.9475 60.7005 73.0608 60.5876 73.1717 60.4761C73.6481 59.9967 74.1735 59.5853 74.8107 59.3436C75.0255 59.2621 75.2587 59.2124 75.4876 59.189C75.7997 59.1571 75.901 59.251 75.9728 59.5589C75.9773 59.5781 75.987 59.5961 75.9967 59.621C76.0202 59.604 76.0464 59.595 76.0538 59.5781C76.2008 59.2418 76.4829 59.3097 76.7826 59.3271C76.726 59.4104 76.6871 59.472 76.644 59.53C76.1631 60.1753 75.6801 60.8187 75.2011 61.4656C75.103 61.5981 75.017 61.7401 74.9321 61.8816C74.884 61.9619 74.8628 62.0529 74.9368 62.1323C75.0043 62.2045 75.091 62.1874 75.1684 62.1565C75.2657 62.1176 75.36 62.0698 75.4512 62.0179C76.2184 61.5812 76.925 61.0578 77.6044 60.4971C77.6782 60.4364 77.7364 60.354 77.7926 60.2753C78.6417 59.0845 79.5829 57.9715 80.6233 56.9437C80.9716 56.5997 81.3463 56.2826 81.7672 56.0305C81.971 55.9084 82.1926 55.8019 82.4199 55.7358C82.7334 55.6448 82.9259 55.8615 82.8135 56.1702C82.7503 56.3438 82.6598 56.5194 82.5404 56.6584C82.247 57.0001 81.9471 57.3398 81.6187 57.647C80.7328 58.4758 79.7693 59.2088 78.767 59.8916C78.6701 59.9575 78.5778 60.0419 78.5101 60.1367C78.1519 60.6384 77.7996 61.1442 77.452 61.6536C77.3724 61.7705 77.3076 61.9014 77.2584 62.0341C77.1965 62.2012 77.2758 62.2892 77.4478 62.2431C77.5692 62.2106 77.6951 62.1614 77.7944 62.0867C78.1366 61.8299 78.4697 61.5608 78.8022 61.2914C78.9297 61.188 79.0462 61.0706 79.1775 60.9508C79.2213 60.9914 79.2567 61.0244 79.3071 61.0713C78.8351 61.5742 78.3731 62.0689 77.7328 62.3402C77.5918 62.4 77.4286 62.43 77.2751 62.4318C77.0309 62.435 76.8851 62.2849 76.9137 62.045C76.9383 61.8398 77.0094 61.638 77.0792 61.4417C77.1261 61.3092 77.2067 61.1887 77.2548 61.0363C77.2029 61.0684 77.1503 61.0988 77.0995 61.1327C76.5486 61.4986 76.0006 61.8689 75.4451 62.2276C75.335 62.2987 75.1996 62.3483 75.0698 62.3675C74.7362 62.4171 74.5371 62.2052 74.5872 61.8694C74.6024 61.7676 74.6353 61.6685 74.6723 61.5189C74.5694 61.6073 74.5026 61.664 74.4365 61.7215C74.1383 61.98 73.8142 62.1942 73.4337 62.3126C73.222 62.3786 73.0089 62.4117 72.7911 62.3424C72.5982 62.2811 72.4937 62.1646 72.5002 61.9639C72.5061 61.7859 72.5456 61.6085 72.5767 61.432C72.588 61.3679 72.6185 61.3074 72.6568 61.1979C72.5656 61.2548 72.5126 61.2862 72.4614 61.3202C71.9608 61.6536 71.464 61.9926 70.9575 62.3165C70.8494 62.3856 70.7077 62.4241 70.5784 62.4341C70.3107 62.4546 70.1362 62.2707 70.1556 62.0007C70.1662 61.8524 70.2048 61.706 70.2398 61.5074L70.24 61.5087ZM73.161 62.1989C73.3064 62.1443 73.4635 62.1093 73.5955 62.0319C74.4487 61.5326 75.1041 60.8298 75.6358 60.0062C75.6855 59.9295 75.7087 59.8236 75.7108 59.7304C75.7162 59.4923 75.5767 59.3799 75.3478 59.446C75.2063 59.4871 75.0659 59.5526 74.9427 59.6338C74.1464 60.1572 73.5213 60.8503 72.9897 61.6333C72.9563 61.6825 72.9286 61.7369 72.9053 61.792C72.7995 62.042 72.8837 62.1707 73.161 62.1989ZM79.0872 59.4208C79.1531 59.384 79.1807 59.3716 79.2048 59.3546C80.1406 58.6972 81.0298 57.9826 81.8324 57.1663C82.0423 56.953 82.2294 56.7164 82.4158 56.4815C82.4842 56.3955 82.5359 56.2885 82.5671 56.1827C82.6197 56.0044 82.5136 55.894 82.3355 55.9482C82.1944 55.991 82.0498 56.0536 81.934 56.1427C81.685 56.335 81.4413 56.5375 81.2174 56.758C80.4279 57.5359 79.7754 58.4275 79.1258 59.3206C79.1141 59.3366 79.1105 59.3587 79.087 59.4205L79.0872 59.4208Z" fill="#141414"/>
<path d="M57.2224 61.7394C57.1845 61.7272 57.1438 61.7141 57.107 61.7024C57.1043 61.6784 57.0973 61.662 57.1021 61.6505C57.3758 60.9835 57.7695 60.4073 58.3651 59.9843C58.8041 59.6724 59.2853 59.512 59.8285 59.5828C60.4065 59.6582 60.7038 60.1173 60.5368 60.6766C60.4643 60.919 60.3307 61.1275 60.1556 61.3081C59.4956 61.9895 58.6946 62.3788 57.7469 62.4499C57.423 62.4743 57.0996 62.4472 56.7913 62.3312C56.353 62.1662 56.1216 61.8387 56.0697 61.381C56.0253 60.9896 56.0894 60.6086 56.2708 60.264C56.466 59.8927 56.7006 59.542 56.919 59.1831C56.9565 59.1215 56.9994 59.063 57.0513 58.9861C56.9337 58.9572 56.8394 58.9398 56.7489 58.9102C56.5778 58.8547 56.4017 58.8073 56.2408 58.7297C55.5879 58.4157 55.3321 57.8447 55.5129 57.1408C55.5998 56.802 55.782 56.5228 56.032 56.2849C56.348 55.9845 56.7197 55.778 57.1305 55.6372C57.96 55.353 59.1422 55.3652 60.0046 55.6464C60.0134 55.7459 59.9881 55.7888 59.8685 55.7712C59.5342 55.7225 59.199 55.6683 58.8625 55.648C58.0947 55.6015 57.3659 55.7453 56.701 56.1515C56.4554 56.3016 56.2327 56.4797 56.0478 56.7009C55.8452 56.9433 55.7142 57.2152 55.7014 57.5389C55.6885 57.8637 55.8117 58.1232 56.0519 58.334C56.3787 58.6209 56.7789 58.7114 57.1937 58.7653C57.2944 58.7784 57.3402 58.7037 57.3984 58.6482C57.6763 58.3841 57.946 58.1106 58.2328 57.8567C59.0363 57.1455 59.9068 56.5318 60.8864 56.0838C61.2917 55.8983 61.7131 55.7579 62.1607 55.7286C62.3457 55.7164 62.5387 55.7236 62.7191 55.7638C63.0346 55.834 63.1874 56.0773 63.11 56.3908C63.0698 56.5539 62.9872 56.7144 62.8917 56.8543C62.678 57.1678 62.3956 57.4181 62.09 57.6405C61.3883 58.1512 60.602 58.4834 59.7744 58.7249C59.2458 58.8791 58.7052 58.9755 58.1556 59.0021C57.929 59.0132 57.7561 59.0797 57.6212 59.2689C57.3549 59.6415 57.0628 59.9963 56.808 60.3764C56.6146 60.6646 56.4886 60.9896 56.4674 61.3446C56.441 61.785 56.6439 62.0745 57.0693 62.2036C57.3264 62.2817 57.5909 62.2849 57.8521 62.2477C58.6574 62.1328 59.3665 61.8116 59.9319 61.216C60.0696 61.0709 60.1935 60.9007 60.2792 60.7208C60.5137 60.2286 60.2497 59.8054 59.7037 59.7722C59.4268 59.7553 59.1672 59.8243 58.919 59.9421C58.4095 60.1839 58.0143 60.5597 57.69 61.0117C57.5244 61.2428 57.3813 61.4902 57.2221 61.7394H57.2224ZM58.0845 58.7841C58.2416 58.7769 58.3588 58.7782 58.4743 58.7651C59.5487 58.645 60.5487 58.2957 61.4926 57.7779C61.9314 57.5373 62.3205 57.2304 62.6353 56.8406C62.736 56.7158 62.8156 56.5618 62.8624 56.4084C62.9423 56.1452 62.8195 55.9529 62.5475 55.9254C62.3496 55.9053 62.1415 55.9191 61.9458 55.9572C61.4294 56.0576 60.9757 56.3088 60.5377 56.5903C59.6457 57.1633 58.8851 57.886 58.1726 58.6636C58.1493 58.6888 58.1317 58.7191 58.0848 58.7841H58.0845Z" fill="#141414"/>
<path d="M65.5402 62.1554C65.6612 62.2696 65.7734 62.2554 65.8828 62.2346C66.0713 62.1987 66.2478 62.1229 66.3819 61.9884C66.5613 61.8082 66.745 61.6248 66.8847 61.4149C67.2623 60.8479 67.4596 60.2119 67.5334 59.5368C67.5402 59.4738 67.5343 59.4095 67.5343 59.3077C67.4666 59.3657 67.4287 59.3978 67.3912 59.4303C66.5062 60.1995 65.626 60.9743 64.7327 61.7338C64.5115 61.922 64.2513 62.0662 64.0021 62.2192C63.8326 62.3235 63.6392 62.3632 63.4399 62.3567C63.1656 62.3477 63.0413 62.1996 63.0833 61.9304C63.1015 61.8134 63.1331 61.6988 63.1291 61.5598C63.0697 61.6103 63.0097 61.6604 62.951 61.7119C62.6192 62.0026 62.2559 62.2396 61.8216 62.3445C61.6918 62.3759 61.5544 62.3912 61.421 62.389C61.1423 62.3842 60.9992 62.2299 60.9931 61.9461C60.9879 61.7087 61.0301 61.4749 61.1463 61.2715C61.2984 61.0057 61.4546 60.7332 61.6573 60.5066C62.087 60.0264 62.6007 59.6447 63.1968 59.3894C63.3886 59.3073 63.5929 59.245 63.7974 59.203C64.2057 59.1193 64.3788 59.2326 64.4995 59.6488C64.5564 59.5736 64.6124 59.514 64.6514 59.4447C64.711 59.3386 64.7936 59.3037 64.9117 59.3136C65.0232 59.3228 65.136 59.3156 65.2947 59.3156C65.2351 59.4016 65.1969 59.4605 65.155 59.5167C64.6742 60.1618 64.1917 60.8055 63.7132 61.4521C63.6107 61.5907 63.515 61.736 63.4329 61.8872C63.4024 61.9437 63.3913 62.0479 63.4238 62.0908C63.4582 62.1362 63.5604 62.1612 63.6227 62.1479C63.7376 62.1233 63.8567 62.0811 63.9536 62.0157C64.2212 61.8351 64.4885 61.6512 64.7376 61.4467C65.6384 60.708 66.5581 59.9902 67.374 59.1542C67.472 59.054 67.5456 58.9301 67.6318 58.8182C67.7318 58.6882 67.8257 58.5523 67.9376 58.4334C67.973 58.3957 68.0766 58.3747 68.1148 58.3993C68.1556 58.4257 68.1726 58.5155 68.1699 58.5762C68.1669 58.6399 68.1371 58.7076 68.1028 58.7633C68.0599 58.8331 68.0121 58.9103 67.946 58.9534C67.7214 59.0996 67.7157 59.3016 67.7385 59.5406C67.781 59.9826 67.7898 60.429 67.6674 60.8626C67.4521 61.6257 67.0037 62.1737 66.2013 62.3551C65.993 62.4023 65.768 62.396 65.5524 62.3838C65.3728 62.3736 65.2473 62.2517 65.2024 62.0771C65.1581 61.9051 65.2078 61.7475 65.3416 61.6266C65.3847 61.5877 65.4409 61.5564 65.4964 61.5397C65.6332 61.4986 65.756 61.5537 65.8219 61.674C65.8876 61.7938 65.8614 61.9197 65.7445 62.0145C65.6876 62.0608 65.6233 62.0983 65.5393 62.1556L65.5402 62.1554ZM63.8784 59.4438C63.7568 59.4445 63.6046 59.5226 63.4586 59.6192C62.6757 60.1367 62.057 60.8165 61.5264 61.5821C61.4673 61.6674 61.4185 61.764 61.3858 61.8622C61.2993 62.1206 61.412 62.2605 61.6702 62.1892C61.8844 62.1301 62.1037 62.0477 62.2863 61.9245C63.023 61.427 63.6304 60.7964 64.1145 60.0505C64.17 59.9652 64.2091 59.8596 64.223 59.7589C64.2506 59.5623 64.1339 59.4443 63.8786 59.4438H63.8784Z" fill="#141414"/>
<path d="M51.7165 61.2914C51.4398 61.6591 51.1322 61.9834 50.7343 62.2127C50.5553 62.3159 50.3608 62.3759 50.1545 62.3757C49.8331 62.3752 49.5873 62.245 49.4616 61.9071C49.3864 61.948 49.3216 61.9794 49.2607 62.0168C48.9486 62.2093 48.6118 62.3344 48.2455 62.3592C48.0749 62.3707 47.8991 62.3682 47.7307 62.3414C47.3994 62.2886 47.2055 62.0635 47.1719 61.7268C47.1342 61.3496 47.2373 61.0131 47.4655 60.7127C47.665 60.45 47.9243 60.2595 48.2076 60.0988C48.6224 59.8636 49.0675 59.7036 49.5293 59.5935C49.6724 59.5594 49.7396 59.4928 49.7803 59.3529C49.8985 58.9462 50.0658 58.5571 50.3371 58.2287C50.4885 58.0454 50.6691 57.882 50.8557 57.7337C51.0297 57.5954 51.2435 57.5426 51.4703 57.5518C51.8757 57.5685 52.1176 57.8746 52.0336 58.2722C51.9849 58.5031 51.8483 58.6799 51.6761 58.8327C51.4258 59.0543 51.1365 59.2139 50.835 59.3518C50.6576 59.4328 50.4759 59.5052 50.2933 59.5748C50.2174 59.6036 50.1621 59.6364 50.1491 59.7255C50.08 60.1932 50.0071 60.6604 49.9369 61.128C49.934 61.147 49.9446 61.168 49.9541 61.2124C50.0091 61.1659 50.0543 61.1321 50.0944 61.093C50.6126 60.5902 51.1318 60.088 51.7242 59.6711C51.8646 59.5723 52.0174 59.4876 52.1736 59.4161C52.2584 59.3773 52.3634 59.3617 52.4573 59.3678C52.6588 59.3806 52.7814 59.5249 52.7843 59.728C52.7877 59.956 52.7035 60.1413 52.4999 60.2543C52.4374 60.2891 52.3587 60.3065 52.2864 60.3089C52.151 60.3135 52.0704 60.2394 52.0517 60.1158C52.033 59.9923 52.0853 59.8898 52.202 59.8442C52.2566 59.8228 52.3185 59.8187 52.3776 59.8095C52.462 59.7964 52.5259 59.7582 52.513 59.6646C52.4988 59.5619 52.409 59.5608 52.3374 59.5761C52.251 59.5944 52.1612 59.6233 52.0876 59.6707C51.9237 59.7763 51.7583 59.8842 51.6129 60.0131C51.2137 60.3672 50.8239 60.7317 50.4316 61.0937C50.3046 61.2111 50.1822 61.3332 50.0572 61.4528C49.9073 61.5963 49.8809 61.7742 49.9829 61.9579C50.0685 62.1123 50.235 62.1775 50.4325 62.1048C50.5643 62.0563 50.6964 61.9879 50.8045 61.8992C51.0363 61.7087 51.2557 61.5029 51.4732 61.2959C51.5477 61.2251 51.6069 61.1709 51.7163 61.2912L51.7165 61.2914ZM49.3993 61.667C49.4702 61.0226 49.5361 60.425 49.604 59.8056C49.0605 60.0668 48.5475 60.3439 48.1164 60.7486C47.9805 60.8761 47.8523 61.0172 47.7463 61.17C47.658 61.2968 47.584 61.4438 47.5449 61.5925C47.4666 61.8927 47.6212 62.1188 47.9293 62.1558C48.09 62.175 48.2606 62.1644 48.4197 62.1328C48.7944 62.0586 49.1151 61.8629 49.3991 61.6668L49.3993 61.667ZM50.2549 59.3177C50.3028 59.3177 50.3265 59.3238 50.3456 59.3168C50.7528 59.1707 51.1225 58.9608 51.4283 58.6519C51.5112 58.5681 51.5811 58.4657 51.6353 58.3605C51.7359 58.1653 51.7265 57.9459 51.6172 57.8549C51.4541 57.7188 51.2757 57.7725 51.109 57.8472C50.918 57.9328 50.7887 58.0917 50.6763 58.2623C50.4671 58.5794 50.3508 58.934 50.2549 59.3177Z" fill="#141414"/>
<path d="M23.4598 56.9231C23.3205 57.2939 23.1291 57.606 22.884 57.8837C22.3794 58.4556 21.7864 58.8885 21.0146 59.0212C20.7013 59.0749 20.3855 59.0835 20.0745 59.0002C19.566 58.8639 19.281 58.4899 19.2699 57.9635C19.2602 57.5009 19.4358 57.1118 19.7394 56.7773C20.1804 56.2913 20.7297 55.9776 21.3563 55.7939C22.0981 55.5763 22.8565 55.5718 23.616 55.6416C24.4244 55.7158 25.2304 55.8158 26.0379 55.8989C26.4792 55.9442 26.9078 55.8828 27.319 55.7124C27.3526 55.6984 27.3883 55.6896 27.433 55.6754C27.4558 55.7194 27.4754 55.7573 27.4993 55.8038C27.1917 56.0677 26.8295 56.1792 26.4505 56.2473C25.9325 56.3405 25.4157 56.2816 24.8997 56.223C24.1229 56.1345 23.3483 56.0203 22.5696 55.9578C21.6409 55.8833 20.7931 56.1214 20.0844 56.7531C19.7215 57.0766 19.4979 57.4754 19.5058 57.9773C19.5128 58.4165 19.7768 58.733 20.2068 58.8214C20.588 58.8998 20.9566 58.8388 21.3129 58.7025C22.1403 58.3863 22.7531 57.82 23.1957 57.0603C23.2765 56.9217 23.277 56.9222 23.4596 56.9231H23.4598Z" fill="#141414"/>
</svg>
