<svg width="100" height="100" viewBox="0 0 100 100" fill="none" xmlns="http://www.w3.org/2000/svg">
<path d="M37.9468 21.5311C37.6881 20.3378 37.7168 19.1899 37.7823 18.0515C37.8417 16.9907 38.2068 15.9699 38.8338 15.1125C39.5836 14.072 40.5469 13.3226 41.6734 12.7427C42.8745 12.1313 44.1605 11.7037 45.4883 11.4743C46.3931 11.3084 47.3003 11.1998 48.2135 11.0996C49.5606 10.9528 50.9041 11.0017 52.2464 11.0375C53.0474 11.062 53.845 11.1538 54.6307 11.312C55.1254 11.4098 55.6261 11.4922 56.1221 11.5948C56.5962 11.6989 57.0638 11.8303 57.5228 11.9886C58.0514 12.1827 58.5688 12.4062 59.0726 12.658C59.925 13.0458 60.6224 13.6412 61.253 14.3035C61.6917 14.7641 62.1018 15.2581 62.37 15.8726C62.5369 16.2545 62.6609 16.6554 62.8469 17.0217C63.0328 17.3881 63.0734 17.8057 63.1687 18.2007C63.3384 18.866 63.4186 19.551 63.4072 20.2376C63.3821 21.0466 63.4918 21.8592 63.3011 22.6623C63.2272 22.9748 63.3821 23.185 63.6802 23.3103C64.4169 23.6205 65.1548 23.9308 65.882 24.2649C66.8882 24.7255 67.8312 25.2754 68.4439 26.2503C68.6959 26.7101 68.7843 27.2421 68.6943 27.7587C68.6382 28.0045 68.618 28.2586 68.5512 28.502C68.3271 29.3146 67.824 29.915 67.135 30.3911C66.4388 30.8983 65.6213 31.2131 64.765 31.3039C64.652 31.331 64.541 31.3652 64.4324 31.4065C63.9627 31.5151 63.8852 31.5927 63.8816 32.0783C63.8816 32.8134 63.8888 33.5496 63.8888 34.2847C63.8951 34.49 63.8543 34.6941 63.7696 34.8813C63.7183 34.822 63.678 34.7541 63.6504 34.6808C63.555 34.182 63.4513 33.6904 63.1914 33.243C63.0698 33.0172 62.8903 32.8279 62.6713 32.6948C62.4523 32.5616 62.2018 32.4893 61.9456 32.4851C60.9848 32.4326 60.2945 32.8814 59.7998 33.6689C59.7477 33.7732 59.7219 33.8887 59.7247 34.0054C59.7151 34.2799 59.7247 34.5543 59.7247 34.9183C59.5625 34.8133 59.4374 34.7763 59.398 34.6975C59.2502 34.4004 59.1215 34.0937 59.1334 33.7429C59.1429 33.5043 59.1334 33.2656 59.1334 33.027C59.12 32.8309 59.152 32.6345 59.2266 32.4529C59.3012 32.2713 59.4166 32.1091 59.5637 31.9792C59.6913 31.8682 59.683 31.854 59.683 31.5557C58.306 31.4662 57.0376 30.9722 55.7561 30.5044C54.9202 30.1856 54.0581 29.9401 53.1799 29.7704C52.5922 29.6666 51.9639 29.792 51.3535 29.8099C50.9184 29.8231 50.4797 29.8708 50.0505 29.8278C49.6488 29.7861 49.2613 29.6274 48.8584 29.5558C48.5886 29.4966 48.3104 29.4865 48.037 29.5259C47.7628 29.5796 47.4803 29.6668 47.3218 29.9746C47.1324 30.2943 46.923 30.6016 46.6947 30.8946C46.2453 31.5165 46.0074 32.2665 46.0164 33.0341C46.0279 33.2329 46.0251 33.4323 46.008 33.6308C45.9578 34.0848 46.0651 34.5423 46.312 34.9266C46.4926 35.2335 46.5509 35.5975 46.4753 35.9456C46.4217 36.2928 46.1368 36.5244 45.8709 36.7261C45.4728 37.0304 44.9983 37.0756 44.5179 36.998C44.3849 36.9663 44.2681 36.8875 44.1888 36.7762C43.9689 36.4786 43.8177 36.1358 43.7466 35.7727C43.5546 34.7846 43.2316 33.8455 42.4459 33.1475C41.8499 32.6177 41.1489 32.5222 40.4002 32.6225C40.267 32.6544 40.1439 32.7197 40.0426 32.8122C39.3345 33.3718 38.953 34.1247 38.7563 34.991C38.6995 35.1979 38.6597 35.409 38.6371 35.6223C38.585 36.3724 38.781 37.1188 39.195 37.7463C39.7911 38.6627 40.4145 39.5696 41.0702 40.4479C41.4621 40.9431 41.8858 41.4121 42.3386 41.8522C42.5754 42.0916 42.8865 42.2431 43.2208 42.2819C43.8324 42.3666 44.2484 42.0634 44.5667 41.5992C44.6595 41.4275 44.7977 41.2847 44.9661 41.1865C45.0888 41.5394 45.1078 41.9202 45.0209 42.2838C44.9342 42.6474 44.7451 42.9784 44.4761 43.2377L44.2496 42.7532C44.1495 42.7532 44.0112 42.7139 43.9194 42.7604C43.5272 42.9525 43.1505 42.7473 42.7726 42.7222C42.5687 42.7091 42.3637 42.5194 42.1765 42.3785C41.6496 41.9705 41.2228 41.9011 40.7805 42.1947C40.3943 42.4488 39.9901 43.2018 40.219 43.7459C40.4384 44.2686 40.7781 44.6851 41.1358 45.0932C41.6031 45.629 42.1861 46.0417 42.7273 46.4999C43.4843 47.1395 44.351 47.5834 45.1974 48.0655C45.6742 48.3364 46.1916 48.5213 46.684 48.7588C46.8602 48.8581 47.0297 48.9684 47.1918 49.0893C46.9188 49.3005 46.6935 49.2816 46.4038 49.2314C45.5606 49.072 44.7442 48.794 43.979 48.4057C43.4891 48.167 43.0492 47.8292 42.5866 47.5345C41.8916 47.0918 41.2896 46.5322 40.7054 45.9618C40.25 45.5179 39.8709 44.9952 39.4346 44.5299C38.9091 43.9535 38.4941 43.2853 38.2103 42.5587C37.7263 41.4084 37.1982 40.2772 36.682 39.1412C36.521 38.7833 36.3422 38.442 36.1622 38.0971C35.7736 37.343 35.5352 36.5077 35.2335 35.7094C35.0476 35.2214 35.0368 34.7548 35.0297 34.2656C35.0297 33.947 35.0297 33.6296 35.0297 33.311C35.0297 32.8098 34.8723 32.6284 34.3776 32.4888C33.685 32.2943 33.0031 32.0806 32.3772 31.7011C32.0949 31.5398 31.8553 31.3135 31.678 31.0407C31.5007 30.768 31.391 30.4569 31.3579 30.1333C31.2868 29.5163 31.3521 28.8911 31.5493 28.3021C31.7464 27.7131 32.0706 27.1749 32.4988 26.7254C33.1795 25.9796 33.9294 25.2994 34.7984 24.7923C35.7271 24.2553 36.7058 23.8281 37.7787 23.6384C38.6669 23.4821 39.5526 23.5488 40.4396 23.5369C41.5805 23.5213 42.6867 23.7755 43.805 23.9676C44.6752 24.1204 45.5038 24.3961 46.3418 24.6348C47.311 24.9116 48.2492 25.3102 49.1886 25.6825C50.1864 26.0774 51.1652 26.5176 52.169 26.9066C52.5183 27.0427 52.8675 27.1512 53.2955 27.026C53.795 26.8828 54.3446 26.8984 54.8751 26.8745C56.0374 26.822 57.2045 26.834 58.3621 26.7301C59.0617 26.6785 59.7519 26.5361 60.4149 26.3065C60.7439 26.1872 60.8822 25.9915 60.8918 25.7242C60.8921 25.3331 60.8481 24.9431 60.7606 24.562C60.7318 24.4766 60.6789 24.4015 60.6082 24.3458C60.5375 24.29 60.4521 24.2562 60.3625 24.2482C59.7318 24.1348 59.1048 23.9963 58.4753 23.8722C58.076 23.7946 57.6766 23.7088 57.2725 23.6575C56.5357 23.5632 55.7895 23.5273 55.0575 23.4008C54.1717 23.2493 53.2776 23.3747 52.399 23.2733C50.7372 23.0812 49.073 23.1539 47.4159 23.2041C46.3132 23.2387 45.2081 23.2649 44.1042 23.2947C43.9099 23.3007 43.7167 23.2947 43.4557 23.2947C43.7299 22.9869 44.0517 22.9976 44.32 22.9571C44.7634 22.8878 45.201 22.8031 45.642 22.7183C46.1851 22.6258 46.7351 22.5803 47.286 22.5823C49.2721 22.568 51.2594 22.5417 53.2466 22.5954C53.9381 22.6145 54.3064 22.2208 54.558 21.7602C54.8739 21.1635 55.2053 20.5609 55.3388 19.882C55.458 19.271 55.6309 18.6756 55.6965 18.0479C55.7823 17.1888 55.9432 16.3356 55.8944 15.4705C55.8634 14.9097 55.7597 14.3429 55.4664 13.85C55.1294 13.2971 54.6059 12.8832 53.9905 12.683C53.1203 12.3799 52.2321 12.1544 51.2951 12.1902C50.7193 12.2117 50.1423 12.1974 49.5665 12.1962C48.9787 12.1895 48.3928 12.2629 47.8248 12.4145C47.5077 12.5017 47.1656 12.4957 46.8366 12.5482C45.5872 12.7475 44.351 12.9969 43.1529 13.4264C42.6667 13.5888 42.1926 13.7854 41.7342 14.0147C40.8572 14.482 40.1243 15.1801 39.6146 16.0337C39.1181 16.8718 38.7686 17.7887 38.5811 18.7448C38.444 19.3736 38.3426 20.0085 38.2067 20.6349C38.1638 20.8246 38.1567 21.0227 38.1114 21.2113C38.0688 21.3238 38.0136 21.431 37.9468 21.5311ZM32.7146 30.1035C32.9757 29.9627 33.1914 29.8434 33.4179 29.7216C34.3601 29.2076 35.3509 28.7883 36.3756 28.4699C36.7631 28.3506 37.1672 28.2778 37.5677 28.1859C38.0787 28.0667 38.5961 27.9779 39.1175 27.9198C39.7386 27.8506 40.3549 27.7467 40.9796 27.7192C41.7675 27.6945 42.5562 27.7345 43.3377 27.8386C43.7454 27.8887 44.1578 27.9067 44.5644 27.9699C45.1974 28.0702 45.8244 28.2086 46.4563 28.3076C46.7841 28.3625 47.1155 28.3947 47.4457 28.427C47.7163 28.4556 47.9858 28.4699 48.2588 28.52C48.6748 28.5976 49.1159 28.5402 49.6524 28.5402C49.5383 28.468 49.4187 28.405 49.2947 28.3518C49.1827 28.3196 49.0563 28.3398 48.9466 28.2957C48.0346 27.9043 47.069 27.6669 46.126 27.3721C44.8683 26.9795 43.6226 26.52 42.2933 26.3911C41.5542 26.0797 40.7531 26.1526 39.9854 26.075C39.1914 25.9963 38.376 26.1311 37.5701 26.1741C37.5317 26.1785 37.4941 26.1877 37.4581 26.2015C36.862 26.3889 36.2588 26.5428 35.6818 26.7695C34.4754 27.2468 33.3965 27.9091 32.7575 29.1012C32.5954 29.3995 32.444 29.73 32.7146 30.1035ZM63.2987 30.2443C62.5465 29.6978 61.9873 29.1608 61.3162 28.7372C60.2158 28.0427 59.0237 27.7635 57.7577 27.7229C56.9041 27.6943 56.0493 27.7098 55.1946 27.7062H54.6092C54.9466 27.9819 55.3114 28.1406 55.6643 28.3208C56.5122 28.7596 57.382 29.1552 58.2703 29.5057C58.8067 29.7341 59.3575 29.9274 59.919 30.0843C60.5234 30.2299 61.1326 30.4185 61.7716 30.3481C61.8116 30.3405 61.853 30.3446 61.8908 30.3599C62.1876 30.5317 62.5119 30.4482 62.823 30.4482C62.9399 30.447 63.0567 30.3517 63.2987 30.2443Z" fill="#141414"/>
<path d="M27.2847 84.2748C27.0916 84.3715 26.9462 84.4287 26.8162 84.5135C26.1785 84.9239 25.462 84.949 24.7574 84.8559C24.0028 84.7569 23.4556 84.2784 22.9835 83.6901C22.5925 83.2033 22.5639 82.6162 22.4089 82.0542C22.5568 81.6962 22.5138 81.3 22.7547 80.9492C22.9826 80.6283 23.2979 80.3798 23.6631 80.2332C23.8261 80.1701 23.9963 80.1269 24.1697 80.1044C24.7527 79.9946 25.2951 80.4624 25.338 81.1783C25.164 81.1783 24.9899 81.1688 24.817 81.1783C24.3211 81.2081 23.7823 81.6687 23.7131 82.158C23.5796 83.0839 23.9122 83.7211 24.798 84.0779C25.1527 84.2061 25.5391 84.2174 25.9007 84.1101C26.7352 83.85 27.4612 83.3942 27.9416 82.6126C28.227 82.149 28.5681 81.7223 28.9573 81.3418C29.582 80.7237 30.3461 80.3335 31.1484 80.0292C31.5061 79.8944 31.915 79.8788 32.3048 79.8574C32.8198 79.8311 33.3372 79.8574 33.8546 79.8574C34.6473 79.8574 35.3924 80.096 36.1268 80.3514C36.8654 80.6169 37.568 80.974 38.2178 81.4146C38.63 81.6779 39.0239 81.969 39.3968 82.2857C40.341 83.1209 41.2506 83.986 42.1959 84.8154C42.8415 85.4077 43.5248 85.9573 44.2416 86.4609C44.9199 86.9188 45.6468 87.3002 46.4089 87.598C47.0544 87.8434 47.7495 87.9301 48.4355 87.851C48.9243 87.8033 49.4131 87.1911 49.4632 86.6971C49.5526 85.8153 49.1246 85.3845 48.3962 85.0647C48.242 84.9977 48.0731 84.9717 47.906 84.9895C47.7387 85.0072 47.5791 85.0682 47.4425 85.1662C47.3723 85.2121 47.313 85.2729 47.2689 85.3442C47.2248 85.4155 47.1968 85.4956 47.187 85.5789C47.1772 85.6622 47.1859 85.7467 47.2123 85.8263C47.2388 85.906 47.2823 85.9788 47.34 86.0396C47.4592 86.1721 47.5784 86.3344 47.7334 86.3976C47.9861 86.4991 47.9015 86.6673 47.8907 86.832C47.3233 87.1303 46.8774 87.0599 46.4375 86.6983C46.2211 86.5111 46.0719 86.2581 46.0125 85.9781C45.953 85.698 45.9868 85.4063 46.1085 85.1471C46.4018 84.5159 46.9323 84.2283 47.5915 84.1674C48.4117 84.0899 49.0936 84.3858 49.6408 85.0027C49.76 85.134 49.8923 85.2414 50.0473 85.3965C50.1434 85.3218 50.2321 85.2379 50.3119 85.1459C50.6146 84.733 51.0416 84.4281 51.5303 84.276C52.6306 83.8966 53.6606 84.3321 54.0755 85.4156C54.2436 85.8571 53.9563 86.4501 53.6463 86.6912C53.4972 86.8208 53.3228 86.9178 53.1342 86.9761C52.9456 87.0345 52.7469 87.0528 52.5508 87.0301C52.2456 86.9907 52.1013 86.8236 52.0739 86.5134C52.1705 86.447 52.2725 86.3891 52.3791 86.3403C52.7093 86.221 52.8238 85.9824 52.8059 85.6483C52.7856 85.2378 52.6652 85.0516 52.2706 85.0123C51.9954 84.9766 51.7157 85.0148 51.4601 85.123C51.2045 85.2311 50.9823 85.4054 50.8162 85.628C50.6375 85.8541 50.5367 86.1319 50.5284 86.4199C50.5203 86.7081 50.6053 86.9912 50.7709 87.2269C50.9916 87.5517 51.3267 87.7811 51.7091 87.8689C52.2849 87.9882 52.825 87.8558 53.3555 87.6959C54.5881 87.3236 55.667 86.6661 56.6612 85.8499C57.5673 85.1053 58.4268 84.3118 59.2696 83.4956C59.7882 82.9933 60.4093 82.5971 60.9386 82.1091C61.5446 81.5561 62.2302 81.0975 62.9724 80.7487C63.5887 80.4612 64.2264 80.2218 64.8798 80.0328C65.2975 79.928 65.726 79.8715 66.1566 79.8645C66.6513 79.8371 67.1496 79.8466 67.6455 79.8645C68.7913 79.8981 69.8897 80.3297 70.7522 81.0852C71.234 81.4855 71.6488 81.9599 71.9813 82.4909C72.4903 83.3107 73.208 83.8858 74.1403 84.0994C75.2764 84.3595 75.9583 83.9884 76.354 82.9061C76.6211 82.1771 75.963 81.2583 75.1834 81.1879C74.9926 81.1711 74.7757 81.2487 74.6386 81.0101C74.7029 80.9466 74.7559 80.8722 74.7947 80.7905C74.8531 80.5757 74.9139 80.3502 75.1321 80.2667C75.4027 80.1628 75.6829 80.0602 75.9881 80.1127C76.2811 80.1631 76.5593 80.2778 76.8028 80.4486C77.0462 80.6194 77.2489 80.8422 77.396 81.1007C77.6344 81.5136 77.6642 82.0458 77.5605 82.5327C77.4403 83.1267 77.1479 83.672 76.72 84.1006C76.2836 84.5645 75.6864 84.8438 75.051 84.881C74.3739 84.9096 73.7242 84.8452 73.1436 84.4502C73.0471 84.3858 72.8897 84.412 72.6918 84.387C72.8635 85.0134 72.811 85.5981 72.8265 86.1769C72.8281 86.5499 72.761 86.92 72.6286 87.2687C72.3532 88.0539 71.8204 88.6589 71.1683 89.1493C70.8788 89.3492 70.5667 89.5138 70.2384 89.6397C69.3896 89.9977 68.4967 89.9977 67.6408 89.7435C66.6525 89.4536 65.7333 88.9858 65.1981 88.0324C64.9787 87.6422 64.7665 87.2401 64.8226 86.7616C64.8392 86.6229 64.8392 86.4827 64.8226 86.3439C64.7451 85.7604 65.0371 85.2927 65.3805 84.9025C65.6356 84.6113 65.992 84.3476 66.4534 84.3834C66.6918 84.4025 66.9302 84.3834 67.1687 84.3834C67.6622 84.3953 67.9674 84.6316 68.1045 85.0994C68.1832 85.3643 68.1832 85.3643 67.8839 85.8153C67.6169 85.6423 67.4584 85.3249 67.0888 85.2712C66.6608 85.2091 66.3032 85.3058 66.0302 85.6029C65.7879 85.8499 65.6263 86.1647 65.5666 86.5055C65.5067 86.8464 65.5515 87.1973 65.6952 87.5121C65.8657 87.9166 66.2376 88.2162 66.6274 88.4572C67.4214 88.95 68.306 89.0538 69.1858 88.9011C69.6245 88.8283 70.0548 88.5431 70.4256 88.2651C70.7879 87.9866 71.1054 87.6542 71.3674 87.2794C71.6129 86.9358 71.8549 86.5372 71.9253 86.1327C72.0171 85.6113 72.2829 85.0695 71.998 84.523C71.9873 83.8071 71.6511 83.2104 71.2827 82.6305C70.9827 82.1463 70.5871 81.7283 70.1201 81.4023C69.6532 81.0763 69.1247 80.8491 68.567 80.7344C67.8518 80.5793 67.0983 80.4194 66.358 80.6891C65.1516 80.7654 64.2265 81.3871 63.3872 82.195C62.7435 82.8143 62.2058 83.5195 61.6432 84.2056C61.0983 84.8703 60.5774 85.5576 59.9336 86.1339C58.8941 87.0928 57.6521 87.805 56.3 88.2173C55.4751 88.456 54.6501 88.6839 53.781 88.6946C53.57 88.6946 53.3566 88.814 53.1504 88.7937C52.1192 88.7149 51.15 88.456 50.3596 87.7353C50.3012 87.6816 50.2476 87.6159 50.1903 87.567C50.1672 87.541 50.1388 87.52 50.1071 87.5054C50.0754 87.4909 50.0411 87.483 50.0063 87.4824C49.9714 87.4819 49.9368 87.4886 49.9046 87.5021C49.8725 87.5157 49.8436 87.5358 49.8196 87.5611C49.7589 87.6127 49.7016 87.6681 49.6479 87.7269C49.0912 88.3474 48.3545 88.5419 47.5677 88.7125C47.0801 88.8176 46.6426 88.7125 46.1812 88.6923C45.7199 88.672 45.2978 88.5538 44.8556 88.4834C43.7946 88.3028 42.776 87.9274 41.8514 87.3761C41.4127 87.1231 40.9585 86.8654 40.5913 86.5241C39.9952 85.9681 39.373 85.4418 38.8878 84.7629C38.3164 83.9944 37.7052 83.2562 37.0566 82.5517C36.4857 81.9018 35.7916 81.3716 35.0145 80.9922C34.7332 80.8586 34.4341 80.7665 34.1264 80.7189C33.4338 80.6091 32.7352 80.4385 32.0342 80.6807C31.5645 80.6139 31.1282 80.8144 30.7229 80.9695C30.0287 81.2192 29.4287 81.6777 29.005 82.2821C28.6068 82.8787 28.2158 83.4753 28.068 84.214C27.9125 84.9661 27.9808 85.7473 28.2647 86.4609C28.4589 86.9434 28.7294 87.3914 29.0658 87.7878C29.5112 88.3466 30.1335 88.7368 30.8301 88.8939C31.6265 89.0654 32.4574 88.957 33.1834 88.5873C33.7974 88.2758 34.2277 87.8439 34.4471 87.1995C34.5114 87.0582 34.5413 86.9037 34.5341 86.7484C34.4713 86.3403 34.3046 85.9554 34.0501 85.6304C33.6925 85.1948 32.8282 84.9979 32.3418 85.7031C32.293 85.7554 32.239 85.8027 32.1808 85.844C32.1117 85.7855 31.9877 85.733 31.9794 85.6662C31.9507 85.4561 31.9138 85.2247 31.9794 85.0325C32.0285 84.8488 32.137 84.6864 32.2879 84.5707C32.4388 84.4551 32.6237 84.3926 32.8139 84.393C32.9728 84.4008 33.132 84.3984 33.2907 84.3858C34.3279 84.2104 35.2708 85.4896 35.2923 86.3559C35.3233 87.6446 34.6962 88.5037 33.7151 89.166C33.0281 89.6216 32.2273 89.8754 31.4036 89.8986C30.4123 89.9581 29.4356 89.6391 28.67 89.0061C27.851 88.3391 27.2836 87.4549 27.28 86.3284C27.28 85.7914 27.2871 85.2545 27.2907 84.7187C27.2859 84.5791 27.2847 84.4443 27.2847 84.2748Z" fill="#141414"/>
<path d="M5.37433 54.6758H6.01092C9.48478 54.6758 12.9591 54.6758 16.4337 54.6758C17.1287 54.6758 17.1585 54.6615 17.149 55.4025C17.1383 56.3165 17.149 57.2306 17.149 58.147C17.149 58.5766 17.1049 58.6112 16.6722 58.6243H16.6125C16.0332 58.6315 16.0296 58.6326 15.84 58.0503C15.6386 57.4322 15.3143 56.9155 14.7075 56.6184C14.5129 56.5261 14.3007 56.4764 14.0852 56.4729C13.3377 56.4442 12.5796 56.4621 11.8476 56.332C11.174 56.2127 10.5112 56.2903 9.80904 56.2211C9.78285 56.3579 9.76495 56.4962 9.75541 56.6351C9.75541 58.1466 9.75541 59.6581 9.75541 61.1695C9.75541 61.228 9.75541 61.2888 9.75541 61.3473C9.77448 61.6432 9.84601 61.7053 10.1607 61.7244C10.2799 61.7244 10.3992 61.7244 10.5184 61.7244C11.5305 61.7244 12.545 61.7244 13.5559 61.7387C14.6172 61.7621 15.6529 62.0695 16.5553 62.6289C17.4482 63.1682 17.943 64.0023 18.21 64.976C18.3387 65.4426 18.477 65.9449 18.4282 66.4079C18.3832 66.9702 18.2983 67.5284 18.1742 68.0785C17.9835 68.8326 17.5782 69.4305 17.0644 69.9579C16.6843 70.3305 16.2256 70.6132 15.722 70.7848C14.6607 71.1848 13.536 71.3898 12.4019 71.3898C10.1989 71.3671 7.99106 71.3898 5.79038 71.3898C5.65209 71.3898 5.51261 71.3898 5.37313 71.3898C5.09179 71.3767 5.0155 71.3122 5.00477 71.0461C4.99404 70.829 5.00477 70.6106 5.00477 70.3755C5.28492 70.1046 5.64732 70.0414 6.00973 69.9603C6.31133 69.8923 6.63322 69.823 6.88595 69.6608C7.05685 69.5426 7.20026 69.3888 7.30642 69.2101C7.41257 69.0314 7.47896 68.8318 7.50108 68.625C7.50229 68.6052 7.50229 68.5853 7.50108 68.5653C7.53923 67.4007 7.60361 66.2373 7.61196 65.0727C7.62865 62.5096 7.61911 59.9417 7.61196 57.3821C7.60652 57.1826 7.57567 56.9845 7.52016 56.7926C7.40095 56.3153 6.98727 56.1495 6.57718 56.0123C6.24815 55.9013 5.90363 55.8357 5.56984 55.7366C5.46417 55.7075 5.3723 55.6417 5.3107 55.5509C5.2491 55.4603 5.22179 55.3505 5.23365 55.2414C5.26652 55.0497 5.31354 54.8606 5.37433 54.6758ZM9.74944 63.278C9.74944 65.408 9.74944 67.4699 9.74944 69.5331C9.74944 69.8767 9.82574 69.9591 10.1715 69.9448C10.8975 69.9149 11.6199 69.9782 12.3519 69.8636C13.0421 69.755 13.7359 69.7443 14.4166 69.5056C15.033 69.2873 15.4633 68.9448 15.728 68.3565C15.9192 67.9086 16.0329 67.4311 16.0642 66.9449C16.113 66.4115 15.9962 65.9032 15.8543 65.3853C15.7732 65.073 15.6306 64.78 15.4349 64.5234C15.2392 64.267 14.9943 64.0521 14.7147 63.8913C14.0626 63.4928 13.3354 63.3353 12.5998 63.2947C11.6747 63.2362 10.7389 63.278 9.74706 63.278H9.74944Z" fill="#141414"/>
<path d="M79.6153 58.4973C79.8148 58.4487 80.0176 58.4152 80.2221 58.3971C81.791 58.3899 83.3598 58.3899 84.9287 58.3971C85.1417 58.4151 85.353 58.4503 85.5605 58.5021V59.644C85.1492 59.7395 84.7355 59.8325 84.3231 59.9316C83.8259 60.0509 83.5553 60.3457 83.5529 60.8337C83.5529 62.7226 83.5529 64.6104 83.5601 66.4993C83.5694 66.5334 83.5825 66.5662 83.5994 66.5971C83.7007 66.602 83.8019 66.587 83.8975 66.553C84.0788 66.4369 84.2506 66.3063 84.4113 66.1628C85.0372 65.6234 85.6571 65.0757 86.2829 64.5352C86.9589 63.9529 87.6408 63.3777 88.3167 62.7966C88.7649 62.4124 89.2072 62.021 89.6555 61.6368C89.8641 61.4578 90.0918 61.3003 90.2897 61.1105C90.5281 60.8874 90.5186 60.6857 90.3231 60.4399C90.0846 60.1356 89.7461 59.9626 89.4003 59.8206C89.2566 59.7612 89.1097 59.7094 88.9605 59.6655C88.6147 59.5629 88.5229 59.329 88.5527 58.9865C88.5885 58.5725 88.6994 58.4329 89.1202 58.3899C89.1989 58.3827 89.2788 58.3899 89.3586 58.3899C90.8476 58.3899 92.339 58.3899 93.8267 58.3959C94.0385 58.4108 94.2486 58.4436 94.455 58.4937C94.5206 58.8111 94.5742 59.0581 94.6219 59.3039C94.6442 59.3724 94.6407 59.4468 94.6119 59.5128C94.5831 59.5787 94.531 59.6318 94.4657 59.6619C94.325 59.7285 94.1769 59.7781 94.0246 59.8099C93.7767 59.8624 93.5227 59.8827 93.276 59.9376C92.8075 60.0414 92.7133 60.1977 92.5905 60.6822C92.5104 61.067 92.478 61.4602 92.4939 61.8527C92.4939 62.6677 92.4403 63.4863 92.5035 64.2965C92.6298 65.9194 92.5798 67.5422 92.6108 69.165C92.6179 69.5695 92.6882 69.6674 93.0876 69.7724C93.4059 69.8559 93.7349 69.8917 94.0592 69.9609C94.2106 69.9908 94.3608 70.0313 94.511 70.0671C94.9962 70.1865 94.9938 70.1865 94.9986 70.6721C95.0058 71.3881 95.0105 71.3881 94.2762 71.3881C92.488 71.3797 90.6998 71.3881 88.9116 71.3881C88.7733 71.3881 88.6338 71.3881 88.4943 71.3881C88.4544 71.3911 88.4143 71.3852 88.3769 71.3711C88.3395 71.3571 88.3056 71.3351 88.2775 71.3066C88.2493 71.2782 88.2278 71.2439 88.2142 71.2062C88.2006 71.1686 88.1952 71.1285 88.1987 71.0886C88.1987 70.8499 88.1462 70.579 88.2452 70.3905C88.325 70.2378 88.5921 70.1721 88.7852 70.0922C89.0177 69.9955 89.2621 69.9263 89.5005 69.8416C89.7722 69.7448 89.9977 69.5494 90.1323 69.2939C90.3432 68.9389 90.456 68.534 90.459 68.1209C90.4494 66.5518 90.459 64.9815 90.459 63.4111V63.015C90.3111 62.8694 90.1943 62.9112 90.0775 63.015C89.7425 63.3109 89.4087 63.6116 89.0689 63.9004C87.9824 64.8311 86.8957 65.7603 85.8085 66.6878C85.2124 67.1997 84.6163 67.7176 84.0262 68.2391C83.9356 68.3166 83.8546 68.4049 83.7687 68.4873C83.3682 68.8667 83.5458 69.7748 84.205 69.8559C84.5896 69.9086 84.9703 69.9864 85.3447 70.0886C85.492 70.135 85.6253 70.217 85.7334 70.3273C85.8728 70.4621 85.7727 70.6101 85.7155 70.7628C85.6499 70.9406 85.6928 71.2186 85.5784 71.3022C85.4282 71.4119 85.1719 71.3952 84.9597 71.3964C83.3908 71.3964 81.822 71.3964 80.2531 71.3964C80.1148 71.4081 79.9756 71.4041 79.8383 71.3845C79.7918 71.372 79.7484 71.3497 79.7111 71.3192C79.6736 71.2889 79.6431 71.251 79.6213 71.2079C79.4222 70.6841 79.6571 70.1781 80.2007 69.9836C80.7443 69.7891 81.1198 69.4753 81.3129 68.9371C81.3482 68.868 81.3746 68.7946 81.3916 68.7188C81.4345 68.171 81.5001 67.6233 81.5037 67.0756C81.518 65.1867 81.5144 63.299 81.5037 61.41C81.4943 61.1568 81.4542 60.9055 81.3845 60.6619C81.34 60.4991 81.2556 60.3501 81.139 60.2282C81.0224 60.1063 80.8773 60.0155 80.7169 59.9638C80.4987 59.8779 80.2782 59.7991 80.06 59.7132C79.6392 59.5497 79.6058 59.4996 79.6058 59.0784L79.6153 58.4973Z" fill="#141414"/>
<path d="M67.9304 70.2622C67.9304 70.5307 67.9399 70.7896 67.9304 71.0473C67.9197 71.286 67.8374 71.3587 67.6061 71.3789C67.5072 71.3873 67.4082 71.3789 67.3081 71.3789H62.4204C61.9042 71.3789 61.9078 71.3789 61.8434 70.879C61.8203 70.7627 61.7888 70.6483 61.7492 70.5365C61.8231 70.3146 62.0174 70.2204 62.2129 70.1238C62.4919 69.9877 62.809 69.8945 63.0343 69.6929C63.2867 69.4543 63.4854 69.1647 63.6173 68.8433C63.7169 68.5473 63.7606 68.2353 63.746 67.9234C63.7591 65.7373 63.7591 63.5501 63.7603 61.3605C63.7603 60.5049 63.5601 60.2172 62.7649 59.9081C62.6552 59.8652 62.5539 59.8019 62.4466 59.7518C61.8124 59.4475 61.7897 59.4082 61.8589 58.722C61.8851 58.4619 61.9531 58.3916 62.2404 58.3904C63.8283 58.3904 65.4174 58.3821 67.0089 58.3904C67.7242 58.3904 67.9936 58.7759 67.7957 59.456C67.7739 59.5077 67.7413 59.5542 67.7002 59.5925C67.6592 59.6308 67.6104 59.6598 67.5573 59.6778C67.2211 59.7769 66.8778 59.8449 66.5368 59.9237C66.0099 60.043 65.7917 60.2818 65.7881 60.802C65.7798 61.796 65.7881 62.79 65.7881 63.7852C66.24 63.9128 70.3421 63.9581 72.3925 63.8602C72.5594 63.6323 72.6524 63.3997 72.5118 63.1038C72.4731 62.9714 72.4618 62.8326 72.4784 62.6957C72.4784 62.1194 72.4784 61.543 72.4784 60.9655C72.4724 60.4237 72.2614 60.1302 71.7631 59.9417C71.508 59.8462 71.2386 59.7805 70.9942 59.6635C70.6234 59.4869 70.6222 59.512 70.6818 59.0514C70.7534 58.4834 70.8392 58.3975 71.4198 58.3951C72.9084 58.3903 74.3977 58.3903 75.8879 58.3951C76.509 58.3951 76.8082 58.8164 76.6151 59.4059C76.5785 59.5176 76.5091 59.6156 76.4159 59.6871C76.3228 59.7586 76.2101 59.8004 76.0929 59.8068C75.802 59.8462 75.5088 59.8772 75.2251 59.9441C74.8257 60.0395 74.6385 60.2877 74.6147 60.703C74.6075 60.8223 74.6147 60.9416 74.6147 61.0609C74.6147 63.6861 74.6167 66.3113 74.6206 68.9365C74.6206 69.5808 74.7172 69.7012 75.3717 69.8349C75.6578 69.8933 75.9499 69.9185 76.2372 69.9674C76.4298 69.9917 76.6198 70.034 76.8046 70.0939C76.9161 70.1377 77.0084 70.2199 77.0645 70.3259C77.1208 70.4319 77.1372 70.5544 77.111 70.6713C77.0657 70.8981 77.0049 71.12 76.9453 71.3646H70.4053C70.385 71.3384 70.3445 71.3099 70.3421 71.2776C70.267 70.2896 70.2598 70.2634 71.2183 69.9722C71.7929 69.798 72.1899 69.4842 72.3866 68.9221C72.4365 68.7959 72.4659 68.6626 72.4736 68.5272C72.4847 67.652 72.4879 66.777 72.4832 65.902C72.4832 65.4844 72.4247 65.4319 71.9932 65.4307C70.0858 65.4307 68.1784 65.4307 66.271 65.4307C65.8478 65.4307 65.7941 65.4856 65.7941 65.908C65.7941 67.0022 65.8072 68.0952 65.7941 69.1882C65.7872 69.2973 65.8144 69.4059 65.8718 69.4988C65.9293 69.5918 66.0142 69.6647 66.1148 69.7072C66.3554 69.8369 66.6199 69.916 66.8921 69.9399C67.2614 69.9488 67.6208 70.0603 67.9304 70.2622Z" fill="#141414"/>
<path d="M30.5283 69.4217C30.8633 69.6926 31.2734 69.5733 31.6585 69.584C32.0435 69.5948 32.4358 69.5661 32.8923 69.553C32.9341 69.6234 33.0604 69.7487 33.0831 69.8895C33.1618 70.405 33.2297 70.6054 32.6527 70.8322C31.9851 71.0983 31.3175 71.3584 30.5784 71.4097C30.1981 71.4559 29.8138 71.459 29.4328 71.4192C28.6209 71.2999 28.4791 70.7665 28.3491 70.158C28.2979 69.9193 28.3146 69.9193 28.1107 69.7021C27.9188 69.862 27.7256 70.0267 27.5301 70.1866C26.8876 70.714 26.1365 71.041 25.3664 71.3214C25.1241 71.3945 24.8748 71.4425 24.6225 71.4646C23.5377 71.6126 22.5041 71.5266 21.6148 70.7916C21.0509 70.325 20.7994 69.6866 20.7338 68.9945C20.6146 67.775 20.9794 66.7023 21.9033 65.8599C22.3599 65.4434 22.9118 65.1761 23.4757 64.9554C24.168 64.6934 24.8912 64.523 25.6275 64.4482C26.2677 64.3731 26.8971 64.2227 27.5468 64.2096C27.7028 64.1949 27.8557 64.158 28.001 64.0998C28.0693 64.0842 28.1299 64.0449 28.1722 63.9891C28.2144 63.9332 28.2358 63.8642 28.2323 63.7943C28.2323 63.0581 28.2728 62.3195 28.2156 61.588C28.1976 61.3008 28.103 61.0238 27.9418 60.7856C27.7806 60.5475 27.5585 60.3568 27.2989 60.2336C26.7922 59.9765 26.2346 59.8354 25.6668 59.8208C24.8836 59.7909 24.104 59.7969 23.3291 60.02C22.9619 60.125 22.5601 60.1239 22.1894 60.2587C22.1481 60.2783 22.1024 60.287 22.0568 60.2839C22.0112 60.2808 21.9671 60.266 21.9288 60.241C21.8905 60.216 21.8593 60.1815 21.8381 60.1409C21.817 60.1003 21.8066 60.055 21.8079 60.0093C21.7959 59.7537 21.7236 59.5047 21.5969 59.2826C21.5747 59.2491 21.5602 59.2111 21.5542 59.1714C21.5483 59.1317 21.5511 59.0911 21.5624 59.0525C21.5739 59.014 21.5934 58.9784 21.62 58.9483C21.6465 58.9182 21.6794 58.8942 21.7161 58.8781C21.9044 58.7709 22.1044 58.686 22.3122 58.6251C23.0508 58.4453 23.7997 58.3102 24.5546 58.2206C25.2018 58.1512 25.8533 58.1292 26.5037 58.155C27.2664 58.154 28.0205 58.3168 28.7151 58.6323C29.0651 58.7937 29.3746 59.0318 29.6207 59.3287C29.8668 59.6257 30.0433 59.974 30.1373 60.3482C30.226 60.6905 30.2685 61.0433 30.2637 61.3971C30.2482 62.5104 30.2089 63.6273 30.2708 64.7382C30.3412 65.9828 30.3746 67.2261 30.3901 68.4707C30.4139 68.7905 30.4602 69.1083 30.5283 69.4217ZM28.2347 66.9732C28.2347 66.5758 28.243 66.1796 28.2347 65.7799C28.2275 65.5055 28.1441 65.4112 27.877 65.4219C27.61 65.4327 27.3787 65.5043 27.1284 65.5329C26.2219 65.6338 25.3293 65.834 24.4664 66.1295C24.0346 66.2713 23.6526 66.5343 23.366 66.8872C23.16 67.1331 23.0194 67.427 22.9568 67.7416C22.8943 68.0564 22.9121 68.3818 23.0084 68.6879C23.0693 68.8768 23.1783 69.0466 23.3245 69.1807C23.4709 69.3148 23.6495 69.4085 23.8429 69.4528C24.4468 69.6142 25.0833 69.6073 25.6835 69.4325C26.4944 69.184 27.2844 68.872 28.0463 68.4993C28.1099 68.4702 28.1628 68.4219 28.1973 68.361C28.2317 68.3002 28.246 68.2299 28.2383 68.1605C28.2323 67.7715 28.2359 67.3693 28.2359 66.9732H28.2347Z" fill="#141414"/>
<path d="M53.1262 71.5111C52.1468 71.5419 51.1761 71.3204 50.3068 70.868C49.5834 70.4998 48.992 69.9161 48.614 69.1974C48.0783 68.2584 47.7892 67.1988 47.7735 66.1176C47.7735 65.9446 47.7079 65.7739 47.6948 65.6009C47.6661 65.3634 47.661 65.1236 47.6793 64.885C47.733 64.4411 47.8272 64.0031 47.8963 63.5616C48.0727 62.434 48.5794 61.4615 49.2434 60.5451C49.6423 59.9803 50.1429 59.4948 50.7193 59.1132C51.2474 58.7731 51.7922 58.4234 52.4681 58.359C52.9092 58.3172 53.3312 58.1084 53.7914 58.1526C54.9835 58.2719 56.147 58.4449 57.1592 59.1895C57.8777 59.7118 58.4276 60.4331 58.7411 61.2646C59.0117 61.9944 59.1849 62.7568 59.2561 63.5318C59.3099 63.9993 59.3381 64.4693 59.3408 64.9398C59.3408 66.3443 58.9152 67.6115 58.1796 68.8096C57.6002 69.7534 56.7729 70.3763 55.8514 70.9121C55.0145 71.4037 54.093 71.5457 53.1262 71.5111ZM53.4671 59.8112C52.8198 59.779 52.275 59.8458 51.76 60.1692C50.978 60.6584 50.55 61.3911 50.3032 62.2311C50.0374 63.1344 49.9849 64.0783 49.9456 65.0162C49.9301 65.3623 50.0421 65.7143 50.0409 66.0627C50.0513 66.6312 50.1611 67.1933 50.3652 67.7237C50.5586 68.3032 50.9281 68.8077 51.4221 69.1665C51.9162 69.5253 52.5098 69.7205 53.1202 69.7248C53.2597 69.7248 53.4218 69.6842 53.5327 69.7415C53.975 69.967 54.4053 69.7606 54.7856 69.6496C55.7203 69.3764 56.3163 68.7344 56.643 67.7738C56.9696 66.8133 56.947 65.8491 57.0697 64.885C57.1115 64.5652 56.978 64.2275 56.9768 63.8969C56.9626 63.094 56.7916 62.3015 56.4737 61.5641C56.2307 60.9714 55.7796 60.4879 55.2053 60.205C54.6593 59.927 54.0584 59.6776 53.4671 59.8112Z" fill="#141414"/>
<path d="M49.364 49.9904C49.9195 50.0536 50.4249 50.1097 50.9292 50.1694C51.1223 50.1932 51.3131 50.2302 51.5038 50.266C51.6946 50.3018 51.8829 50.3483 52.0749 50.377C52.69 50.4701 53.2801 50.6729 53.8976 50.7767C54.4663 50.8722 55.0445 50.9963 55.6155 51.0643C56.2419 51.1462 56.8771 51.1349 57.5002 51.0309C57.9068 50.9581 58.2894 50.8292 58.6852 50.7373C59.1442 50.6169 59.5545 50.3567 59.8595 49.9928C60.0526 49.7732 60.3363 49.6085 60.4377 49.2768C60.5104 49.0381 60.5569 48.8293 60.4782 48.5943C60.4609 48.4981 60.4342 48.4037 60.3983 48.3126C60.1754 47.9451 60.3149 47.6349 60.533 47.3318C60.7714 46.9977 61.0361 46.6779 61.2483 46.3259C61.4736 45.9404 61.6489 45.524 61.8444 45.1183C61.8646 45.0741 61.8372 45.0061 61.8265 44.894C61.6322 44.894 61.439 44.9011 61.2471 44.894C61.0688 44.8733 60.8889 44.9183 60.7413 45.0207C60.5936 45.1231 60.4882 45.2757 60.4448 45.45C60.3273 45.7822 60.1389 46.0847 59.8928 46.3366C59.6735 46.5848 59.4303 46.6015 59.1442 46.5192C58.9058 46.4488 58.659 46.3784 58.4122 46.3271C57.9437 46.2316 57.4931 46.2757 57.0902 46.5836C56.7921 46.3808 56.7516 46.0741 56.7456 45.7984C56.744 45.6996 56.7642 45.6017 56.8051 45.5117C56.8459 45.4216 56.9062 45.3418 56.9817 45.2779C57.057 45.2141 57.1457 45.1678 57.2412 45.1425C57.3367 45.1172 57.4366 45.1134 57.5336 45.1315C57.7601 45.1614 57.9759 45.2734 58.1988 45.3367C58.535 45.4321 58.8712 45.5276 59.2109 45.6027C59.5507 45.6779 59.7426 45.4238 59.9525 45.1601C59.8484 45.1024 59.7391 45.0549 59.6258 45.0181C59.2324 44.9309 58.8283 44.9274 58.4551 44.703C58.237 44.5706 57.9318 44.5515 57.6624 44.5384C57.0329 44.5073 56.3999 44.4906 55.7836 44.666C55.4076 44.7629 55.0377 44.8825 54.6761 45.024C54.1909 45.2293 53.6902 45.2495 53.1776 45.2531C52.411 45.2531 51.716 44.5515 51.716 43.783C51.7006 43.3702 51.7887 42.9599 51.9723 42.5898C52.0408 42.4999 52.121 42.4196 52.2108 42.3511C52.33 42.6208 52.4265 42.8535 52.5469 43.0671C52.6428 43.24 52.7763 43.389 52.9377 43.503C53.0991 43.6169 53.2843 43.6929 53.4791 43.7253C53.674 43.7576 53.8735 43.7456 54.0631 43.6898C54.2526 43.6341 54.4272 43.5363 54.5736 43.4036C54.7595 43.2317 54.9038 43.0146 55.0754 42.826C55.2789 42.5831 55.4997 42.3549 55.7359 42.1435C55.9405 41.9723 56.1853 41.8559 56.4474 41.8057C56.7093 41.7553 56.9798 41.7726 57.2332 41.8559C57.6294 41.9597 58.0031 42.1353 58.3359 42.3738C58.4611 42.4669 58.5899 42.5552 58.7198 42.6423C59.2443 42.9931 59.6902 42.8809 59.9763 42.3225C60.1575 41.9645 60.0788 41.7008 59.7128 41.5624C59.4223 41.4506 59.1206 41.3705 58.8128 41.3237C58.3478 41.2557 57.8734 41.2569 57.4096 41.1829C56.9912 41.1161 56.5465 41.1197 56.1603 40.8345L55.3949 41.1925L55.1565 41.0278C55.3186 40.6233 55.6882 40.5362 55.9016 40.288C56.115 40.0398 56.3177 39.7785 56.6097 39.4169C56.6097 39.6937 56.6169 39.8286 56.6097 39.9622C56.5978 40.1675 56.5895 40.3822 56.8183 40.4682C57.0472 40.5541 57.17 40.3405 57.3047 40.2044C57.3989 40.1102 57.4609 39.9801 57.5622 39.8966C57.9711 39.5565 58.4253 39.5231 58.9093 39.72C59.2465 39.8705 59.5451 40.0953 59.7832 40.3775C59.8945 40.5067 60.0459 40.5949 60.2133 40.6277C60.3806 40.6606 60.554 40.6364 60.7059 40.5588C61.0063 40.4216 61.3091 40.1746 61.2769 39.7343C61.2459 39.3238 61.2483 38.9312 61.0838 38.5219C60.7993 37.7986 60.463 37.0967 60.0776 36.4218C59.9761 36.2544 59.896 36.0748 59.8392 35.8872C59.8213 35.8216 59.9012 35.707 59.9668 35.6486C59.9966 35.6223 60.1086 35.6665 60.1682 35.7023C60.2289 35.7443 60.2796 35.7993 60.3161 35.8634C60.8251 36.7201 61.389 37.5435 61.8134 38.4539C62.0505 38.9343 62.146 39.4725 62.0888 40.0052C62.0616 40.211 61.992 40.4088 61.8842 40.586C61.7764 40.7634 61.633 40.9163 61.4629 41.035C61.2169 41.192 61.0229 41.4182 60.905 41.6853C61.0242 41.9036 61.1732 42.0708 61.4557 42.0291C61.7383 41.9873 61.9087 42.1101 62.0697 42.3058C62.1447 42.3845 62.2243 42.4586 62.3081 42.5277C62.6383 42.2891 62.6288 41.9048 62.6753 41.5874C62.7945 40.8154 62.9316 40.0481 63.0329 39.2761C63.1104 38.7117 63.1366 38.1389 63.1605 37.5697C63.1807 37.0924 63.3071 36.6473 63.412 36.1927C63.4454 36.0507 63.5253 35.9409 63.7577 35.9791C63.6934 36.6736 63.8769 37.3788 63.6588 38.0769C63.6428 38.1751 63.6388 38.2749 63.6469 38.374C63.6063 39.2606 63.5753 40.1484 63.5181 41.0338C63.4967 41.3631 63.4084 41.6865 63.3596 42.0134C63.2773 42.5516 63.2022 43.0874 63.1211 43.647C63.8805 43.8725 64.0355 43.1959 64.4432 42.8594C64.5422 43.1172 64.6757 43.3368 64.7114 43.5754C64.8307 44.388 64.1953 45.1696 63.3405 45.1266C62.8183 45.0968 62.5704 45.2603 62.4285 45.7674C62.2402 46.4392 62.0458 47.1086 61.8539 47.7781C61.6071 48.636 61.4224 49.5274 60.7941 50.2195C60.6013 50.4544 60.3853 50.6691 60.1492 50.8603C59.5617 51.2848 58.8915 51.5807 58.1821 51.7289C57.4926 51.8797 56.7871 51.9446 56.0816 51.9223C55.5547 51.9138 55.0304 51.8458 54.5187 51.7194C54.1968 51.6371 53.8654 51.6824 53.5304 51.6001C52.262 51.3053 51.0079 50.9629 49.7562 50.6132C49.4641 50.5369 49.3699 50.4044 49.364 49.9904Z" fill="#141414"/>
<path d="M43.3627 70.2145C43.3627 70.4627 43.3758 70.6417 43.3627 70.8195C43.3258 71.2348 43.1768 71.3696 42.7667 71.3779C42.6474 71.3779 42.5282 71.3779 42.409 71.3779H37.2256C37.0874 71.3779 36.9479 71.3779 36.8096 71.3779C36.7315 71.3821 36.6541 71.3622 36.5878 71.3207C36.3494 71.0963 36.5032 70.7969 36.4686 70.532C36.4559 70.4621 36.4701 70.39 36.5083 70.3303C36.5466 70.2704 36.6062 70.2274 36.6749 70.2097C36.9491 70.1155 37.2328 70.044 37.5094 69.9509C38.2699 69.6956 38.6598 69.2803 38.7158 68.2804C38.7611 67.4451 38.7337 66.6098 38.7349 65.7745C38.7349 64.0849 38.7349 62.3951 38.7349 60.7054C38.7506 60.5675 38.7457 60.428 38.7206 60.2914C38.6908 60.1959 38.5751 60.0527 38.4976 60.0527C37.8253 60.0527 37.1446 60.0087 36.4853 60.1077C35.7212 60.2271 35.3719 60.8439 35.1609 61.5264C35.0071 62.0216 34.9081 62.1123 34.4277 62.0729C34.1654 62.0514 34.0939 61.9764 34.0701 61.7031C34.0701 61.6637 34.0701 61.6232 34.0701 61.5838C34.0701 60.6698 34.0701 59.7545 34.0701 58.8393C34.0721 58.7062 34.1082 58.5759 34.175 58.4609C34.2548 58.3285 34.3812 58.449 34.4873 58.449C34.8795 58.449 35.2705 58.3881 35.6616 58.3869C38.7008 58.3814 41.7387 58.3814 44.7754 58.3869H44.9542C45.5145 58.3869 45.5253 58.4001 45.5276 58.9478C45.5276 59.8229 45.5276 60.6979 45.5276 61.5729C45.5276 61.9763 45.4704 62.0504 45.1879 62.0766C44.7611 62.1184 44.5143 62.005 44.4619 61.6649C44.4021 61.3763 44.2872 61.102 44.1233 60.857C43.9915 60.6301 43.8063 60.4389 43.5837 60.3C43.3612 60.1609 43.1082 60.0786 42.8465 60.0599C42.3116 60.0234 41.7752 60.0178 41.2395 60.0432C40.9475 60.0432 40.8819 60.1352 40.8664 60.4502C40.8604 60.6089 40.8664 60.7688 40.8664 60.9275C40.8712 63.5909 40.8752 66.2558 40.8783 68.9223C40.8783 69.0822 40.8449 69.2553 40.8974 69.3996C40.9499 69.544 40.994 69.7159 41.2419 69.7421C41.6854 69.7886 42.1038 69.9688 42.5628 69.9808C42.8203 69.982 43.0766 70.1238 43.3627 70.2145Z" fill="#141414"/>
<path d="M57.5898 32.3046C57.1848 33.038 57.0131 33.8777 57.0974 34.7114C56.5228 34.7747 56.0579 34.5515 55.5953 34.3081C55.5655 34.3284 55.5119 34.3426 55.5035 34.3712C55.3954 34.7778 55.2913 35.1863 55.1912 35.5968C55.1912 35.6207 55.2306 35.6577 55.283 35.734L55.8373 35.2472C55.8779 35.283 55.9315 35.308 55.9339 35.3367C55.9526 35.5462 55.9 35.7559 55.7846 35.9318C55.6694 36.1076 55.4979 36.2394 55.2985 36.3056C54.8121 36.4404 54.3186 36.5443 53.8274 36.6636C53.6393 36.7133 53.4487 36.7532 53.2564 36.7829C53.1908 36.7913 53.0609 36.7435 53.0573 36.7101C53.05 36.6649 53.0519 36.6187 53.0628 36.5742C53.0736 36.5297 53.0932 36.4879 53.1205 36.4512C53.2515 36.339 53.3914 36.2376 53.5389 36.1481C53.1143 35.7106 52.8421 35.1478 52.7628 34.543C52.1453 34.5108 51.9832 34.5527 51.4205 34.888C51.3907 34.7807 51.3692 34.6714 51.3561 34.5611C51.3442 34.2162 51.4861 33.9083 51.6315 33.6065C51.7507 33.3678 51.9677 33.3773 52.0762 33.6387C52.1596 33.8427 52.2788 33.894 52.472 33.8379C52.9572 33.6995 53.4567 33.5993 53.9216 33.4084C54.3254 33.2542 54.7557 33.182 55.1876 33.196C55.4177 33.196 55.6561 33.2485 55.9375 33.1303C55.835 33.0206 55.7754 32.8917 55.6871 32.8702C54.6738 32.6005 53.6605 32.2986 52.6269 32.1543C52.08 32.0551 51.5159 32.1288 51.0128 32.3653C50.3476 32.6959 49.6597 32.9788 48.9742 33.2652C48.7167 33.3738 48.4414 33.4251 48.2435 33.0898C48.4896 32.7288 48.8298 32.4421 49.227 32.2603C49.8484 31.9274 50.4875 31.6286 51.1415 31.3654C52.1776 30.9874 53.2856 30.8482 54.3829 30.9586C54.8669 31.0152 55.338 31.1526 55.7765 31.3654C56.2403 31.5754 56.7028 31.7867 57.1582 32.0123C57.3091 32.0988 57.4534 32.1965 57.5898 32.3046ZM53.7571 35.1947L53.8846 35.2603C53.9655 35.169 54.0333 35.0671 54.0861 34.9572C54.1016 34.9107 54.0074 34.7914 53.9407 34.7639C53.8369 34.7222 53.7475 34.783 53.7452 34.9095C53.7416 35.0014 53.7523 35.0956 53.7571 35.1947Z" fill="#141414"/>
<path d="M40.9796 33.2109C41.0988 33.2587 41.1823 33.3004 41.2741 33.3303C41.8403 33.5319 42.1693 33.9697 42.347 34.5055C42.5282 35.0651 42.5127 35.6285 42.0847 36.1058C41.9583 36.2466 41.7461 36.3516 41.8463 36.5986C41.9083 36.7478 42.3708 36.9256 42.5806 36.8838C42.7332 36.8528 42.8822 36.8074 43.0325 36.7645C43.4592 36.6535 43.4592 36.6535 43.8252 36.8504C43.9945 37.3026 43.6452 37.4816 43.3817 37.6749C43.4092 37.9052 43.5427 37.947 43.7108 37.9876C43.8331 38.039 43.9466 38.1095 44.047 38.1964C43.9933 38.5854 43.7835 38.7023 43.4354 38.6964C42.8822 38.6856 42.3374 38.7202 41.8677 38.3217C41.3599 37.8897 40.8783 37.4542 40.6875 36.7812C40.5874 36.4232 40.6184 36.2858 40.926 36.0794C41.088 35.9709 41.2572 35.8737 41.4326 35.7883C41.581 35.7282 41.7137 35.6349 41.8205 35.5156C41.9273 35.3963 42.0054 35.254 42.0489 35.0999C42.0196 35.0113 41.9822 34.9259 41.9369 34.8445C41.7748 34.6059 41.5876 34.5569 41.3408 34.6989C41.2359 34.7505 41.1372 34.8137 41.0464 34.8875C40.9291 35.0069 40.7871 35.0995 40.6304 35.1587C40.4738 35.2178 40.3062 35.2421 40.1392 35.2299C39.8912 35.2096 39.7946 35.3397 39.8089 35.607C39.8185 35.78 39.8924 35.9471 39.9115 36.1201C40.0211 37.1559 40.5731 37.9803 41.1608 38.7941C41.4207 39.1521 41.6925 39.51 41.7843 39.9647C41.6901 40.084 41.5912 40.1736 41.4469 40.028C41.386 39.9765 41.3304 39.9188 41.2812 39.8562C40.7841 39.0615 40.2727 38.2739 39.8054 37.4625C39.5637 37.0349 39.4402 36.5504 39.4477 36.0592C39.4477 35.5903 39.3774 35.1225 39.5467 34.6512C39.7696 34.0331 40.064 33.5164 40.7388 33.3159C40.8209 33.2855 40.9014 33.2504 40.9796 33.2109Z" fill="#141414"/>
<path d="M63.245 34.6287C62.8767 34.5929 62.5977 34.643 62.4821 35.106C62.3664 35.569 62.6466 35.7301 62.9863 35.9413C62.7005 36.1442 62.3643 36.2643 62.0148 36.2885C61.8955 36.2885 61.7763 36.279 61.6571 36.2885C61.2899 36.3255 61.0408 36.2229 60.8453 35.8625C60.6307 35.4711 60.3446 35.1191 60.167 34.7003C59.9536 34.1967 60.3112 33.5643 60.8477 33.5476C61.3245 33.5321 61.8014 33.5333 62.2782 33.5547C62.8421 33.5929 63.2343 34.0201 63.245 34.6287ZM61.4568 34.6382C61.2601 34.649 61.1528 34.7313 61.1445 34.8769C61.1455 34.9192 61.1568 34.9606 61.1775 34.9975C61.1984 35.0344 61.228 35.0655 61.2637 35.0881C61.3057 35.0883 61.347 35.0773 61.3834 35.0563C61.4199 35.0355 61.4502 35.0053 61.4712 34.9687C61.4855 34.8589 61.4822 34.7473 61.4616 34.6382H61.4568Z" fill="#141414"/>
<path d="M42.8071 40.2661C43.1874 40.2554 43.495 39.938 43.8979 40.0191C44.1101 40.3532 43.8776 40.5323 43.6774 40.7185C43.4771 40.9046 43.1922 40.8854 42.9621 40.8043C42.732 40.7231 42.7523 40.5036 42.8071 40.2661Z" fill="#141414"/>
</svg>
