<svg width="76" height="89" viewBox="0 0 76 89" fill="none" xmlns="http://www.w3.org/2000/svg">
<path d="M55.9152 5.71683L55.2114 5.93382L56.3492 7.22384C54.6557 6.81897 53.3815 6.46968 52.0889 6.21564C48.6766 5.54748 45.2802 4.67159 41.8322 4.32626C32.7346 3.41597 25.0501 6.81368 18.7535 13.1063C13.7389 18.1169 10.2856 24.1052 10.1732 31.5265C10.148 33.1565 9.96149 34.7905 10.0501 36.4127C10.0951 37.2065 10.631 37.9739 10.8877 38.7717C11.6895 41.2671 12.2332 43.8776 13.3089 46.2472C14.7339 49.3883 15.7606 52.8336 18.7032 55.0829C20.7871 56.6706 22.7479 58.4435 24.9217 59.9042C29.1437 62.7462 33.9188 63.3826 38.891 62.9685C40.6454 62.823 42.4078 62.7476 44.1529 62.5319C48.8433 61.9497 52.9198 59.7719 56.381 56.7923C63.744 50.452 68.3325 42.4499 67.9342 32.5161C67.7247 27.0809 66.1987 21.7777 63.4873 17.0624C62.1179 14.6808 60.8001 12.3495 58.6911 10.5303C58.4265 10.2974 58.5786 9.56969 58.5376 9.07485C58.9346 9.11851 59.3619 9.07485 59.7178 9.22039C63.1169 10.5633 64.7535 13.6104 66.7144 16.3876C69.477 20.3 70.7445 24.7853 71.3611 29.3632C72.3838 36.9498 71.0607 44.1488 66.8467 50.7563C64.1105 55.0458 61.025 58.982 56.6906 61.6653C49.3395 66.2101 41.3003 68.0638 32.7518 66.4284C29.9455 65.8992 27.1168 65.3408 24.4031 63.8907C15.6706 59.2268 9.04723 51.1586 7.28883 43.7797C6.88 42.0596 6.23035 40.4058 5.71567 38.7162C5.61052 38.4294 5.55851 38.1259 5.56219 37.8204C5.84931 33.9676 5.98426 30.0936 6.50689 26.2738C7.03613 22.3865 8.88845 18.9531 11.0914 15.7446C11.5254 15.1121 12.3444 14.7536 12.822 14.141C13.5471 13.2148 13.9956 12.0505 14.7921 11.205C19.3489 6.36912 24.7153 2.82455 31.3679 1.68933C36.6602 0.786978 42.0307 0.222014 47.2781 1.86001C50.2537 2.78617 53.0918 4.15558 55.992 5.32519C55.9642 5.46147 55.9391 5.58849 55.9152 5.71683Z" fill="#141414"/>
<path d="M45.8795 70.8486C46.6099 70.8486 47.319 70.83 48.0256 70.8658C48.1486 70.8658 48.3206 71.0854 48.3683 71.2362C49.2838 74.0987 50.4257 76.8838 51.7832 79.5651C51.885 79.7715 52.0068 79.962 52.1642 80.2492C52.2965 80.0335 52.3918 79.8774 52.4751 79.712C53.8644 77.009 55.0205 74.1926 55.9311 71.2931C56.0396 70.9399 56.1825 70.8234 56.5397 70.8393C57.1801 70.8671 57.8218 70.8472 58.4966 70.8472C58.6831 74.5678 58.9451 78.2314 59.7905 81.8514H57.4566C57.3243 79.1086 57.1986 76.3804 57.0703 73.6482L56.8758 73.6191C56.4683 74.4593 56.0224 75.2836 55.6625 76.1436C54.9308 77.894 54.2375 79.6617 53.5455 81.436C53.4198 81.7614 53.2809 81.9123 52.9104 81.8871C52.4152 81.8561 51.9185 81.8561 51.4233 81.8871C51.0727 81.9057 50.9205 81.7813 50.7829 81.4492C49.7681 78.9949 48.7242 76.5537 47.6855 74.1087C47.6088 73.9509 47.5231 73.7976 47.4289 73.6496L47.2608 73.6628C47.1457 76.3712 47.0306 79.0782 46.9129 81.8342H44.6371C44.9017 80.0163 45.2127 78.2116 45.4178 76.3937C45.6228 74.5757 45.7274 72.7406 45.8795 70.8486Z" fill="#141414"/>
<path d="M18.334 70.8703H20.3729V79.3725L20.5304 79.5048C20.6284 79.3178 20.744 79.1406 20.8757 78.9756C23.1909 76.568 25.3056 73.9754 27.1988 71.2236C27.3866 70.951 27.5745 70.8174 27.9185 70.8266C28.5801 70.8571 29.2324 70.8359 29.8635 70.8359V81.8176H27.8299V73.3696C27.769 73.3087 27.7068 73.2492 27.6446 73.1897C27.5666 73.3524 27.5229 73.5496 27.4038 73.6739C25.0547 76.0938 22.9109 78.7049 20.9948 81.4802C20.8029 81.7594 20.6071 81.8771 20.271 81.8652C19.6095 81.8414 18.9598 81.8573 18.33 81.8573L18.334 70.8703Z" fill="#141414"/>
<path d="M42.3032 81.8454H40.255V77.4263C39.0351 77.4263 37.7491 77.2596 36.8507 78.4292C36.0767 79.4347 35.2987 80.4363 34.5684 81.4723C34.3752 81.7449 34.231 81.9023 33.8817 81.8864C33.2201 81.8587 32.5586 81.8785 31.7647 81.8785C33.1937 80.4231 34.1 78.6462 35.828 77.5123C35.349 77.4236 34.9349 77.3654 34.53 77.2688C32.503 76.7872 31.5583 75.3173 31.9579 73.2718C32.1511 72.2847 32.7306 71.5822 33.6594 71.2382C34.272 71.0106 34.9309 70.7976 35.5739 70.7817C37.8166 70.7261 40.0606 70.7605 42.2966 70.7605L42.3032 81.8454ZM40.2736 72.1326C38.7798 72.1326 37.3628 72.1114 35.947 72.1471C35.5685 72.1789 35.1995 72.2822 34.8595 72.4514C34.2866 72.7028 33.9783 73.1725 33.9201 73.8037C33.8036 75.0791 34.4599 75.9391 35.8518 76.0608C37.2119 76.1812 38.5879 76.131 39.9534 76.1508C40.06 76.1443 40.1658 76.1283 40.2696 76.1032L40.2736 72.1326Z" fill="#141414"/>
<path d="M6.48832 75.672C8.71245 75.8943 10.9657 75.3491 13.1726 76.1681C13.0072 76.4156 12.6712 76.6841 13.1898 76.8575V70.8744H15.2274V81.8442H13.1845V77.3457H6.49097V81.8363H4.44017V77.1221C4.29993 77.089 4.09749 76.9766 3.92549 77.011C3.59898 77.0788 3.26215 77.0803 2.93506 77.0153C2.60797 76.9502 2.2973 76.8201 2.02155 76.6326C1.87068 76.5226 1.70989 76.4269 1.54127 76.3468C1.2224 76.2145 0.890307 76.1205 0.461624 75.9736L4.44282 75.7646V70.8691H6.48832V75.672Z" fill="#141414"/>
<path d="M62.9766 81.8574H60.5157C60.6149 81.6629 60.6956 81.5094 60.7697 81.3533C62.3296 78.0575 63.9054 74.7696 65.4257 71.4552C65.6413 70.9855 65.8305 70.7937 66.3373 70.836C66.844 70.8784 67.5056 70.6826 67.8879 70.9234C68.2386 71.1443 68.2941 71.8164 68.5085 72.2782C69.17 73.6847 69.8316 75.0818 70.4931 76.4883C70.5342 76.6034 70.6127 76.7014 70.7161 76.7667C70.8195 76.8319 70.9418 76.8606 71.0634 76.8482C72.2872 76.8482 73.5098 76.8574 74.7323 76.876C74.9343 76.893 75.1346 76.9253 75.3317 76.9725C75.0671 77.175 74.8342 77.3073 74.6701 77.5018C74.0443 78.2255 73.1301 77.8987 72.3772 78.1514C72.1033 78.244 71.7924 78.2255 71.4127 78.2665L73.2928 81.8389H70.6466C70.3582 80.9537 70.0909 80.0884 69.7919 79.235C69.5511 78.5497 69.2891 78.4253 68.5548 78.461C67.8205 78.4968 67.0756 78.514 66.3386 78.4849C65.8094 78.465 65.2801 78.4015 65.0711 77.7558C65.038 77.6487 64.8065 77.6023 64.5418 77.4621L62.9766 81.8574ZM66.8268 72.7492L64.78 77.0294L68.7599 76.7648C68.1089 75.4192 67.495 74.1424 66.8242 72.7492H66.8268Z" fill="#141414"/>
<path d="M50.9893 47.7421C49.2945 47.365 47.9886 46.8622 46.6774 46.845C45.386 46.8278 44.0881 47.3041 42.8272 47.7289C46.6231 49.1247 50.3992 50.2613 54.4175 49.953C55.0367 49.9054 55.6268 49.4873 56.5186 49.1221C52.884 46.1028 49.6676 43.409 46.4141 40.7641C46.1283 40.5312 45.5594 40.469 45.181 40.563C43.5681 40.9599 41.9698 41.4217 40.3821 41.9139C37.6036 42.7739 35.1439 40.8554 35.4628 38.0015C35.5012 37.6654 35.9246 37.0925 36.1482 37.1018C38.2016 37.193 40.259 37.3161 42.2926 37.5926C42.9542 37.6813 43.5483 38.2476 44.5538 38.8072C45.947 37.9327 47.8152 36.9006 49.4969 35.6225C50.0566 35.1978 50.5448 34.0348 50.3701 33.3958C49.5273 30.3315 48.5099 27.3095 47.4249 24.3206C46.9354 22.9737 45.8068 22.336 44.3104 22.2831C43.6091 22.2606 42.9158 21.9391 42.2596 21.4892C43.8407 20.7337 45.5064 20.9494 46.8388 21.6626C48.3387 22.4849 49.6555 23.604 50.7088 24.9518C52.9647 27.8441 53.4754 31.4349 54.0166 34.9425C54.1079 35.5299 53.4384 36.4839 52.8562 36.8782C51.4127 37.852 49.8131 38.5982 48.2466 39.4595C50.8703 41.5143 53.4305 43.741 56.2195 45.6291C58.3788 47.0924 58.8922 48.9805 58.3365 51.2298C58.1724 51.8913 57.1788 52.6772 56.459 52.8056C53.359 53.356 50.3146 52.8188 47.3217 51.9151C44.3686 51.022 41.4273 50.0628 38.4265 49.3708C37.5533 49.1684 36.4618 49.6804 35.5263 50.0165C32.0585 51.2655 28.6317 52.6296 25.1453 53.8257C24.4097 54.0784 23.3234 54.0903 22.691 53.7106C21.4049 52.9485 20.1175 51.9998 19.2284 50.8275C18.7667 50.2189 18.8805 48.8654 19.2006 48.0252C20.2843 45.1792 22.4766 43.1761 24.845 41.3806C25.9762 40.5233 27.1736 39.7519 28.3591 38.97C28.8187 38.6528 29.3574 38.4696 29.9151 38.4407C27.5256 42.41 23.4795 45.166 21.9924 49.9689C22.5573 49.863 23.0217 49.8101 23.4676 49.687C28.3988 48.3388 33.3022 46.8794 38.2665 45.6622C40.8491 45.0284 43.5284 44.564 46.1772 44.5005C48.0732 44.4595 49.8197 45.4571 50.9893 47.7421ZM37.8378 39.0798L37.6155 39.6858C38.1646 39.9504 38.7481 40.4796 39.2561 40.4161C40.0341 40.3169 40.7592 39.8075 41.5054 39.4727C41.4459 39.2756 41.3876 39.0758 41.3281 38.88L37.8378 39.0798Z" fill="#141414"/>
<path d="M25.7803 35.3686C24.5432 34.5879 23.2784 33.9303 22.1789 33.0637C20.3054 31.5845 20.0341 29.801 21.6047 28.0505C25.132 24.1169 29.1463 20.9561 34.8065 20.8582C35.0091 20.8416 35.2058 20.7816 35.3832 20.6823C35.5606 20.583 35.7145 20.4467 35.8345 20.2826C35.9669 20.0577 35.8266 19.4769 35.607 19.2532C33.1592 16.7619 32.7332 14.3379 34.2415 11.1334C35.6295 8.18555 38.6898 7.19984 41.0489 8.93972C42.5903 10.0776 42.6366 11.1003 40.9893 12.7119C40.5686 11.918 40.2696 11.1241 39.7694 10.4851C39.4268 10.0538 38.711 9.50997 38.3233 9.61053C37.6459 9.78517 36.6297 10.3634 36.5636 10.8754C36.3594 12.4322 36.388 14.0107 36.6483 15.5592C36.9063 17.049 37.6816 18.3562 39.4479 18.2054L36.9711 23.0069C35.0605 21.1294 33.2161 22.1694 31.5464 23.0188C28.7229 24.4464 26.2805 26.431 24.5261 29.1354C23.5351 30.661 23.7216 31.5382 25.1744 32.6258C28.2506 34.9306 30.2259 35.0232 33.4173 33.0134C33.367 32.8811 33.3154 32.7488 33.2638 32.6165L31.0979 33.675C32.1868 31.7525 32.9568 31.5448 34.481 32.4842C34.8052 32.684 35.3185 32.6959 35.7194 32.6324C37.3799 32.3678 39.0272 32.0449 40.6824 31.7433L40.8332 32.3784L30.5607 35.2045C30.5911 35.3844 30.6202 35.563 30.6507 35.7417C31.5967 35.6094 32.5665 35.5776 33.4821 35.3368C35.5395 34.793 37.5652 34.1275 39.6173 33.5586C40.1624 33.4064 40.7525 33.4263 41.3214 33.3641C41.3677 33.5123 41.4127 33.6604 41.4537 33.8086C41.0568 34.0111 40.6758 34.2717 40.2563 34.404C38.4768 34.9703 36.7435 35.4823 35.2656 36.8266C34.5141 37.5093 33.0243 37.8943 32.024 37.6813C29.9494 37.2394 28.1222 37.7144 26.2421 38.3429C25.7433 38.5096 25.2233 38.6075 24.7139 38.7398C24.6557 38.5718 24.5975 38.4051 24.538 38.237L28.7414 36.6903C26.766 35.2852 25.0632 37.3955 23.1977 36.4257L25.7803 35.3686Z" fill="#141414"/>
<path d="M61.0885 84.7516C61.6998 84.7516 62.2793 84.7252 62.8496 84.7609C63.269 84.7873 63.6752 84.9144 63.8207 85.392C63.8873 85.5796 63.8878 85.7844 63.8221 85.9723C63.7564 86.1602 63.6285 86.3201 63.4595 86.4253C63.6408 86.6714 63.8816 86.8792 63.9702 87.1398C64.1766 87.7418 63.7665 88.3028 63.044 88.369C62.4076 88.4272 61.7606 88.3809 61.0872 88.3809L61.0885 84.7516ZM61.6826 87.8741C62.0994 87.8741 62.4897 87.8953 62.8734 87.8675C63.1777 87.8463 63.4026 87.6889 63.4026 87.3383C63.4026 86.9876 63.1909 86.8236 62.8734 86.809C62.4857 86.7839 62.0954 86.809 61.6826 86.809V87.8741ZM61.6535 85.2835C61.6644 85.4522 61.6644 85.6215 61.6535 85.7903C61.5913 86.1872 61.7752 86.3195 62.151 86.2758C62.3441 86.2533 62.573 86.3261 62.7305 86.2467C62.9329 86.1462 63.1777 85.9596 63.2266 85.7664C63.3047 85.4581 63.0361 85.3033 62.7437 85.2875C62.401 85.2703 62.0597 85.2835 61.6535 85.2835Z" fill="#141414"/>
<path d="M35.529 86.507C35.0169 85.7224 35.0381 85.2606 35.5806 84.8902C36.0807 84.5501 36.8918 84.6335 37.208 85.0582C37.5533 85.5213 37.372 85.9103 36.4525 86.6459L37.2569 87.4133L37.4964 86.7015H38.0574C37.9357 87.0799 37.8232 87.4239 37.7002 87.8049L38.195 88.3342L38.1434 88.4546L37.384 88.2455C36.8071 88.3302 36.3136 88.4546 35.8187 88.4612C35.609 88.4734 35.4012 88.4148 35.2287 88.2949C35.0562 88.1749 34.929 88.0005 34.8674 87.7996C34.7219 87.3458 34.9296 87.0058 35.2644 86.7134C35.3437 86.6459 35.4231 86.589 35.529 86.507ZM36.8415 87.8923C36.8415 87.8274 36.8547 87.76 36.86 87.6965C36.654 87.4892 36.4372 87.2931 36.2104 87.109C36.0913 87.019 35.8452 86.9171 35.7817 86.9767C35.6091 87.1105 35.4888 87.3006 35.4417 87.5139C35.4271 87.6382 35.6375 87.8936 35.7711 87.9108C36.1178 87.9558 36.4843 87.9042 36.8415 87.8923ZM35.9008 86.2318L36.1945 86.3125C36.3982 86.0479 36.6113 85.7832 36.7886 85.5001C36.8044 85.4736 36.5729 85.2024 36.471 85.2117C36.2315 85.2342 35.865 85.299 35.7989 85.4525C35.7102 85.6602 35.8531 85.9711 35.9008 86.2357V86.2318Z" fill="#141414"/>
<path d="M20.9644 84.6817C22.0969 84.6725 22.8895 85.4293 22.912 86.5341C22.9344 87.6388 22.1379 88.4737 21.0027 88.4803C19.8675 88.4869 19.0578 87.7103 19.0591 86.5711C19.0604 85.4319 19.8265 84.691 20.9644 84.6817ZM20.9749 87.9127C21.7767 87.9127 22.3046 87.3835 22.3046 86.5764C22.3046 85.7693 21.7503 85.2255 20.9696 85.2348C20.2102 85.244 19.6757 85.7865 19.6638 86.5579C19.6518 87.357 20.1877 87.9114 20.9749 87.9127Z" fill="#141414"/>
<path d="M25.7975 84.6817C26.946 84.6897 27.716 85.4756 27.6975 86.628C27.6803 87.7367 26.8864 88.4949 25.7539 88.4803C24.6213 88.4658 23.8513 87.6944 23.846 86.579C23.8407 85.4637 24.6372 84.6725 25.7975 84.6817ZM25.7658 87.9127C26.5689 87.9127 27.0889 87.3927 27.0889 86.5804C27.0889 85.768 26.5438 85.2255 25.7658 85.2321C25.0063 85.2321 24.4744 85.7772 24.4599 86.5552C24.44 87.3583 24.9693 87.9088 25.7618 87.9127H25.7658Z" fill="#141414"/>
<path d="M70.0261 87.1053V88.3715H69.4492V84.6973C70.1623 84.7502 70.8662 84.7528 71.5503 84.868C72.0133 84.9447 72.2502 85.3204 72.2806 85.8087C72.3177 86.4094 72.0226 86.7732 71.4193 86.9915L72.5002 88.3371C72.1033 88.4826 71.8202 88.4456 71.5926 88.0976C71.4497 87.878 71.2433 87.7007 71.1057 87.4744C70.8649 87.0815 70.546 86.9426 70.0261 87.1053ZM70.0446 86.4874C70.4154 86.5044 70.7868 86.5013 71.1573 86.4781C71.2281 86.4761 71.2978 86.46 71.3622 86.4305C71.4266 86.4011 71.4845 86.3591 71.5323 86.3069C71.5802 86.2547 71.6171 86.1934 71.6409 86.1267C71.6646 86.06 71.6748 85.9892 71.6707 85.9185C71.6788 85.8439 71.6712 85.7684 71.6484 85.6969C71.6256 85.6254 71.588 85.5595 71.5381 85.5034C71.4883 85.4473 71.4272 85.4023 71.3589 85.3712C71.2906 85.3402 71.2165 85.3238 71.1414 85.3231C70.7766 85.3014 70.411 85.2983 70.0459 85.3138L70.0446 86.4874Z" fill="#141414"/>
<path d="M28.8949 88.3878V84.7148C29.5207 84.7453 30.1307 84.7148 30.7221 84.8154C31.6324 84.9596 32.1074 85.6754 32.069 86.7074C32.0346 87.6336 31.4644 88.2951 30.5713 88.3798C30.0314 88.4274 29.4876 88.3878 28.8949 88.3878ZM29.5009 87.8585C30.1796 87.8585 30.861 87.9908 31.2937 87.3081C31.5689 86.8741 31.5305 86.0842 31.2143 85.7204C30.738 85.1673 30.1121 85.2785 29.5009 85.3235V87.8585Z" fill="#141414"/>
<path d="M53.3471 86.2823H55.2577V84.7674L55.8504 84.7383V88.3847H55.3026V86.8976H53.3828V88.3887H52.8112V84.7674L53.3511 84.7436L53.3471 86.2823Z" fill="#141414"/>
<path d="M7.60498 84.7617H10.0752V85.291H8.20037V86.2634H9.89923V86.831H8.20037V87.8631H10.103V88.3751H7.60498V84.7617Z" fill="#141414"/>
<path d="M68.3893 88.3527C67.9487 88.5155 67.7026 88.3885 67.6087 87.9823C67.5425 87.6912 67.3639 87.5853 67.0689 87.6184C66.805 87.6464 66.5389 87.6464 66.275 87.6184C65.8252 87.5655 65.546 87.6925 65.3859 88.1596C65.3317 88.3183 65.0088 88.3845 64.809 88.4943L64.7019 88.362C65.1861 87.2162 65.6611 86.0664 66.1678 84.9312C66.2155 84.824 66.4642 84.7552 66.6137 84.7645C66.6875 84.7753 66.7579 84.8027 66.8196 84.8446C66.8812 84.8865 66.9325 84.9419 66.9696 85.0066C67.4526 86.0955 67.9104 87.2056 68.3893 88.3527ZM66.5489 85.3758C66.3015 85.9818 66.0858 86.507 65.8569 87.0693H67.2462L66.5489 85.3758Z" fill="#141414"/>
<path d="M45.2392 84.7793C45.2392 85.5282 45.2392 86.2347 45.2392 86.9426C45.2392 87.6504 45.521 87.915 46.1905 87.9203C46.86 87.9256 47.1471 87.6451 47.155 86.9584C47.1629 86.2493 47.155 85.5414 47.155 84.7714L47.7173 84.7383C47.7173 85.6803 47.7769 86.5906 47.6975 87.4797C47.6353 88.1664 46.9367 88.5316 46.0515 88.4813C45.2339 88.4363 44.6914 88.005 44.6583 87.2905C44.6186 86.4689 44.6491 85.6433 44.6491 84.7767L45.2392 84.7793Z" fill="#141414"/>
<path d="M14.6465 88.3521C14.1662 88.5162 13.9492 88.3521 13.8526 87.9552C13.7905 87.6906 13.6238 87.5847 13.3459 87.6099C13.0821 87.6386 12.8159 87.6386 12.552 87.6099C12.0824 87.5503 11.786 87.6747 11.6259 88.1695C11.5783 88.3177 11.2475 88.3759 11.0477 88.4752L10.9524 88.3429C11.4314 87.2076 11.9011 86.0698 12.3933 84.9412C12.5256 84.6461 13.0548 84.6369 13.1871 84.9293C13.6912 86.0539 14.1543 87.1931 14.6465 88.3521ZM13.5034 87.0872C13.2665 86.5156 13.0548 86.0023 12.7968 85.3778C12.5322 86.0182 12.3311 86.5342 12.1101 87.0872H13.5034Z" fill="#141414"/>
<path d="M48.9782 87.7096C49.4347 87.7864 49.866 87.8882 50.3013 87.9187C50.5858 87.9398 50.9443 87.9306 51.0091 87.5376C51.074 87.1446 50.7591 87.0361 50.4799 86.9237C50.2007 86.8112 49.8872 86.7146 49.6014 86.5876C49.1065 86.3654 48.8763 85.9869 48.9517 85.5292C49.0338 85.0343 49.3804 84.775 49.8342 84.7221C50.2109 84.6963 50.5893 84.7154 50.9615 84.779C51.3267 84.8226 51.4722 85.0436 51.3584 85.3968C50.9734 85.336 50.5897 85.2222 50.21 85.2341C49.9917 85.2341 49.78 85.4537 49.5656 85.5728C49.7138 85.766 49.8303 86.0174 50.0195 86.1365C50.2947 86.3058 50.6374 86.3627 50.9456 86.4937C51.4749 86.7213 51.676 87.0626 51.6336 87.5733C51.5873 88.1184 51.2182 88.3778 50.7485 88.4161C50.2747 88.4367 49.8002 88.4029 49.3341 88.3156C48.9517 88.2666 48.8723 88.0047 48.9782 87.7096Z" fill="#141414"/>
<path d="M3.79319 87.7056C4.25759 87.7863 4.67305 87.8908 5.09379 87.9199C5.3981 87.9411 5.82017 87.9199 5.80958 87.5151C5.80958 87.31 5.49204 87.0679 5.26712 86.9263C5.0025 86.7635 4.68363 86.704 4.39652 86.5796C3.95725 86.3891 3.71909 86.0597 3.76805 85.5661C3.817 85.0726 4.16497 84.7988 4.61615 84.7352C4.99156 84.6983 5.37023 84.7116 5.7421 84.7749C6.11522 84.8239 6.29648 85.0396 6.15491 85.3796C5.73175 85.3078 5.30437 85.2636 4.87548 85.2473C4.70745 85.2473 4.41108 85.4577 4.40843 85.5754C4.42191 85.6809 4.45854 85.7821 4.51573 85.8718C4.57292 85.9615 4.64923 86.0373 4.7392 86.0941C5.03161 86.2674 5.3809 86.3441 5.70109 86.4778C6.25282 86.7067 6.49495 87.0745 6.44864 87.5706C6.40233 88.0668 6.07949 88.3909 5.46955 88.4439C5.04328 88.4614 4.61644 88.4281 4.19805 88.3446C3.82097 88.2877 3.67146 88.0483 3.79319 87.7056Z" fill="#141414"/>
<path d="M40.8901 87.7302C41.3982 87.7977 41.8665 87.9062 42.3336 87.8983C42.5374 87.8983 42.7305 87.6522 42.9396 87.5172C42.7808 87.3293 42.6551 87.0859 42.4553 86.9668C42.1616 86.7922 41.811 86.7167 41.4921 86.5818C41.0277 86.3846 40.8028 86.0327 40.8716 85.5233C40.9364 85.0351 41.2831 84.7996 41.7104 84.7387C42.0862 84.7029 42.4651 84.7153 42.8377 84.7758C43.2174 84.8221 43.3815 85.0483 43.2571 85.3884C42.8271 85.3354 42.409 85.2415 41.9922 85.256C41.8163 85.256 41.5292 85.4677 41.5067 85.6159C41.4842 85.7641 41.6893 86.0129 41.8573 86.1161C42.1537 86.2867 42.503 86.3622 42.8205 86.4971C43.3418 86.7181 43.5919 87.0938 43.5508 87.5556C43.5098 88.0173 43.2174 88.368 42.6326 88.4341C42.1901 88.4623 41.7458 88.4365 41.3095 88.3574C40.9417 88.3031 40.771 88.0743 40.8901 87.7302Z" fill="#141414"/>
<path d="M16.2977 86.3752H18.0178V86.9137H16.2977V88.377L15.7076 88.4101V84.7637H18.162V85.2929H16.2977V86.3752Z" fill="#141414"/>
<path d="M57.8601 88.3867H57.323V84.7667L57.8601 84.7402V88.3867Z" fill="#141414"/>
<path d="M27.9145 45.9028L29.0339 46.5644C28.9929 46.7324 28.9532 46.9004 28.9121 47.0698L25.394 46.4717C27.5467 43.1984 31.2871 42.9576 33.9677 44.5982C33.8235 45.9213 32.9741 45.8883 31.9301 45.7401C30.6269 45.5548 29.3038 45.5059 27.9886 45.3987C27.9648 45.5641 27.9397 45.7335 27.9145 45.9028Z" fill="#141414"/>
</svg>
