<svg width="100" height="100" viewBox="0 0 100 100" fill="none" xmlns="http://www.w3.org/2000/svg">
<mask id="mask0_298_50" style="mask-type:luminance" maskUnits="userSpaceOnUse" x="4" y="13" width="92" height="74">
<path d="M95.9677 13H4V86.5411H95.9677V13Z" fill="white"/>
</mask>
<g mask="url(#mask0_298_50)">
<path d="M47.6706 57.4197C47.6185 57.9174 47.7341 58.4183 47.9991 58.8429C48.1033 59.0131 48.2463 59.1562 48.4163 59.2605C48.5865 59.3649 48.7789 59.4274 48.9779 59.443C49.9443 59.5493 50.8054 59.2472 51.5996 58.7237C52.4639 58.1534 53.1243 57.3826 53.6994 56.5336C55.0844 54.4899 55.987 52.1582 56.339 49.7146C56.4205 49.2039 56.3894 48.6817 56.2479 48.1842C56.0304 47.4324 55.5375 46.9946 54.7691 46.8705C54.0441 46.7505 53.3475 46.8786 52.6539 47.0655C52.5001 47.1065 52.3511 47.1613 52.1973 47.2008C51.3169 47.4295 50.5501 47.0735 50.1643 46.247C49.841 45.5704 49.7497 44.806 49.9049 44.0723C50.2625 42.3752 51.0712 40.9311 52.5017 39.8953C53.3877 39.2509 54.3954 39.0302 55.4722 39.1647C56.2729 39.2637 56.7908 39.7285 57.0187 40.5066C57.2708 41.3676 57.1517 42.215 56.8657 43.0389C56.6263 43.7415 56.2672 44.3975 55.8041 44.9777C55.7646 45.0268 55.7317 45.0808 55.6608 45.1847C55.8339 45.1759 55.9564 45.1742 56.078 45.1629C57.0445 45.0824 57.9821 45.1799 58.8818 45.5432C60.5886 46.2318 61.473 47.5568 61.7734 49.3239C61.9345 50.2784 61.8499 51.2249 61.6276 52.1576C61.1983 53.961 60.5201 55.6597 59.4335 57.1764C57.8227 59.4236 55.6551 60.8316 52.9761 61.4712C51.6774 61.7871 50.3421 61.9278 49.006 61.8891C47.0012 61.8263 45.8341 60.4828 45.4459 59.0257C45.4265 58.9525 45.3975 58.8816 45.3541 58.7551L44.9683 59.1434C43.7915 60.321 42.4311 61.2126 40.8523 61.753C39.709 62.1548 38.4781 62.2392 37.2906 61.9971C36.1291 61.7619 35.3011 61.1184 34.8742 59.9907C34.8468 59.9174 34.8105 59.8465 34.7775 59.7756C34.7727 59.766 34.7574 59.7611 34.7163 59.7322C34.6133 59.8127 34.5013 59.8989 34.3885 59.985C33.4493 60.6995 32.4642 61.3374 31.3744 61.8022C30.2407 62.3001 28.9856 62.4538 27.7651 62.2444C26.106 61.9608 25.0508 60.9686 24.474 59.4253C24.0665 58.337 24.0238 57.2038 24.1157 56.0601C24.234 54.5804 24.6795 53.1869 25.2432 51.8249C25.9787 50.0609 26.8413 48.3703 27.9956 46.8391C29.5009 44.8407 31.3906 43.3353 33.7143 42.3905C34.9703 41.8862 36.3182 41.651 37.6707 41.7002C38.6695 41.7276 39.3365 42.0369 40.2982 42.8714C40.361 42.6861 40.4238 42.5202 40.4737 42.3519C40.5373 42.1392 40.6493 42.0297 40.895 42.0209C42.6533 41.9911 44.4116 41.9475 46.1699 41.9112C46.2613 41.9164 46.3523 41.9271 46.4422 41.9435C46.331 42.2657 46.2401 42.5678 46.1265 42.8585C45.0273 45.6793 43.9265 48.4983 42.824 51.3159C42.1878 52.9542 41.5643 54.5981 40.9409 56.242C40.8695 56.4268 40.82 56.6192 40.7936 56.8155C40.7347 57.2795 40.9425 57.5808 41.3969 57.7016C41.8501 57.8145 42.3277 57.7794 42.7596 57.6017C43.6307 57.2736 44.4007 56.7232 44.9932 56.0052C45.3664 55.5412 45.6707 55.0257 45.8969 54.4749C46.5582 52.9446 47.4048 51.5341 48.6846 50.4275C49.2621 49.9281 49.8929 49.5092 50.6628 49.3988C51.0266 49.3379 51.3974 49.3311 51.7631 49.3787C52.4735 49.4923 52.9439 49.9369 53.1864 50.6136C53.3854 51.1787 53.4222 51.7883 53.2927 52.3734C52.977 53.9223 52.2625 55.2578 51.0729 56.3081C50.1514 57.1216 49.0696 57.5212 47.8228 57.3995C47.7716 57.4027 47.7208 57.4095 47.6706 57.4197ZM29.5735 56.9815C29.6427 57.3415 29.6709 57.7161 29.7901 58.0592C29.9649 58.5618 30.3378 58.8776 30.896 58.8574C31.2908 58.8525 31.6838 58.8026 32.0671 58.7085C32.9757 58.4603 33.728 57.9183 34.4602 57.3456C34.7824 57.0926 35.032 56.8124 35.0956 56.387C35.1348 56.2061 35.1938 56.03 35.2713 55.8619C36.1058 53.692 36.941 51.5226 37.7771 49.3537C38.2749 48.0596 38.7716 46.7647 39.2671 45.469C39.3921 45.142 39.3663 45.0775 39.0892 44.873C38.8279 44.6891 38.5169 44.5891 38.1975 44.5862C37.3324 44.5372 36.4748 44.7704 35.7538 45.2508C34.9837 45.7622 34.3627 46.4234 33.8166 47.1605C33.1785 48.0367 32.6154 48.9652 32.1332 49.9361C31.3857 51.4076 30.6358 52.8809 30.1196 54.4539C29.8473 55.2714 29.6298 56.1019 29.5735 56.9815Z" fill="#141414"/>
<path d="M95.5188 40.9044C95.3256 41.44 95.1572 41.9378 94.9671 42.4267C93.3863 46.4927 91.8035 50.5575 90.2189 54.6214C90.0994 54.9157 89.9954 55.216 89.9072 55.5211C89.7106 56.2387 90.0393 56.6745 90.7851 56.7252C91.349 56.764 91.8572 56.5989 92.3429 56.3403C93.4496 55.7523 94.305 54.9178 94.8471 53.7764C94.8857 53.6959 94.9389 53.6153 95.0082 53.5026C95.3231 53.9971 95.6172 54.4691 95.9208 54.9266C96.0118 55.0652 95.9522 55.1788 95.9014 55.2988C95.6042 56.0069 95.2106 56.6707 94.7319 57.2714C93.5866 58.7397 92.0704 59.8761 90.3397 60.5632C89.0703 61.0707 87.7623 61.2359 86.4107 60.9805C85.2025 60.751 84.339 60.0945 83.9234 58.9041C83.9016 58.8437 83.8718 58.7856 83.8244 58.6753C83.6938 58.7719 83.5827 58.8533 83.4739 58.9362C82.4695 59.6974 81.42 60.3805 80.2432 60.85C79.0133 61.3414 77.7463 61.4541 76.4673 61.14C74.9546 60.7687 74.0138 59.7546 73.5047 58.3104C73.4388 58.1244 73.3839 57.9343 73.3219 57.7466C73.3219 57.7361 73.3042 57.7289 73.2687 57.6958C73.1125 57.7764 73.0271 57.9439 72.9087 58.0744C71.5765 59.5645 69.9921 60.672 68.0678 61.2584C67.065 61.5668 66.0036 61.6358 64.9693 61.4598C63.2778 61.1787 62.2548 60.026 62.1727 58.3136C62.1347 57.3188 62.3071 56.3271 62.6785 55.4035C63.9286 52.1591 65.1972 48.9219 66.4578 45.6815C67.1198 43.9815 67.78 42.2807 68.4384 40.579C68.4754 40.4823 68.4996 40.3816 68.5463 40.231H65.7232C65.7876 40.0651 65.8207 39.9547 65.873 39.8541C66.2306 39.1614 66.5979 38.4752 66.9466 37.776C67.0764 37.5142 67.2463 37.4232 67.5346 37.4232C68.1685 37.4232 68.8024 37.3869 69.4372 37.3636C69.5177 37.3636 69.5918 37.3466 69.695 37.3353C69.8448 36.9391 70.0042 36.5493 70.1379 36.1505C70.1631 36.0495 70.218 35.9584 70.2956 35.8888C70.373 35.8194 70.4697 35.7747 70.5729 35.7607C72.506 35.3628 74.4286 34.9552 76.3561 34.5468C76.4263 34.5417 76.4969 34.5417 76.5671 34.5468C76.2216 35.4457 75.8881 36.3108 75.5297 37.242C76.0863 37.2709 76.5824 37.2307 77.0778 37.2242C77.5732 37.2178 78.0565 37.204 78.5453 37.2C79.0343 37.196 79.5441 37.2 80.1079 37.2L78.6661 39.9652C77.9573 39.9845 77.2711 40.0047 76.5848 40.0208C76.0161 40.0336 75.4476 40.0603 74.8797 40.0449C74.5768 40.0369 74.4375 40.1521 74.3328 40.4259C73.6425 42.2423 72.9377 44.0505 72.2385 45.8661C70.9874 49.0943 69.7378 52.3234 68.4899 55.5534C68.3984 55.7723 68.333 56.0013 68.295 56.2356C68.2338 56.7107 68.4666 57.0208 68.9337 57.1344C69.4022 57.2422 69.8929 57.1988 70.3352 57.0103C71.661 56.482 72.622 55.5549 73.2269 54.2678C73.3316 54.0462 73.3526 53.7846 73.4057 53.5429C73.7182 52.1115 74.2861 50.7729 74.9007 49.4528C75.64 47.8644 76.5269 46.3622 77.6851 45.0388C79.4716 42.9977 81.6319 41.5302 84.2971 40.8987C85.0966 40.7097 85.9187 40.634 86.7393 40.674C87.6986 40.7215 88.5492 41.0292 89.2233 41.7445C89.2681 41.7807 89.3157 41.8129 89.366 41.8412C89.4159 41.6969 89.4633 41.5681 89.5053 41.4384C89.6374 41.0236 89.6534 41.0042 90.0828 40.9946C91.4708 40.9623 92.8589 40.9331 94.247 40.9067C94.6393 40.8979 95.0364 40.9044 95.5188 40.9044ZM78.675 55.9472C78.6653 56.3499 78.7056 56.7405 78.878 57.1078C79.0858 57.55 79.4192 57.8045 79.925 57.8328C80.4281 57.859 80.9308 57.7765 81.3991 57.5911C82.2231 57.2738 82.9407 56.7856 83.6141 56.2218C83.8638 56.0141 84.0732 55.7965 84.1191 55.4519C84.1511 55.2827 84.203 55.1181 84.2738 54.9613C85.0841 52.8532 85.896 50.7458 86.7095 48.6393C87.2565 47.2216 87.7985 45.8024 88.3518 44.388C88.4323 44.1802 88.3969 44.0441 88.2311 43.9047C87.9314 43.6558 87.5867 43.5616 87.2049 43.5446C86.091 43.4972 85.1364 43.8894 84.2923 44.5918C83.4337 45.321 82.7144 46.1997 82.1691 47.1854C81.5167 48.3324 80.9101 49.5067 80.3166 50.6843C79.8191 51.6471 79.4088 52.6527 79.0907 53.6887C78.8675 54.4257 78.6911 55.1739 78.675 55.9472Z" fill="#141414"/>
<path d="M14.8316 38.1971C14.5199 38.2946 14.2042 38.3849 13.8957 38.492C12.2042 39.076 10.524 39.6825 9.02991 40.6885C8.40808 41.1073 7.84103 41.6091 7.25224 42.0771C7.12981 42.1754 7.02189 42.2921 6.8769 42.4282L5.70172 41.2853C5.94336 40.9261 6.16406 40.5975 6.38798 40.2728C6.97435 39.4239 7.56719 38.5814 8.14551 37.7268C8.26686 37.5385 8.44316 37.392 8.65054 37.3072C10.6532 36.4681 12.7586 35.8992 14.9114 35.6157C16.603 35.3941 18.3065 35.276 20.0124 35.2621C21.6297 35.2484 23.1336 35.6511 24.4263 36.6612C25.6852 37.6454 26.3699 38.9712 26.622 40.5338C26.8773 42.1117 26.6445 43.6405 26.15 45.1427C25.4758 47.1877 24.411 48.9928 22.8476 50.4885C21.0998 52.1639 19.004 53.1184 16.6174 53.4583C15.1482 53.6676 13.6895 53.5694 12.2356 53.3133L11.8281 53.2449C11.7475 53.418 11.667 53.5671 11.6082 53.7282C11.0879 55.0571 10.5611 56.3861 10.0601 57.7208C9.92652 58.0654 9.84061 58.4266 9.80475 58.7944C9.74354 59.558 10.0963 59.9608 10.8519 60.0558C11.0623 60.0745 11.2737 60.0823 11.4849 60.0791C11.6243 60.0791 11.7645 60.0791 11.9433 60.0791C11.9233 60.161 11.8989 60.2417 11.87 60.3208C11.5719 60.9652 11.2691 61.616 10.9735 62.2652C10.9491 62.3249 10.9109 62.3778 10.862 62.4199C10.8131 62.4618 10.755 62.4916 10.6924 62.5068C9.26349 62.9362 7.81446 63.0706 6.34288 62.7936C5.51809 62.6398 4.82297 62.2612 4.37836 61.5162C4.10772 61.061 4.01429 60.5568 3.99818 60.034C3.96919 59.0949 4.15927 58.188 4.45568 57.3092C4.81653 56.2459 5.22006 55.1964 5.62118 54.1478C6.70265 51.32 7.78842 48.4942 8.87848 45.6702C9.4423 44.2148 10.0061 42.7609 10.5522 41.3007C10.642 41.053 10.8151 40.8442 11.0419 40.7102C12.3138 39.9048 13.58 39.0888 14.8477 38.2761L14.8316 38.1971ZM12.7076 50.9041C13.2618 50.8655 13.7257 50.8671 14.1768 50.7938C15.5742 50.5682 16.7244 49.8474 17.7055 48.8712C19.753 46.8334 20.9781 44.3518 21.5177 41.5278C21.6892 40.695 21.6669 39.8342 21.4525 39.0115C21.2254 38.169 20.6914 37.6148 19.8288 37.465C19.3406 37.3796 18.8324 37.4111 18.3321 37.3941C18.0438 37.3836 17.8981 37.5311 17.7925 37.8042C16.1655 42.0055 14.532 46.2037 12.8921 50.3991C12.8405 50.5321 12.7938 50.6666 12.7076 50.9041Z" fill="#141414"/>
<path d="M50.4751 13C54.281 13.0113 57.6002 13.447 60.8551 14.35C63.6852 15.1389 66.4127 16.2578 68.9814 17.6838C72.4962 19.623 75.6856 22.1008 78.4335 25.0272C80.6776 27.4059 82.6052 30.0644 84.1685 32.9368C84.2154 33.0164 84.2513 33.1021 84.2755 33.1913C84.3166 33.3726 84.2272 33.4998 84.0718 33.5788C84.0032 33.6219 83.9206 33.6367 83.8414 33.62C83.7622 33.6033 83.6926 33.5564 83.6472 33.4893C83.5738 33.3795 83.5073 33.2652 83.4483 33.1471C82.0256 30.5761 80.3139 28.1761 78.3465 25.9937C76.4536 23.8864 74.3241 22.0043 72.0003 20.3845C68.4401 17.912 64.4726 16.0852 60.2792 14.9879C56.9778 14.1103 53.5719 13.6883 50.1562 13.7338C45.1416 13.7884 40.1927 14.8804 35.6208 16.9411C31.9925 18.5645 28.6463 20.7561 25.7079 23.4332C22.6044 26.2452 19.994 29.5576 17.9853 33.2324C17.9414 33.3279 17.8873 33.4183 17.8242 33.5022C17.7736 33.5655 17.7011 33.6073 17.6212 33.6196C17.5412 33.6318 17.4595 33.6135 17.3923 33.5683C17.3183 33.5367 17.2584 33.4789 17.2241 33.406C17.1898 33.3331 17.1835 33.2501 17.2064 33.1728C17.2401 33.0727 17.2854 32.977 17.3417 32.8876C18.9139 30.0054 20.8488 27.3365 23.0991 24.9458C25.5319 22.3428 28.3218 20.0984 31.3856 18.2798C35.1528 16.0455 39.1987 14.5481 43.4951 13.7096C45.7947 13.257 48.1314 13.0195 50.4751 13Z" fill="#141414"/>
<path d="M50.4421 86.5405C44.9393 86.5009 39.6876 85.3556 34.6986 83.0229C31.1207 81.3556 27.8214 79.1463 24.917 76.473C21.8308 73.6419 19.2318 70.3219 17.2241 66.6464C17.1833 66.5783 17.1472 66.5075 17.1162 66.4345C17.0356 66.2186 17.0856 66.0479 17.2555 65.9512C17.4457 65.8449 17.6309 65.8924 17.7597 66.1027C17.9112 66.3499 18.0481 66.6069 18.1915 66.8598C19.6222 69.3802 21.3386 71.7273 23.307 73.8544C25.6897 76.4494 28.4362 78.6849 31.4606 80.4914C35.3883 82.8343 39.7129 84.4355 44.2192 85.2154C46.9165 85.6926 49.6581 85.8716 52.3946 85.7495C55.9947 85.5952 59.5513 84.9026 62.9462 83.6948C65.7286 82.7108 68.3831 81.3974 70.8534 79.7827C76.1297 76.3255 80.2966 71.8365 83.3541 66.3153C83.3952 66.2319 83.4414 66.1512 83.4927 66.0737C83.6232 65.8924 83.7963 65.8522 83.976 65.9529C84.1556 66.0535 84.2079 66.2243 84.1282 66.4289C84.1011 66.4892 84.0705 66.5478 84.0364 66.6044C82.1638 70.0338 79.783 73.16 76.9749 75.877C74.6578 78.1275 72.0606 80.0705 69.2473 81.6577C66.5807 83.1542 63.7403 84.3175 60.7899 85.1212C58.15 85.8502 55.4399 86.2963 52.7055 86.4518C51.95 86.5002 51.1953 86.5131 50.4421 86.5405Z" fill="#141414"/>
<path d="M73.0652 73.4702C72.714 73.7489 72.4015 73.989 72.0986 74.241C71.9753 74.3433 71.857 74.3152 71.7305 74.2732C71.1511 74.0885 70.5715 73.9065 69.9915 73.7272C69.8473 73.6829 69.7007 73.6466 69.5549 73.6095L69.5083 73.6861C69.737 73.9722 69.9665 74.2575 70.1969 74.5415C70.2203 74.5705 70.2654 74.6067 70.2935 74.6019C70.7091 74.5326 70.7309 74.924 71.0145 75.1657C70.9309 75.2055 70.8501 75.2509 70.7728 75.3018C70.4208 75.5765 70.0712 75.856 69.6944 76.1556C69.5598 75.9945 69.4398 75.8592 69.3294 75.7167C69.2916 75.6674 69.2392 75.5724 69.2585 75.5467C69.4196 75.3276 69.2376 75.2059 69.1305 75.0699C68.8212 74.6752 68.5063 74.2837 68.1905 73.8939C68.1027 73.7851 68.0294 73.641 67.8385 73.7328C67.8063 73.7488 67.7177 73.6934 67.6774 73.6523C67.5574 73.5137 67.4479 73.3655 67.3085 73.1875C67.4165 73.0933 67.5099 73.0095 67.6065 72.929C67.7395 72.8193 67.8707 72.709 68.0093 72.6068C68.2509 72.4255 68.4773 72.1549 68.7471 72.1002C69 72.0486 69.3004 72.2225 69.5784 72.3055C69.9199 72.4069 70.2589 72.5174 70.6004 72.6196C70.681 72.6446 70.7728 72.6534 70.9597 72.688C70.7244 72.3916 70.5473 72.1678 70.3669 71.9454C70.3435 71.9165 70.2992 71.8745 70.2751 71.881C69.8377 71.9922 69.8562 71.5371 69.5654 71.3623L70.8599 70.3281C71.0097 70.5053 71.1425 70.6608 71.2714 70.8202C71.2939 70.8485 71.3197 70.9056 71.3069 70.9257C71.1458 71.1762 71.352 71.3115 71.4752 71.4671C71.9914 72.1235 72.5102 72.7727 73.0652 73.4702Z" fill="#141414"/>
<path d="M61.7669 80.1666C61.6775 79.9588 61.597 79.7824 61.5252 79.6028C61.5067 79.5577 61.4914 79.4739 61.5132 79.4562C61.7404 79.2749 61.5785 79.0937 61.5132 78.9246C61.3335 78.4695 61.1281 78.0249 60.9566 77.5674C60.885 77.3748 60.7794 77.2951 60.5821 77.3378C60.4879 77.1099 60.4033 76.9037 60.3066 76.6677C60.4057 76.6137 60.4902 76.5565 60.5829 76.5179C61.1317 76.2892 61.6817 76.0633 62.2332 75.8405C62.3553 75.7891 62.4811 75.7471 62.6095 75.7148C63.3851 75.5328 63.9908 75.7728 64.3983 76.4679C64.5714 76.7643 64.7028 77.083 64.789 77.4151C64.9936 78.2118 64.677 78.8787 63.9175 79.2516C63.4085 79.5021 62.8753 79.7035 62.3517 79.9258C62.1688 80.0015 61.9869 80.0756 61.7669 80.1666ZM62.147 76.7772C62.4282 77.4482 62.7004 78.1006 62.9703 78.7458C63.4962 78.6338 63.5679 78.517 63.3932 78.0716C63.2443 77.6914 63.0874 77.3156 62.9219 76.9439C62.7431 76.5275 62.6167 76.4954 62.147 76.7772Z" fill="#141414"/>
<path d="M40.986 78.5215C40.9104 78.3765 40.8354 78.2541 40.7791 78.1188C40.5696 77.6258 40.7791 77.1465 41.2914 76.9774C41.4418 76.9287 41.5988 76.9035 41.7569 76.9025C42.4544 76.8953 43.0762 77.124 43.6417 77.5243C43.8156 77.6468 43.8769 77.7845 43.7979 77.9963C43.7299 78.208 43.673 78.4231 43.6272 78.6407L42.6735 78.3822C42.662 78.263 42.6384 78.1454 42.6035 78.0309C42.5382 77.8699 42.2716 77.7894 42.1265 77.8699C41.9816 77.9505 41.9534 78.1034 42.0799 78.2822C42.3071 78.6044 42.5632 78.9041 42.8362 79.2569C42.949 79.0153 43.098 78.9943 43.297 79.0652C43.5546 79.157 43.8246 79.215 44.1282 79.2987C44.0646 79.5549 44.009 79.782 43.955 80.0004L43.5603 80.0809L43.8825 80.614L43.0827 81.219C43.0407 81.1384 43.0134 81.0757 42.9788 81.0192C42.8894 80.8758 42.7709 80.863 42.6058 80.8896C41.8978 81.0031 41.2366 80.8332 40.634 80.4682C40.4237 80.3354 40.25 80.1517 40.129 79.9343C39.9011 79.5194 40.0928 78.9757 40.5117 78.739C40.6574 78.6552 40.8177 78.5972 40.986 78.5215ZM42.1613 79.9979C42.034 79.8271 41.926 79.6886 41.8238 79.5452C41.7344 79.4204 41.6344 79.3608 41.5016 79.4776C41.4703 79.5017 41.4452 79.5328 41.4285 79.5685C41.4117 79.6043 41.4038 79.6435 41.4054 79.6829C41.4068 79.7223 41.4177 79.7608 41.4372 79.7952C41.4565 79.8294 41.4838 79.8587 41.5169 79.8803C41.6069 79.9502 41.7125 79.9976 41.8247 80.018C41.9369 80.0384 42.0523 80.0316 42.1613 79.9979Z" fill="#141414"/>
<path d="M33.7665 73.0408C33.6248 73.2236 33.5144 73.3694 33.3984 73.5119C33.3663 73.5515 33.305 73.6134 33.2792 73.6046C32.974 73.4911 32.8983 73.7609 32.7662 73.9155C32.5519 74.1668 32.3579 74.4351 32.1508 74.6927C32.0533 74.8179 31.9487 74.9373 31.8375 75.0504C31.4452 75.4322 30.9942 75.5176 30.4884 75.3002C30.086 75.1255 29.731 74.8576 29.4525 74.5188C29.0095 73.9889 28.9845 73.4508 29.3921 72.8861C29.6789 72.4899 29.993 72.1137 30.2934 71.7279C30.3812 71.616 30.4989 71.5161 30.3739 71.3462C30.3474 71.3091 30.3941 71.1971 30.4343 71.1391C30.5318 70.999 30.6454 70.8709 30.7863 70.6953L32.241 71.8439C32.0219 72.0758 31.968 72.4238 31.5805 72.4335C31.5217 72.4335 31.4582 72.5285 31.4098 72.5889C31.1053 72.9718 30.803 73.3565 30.5029 73.7432C30.4545 73.8052 30.3804 73.8712 30.3764 73.9389C30.3648 74.0506 30.3881 74.1631 30.4433 74.261C30.5238 74.3851 30.6736 74.3892 30.7968 74.3061C30.8702 74.2499 30.9345 74.1828 30.9877 74.1072C31.2673 73.7552 31.5515 73.4032 31.8213 73.0472C31.9323 72.9251 31.9952 72.7668 31.9986 72.6019C32.0026 72.4053 32.2281 72.2136 32.3885 71.9719L33.7665 73.0408Z" fill="#141414"/>
<path d="M73.418 67.4844L75.4574 68.4412C75.637 68.5218 75.8159 68.6096 75.9963 68.6925C76.0522 68.7274 76.1134 68.7529 76.1775 68.7683C76.2879 68.7804 76.424 68.7288 76.5054 68.7771C76.6713 68.8771 76.8082 69.026 76.9942 69.1871L75.7055 70.6813L75.1417 70.198L75.244 69.9233L74.9387 69.7413C74.7881 69.9121 74.6447 70.0755 74.4933 70.2488L74.6922 70.5387L74.9678 70.3986L75.5243 70.8819C75.1482 71.3159 74.7889 71.73 74.4056 72.1705C74.2299 72.0216 74.0834 71.8983 73.9367 71.7678C73.9005 71.7356 73.8489 71.6744 73.8562 71.6446C73.9432 71.3957 73.7547 71.2483 73.6475 71.0808C73.2504 70.4573 72.8421 69.8404 72.4394 69.2201C72.3677 69.1106 72.3024 68.9979 72.2162 68.8569L73.418 67.4844ZM74.4708 69.4691L73.683 69.043L73.621 69.1154C73.7958 69.3434 73.9697 69.5706 74.1646 69.8234L74.4708 69.4691Z" fill="#141414"/>
<path d="M56.5692 77.5933L58.3485 77.1816C58.5096 77.4675 58.6651 77.7277 58.8125 77.9871C59.0888 78.4832 59.3562 78.9843 59.6397 79.4764C59.7395 79.6495 59.7806 79.8863 60.0424 79.9241C60.0738 79.9283 60.1068 80.0047 60.1229 80.0506C60.1689 80.2392 60.2035 80.4301 60.2551 80.6572L58.3421 81.1001C58.2801 80.8343 58.2277 80.6073 58.1746 80.3753L58.4282 80.2094L58.2721 79.8936L57.6164 80.0426V80.3954L57.9208 80.4445C57.9667 80.6636 58.0143 80.8899 58.0699 81.1574L56.4275 81.548C56.3695 81.3321 56.3139 81.134 56.2664 80.9358C56.2568 80.8989 56.2503 80.8392 56.2705 80.8215C56.5282 80.5935 56.438 80.2826 56.4557 80.0063C56.5016 79.2243 56.5298 78.4333 56.5692 77.5933ZM58.0361 79.4063C57.8991 79.0938 57.8104 78.832 57.597 78.5348V79.5102L58.0361 79.4063Z" fill="#141414"/>
<path d="M27.6185 70.6978L28.424 71.5677L27.476 72.4385C26.5537 72.0139 25.828 71.4364 25.5887 70.3974C25.5212 70.0961 25.5677 69.7805 25.7192 69.5114C26.0114 68.9558 26.4805 68.5136 27.0523 68.2548C27.2684 68.15 27.5072 68.1004 27.7471 68.1107C27.9872 68.121 28.2208 68.1907 28.4272 68.3137C29.0974 68.6962 29.5315 69.2802 29.8158 69.9906C29.8491 70.0557 29.8581 70.1303 29.8415 70.2015C29.8248 70.2726 29.7835 70.3354 29.7248 70.3789C29.4832 70.5858 29.256 70.8025 28.979 71.0546L28.1824 70.1912C28.2879 70.0752 28.3781 69.9842 28.4571 69.8843C28.5924 69.7136 28.5859 69.5709 28.449 69.4243C28.312 69.2778 28.1437 69.2489 27.9898 69.3833C27.5823 69.741 27.1844 70.1082 26.7953 70.486C26.6577 70.6181 26.6835 70.7719 26.8002 70.9129C26.8247 70.9484 26.856 70.9788 26.8926 71.0019C26.9289 71.0251 26.9697 71.0408 27.0123 71.0479C27.055 71.0551 27.0985 71.0536 27.1405 71.0436C27.1826 71.0335 27.2221 71.0151 27.2569 70.9894C27.3204 70.9422 27.3806 70.8907 27.4374 70.8356C27.4873 70.7945 27.5388 70.7566 27.6185 70.6978Z" fill="#141414"/>
<path d="M34.9248 76.4208C34.8081 76.6237 34.7041 76.8026 34.5897 77.0006L34.9723 77.2995L34.6042 77.9616L32.7372 76.9193C32.8645 76.6857 32.9716 76.49 33.0924 76.27C33.1692 76.2975 33.2537 76.2936 33.3278 76.2592C33.4017 76.2248 33.4593 76.1629 33.4878 76.0865C33.7295 75.6161 33.9986 75.1609 34.2547 74.6986C34.3441 74.5375 34.4963 74.37 34.2152 74.2459L34.5809 73.6016C34.7154 73.6652 34.8226 73.7087 34.9241 73.7627C35.4677 74.0632 36.0122 74.3619 36.5503 74.6713C36.7102 74.7636 36.8591 74.8739 36.9941 74.9999C37.3549 75.3398 37.421 75.699 37.226 76.1509C36.9039 76.8976 36.3617 77.1102 35.6208 76.7735C35.3944 76.6744 35.1777 76.5512 34.9248 76.4208ZM35.2873 75.7764C35.421 75.9182 35.5418 75.9826 35.6973 75.8996C35.8278 75.8295 35.9969 75.5242 35.9671 75.3954C35.9308 75.2343 35.8278 75.1538 35.6288 75.1416C35.5184 75.3478 35.3992 75.5637 35.2873 75.7707V75.7764Z" fill="#141414"/>
<path d="M48.0496 78.1426C48.3718 78.1426 48.6207 78.1426 48.8696 78.1426C49.3061 78.1491 49.7427 78.1531 50.1792 78.1708C50.3906 78.1745 50.601 78.1991 50.8075 78.2441C51.3029 78.3633 51.5454 78.6621 51.5897 79.1663C51.6613 79.9718 51.2836 80.4188 50.462 80.4688C50.2147 80.4832 49.9658 80.4688 49.6783 80.4688C49.6661 80.7048 49.6565 80.9085 49.6453 81.1317L50.0947 81.2372V81.9428H47.9804C47.9804 81.7237 47.9804 81.5401 47.9804 81.3628C47.9804 81.3121 47.9877 81.2283 48.0158 81.2162C48.35 81.0721 48.23 80.7748 48.2445 80.5332C48.2703 80.0975 48.2751 79.6609 48.2841 79.2244C48.2841 79.0971 48.3066 78.9609 48.1342 78.8957C48.0859 78.8779 48.0536 78.7669 48.0488 78.696C48.0416 78.5309 48.0496 78.3608 48.0496 78.1426ZM49.7298 79.7478C50.0995 79.7631 50.1744 79.6979 50.1792 79.3773C50.1841 79.0568 50.1028 78.9746 49.7298 78.9947V79.7478Z" fill="#141414"/>
<path d="M64.8043 74.6111L66.4095 73.6719C66.5263 73.8733 66.6262 74.0408 66.7197 74.2115C66.743 74.2543 66.7688 74.338 66.7503 74.3541C66.5376 74.5425 66.7189 74.6933 66.8002 74.8374C67.0419 75.2643 67.2834 75.6847 67.5356 76.1051C67.6161 76.2341 67.6564 76.4153 67.8835 76.342C67.9182 76.3308 67.9971 76.3984 68.0285 76.4468C68.1277 76.6014 68.2138 76.764 68.333 76.9719L66.6882 77.9385L66.3145 77.3182L66.4619 77.0766C66.1397 76.5224 65.8272 75.9731 65.5091 75.4262C65.4768 75.3706 65.4229 75.2796 65.385 75.2828C64.9822 75.3166 64.9742 74.9494 64.8211 74.7359C64.8043 74.7174 64.8115 74.6851 64.8043 74.6111Z" fill="#141414"/>
<path d="M54.9035 81.7382L53.0122 81.9177C53.0445 81.5955 52.7955 81.3096 53.1347 81.0567C53.1813 81.022 53.1628 80.8827 53.1548 80.7942C53.0984 80.19 53.0372 79.5859 52.9767 78.9705C52.5322 78.8199 52.7005 78.4567 52.6667 78.1175L54.537 77.9355C54.5603 78.1513 54.5836 78.3439 54.5989 78.5364C54.6029 78.5855 54.5941 78.6677 54.5659 78.6822C54.3243 78.8039 54.4 79.0132 54.4169 79.2017C54.4604 79.685 54.512 80.1739 54.5587 80.6604C54.5716 80.7942 54.5788 80.9182 54.7424 80.9738C54.7743 80.9927 54.8017 81.0184 54.8224 81.0491C54.8432 81.08 54.8568 81.115 54.8624 81.1517C54.8881 81.3281 54.8897 81.5134 54.9035 81.7382Z" fill="#141414"/>
<path d="M52.6151 31.6771C52.7061 30.9909 52.9751 30.6889 53.6139 30.5495C54.0892 30.4413 54.5794 30.4141 55.0638 30.469C54.6948 31.4709 53.5817 32.0203 52.6151 31.6771Z" fill="#141414"/>
<path d="M52.2591 30.1328C51.5092 31.341 50.8343 31.6446 49.8081 31.3668C49.7864 30.8585 50.032 30.4581 50.4952 30.2995C51.0517 30.1086 51.6277 30.0845 52.2591 30.1328Z" fill="#141414"/>
<path d="M54.9728 33.6078C54.3284 33.6118 53.7469 33.5216 53.2072 33.2598C52.7738 33.0496 52.6039 32.6646 52.6022 32.1966C53.6897 31.901 54.3855 32.4198 54.9728 33.6078Z" fill="#141414"/>
<path d="M48.791 29.9977C48.3624 31.2671 47.8244 31.7399 46.7226 31.7036C46.5864 31.3009 46.696 30.8322 47.0448 30.5824C47.542 30.2339 48.1212 30.0204 48.7257 29.9631C48.7442 29.9606 48.7685 29.9856 48.791 29.9977Z" fill="#141414"/>
<path d="M57.427 34.3289C56.7665 34.1864 56.2123 33.9882 55.7258 33.6354C55.3723 33.3793 55.2473 32.9339 55.3803 32.416C55.8909 32.4579 56.392 32.5496 56.7495 32.9645C57.0669 33.335 57.2659 33.7828 57.427 34.3289Z" fill="#141414"/>
<path d="M49.8147 31.8112C50.5267 31.7355 51.1534 31.8112 51.6004 32.4283C51.7848 32.6819 51.9741 32.9341 52.1876 33.2225C52.1201 33.2527 52.0488 33.274 51.9757 33.2861C51.4605 33.2737 50.9513 33.1714 50.4712 32.984C49.9831 32.7851 49.7672 32.3992 49.8147 31.8112Z" fill="#141414"/>
<path d="M58.0608 31.1712C57.4527 32.1032 56.4829 32.4076 55.4567 31.9622C55.5276 31.5523 55.7395 31.2462 56.1326 31.081C56.545 30.9071 57.6266 30.9659 58.0608 31.1712Z" fill="#141414"/>
<path d="M59.7903 33.4975C59.1073 33.6377 58.4838 33.6908 57.8637 33.5185C57.4762 33.4105 57.2321 33.0569 57.1645 32.6027C58.1931 32.1516 58.8591 32.4367 59.7903 33.4975Z" fill="#141414"/>
<path d="M43.7479 34.1442C43.6518 34.2127 43.5486 34.2707 43.4402 34.3174C43.0133 34.4487 42.5889 34.5977 42.1515 34.6806C41.6464 34.7757 41.2179 34.4954 41.0013 33.9984C41.8438 33.3105 42.6187 33.3565 43.7479 34.1442Z" fill="#141414"/>
<path d="M42.4019 31.3619C42.4656 32.484 41.8743 33.3248 40.8554 33.5625C40.7274 33.3794 40.6639 33.159 40.6748 32.936C40.6857 32.7128 40.7705 32.4997 40.9158 32.3301C41.3015 31.8941 41.7859 31.5566 42.3286 31.3458C42.348 31.3378 42.3769 31.3555 42.4019 31.3619Z" fill="#141414"/>
<path d="M46.8047 32.1432C47.4185 31.9411 48.0233 31.8138 48.596 32.264C48.8731 32.4815 49.143 32.7095 49.4667 32.9745C49.3193 33.0324 49.2437 33.0857 49.1655 33.0888C48.6927 33.1114 48.2167 33.1614 47.747 33.1268C47.209 33.0873 46.8844 32.7184 46.8047 32.1432Z" fill="#141414"/>
<path d="M43.8002 32.9362C44.455 32.614 45.084 32.482 45.7284 32.8984C45.9894 33.0667 46.2705 33.2069 46.5266 33.4799C45.9811 33.7138 45.3895 33.8208 44.7966 33.7933C44.298 33.7732 43.9709 33.4904 43.8002 32.9362Z" fill="#141414"/>
<path d="M45.5539 30.4902C45.2575 31.9134 44.7524 32.3976 43.6546 32.5039C43.5233 32.0777 43.5514 31.6661 43.8809 31.3472C44.3328 30.9114 44.9006 30.6714 45.5539 30.4902Z" fill="#141414"/>
<path d="M51.1856 19.8827C51.5312 19.8827 51.8848 19.8674 52.2376 19.8867C52.5903 19.9061 52.7909 20.0752 52.8344 20.3531C52.8844 20.6753 52.7732 20.8501 52.4091 21.0152L52.2585 21.082C52.3946 21.2786 52.5194 21.4695 52.6556 21.6523C52.7917 21.8351 52.7797 22.1356 53.13 22.105C52.9037 22.2967 52.7837 22.3168 52.6201 22.1444C52.4947 21.9943 52.3838 21.8325 52.2891 21.6612C52.2217 21.5336 52.1478 21.4097 52.0676 21.2898C51.971 21.1682 51.8574 21.0482 51.6205 21.1287C51.6205 21.3889 51.6069 21.6628 51.6287 21.9342C51.635 22.0236 51.7325 22.1058 51.7898 22.1952H51.1236C51.4764 21.8496 51.2976 21.4252 51.3073 21.0498C51.3169 20.6745 51.4739 20.2444 51.1856 19.8827ZM51.644 21.0104C51.8557 20.9894 52.0153 20.9959 52.1602 20.9548C52.2303 20.9366 52.2957 20.9035 52.3519 20.8577C52.4079 20.812 52.4536 20.7546 52.4854 20.6896C52.5173 20.6246 52.5348 20.5534 52.5366 20.481C52.5385 20.4086 52.5247 20.3367 52.4961 20.2701C52.4011 20.0212 52.008 19.8634 51.7632 19.9898C51.7322 20.0098 51.7058 20.0363 51.6862 20.0675C51.6664 20.0986 51.6536 20.1337 51.6488 20.1703C51.6359 20.4296 51.644 20.6882 51.644 21.012V21.0104Z" fill="#141414"/>
<path d="M71.5227 27.3293C72.0391 27.5895 72.2525 28.0437 72.1002 28.6092C72.0459 28.8287 71.9337 29.0296 71.7755 29.1912C71.6173 29.3527 71.4188 29.4691 71.2005 29.5282C70.7648 29.6619 70.3951 29.5226 70.0729 29.2149C69.5429 28.7026 69.6372 27.8456 70.2646 27.3856C70.6328 27.1175 71.2416 27.0128 71.5357 27.3438C70.7713 27.3325 70.2122 27.712 69.9996 28.3845C69.9045 28.6857 69.9384 28.9636 70.1728 29.1899C70.4071 29.4162 70.6972 29.4195 70.9855 29.3067C71.2676 29.1868 71.507 28.9847 71.6726 28.7268C72.035 28.2089 72.0036 27.8545 71.5566 27.4002C71.5419 27.3784 71.5305 27.3545 71.5227 27.3293Z" fill="#141414"/>
<path d="M68.9249 25.28C69.2133 25.4235 69.3277 25.6828 69.3719 25.9777C69.4581 26.568 69.0562 27.1657 68.498 27.3702C67.7787 27.6336 66.8066 26.941 66.9991 26.0396C67.198 25.1109 68.1638 24.6889 68.8999 25.2286C68.9185 25.2422 68.9266 25.272 68.9394 25.2946C68.631 25.1673 68.3264 25.0626 68.0051 25.2728C67.6429 25.4964 67.3802 25.8504 67.2713 26.2619C67.1859 26.5841 67.2198 26.8919 67.5129 27.1134C67.7877 27.3203 68.0824 27.3114 68.4271 27.0884C69.0659 26.676 69.2608 25.9664 68.9249 25.28Z" fill="#141414"/>
<path d="M40.5358 22.5997C40.7846 23.0943 40.7943 23.7113 41.3412 24.0987L40.8684 24.2775C40.8461 24.03 40.8098 23.7839 40.7597 23.5405C40.6896 23.2739 40.5648 23.021 40.485 22.756C40.3956 22.4596 40.278 22.2067 39.8406 22.2244C40.1628 21.9884 40.3827 21.9691 40.655 22.1592C41.0875 22.462 41.5474 22.723 41.9969 23.0025C42.0701 23.0476 42.1515 23.083 42.3191 23.1636C42.0621 22.5635 42.0242 21.9642 41.4943 21.5623L41.9405 21.3867C41.9839 21.6557 41.9969 21.8901 42.0637 22.1116C42.1838 22.5023 42.3384 22.8825 42.4745 23.2675C42.5212 23.398 42.5551 23.5325 42.5969 23.6646L42.5245 23.7201L40.6074 22.5345L40.5358 22.5997Z" fill="#141414"/>
<path d="M57.5689 22.6975C58.0916 22.9391 58.4436 22.923 58.8826 22.6363L58.6796 23.1018L57.0905 22.7442C57.1711 22.629 57.2838 22.5332 57.3136 22.4164C57.4457 21.892 57.5487 21.3596 57.6752 20.8345C57.7147 20.6685 57.6905 20.5534 57.5439 20.4414L59.1646 20.8127C59.1501 20.9513 59.1388 21.064 59.1266 21.18C58.9543 21.0455 58.8149 20.8981 58.6433 20.8135C58.4719 20.729 58.2729 20.7096 58.036 20.6524C57.9603 20.9867 57.8944 21.2743 57.8258 21.5771C58.1263 21.6681 58.3817 21.7793 58.6821 21.5537C58.6442 21.7463 58.6144 21.8961 58.5709 22.1135C58.38 21.7914 58.1109 21.739 57.7944 21.7108C57.7171 22.0499 57.6446 22.3681 57.5689 22.6975Z" fill="#141414"/>
<path d="M54.8433 21.0546C55.1517 21.1996 55.4071 21.1988 55.6801 21.0014C55.6672 21.177 55.6568 21.3164 55.6415 21.5363C55.3998 21.239 55.1372 21.2101 54.8158 21.2439C54.7772 21.5781 54.7353 21.8995 54.6998 22.2386C55.1622 22.4086 55.5666 22.3925 55.9943 22.0534L55.8412 22.5117L54.2198 22.3256C54.2899 22.1919 54.3914 22.0759 54.4115 21.9462C54.4921 21.438 54.5452 20.9257 54.6105 20.4159C54.6322 20.2491 54.6314 20.0937 54.4494 19.9922L56.0732 20.1807C56.0805 20.3071 56.0868 20.4223 56.0965 20.5721C56.0545 20.5493 56.0148 20.5223 55.9781 20.4916C55.7575 20.2072 55.4216 20.2137 55.1147 20.1694C55.0631 20.1613 54.9536 20.2918 54.9318 20.3732C54.8835 20.5826 54.8722 20.8073 54.8433 21.0546Z" fill="#141414"/>
<path d="M45.5649 22.7665L45.4369 22.2712C45.5907 22.396 45.6834 22.5063 45.8025 22.5579C45.9466 22.6222 46.1023 22.6562 46.26 22.6578C46.3729 22.656 46.4816 22.6147 46.5672 22.5411C46.6529 22.4676 46.71 22.3663 46.7288 22.255C46.7667 22.0239 46.6846 21.8676 46.4324 21.7589C46.1409 21.6332 45.846 21.5172 45.5464 21.4166C45.1783 21.2949 45.1187 20.7722 45.428 20.545C45.5797 20.4432 45.7517 20.3756 45.9322 20.3469C46.1094 20.3139 46.2978 20.3397 46.521 20.3397C46.5573 20.4822 46.5951 20.6272 46.6322 20.7722C46.4131 20.5459 46.186 20.4017 45.8702 20.4419C45.6503 20.4693 45.482 20.5877 45.4627 20.7569C45.4392 20.9582 45.5617 21.0831 45.7285 21.154C45.9838 21.2627 46.2496 21.3449 46.5057 21.4512C46.881 21.6083 47.0011 21.7983 46.9624 22.1439C46.9269 22.4556 46.7135 22.6795 46.3584 22.7303C46.1102 22.7617 45.8581 22.7536 45.5649 22.7665Z" fill="#141414"/>
<path d="M32.8999 29.2535C32.9547 28.7428 32.4972 28.8234 32.291 28.5874L31.7062 29.0908C31.8343 29.3872 31.7997 29.7553 32.2555 29.8326C32.1154 29.9606 31.9929 30.0743 31.8802 30.1758C31.8297 29.9175 31.766 29.6622 31.6893 29.4106C31.5234 28.9506 31.3292 28.5012 31.1513 28.0453C31.111 27.9414 31.0884 27.831 31.0345 27.6426C31.2285 27.7352 31.3445 27.7851 31.4557 27.844C31.947 28.1033 32.4343 28.3699 32.9281 28.6237C33.0808 28.6877 33.2377 28.7415 33.3977 28.7848L32.8999 29.2535ZM31.6619 29.003C31.8431 28.8419 31.9841 28.7139 32.1702 28.5431C31.8561 28.4053 31.6491 28.2071 31.3011 28.1637L31.6619 29.003Z" fill="#141414"/>
<path d="M48.9994 20.0939C49.0172 20.3356 49.0309 20.5563 49.0502 20.777C49.0824 21.158 49.1234 21.5381 49.1509 21.9199C49.1622 22.081 49.1968 22.2083 49.3852 22.2735L48.732 22.3541C48.7787 22.222 48.8536 22.1124 48.8463 22.0109C48.8045 21.394 48.7433 20.7786 48.6853 20.1721C48.2906 20.0915 48.1706 20.1431 47.8347 20.5498C47.8243 20.3742 47.8163 20.2413 47.8065 20.0778L49.8331 19.8926C49.854 20.0351 49.8717 20.1576 49.9 20.3541C49.6269 20.1149 49.3724 19.9852 48.9994 20.0939Z" fill="#141414"/>
<path d="M38.3205 24.4133C38.1594 24.8159 38.24 25.1712 38.5725 25.35L38.0797 25.6021C38.2698 24.7161 37.9532 23.8825 37.9814 22.9844C38.0663 23.0269 38.1471 23.0771 38.223 23.1342C38.6572 23.5409 39.0824 23.9566 39.5198 24.3601C39.6562 24.4708 39.7996 24.5725 39.9492 24.6646L39.4659 24.9191C39.4336 24.5711 39.1855 24.419 38.9737 24.265C38.8932 24.2095 38.7111 24.3038 38.5758 24.3286L38.7724 24.0419L38.1989 23.5079L38.1183 23.5514C38.1876 23.8382 38.045 24.1635 38.3205 24.4133Z" fill="#141414"/>
<path d="M29.4944 29.2539L29.8705 29.601C29.4678 29.5599 29.194 29.6461 29.0014 29.9836L29.7054 30.6232C29.9108 30.8093 30.1145 30.9969 30.3216 31.1798C30.4561 31.2989 30.585 31.4632 30.8049 31.2973L30.3482 31.816C30.2813 31.6832 30.2475 31.5326 30.1541 31.4456C29.6845 31.0074 29.1996 30.5861 28.7042 30.1415L29.4944 29.2539Z" fill="#141414"/>
<path d="M61.6962 21.6517C61.5852 21.6517 61.49 21.663 61.4466 21.7919C61.2573 22.3557 61.0583 22.9131 60.8755 23.4777C60.8489 23.5583 60.8884 23.6638 60.9005 23.7999L60.3069 23.5977C60.4051 23.5172 60.5485 23.4527 60.584 23.3561C60.7877 22.8003 60.9674 22.2341 61.1526 21.6711C61.1588 21.6286 61.1588 21.5855 61.1526 21.543C60.8562 21.3618 60.5815 21.3908 60.2529 21.6598C60.3117 21.4641 60.3495 21.3376 60.4035 21.1523C60.8466 21.3537 61.3145 21.3763 61.6859 21.6678L61.6962 21.6517Z" fill="#141414"/>
<path d="M65.3536 24.421C65.2795 24.4701 65.1789 24.5016 65.1378 24.5725C64.9976 24.8093 64.8784 25.0558 64.7448 25.3151L64.9493 25.5422L64.9252 25.5777L64.2131 25.2056C64.4346 25.2104 64.5224 25.0799 64.6038 24.9236C64.835 24.4798 65.075 24.0376 65.3093 23.5962C65.3899 23.4488 65.5002 23.2974 65.2071 23.1613L65.3246 23.1113L65.9762 23.56L65.9843 23.5511C65.7894 23.4915 65.654 23.5511 65.5816 23.746C65.4962 23.9716 65.2755 24.1488 65.3496 24.429L65.3536 24.421Z" fill="#141414"/>
<path d="M74.1717 30.0216L73.8004 29.7606L72.307 31.0897L72.5487 31.4866L71.8117 30.8286L71.8472 30.748C71.9808 30.8286 72.096 30.8858 72.2314 30.7593C72.643 30.3735 73.0714 30.0062 73.488 29.6245C73.5576 29.5418 73.6178 29.4515 73.6675 29.3555C73.8391 29.5713 74.1218 29.7034 74.1717 30.0216Z" fill="#141414"/>
<path d="M72.6567 31.595C72.8267 31.6804 73.0143 31.7246 73.2044 31.7241C73.3946 31.7237 73.582 31.6785 73.7515 31.5923C73.9209 31.506 74.0677 31.3812 74.1802 31.2277C74.2925 31.0743 74.3671 30.8966 74.3982 30.709C74.4416 30.4545 74.3498 30.2435 74.2025 30.0469C74.3648 30.1581 74.4905 30.3149 74.5637 30.4976C74.637 30.6802 74.6545 30.8805 74.614 31.0731C74.4303 31.8568 73.4574 32.2764 72.8316 31.835C72.7542 31.7835 72.7139 31.6771 72.6567 31.595Z" fill="#141414"/>
<path d="M29.2198 33.1729L28.8566 33.6658C28.7809 33.5566 28.6946 33.4551 28.5988 33.363C28.196 33.0456 27.7788 32.7379 27.364 32.4318C27.2384 32.3384 27.1071 32.1991 26.9403 32.4448L26.9 32.3561L27.3326 31.7754C27.3084 31.9768 27.4011 32.0895 27.5533 32.1983C27.952 32.4817 28.3418 32.7773 28.7277 33.0787C28.8807 33.1978 29.0208 33.2832 29.2198 33.1729Z" fill="#141414"/>
<path d="M35.2609 24.5646L35.7442 24.2617C36.1122 24.8626 36.4578 25.4385 36.8186 26.0031C36.8694 26.0837 37.0007 26.1078 37.1174 26.1698C36.916 26.2923 36.7152 26.4152 36.5149 26.5387C36.5915 26.3833 36.6124 26.252 36.5085 26.0917C36.2273 25.66 35.9688 25.2138 35.6966 24.7756C35.5717 24.5686 35.5669 24.5718 35.2609 24.5646Z" fill="#141414"/>
<path d="M34.8742 27.5789L34.3741 28.0767C34.3319 27.948 34.2779 27.8234 34.213 27.7046C33.8996 27.2648 33.5686 26.8348 33.2577 26.3949C33.161 26.2604 33.0563 26.196 32.8734 26.2338L33.3567 25.8633C33.411 26.013 33.4786 26.1576 33.5589 26.2951C33.8392 26.6978 34.1477 27.0731 34.4215 27.4767C34.5577 27.6772 34.697 27.6853 34.8831 27.5837L34.8742 27.5789Z" fill="#141414"/>
<path d="M37.9349 34.8933C38.3377 34.8288 38.6775 34.8079 38.9973 34.7144C39.3241 34.6126 39.6396 34.4777 39.9389 34.3117C40.2313 34.1547 40.5027 33.9508 40.8168 33.7422C40.6735 34.3496 38.5269 35.2984 37.9349 34.8933Z" fill="#141414"/>
<path d="M34.878 27.5883C34.9875 27.4772 35.0881 27.3579 35.1794 27.2315C35.264 27.0771 35.3387 26.9176 35.4032 26.7539L35.6248 27.0882C35.367 27.2774 35.1874 27.5279 34.8708 27.5803L34.878 27.5883Z" fill="#141414"/>
<path d="M65.9763 23.5604L66.7938 23.8907L66.6392 24.2797C66.5756 23.877 66.2035 23.7828 65.9852 23.5508L65.9763 23.5604Z" fill="#141414"/>
<path d="M61.6855 21.662L62.3654 21.7836L62.2252 22.221C62.131 21.9302 61.8909 21.811 61.6952 21.6523L61.6855 21.662Z" fill="#141414"/>
<path d="M28.5788 30.2695C28.52 30.5643 28.4732 30.7987 28.4177 31.0628L28.1181 30.7962L28.5788 30.2695Z" fill="#141414"/>
<path d="M65.3459 24.4295C65.4458 24.4553 65.544 24.4868 65.6447 24.5061C65.7776 24.531 65.9129 24.5455 66.0829 24.5697L65.8943 24.9652C65.8239 24.8585 65.7457 24.7571 65.6608 24.6615C65.5637 24.5745 65.4612 24.4938 65.3539 24.4199L65.3459 24.4295Z" fill="#141414"/>
</g>
</svg>
