<svg width="100" height="100" viewBox="0 0 100 100" fill="none" xmlns="http://www.w3.org/2000/svg">
<path d="M47.4612 56.4823C48.4165 56.1404 49.1715 56.2192 49.7702 56.8719C50.6969 57.879 51.4867 59.211 52.453 60.299C52.6291 60.0627 52.9246 59.4871 53.1381 59.228C53.7632 58.4675 54.3818 57.7008 55.0378 56.9631C55.6431 56.2813 56.4157 56.1093 57.4591 56.472C57.6418 59.2695 57.5273 62.1043 57.4899 65.0655C56.933 65.1111 56.4531 65.1484 55.8346 65.1981V57.8044C54.8132 58.6644 54.2761 59.5492 53.7456 60.432C53.4397 60.9397 53.0506 62.1567 52.7314 62.654C52.453 62.654 52.5042 62.654 52.1283 62.654C51.3028 60.8346 50.3954 59.3254 48.6674 58.0738V65.1028C48.2602 65.1194 47.9608 65.1339 47.4898 65.1525C47.3269 62.2162 47.3225 59.3855 47.4634 56.4823H47.4612Z" fill="#141414"/>
<path d="M32.2793 53.9988H22.803C25.3168 51.0522 26.7014 47.8568 27.7096 44.4355C28.7838 47.8319 30.0913 51.0625 32.506 53.8144C32.4312 53.8766 32.3541 53.9388 32.2793 53.9988Z" fill="#141414"/>
<path d="M13.7891 44.4434C14.8523 47.8314 16.1532 51.0434 18.5525 53.787C17.6082 54.1724 10.2253 54.2077 9.00145 53.8326C11.414 51.0558 12.7391 47.8335 13.7891 44.4434Z" fill="#141414"/>
<path d="M92.3462 44.1214C92.8063 44.0944 93.1981 44.0489 93.5877 44.053C94.4286 44.0634 95.2782 44.1939 96.1059 44.1089C97.7744 43.939 99.2911 45.7294 98.4304 47.4784C98.3401 47.6628 98.2477 47.8493 98.1288 48.0876C98.2895 48.2534 98.4568 48.4254 98.6219 48.5974C100.004 50.0355 99.3703 52.2735 97.343 52.6237C95.7559 52.8972 94.0962 52.7998 92.3484 52.8744V44.1214H92.3462ZM94.0896 51.8259C94.9282 51.8259 95.5864 51.8673 96.2358 51.8155C97.0392 51.7513 97.6357 51.1193 97.693 50.3774C97.7524 49.6107 97.2637 48.9538 96.3987 48.8523C95.6216 48.7611 94.8226 48.8336 93.9267 48.8336C93.9817 49.8324 94.0323 50.7732 94.0918 51.828L94.0896 51.8259ZM94.0808 45.0539C94.0257 46.0112 93.9773 46.8464 93.9245 47.7561C94.7059 47.7561 95.3927 47.8244 96.0553 47.7374C96.7729 47.6442 97.1625 47.0204 97.1141 46.2786C97.0678 45.5719 96.665 45.1368 95.8968 45.0642C95.3597 45.0145 94.8138 45.0539 94.0808 45.0539Z" fill="#141414"/>
<path d="M85.7976 52.9079C82.9999 52.9079 80.8427 50.9497 80.8559 48.4257C80.8691 45.908 83.0483 43.9621 85.8394 43.9766C88.5668 43.9911 90.7129 45.937 90.7261 48.4133C90.7416 50.9352 88.5756 52.9079 85.7954 52.9079H85.7976ZM82.6631 48.2931C82.6367 50.1912 84.0124 51.8179 85.6479 51.9174C87.1932 52.0127 88.6328 50.6575 88.8947 48.8609C89.1479 47.1326 87.8249 45.2366 86.2048 45.0107C84.5363 44.7786 82.969 46.0986 82.6873 47.9802C82.6675 48.1149 82.6653 48.2537 82.6631 48.2931Z" fill="#141414"/>
<path d="M47.9872 43.9869C50.7322 44.0242 52.8431 45.9638 52.8387 48.4442C52.8321 51.02 50.6287 52.9617 47.7737 52.9119C45.0442 52.8643 42.9729 50.9039 42.9993 48.3945C43.0279 45.8394 45.1675 43.9496 47.9872 43.9869ZM50.9919 48.1479C50.9919 47.3004 50.5076 46.2808 49.6558 45.6053C48.6344 44.793 47.263 44.7681 46.2373 45.5431C44.3618 46.9605 44.3002 49.7704 46.1096 51.25C47.1926 52.1348 48.6256 52.1514 49.6954 51.2542C50.5891 50.5061 51.0139 49.5487 50.9897 48.1479H50.9919Z" fill="#141414"/>
<path d="M72.7642 44.193C74.5208 43.905 76.1166 43.8635 77.6817 44.3215C78.8572 44.6655 79.5087 45.5897 79.5814 46.7191C79.6628 47.9707 79.0883 48.8949 77.8996 49.3487C77.2239 49.6077 76.4138 49.587 75.661 49.6347C75.3176 49.6575 74.9632 49.5435 74.4789 49.4731V52.8031H72.8016C72.762 49.9642 72.773 47.1377 72.7642 44.1951V44.193ZM74.5494 48.1945C75.978 48.669 77.0324 48.5385 77.5893 47.8671C78.0537 47.3097 78.0999 46.4745 77.6971 45.9503C77.1446 45.2291 75.9119 44.9784 74.5494 45.339V48.1945Z" fill="#141414"/>
<path d="M85.3683 64.9958V56.3691H86.951V59.579C87.5233 59.4775 87.9349 59.3863 88.351 59.3345C89.8126 59.1459 91.2478 59.8401 91.8311 61.0026C92.3946 62.1258 92.1283 63.4831 91.1377 64.3078C90.845 64.5523 90.4839 64.772 90.1119 64.8818C88.5755 65.3336 87.017 65.2507 85.3705 64.9979L85.3683 64.9958ZM87.1007 60.8389V64.1648C88.4082 64.2332 89.6475 64.3783 90.3629 63.1349C90.7591 62.4449 90.605 61.5373 90.0723 61.0296C89.3855 60.3768 88.2101 60.2898 87.1007 60.8389Z" fill="#141414"/>
<path d="M62.8192 45.783C62.5066 46.0213 62.183 46.2679 61.7692 46.5829C60.9459 45.6752 60.0853 44.9189 58.7733 45.0577C57.9743 45.1427 57.3227 45.5115 56.7988 46.0772C55.5375 47.4366 55.6124 49.7057 56.9595 50.9739C58.3243 52.2587 59.6648 52.095 61.8837 50.3129C62.194 50.5304 62.5264 50.7625 62.85 50.9884C61.8352 52.5654 59.7331 53.2741 57.7035 52.785C55.6872 52.3001 54.1926 50.6258 54.0715 48.7172C53.9483 46.7673 55.2822 44.8981 57.2589 44.2309C59.0243 43.6341 61.6041 44.0174 62.8192 45.783Z" fill="#141414"/>
<path d="M65.8368 56.4336C65.8544 56.7154 65.872 56.9703 65.8853 57.1775C65.7884 57.25 65.7598 57.2894 65.729 57.2894C64.351 57.3454 62.973 57.3972 61.4476 57.4573C61.3904 58.2924 61.3375 59.0881 61.2737 60.0227H64.7252C64.7538 60.404 64.7714 60.6609 64.8001 61.0484H61.441V64.0034H65.7642C65.8082 64.3743 65.839 64.623 65.8831 64.9774H59.9222C59.4709 63.8521 59.3961 58.7648 59.8165 56.4336H65.8346H65.8368Z" fill="#141414"/>
<path d="M32.7679 64.9446C34.6961 62.7335 35.7461 60.166 36.6068 57.4473C37.5467 60.1039 38.5219 62.719 40.4611 64.9135C39.3583 65.3134 34.06 65.3341 32.7679 64.9446Z" fill="#141414"/>
<path d="M19.2414 65.1192H11.5988C12.1821 64.2467 12.7412 63.509 13.1881 62.7175C13.6657 61.8741 14.0796 60.9913 14.4494 60.1002C14.8038 59.2465 15.0679 58.3596 15.4377 57.3027C16.01 58.7761 16.4305 60.1127 17.0402 61.3684C17.6411 62.6035 18.4336 63.7577 19.2414 65.1171V65.1192Z" fill="#141414"/>
<path d="M4.79711 57.4688C5.77445 60.1419 6.81122 62.7239 8.65584 65.0469C6.14645 65.2603 3.69429 65.2437 1 65.1629C1.61854 64.2366 2.17545 63.4989 2.6223 62.7073C3.09996 61.8598 3.51599 60.977 3.8858 60.0818C4.238 59.2281 4.49774 58.3412 4.79711 57.4688Z" fill="#141414"/>
<path d="M25.9595 57.4785C26.9347 60.1413 27.9582 62.7171 29.8821 64.9136C28.9554 65.2307 23.6549 65.2846 22.2549 65.0048C22.7898 64.2091 23.3511 63.4755 23.7979 62.6839C24.2756 61.8385 24.6784 60.9516 25.046 60.0584C25.396 59.215 25.658 58.3385 25.9595 57.4785Z" fill="#141414"/>
<path d="M72.9361 56.3864C73.2949 56.3367 73.4732 56.289 73.6537 56.2911C73.8694 56.2911 74.0851 56.3305 74.4087 56.3657V65.1208H72.9295C72.8921 63.9293 72.8569 62.7585 72.8172 61.4716C72.344 61.6519 72.0182 61.7783 71.6924 61.9006C69.9821 62.545 67.4154 61.4281 67.5519 59.244C67.6113 58.3011 67.7808 57.3666 67.9063 56.3678H69.6673C69.566 56.7863 69.4802 57.1055 69.4097 57.4287C69.3283 57.7976 69.227 58.1644 69.1896 58.5374C69.106 59.3973 69.2116 60.1931 70.167 60.6407C71.0166 61.0365 71.8047 60.8831 72.9339 59.9734V56.3885L72.9361 56.3864Z" fill="#141414"/>
<path d="M24.7621 41.6486H16.8069C18.8078 39.28 19.8996 36.7312 20.7339 34C21.6782 36.6732 22.6335 39.307 24.7621 41.6486Z" fill="#141414"/>
<path d="M66.6339 45.168H63.8626V44.1484H71.076C71.054 44.5442 71.0386 44.8219 71.021 45.1618H68.3443V52.8165H66.6361V45.17L66.6339 45.168Z" fill="#141414"/>
<path d="M79.0709 57.4225H76.3832V56.4258H83.3941C83.4623 56.6185 83.5327 56.7408 83.5415 56.8692C83.5503 56.9977 83.4997 57.1324 83.4557 57.3769H80.8693C80.834 60.0024 80.801 62.5181 80.7658 65.1188H79.1633C79.0224 62.5948 79.1809 60.0729 79.0731 57.4225H79.0709Z" fill="#141414"/>
<path d="M94.6554 65.1182H93.0904V56.3672H94.6554V65.1182Z" fill="#141414"/>
</svg>
