<svg width="100" height="100" viewBox="0 0 100 100" fill="none" xmlns="http://www.w3.org/2000/svg">
<path d="M5 57.2115C5.11032 57.1773 5.22064 57.1133 5.33096 57.1133C6.47973 57.119 7.62992 57.0983 8.77584 57.1588C9.91891 57.2193 10.9211 57.6364 11.625 58.5966C12.6257 59.9603 12.1261 62.008 10.615 62.7703C10.5239 62.8158 10.4399 62.8756 10.3025 62.9589C10.5566 63.0635 10.7616 63.1425 10.9609 63.2322C12.23 63.803 12.8456 64.8109 12.8648 66.1781C12.8848 67.5675 12.2321 68.5753 11.0093 69.2102C10.3025 69.5775 9.53314 69.7155 8.74381 69.7255C7.60714 69.7397 6.47048 69.739 5.33381 69.7369C5.22278 69.7369 5.11103 69.6842 5 69.6558C5 65.5077 5 61.3596 5 57.2115ZM7.10963 65.907H7.10821C7.10821 66.4757 7.11888 67.0443 7.10322 67.6123C7.09611 67.8792 7.19575 67.9682 7.45483 67.9575C7.86907 67.9411 8.29256 68.0009 8.69612 67.9326C9.13029 67.8593 9.59008 67.7483 9.96019 67.5248C10.7018 67.0778 10.9111 66.3461 10.7638 65.5198C10.6079 64.6443 10.0228 64.1397 9.1915 63.9895C8.59292 63.8813 7.96658 63.9226 7.35305 63.8991C7.14024 63.8913 7.10607 64.0244 7.10749 64.2009C7.11248 64.7696 7.10892 65.3376 7.10892 65.9063L7.10963 65.907ZM7.10963 60.4962C7.10963 60.9461 7.1139 61.3959 7.10749 61.8457C7.10465 62.0372 7.17582 62.1382 7.3744 62.1304C7.847 62.1119 8.3253 62.1333 8.79007 62.0664C9.58439 61.9518 10.0776 61.3482 10.104 60.5411C10.1303 59.7482 9.68546 59.1304 8.8883 58.9802C8.40573 58.8891 7.90039 58.9233 7.40572 58.8955C7.16799 58.882 7.10038 58.9966 7.10607 59.2179C7.11746 59.6436 7.10963 60.0706 7.10963 60.4962Z" fill="#141414"/>
<path d="M57.4611 25.168C54.9971 25.168 52.5323 25.168 50.0682 25.168C49.6461 25.168 49.5394 25.0804 49.4618 24.6534C49.3778 24.1972 49.0539 23.8954 48.6525 23.9004C48.2625 23.9053 47.8888 24.2228 47.8653 24.6712C47.8219 25.4982 47.8369 26.3281 47.824 27.1566C47.8212 27.3452 47.8212 27.5374 47.7863 27.7225C47.718 28.0897 47.439 28.3139 47.061 28.336C46.708 28.3566 46.3778 28.1381 46.2767 27.7922C46.2311 27.6356 46.2112 27.4669 46.2091 27.3032C46.2012 26.7111 46.1913 26.1182 46.2119 25.5267C46.2226 25.2214 46.1073 25.1488 45.8212 25.1502C43.7592 25.1602 41.698 25.1616 39.6361 25.153C38.4396 25.1481 37.2439 25.1217 36.0474 25.1025C35.9527 25.1011 35.8581 25.0883 35.7641 25.0762C34.8118 24.9545 34.3684 24.3409 34.7207 23.452C35.1734 22.3124 35.6552 21.1687 36.2709 20.1124C37.8424 17.417 40.004 15.2967 42.782 13.839C44.2916 13.0462 45.8966 12.5259 47.5771 12.2412C49.3785 11.9358 51.2041 11.9301 52.9949 12.1693C56.8113 12.6789 60.0619 14.3693 62.6733 17.2291C64.0925 18.7836 65.2342 20.5188 65.9495 22.5053C66.1182 22.9729 66.1772 23.4968 66.1958 23.9986C66.2185 24.6157 65.8221 25.0413 65.2043 25.0812C64.3545 25.1352 63.5011 25.1438 62.6484 25.1481C60.9195 25.1573 59.19 25.1509 57.4611 25.1509C57.4611 25.1573 57.4611 25.163 57.4611 25.1694V25.168ZM36.5136 24.1061C36.7456 24.1196 36.9214 23.9424 37.0367 23.6868C37.1727 23.3851 37.2937 23.0762 37.4339 22.7758C38.7741 19.9039 40.6752 17.5309 43.4952 15.9771C43.8681 15.7715 43.9856 15.4547 43.8247 15.1252C43.6738 14.817 43.3507 14.7003 42.972 14.8917C42.4774 15.1423 41.9877 15.4149 41.5357 15.7344C39.4909 17.1772 37.9634 19.0726 36.8019 21.2697C36.4652 21.906 36.1798 22.5722 35.9086 23.2406C35.7257 23.6904 36.0011 24.0989 36.515 24.1068L36.5136 24.1061ZM46.9536 13.965C46.9379 14.3366 47.2219 14.6476 47.597 14.6718C47.9692 14.6953 48.2959 14.3892 48.3194 13.9942C48.3422 13.6127 48.0326 13.2753 47.6525 13.2675C47.2717 13.259 46.9707 13.5593 46.9536 13.965ZM46.7237 16.8014C47.1301 16.8014 47.4155 16.5131 47.4091 16.1088C47.4027 15.7202 47.1151 15.4248 46.745 15.427C46.365 15.4298 46.0482 15.7444 46.039 16.128C46.0304 16.4647 46.3728 16.8014 46.7237 16.8014ZM59.4384 17.7551C59.8242 17.7523 60.1516 17.4369 60.1509 17.0683C60.1509 16.6917 59.8263 16.3864 59.4355 16.3942C59.037 16.4021 58.7836 16.6683 58.7829 17.0789C58.7829 17.4889 59.0441 17.7587 59.4384 17.7558V17.7551ZM45.266 15.0341C45.6746 15.0334 45.9436 14.7793 45.9507 14.3864C45.9578 13.9935 45.6568 13.6647 45.2838 13.6576C44.9144 13.6504 44.6133 13.9686 44.6069 14.3729C44.6005 14.7778 44.8568 15.0355 45.266 15.0348V15.0341Z" fill="#141414"/>
<path d="M50.3093 34.7109C55.1193 34.7109 59.9301 34.7109 64.7401 34.7116C64.8582 34.7116 64.9771 34.7188 65.0945 34.7302C65.8974 34.8113 66.2931 35.212 66.1479 36.0056C65.9913 36.8604 65.7508 37.7145 65.4276 38.5209C64.6376 40.4911 63.4639 42.2085 61.6909 43.4228C60.8767 43.9801 59.9692 44.4078 59.0824 44.8513C58.5642 45.1103 58.545 45.0719 58.545 45.6513C58.545 46.2669 58.5493 46.8833 58.5422 47.499C58.54 47.6755 58.5279 47.8563 58.4838 48.0257C58.3806 48.4228 58.0617 48.6598 57.6817 48.6506C57.2788 48.6399 56.9969 48.4164 56.9023 48.0057C56.8653 47.8463 56.8596 47.6776 56.8589 47.5125C56.8546 46.731 56.8688 45.9488 56.8532 45.1673C56.8361 44.311 56.0937 43.7758 55.3927 44.1331C55.1912 44.2356 55.056 44.4997 54.9329 44.7139C54.7905 44.9602 54.7941 45.3224 54.4197 45.3701C54.0482 45.4164 53.93 45.1018 53.7656 44.8612C53.3692 44.2804 52.7798 44.0391 52.1165 43.926C50.9108 43.7203 49.7648 44.0078 48.6246 44.3459C47.3719 44.7174 46.0965 45 44.7897 45.0285C41.9662 45.089 39.6316 44.0135 37.769 41.8939C36.4231 40.3622 35.4238 38.6298 34.7505 36.711C34.6316 36.3715 34.5839 35.9956 34.5675 35.6341C34.5455 35.1487 34.8017 34.8568 35.2793 34.7615C35.475 34.7223 35.6793 34.7159 35.88 34.7159C40.6907 34.7138 45.5007 34.7138 50.3115 34.7138V34.7109H50.3093Z" fill="#141414"/>
<path d="M59.1991 83.6844C58.9678 83.6702 58.8198 83.6538 58.671 83.6531C57.5102 83.6495 56.3493 83.6517 55.1877 83.6474C54.7286 83.646 54.7172 83.6303 54.7158 83.162C54.7144 82.7478 54.7251 82.3328 54.7101 81.9186C54.7023 81.705 54.7699 81.6218 54.9891 81.6218C57.0269 81.6239 59.0646 81.6196 61.1024 81.6175C61.2675 81.6175 61.4034 81.6317 61.4113 81.8574C61.459 83.2979 61.338 84.7008 60.5401 85.9599C59.6283 87.399 58.3514 88.293 56.6774 88.683C53.7187 89.372 50.5891 87.6944 49.2496 85.177C48.0844 82.9869 48.3464 80.0573 49.9364 78.1221C51.8012 75.8537 54.2069 75.1156 57.0269 75.7441C58.424 76.0552 59.5927 76.8224 60.5344 77.9142C60.6447 78.0424 60.7401 78.1662 60.5579 78.2986C60.0803 78.6445 59.5977 78.9826 59.1557 79.2972C58.7173 78.9228 58.3522 78.5199 57.9066 78.2473C56.3948 77.3242 54.7834 77.1975 53.1941 77.9776C51.5343 78.7926 50.7208 80.1897 50.6411 82.0552C50.5378 84.4737 52.3186 86.4168 54.4083 86.7421C56.2774 87.0332 57.7685 86.557 58.7137 84.8745C58.9123 84.5214 59.0248 84.1207 59.1991 83.6851V83.6844Z" fill="#141414"/>
<path d="M22.9689 81.7107C23.228 81.8082 23.4387 81.8744 23.6387 81.964C24.9327 82.5455 25.564 83.5754 25.5882 84.9669C25.6117 86.3527 24.9526 87.3591 23.7497 88.021C22.9483 88.4623 22.0714 88.5791 21.1753 88.5961C20.1326 88.6154 19.0899 88.6161 18.0479 88.6403C17.7112 88.6481 17.5966 88.5314 17.5974 88.1869C17.6073 84.1698 17.6073 80.1526 17.5974 76.1355C17.5966 75.8238 17.6821 75.727 17.9966 75.7327C19.0856 75.754 20.1782 75.7042 21.265 75.7633C22.4344 75.8266 23.4899 76.2053 24.2558 77.1711C25.3697 78.5768 24.8451 80.7968 23.2159 81.5541C23.1462 81.5861 23.085 81.6359 22.9696 81.7092L22.9689 81.7107ZM19.7276 84.7071H19.7312C19.7312 85.2993 19.7234 85.8915 19.739 86.4829C19.7419 86.5819 19.8436 86.7634 19.8999 86.7634C20.6764 86.762 21.4607 86.8794 22.2166 86.5691C23.0821 86.2139 23.5903 85.4025 23.4814 84.4893C23.3682 83.5455 22.6942 82.8466 21.7462 82.7462C21.1824 82.6865 20.6123 82.6979 20.0458 82.6644C19.7874 82.6487 19.7212 82.7669 19.7248 83.0011C19.7347 83.569 19.7283 84.1377 19.7283 84.7064L19.7276 84.7071ZM20.6202 80.8516C20.8451 80.8402 21.07 80.8366 21.2935 80.8167C22.1127 80.7434 22.6615 80.1911 22.764 79.3448C22.8572 78.5768 22.4572 77.8964 21.6714 77.6971C21.1547 77.5661 20.596 77.6046 20.0565 77.5604C19.8137 77.5405 19.7184 77.6337 19.7226 77.8843C19.734 78.5704 19.7262 79.2572 19.7262 79.9441C19.7262 80.5462 20.024 80.8487 20.6194 80.8516H20.6202Z" fill="#141414"/>
<path d="M92.395 64.2654C93.5971 65.8982 94.7786 67.5018 96 69.1609C95.4484 69.4619 94.9501 69.7481 94.4334 69.9972C94.3686 70.0285 94.1722 69.8876 94.0996 69.7829C93.5437 68.9872 93.0042 68.1801 92.459 67.3765C91.6284 66.1516 90.8063 64.921 89.9608 63.7067C89.7572 63.4149 89.8013 63.143 89.9188 62.8725C89.9551 62.7893 90.148 62.738 90.2704 62.7352C90.8626 62.7202 91.4234 62.612 91.9209 62.2718C92.5679 61.8284 92.7942 61.1971 92.6861 60.4462C92.58 59.7131 92.1224 59.2156 91.4312 59.054C90.8177 58.9109 90.1672 58.9245 89.5316 58.8939C89.4661 58.891 89.3358 59.0533 89.3323 59.143C89.3102 59.7586 89.3088 60.3743 89.3095 60.9907C89.3124 63.8227 89.3138 66.6548 89.3309 69.4868C89.333 69.8235 89.2213 69.921 88.9003 69.9039C88.4632 69.8797 88.0234 69.8883 87.5849 69.8982C87.291 69.9046 87.1778 69.8121 87.1785 69.4876C87.1906 65.5537 87.1864 61.6192 87.1857 57.6853C87.1857 56.9202 87.1842 56.9102 87.9408 56.9195C89.0533 56.9323 90.175 56.8832 91.2768 57.0042C92.6227 57.1515 93.7131 57.8113 94.4014 59.0312C95.3701 60.7494 94.6597 63.1096 92.9088 63.9921C92.753 64.0704 92.6014 64.1573 92.3957 64.2676L92.395 64.2654Z" fill="#141414"/>
<path d="M77.5421 83.0007C77.9179 83.5146 78.2624 83.9907 78.6133 84.4619C79.3842 85.4975 80.1543 86.5331 80.9329 87.563C81.0952 87.7773 81.1215 87.9146 80.8375 88.0492C80.5066 88.205 80.1891 88.3936 79.8788 88.5887C79.5934 88.768 79.4133 88.7346 79.214 88.4371C77.8831 86.4499 76.53 84.4776 75.1998 82.4904C75.0873 82.3231 75.0581 82.0818 75.0446 81.8712C75.0297 81.6377 75.1649 81.5295 75.4211 81.5146C76.0012 81.4811 76.5727 81.3964 77.0767 81.059C77.7628 80.6 77.9706 79.9402 77.8496 79.1722C77.7322 78.4234 77.2275 77.9579 76.5222 77.8049C75.9514 77.6818 75.3485 77.7053 74.7592 77.6697C74.5314 77.6562 74.5307 77.8227 74.53 77.9843C74.5272 79.1096 74.52 80.2348 74.5208 81.3601C74.5222 83.6463 74.525 85.9324 74.5329 88.2185C74.5336 88.4968 74.4353 88.6321 74.1421 88.6278C73.6923 88.6207 73.2417 88.6264 72.7919 88.6435C72.4937 88.6548 72.4047 88.5239 72.4054 88.2385C72.4125 85.6918 72.4097 83.1445 72.4097 80.5978C72.4097 79.0932 72.4168 77.5885 72.4033 76.0839C72.4012 75.7992 72.4866 75.7238 72.7663 75.7287C73.7848 75.748 74.8047 75.7138 75.8218 75.7494C77.3813 75.8049 78.6852 76.3807 79.5116 77.7722C80.5365 79.4982 79.8425 81.8356 78.056 82.7509C77.9016 82.8299 77.7443 82.9032 77.5428 83.0014L77.5421 83.0007Z" fill="#141414"/>
<path d="M44.5563 82.9031C45.7456 84.5138 46.9072 86.0875 48.0986 87.701C47.5769 87.9985 47.1008 88.2804 46.6104 88.5345C46.5492 88.5658 46.3691 88.474 46.3129 88.3921C45.0417 86.5352 43.7805 84.6711 42.5164 82.8092C42.4096 82.6526 42.295 82.501 42.189 82.3444C41.8772 81.8846 42.0715 81.4597 42.6103 81.412C43.2801 81.3522 43.9285 81.2369 44.4217 80.7145C45.3228 79.7607 44.8993 78.1244 43.6267 77.8063C43.0502 77.6618 42.4317 77.6817 41.8317 77.6404C41.5463 77.6205 41.5633 77.834 41.5633 78.0312C41.5648 80.0099 41.5633 81.9885 41.5633 83.9679C41.5633 85.3067 41.5555 86.6462 41.5705 87.985C41.574 88.3046 41.4786 88.4356 41.1498 88.422C40.7477 88.4057 40.3441 88.4156 39.942 88.4341C39.5989 88.4491 39.4708 88.3302 39.4722 87.9637C39.485 84.1836 39.4801 80.4027 39.4793 76.6226C39.4793 76.4091 39.4765 76.1963 39.4665 75.9835C39.458 75.802 39.5334 75.728 39.7171 75.7301C40.9007 75.7443 42.0915 75.6746 43.2666 75.7813C44.826 75.923 46.0438 76.6618 46.7057 78.1643C47.4296 79.807 46.594 81.9921 44.952 82.7102C44.8367 82.7608 44.7249 82.8213 44.557 82.9045L44.5563 82.9031Z" fill="#141414"/>
<path d="M27.5717 80.2168C27.5717 78.8424 27.5774 77.468 27.566 76.0936C27.5639 75.8203 27.6308 75.7136 27.9248 75.7306C28.3376 75.7556 28.7532 75.7299 29.1675 75.7257C29.6564 75.7214 29.6707 75.7299 29.6707 76.2118C29.6707 78.7591 29.6614 81.3065 29.6707 83.8539C29.6721 84.2403 29.7269 84.6332 29.8116 85.0112C30.008 85.8916 30.8066 86.5578 31.7049 86.6397C32.6572 86.7272 33.507 86.5507 34.0807 85.6987C34.3924 85.2354 34.5376 84.7115 34.5376 84.1535C34.5376 81.5115 34.5355 78.8688 34.5305 76.2267C34.5298 75.7193 34.5213 75.7214 35.0309 75.7257C35.4693 75.7292 35.9077 75.7314 36.3455 75.7228C36.5704 75.7185 36.6594 75.8004 36.6586 76.0338C36.6494 78.7349 36.6843 81.4375 36.6359 84.1378C36.5782 87.3272 33.833 89.0681 31.2323 88.5706C29.27 88.1955 27.5489 86.6155 27.5717 83.9485C27.5824 82.7044 27.5739 81.4602 27.5731 80.2161L27.5717 80.2168Z" fill="#141414"/>
<path d="M74.7694 69.6928C75.2299 68.5618 75.6619 67.4992 76.0961 66.4372C76.7822 64.7611 77.4719 63.0856 78.1581 61.4094C78.768 59.9197 79.3808 58.4308 79.9773 56.9354C80.0833 56.6692 80.2776 56.7275 80.4691 56.7069C80.7083 56.6813 80.8399 56.7866 80.9261 57.0044C81.2492 57.8187 81.5816 58.6293 81.9133 59.44C82.9396 61.9489 83.9674 64.4579 84.9951 66.9668C85.3233 67.7668 85.6457 68.5689 85.9859 69.364C86.1033 69.638 86.0357 69.7469 85.7467 69.791C85.3496 69.8522 84.9489 69.9198 84.5645 70.0337C84.2336 70.1319 84.0862 70.0145 83.9773 69.7206C83.6677 68.8885 83.3368 68.0643 83.03 67.2308C82.9503 67.0131 82.8257 66.9454 82.6079 66.9469C81.1624 66.9526 79.7161 66.9547 78.2705 66.9461C78.0292 66.9447 77.9111 67.0344 77.8292 67.2572C77.5182 68.102 77.1844 68.9376 76.8741 69.7825C76.7851 70.0238 76.6776 70.1241 76.405 70.0544C75.8812 69.9206 75.3488 69.8188 74.7694 69.6928ZM82.2378 65.171C81.6449 63.6315 81.0769 62.1568 80.5097 60.682C80.462 60.687 80.4143 60.692 80.3659 60.6963C79.7972 62.171 79.2285 63.6465 78.6406 65.1703H82.2378V65.171Z" fill="#141414"/>
<path d="M63.4431 75.7335C64.3214 75.7335 65.1584 75.7335 65.9954 75.7335C67.1912 75.7342 68.3862 75.7463 69.5819 75.7306C69.8937 75.7263 70.0019 75.816 69.9855 76.1306C69.9634 76.5555 69.9748 76.9833 69.9891 77.4096C69.9983 77.6701 69.9036 77.7591 69.6382 77.7563C68.4061 77.7442 67.1734 77.7577 65.9413 77.7449C65.646 77.742 65.5549 77.8381 65.5627 78.1321C65.5819 78.8189 65.5805 79.5065 65.5613 80.1933C65.5534 80.473 65.6659 80.5371 65.9157 80.5342C66.9933 80.5243 68.0716 80.5378 69.1492 80.5186C69.4517 80.5129 69.5428 80.6111 69.5264 80.9022C69.5051 81.2801 69.5036 81.6609 69.5236 82.0389C69.5399 82.3449 69.4353 82.4624 69.1221 82.4581C68.1271 82.4438 67.1314 82.4531 66.1364 82.4481C65.5691 82.4453 65.5691 82.4403 65.5691 82.999C65.5691 84.0182 65.5691 85.0368 65.5691 86.056C65.5691 86.3976 65.7461 86.5689 66.1001 86.5699C67.3207 86.572 68.5414 86.5805 69.7613 86.5684C70.056 86.5656 70.1627 86.661 70.1506 86.9549C70.1328 87.3927 70.1407 87.8318 70.1478 88.2695C70.1513 88.4994 70.0738 88.6247 69.8232 88.6247C67.7976 88.6268 65.7712 88.6318 63.7456 88.6411C63.4466 88.6425 63.4402 88.4581 63.441 88.2389C63.4438 86.2724 63.4424 84.3058 63.4424 82.3385C63.4424 80.2652 63.4424 78.1918 63.4424 76.1185C63.4424 76.0032 63.4424 75.8886 63.4424 75.7335H63.4431Z" fill="#141414"/>
<path d="M39.1469 56.8906C40.8238 56.8999 42.3014 57.4394 43.574 58.5398C43.7968 58.7326 43.8594 58.875 43.5975 59.0956C43.2815 59.3618 42.9932 59.6629 42.7057 59.9611C42.5313 60.1419 42.3989 60.1597 42.2053 59.9725C40.5405 58.3661 36.9775 58.2857 35.2999 60.8038C33.6237 63.3192 34.6429 67.2822 38.3149 67.9249C39.7483 68.1754 41.1291 67.8872 42.2409 66.8238C42.3918 66.6793 42.5177 66.6815 42.6651 66.8295C42.974 67.1398 43.285 67.4495 43.6082 67.7441C43.8373 67.9534 43.7925 68.0979 43.574 68.2872C41.8409 69.7826 39.8366 70.2125 37.6316 69.7755C35.0693 69.2666 32.9653 67.0502 32.5568 64.4864C31.9098 60.428 34.9604 56.9127 39.1476 56.8913L39.1469 56.8906Z" fill="#141414"/>
<path d="M32.8784 69.5418C32.2877 69.6578 31.7432 69.7617 31.2008 69.8734C30.9745 69.9204 30.9183 69.7752 30.8556 69.6101C30.5425 68.7923 30.215 67.9795 29.914 67.1574C29.8307 66.9303 29.7154 66.8371 29.4791 66.8385C28.0926 66.8449 26.7061 66.8506 25.3203 66.84C25.0363 66.8378 24.9054 66.946 24.8107 67.2058C24.5153 68.0179 24.1894 68.8186 23.8883 69.6286C23.8072 69.8457 23.6954 69.9275 23.4627 69.8727C23.0598 69.7773 22.6527 69.6948 22.2456 69.6222C21.9253 69.5645 21.8776 69.4151 22.0007 69.1261C22.4584 68.0478 22.9025 66.9631 23.3459 65.8791C24.2734 63.6115 25.1972 61.3424 26.1239 59.0748C26.3744 58.4612 26.6421 57.8541 26.8755 57.2342C26.9773 56.9644 27.1367 56.8833 27.4086 56.8868C27.6705 56.8897 27.7816 57.0221 27.8705 57.242C28.5859 59.0086 29.3069 60.773 30.0286 62.5367C30.9432 64.7716 31.8606 67.0051 32.7766 69.24C32.8072 69.3154 32.83 69.3944 32.8806 69.5432L32.8784 69.5418ZM29.136 65.1467C28.5574 63.6371 27.9994 62.1794 27.4414 60.7225C27.3994 60.7253 27.3574 60.7289 27.3154 60.7317C26.7531 62.1872 26.1908 63.6428 25.6093 65.1467H29.136Z" fill="#141414"/>
<path d="M64.7508 59.6252C64.5729 59.46 64.4355 59.3319 64.2967 59.2052C63.728 58.6856 63.0519 58.5696 62.3408 58.7725C61.4398 59.0294 61.1565 60.2479 61.8818 60.8999C62.328 61.3013 62.8953 61.5896 63.4462 61.8472C64.2327 62.2145 65.0049 62.5903 65.659 63.1732C67.5252 64.8366 67.4412 68.4423 64.7992 69.685C62.8291 70.6124 60.2362 69.9221 58.9422 68.1391C58.6732 67.7685 58.7109 67.424 59.0554 67.1057C59.3323 66.8494 59.6077 66.5911 59.9123 66.3071C59.997 66.4195 60.0696 66.5064 60.1316 66.5996C60.7835 67.5818 61.6917 68.09 62.8775 68.0722C63.7273 68.0594 64.4042 67.5768 64.7003 66.7875C64.9878 66.0217 64.7871 65.0736 64.1273 64.5583C63.6384 64.1768 63.0618 63.9085 62.528 63.5839C61.8334 63.1618 61.081 62.8074 60.464 62.2921C59.4006 61.4038 59.0967 59.9426 59.5878 58.7027C60.0497 57.5369 61.3124 56.7212 62.649 56.6999C63.9188 56.6799 64.9558 57.1269 65.7366 58.1461C65.9437 58.4166 65.9822 58.6152 65.6583 58.8422C65.3323 59.0707 65.0512 59.3632 64.7515 59.6273L64.7508 59.6252Z" fill="#141414"/>
<path d="M72.4512 64.4131C72.4512 66.0836 72.4433 67.7547 72.4576 69.4252C72.4604 69.7654 72.3529 69.8921 72.0106 69.8722C71.585 69.8473 71.1572 69.8487 70.7316 69.8651C70.407 69.8779 70.3059 69.7562 70.3074 69.4295C70.3223 66.349 70.3223 63.2693 70.3259 60.1888C70.3259 59.9169 70.291 59.6408 70.3252 59.3732C70.37 59.0187 70.2148 58.9525 69.9038 58.9604C69.1693 58.9781 68.4347 58.9582 67.7002 58.9739C67.365 58.981 67.229 58.8657 67.249 58.5191C67.2739 58.0941 67.2632 57.6664 67.2525 57.24C67.2475 57.0215 67.3073 56.9169 67.55 56.9176C70.086 56.9219 72.622 56.9219 75.1579 56.9141C75.4291 56.9134 75.506 57.0215 75.4974 57.2756C75.4825 57.7134 75.4804 58.1525 75.4974 58.5902C75.5088 58.8842 75.3964 58.9902 75.1053 58.9824C74.3594 58.9618 73.6127 58.9703 72.8668 58.9483C72.5551 58.939 72.4369 59.0294 72.4405 59.3675C72.4576 61.0493 72.4483 62.7312 72.4483 64.4138H72.4512V64.4131Z" fill="#141414"/>
<path d="M14.3495 63.3919C14.3495 61.4012 14.3538 59.4097 14.3438 57.4189C14.3424 57.1783 14.4235 57.1057 14.6492 57.1093C15.1111 57.1164 15.573 57.1178 16.0342 57.0986C16.3659 57.0844 16.4542 57.2274 16.452 57.5428C16.4399 59.925 16.4421 62.3065 16.4406 64.6887C16.4406 65.5777 16.4506 66.4667 16.4378 67.3549C16.4335 67.6589 16.5282 67.7678 16.8449 67.7635C18.1367 67.7464 19.4286 67.7621 20.7197 67.7471C21.0307 67.7436 21.1425 67.8411 21.1247 68.155C21.1019 68.5685 21.1104 68.9841 21.1218 69.3991C21.1282 69.6382 21.0421 69.7422 20.7959 69.7422C18.7574 69.7379 16.7182 69.7365 14.6798 69.7443C14.3616 69.7457 14.3538 69.5649 14.3545 69.3301C14.3588 67.3507 14.3566 65.3713 14.3566 63.3926C14.3538 63.3926 14.3517 63.3926 14.3488 63.3926L14.3495 63.3919Z" fill="#141414"/>
<path d="M53.4176 57.9518C52.9735 58.5347 52.5564 59.077 52.1436 59.623C51.2923 60.7454 50.4503 61.8749 49.5877 62.9881C49.404 63.2244 49.4168 63.3703 49.6083 63.5917C51.004 65.2017 52.387 66.8223 53.7728 68.4408C53.856 68.5383 53.9293 68.6451 54.0354 68.7846C53.5251 69.1355 53.0396 69.4864 52.53 69.7989C52.4631 69.8394 52.2347 69.7156 52.1492 69.6117C51.4895 68.8053 50.8489 67.9832 50.1976 67.1696C49.2361 65.9682 48.2745 64.7668 47.3008 63.5746C47.1357 63.3717 47.135 63.2401 47.2923 63.0273C48.7457 61.0699 50.1848 59.1012 51.6361 57.1425C51.6966 57.0614 51.8795 56.9681 51.9336 57.0009C52.4275 57.2962 52.9051 57.6187 53.4169 57.9525L53.4176 57.9518Z" fill="#141414"/>
<path d="M44.9812 63.3996C44.9812 61.4217 44.9854 59.4437 44.9755 57.4658C44.9741 57.2053 45.0467 57.1006 45.3143 57.1078C45.7876 57.1213 46.2616 57.1156 46.7356 57.1099C46.9591 57.107 47.0495 57.1974 47.0488 57.428C47.0424 59.406 47.041 61.3832 47.0431 63.3612C47.0453 65.3271 47.0488 67.2929 47.0588 69.2588C47.0609 69.7235 47.0616 69.7335 46.5961 69.7314C46.1933 69.7299 45.7904 69.7257 45.3883 69.7442C45.0822 69.7584 44.9769 69.6445 44.979 69.3321C44.9904 67.3541 44.9847 65.3762 44.9847 63.3982H44.9812V63.3996Z" fill="#141414"/>
</svg>
