<svg width="100" height="100" viewBox="0 0 100 100" fill="none" xmlns="http://www.w3.org/2000/svg">
<path d="M19.9253 69.1668C19.9253 70.0058 19.9173 70.7933 19.9266 71.5821C19.9438 72.9985 20.7838 73.9353 22.1866 74.1097C22.4045 74.1361 22.6251 74.1401 22.8457 74.1401C41.425 74.1401 60.0044 74.1414 78.585 74.1401C80.3986 74.1401 81.4104 73.1346 81.4104 71.3363C81.4104 52.6851 81.4104 34.0338 81.4104 15.3812C81.4104 13.5671 80.4184 12.5708 78.6022 12.5708C59.9344 12.5682 41.2665 12.5734 22.5987 12.5536C21.159 12.5523 19.8988 13.6754 19.9094 15.2345C19.9609 22.6549 19.9305 30.0765 19.9292 37.4969C19.9292 37.8431 19.9292 38.1892 19.9292 38.579H13.276C13.276 38.3346 13.276 38.1205 13.276 37.9065C13.276 30.3751 13.2549 22.8438 13.2945 15.3138C13.3011 14.007 13.4583 12.6792 13.7357 11.4015C14.375 8.44972 16.351 6.81793 19.2556 6.28413C20.2449 6.10311 21.2646 6.01326 22.2698 6.01326C41.3128 5.99741 60.3544 5.98948 79.3961 6.02648C80.6945 6.02912 82.0365 6.24845 83.2807 6.62502C86.1431 7.49178 87.423 9.70362 87.8219 12.518C87.9328 13.2988 87.9619 14.0969 87.9619 14.887C87.9698 34.0668 87.9672 53.2466 87.9672 72.4277C87.9672 73.9168 87.7255 75.3649 87.1126 76.7245C86.0982 78.9787 84.2199 80.0899 81.8766 80.4598C80.6892 80.6474 79.4727 80.728 78.2694 80.7294C59.624 80.7452 40.9773 80.7492 22.3319 80.7214C21.0903 80.7201 19.8222 80.5668 18.615 80.2828C15.7579 79.6089 13.9087 77.4922 13.5389 74.4836C13.3249 72.7475 13.2945 70.9888 13.1769 69.1681H19.9253V69.1668Z" fill="#141414"/>
<path d="M27.3591 21.1094H42.4791V27.5691H33.9053V65.5601H27.0011C24.6632 61.6227 22.3173 57.6707 19.9701 53.7187C19.9213 53.7333 19.8724 53.7465 19.8248 53.761V65.572H13.3262V42.8459H20.2237C22.5273 46.7212 24.8864 50.689 27.2455 54.6568C27.2825 54.6463 27.3208 54.6344 27.3578 54.6238V21.1094H27.3591Z" fill="#141414"/>
<path d="M66.3962 65.5433V27.6276H57.6797V21.1309H72.8539V65.5446H66.3962V65.5433Z" fill="#141414"/>
<path d="M52.3276 42.6977C51.1098 42.6977 49.9883 42.7691 48.8788 42.6832C46.7139 42.5154 44.7353 41.8495 43.6284 39.812C43.1383 38.9096 42.7777 37.8539 42.6826 36.8378C42.5281 35.1862 42.6417 33.5095 42.6417 31.7879H48.2197C48.2197 32.7445 48.2184 33.7037 48.2197 34.663C48.2237 36.7704 48.509 37.0532 50.629 37.0519C51.1547 37.0519 51.6804 37.0519 52.2999 37.0519V31.7812H57.9413V47.5508H52.3289V42.7004L52.3276 42.6977Z" fill="#141414"/>
<path d="M57.9439 57.349H42.6113V51.748H57.9439V57.349Z" fill="#141414"/>
<path d="M64.4439 92.944H62.946V89.6566H59.3453V92.9281H57.8131V84.9277H59.3097V88.1067H62.8932V84.933H64.4426V92.9427L64.4439 92.944Z" fill="#141414"/>
<path d="M76.7913 88.4274C77.8388 87.2475 78.8875 86.0676 79.9165 84.9102H81.9163C80.8266 86.1178 79.8201 87.2343 78.766 88.4036C79.824 89.9059 80.8675 91.3884 81.9612 92.9436H80.0341C79.2719 91.8601 78.5058 90.7687 77.6895 89.6087C77.3104 90.0169 76.9749 90.3803 76.6209 90.7621V92.9304H75.1019V84.9287H76.6117V88.3733C76.6711 88.3917 76.7306 88.4102 76.7913 88.4287V88.4274Z" fill="#141414"/>
<path d="M22.7982 91.127C22.5684 91.7454 22.3491 92.336 22.1219 92.9464H20.5078C21.5434 90.2405 22.5644 87.5728 23.5907 84.8945H25.4254C26.4306 87.5477 27.4358 90.1995 28.47 92.928H26.8176C26.5957 92.3426 26.3659 91.7362 26.136 91.127H22.7982ZM24.4625 86.5461C24.0451 87.7009 23.6977 88.6615 23.3318 89.6736H25.6169C25.2365 88.6443 24.8878 87.697 24.4638 86.5461H24.4625Z" fill="#141414"/>
<path d="M66.7263 84.8984H68.1991C68.2123 85.1508 68.2334 85.3847 68.2361 85.6185C68.2467 87.1354 68.2229 88.6522 68.2718 90.1677C68.3061 91.2115 68.8701 91.6898 69.874 91.6542C70.7906 91.6225 71.3533 91.053 71.3652 90.0845C71.3837 88.6113 71.3705 87.138 71.3705 85.6661C71.3705 85.4296 71.3705 85.1931 71.3705 84.9156H72.8076C72.8076 86.9411 72.9265 88.9416 72.7693 90.9209C72.6504 92.4218 71.2411 93.2516 69.479 93.1618C68.0076 93.0864 66.8109 92.0717 66.7475 90.6381C66.6616 88.7381 66.7263 86.8302 66.7263 84.9011V84.8984Z" fill="#141414"/>
<path d="M16.8979 90.7438C17.5795 88.8015 18.2597 86.8605 18.9479 84.8984H20.5725C19.5753 87.6018 18.5939 90.2576 17.6059 92.9358H15.9667C14.9839 90.2748 14.0012 87.611 13 84.9011H14.6762C15.3696 86.8658 16.0591 88.8187 16.7486 90.7702C16.7988 90.761 16.8477 90.7517 16.8979 90.7438Z" fill="#141414"/>
<path d="M55.808 91.3212V92.48C54.3815 93.6137 51.5733 93.3256 50.1441 91.9224C48.6661 90.4716 48.4983 87.9586 49.769 86.3109C51.0846 84.6051 53.7078 84.1784 55.7961 85.3675V86.7218C55.141 86.517 54.474 86.2448 53.7805 86.1035C52.1492 85.7718 50.6223 86.9808 50.4612 88.6747C50.3066 90.2893 51.5641 91.7691 53.1795 91.7361C54.0341 91.7189 54.8847 91.4745 55.8094 91.3199L55.808 91.3212Z" fill="#141414"/>
<path d="M29.7089 92.5583V91.1129C32.4867 92.0563 33.2806 91.9743 33.7125 90.6993C33.6412 90.1034 33.2238 89.8061 32.7152 89.5973C32.1684 89.3727 31.6017 89.1877 31.0721 88.9288C30.0299 88.4201 29.5359 87.6458 29.6416 86.779C29.7538 85.8568 30.4856 85.0997 31.5383 84.8196C32.4497 84.5778 33.8538 84.7297 34.7111 85.1737V86.4831C34.2355 86.3523 33.7812 86.1871 33.3123 86.1091C32.9292 86.0457 32.5211 86.0418 32.1367 86.0959C31.6863 86.1607 31.1843 86.3827 31.2438 86.8874C31.2821 87.2111 31.6506 87.5797 31.9676 87.766C32.4907 88.0752 33.0996 88.2351 33.657 88.4928C34.3293 88.8033 34.9264 89.2115 35.1364 89.9845C35.497 91.3044 34.8167 92.5346 33.3968 92.9217C32.1591 93.2599 30.9241 93.1133 29.7102 92.5583H29.7089Z" fill="#141414"/>
<path d="M83.4129 91.7292C83.9386 91.7015 84.4115 91.6763 84.916 91.6499V86.1983C84.4233 86.1758 83.9518 86.1547 83.4367 86.1322V84.918H87.925V86.1362H86.5579V91.6697H87.9223V92.9329H83.4116V91.7292H83.4129Z" fill="#141414"/>
<path d="M39.7977 91.6538C40.3128 91.6815 40.7857 91.7066 41.2956 91.7344V92.8958H36.7597V91.7357C37.2471 91.7066 37.6975 91.6815 38.1928 91.6524V86.1784H36.7663V84.9258H41.2744V86.1268C40.8148 86.1466 40.3234 86.1691 39.7964 86.1916V91.6538H39.7977Z" fill="#141414"/>
<path d="M43.3984 84.9121H44.8752V91.4763H48.0413V92.9151H43.3998V84.9121H43.3984Z" fill="#141414"/>
<path d="M84.6479 83.7085C84.4616 83.435 84.3084 83.209 84.1248 82.9395C84.9662 82.2749 85.7667 81.6433 86.6239 80.9668C86.8907 81.3658 87.1272 81.716 87.394 82.1137C86.4456 82.6646 85.5659 83.1747 84.6479 83.7071V83.7085Z" fill="#141414"/>
</svg>
