<svg width="100" height="100" viewBox="0 0 100 100" fill="none" xmlns="http://www.w3.org/2000/svg">
<path d="M26.7073 76.7111C26.7073 75.0122 27.9454 73.7553 29.5694 73.7796C29.9609 73.7778 30.3488 73.8544 30.7101 74.0052C31.0714 74.1558 31.3989 74.3774 31.6731 74.6568C31.9473 74.9363 32.1625 75.2678 32.3064 75.632C32.4502 75.9961 32.5195 76.3853 32.5102 76.7766C32.515 77.1606 32.4418 77.5414 32.295 77.8962C32.1479 78.251 31.9304 78.572 31.6557 78.84C31.3807 79.1081 31.0542 79.3175 30.6959 79.4554C30.3375 79.5934 29.9549 79.6569 29.5713 79.6425C27.9061 79.6238 26.6979 78.3875 26.7073 76.7111Z" fill="#141414"/>
<path d="M73.7523 24.6504C73.3664 25.3996 72.973 26.1339 72.6003 26.885C72.4242 27.2428 72.2257 27.2484 71.9634 26.9918C71.7911 26.8592 71.6379 26.7035 71.5083 26.5291C71.4408 26.413 71.4483 26.1245 71.527 26.0721C72.2631 25.5851 73.0255 25.1355 73.7747 24.6691L73.7523 24.6504Z" fill="#141414"/>
<path d="M73.7785 24.6701L73.7521 24.6172L73.7559 24.6512L73.7785 24.6701Z" fill="#141414"/>
<path d="M80.7957 45.3316L81.0916 44.2695C81.5992 44.5449 81.3576 45.0188 81.3557 45.4084C81.3557 45.753 81.5636 46.2288 81.0354 46.4292L80.7957 45.3316Z" fill="#141414"/>
<path d="M95.9677 51.1955C95.7185 63.2884 90.9552 74.3304 81.4379 83.2258C74.6423 89.5813 66.5954 93.5972 57.3946 94.9121C40.7033 97.2985 26.5032 92.2898 15.1522 79.7493C9.01209 72.9667 5.44758 64.8843 4.35743 55.8109C2.9657 44.2313 5.63116 33.5845 12.4774 24.1216C19.6364 14.2259 29.3017 7.97531 41.3121 5.84558C57.4977 2.97597 71.5947 7.41525 83.2436 19.0866C89.3219 25.1761 93.1449 32.573 94.9712 40.9796C95.6343 44.0459 95.9171 47.1477 95.9677 51.1955ZM6.10505 49.9555C6.2755 51.9485 6.37478 53.8891 6.61828 55.7959C7.49616 62.83 10.1486 69.5251 14.3261 75.2519C18.8216 81.48 24.572 86.1816 31.5438 89.4295C36.188 91.607 41.1868 92.9287 46.3002 93.3312C50.6964 93.6778 55.0907 93.4623 59.412 92.4453C71.7408 89.5494 81.2394 82.7238 87.726 71.841C92.7253 63.4588 94.5048 54.3442 93.2798 44.6677C92.2346 36.4017 88.951 29.0909 83.6332 22.6942C79.2308 17.3458 73.6034 13.1379 67.2285 10.4272C60.1504 7.35649 52.385 6.21639 44.723 7.12304C38.1671 7.87229 32.0495 9.93271 26.5201 13.5216C13.3353 22.0892 6.72693 34.3694 6.10505 49.9555Z" fill="#141414"/>
<path d="M7.24225 50.0706C7.90158 33.5347 15.1974 20.8818 29.802 12.9398C41.567 6.54315 53.9839 6.07113 66.3128 11.1941C78.6847 16.3358 87.1193 25.514 90.7981 38.4385C95.095 53.5658 91.7047 67.1852 81.1272 78.836C74.5451 86.0868 66.2434 90.4006 56.5557 91.871C44.2849 93.731 33.1736 90.8239 23.4109 83.1797C15.6244 77.0827 10.5951 69.1314 8.34179 59.4792C7.61689 56.3961 7.31905 53.2605 7.24225 50.0706ZM36.9423 26.1828C40.6305 26.2183 43.7267 23.197 43.7586 19.5351C43.7904 15.8731 40.7859 12.7469 37.1146 12.702C33.3553 12.6533 30.2403 15.6502 30.201 19.3553C30.1929 21.1536 30.898 22.8818 32.1614 24.1615C33.425 25.441 35.1441 26.168 36.9423 26.1828ZM36.2905 76.8524C36.3429 73.1061 33.4321 70.1822 29.6559 70.0398C25.8797 69.8975 22.9408 73.0368 22.8565 76.4628C22.7628 80.209 25.8254 83.4101 29.6147 83.3933C33.6175 83.382 36.3167 80.2389 36.2905 76.8524ZM75.2194 19.7074C74.9965 19.8067 74.7905 19.8778 74.6031 19.9827C71.0143 21.9982 67.4267 24.018 63.8402 26.0423C63.2633 26.3682 63.254 26.5087 63.7616 26.9076C64.522 27.5052 65.32 28.0559 66.0749 28.6571C66.5038 28.998 66.8747 28.9943 67.3523 28.7396C68.4481 28.1533 68.4593 28.1776 69.4128 29.0186C69.5289 29.1217 69.6469 29.2247 69.7612 29.3315C70.7164 30.2137 70.7502 30.2287 70.1863 31.4087C69.9354 31.9332 70.0328 32.2685 70.4186 32.6356C70.9375 33.1301 71.4207 33.6621 71.9283 34.1697C73.0841 35.3254 73.0972 35.3292 73.8015 33.8326C75.3923 30.4372 76.9726 27.0401 78.5423 23.6409C78.7296 23.2476 78.9638 22.8748 78.4955 22.4777C77.5196 21.6498 76.5718 20.7919 75.609 19.9509C75.4841 19.8622 75.3539 19.7809 75.2194 19.7074ZM25.7692 34.3046C25.9434 34.2915 26.2881 34.2783 26.6271 34.2353C29.2101 33.9037 31.6227 31.6485 32.0254 29.1928C32.1434 28.4736 32.1434 28.4717 31.4485 28.3462C31.0195 28.2675 30.5887 28.1926 30.1579 28.1289C29.6952 28.0615 29.2213 27.9173 28.7718 27.9716C28.2099 28.0409 28.2848 28.6927 28.045 29.0655C27.2527 30.2942 25.8853 30.8412 24.5704 30.401C23.9206 30.1719 23.3718 29.7224 23.0191 29.1305C22.6664 28.5386 22.5323 27.842 22.64 27.1615C22.7479 26.481 23.0906 25.8596 23.6089 25.4058C24.1272 24.9517 24.7882 24.6938 25.477 24.6768C26.112 24.6618 26.363 24.4614 26.4267 23.8451C26.4997 23.1333 26.672 22.4328 26.7882 21.7266C26.9118 20.9774 26.88 20.9343 26.1345 20.8669C22.3339 20.5203 18.9305 23.4555 18.7731 27.2186C18.5971 31.1484 21.6802 34.3477 25.7598 34.2952L25.7692 34.3046ZM74.0337 50.1905C74.1199 37.3503 63.43 26.6211 50.5542 26.297C37.0004 25.9542 26.0745 36.6666 25.7523 49.4937C25.4152 62.8096 36.0882 73.6887 49.1494 74.1363C61.8828 74.5653 74.0225 64.5329 74.0244 50.1811L74.0337 50.1905ZM75.697 59.9419C75.5457 60.1601 75.4088 60.3879 75.2868 60.6237C74.3686 62.7787 73.1856 64.811 71.7654 66.6739C71.2952 67.2901 71.3102 67.3444 71.9714 67.7378C75.1346 69.6197 78.3007 71.4971 81.47 73.3702C82.1462 73.7692 82.2417 73.7767 82.6669 73.0949C83.7215 71.4091 84.8191 69.7233 85.7388 67.9626C86.7615 65.9977 86.932 66.5971 84.9072 65.3158C84.4801 65.0442 84.2441 65.1566 84.0155 65.5594C83.6166 66.2655 83.182 66.9511 82.7718 67.6497C81.9308 69.0846 81.9383 69.0752 80.5784 68.1405C80.1663 67.8577 80.052 67.616 80.3386 67.1646C80.8575 66.3498 81.3201 65.4975 81.8165 64.6678C82.0038 64.3475 82.0169 64.1058 81.6517 63.896C81.189 63.6394 80.7376 63.3584 80.2843 63.085C79.9097 62.8602 79.6643 62.9613 79.4564 63.3453C79.0818 64.029 78.6847 64.7015 78.2745 65.3627C77.5964 66.4528 77.5889 66.4491 76.5081 65.7373C75.8844 65.329 75.86 65.314 76.2253 64.6247C76.5587 63.9916 76.9445 63.3847 77.3173 62.7722C78.1696 61.3673 78.1714 61.3673 76.776 60.5469C76.4463 60.354 76.1204 60.176 75.6877 59.9325L75.697 59.9419ZM20.7662 60.0693C19.4497 60.0837 18.1677 60.492 17.0855 61.2418C15.9786 62.0156 15.1303 63.1045 14.6509 64.3669C14.1715 65.6294 14.0833 67.0069 14.3976 68.3203C14.9745 70.8228 17.2222 72.9563 19.7247 73.3777C20.5526 73.5182 20.562 73.5182 20.6613 72.7221C20.7343 72.104 20.7717 71.4803 20.8373 70.8603C20.9403 69.8881 20.9441 69.8881 19.985 69.5753C19.258 69.3344 18.6535 68.8197 18.2997 68.1405C17.9459 67.4611 17.8707 66.6709 18.09 65.937C18.3094 65.2031 18.806 64.5836 19.4745 64.21C20.143 63.8363 20.9309 63.7378 21.6708 63.9354C23.0476 64.31 23.7312 65.2952 23.8717 66.6495C23.9223 67.1271 24.1021 67.3107 24.5442 67.3463C25.2934 67.4081 26.0314 67.5055 26.7769 67.5542C27.6105 67.6067 27.6592 67.5411 27.6442 66.6814C27.5693 63.0363 24.5273 60.0711 20.7568 60.0599L20.7662 60.0693ZM69.025 85.0528C69.2423 84.9592 69.3622 84.9217 69.4689 84.8655C71.6886 83.6602 73.7694 82.2156 75.6746 80.5574C76.0117 80.2614 75.9874 79.9954 75.7551 79.6751C75.5004 79.3211 75.2381 78.9708 75.0171 78.5962C74.7961 78.2216 74.5357 78.1879 74.1854 78.437C73.4362 78.9577 72.7057 79.4785 71.9377 79.9636C70.664 80.7747 71.0424 80.9226 70.1002 79.5702C69.572 78.821 69.5869 78.791 70.3062 78.2591C70.6808 77.9818 71.0854 77.744 71.4601 77.4649C73.1459 76.2043 73.1328 76.6763 71.9152 74.8069C71.6361 74.3799 71.3776 74.2787 70.9412 74.5934C70.3362 75.0298 69.7012 75.4269 69.0681 75.8334C67.9292 76.5676 67.8731 76.5508 67.2062 75.3426C67.1763 75.2883 67.1482 75.2321 67.1144 75.1797C66.9271 74.8856 67.0002 74.6552 67.2755 74.4604C67.8112 74.0858 68.3432 73.7111 68.8752 73.3234C70.782 71.9654 70.7576 72.5742 69.3996 70.4257C69.0044 69.8001 68.9108 69.7926 68.347 70.3414C66.723 71.9223 64.8367 73.1286 62.8849 74.2431C61.9128 74.805 61.9128 74.7882 62.5684 75.7547C63.5151 77.1446 64.4589 78.5368 65.4005 79.9318C66.4326 81.4546 67.461 82.9812 68.4949 84.4984C68.6545 84.693 68.8285 84.8753 69.0157 85.0435L69.025 85.0528ZM51.2435 10.5291C50.5823 10.5291 50.1422 10.4917 49.7095 10.5404C49.4036 10.565 49.1089 10.6654 48.8516 10.8326C47.207 12.0389 45.9276 15.0602 47.4636 17.3491C47.8427 17.9206 48.1928 18.5107 48.5125 19.1174C49.0745 20.185 49.0052 21.2284 48.2672 22.1874C47.8965 22.6491 47.5026 23.0917 47.0871 23.5136C46.8473 23.7683 46.7218 23.9594 47.1845 24.0924C48.2035 24.3846 49.2112 24.718 50.2396 24.9727C50.5664 25.052 50.9109 25.0087 51.208 24.851C53.776 23.1989 54.7669 21.116 53.319 18.3794C53.1148 17.9916 52.9013 17.6114 52.6971 17.2255C52.5229 16.894 52.3431 16.5662 52.1876 16.2253C51.4796 14.6706 51.6706 13.2545 52.8657 12.0014C53.1448 11.7092 53.4276 11.4245 53.7123 11.1285C53.9464 10.8775 53.8341 10.7427 53.5381 10.7164C52.7008 10.6415 51.8598 10.5778 51.2435 10.5291ZM47.3999 77.832C47.5179 77.3731 47.1901 77.3057 46.8136 77.2701C44.5187 77.0185 42.2638 76.4837 40.1004 75.6779C39.3511 75.3969 39.3137 75.4044 39.1133 76.2061C38.4689 78.776 37.8414 81.3497 37.2102 83.9215C36.9742 84.8899 36.7531 85.862 36.5059 86.8286C36.371 87.353 36.5171 87.6434 37.0678 87.7839C37.7908 87.9712 38.4933 88.239 39.2144 88.4357C40.1884 88.7017 40.2446 88.6549 40.4825 87.6958C40.7429 86.6375 40.9939 85.5736 41.2823 84.5228C41.4884 83.7735 41.5389 83.7735 42.2545 83.9159C42.7115 84.0114 43.1629 84.1369 43.6144 84.2512C45.583 84.7513 45.7403 84.6258 45.9483 82.5972C45.9895 82.1982 45.8696 82.0109 45.5025 81.9304C44.8637 81.7899 44.225 81.6494 43.5881 81.4977C42.0316 81.1231 41.981 81.0163 42.4886 79.5159C42.6179 79.1413 42.8089 79.0214 43.1779 79.1151C43.7829 79.2687 44.388 79.4185 44.9948 79.5553C47.2257 80.0535 46.7087 80.4169 47.3756 77.9743C47.3862 77.9273 47.3945 77.88 47.3999 77.832ZM53.4651 89.7619C54.2143 89.6701 54.9486 89.5745 55.6903 89.4846C56.8535 89.3367 56.8442 89.3292 56.6269 88.1397C56.4396 87.0665 56.2935 85.9857 56.1099 84.9105C56.0219 84.3954 56.2391 84.1744 56.728 84.1051C57.6234 83.9777 58.5112 83.8129 59.4066 83.6855C59.7981 83.6293 59.9479 83.4401 59.8898 83.0542C59.8168 82.5935 59.7344 82.1308 59.7025 81.6663C59.6613 81.1418 59.4272 80.9545 58.9065 81.0631C58.2659 81.1961 57.6178 81.2935 56.9734 81.4022C55.503 81.6494 55.34 81.5089 55.2295 80.0123C55.1996 79.589 55.3363 79.3642 55.7615 79.3024C56.3459 79.2181 56.9303 79.1151 57.5147 79.0233C59.8337 78.6374 59.4197 78.8791 59.1237 76.8149C59.002 75.9589 58.9758 75.9476 58.1085 76.2024C55.9602 76.8554 53.743 77.2553 51.502 77.3937C50.9626 77.4218 50.7921 77.596 50.8802 78.1279C51.487 81.7843 52.0902 85.4331 52.6652 89.1044C52.7477 89.627 52.9612 89.8199 53.4651 89.7619ZM61.261 25.5871C61.3659 25.4878 61.5326 25.3998 61.6 25.2518C61.7182 24.963 61.8203 24.668 61.9053 24.3677C62.6695 22.0919 63.4488 19.8198 64.1849 17.5327C64.3722 16.9708 64.6382 16.8565 65.1477 17.0457C65.5223 17.1862 65.9175 17.3042 66.3053 17.4203C67.2156 17.6863 67.2231 17.6844 67.5003 16.8303C67.6651 16.3264 67.7906 15.8094 67.963 15.3075C68.1034 14.9029 67.9986 14.6743 67.5883 14.5282C64.9398 13.5917 62.2968 12.6551 59.652 11.7186C59.592 11.698 59.5302 11.6867 59.4646 11.6661C59.1743 11.5631 58.9851 11.638 58.9027 11.949C58.7716 12.3985 58.618 12.8406 58.4888 13.2901C57.9999 14.989 58.0055 14.6313 59.4609 15.0939C59.5208 15.1126 59.5808 15.1276 59.6482 15.1482C60.4799 15.4311 60.508 15.4404 60.2364 16.2515C59.5658 18.2632 58.8671 20.2656 58.1759 22.2717C58.0036 22.7712 57.8339 23.2707 57.6665 23.7702C57.5335 24.1748 57.6665 24.3995 58.0935 24.5288C58.8971 24.7779 59.6857 25.0776 60.4836 25.3511C60.7121 25.4279 60.9538 25.4916 61.261 25.5834V25.5871ZM16.8569 46.0303H16.6696C16.591 45.3915 16.5104 44.7509 16.4336 44.1122C16.3887 43.7376 16.3137 43.4529 15.8286 43.4585C15.3435 43.4641 15.2667 43.717 15.2667 44.1141C15.2667 45.7043 15.2667 47.2984 15.2873 48.8886C15.2873 49.0572 15.4409 49.3476 15.5626 49.37C15.9204 49.4393 15.9373 49.1265 15.9373 48.8737C15.9373 48.1244 15.9373 47.3752 15.9373 46.6259C15.9496 46.5281 15.9748 46.4324 16.0122 46.3412C16.0601 46.4195 16.0973 46.504 16.1227 46.5922C16.2276 47.3639 16.3306 48.1375 16.4243 48.9111C16.4655 49.252 16.6565 49.4618 16.9862 49.355C17.0861 49.3112 17.1742 49.2443 17.243 49.1595C17.3117 49.0748 17.3592 48.9748 17.3814 48.868C17.4114 47.2459 17.4077 45.6219 17.3814 43.9979C17.3814 43.8369 17.1941 43.6776 17.0986 43.5184C17.018 43.6701 16.8757 43.8181 16.8701 43.9736C16.842 44.6648 16.8569 45.3485 16.8569 46.0303ZM82.1911 46.5679C82.1911 45.8523 82.223 45.133 82.1818 44.4194C82.1481 43.8181 81.7416 43.4828 81.1272 43.4641C80.5128 43.4454 80.1139 43.7151 80.067 44.3594C80.0164 45.0675 80.0502 45.783 80.0558 46.4967C80.0558 46.8882 80.2431 47.201 80.6496 47.1972C81.4119 47.1972 81.3988 47.7067 81.3613 48.2087C81.3464 48.4091 81.174 48.5983 81.0654 48.795C80.9923 48.6077 80.9081 48.4204 80.85 48.2331C80.805 48.0869 80.8313 47.8285 80.7563 47.8004C80.5525 47.7539 80.3429 47.7387 80.1345 47.7554C80.1513 48.2387 80.0483 48.7706 80.2169 49.194C80.4042 49.6847 80.9661 49.6735 81.4494 49.5686C81.9851 49.4487 82.1986 49.0703 82.1986 48.5365C82.1818 47.8753 82.193 47.2216 82.1911 46.5679ZM18.8275 46.4761H18.8443C18.8443 47.2253 18.8162 47.9746 18.8443 48.7238C18.8743 49.3513 19.3201 49.6604 19.9195 49.563C20.4814 49.4637 20.9178 48.2518 20.5376 47.7966C20.4927 47.7584 20.4398 47.7307 20.3827 47.7157C20.3256 47.7009 20.2658 47.699 20.2079 47.7104C20.1522 47.7279 20.1013 47.7582 20.0593 47.7989C20.0174 47.8395 19.9856 47.8895 19.9663 47.9446C19.9176 48.1525 19.9439 48.3792 19.9045 48.5908C19.8858 48.6901 19.7828 48.7781 19.7172 48.8662C19.6648 48.7744 19.5692 48.6789 19.5692 48.5889C19.5692 47.2216 19.5692 45.8523 19.5692 44.4849C19.5674 44.4205 19.5802 44.3565 19.6067 44.2976C19.631 44.2527 19.706 44.1815 19.7172 44.189C19.7899 44.2233 19.8511 44.278 19.8933 44.3463C19.927 44.4288 19.8933 44.5336 19.9214 44.6217C19.9944 44.9064 19.7472 45.4384 20.3091 45.3709C20.7755 45.3129 20.5582 44.824 20.605 44.5149C20.6099 44.4215 20.5998 44.328 20.5751 44.2377C20.4739 43.6627 20.163 43.3929 19.6385 43.4154C19.1141 43.4379 18.8443 43.7095 18.8237 44.337C18.8069 45.0431 18.8275 45.7605 18.8275 46.4761ZM10.0107 48.1918C10.0107 48.2855 10.0107 48.3792 10.0107 48.4728C10.0707 49.1996 10.361 49.548 10.9136 49.5592C11.4661 49.5705 11.7134 49.282 11.8501 48.5253C11.9962 47.6711 11.7302 46.9537 11.2994 46.2307C11.0262 45.7167 10.8204 45.1696 10.6869 44.603C10.642 44.4456 10.8236 44.2283 10.9004 44.041C10.994 44.204 11.0754 44.3737 11.1439 44.5486C11.1833 44.661 11.1196 44.8146 11.172 44.9139C11.2628 45.0476 11.3704 45.1692 11.4924 45.2754C11.6254 45.1424 11.8445 45.0244 11.867 44.8708C11.8867 44.6234 11.86 44.3742 11.7883 44.1365C11.6797 43.6158 11.3125 43.4416 10.8237 43.4622C10.2992 43.4847 10.0744 43.7151 10.007 44.2808C9.89937 45.0922 10.1102 45.9139 10.5951 46.5735C10.9454 47.0586 11.2245 47.5831 11.1402 48.2143C11.0955 48.4144 11.0328 48.6099 10.9529 48.7987C10.8578 48.632 10.7763 48.4578 10.7094 48.278C10.6663 48.1319 10.7206 47.9558 10.67 47.8172C10.5942 47.6702 10.4998 47.5336 10.3891 47.4108C10.2529 47.5381 10.1305 47.6794 10.0238 47.8322C9.96765 47.9202 10.0107 48.0682 10.0107 48.1918ZM84.4576 43.4791C84.3336 43.4587 84.207 43.4587 84.083 43.4791C83.8751 43.554 83.5566 43.6308 83.5079 43.7788C83.3824 44.1646 83.7121 44.2414 84.0062 44.2414C84.467 44.2414 84.5044 44.5093 84.4389 44.8577C84.2703 45.7418 84.0961 46.6259 83.9294 47.51C83.8301 48.0289 83.714 48.5459 83.6653 49.0685C83.6522 49.2164 83.8526 49.5049 83.9594 49.5105C84.1204 49.5105 84.3115 49.3494 84.4501 49.2146C84.5269 49.1396 84.5288 48.9842 84.5531 48.8624C84.8453 47.4332 85.1394 46.004 85.426 44.573C85.4614 44.3907 85.4826 44.206 85.4897 44.0204C85.5065 43.6889 85.3679 43.4828 85.012 43.4753L84.4576 43.4791ZM87.951 46.5323C87.951 45.783 87.9678 45.0338 87.9416 44.2958C87.9045 44.0345 87.8386 43.7782 87.7449 43.5315C87.4786 43.6525 87.2272 43.8041 86.9957 43.983C86.754 44.2171 86.5911 44.4868 86.8383 44.8858C86.9872 45.1855 87.0573 45.518 87.0425 45.8523C87.0668 46.8788 87.0425 47.9034 87.0519 48.9298C87.0519 49.2539 87.0519 49.5723 87.5276 49.5499C87.9304 49.5292 87.9435 49.2427 87.9453 48.9561C87.9547 48.1488 87.951 47.3396 87.951 46.5323ZM22.053 46.4199H22.068C22.068 47.1991 22.0474 47.9783 22.068 48.7556C22.0942 49.4824 22.3864 49.6922 23.0813 49.5049C23.1515 49.4865 23.2169 49.453 23.2729 49.4067C23.3289 49.3605 23.374 49.3026 23.4053 49.237C23.4316 49.1321 23.321 48.8905 23.2349 48.8624C22.7123 48.75 22.7797 48.3548 22.7685 47.9914C22.7685 47.8041 22.7685 47.6168 22.7685 47.4295C22.7853 46.9781 22.658 46.4929 23.2967 46.2869C23.5215 46.2157 23.5027 45.9647 23.2442 45.7886C22.5681 45.3316 22.5793 44.5262 23.2218 43.9942C23.321 43.9118 23.321 43.7095 23.3679 43.5653C23.0326 43.5372 22.6861 43.4472 22.3714 43.5109C22.2309 43.5409 22.0736 43.8856 22.0642 44.0729C22.0324 44.8614 22.0548 45.6425 22.0548 46.4199H22.053ZM78.473 46.5529C78.473 45.71 78.473 44.8671 78.473 44.0279C78.473 43.732 78.4374 43.4285 78.016 43.5203C77.5945 43.6121 77.2517 44.2976 77.3679 44.6947C77.4934 45.0679 77.5739 45.4545 77.6076 45.8467C77.6395 46.7833 77.5945 47.7198 77.6245 48.6564C77.6339 48.9729 77.396 49.5049 78.0141 49.518C78.6978 49.533 78.4468 48.9561 78.4655 48.6133C78.5011 47.9259 78.4749 47.2422 78.473 46.5529ZM13.2493 46.4405C13.2493 47.2197 13.24 47.997 13.2493 48.7763C13.2493 49.031 13.1651 49.4187 13.594 49.3813C13.7101 49.3813 13.8787 49.0066 13.8825 48.8193C13.9087 47.2628 13.9049 45.7062 13.8937 44.1497C13.8937 43.9024 14.0211 43.4978 13.5959 43.4922C13.1032 43.4922 13.2568 43.9286 13.2493 44.204C13.2362 44.9457 13.2512 45.6931 13.2512 46.4405H13.2493ZM79.6774 29.9458C79.6699 30.0387 79.6699 30.132 79.6774 30.2249C79.7093 30.401 79.7561 30.5733 79.7973 30.7457L80.0164 30.3411C80.1082 30.3991 80.23 30.4347 80.2843 30.5171C80.3948 30.6857 80.4922 31.0379 80.7039 30.7213C80.9155 30.4048 81.0017 30.1725 81.1797 30.7213C81.2602 30.6689 81.4082 30.6183 81.41 30.5621C81.4327 30.1878 81.4327 29.8125 81.41 29.4382C81.41 29.3408 81.2696 29.1591 81.2227 29.1704C81.0892 29.2097 80.968 29.2826 80.8706 29.382C80.8107 29.4401 80.8144 29.5581 80.7769 29.6424C80.7132 29.7829 80.6402 29.9177 80.5709 30.0545C80.4922 29.929 80.421 29.8016 80.3368 29.6799C80.2038 29.4925 80.0614 29.3183 79.9228 29.1385C79.8366 29.3764 79.7486 29.6143 79.6662 29.8541C79.6643 29.8851 79.668 29.9162 79.6774 29.9458ZM78.8383 29.0805C78.6819 29.0835 78.526 29.0984 78.3719 29.1254C78.3138 29.1404 78.2801 29.2453 78.2351 29.3127C78.8102 29.5956 78.5461 30.1594 78.6716 30.5921C78.6884 30.6557 78.7971 30.6932 78.8589 30.7419C78.9137 30.6803 78.958 30.61 78.99 30.534C79.0836 30.1219 78.827 29.5825 79.4283 29.3577C79.3796 29.279 79.3459 29.1516 79.2784 29.131C79.1344 29.0953 78.9866 29.0758 78.8383 29.073V29.0805Z" fill="#141414"/>
<path d="M36.9683 22.3647C36.5862 22.3667 36.2075 22.2933 35.8538 22.1488C35.5002 22.0043 35.1784 21.7915 34.907 21.5225C34.6357 21.2536 34.4199 20.9338 34.2722 20.5814C34.1246 20.229 34.0478 19.8509 34.0463 19.4689C34.0483 18.6816 34.3615 17.927 34.9176 17.3697C35.474 16.8125 36.2279 16.4978 37.0151 16.4944C37.398 16.4896 37.7777 16.5614 38.1325 16.7056C38.487 16.8497 38.8092 17.0634 39.0801 17.3339C39.3509 17.6044 39.565 17.9263 39.7096 18.2807C39.8542 18.6351 39.9265 19.0149 39.9222 19.3977C39.9269 19.7875 39.8539 20.1744 39.7074 20.5357C39.5607 20.8969 39.3434 21.2253 39.0685 21.5016C38.7933 21.7779 38.4659 21.9965 38.1053 22.1447C37.7447 22.2929 37.3583 22.3677 36.9683 22.3647Z" fill="#141414"/>
<path d="M49.8605 73.4823C37.2938 73.6696 26.3941 63.3563 26.3792 50.2819C26.3661 37.32 36.8798 26.868 49.9017 26.8867C62.8899 26.8867 73.2857 37.4605 73.413 50.1452C73.5348 62.3691 63.0547 73.767 49.8605 73.4823ZM37.0222 62.77C37.0222 63.0809 37.0072 63.3937 37.0222 63.7065C37.2339 67.346 39.2699 69.8429 42.7989 70.7495C45.268 71.4009 47.8846 71.2029 50.2276 70.1875C55.2326 68.0597 58.6155 64.3434 60.5054 59.2766C61.1262 57.5659 61.3223 55.7303 61.0767 53.927C60.8669 52.2187 60.0428 50.93 58.4768 50.1808C57.4916 49.7134 56.6309 49.0196 55.965 48.156C54.4197 46.2154 52.3742 45.5542 49.9579 46.0187C47.8254 46.3947 45.8359 47.3455 44.2037 48.7685C41.9318 50.7347 40.0782 53.1373 38.753 55.8338C37.6965 58.0273 37.0522 60.3256 37.0222 62.77ZM71.4201 49.8193C71.3508 45.5111 69.9984 41.8829 67.7075 38.5675C66.322 36.5166 64.4318 34.857 62.2193 33.748C61.0559 33.1444 59.7807 32.7867 58.4731 32.6971C57.1451 32.6203 55.9538 32.9987 55.1015 33.9821C54.2492 34.9655 53.1647 35.5742 51.9696 36.0819C49.9092 36.9566 48.7254 38.5843 48.5006 40.8115C48.4089 41.9295 48.4032 43.053 48.4838 44.1718C48.5475 45.3388 48.5999 45.3613 49.795 45.1309C52.6809 44.5703 55.0215 45.4487 56.8173 47.7663C57.3363 48.4257 58.0046 48.9522 58.7672 49.3023C60.5317 50.1658 61.6049 51.5613 61.9515 53.5299C62.2137 55.0378 62.0245 56.51 61.7904 57.9898C61.6761 58.7203 61.7286 58.7915 62.3523 58.887C65.5366 59.3759 68.4886 57.9336 70.0901 55.1408C70.9847 53.5112 71.4429 51.6782 71.4201 49.8193ZM38.8691 47.9462H38.6331C38.7211 45.7677 38.7511 43.5837 38.9159 41.4109C39.0637 39.7906 39.5222 38.2142 40.2664 36.7674C40.3357 36.6288 40.5287 36.5501 40.6654 36.4452C40.7117 36.5854 40.7437 36.7296 40.7609 36.8761C40.7703 37.187 40.7609 37.4979 40.7422 37.8126C40.6766 40.1484 40.5549 42.486 40.5549 44.8237C40.5549 46.5095 40.6954 48.1953 40.7797 49.868C40.7909 50.1096 40.8377 50.3475 40.8658 50.5873C41.0869 50.4486 41.3135 50.3213 41.5233 50.1696C41.6447 50.0712 41.7557 49.9607 41.8548 49.8399C43.3533 48.1541 45.0653 46.7867 47.1614 45.9438C47.6933 45.7303 47.7233 45.4118 47.6596 44.9211C47.3487 42.7033 47.3299 40.508 48.2309 38.3877C48.2843 38.2474 48.3075 38.0975 48.2987 37.9477C48.2901 37.7978 48.2496 37.6515 48.1803 37.5185C46.5526 35.0985 44.8855 34.0795 42.4411 34.5834C41.4984 34.7838 40.5208 34.7503 39.594 34.486C37.423 33.8847 35.4263 34.2724 33.7873 35.8852C32.3506 37.305 31.2174 38.9533 30.6742 40.9276C29.3424 45.7565 29.6159 50.5011 31.5958 55.1127C32.42 57.0308 33.5944 58.711 35.342 59.9247C36.1175 60.4623 36.2673 60.4192 36.4659 59.5501C36.878 57.7725 37.5898 56.1223 38.4102 54.4927C38.6614 53.9963 38.8043 53.4524 38.8297 52.8968C38.9122 51.2447 38.8691 49.5908 38.8691 47.9387V47.9462Z" fill="#141414"/>
<path d="M40.9619 67.4077C40.9001 67.269 40.7896 67.1304 40.8214 67.0799C40.9777 66.8083 41.1665 66.5567 41.3834 66.3306C43.7997 63.963 45.7889 61.262 47.6733 58.4635C48.7668 56.7991 49.9873 55.2216 51.324 53.7452C52.3692 52.6213 53.7085 51.7634 54.9428 50.8212C55.1639 50.6526 55.5048 50.6489 55.797 50.5684C55.6809 50.8343 55.619 51.1453 55.4411 51.3626C54.6113 52.374 53.6841 53.3106 52.9124 54.3595C51.442 56.3675 50.0353 58.4242 48.6323 60.4828C46.9109 63.0096 44.9123 65.2442 42.2132 66.7652C41.8273 66.9881 41.4321 67.1698 40.9619 67.4077Z" fill="#141414"/>
<path d="M66.363 55.6154L66.1907 56.0238C66.0378 55.931 65.9001 55.8153 65.7823 55.681C65.4901 55.2033 65.2204 54.7126 64.96 54.2143C63.5365 51.4196 61.6221 48.9696 59.6666 46.5346C57.9808 44.4423 56.4224 42.262 55.4559 39.7295C55.1569 38.8791 54.9068 38.0123 54.7066 37.1334C54.6617 36.9611 54.774 36.7475 54.8134 36.5527C54.9619 36.6447 55.099 36.7541 55.2217 36.8787C55.416 37.1225 55.5907 37.381 55.7443 37.6523C57.3683 40.5069 59.3594 43.0993 61.4536 45.6149C63.5477 48.1305 65.2766 50.8427 66.1008 54.0439C66.1925 54.4054 66.2562 54.7744 66.3274 55.1415C66.3443 55.2764 66.3443 55.4019 66.363 55.6154Z" fill="#141414"/>
</svg>
