<svg width="100" height="100" viewBox="0 0 100 100" fill="none" xmlns="http://www.w3.org/2000/svg">
<mask id="mask0_298_715" style="mask-type:luminance" maskUnits="userSpaceOnUse" x="18" y="8" width="59" height="58">
<path d="M76.8724 8H18.8447V65.5308H76.8724V8Z" fill="white"/>
</mask>
<g mask="url(#mask0_298_715)">
<path d="M32.9596 37.5044C32.9596 29.5769 32.9596 21.6495 32.9596 13.722C32.9596 13.3453 33.216 12.7594 32.5777 12.6757C32.1613 12.633 31.7427 12.7325 31.3902 12.9582C23.9091 18.1583 19.0124 27.0414 18.8346 36.186C18.7299 43.7508 21.2254 51.2998 26.5249 56.7929C28.2466 58.5602 30.0929 60.202 32.0493 61.7053C32.1261 61.7769 32.2227 61.824 32.3264 61.8397C32.4302 61.8559 32.5364 61.8402 32.6312 61.7953C32.726 61.7503 32.8051 61.6775 32.858 61.5865C32.911 61.496 32.9354 61.3914 32.9282 61.2868C32.9596 53.361 32.9596 45.4301 32.9596 37.5044Z" fill="#141414"/>
<path d="M37.1443 27.9894C36.9717 31.5991 41.5074 30.6052 41.8527 28.0261C41.748 25.3371 37.1077 24.772 37.1443 27.9894Z" fill="#141414"/>
<path d="M68.0108 28.2089C68.2096 24.6044 63.6898 25.5304 63.3027 28.1095C63.3498 30.7462 68.0108 31.442 68.0108 28.2089Z" fill="#141414"/>
<path d="M37.1451 36.9926C37.0875 40.3983 41.3303 39.4671 41.8534 37.0606C41.8848 34.3402 36.9724 33.498 37.1451 36.9926Z" fill="#141414"/>
<path d="M68.0108 36.9136C68.0683 33.6596 63.5015 34.235 63.3027 36.8769C63.491 39.4508 68.1259 40.4919 68.0108 36.9136Z" fill="#141414"/>
<path d="M59.1173 36.9717C59.1958 33.5085 54.7804 34.4763 54.409 36.9717C54.7595 39.4671 59.1749 40.4402 59.1173 36.9717Z" fill="#141414"/>
<path d="M76.8737 37.102C76.8737 33.5603 72.4583 34.0678 72.1653 36.9503C72.5159 39.5399 76.7795 40.2828 76.8737 37.102Z" fill="#141414"/>
<path d="M37.145 45.8804C37.0979 49.1501 41.5499 48.5485 41.8063 45.6921C41.6127 42.705 37.0038 42.7311 37.145 45.8804Z" fill="#141414"/>
<path d="M68.0108 45.8019C68.2253 42.8461 63.5276 42.8356 63.3027 45.5089C63.5224 48.4072 67.88 49.3489 68.0108 45.8019Z" fill="#141414"/>
<path d="M37.1448 19.0636C37.1448 22.6053 41.5602 22.0979 41.8531 19.2154C41.4921 16.6206 37.2232 15.8829 37.1448 19.0636Z" fill="#141414"/>
<path d="M68.0108 19.1733C67.9846 15.9036 63.784 16.4947 63.3027 19.3616C63.4125 21.7786 68.1939 22.5895 68.0108 19.1733Z" fill="#141414"/>
<path d="M59.1173 28.172C59.2167 24.5728 54.7961 25.5301 54.409 28.2557C54.9321 30.4687 59.1173 31.515 59.1173 28.172Z" fill="#141414"/>
<path d="M59.1173 45.8032C59.3214 42.8474 54.634 42.8369 54.409 45.5154C54.7124 48.2044 59.0598 49.4286 59.1173 45.8032Z" fill="#141414"/>
<path d="M37.1449 55.261C37.7204 57.9448 41.7277 56.8619 41.8114 54.4502C41.2569 51.6043 36.5695 51.2119 37.1449 55.261Z" fill="#141414"/>
<path d="M50.224 54.4073C50.224 52.5972 49.999 52.3984 48.1314 52.3984C41.9164 52.7176 49.9834 60.9729 50.224 54.4073Z" fill="#141414"/>
<path d="M59.1173 55.1399C59.4365 51.6557 54.7386 51.5981 54.409 54.4336C54.7229 56.9029 58.5471 58.1427 59.1173 55.1399Z" fill="#141414"/>
<path d="M47.984 65.4724C51.4786 66.142 50.7306 60.9367 48.1096 60.832C45.5514 60.8739 44.8294 66.0845 47.984 65.4724Z" fill="#141414"/>
<path d="M59.1179 19.2361C59.1964 15.9821 54.8281 16.5 54.5037 19.3146C54.781 21.9879 59.0604 22.579 59.1179 19.2361Z" fill="#141414"/>
<path d="M46.0386 28.1305C46.1746 31.5152 50.1663 30.7044 50.6633 28.0468C50.386 25.5514 45.8398 24.6515 46.0386 28.1305Z" fill="#141414"/>
<path d="M65.6994 52.3998C62.0895 52.4312 63.2457 56.7576 65.9767 57.1081C68.2785 56.7001 68.8906 52.3108 65.6994 52.3998Z" fill="#141414"/>
<path d="M46.0391 19.2358C46.1856 22.6206 50.1457 21.8149 50.6689 19.1521C50.3184 16.4788 45.8664 15.9975 46.0391 19.2358Z" fill="#141414"/>
<path d="M50.2234 36.8987C50.1764 33.8749 46.0382 33.8697 46.0382 36.8987C45.9336 40.1632 50.281 40.1213 50.2234 36.8987Z" fill="#141414"/>
<path d="M50.6736 45.8079C50.539 45.2215 50.2064 44.6994 49.7318 44.3297C49.2572 43.9599 48.6696 43.7651 48.0681 43.7779C47.4666 43.7909 46.8879 44.0107 46.4296 44.4005C45.9713 44.7903 45.6613 45.3261 45.552 45.9177C46.4257 48.7166 50.0877 48.5753 50.6736 45.8079Z" fill="#141414"/>
<path d="M50.2238 10.2282C49.1095 4.47356 42.7375 11.5204 48.0475 12.6556C49.6588 12.687 50.2238 12.2109 50.2238 10.2282Z" fill="#141414"/>
<path d="M59.1172 63.0093C58.6987 60.9743 55.4551 60.0535 54.932 62.8733C54.7489 65.3426 58.8347 65.6931 59.1172 63.0093Z" fill="#141414"/>
<path d="M57.1032 12.6562C59.358 12.426 59.6666 9.09877 56.9933 8.99414C54.409 9.13539 54.1265 12.6719 57.1032 12.6562Z" fill="#141414"/>
<path d="M37.6679 63.0346C37.5267 65.7655 41.3299 65.3469 41.3299 62.8358C41.0474 60.1677 37.9086 60.3456 37.6679 63.0346Z" fill="#141414"/>
<path d="M39.3415 12.6556C44.2957 12.6085 38.5777 5.95927 37.6412 10.495C37.4791 11.9127 38.0598 12.9172 39.3415 12.6556Z" fill="#141414"/>
<path d="M75.8275 28.1731C76.3141 25.1493 72.0975 26.0805 72.1655 28.1261C72.2806 30.0094 76.1153 30.9301 75.8275 28.1731Z" fill="#141414"/>
<path d="M75.8272 45.77C76.1149 43.013 72.275 43.939 72.1652 45.8224C72.1128 47.847 76.3033 48.7886 75.8272 45.77Z" fill="#141414"/>
<path d="M64.0875 60.2784C63.8665 60.2039 63.6254 60.2166 63.4135 60.3139C63.2016 60.4113 63.0347 60.5855 62.947 60.8016C62.8172 61.0145 62.7741 61.2693 62.8267 61.513C62.8783 61.7485 63.0198 61.9546 63.221 62.0875C63.4223 62.2203 63.6674 62.2695 63.9044 62.2245C64.1223 62.1853 64.3214 62.0754 64.4711 61.9122C64.621 61.749 64.7133 61.5413 64.734 61.3211C64.7547 61.1003 64.7028 60.879 64.5861 60.6907C64.4693 60.5028 64.2942 60.3579 64.0875 60.2784Z" fill="#141414"/>
<path d="M73.7658 20.6492C73.2792 18.8443 71.5947 19.3047 71.15 20.759C71.5058 21.8524 73.2426 21.4915 73.7658 20.6492Z" fill="#141414"/>
<path d="M64.3487 13.1785C66.2687 13.5343 65.1596 11.0859 64.3121 11.0859C63.2344 11.1383 62.7113 13.686 64.3487 13.1785Z" fill="#141414"/>
<path d="M72.0441 54.5227C72.3982 54.4498 72.7132 54.25 72.9297 53.9609C73.1469 53.6718 73.2504 53.3134 73.2211 52.9532C72.3893 51.2007 69.9148 53.8164 72.0441 54.5227Z" fill="#141414"/>
</g>
<path d="M18.662 92.2281C17.4937 92.2281 16.5869 91.9231 15.9417 91.3125C15.3139 90.702 15 89.8566 15 88.7753V74.8857C15 74.5022 15.1046 74.2056 15.3139 73.9963C15.5406 73.7698 15.8458 73.6562 16.2294 73.6562C16.613 73.6562 16.9182 73.7698 17.1449 73.9963C17.3716 74.2056 17.485 74.5022 17.485 74.8857V88.8014C17.485 89.2372 17.5983 89.5862 17.825 89.8477C18.0517 90.1093 18.3656 90.2401 18.7667 90.2401H27.3725C28.1921 90.2401 28.6019 90.5712 28.6019 91.2341C28.6019 91.548 28.4885 91.7923 28.2618 91.9665C28.0526 92.1407 27.7561 92.2281 27.3725 92.2281H18.662ZM37.9385 92.4896C36.3516 92.4896 34.974 92.1757 33.8056 91.548C32.6372 90.9202 31.7304 90.0219 31.0852 88.8537C30.4575 87.6678 30.1436 86.2642 30.1436 84.6424V74.8857C30.1436 74.5022 30.2482 74.2056 30.4575 73.9963C30.6841 73.7698 30.9893 73.6562 31.373 73.6562C31.7566 73.6562 32.0617 73.7698 32.2885 73.9963C32.5152 74.2056 32.6285 74.5022 32.6285 74.8857V84.7209C32.6285 86.5519 33.0906 87.9644 34.0149 88.9584C34.9565 89.9524 36.2818 90.4494 37.9908 90.4494C39.6997 90.4494 41.0338 89.9435 41.9929 88.9322C42.952 87.921 43.4316 86.5168 43.4316 84.7209V74.8857C43.4316 74.5022 43.5449 74.2056 43.7716 73.9963C43.9983 73.7698 44.3034 73.6562 44.6871 73.6562C45.0707 73.6562 45.3672 73.7698 45.5765 73.9963C45.7857 74.2056 45.8904 74.5022 45.8904 74.8857V84.6424C45.8904 86.2118 45.5677 87.5893 44.9225 88.7753C44.2773 89.9612 43.3531 90.8768 42.1498 91.5218C40.964 92.1668 39.5603 92.4896 37.9385 92.4896ZM50.6079 92.4896C50.2242 92.4896 49.9191 92.385 49.6924 92.1757C49.4831 91.9492 49.3785 91.6437 49.3785 91.2602V80.8757C49.3785 79.3936 49.6924 78.1119 50.3202 77.0306C50.948 75.9492 51.846 75.1211 53.0144 74.5456C54.2002 73.9529 55.5953 73.6562 57.1996 73.6562C58.8039 73.6562 60.1902 73.9529 61.3586 74.5456C62.5444 75.1211 63.4512 75.9492 64.079 77.0306C64.7068 78.1119 65.0207 79.3936 65.0207 80.8757V91.2602C65.0207 91.6437 64.9073 91.9492 64.6806 92.1757C64.4714 92.385 64.1749 92.4896 63.7913 92.4896C63.4076 92.4896 63.1025 92.385 62.8758 92.1757C62.649 91.9492 62.5357 91.6437 62.5357 91.2602V80.7972C62.5357 79.1755 62.0649 77.9199 61.1232 77.0306C60.199 76.1412 58.8911 75.6965 57.1996 75.6965C55.5255 75.6965 54.2177 76.1501 53.276 77.0567C52.3343 77.9461 51.8635 79.1927 51.8635 80.7972V91.2602C51.8635 91.6437 51.7501 91.9492 51.5234 92.1757C51.2967 92.385 50.9915 92.4896 50.6079 92.4896ZM69.7413 92.4896C69.3579 92.4896 69.0523 92.385 68.8258 92.1757C68.6166 91.9492 68.5119 91.6437 68.5119 91.2602V81.3989C68.5119 78.9751 69.2009 77.0829 70.5784 75.7227C71.9558 74.3452 73.857 73.6562 76.2807 73.6562C77.8852 73.6562 79.2716 73.9701 80.4398 74.5979C81.6257 75.2084 82.5235 76.0978 83.134 77.266C83.7617 78.4342 84.0756 79.8122 84.0756 81.3989V91.2602C84.0756 91.6437 83.9621 91.9492 83.7356 92.1757C83.5091 92.385 83.2035 92.4896 82.8201 92.4896C82.4539 92.4896 82.1572 92.385 81.9307 92.1757C81.7042 91.9492 81.5907 91.6437 81.5907 91.2602V85.9241H70.9707V91.2602C70.9707 91.6437 70.8572 91.9492 70.6307 92.1757C70.4214 92.385 70.1248 92.4896 69.7413 92.4896ZM81.5907 83.9361V81.3204C81.5907 79.5066 81.1371 78.1203 80.2305 77.1614C79.3239 76.1846 78.0071 75.6965 76.2807 75.6965C74.5543 75.6965 73.2375 76.1763 72.3309 77.1352C71.4243 78.0769 70.9707 79.4721 70.9707 81.3204V83.9361H81.5907Z" fill="#141414"/>
</svg>
