<svg width="100" height="100" viewBox="0 0 100 100" fill="none" xmlns="http://www.w3.org/2000/svg">
<path d="M50.0244 95.9769C24.6315 96.0116 4.02816 75.496 4.00002 50.0022C3.97849 24.4371 24.5851 4.26251 49.4797 4.00259C74.8278 3.73605 95.9295 24.0812 95.9676 50.0088C96.0139 75.3586 75.3924 95.9437 50.0244 95.9769ZM50.1287 6.06209C26.3053 5.85515 6.03472 25.101 6.02479 49.9691C6.01651 74.2494 25.3732 93.7369 49.5906 93.9422C74.6192 94.1524 93.9462 73.91 93.9329 50.0121C93.918 25.7516 74.3394 6.07368 50.1287 6.06209Z" fill="#141414"/>
<path d="M76.1954 52.4503C76.1557 63.1651 69.3928 72.9543 59.2608 76.4161C48.5427 80.0798 39.0167 77.7405 30.9889 69.832C26.7557 65.6633 24.3816 60.4516 23.8204 54.4866C23.0572 46.3595 25.5421 39.3417 31.2985 33.587C35.8182 29.0656 41.3825 26.6518 47.7746 26.276C55.9215 25.7976 62.8947 28.5408 68.6262 34.2889C73.0217 38.6976 75.4902 44.0782 76.0249 50.3113C76.0861 51.0232 76.1391 51.7368 76.1954 52.4503ZM57.6301 49.4703C55.496 48.2767 54.1534 46.4109 53.4448 44.1477C52.3356 40.6446 52.3124 37.2143 54.8653 34.2359C55.6202 33.3552 56.6102 32.6764 57.6797 31.7427C56.1003 31.7427 54.6517 31.7079 53.2097 31.7509C50.1436 31.8387 47.1901 32.438 44.4469 33.8734C40.9173 35.7177 38.9687 38.5222 39.025 42.6196C39.0481 44.3514 39.3064 45.9953 40.2203 47.6161C36.2387 45.9986 35.5748 43.0534 36.6939 39.1844C35.2238 40.234 34.4308 41.431 33.9822 42.8431C32.8233 46.4854 33.5401 49.8081 35.7552 52.8526C37.4952 55.2449 39.7981 57.0544 42.0596 58.9086C43.5695 60.1453 44.8194 61.5873 45.6621 63.3786C47.1521 66.5391 45.9932 70.4975 42.6043 71.6349C42.7215 71.7165 42.8481 71.7832 42.9817 71.8335C46.3673 72.5603 50.2662 71.072 52.132 68.3453C54.2527 65.2494 54.2676 62.0707 52.0442 58.7878C50.7777 56.9187 49.3953 55.1257 48.008 53.3393C46.4402 51.3179 44.9816 49.2518 44.6406 46.6261C44.3641 44.5119 44.6721 42.5369 46.1604 40.7207C46.1703 40.9641 46.1885 41.0667 46.1786 41.1661C46.001 42.6082 46.1256 44.0716 46.545 45.4629C46.9643 46.8542 47.6689 48.1429 48.6139 49.2468C49.9814 50.8891 51.5807 52.3576 53.1882 53.7764C55.3106 55.6488 57.4115 57.508 58.5224 60.2049C59.2823 62.0525 59.5157 63.9531 58.7558 65.8338C58.3188 66.9066 57.6466 67.8834 57.0473 68.9628C57.2706 68.9345 57.4918 68.8918 57.7095 68.8353C59.6118 68.2195 61.4262 67.4182 62.9361 66.0722C65.4194 63.8637 66.6909 61.1552 66.2753 57.7696C65.984 55.3989 64.9161 53.3708 63.5503 51.4636C62.6696 50.2319 61.7458 49.02 60.9743 47.7204C59.875 45.8678 59.8154 43.9606 61.0537 42.1031C61.1435 41.9248 61.2178 41.7394 61.2756 41.5485C60.8633 41.6346 60.5703 41.6694 60.2922 41.7555C58.3568 42.3647 56.9447 44.6676 57.2129 46.795C57.3271 47.6906 57.4926 48.5813 57.635 49.4736L57.6301 49.4703Z" fill="#141414"/>
<path d="M68.4374 24.0156C71.7667 23.1166 74.851 22.3021 77.922 21.4395C78.523 21.274 78.9733 21.3319 79.4319 21.7458C79.9418 22.2077 80.5196 22.5968 81.0113 23.0703C81.1636 23.2176 81.2464 23.6348 81.1454 23.7871C81.0444 23.9394 80.5991 24.105 80.4418 24.0189C79.7249 23.6199 79.2018 23.903 78.7713 24.4278C77.1323 26.4332 75.5066 28.4496 73.8941 30.4772C73.4189 31.0749 73.3047 31.694 73.8676 32.3513C73.9653 32.4655 73.8477 32.848 73.7203 33.035C73.6424 33.1476 73.2799 33.2188 73.1772 33.1377C71.727 32.0102 70.3015 30.853 68.8728 29.7074C69.1642 29.118 69.3844 28.7852 70.0515 29.1345C70.328 29.2786 70.9654 29.1792 71.1674 28.9508C72.5647 27.373 73.8891 25.7324 75.2351 24.1116L75.0977 23.9063C74.2004 24.1215 73.3014 24.3301 72.4057 24.5536C70.088 25.1364 67.752 25.6927 65.4425 26.33C64.5915 26.5651 64.2521 25.9526 63.7969 25.537C63.7191 25.4675 63.9061 24.9957 64.07 24.7887C65.9392 22.4362 67.8281 20.1001 69.7105 17.7592C70.2502 17.097 70.7502 16.4347 69.9655 15.5772C69.8728 15.4762 69.9986 15.0606 70.141 14.8951C70.2453 14.7742 70.626 14.7196 70.7469 14.8123C72.0779 15.8387 73.3881 16.8911 74.6772 17.9694C74.7931 18.0671 74.7715 18.486 74.6573 18.6466C74.5431 18.8071 74.1606 18.9495 74.0298 18.8734C73.3842 18.481 72.8213 18.63 72.3975 19.1333C71.1078 20.6763 69.8694 22.2524 68.4374 24.0156Z" fill="#141414"/>
<path d="M38.2747 24.7449C36.7731 25.7962 35.2947 26.8442 33.7948 27.8557C33.6706 27.9385 33.2832 27.8557 33.1955 27.72C33.0796 27.5544 33.0299 27.1455 33.1441 27.0428C33.8064 26.4204 33.611 25.7763 33.2037 25.182C31.8031 23.1357 30.3805 21.1049 28.9357 19.0895C28.3447 18.2617 27.8464 18.2054 27.0352 18.7501C26.2239 19.2948 25.4558 19.8544 24.6694 20.4057C24.0585 20.8378 23.8598 21.3991 24.3052 22.0381C25.7951 24.1903 27.2851 26.3425 28.8116 28.465C29.1774 28.9749 29.694 29.2927 30.3992 28.9351C30.5499 28.859 30.9803 29.0047 31.03 29.1388C31.1062 29.354 31.0631 29.7712 30.9108 29.8838C29.4903 30.9235 28.0368 31.9168 26.5782 32.9316C26.0534 32.5476 25.8051 32.2313 26.3531 31.6651C26.9011 31.099 26.5319 30.5063 26.1991 30.0096C25.4856 28.9302 24.7257 27.8806 23.984 26.8193C23.2721 25.8045 22.5734 24.7781 21.8318 23.7798C21.4841 23.3063 21.047 22.851 20.3815 23.144C19.9262 23.3443 19.519 23.389 19.4114 22.8659C19.36 22.6176 19.6216 22.1888 19.865 22.0149C22.239 20.3146 24.6396 18.6508 27.0335 16.977C28.1609 16.1873 29.2801 15.3827 30.429 14.6228C30.6145 14.502 31.0134 14.4755 31.174 14.5947C31.4687 14.8099 31.6194 15.1443 31.222 15.487C30.6757 15.9605 30.7701 16.5366 31.126 17.0515C32.6442 19.2501 34.1573 21.4537 35.75 23.5976C35.9983 23.9288 36.7185 24.2019 37.0959 24.0943C37.7962 23.8807 37.9883 24.187 38.2747 24.7449Z" fill="#141414"/>
<path d="M75.4852 36.4903C75.4826 34.7068 76.1882 32.9955 77.447 31.7321C78.7059 30.4689 80.4149 29.7574 82.1985 29.7539C85.7364 29.7539 88.4515 32.4988 88.4515 36.0649C88.4515 39.7733 85.4318 42.8228 81.7482 42.8311C78.2748 42.8394 75.4985 40.02 75.4852 36.4903ZM83.2944 31.5982C83.2332 31.5982 83.0958 31.5982 82.9633 31.6214C82.8542 31.6331 82.7466 31.6558 82.6422 31.6892C80.0363 32.5948 78.3609 34.4275 77.5414 37.0102C77.1689 38.1906 77.4934 39.2882 78.4801 40.1375C79.4668 40.9868 80.6108 41.2103 81.7912 40.6988C84.1686 39.6657 85.7894 37.8843 86.4383 35.3613C86.93 33.3961 85.397 31.5767 83.2944 31.5982Z" fill="#141414"/>
<path d="M41.4419 11.0463C42.9402 10.8807 44.4368 10.6738 45.9401 10.5496C46.1569 10.5314 46.4947 10.8393 46.6238 11.0794C48.2794 14.1289 49.9051 17.1966 51.5458 20.2561C51.8405 20.8075 52.0706 21.415 52.847 21.5144C52.9762 21.5293 53.1616 21.8852 53.1467 22.0706C53.1318 22.2561 52.9133 22.5375 52.7543 22.5673C51.1186 22.788 49.4786 22.9812 47.834 23.1467C47.6867 23.1616 47.3821 22.9001 47.3771 22.7593C47.3771 22.5441 47.5062 22.2014 47.6767 22.1253C48.1734 21.9084 48.6701 21.6468 48.5343 21.0773C48.3853 20.4299 48.0377 19.819 47.7231 19.2247C47.6701 19.1254 47.3109 19.1601 47.0973 19.1816C45.9748 19.2975 44.8491 19.4051 43.7349 19.5773C43.6026 19.6173 43.4804 19.6848 43.3761 19.7756C43.272 19.8664 43.1884 19.9782 43.1306 20.1038C42.9907 20.4627 42.9086 20.8416 42.8872 21.2263C42.8094 22.0657 43.1521 22.4978 43.9931 22.4994C44.4997 22.4994 44.6736 22.7395 44.609 23.1252C44.5679 23.2446 44.4984 23.3522 44.4064 23.4388C44.3143 23.5254 44.2027 23.5881 44.0809 23.6219C42.9386 23.7874 41.7879 23.9249 40.6357 24.0209C40.442 24.0374 40.0761 23.8355 40.0562 23.6898C40.0248 23.4679 40.1854 23.1931 40.3195 22.9762C40.5397 22.6186 40.932 22.314 41.0297 21.9432C41.7151 19.2495 42.3541 16.5427 42.9899 13.8309C43.2432 12.7498 42.9617 12.422 41.9005 12.1505C41.6207 12.0793 41.4386 11.6241 41.2118 11.3443L41.4419 11.0463ZM44.6487 13.0329C44.2332 14.9136 43.859 16.6089 43.4584 18.4184L47.1519 17.9615L44.6487 13.0329Z" fill="#141414"/>
<path d="M62.0637 12.9657C61.3551 15.8762 60.6432 18.7321 59.9727 21.5979C59.8072 22.2882 59.8486 22.962 60.6465 23.3676C60.8121 23.4554 60.8121 23.904 60.8783 24.1871C60.6449 24.2401 60.3816 24.3792 60.178 24.3328C58.7277 24.0017 57.2808 23.6706 55.8454 23.2766C55.5673 23.2021 55.1915 22.9355 55.1402 22.6971C55.0326 22.2005 55.4034 22.1293 55.8636 22.1111C56.6749 22.0763 56.9249 21.4009 57.097 20.7502C57.448 19.4257 57.7593 18.0797 58.0904 16.7421C58.448 15.2736 58.7989 13.8035 59.1483 12.3466C57.8818 11.6612 56.4166 12.0767 55.5425 13.3714C55.2792 13.7621 55.0822 13.9988 54.5657 13.7124C54.1286 13.4707 54.0177 13.2555 54.2644 12.8085C54.6899 12.0386 55.0408 11.2241 55.4961 10.4725C55.5887 10.3607 55.7069 10.2729 55.8406 10.2167C55.9744 10.1605 56.1198 10.1375 56.2643 10.1497C59.3734 10.8748 62.4743 11.6325 65.5668 12.4227C65.6988 12.4799 65.8148 12.5683 65.9051 12.6801C65.9953 12.792 66.057 12.9241 66.085 13.0651C66.1479 13.9161 66.1082 14.7736 66.1132 15.6279C66.1132 16.0318 66.1463 16.4093 65.5387 16.3828C65.0602 16.363 64.7954 16.2752 64.7391 15.7073C64.5719 14.065 63.7937 13.2753 62.0637 12.9657Z" fill="#141414"/>
<path d="M47.0726 86.6121C45.7167 87.0343 44.5297 87.0012 43.6837 85.9615C42.7947 84.8688 42.8841 83.5973 43.4751 82.3739C44.043 81.2001 45.187 80.7183 46.6952 80.9451C48.0047 81.1455 48.9633 82.008 49.1785 83.2629C49.4788 84.9306 49.2436 86.6507 48.5063 88.1766C47.5014 90.2659 44.8327 90.7112 43.1308 89.1434C42.5497 88.6104 42.8593 88.0061 42.9801 87.4515C43.0083 87.3223 43.5744 87.2561 43.889 87.2677C43.9902 87.2922 44.084 87.3402 44.1632 87.4078C44.2421 87.4753 44.3042 87.5606 44.3443 87.6568C44.5827 88.319 45.028 88.6501 45.7234 88.5905C46.4187 88.5309 46.672 88.0061 46.8673 87.4448C46.9468 87.2147 46.9849 86.973 47.0726 86.6121ZM47.2167 83.9632C47.2167 83.6967 47.2167 83.5593 47.2167 83.4219C47.1968 82.8292 46.9402 82.4136 46.3243 82.311C45.7085 82.2083 45.384 82.5692 45.2333 83.0874C45.1259 83.4838 45.0621 83.8907 45.0429 84.301C44.9999 84.9632 45.283 85.4416 45.9882 85.5128C46.6935 85.584 47.0163 85.1006 47.1687 84.4913C47.2019 84.3172 47.218 84.1404 47.2167 83.9632ZM48.0444 83.6768C47.9997 84.3026 47.9269 85.3009 47.8557 86.2992H48.0444V83.6768Z" fill="#141414"/>
<path d="M51.7629 87.6303C52.2016 87.7677 52.6503 87.8852 53.0791 88.0491C53.536 88.2147 54.0542 88.6865 54.4035 88.5756C54.8124 88.4448 55.127 87.8621 55.3704 87.4167C55.5094 87.1618 55.4266 86.7843 55.4399 86.5409C54.6518 86.675 53.9135 86.8902 53.1734 86.8936C52.6812 86.8841 52.2079 86.7025 51.8357 86.3803C50.8242 85.4301 50.6156 84.19 50.955 82.8871C51.2712 81.6703 52.2132 81.1223 53.3787 80.9485C55.127 80.6869 56.3438 81.4137 56.8835 83.1007C57.3934 84.6966 57.5656 86.3373 57.0292 87.968C56.3852 89.9183 53.8141 90.8354 52.1503 89.6236C51.7364 89.3222 51.6834 88.5226 51.4632 87.9531L51.7629 87.6303ZM52.1635 85.5691L52.2894 85.7843L52.3539 85.733L52.1702 85.5675C52.0046 84.6072 51.8391 83.6454 51.6983 82.7779C51.4318 83.6901 51.4086 84.6768 52.1635 85.5691ZM55.0442 84.195C54.9498 83.796 54.9498 83.3325 54.733 83.0179C54.5161 82.7034 54.0509 82.3176 53.7512 82.3557C53.4002 82.407 52.9913 82.8325 52.8291 83.1951C52.6801 83.5262 52.786 84.003 52.8506 84.4036C52.9582 85.0542 53.2612 85.5939 54.036 85.5029C54.7727 85.4201 55.0525 84.9234 55.0442 84.195ZM56.2031 86.6303L56.3686 86.6088C56.222 85.5228 56.0735 84.4361 55.9233 83.349L55.7064 83.3821L56.2031 86.6303Z" fill="#141414"/>
<path d="M62.499 78.543C63.6463 80.0545 62.3764 81.1157 62.2043 82.1206C62.9824 82.3507 63.8234 82.4319 64.4492 82.8408C64.9144 83.1454 65.2372 83.8341 65.3829 84.4235C65.8713 86.3572 64.3317 88.0078 62.0718 88.0657C60.7838 88.0988 60.4792 87.8703 59.966 86.8042C59.6199 86.0857 59.8004 85.7297 60.5355 85.5658C60.701 85.5311 60.8484 85.4864 61.0123 85.4433C61.2275 85.7281 61.3732 86.0956 61.6348 86.2214C61.9907 86.387 62.4907 86.531 62.8251 86.4052C63.1148 86.2976 63.4161 85.8142 63.441 85.4764C63.5436 84.0725 62.6132 83.4898 61.3351 84.0377C61.2066 84.078 61.0707 84.0877 60.9379 84.0661C60.8052 84.0445 60.6792 83.9924 60.5702 83.9136C60.4833 83.808 60.4194 83.6853 60.3827 83.5537C60.3457 83.4219 60.337 83.284 60.3567 83.1487C60.4196 82.7464 60.6131 82.3673 60.7439 81.9749C60.8648 81.6107 60.9758 81.2432 61.095 80.8707C60.1017 80.826 59.7574 81.1372 59.514 81.9931C59.4196 82.3242 59.0289 82.5759 58.6183 83.0378C58.2127 82.0445 57.918 81.3226 57.5638 80.4584L62.499 78.543ZM63.5916 83.5709L63.5651 83.5444L63.5867 83.5775L64.4292 85.4234C64.6527 84.7563 64.3764 84.0245 63.5916 83.5709Z" fill="#141414"/>
<path d="M14.2895 32.0759L14.5792 33.0493L14.3789 33.1801C15.9319 33.9268 17.4748 34.6983 19.0526 35.3886C19.2694 35.483 19.7959 35.2545 19.9532 35.0228C20.4747 34.2529 20.2843 33.4997 19.4035 32.5626C19.4418 32.4474 19.4918 32.3365 19.5525 32.2315C19.653 32.1116 19.7638 32.0007 19.8837 31.9004C20.4118 32.3242 20.9465 32.7066 21.4167 33.157C21.4893 33.2526 21.538 33.3644 21.5584 33.4828C21.5789 33.6011 21.5706 33.7228 21.5342 33.8374C20.8554 35.281 20.1436 36.7098 19.4168 38.1319C19.3224 38.314 19.0857 38.4249 18.9201 38.569C18.8416 38.3758 18.7497 38.1882 18.6453 38.0077C18.4582 37.7329 18.2976 37.372 18.0311 37.2313C16.7646 36.569 15.4766 35.9416 14.167 35.3655C13.9154 35.2562 13.5346 35.4383 13.2134 35.4814C12.975 35.5128 12.7333 35.5343 12.288 35.5823L13.9899 32.1106L14.2895 32.0759Z" fill="#141414"/>
<path d="M39.0165 87.2079L40.2053 87.8188C40.1441 88.6068 39.8362 88.9048 39.0729 88.6201C37.8445 88.1615 36.5996 87.7492 35.2966 87.2956C35.4456 86.8685 35.5499 86.5705 35.6708 86.2195L37.1442 86.5506L38.9902 81.324L37.7932 81.5608C37.2436 80.6088 37.2535 80.5228 38.2534 80.1536C39.0961 79.8423 39.8693 79.2 40.9023 79.7297C41.3824 79.9764 41.4934 80.1585 41.3113 80.6569C40.6374 82.4879 40.0017 84.3338 39.3544 86.1748C39.2319 86.5076 39.1324 86.8437 39.0165 87.2079ZM39.914 81.0939C39.2054 82.9569 38.4973 84.8189 37.7899 86.6798L38.0664 86.7774C38.6822 84.8835 39.2991 82.99 39.9173 81.0972L39.9421 81.0741L39.914 81.0939Z" fill="#141414"/>
<path d="M12.0724 36.0488C12.3058 36.4081 12.4317 36.5968 12.5525 36.7905C12.7462 37.1018 12.8621 37.5521 13.1402 37.7027C14.372 38.3649 15.6368 38.9775 16.9198 39.5354C17.1996 39.6563 17.6085 39.4891 17.9579 39.4477C18.1814 39.4212 18.4032 39.3798 18.8337 39.3136L17.1053 42.9276C16.8768 42.6876 16.5672 42.4972 16.5887 42.3648C16.7063 41.6926 16.2576 41.5022 15.799 41.2804C14.617 40.6993 13.4481 40.0834 12.2379 39.5619C11.9432 39.4344 11.5128 39.6132 11.1453 39.6563C10.9797 39.6745 10.7777 39.7788 10.6701 39.7142C10.6069 39.6609 10.5585 39.5922 10.5295 39.5149C10.5005 39.4374 10.4919 39.3538 10.5046 39.2722C10.9781 38.2557 11.4797 37.2557 12.0724 36.0488Z" fill="#141414"/>
<path d="M33.088 83.9718L34.3843 84.7681C33.7684 85.1423 33.3415 85.5677 32.8465 85.6737C31.224 86.0164 29.7372 84.2566 30.2819 82.6937C30.402 82.3563 30.561 82.0341 30.7553 81.7335C31.8745 80.0051 34.1095 80.116 35.1343 81.9222C35.4952 82.5596 35.078 82.9867 34.7667 83.399C34.684 83.5082 34.1707 83.399 33.9489 83.2533C33.8065 83.1589 33.8545 82.803 33.7833 82.5745C33.6923 82.2898 33.6377 81.8775 33.4357 81.7732C33.2337 81.6689 32.7735 81.755 32.5764 81.9388C32.244 82.2674 31.9732 82.6533 31.7768 83.0778C31.5616 83.5116 31.2801 84.091 31.8232 84.4022C32.1013 84.5678 32.6129 84.3046 33.0185 84.2367L33.088 83.9718Z" fill="#141414"/>
<path d="M18.2013 43.5469C19.337 41.2126 20.4313 38.966 21.5223 36.7194C21.9312 35.8784 22.3385 35.0373 22.7308 34.188C22.9262 33.7675 23.1547 33.6152 23.6315 33.8338C24.1083 34.0523 24.1 34.347 23.9013 34.7526C22.4726 37.6647 21.0389 40.5752 19.64 43.5005C19.1913 44.4359 18.7658 43.8515 18.2013 43.5469Z" fill="#141414"/>
<path d="M65.9489 81.1246L69.3659 78.9492C70.3493 80.0518 70.4536 80.6462 69.7417 81.0153L69.0911 80.3134L68.2832 80.8465C69.048 81.9425 69.3725 83.3083 71.1109 83.7586C70.2218 84.3198 69.5878 84.7337 68.9371 85.1162C68.8692 85.1433 68.7956 85.1529 68.7231 85.1443C68.6504 85.1355 68.5812 85.1089 68.5216 85.0665C68.4289 84.9754 68.4272 84.7817 68.409 84.6294C68.3775 84.3546 68.4405 84.0384 68.3262 83.8016C68.0718 83.3128 67.7789 82.8451 67.4504 82.4027C67.1922 82.0401 67.1028 81.4276 66.3959 81.6246C66.3214 81.6527 66.1624 81.3729 65.9489 81.1246Z" fill="#141414"/>
<path d="M73.702 81.7318C73.1325 82.1689 72.76 82.6755 72.4157 82.6573C72.0713 82.6391 71.7717 82.0845 71.4505 81.7649C71.7816 81.4454 72.0813 80.9372 72.462 80.8676C72.7435 80.8113 73.1342 81.313 73.702 81.7318Z" fill="#141414"/>
<path d="M57.6281 49.4766L57.7116 49.54C57.6932 49.54 57.6699 49.54 57.6615 49.54C57.6477 49.5211 57.637 49.5003 57.6298 49.4782L57.6281 49.4766Z" fill="#141414"/>
</svg>
