<svg width="100" height="100" viewBox="0 0 100 100" fill="none" xmlns="http://www.w3.org/2000/svg">
<path d="M14.8607 51.5045C15.3906 50.5328 15.3791 50.4103 14.6809 49.5476C14.4169 49.5476 14.0726 49.5476 13.7283 49.5476C10.5089 49.5438 7.28954 49.5476 4.07017 49.5304C3.5996 49.5285 3.10608 49.4826 2.66611 49.3315C1.63125 48.9757 1.06695 48.0518 1.1186 46.9538C1.16451 45.9744 1.79002 45.1729 2.80958 44.884C3.23233 44.7635 3.68568 44.7081 4.12564 44.7081C7.59942 44.6985 11.0732 44.6947 14.547 44.7253C15.14 44.731 15.7559 44.842 16.3145 45.039C17.0682 45.3068 17.554 45.8711 17.6784 46.7893H15.2375C15.0883 46.6668 14.8703 46.489 14.6312 46.2938H4.06825C3.53073 46.5272 3.39875 46.9347 3.52691 47.411C3.67037 47.9523 4.14094 47.9906 4.60386 47.9944C7.79071 48.025 10.9756 48.0537 14.1625 48.0824C14.5126 48.0862 14.8645 48.0728 15.2146 48.1015C16.5555 48.2067 17.6267 49.3238 17.6344 50.6131C17.642 51.824 16.5899 52.9851 15.3255 53.1515C15.1055 53.1802 14.8798 53.1725 14.6579 53.1725C11.121 53.1706 7.58221 53.1859 4.0453 53.1438C3.42935 53.1362 2.78089 52.9774 2.21085 52.7364C1.46483 52.4208 1.06312 51.7723 1 50.8618H3.40257C3.88079 51.6116 4.73967 51.6308 5.61577 51.6346C8.38753 51.6461 11.1593 51.6805 13.933 51.6843C14.2677 51.6843 14.6005 51.5562 14.8645 51.5026L14.8607 51.5045Z" fill="#141414"/>
<path d="M50.9547 53.0856H48.5732C48.5732 53.0665 48.5732 53.0455 48.5751 53.0263C48.0701 53.0761 47.567 53.166 47.062 53.1679C44.1315 53.1794 41.1991 53.1679 38.2685 53.1717C37.4537 53.1717 36.6847 53.011 35.9788 52.6055C34.219 51.5955 34.1444 49.4454 35.8181 48.2901C36.5259 47.8004 37.3351 47.6033 38.1672 47.5976C41.0977 47.5785 44.0301 47.5976 46.9606 47.6091C47.173 47.6091 47.3853 47.6837 47.6378 47.7296V49.1011C47.2858 49.1222 46.9511 49.1585 46.6144 49.1604C44.0971 49.1642 41.5797 49.1585 39.0624 49.1642C38.7162 49.1642 38.3546 49.1719 38.0256 49.2618C37.4001 49.4321 37.1208 49.8376 37.1208 50.4478C37.1208 51.0236 37.358 51.3908 37.9453 51.5936C38.2379 51.695 38.565 51.7371 38.8768 51.739C41.6161 51.7524 44.3572 51.7581 47.0984 51.7485C48.3953 51.7447 48.7913 51.3277 48.797 50.0193C48.8008 49.3192 48.8104 48.6172 48.7836 47.9171C48.7358 46.6182 48.2461 46.117 46.9664 46.1094C44.3228 46.0922 41.6773 46.0998 39.0318 46.1075C38.7831 46.1075 38.5134 46.1343 38.2877 46.2299C37.4231 46.5933 36.5489 46.4308 35.4279 46.4059C35.7684 45.9736 35.9482 45.6503 36.2122 45.4303C36.876 44.8775 37.6928 44.6958 38.5325 44.6939C41.463 44.6824 44.3955 44.6709 47.326 44.7168C47.9783 44.7264 48.6555 44.8947 49.2733 45.1185C50.3962 45.5279 51.0332 46.3944 51.0676 47.588C51.1135 49.2752 51.0752 50.9643 51.0638 52.6533C51.0638 52.8025 50.9873 52.9517 50.9509 53.0876L50.9547 53.0856Z" fill="#141414"/>
<path d="M84.8088 49.1207H71.9333V47.776H82.3451C82.0581 46.854 81.4728 46.4293 80.6732 46.2763C80.3327 46.2112 79.975 46.2036 79.6269 46.2055C77.3965 46.2132 75.166 46.2246 72.9356 46.2476C71.4168 46.2629 70.6517 47.0319 70.6383 48.5316C70.6325 49.0404 70.6191 49.5511 70.6325 50.0599C70.6593 51.1809 71.1586 51.7012 72.2776 51.7146C74.0929 51.7356 75.9101 51.7222 77.7255 51.7222C78.8732 51.7222 80.019 51.7337 81.1667 51.7146C81.534 51.7088 81.9013 51.6189 82.2647 51.5673C82.3852 51.179 82.4771 50.8825 82.588 50.5286C83.3436 50.3641 84.1145 50.3909 84.8911 50.5076C84.8031 52.0245 83.8792 53.0326 82.4847 53.1569C82.0409 53.1952 81.5933 53.1741 81.1476 53.1741C78.0564 53.1741 74.9671 53.1665 71.8759 53.1741C71.0266 53.176 70.2308 53.0173 69.5078 52.5639C68.8382 52.145 68.471 51.5482 68.4748 50.7428C68.4767 50.0102 68.5169 49.2738 68.4614 48.5449C68.2988 46.4255 69.7488 45.3179 71.3078 44.9181C71.8568 44.7766 72.4402 44.7192 73.0083 44.7154C75.4931 44.6962 77.978 44.7096 80.4647 44.7096C81.3351 44.7096 82.1786 44.8493 82.9591 45.2548C84.3842 45.9951 85.1742 47.6153 84.8108 49.1226L84.8088 49.1207Z" fill="#141414"/>
<path d="M31.2827 49.7017H33.5858C33.8116 51.5247 32.5357 53.0339 30.6897 53.1583C30.0241 53.2042 29.3526 53.1736 28.6851 53.1736C26.6784 53.1736 24.6738 53.1831 22.6671 53.1659C20.9303 53.1525 20.102 52.3166 20.0771 50.574C20.0618 49.4281 20.0771 48.2823 20.0733 47.1346C20.0733 46.8247 20.0446 46.5129 20.0293 46.1571C19.4784 46.1189 18.9829 46.0844 18.4263 46.0481V44.7397C18.9657 44.7014 19.4593 44.667 20.0082 44.6287C20.0542 44.1677 20.0962 43.7373 20.146 43.2285H22.3343C22.3821 43.6627 22.4299 44.1161 22.4931 44.6861H32.287V46.0844H22.4663C22.3974 47.917 22.3534 49.6443 22.4873 51.4749C22.9483 51.5247 23.3462 51.6031 23.7422 51.605C25.5575 51.6165 27.3709 51.6088 29.1862 51.6031C30.5138 51.5973 30.8198 51.3525 31.1718 50.0384C31.1967 49.9484 31.2292 49.8605 31.2789 49.6998L31.2827 49.7017Z" fill="#141414"/>
<path d="M66.6441 44.791H69.456C68.8707 45.7436 68.0366 46.2869 67.371 46.9851C66.69 47.6986 65.9669 48.3719 65.263 49.0644C64.5801 49.7339 63.8953 50.3976 63.2181 51.071C62.518 51.7653 61.8236 52.4635 61.0623 53.2268V58.271H58.9601V53.1101C56.1634 50.3651 53.4242 47.6756 50.5683 44.8713C51.6203 44.5729 52.4907 44.7661 53.4012 44.6973C55.5877 46.8378 57.7683 48.9745 60.0313 51.1896C62.254 49.0395 64.4634 46.9028 66.6441 44.7948V44.791Z" fill="#141414"/>
<path d="M99.36 47.1256C99.2491 47.1696 99.1649 47.2308 99.0788 47.2308C98.4438 47.2385 97.8087 47.2347 97.1373 47.2347C96.5863 46.4848 95.7963 46.3892 94.9317 46.4102C93.564 46.4427 92.1944 46.4198 90.8267 46.4102C90.2088 46.4064 89.6235 46.5097 89.1032 46.8655C88.4318 47.3227 88.0224 47.9061 88.0473 48.7688C88.0798 49.8821 88.0587 50.9973 88.053 52.1106C88.053 52.4224 88.0262 52.7342 88.009 53.1072H85.9603V44.8531C86.6298 44.549 87.2859 44.7556 87.9287 44.7135C88.0148 44.9469 88.0779 45.1152 88.1582 45.3275C89.1357 44.7345 90.1993 44.6657 91.2953 44.6886C92.8543 44.7231 94.4152 44.6886 95.9742 44.7058C97.4758 44.725 98.5853 45.406 99.2739 46.7488C99.3294 46.8559 99.3313 46.9879 99.36 47.1218V47.1256Z" fill="#141414"/>
<path d="M63.1742 45.1353C63.1455 46.7976 61.6534 48.2284 60.0026 48.1787C58.3537 48.1289 56.9899 46.7211 56.9956 45.0779C57.0013 43.3774 58.4073 41.9867 60.1098 42.0001C61.795 42.0135 63.2029 43.4539 63.1742 45.1353Z" fill="#141414"/>
</svg>
