<svg width="100" height="100" viewBox="0 0 100 100" fill="none" xmlns="http://www.w3.org/2000/svg">
<path d="M75.8554 11C75.6763 12.6737 75.6782 12.6888 73.9913 13.0394C72.2742 13.3956 70.8908 14.2626 69.9804 15.7592C69.2981 16.8806 68.695 18.0586 68.1465 19.2517C66.7706 22.2429 65.4474 25.2568 64.0998 28.2612C63.9754 28.5363 63.8284 28.8021 63.5871 29.2827C63.3723 28.4553 63.2045 27.8371 63.0518 27.2132C61.9549 22.7217 59.9607 21.0084 55.3524 20.6521C51.1266 20.3261 47.9846 22.0186 45.9886 25.777C44.7163 28.1726 44.1396 30.768 43.9115 33.4444C43.625 36.8107 43.6985 40.1581 44.7446 43.417C47.4116 51.7233 56.5134 54.2339 63.0217 48.3966C64.3788 47.1791 65.4361 45.626 66.6971 44.1502C67.1457 44.4235 67.7507 44.7929 68.4386 45.2132C66.3277 48.9395 63.5589 51.8327 59.4914 53.2105C51.7505 55.8341 41.7459 52.6073 38.9507 41.649C37.5842 36.2867 38.1289 31.0639 40.7714 26.1275C40.9015 25.8844 40.9693 25.6073 41.0673 25.3453C42.2717 24.0147 43.4742 22.684 44.6786 21.3514C44.9783 21.1271 45.2761 20.8972 45.5796 20.6785C50.4669 17.1615 57.9723 17.0503 62.6862 21.6172C62.8766 21.8019 63.1046 21.947 63.3968 22.1732C63.9471 20.6616 64.5163 19.2687 64.963 17.8343C65.6623 15.582 64.6539 13.7311 62.3922 13.0997C61.561 12.8679 60.6807 12.8188 59.793 12.6813C59.744 12.112 59.6969 11.556 59.6479 11C65.0516 11 70.4535 11 75.8573 11L75.8554 11Z" fill="#141414"/>
<path d="M48.1485 11C48.1165 11.556 48.0826 12.1102 48.0486 12.6982C47.2551 12.7623 46.5069 12.7849 45.7718 12.8905C43.4949 13.2165 42.5732 14.6132 43.2178 16.8184C43.559 17.987 44.0246 19.1179 44.4166 20.2714C44.5353 20.6201 44.5938 20.9895 44.6805 21.3495C43.4761 22.6802 42.2736 24.0109 41.0692 25.3435C40.826 25.6658 40.5829 25.9862 40.2794 26.3895C39.5085 24.5311 38.7546 22.7179 38.0044 20.9028C37.6105 19.9472 37.2109 18.9954 36.834 18.0341C35.6692 15.0599 33.8955 12.8377 30.2447 12.8264V11C36.212 11 42.1793 11 48.1485 11Z" fill="#141414"/>
<path d="M85.468 79.23C85.1702 79.1489 84.8761 79.0585 84.5765 78.9906C80.5392 78.0802 78.2944 74.7969 78.7411 70.5994C79.3913 64.4832 84.3635 62.7359 89.0359 63.3014C90.1027 63.4314 91.1375 63.8329 92.2232 64.1194C92.0083 65.0411 91.833 65.7912 91.6238 66.6903C91.3467 66.4302 91.1469 66.2568 90.9622 66.0664C88.8437 63.8857 85.5792 64.1213 83.7735 66.5866C82.0527 68.937 81.9189 73.1627 83.4889 75.6149C85.1042 78.1387 88.5742 78.6419 91.2129 76.7345C91.4315 76.5761 91.6426 76.4122 91.8895 76.2275C92.0667 77.6561 91.5974 78.4383 90.3873 78.7908C89.82 78.9567 89.2433 79.0848 88.6703 79.23H85.4661H85.468Z" fill="#141414"/>
<path d="M68.8813 79.2314C68.4666 79.1126 68.052 78.9882 67.6336 78.877C64.1806 77.9459 62.1205 75.277 62.1469 71.7015C62.1959 64.8615 67.3358 62.6808 72.5077 63.3103C73.5726 63.4404 74.6036 63.8456 75.661 64.1265C75.4461 65.0594 75.2746 65.8077 75.1031 66.5579C74.9843 66.6483 74.8656 66.7407 74.7469 66.8312C74.6281 66.5692 74.5716 66.2488 74.3831 66.0565C72.3701 63.9794 69.2884 64.102 67.4375 66.3128C65.4453 68.6934 65.2851 73.3771 67.1096 75.8689C68.7927 78.1702 72.078 78.5698 74.5998 76.7792C74.8449 76.6039 75.088 76.4249 75.3726 76.2176C75.4499 77.9403 75.0937 78.4586 73.6254 78.8488C73.1146 78.9845 72.5982 79.1051 72.0855 79.2314H68.8813Z" fill="#141414"/>
<path d="M8.00188 63.3984C9.09508 63.4456 10.1902 63.5624 11.2777 63.5153C11.8827 63.4889 12.0769 63.6717 12.2616 64.2051C13.3812 67.4338 14.5422 70.6474 15.6938 73.8648C15.7768 74.0985 15.8766 74.3247 16.0614 74.7865C17.5315 70.917 18.9282 67.2397 20.3135 63.5888H22.1889C21.435 65.4058 20.6961 67.1304 20.0025 68.8719C18.7868 71.931 17.5918 74.9976 16.4044 78.068C16.2178 78.5524 16.1123 79.0028 15.3979 78.8992C14.7269 78.803 14.0993 79.0405 13.728 78.0491C12.0335 73.5293 10.2203 69.0529 8.43916 64.5651C8.32984 64.2881 8.1489 64.0374 8 63.7754C8 63.6491 8 63.5247 8 63.3984H8.00188Z" fill="#141414"/>
<path d="M46.4313 25.582C46.6085 25.9929 46.7386 26.2624 46.846 26.5433C49.1587 32.5031 51.509 38.4497 53.7444 44.4396C54.1534 45.5366 54.0912 46.8107 54.2627 48.1263C52.508 48.1263 50.9832 48.1414 49.4621 48.1037C49.3019 48.0999 49.0889 47.8059 49.006 47.6023C47.419 43.7818 45.8433 39.9556 44.277 36.1276C44.1846 35.9014 44.1319 35.6413 44.1356 35.3982C44.1903 32.3278 44.6879 29.3441 45.9356 26.515C46.0563 26.2417 46.2165 25.9854 46.4313 25.5839V25.582Z" fill="#141414"/>
<path d="M60.0227 78.8889C58.9182 78.8889 57.8231 78.9248 56.7337 78.8607C56.5038 78.8475 56.1928 78.512 56.0947 78.2575C55.6876 77.2058 55.3295 76.1352 54.9921 75.059C54.8413 74.5803 54.6321 74.3315 54.078 74.3465C52.7926 74.3824 51.5033 74.3786 50.2179 74.3447C49.6807 74.3296 49.4263 74.5426 49.2736 75.0345C48.9683 76.0221 48.5781 76.9853 48.3086 77.9805C48.1257 78.6571 47.8336 79.0058 47.0891 78.8908C46.7253 78.8343 46.3427 78.8814 45.8508 78.8814C46.1354 78.2198 46.3898 77.6544 46.6254 77.0833C48.2765 73.0536 49.9314 69.0238 51.5712 64.9865C52.1875 63.4711 52.1706 63.4655 53.8914 63.4297C55.9213 68.5507 57.9588 73.6869 60.0227 78.8908V78.8889ZM52.3364 67.9495C52.2591 67.94 52.1819 67.9325 52.1046 67.9231C51.4543 69.5893 50.8022 71.2554 50.1218 72.9989H54.2099C53.5653 71.263 52.9509 69.6062 52.3364 67.9495Z" fill="#141414"/>
<path d="M41.1878 78.8434H37.5972C37.6462 77.9029 37.7273 77.0057 37.7348 76.1048C37.7612 72.7461 37.748 69.3873 37.7838 66.0286C37.7914 65.3199 37.5689 65.0824 36.8527 65.1672C35.8274 65.2897 34.7907 65.3236 33.7032 65.3971V63.5293H45.0441V65.3821C43.7926 65.3029 42.5317 65.2219 41.1897 65.137V78.8397L41.1878 78.8434Z" fill="#141414"/>
<path d="M26.0978 63.5488H29.5829V78.8422H26.0978V63.5488Z" fill="#141414"/>
<path d="M99.9676 78.8428H96.4901V63.5645H99.9676V78.8428Z" fill="#141414"/>
</svg>
