<svg width="100" height="100" viewBox="0 0 100 100" fill="none" xmlns="http://www.w3.org/2000/svg">
<mask id="mask0_298_642" style="mask-type:luminance" maskUnits="userSpaceOnUse" x="5" y="16" width="91" height="68">
<path d="M95.8345 16H5V83.199H95.8345V16Z" fill="white"/>
</mask>
<g mask="url(#mask0_298_642)">
<path d="M36.9867 37.5865C35.4782 33.8978 34.0727 30.4881 32.6975 27.0663C31.3223 23.6445 30.0442 20.3925 28.687 16.9828C30.1955 16.3215 30.759 16.9828 31.1769 18.0445C31.9766 20.1074 32.8065 22.158 33.6002 24.2147L37.4592 33.9221C38.9131 33.097 39.0221 31.7015 39.4766 30.6034C41.1727 26.5182 42.8064 22.4108 44.3774 18.2811C44.8257 17.0677 45.3346 16.3336 46.928 16.8493C44.4017 23.79 41.2818 30.476 38.6707 37.89C42.3056 38.0295 45.4497 37.993 48.9149 37.9324C48.9936 36.6583 49.1088 35.5844 49.1088 34.5167C49.1088 29.5841 49.1088 24.6515 49.1088 19.7251C49.1088 18.7483 49.2179 17.7715 49.3147 16.1698C50.1024 16.916 50.7324 17.2376 50.7384 17.5652C50.7929 20.2772 50.7384 22.9891 50.7384 25.7072C50.7384 29.0259 50.7384 32.3507 50.7384 35.6694C50.7384 37.9324 50.8838 37.987 53.7674 37.6411V16.9039C56.6155 16.4227 59.5301 16.5071 62.3457 17.1526C68.0038 18.3661 71.0328 22.88 70.6088 28.765C70.3726 31.9381 69.3002 34.8746 66.3682 36.7432C66.1501 36.8827 66.0653 37.2165 65.6777 37.8595C67.6525 38.0659 69.4032 37.9567 71.1298 37.981C72.8564 38.0052 74.5163 37.981 76.2368 37.981C76.4246 36.5006 75.2736 36.1124 74.6677 35.4086C71.5357 31.7683 71.0026 27.6912 72.711 23.2744C74.5285 18.6391 78.2602 16.3943 82.9551 16.0485C85.2358 15.9396 87.4974 16.5126 89.4521 17.6945C91.4067 18.8765 92.9664 20.6138 93.9324 22.6858C96.0526 27.2786 95.3499 31.5013 92.1997 35.3417C91.6545 36.003 90.7397 36.3671 89.9946 36.8646L90.4429 37.7262L95.768 38.1933C94.938 39.522 93.8354 39.1155 92.9631 39.1216C86.2326 39.1641 79.496 39.1216 72.7654 39.1216C64.4297 39.1216 56.0937 39.1216 47.7518 39.1216C39.8218 39.1216 31.8857 39.0123 23.9557 39.0003C18.4308 39.0003 12.9119 39.0912 7.38698 39.1095C6.53937 39.1129 5.7015 38.9286 4.93347 38.5695C7.30217 37.5138 9.77992 38.2419 12.6211 37.7443C11.8699 36.8343 11.3187 36.0941 10.6947 35.4206C6.33288 30.7732 6.96292 22.6798 11.9487 18.7119C16.9345 14.744 22.4958 15.3507 26.8576 18.9121C27.736 19.628 27.6814 19.6948 26.8576 20.8293C25.1916 19.9314 23.6286 18.8211 21.8899 18.1902C16.4801 16.2184 10.9855 20.4592 9.80415 25.2158C8.62283 29.9724 11.7912 35.7725 16.5468 37.2408C17.6969 37.6149 18.9176 37.7188 20.1143 37.5444C21.311 37.3699 22.4515 36.9219 23.4474 36.2349C24.4433 35.5478 25.2679 34.6403 25.8572 33.5826C26.4465 32.5252 26.7846 31.3457 26.8455 30.1362C25.4823 29.4081 23.9557 29.8207 22.5079 29.6994C21.5385 29.6145 20.9328 29.3536 21.4477 28.0492C21.9037 27.9829 22.3626 27.9403 22.823 27.9217C24.8221 27.9217 26.8212 27.9217 29.0627 27.9217C29.7896 31.9624 27.9419 34.7837 25.4279 37.3621C27.3968 38.0902 32.6308 38.2176 36.9867 37.5865ZM83.3307 37.5138C87.8561 37.8838 93.3326 33.6672 93.2417 27.5577C93.1569 21.982 89.1647 17.7291 83.4823 17.8079C77.0424 17.8929 73.862 22.6616 73.6742 27.5698C73.4683 32.8724 78.7388 37.8778 83.3307 37.5138ZM56.2453 18.4086C55.597 22.3036 55.7848 35.2872 56.4815 37.2892C63.109 38.1084 69.0883 34.3953 68.7732 27.679C68.4703 21.345 63.8905 17.7351 56.2453 18.4086Z" fill="#141414"/>
<path d="M61.2974 59.7795L65.4836 54.4466L66.0895 54.8106L65.0293 57.9412L66.7619 59.7613C64.0842 59.7613 63.127 61.4357 62.3879 63.4016C61.7276 65.2217 60.9037 66.9204 60.098 68.6496C59.8814 68.9938 59.796 69.4047 59.8571 69.8068C59.9183 70.2091 60.1221 70.5757 60.4312 70.8399C61.1823 71.4829 62.0184 71.1917 62.606 70.6032C63.3162 69.9103 63.9186 69.1149 64.3932 68.2431C65.4533 66.1925 66.3984 64.0811 67.3676 61.9819C68.0765 60.447 69.1124 59.1426 70.7844 58.8391C71.8422 58.6839 72.9217 58.8754 73.862 59.3851C74.8615 59.9373 74.6312 61.1508 74.3163 62.1335C74.0012 63.1165 73.6015 64.0022 73.238 64.9304C75.1644 66.2834 77.7027 66.1076 80.0835 64.3784C80.9793 63.7318 81.802 62.9891 82.537 62.164C84.312 60.1557 86.4384 59.9494 88.8314 60.7017C90.0429 61.0779 91.2545 61.3873 92.6176 61.7635C92.1755 59.0029 91.0789 57.4256 87.8258 54.7256C88.7438 54.1645 89.6204 53.5379 90.4489 52.8509C91.0989 52.1231 91.6865 51.3416 92.2057 50.515C91.7717 50.0218 91.2228 49.6437 90.6077 49.4139C89.9926 49.1842 89.3304 49.1103 88.6798 49.1986C85.7235 49.5625 83.6698 48.2703 82.0161 45.9708C81.3769 45.1916 80.6933 44.4503 79.9684 43.7504C79.6292 44.8181 79.3626 45.5159 79.1869 46.244C78.7568 48.2035 77.7269 49.4109 75.6368 49.8052C74.2193 50.0722 72.6381 50.236 71.5962 51.5828C72.0021 53.215 73.4136 53.6699 74.5888 54.3859C78.575 56.8673 78.5933 56.8491 78.5569 61.4905C78.5653 62.3332 78.3273 63.1598 77.8723 63.8687C77.61 63.4366 77.4063 62.9714 77.2665 62.4854C77.1726 61.7869 77.1726 61.0788 77.2665 60.3802C77.5513 58.2142 76.794 56.7399 74.7342 55.8359C73.4546 55.2552 72.27 54.4841 71.2206 53.5486C69.5971 52.1168 70.009 50.3998 72.0262 49.6111C72.9637 49.2531 73.9335 48.987 74.922 48.8163C75.7765 48.7177 76.5696 48.3229 77.1638 47.7002C77.758 47.0774 78.1158 46.266 78.1753 45.4067C78.3509 44.1932 78.5023 42.9797 80.2592 42.4277C81.3017 43.4029 82.2886 44.4359 83.2155 45.5219C83.8319 46.385 84.6528 47.0808 85.6047 47.5469C86.5565 48.0129 87.6092 48.2344 88.6678 48.1914C88.8676 48.1914 89.0736 48.1914 89.2736 48.1914C90.7456 48.3187 92.5752 48.0276 93.1265 49.8234C93.6233 51.4312 92.3814 52.6387 91.3091 53.6822C90.9293 53.9555 90.5049 54.1607 90.0551 54.2888C91.3999 56.2728 92.3693 57.6621 93.2901 59.0818C93.6302 59.5786 93.8917 60.1251 94.0655 60.7017C94.4229 62.0608 93.8292 62.9405 92.442 62.8616C91.1427 62.7919 89.8599 62.5385 88.6314 62.1092C86.4445 61.3205 84.9057 61.7513 83.4215 63.6625C80.6954 67.1814 76.994 68.2674 72.4624 67.1511C71.8567 68.1036 71.2873 69.141 70.6027 70.0996C68.5186 73.03 67.1495 73.3091 63.9388 71.4344C62.1638 72.6478 60.2434 73.4062 58.329 71.4344C56.6388 72.308 54.991 73.1392 53.216 71.8531C53.0915 71.7731 52.9503 71.7227 52.8032 71.7059C52.6562 71.6891 52.5073 71.7062 52.3679 71.7559C51.5976 72.238 50.7076 72.4937 49.7992 72.4937C48.891 72.4937 48.001 72.238 47.2307 71.7559C47.0421 71.7136 46.8467 71.7122 46.6575 71.752C46.4683 71.7917 46.2898 71.8717 46.1342 71.9864C44.4136 73.1453 42.9174 72.7934 41.5421 71.2099C40.7608 71.5921 40.0882 72.1321 39.3492 72.2474C38.0955 72.5144 36.8029 72.5432 35.5387 72.3323C33.9393 71.944 33.1881 70.4637 33.5758 68.7649C34.3286 65.6328 35.7254 62.6923 37.6772 60.1315C38.2853 59.4733 39.0916 59.0323 39.9731 58.8756C42.0269 58.4023 43.2445 59.7856 42.7234 61.8484C41.9178 65.0276 40.3548 66.2834 36.9683 66.4655C36.6716 66.4655 36.3625 66.5504 36.1081 66.5928C35.9324 66.7445 35.7265 66.8417 35.6355 67.0055C34.9874 68.1825 34.4239 69.3958 35.5387 70.5972C36.4776 71.5861 38.2223 71.6891 39.6703 70.4697C40.8859 69.4467 41.8848 68.1904 42.6083 66.7749C44.8922 62.1881 46.9702 57.5043 49.1571 52.8691C49.3097 52.54 49.5306 52.2472 49.8055 52.0108C50.0803 51.7742 50.4025 51.5993 50.7504 51.4979C50.6951 52.0936 50.5754 52.6816 50.393 53.2513C48.3817 57.741 46.322 62.2124 44.2865 66.696C43.8524 67.4888 43.5186 68.3325 43.2929 69.2077C43.1899 69.8145 43.408 70.761 43.8079 70.9854C44.1174 71.0777 44.4449 71.0929 44.7617 71.0295C45.0785 70.966 45.375 70.8259 45.6253 70.6215C46.4057 69.8572 47.0582 68.9722 47.5577 68.0004C48.4968 66.2228 49.2601 64.3603 50.1567 62.54C51.9136 59.0091 52.9434 58.5237 56.7661 59.2578C57.3817 59.3236 58.0007 59.3541 58.6198 59.3488C57.7838 61.2781 57.0568 62.989 56.3117 64.6877C55.7423 65.9801 55.1002 67.242 54.573 68.5344C54.2095 69.3777 53.846 70.3545 54.8699 70.9612C55.8937 71.5679 56.6449 70.9126 57.2931 70.2817C57.8441 69.6973 58.2999 69.0298 58.6441 68.3038C59.6375 66.326 60.5402 64.3116 61.5155 62.3278C61.9517 61.3024 61.9881 60.3984 61.2974 59.7795ZM50.1931 71.1856C50.7723 70.9914 51.3056 70.68 51.76 70.2709C52.2144 69.8617 52.58 69.3637 52.8344 68.8074C53.8037 66.9509 54.6518 65.0154 55.5059 63.1103C55.7246 62.7743 55.854 62.3881 55.8815 61.9879C55.8396 61.3402 55.5984 60.7213 55.191 60.2163C54.8881 59.9554 54.04 60.1011 53.5552 60.3256C53.015 60.5871 52.5701 61.0114 52.2831 61.5389C50.9807 64.1236 49.7205 66.7385 48.5392 69.3838C48.1393 70.2453 48.9997 71.2099 50.1931 71.1856ZM68.658 62.6372C67.5373 65.064 66.6528 66.8841 65.7987 68.7771C65.4472 69.5476 65.3139 70.5001 66.1925 70.8459C66.5438 70.9612 66.9173 70.9915 67.2828 70.9347C67.6481 70.8777 67.9948 70.735 68.2945 70.5183C69.2933 69.2587 70.2118 67.9375 71.0449 66.5625C70.6391 66.0962 70.2589 65.6081 69.906 65.1003C69.5547 64.5119 69.282 63.8749 68.658 62.6372ZM37.968 65.0276C38.227 65.0024 38.484 64.9598 38.7374 64.9002C39.8277 64.5301 41.3726 62.2852 41.3302 61.1567C41.3049 60.9625 41.2353 60.7767 41.1269 60.6135C41.0186 60.4504 40.8742 60.3144 40.7051 60.2158C40.5359 60.1174 40.3465 60.0591 40.1513 60.0456C39.9561 60.0319 39.7605 60.0634 39.5793 60.1375C38.4526 60.6046 37.0289 62.8555 37.241 64.0082C37.3137 64.3844 37.7499 64.712 37.968 65.0276ZM72.2141 59.8462C70.0271 62.1517 70.009 62.7403 71.9294 64.0568C72.5231 62.7463 73.5832 61.5632 72.2141 59.8221V59.8462Z" fill="#141414"/>
<path d="M26.9364 75.4021L28.3237 72.5445C27.2999 72.8721 26.7789 72.9994 26.2943 73.1997C23.9522 74.1607 21.3598 74.3248 18.9155 73.6669C15.941 72.9267 13.5481 69.9902 13.0998 66.6533C11.9609 58.1594 20.4482 48.9254 28.9901 49.5927C30.6794 49.7594 32.306 50.3204 33.7396 51.2309C35.9023 52.5777 36.2173 55.3989 34.8179 57.6559C34.2077 58.6514 33.2442 59.3792 32.1207 59.6931C30.9971 60.0071 29.7965 59.8839 28.7598 59.3486C26.5971 58.22 26.4214 56.0845 28.5296 54.3675C28.5513 54.7596 28.5513 55.1524 28.5296 55.5445C28.2631 57.6316 29.4081 58.8086 31.383 58.4567C32.0837 58.3325 32.7296 57.9961 33.2334 57.4925C33.7372 56.9891 34.0744 56.3431 34.2 55.6416C34.3754 55.0039 34.3418 54.3267 34.1041 53.7096C33.8664 53.0925 33.4369 52.5681 32.8793 52.2137C30.7711 50.6363 28.3661 50.5998 25.9611 51.0731C20.5088 52.1348 15.1656 57.8135 14.4931 63.3649C14.2692 65.0475 14.4584 66.7594 15.0444 68.3521C16.7891 72.6537 21.7083 74.0794 25.9489 71.7375C28.2289 70.427 30.0614 68.4586 31.2073 66.089C31.6859 65.179 31.8131 63.9292 33.5336 63.559C32.431 67.9091 29.826 71.4464 28.6872 75.7781C30.9711 76.3121 33.0671 76.852 35.1935 77.2828C40.985 78.4963 46.7644 79.7097 52.5862 80.7228C58.2383 81.6936 63.939 82.1304 69.6517 80.9655C71.7781 80.5287 73.7166 79.7097 75.104 78.0049C75.7462 77.1272 76.1924 76.1216 76.4126 75.0562C76.4713 74.8593 76.4839 74.6514 76.4493 74.4489C76.4148 74.2462 76.334 74.0544 76.2132 73.8882C76.0924 73.722 75.9349 73.5859 75.753 73.4907C75.5711 73.3956 75.3698 73.3437 75.1646 73.3392C74.8381 73.3633 74.5214 73.4604 74.2372 73.6231C73.9531 73.7859 73.7091 74.0101 73.5228 74.2797C73.0563 75.0805 73.7469 75.493 74.4679 75.7903C74.692 75.8753 74.8314 76.1968 75.013 76.397C74.4073 77.3617 73.5349 77.3314 72.9655 76.67C72.383 76.0346 72.0347 75.2193 71.978 74.3586C72.0326 72.8781 73.6439 71.8164 75.2433 71.9013C76.8426 71.9862 77.7331 72.9448 77.7937 74.68C77.8281 75.6455 77.6252 76.6048 77.2026 77.4734C76.7801 78.3419 76.151 79.0932 75.3705 79.6611C74.1317 80.6799 72.7023 81.441 71.1662 81.8999C66.5803 83.0709 61.97 83.6715 57.1781 82.6825C48.0427 80.8079 38.8404 79.2425 29.6806 77.4587C29.1115 77.2771 28.496 77.3065 27.9465 77.5414C27.3972 77.7764 26.9505 78.2015 26.688 78.739C25.4981 80.6262 23.6875 82.0383 21.5689 82.7311C19.3214 83.5258 16.3711 82.4277 15.7229 80.5044C14.9778 78.29 16.6437 75.5295 19.279 75.1716C21.3448 74.8863 23.4772 75.1716 25.5794 75.1716C26.0363 75.2182 26.4896 75.2953 26.9364 75.4021ZM26.1973 77.0341C24.0243 76.2287 21.6632 76.0789 19.4062 76.6033C17.6736 77.0462 16.6983 78.3203 16.983 79.5155C17.2738 80.8746 18.4369 81.6209 20.212 81.5601C23.1683 81.4631 24.7191 79.5884 26.2033 77.0341H26.1973Z" fill="#141414"/>
</g>
</svg>
