<svg width="100" height="100" viewBox="0 0 100 100" fill="none" xmlns="http://www.w3.org/2000/svg">
<mask id="mask0_298_21" style="mask-type:luminance" maskUnits="userSpaceOnUse" x="4" y="8" width="92" height="84">
<path d="M95.9677 8H4V91.3015H95.9677V8Z" fill="white"/>
</mask>
<g mask="url(#mask0_298_21)">
<path d="M35.0542 40.9272C36.371 42.7287 37.5708 44.3455 38.7638 45.9736C39.25 46.6357 39.1802 47.2662 38.5252 47.7391C37.6968 48.3381 37.4897 49.133 37.5213 50.0968C37.564 51.4074 37.5213 52.7225 37.5213 54.0354C37.5213 55.3482 38.0075 55.8369 39.2703 55.8369C42.0074 55.8549 44.7469 55.8234 47.484 55.8549C48.2336 55.8549 48.4519 55.5666 48.4497 54.8573C48.4301 50.4301 48.4301 46.0013 48.4497 41.5712C48.4497 40.8956 48.2899 40.5038 47.52 40.5286C47.1194 40.5421 46.7164 40.416 46.2077 40.3372C46.2077 38.6753 46.1717 37.0674 46.2505 35.4664C46.2505 35.2592 46.8808 34.8989 47.1937 34.9237C48.2449 35.0092 48.6388 34.6084 48.4947 33.5725C48.4551 33.2735 48.4551 32.9708 48.4947 32.6718C48.6365 31.4558 48.2246 30.6181 47.2027 29.8209C44.3642 27.6118 44.1616 23.3512 46.6354 20.7323C49.1092 18.1134 53.4513 18.1224 55.9094 20.7323C56.4951 21.356 56.9475 22.0925 57.2395 22.8968C57.5314 23.7011 57.6568 24.5564 57.6077 25.4107C57.5587 26.265 57.3363 27.1003 56.9541 27.8659C56.5721 28.6314 56.0381 29.3112 55.3849 29.8637C54.1514 30.886 53.5661 32.9037 54.1199 34.3877C54.1867 34.5057 54.279 34.6073 54.39 34.6852C54.501 34.7631 54.6277 34.8153 54.7614 34.8381C55.2969 34.8811 55.8344 34.8878 56.3708 34.8584C56.3708 36.6283 56.4114 38.306 56.3168 39.9769C56.3056 40.1863 55.5762 40.5038 55.1733 40.5151C54.3922 40.5353 54.1469 40.8101 54.1536 41.587C54.1806 45.9781 54.1806 50.3693 54.1536 54.7605C54.1536 55.6207 54.453 55.8481 55.2634 55.8346C57.888 55.7963 60.5149 55.8346 63.1417 55.8143C64.5103 55.8143 64.9425 55.3482 64.9605 53.9858C64.9605 52.5221 65.0348 51.0584 64.9245 49.5969C64.8698 48.9513 64.5995 48.3428 64.1569 47.8697C63.4006 47.1379 63.3736 46.4871 63.9318 45.7012C64.3055 45.1855 64.6746 44.663 65.0573 44.1586C65.8294 43.1475 66.615 42.1319 67.5199 40.979C68.7872 42.7332 70.0567 44.3793 71.1732 46.1245C71.3825 46.451 71.1462 47.345 70.8153 47.6783C70.5134 47.9548 70.2762 48.2944 70.1204 48.6732C69.9649 49.052 69.8946 49.4604 69.9149 49.8694C69.9554 52.2316 69.9149 54.5983 69.9464 56.9606C69.9712 59.9173 67.9498 61.9867 64.9605 62.0025C62.2594 62.0183 59.5582 62.034 56.857 61.9867C56.3139 61.9512 55.7712 62.0629 55.2863 62.3101C54.8012 62.5576 54.3922 62.9312 54.1019 63.3919C53.4266 64.3805 52.677 65.3218 51.9657 66.2878C51.5155 66.8936 51.0811 66.9184 50.6151 66.3059C49.852 65.2835 49.0597 64.2792 48.3281 63.241C47.7091 62.3583 46.8853 61.9912 45.8341 61.998C43.2072 62.0138 40.5826 61.998 37.9557 62.0205C34.3699 62.0363 32.2878 59.6921 32.5309 56.1229C32.6486 53.8725 32.6524 51.6177 32.5421 49.3672C32.5264 48.8448 32.1685 48.2278 31.7791 47.8472C31.1038 47.1829 30.9124 46.5726 31.4887 45.7845L35.0542 40.9272ZM47.9747 24.9388C47.9567 26.6818 49.5076 28.2941 51.2161 28.3166C52.9246 28.3392 54.525 26.7764 54.5588 25.0469C54.5599 24.1618 54.216 23.3111 53.6004 22.6754C52.9847 22.0397 52.1456 21.669 51.2611 21.6421C49.5324 21.6308 47.9927 23.1846 47.9747 24.9456V24.9388Z" fill="#141414"/>
<path d="M63.0829 11.5619C63.9833 11.8682 64.9377 12.2375 65.9259 12.5167C66.1375 12.5798 66.4301 12.3591 66.6845 12.2668C66.5697 11.9943 66.5314 11.607 66.3243 11.4718C65.4615 10.876 64.5531 10.3489 63.6074 9.89553C63.137 9.68161 62.5247 9.77393 61.9777 9.7289C61.8944 9.84149 61.8134 9.95408 61.7324 10.0712L61.1921 8.50837C61.7009 8.35524 62.2096 8.07375 62.7205 8.06925C67.1482 8.03547 71.5781 7.93639 76.0012 8.06925C82.0428 8.26066 86.3872 12.85 86.3827 18.3446C86.3707 35.4244 86.3707 52.504 86.3827 69.5838C86.3827 75.4004 81.3495 79.8051 76.0913 79.7983C69.8268 79.7983 63.5624 79.7983 57.2957 79.7781C56.8028 79.7781 56.3098 79.5033 55.8168 79.3547L55.8528 78.9381L57.7234 77.9248C57.5748 77.5577 57.4443 77.2267 57.3205 76.9182C58.1668 77.3551 58.9862 77.8347 59.8551 78.195C60.1702 78.3279 60.6046 78.177 60.9805 78.1545C60.8117 77.828 60.7104 77.4339 60.4628 77.1839C59.7875 76.4971 59.0425 75.8666 58.3244 75.2158C58.7453 74.0786 59.6435 73.984 60.5596 73.9817C63.747 73.9817 66.9366 73.9817 70.124 73.9817C72.1116 73.9817 74.1059 74.0245 76.0845 73.8736C78.9477 73.6485 80.3613 72.1284 80.6022 69.2505C80.6337 68.8767 80.6202 68.5007 80.6202 68.1246C80.6202 51.9471 80.6202 35.7689 80.6202 19.5899C80.6202 19.403 80.6202 19.2138 80.6202 19.0269C80.5572 15.6896 78.7947 13.8814 75.443 13.8228C72.7418 13.7755 70.0407 13.7305 67.3395 13.8476C65.3564 13.9399 63.7627 13.5548 63.0829 11.5619ZM64.4673 78.1973C62.9186 76.1526 61.2079 74.9185 59.8393 75.7044C60.8995 77.5285 62.653 78.5035 64.4673 78.1973ZM63.0222 75.8913C64.3097 77.0601 65.2034 78.5936 67.2337 78.2783C66.6395 76.2516 64.7914 75.1482 63.0222 75.8913ZM84.7822 62.3575C82.7969 62.9565 81.6647 65.0238 82.5538 66.4109C84.3748 65.1544 85.1289 63.7807 84.7822 62.3575ZM72.0418 10.0081C73.7458 12.26 75.2269 12.9738 76.1565 11.9965C74.6912 9.85274 73.6625 9.33256 72.0418 10.0081ZM84.8723 36.7199C82.4953 37.8616 81.5904 39.6473 82.7136 40.9354C83.7581 39.7239 85.2865 38.8051 84.8723 36.7199ZM84.8048 65.5732C82.8172 66.0934 81.6984 68.0751 82.5853 69.5028C84.314 68.4444 85.1199 67.0189 84.8048 65.5732ZM82.5133 60.1349C83.7198 58.9122 85.0839 57.9416 84.8318 55.9937C82.7586 56.5274 81.6647 58.4348 82.5133 60.1349ZM66.3468 75.8823C67.7987 77.909 69.2573 78.6724 70.4616 78.0689C69.2911 75.9048 67.9293 75.1572 66.3468 75.8823ZM82.5538 37.9652C83.6523 36.5803 85.2707 35.7133 84.8768 33.6461C82.7361 34.5018 81.8267 36.0871 82.5605 37.9697L82.5538 37.9652ZM84.8228 39.9919C82.6776 40.8926 81.7479 42.5883 82.5223 44.0655C84.242 43.0522 85.0974 41.5727 84.8295 39.9964L84.8228 39.9919ZM84.879 20.9252C82.6461 21.826 81.6647 23.6275 82.6281 25.1025C83.7828 23.9292 85.2054 22.9947 84.8858 20.9185L84.879 20.9252ZM82.5448 31.4212C84.5999 29.7819 85.1942 28.6357 84.735 27.271C82.6213 28.2393 81.7029 29.8945 82.5515 31.4145L82.5448 31.4212ZM84.8948 43.1152C82.5695 44.1173 81.5859 46.0021 82.6798 47.2992C83.7986 46.1282 85.2054 45.1757 84.9015 43.1085L84.8948 43.1152ZM84.5144 17.8424C82.9139 18.6418 81.829 20.6888 82.3129 22.0016C84.3703 20.9703 85.2369 19.3354 84.5211 17.8357L84.5144 17.8424ZM69.9731 12.1767C68.7036 10.2491 67.1414 9.43389 65.8809 10.0442C66.9028 11.7511 68.7059 13.2598 69.9799 12.1699L69.9731 12.1767ZM72.5955 75.9048C73.9123 77.8752 75.4903 78.6904 76.7238 78.0802C75.6433 76.0985 74.2072 75.3126 72.6023 75.8891L72.5955 75.9048ZM84.9038 49.5714C82.8036 50.2807 81.6804 52.2871 82.5448 53.8499C83.6275 52.5641 85.1919 51.6724 84.9106 49.5556L84.9038 49.5714ZM84.5684 59.1576C82.3174 60.6641 81.6084 62.1098 82.3872 63.4362C84.3996 61.8103 85.0051 60.6596 84.5752 59.1374L84.5684 59.1576ZM69.0593 9.92481C69.6805 11.7984 71.3845 12.7712 72.9264 12.1339C72.0755 10.2423 70.6034 9.40012 69.066 9.90904L69.0593 9.92481ZM82.3602 34.7495C84.3613 33.4141 85.1852 31.8603 84.5459 30.6331C82.7564 31.7117 81.4958 33.4839 82.367 34.7337L82.3602 34.7495ZM84.8925 24.0914C82.6753 25.0237 81.7412 26.7193 82.5921 28.3474C83.7175 27.0954 85.2212 26.1834 84.8993 24.0756L84.8925 24.0914ZM83.4362 14.2664C83.1773 15.9418 81.8245 17.106 82.2026 18.858C84.5571 17.7433 85.1221 15.9013 83.4429 14.2507L83.4362 14.2664ZM73.4621 77.9766C72.3839 76.148 70.5944 74.9163 69.3451 75.7427C70.4256 77.6028 72.1566 78.5395 73.4689 77.9608L73.4621 77.9766ZM84.5999 52.7916C82.349 54.3679 81.7007 55.6177 82.3625 56.9823C84.3253 55.6289 85.0974 54.2283 84.6067 52.7758L84.5999 52.7916ZM82.4615 50.2965C84.5279 48.9634 85.1942 47.7203 84.5301 46.5246C82.3962 47.9298 81.8447 48.9161 82.4683 50.2807L82.4615 50.2965ZM75.9337 75.2631C76.8679 77.837 78.6664 78.517 80.2105 76.9227L75.9337 75.2631ZM81.5814 12.3546V16.7322C83.2966 15.0613 83.6613 12.8387 81.5791 12.3388L81.5814 12.3546ZM78.5493 13.7057C79.0265 12.4356 78.5696 11.5799 78.0429 10.8211C77.4734 10.0036 76.6202 10.0712 75.5353 10.3954L78.5493 13.7057ZM78.7587 11.1971L80.4897 15.0411C81.318 14.0052 81.1807 13.145 80.9398 12.3095C80.663 11.3547 79.9607 11.0552 78.7564 11.1723L78.7587 11.1971ZM83.6973 72.5248L83.2876 72.1375L79.65 73.939C80.6945 74.7789 81.6376 74.6145 82.3715 74.1979C82.941 73.8466 83.2628 73.0787 83.695 72.5068L83.6973 72.5248ZM77.9978 74.9748C79.452 76.8146 81.4733 76.8011 82.2229 74.9748H77.9978ZM81.1042 71.6961C82.2454 71.9956 83.3011 72.0023 83.9584 71.1489C84.3185 70.6805 84.2825 69.9081 84.4243 69.2731L83.9899 69.0794L81.1042 71.6961Z" fill="#141414"/>
<path d="M34.6761 9.90259L36.666 11.4519L38.5658 12.9246C38.1651 13.8794 37.3435 13.8411 36.5782 13.8434C33.5776 13.8591 30.5771 13.8434 27.5743 13.8434C27.123 13.8406 26.6719 13.8661 26.2237 13.92C23.4348 14.2938 21.9469 15.9466 21.9469 18.766C21.9041 27.8883 21.8569 37.0062 21.8546 46.1331C21.8546 53.6769 21.9086 61.2207 21.9401 68.769C21.9559 72.2796 23.6531 74.0023 27.2074 74.0158C31.8219 74.0361 36.4364 74.0001 41.0508 73.9956C41.5778 73.9776 42.1052 74.0077 42.6265 74.0856C43.07 74.1449 43.4873 74.3288 43.8299 74.6164C44.1727 74.9038 44.4266 75.283 44.5623 75.7093C43.9186 75.5696 43.3828 75.4278 42.8381 75.3489C42.7359 75.3397 42.633 75.3512 42.5356 75.3829C42.4381 75.4147 42.3481 75.466 42.2709 75.5336C42.2382 75.6153 42.2267 75.7041 42.2373 75.7914C42.2479 75.8786 42.2803 75.9619 42.3316 76.0335C43.2703 77.0559 44.1707 78.1143 45.6833 78.3439C46.0615 78.4002 46.6963 78.765 46.6963 78.988C46.6963 79.6636 46.1425 79.8167 45.4987 79.8054C43.698 79.7716 41.8972 79.8054 40.0964 79.8054C35.671 79.8054 31.2411 79.7491 26.8157 79.8189C21.1883 79.909 16.1304 75.2589 16.1687 69.2351C16.279 52.3032 16.2632 35.3713 16.2182 18.4395C16.2047 13.1408 20.2879 8.24071 26.7392 8.08082C31.2411 7.96598 35.7431 8.04029 40.245 8.08082C40.6682 8.08082 41.0869 8.50642 41.5078 8.73386C41.2332 9.10542 41.0283 9.61435 40.6614 9.80576C40.3643 9.95889 39.8691 9.72695 39.4617 9.65939C39.0542 9.59184 38.6716 9.51977 37.9265 9.38691L39.1555 11.1074C37.8275 10.3777 36.6817 9.20676 34.6761 9.90259ZM18.0797 54.5844C19.0004 53.1342 21.006 52.4 20.2519 50.1955C18.082 51.2223 17.1974 52.9157 18.082 54.5844H18.0797ZM17.6295 48.0314C19.1287 47.3874 20.3307 46.1263 20.3532 45.1287C20.3667 44.7076 20.1596 44.2798 19.9953 43.6245C18.6943 45.0634 17.2964 46.0227 17.6273 48.0314H17.6295ZM19.9075 18.4079C17.992 19.705 17.2064 21.2701 17.8344 22.5018C19.9593 21.4772 20.8237 19.7703 19.9053 18.4079H19.9075ZM39.0722 75.8624C40.3778 77.7112 41.8859 78.5331 43.2028 78.1143C42.2956 75.9772 40.4993 74.9999 39.07 75.8624H39.0722ZM32.7043 75.8849C33.9986 77.7675 35.4549 78.5466 36.7943 78.1165C36.0267 76.0921 34.2259 75.0832 32.702 75.8849H32.7043ZM19.9751 40.697C18.082 41.9716 17.2086 43.6245 17.7669 44.881C19.5654 43.9195 21.1703 41.9266 19.9751 40.697ZM33.0802 12.2085C31.8444 10.0309 30.1764 9.17973 28.9451 10.0962C30.3452 11.8955 31.9434 13.1363 33.0802 12.2085ZM35.9276 75.6597C36.828 77.6098 38.3744 78.4881 39.8533 77.9566C39.178 76.1123 37.7419 75.2431 35.9276 75.6597ZM26.4736 75.9277C27.3582 77.7697 28.9902 78.6705 30.3633 78.0715C29.5732 76.0943 27.9007 75.1733 26.4781 75.9277H26.4736ZM18.019 28.7103C19.9615 27.8748 20.8732 26.1657 20.1146 24.783C18.1203 25.8819 17.3437 27.3479 18.019 28.7103ZM20.1956 37.5466C18.046 38.5262 17.0713 40.5169 18.199 41.6226C20.5986 39.3009 20.8034 38.882 20.1844 37.5466H20.1956ZM17.9222 67.1521C20.2001 65.4925 20.8484 64.2697 20.1596 62.9456C18.172 63.8936 17.3639 65.3596 17.9109 67.1521H17.9222ZM19.9863 59.7569C17.9379 61.2679 17.2356 62.5988 17.7939 63.8418C19.9525 62.7947 20.7832 61.2972 19.9751 59.7569H19.9863ZM20.2362 27.6992C18.2441 29.0661 17.4337 30.6536 18.1135 31.8584C20.2699 30.3564 20.9205 29.0796 20.2249 27.6992H20.2362ZM20.2632 56.4557C17.8997 57.9262 17.1253 59.579 18.2238 60.7478C19.1444 59.4664 20.9452 58.6603 20.2519 56.4557H20.2632ZM20.2137 53.1724C18.0752 54.6474 17.2874 56.1945 18.0617 57.478C19.1737 56.2598 20.9452 55.4491 20.2024 53.1724H20.2137ZM20.2137 21.1958C17.9875 22.9567 17.2874 24.4587 18.1878 25.5734C19.3245 24.3754 20.9452 23.4296 20.2069 21.2003L20.2137 21.1958ZM25.8141 9.98141C27.1646 12.0531 28.5467 12.7512 29.7893 12.0374C28.8461 10.1233 27.3717 9.33061 25.8073 9.9859L25.8141 9.98141ZM17.7939 35.2137C19.8445 33.9256 21.0735 32.3898 20.0178 30.8901C18.9689 32.1737 17.3302 33.0159 17.7939 35.2137ZM36.3711 12.2265C35.3221 10.425 33.6272 9.47924 32.2878 9.93637C33.1972 11.7446 34.9012 12.9539 36.3598 12.2265H36.3711ZM29.3053 75.6394C30.5388 77.6661 32.1685 78.5219 33.6001 77.9071C32.4431 76.6348 31.5248 75.081 29.294 75.6394H29.3053ZM20.1326 46.8784C18.0122 48.4548 17.3324 49.8194 18.0167 51.0332C20.342 49.2452 20.7629 48.4457 20.1214 46.8784H20.1326ZM19.0071 73.4146C19.4573 71.9734 20.7179 70.8204 20.2384 69.0752C17.9447 70.271 17.3549 72.2368 19.0026 73.4146H19.0071ZM20.1439 34.1418C18.0572 35.6776 17.409 36.9026 17.9087 38.301C19.8963 37.013 20.9565 35.6123 20.1439 34.1418ZM17.9559 70.0683C19.6487 68.7014 20.9632 67.3187 20.0403 66.123C18.1068 67.321 17.4315 68.5505 17.9559 70.0705V70.0683ZM26.3926 12.5756L26.6177 12.3279C26.0819 11.3911 25.5552 10.353 24.3509 10.1751C23.7342 10.0827 23.0499 10.4408 22.3948 10.5962L22.4264 11.0646L26.3926 12.5756ZM24.1281 74.4504C23.7364 77.1054 25.2536 78.4633 26.953 77.5265L24.1281 74.4504ZM20.9205 71.4825L20.6053 71.4082C19.9931 72.39 19.1692 73.3425 19.6036 74.6374C19.741 75.0472 20.3172 75.3129 20.9205 75.8421V71.4825ZM20.2857 12.6206L20.5108 12.9787H24.5625C23.6981 12.1027 22.7617 11.3618 21.5372 11.6275C21.0713 11.7131 20.6999 12.2693 20.2857 12.6161V12.6206ZM18.2981 19.0339L21.5642 16.1268C18.8878 15.8341 17.8929 16.7145 18.2981 19.0295V19.0339ZM18.8901 15.9511L22.8 14.1384C20.378 13.2331 19.347 13.724 18.8901 15.9466V15.9511ZM23.7432 76.6776L22.1315 73.1579C21.1703 75.1891 21.7511 77.1527 23.7432 76.673V76.6776Z" fill="#141414"/>
<path d="M19.9097 91.2986C19.2213 91.2833 18.5451 91.1135 17.9311 90.8016C17.317 90.4899 16.7809 90.0441 16.3622 89.4971C16.0706 89.1143 15.858 88.6772 15.7368 88.2113C15.6156 87.7454 15.5883 87.2601 15.6564 86.7836C15.7245 86.3071 15.8866 85.8488 16.1334 85.4354C16.3801 85.0221 16.7066 84.6621 17.0938 84.3763C18.042 83.6647 19.1886 83.2668 20.3737 83.238C21.5588 83.2094 22.7233 83.5514 23.7049 84.2164C24.2201 84.5792 24.6363 85.0652 24.9154 85.6304C25.1944 86.1954 25.3275 86.8214 25.3024 87.4513C25.2774 88.0811 25.095 88.6945 24.7718 89.2356C24.4487 89.7768 23.9952 90.228 23.4528 90.5487C22.5614 91.0644 21.643 91.2986 19.9097 91.2986Z" fill="#141414"/>
<path d="M95.9677 83.4258V91.0551H94.3109V88.4114H91.0673L89.1697 91.0326H87.2429C87.8349 90.1319 88.4247 89.2311 89.0302 88.2921C88.8951 88.1975 88.7848 88.1052 88.6633 88.0354C87.5671 87.4094 87.3127 86.4591 87.5378 85.2768C87.7426 84.2027 88.4697 83.6172 89.7077 83.4753C90.0818 83.4427 90.4577 83.4305 90.8332 83.4393L95.9677 83.4258Z" fill="#141414"/>
<path d="M26.7166 91.0483V83.4414H29.6294C30.649 83.4414 31.6687 83.4414 32.6884 83.4414C34.4284 83.4594 35.5742 84.9231 35.1645 86.594C34.9259 87.5781 34.2056 88.2199 33.0891 88.2852C31.8128 88.3618 30.532 88.3415 29.2625 88.3618C28.9878 88.3618 28.7155 88.3618 28.3621 88.3618V91.0415L26.7166 91.0483Z" fill="#141414"/>
<path d="M4 83.4824H5.77827L9.10969 87.6597L12.4456 83.4847H14.2464V91.0487H12.5874V85.946L12.4299 85.8987L9.10294 90.0714L5.76927 85.8424L5.64771 85.8739V91.0532H4.01127L4 83.4824Z" fill="#141414"/>
<path d="M55.4276 91.0628H53.8092V85.9083L53.6651 85.8407L50.2887 90.0743L46.9843 85.8633L46.8762 85.8813V91.0471H45.1925V83.4785H47.036C48.0827 84.8161 49.1722 86.2055 50.2909 87.6377L53.5999 83.4875H55.4254L55.4276 91.0628Z" fill="#141414"/>
<path d="M44.0806 89.5371V91.0481H36.128V83.4863H43.7408V84.9793H37.8095V86.3305H41.9017V87.8527H37.7937V89.5371H44.0806Z" fill="#141414"/>
<path d="M77.1337 83.4895H78.7297V88.6868L78.9232 88.7679L83.8596 83.4805H85.6604V91.0535H84.0419V85.854L83.8979 85.7774C82.2547 87.5316 80.6137 89.2881 78.9458 91.0783L77.145 90.9567L77.1337 83.4895Z" fill="#141414"/>
<path d="M66.0253 91.0733H64.1638L63.3467 89.5286H58.8448C58.5701 90.033 58.3 90.5329 58.0187 91.0531H56.1594C57.5234 88.4904 58.8605 85.9976 60.1976 83.4688H61.9759L66.0253 91.0733Z" fill="#141414"/>
<path d="M73.6337 91.0411V87.9402H68.4092V91.0298H66.7615V83.504H68.3507V86.3324H73.6382V83.4883H75.2702V91.0411H73.6337Z" fill="#141414"/>
</g>
</svg>
