<svg width="100" height="100" viewBox="0 0 100 100" fill="none" xmlns="http://www.w3.org/2000/svg">
<path d="M66.4405 91.6077C63.6819 92.6709 60.7921 93.4714 57.8036 93.9804H42.1638C41.1498 93.808 40.1482 93.6027 39.1589 93.3606C38.9947 92.7366 38.8141 92.1044 38.81 91.4805C38.7813 70.2086 38.7813 48.9367 38.81 27.669V24.9351H35.0745C30.1486 24.9351 25.2226 24.9351 20.2967 24.9556C19.6686 24.9556 18.7696 25.0459 18.4535 25.4523C14.8125 30.1155 11.2658 34.8526 7.43174 39.9099H18.6834V82.347C9.64842 73.9482 4 61.9659 4 48.6617C4 35.3575 9.7962 23.0673 19.0282 14.6562V22.9113H49.8195C53.9245 22.9113 57.348 25.5631 58.2265 29.3561C59.1624 33.4036 57.2864 37.6481 53.5058 39.208C51.8638 39.8853 49.9262 39.9346 48.1077 40.029C45.9362 40.1644 43.7483 40.0618 41.4044 40.0618V62.323C42.9642 62.323 44.5816 62.401 46.1907 62.2943C47.3647 62.2204 48.0051 62.6596 48.6127 63.6448C53.2636 71.1938 57.9596 78.7182 62.7009 86.222C63.8256 88.0077 65.0982 89.7154 66.4405 91.6077Z" fill="#141414"/>
<path d="M95.9678 48.6628C95.9678 60.3783 91.5837 71.0717 84.3631 79.1954C79.277 70.9814 74.4537 63.1738 69.5524 55.2841C77.8567 48.0224 81.8098 38.9176 80.5208 27.9656C79.4125 18.5817 74.8437 11.357 67.1715 6C84.0552 12.806 95.9678 29.3408 95.9678 48.6628Z" fill="#141414"/>
</svg>
