<svg width="100" height="100" viewBox="0 0 100 100" fill="none" xmlns="http://www.w3.org/2000/svg">
<path d="M16.8628 65.4043V78.6864H13.2023V68.7435H10.643L10.1296 73.3524C9.73769 76.9346 8.04852 78.7217 5.0621 78.7217H4V75.363H4.62707C5.19535 75.363 5.63038 75.1944 5.92432 74.8613C6.21826 74.5282 6.41422 73.9795 6.50436 73.2192L7.41361 65.4004H16.8628V65.4043Z" fill="#141414"/>
<path d="M28.0951 75.5158V78.6864H19.4454V65.4043H27.9462V68.5749H23.0864V70.5502H27.4523V73.5288H23.0864V75.5197H28.0951V75.5158Z" fill="#141414"/>
<path d="M38.285 68.7043H33.8837V78.6864H30.2036V65.4043H38.285V68.7082V68.7043Z" fill="#141414"/>
<path d="M46.2213 79.0266C45.1592 79.0266 44.1755 78.8541 43.278 78.5053C42.3805 78.1565 41.6045 77.6705 40.9539 77.0513C40.3034 76.4321 39.7978 75.6953 39.4372 74.8409C39.0766 73.9865 38.8964 73.0537 38.8964 72.0426C38.8964 71.0314 39.0766 70.0987 39.4372 69.2443C39.7978 68.3938 40.3034 67.6531 40.9539 67.0339C41.6045 66.4146 42.3805 65.9286 43.278 65.5838C44.1755 65.2349 45.1553 65.0625 46.2213 65.0625C47.2873 65.0625 48.2593 65.2389 49.1529 65.5838C50.0425 65.9326 50.8146 66.4146 51.4574 67.026C52.1001 67.6413 52.6057 68.3742 52.9663 69.2286C53.3268 70.0791 53.5071 71.0197 53.5071 72.0465C53.5071 73.0733 53.3268 74.01 52.9663 74.8644C52.6057 75.7188 52.104 76.4517 51.4574 77.0631C50.8107 77.6784 50.0425 78.1565 49.1529 78.5053C48.2593 78.8541 47.2834 79.0266 46.2213 79.0266ZM46.2213 75.613C46.7269 75.613 47.1894 75.5267 47.6166 75.3465C48.0398 75.1701 48.4082 74.9232 48.7178 74.6057C49.0275 74.2883 49.2665 73.912 49.439 73.477C49.6114 73.042 49.6976 72.5638 49.6976 72.0426C49.6976 71.5213 49.6114 71.0471 49.439 70.6121C49.2705 70.177 49.0275 69.7969 48.7178 69.4833C48.4082 69.1698 48.0398 68.919 47.6166 68.7426C47.1933 68.5663 46.7269 68.4761 46.2213 68.4761C45.7158 68.4761 45.2454 68.5663 44.8183 68.7426C44.3871 68.919 44.0148 69.1659 43.7091 69.4833C43.3995 69.8008 43.1565 70.177 42.9762 70.6121C42.7999 71.0471 42.7097 71.5252 42.7097 72.0426C42.7097 72.5599 42.796 73.0381 42.9762 73.477C43.1526 73.912 43.3995 74.2883 43.7091 74.6057C44.0187 74.9232 44.3871 75.1701 44.8183 75.3465C45.2454 75.5228 45.7158 75.613 46.2213 75.613Z" fill="#141414"/>
<path d="M61.0359 65.4238C61.7452 65.4238 62.3958 65.5453 62.9915 65.7844C63.5873 66.0235 64.1046 66.3566 64.5475 66.776C64.9903 67.1992 65.3352 67.7048 65.5821 68.2927C65.829 68.8806 65.9545 69.5194 65.9545 70.2131C65.9545 70.9068 65.833 71.5495 65.5821 72.1374C65.3352 72.7253 64.9903 73.2309 64.5475 73.662C64.1046 74.0931 63.5873 74.4262 62.9915 74.6653C62.3997 74.9043 61.7452 75.0258 61.0359 75.0258H59.0449V78.6903H55.3844V65.4277H61.0359V65.4238ZM60.6008 71.816C61.079 71.816 61.467 71.6671 61.757 71.3732C62.047 71.0792 62.192 70.6873 62.192 70.2052C62.192 69.7232 62.047 69.3509 61.757 69.0452C61.467 68.7434 61.079 68.5905 60.6008 68.5905H59.0449V71.816H60.6008Z" fill="#141414"/>
<path d="M74.2438 79.0266C73.1817 79.0266 72.198 78.8541 71.3005 78.5053C70.403 78.1565 69.627 77.6705 68.9764 77.0513C68.3258 76.4321 67.8202 75.6953 67.4597 74.8409C67.0991 73.9865 66.9188 73.0537 66.9188 72.0426C66.9188 71.0314 67.0991 70.0987 67.4597 69.2443C67.8202 68.3938 68.3258 67.6531 68.9764 67.0339C69.627 66.4146 70.403 65.9286 71.3005 65.5838C72.198 65.2349 73.1778 65.0625 74.2438 65.0625C75.3098 65.0625 76.2818 65.2389 77.1753 65.5838C78.065 65.9326 78.8371 66.4146 79.4798 67.026C80.1226 67.6413 80.6282 68.3742 80.9887 69.2286C81.3493 70.0791 81.5296 71.0197 81.5296 72.0465C81.5296 73.0733 81.3493 74.01 80.9887 74.8644C80.6282 75.7188 80.1265 76.4517 79.4798 77.0631C78.8332 77.6784 78.065 78.1565 77.1753 78.5053C76.2818 78.8541 75.3059 79.0266 74.2438 79.0266ZM74.2438 75.613C74.7494 75.613 75.2118 75.5267 75.639 75.3465C76.0623 75.1701 76.4307 74.9232 76.7403 74.6057C77.0499 74.2883 77.289 73.912 77.4614 73.477C77.6339 73.042 77.7201 72.5638 77.7201 72.0426C77.7201 71.5213 77.6339 71.0471 77.4614 70.6121C77.2929 70.177 77.0499 69.7969 76.7403 69.4833C76.4307 69.1698 76.0623 68.919 75.639 68.7426C75.2157 68.5663 74.7494 68.4761 74.2438 68.4761C73.7382 68.4761 73.2679 68.5663 72.8407 68.7426C72.4096 68.919 72.0373 69.1659 71.7316 69.4833C71.422 69.8008 71.179 70.177 70.9987 70.6121C70.8223 71.0471 70.7322 71.5252 70.7322 72.0426C70.7322 72.5599 70.8184 73.0381 70.9987 73.477C71.1751 73.912 71.422 74.2883 71.7316 74.6057C72.0412 74.9232 72.4096 75.1701 72.8407 75.3465C73.2679 75.5228 73.7382 75.613 74.2438 75.613Z" fill="#141414"/>
<path d="M95.9677 75.3277V81.0771H92.609V78.6864H85.5701V81.0771H82.2114V75.3277H83.4263C83.6419 75.0886 83.8143 74.7712 83.9476 74.3792C84.0808 73.9873 84.1984 73.419 84.3003 72.6822C84.3983 71.9415 84.5002 70.9931 84.5942 69.8251C84.6883 68.6611 84.802 67.1875 84.9274 65.4043H94.6234V75.3277H95.9677ZM88.1881 68.7238C88.1372 69.6331 88.0823 70.4405 88.0157 71.142C87.953 71.8435 87.8746 72.4588 87.7805 72.9918C87.6865 73.5209 87.5767 73.9756 87.4552 74.3557C87.3377 74.7359 87.2005 75.0573 87.0476 75.3238H91.0335V68.7199H88.1881V68.7238Z" fill="#141414"/>
<g opacity="0.8">
<path d="M78.6801 61.4991C78.6801 61.4991 74.1848 52.3321 72.5661 30.3219L63.1797 34.0961L64.618 39.3713L58.3042 39.5712L58.6844 18L44.3637 24.8507L44.5048 31.1606L33.7387 34.2176L34.1385 27.9665L22.9335 32.4618L20.7153 34.8799L21.1738 59.9471L22.8708 61.5853L29.7804 61.844V60.0059L33.6133 61.844H59.0802L58.5002 60.3468L60.8987 61.4442L78.6762 61.503L78.6801 61.4991ZM65.0766 56.3062H62.5409V53.7508H65.0766V56.3062ZM72.1076 46.0379H74.3847V50.0119H72.1076V46.0379ZM71.6491 60.6604H69.2309V57.3643H71.6491V60.6604ZM70.8495 54.2878H67.6162V51.0505H70.8495V54.2878ZM66.9735 34.7349H70.4498V38.6502H66.9735V34.7349ZM66.9735 44.6426H69.7678V47.4409H66.9735V44.6426ZM65.0766 47.4409V50.7566H62.5409V47.4409H65.0766ZM61.7609 41.7699H64.618V44.6466H61.7609V41.7699ZM28.1461 53.2335H24.8892V48.8793H28.1461V53.2335ZM30.1017 38.6541H26.1865V34.7389H30.1017V38.6541ZM35.377 36.1772H38.8337V40.2728H35.377V36.1772ZM41.048 55.0716H37.0936V51.0584H41.048V55.0716ZM42.0866 47.6996H38.8298V43.8666H42.0866V47.6996ZM42.3453 37.8742H46.1195V42.1069H42.3453V37.8742ZM47.5186 57.3683H43.9051V53.7548H47.5186V57.3683ZM47.8165 25.9481H50.8107V29.6635H47.8165V25.9481ZM52.3118 42.1069H50.0739V39.1715H52.3118V42.1069ZM56.2075 51.8736H53.5502V48.1582H56.2075V51.8736ZM56.7483 33.179H53.8716V29.6635H56.7483V33.179Z" fill="#141414"/>
</g>
</svg>
