<svg width="100" height="100" viewBox="0 0 100 100" fill="none" xmlns="http://www.w3.org/2000/svg">
<path d="M99.3522 54.7994C99.245 54.9182 99.0829 55.0216 99.042 55.1594C98.9078 55.6071 98.5244 55.8138 98.1993 56.0687C96.8234 57.145 95.2635 57.8744 93.5747 58.3067C92.7469 58.5185 91.8886 58.6304 91.0372 58.732C90.2076 58.8302 89.3685 58.9025 88.5336 58.9043C87.5455 58.906 86.5564 58.8276 85.5691 58.7673C85.0811 58.7372 84.5949 58.6769 84.1086 58.6184C83.083 58.4944 82.0591 58.3514 81.0326 58.2352C79.9093 58.1077 78.78 58.0259 77.6593 57.8796C76.4646 57.7228 75.2664 57.7306 74.0735 57.7831C73.0557 57.8279 72.0396 57.982 71.0305 58.1379C69.9125 58.3101 68.8032 58.5348 67.6922 58.7467C66.9244 58.8931 66.1646 59.0816 65.3942 59.2056C64.6771 59.321 63.9512 59.402 63.2262 59.4485C62.2947 59.5079 61.3596 59.5397 60.4255 59.5397C59.7414 59.5397 59.0565 59.4864 58.375 59.4269C57.6065 59.3598 56.8405 59.2633 56.0745 59.1729C55.3077 59.0825 54.5426 58.98 53.7766 58.8879C52.7736 58.7673 51.768 58.6657 50.7668 58.5314C49.3159 58.3368 47.8589 58.2886 46.4001 58.3635C45.696 58.3997 44.9972 58.5271 44.2966 58.6235C44.0508 58.6571 43.8975 58.8293 43.7755 59.03C43.704 59.1488 43.596 59.2272 43.4862 59.1126C43.1446 58.7561 42.7707 58.9869 42.4213 59.0549C41.8706 59.1626 41.3303 59.3219 40.7848 59.4597C40.2698 59.5897 39.7565 59.7257 39.2398 59.8472C38.9548 59.9143 38.6664 59.9755 38.3753 60.0056C37.5763 60.0891 36.7763 60.2002 35.9746 60.2157C34.8871 60.2364 33.7978 60.1993 32.7112 60.1468C32.0184 60.1132 31.3291 60.0065 30.6381 59.9307C30.1745 59.8799 29.7109 59.8213 29.2465 59.7783C28.4561 59.7051 27.6657 59.6396 26.8745 59.5759C25.5203 59.4665 24.1661 59.3649 22.812 59.2521C21.6643 59.1566 20.5158 59.0592 19.369 58.9473C18.4392 58.8569 17.5129 58.732 16.5823 58.6451C16.0847 58.5986 15.5819 58.5848 15.0817 58.5822C14.2652 58.5788 13.4469 58.565 12.6339 58.6166C11.9533 58.6606 11.2728 58.7656 10.6018 58.8913C9.56046 59.0859 8.57489 59.4554 7.63203 59.9315C6.79286 60.3552 6.06698 60.9382 5.36636 61.5538C5.24698 61.6589 5.10233 61.7708 4.95332 61.801C4.54985 61.8811 4.3503 62.1532 4.1917 62.4847H3.6035C3.70459 62.2703 3.93115 62.1049 3.84837 61.8165C3.83617 61.7743 3.92593 61.6951 3.97995 61.6451C4.95593 60.7435 6.04083 59.9901 7.25384 59.4399C8.30127 58.9654 9.40273 58.6451 10.5321 58.3979C12.4736 57.9725 14.4351 57.9347 16.4054 57.9855C17.0345 58.0018 17.6628 58.0733 18.292 58.1146C18.4236 58.1232 18.6031 58.1827 18.5107 57.9123C18.4907 57.8529 18.6353 57.7065 18.7338 57.6462C19.064 57.4421 19.4083 57.2596 19.7446 57.0632C19.7769 57.0443 19.7864 56.9883 19.8065 56.9496C19.7673 56.9565 19.7228 56.9539 19.6897 56.9728C19.3237 57.1778 18.9577 57.3836 18.5952 57.5937C18.4872 57.6557 18.3826 57.7332 18.2885 57.5894C18.1909 57.4404 18.2806 57.3534 18.4096 57.2819C18.7407 57.0994 19.0719 56.916 19.4004 56.73C19.4518 56.7007 19.4936 56.6525 19.539 56.6137C19.4701 56.6232 19.3917 56.6137 19.3342 56.6447C19.0283 56.8058 18.7285 56.9771 18.4262 57.1425C18.3608 57.1778 18.2894 57.2329 18.2231 57.2286C18.1499 57.2243 18.0419 57.1786 18.0192 57.1226C17.9974 57.0701 18.055 56.972 18.1003 56.9108C18.1525 56.8402 18.2301 56.7877 18.2963 56.7265C18.6414 56.5664 18.9874 56.4071 19.3316 56.2435C19.3464 56.2366 19.3438 56.1909 19.349 56.1634C19.3194 56.1599 19.281 56.1436 19.261 56.1556C18.9412 56.3468 18.6231 56.5405 18.305 56.7343C18.2327 56.7515 18.1613 56.7782 18.0872 56.7834C18.0062 56.7894 17.9242 56.7773 17.8432 56.773C17.8737 56.6723 17.8754 56.5431 17.9417 56.4785C18.0367 56.3864 18.1822 56.3459 18.3007 56.2745C18.3512 56.2443 18.3878 56.1918 18.4305 56.1496C18.5621 56.1203 18.7251 56.141 18.7564 55.9516C18.8444 55.9283 18.9316 55.9051 19.0196 55.8827C19.0109 55.8586 19.0022 55.8336 18.9935 55.8095C18.9168 55.8594 18.8401 55.9102 18.7634 55.9602C18.6545 56.0265 18.5464 56.0919 18.4375 56.1582C18.2684 56.2228 18.0959 56.2805 17.9321 56.3554C17.8136 56.4097 17.7029 56.4579 17.6201 56.321C17.5217 56.1591 17.6741 56.1152 17.77 56.0601C18.0977 55.8715 18.4305 55.6915 18.7591 55.5038C18.7974 55.4823 18.82 55.4323 18.8497 55.3962C18.7983 55.3979 18.7373 55.3815 18.6981 55.403C18.3852 55.5744 18.075 55.7518 17.7665 55.93C17.6471 55.9989 17.5234 56.0678 17.431 55.9111C17.3378 55.7544 17.4493 55.6932 17.58 55.6235C17.9042 55.4521 18.2188 55.2635 18.5351 55.0784C18.5752 55.0552 18.6022 55.0078 18.6353 54.9725C18.5865 54.9759 18.5281 54.963 18.4898 54.9846C18.1883 55.1525 17.8937 55.3342 17.587 55.4926C17.5051 55.5348 17.3674 55.5503 17.2916 55.5107C17.1696 55.4461 17.2219 55.2756 17.377 55.1895C17.7177 55.0009 18.0602 54.8149 18.3992 54.6229C18.4384 54.6005 18.461 54.5497 18.4915 54.5127C18.441 54.5153 18.3817 54.5015 18.3425 54.5239C18.0393 54.6901 17.7395 54.8614 17.4406 55.0345C17.3221 55.1034 17.1914 55.1723 17.1025 55.0207C17.0188 54.8778 17.1112 54.7891 17.248 54.7211C17.5391 54.5773 17.8258 54.424 18.1107 54.2673C18.1717 54.2337 18.2162 54.17 18.2684 54.1192C18.204 54.1312 18.1325 54.1295 18.0776 54.1588C17.8197 54.2948 17.5626 54.4343 17.3125 54.5841C17.1757 54.6651 17.0284 54.7107 16.9456 54.5592C16.8724 54.4248 16.9822 54.3353 17.1182 54.2707C17.4014 54.1364 17.6759 53.984 17.9495 53.8307C18.0192 53.7911 18.0698 53.7187 18.129 53.6619C18.0558 53.6809 17.9748 53.6869 17.9094 53.7205C17.6506 53.8557 17.3962 54.0003 17.14 54.1407C16.8916 54.2767 16.8097 54.2328 16.7966 53.9642C16.794 53.9013 16.8001 53.8255 16.7679 53.7799C16.6119 53.556 16.6563 53.4329 16.9169 53.3218C17.2236 53.1909 17.5068 53.0083 17.797 52.8413C17.8319 52.8215 17.8441 52.7612 17.8659 52.719C17.8197 52.7242 17.7656 52.7164 17.7282 52.7371C17.4354 52.899 17.1478 53.0686 16.8542 53.2296C16.7653 53.2787 16.652 53.3657 16.5814 53.2098C16.5282 53.0927 16.5335 52.9903 16.679 52.9171C17.0066 52.7526 17.3282 52.5743 17.6489 52.3961C17.6951 52.3703 17.7212 52.31 17.7569 52.2652C17.7029 52.2712 17.641 52.2626 17.5966 52.2859C17.3212 52.4348 17.0554 52.6019 16.7757 52.7405C16.6877 52.7845 16.5065 52.8077 16.4699 52.7612C16.3792 52.645 16.4385 52.5235 16.5805 52.4486C16.8681 52.2962 17.1513 52.1386 17.4345 51.9785C17.4729 51.9569 17.4972 51.9122 17.5286 51.8777C17.4781 51.8803 17.4197 51.8665 17.3787 51.8872C17.1469 52.0052 16.9195 52.1292 16.6921 52.254C16.577 52.3177 16.4394 52.415 16.3505 52.2661C16.2442 52.0861 16.3993 52.006 16.5448 51.932C16.8245 51.7907 17.1008 51.6418 17.3744 51.4894C17.4145 51.467 17.4354 51.4127 17.4659 51.3723C17.4171 51.38 17.3622 51.3757 17.3204 51.3972C17.0607 51.5316 16.8027 51.6693 16.5474 51.8123C16.4611 51.8605 16.3784 51.9406 16.3025 51.8123C16.2363 51.6995 16.225 51.5918 16.3696 51.5143C16.5317 51.4274 16.6903 51.3335 16.8446 51.2336C16.8838 51.2086 16.9029 51.1518 16.9308 51.1096C17.079 51.1062 17.2384 51.1182 17.2402 50.9021C17.2899 50.9012 17.3395 50.8995 17.3883 50.8987C17.3866 50.8823 17.3848 50.8659 17.384 50.8496C17.3387 50.8685 17.2933 50.8883 17.248 50.9073C17.1443 50.977 17.0415 51.0476 16.9378 51.1174C16.7627 51.1949 16.5901 51.2784 16.4106 51.3464C16.3418 51.3731 16.259 51.3645 16.1823 51.3723C16.1875 51.2827 16.1684 51.1802 16.2058 51.1062C16.2398 51.0382 16.3296 50.9917 16.4036 50.9503C16.6764 50.7979 16.9552 50.6558 17.2236 50.4982C17.2724 50.4698 17.2881 50.3846 17.3186 50.3252C17.2637 50.3415 17.2036 50.3493 17.1548 50.3768C16.9029 50.5198 16.6572 50.673 16.4028 50.8117C16.3208 50.8565 16.218 50.9813 16.1291 50.828C16.0455 50.6834 16.0803 50.5689 16.2459 50.4896C16.4699 50.3829 16.6851 50.2589 16.9038 50.1409C16.9605 50.1099 17.0171 50.0772 17.0685 50.0384C17.099 50.016 17.1199 49.9816 17.1443 49.9523C17.1051 49.9506 17.0581 49.9342 17.0284 49.9497C16.7993 50.0694 16.5788 50.2072 16.3426 50.3123C16.2459 50.3553 16.1108 50.5206 16.0124 50.3433C15.9322 50.1986 16.0359 50.0798 16.1753 50.0074C16.462 49.8576 16.7487 49.7095 17.0345 49.5571C17.0764 49.5347 17.1077 49.4942 17.1443 49.4615C17.0886 49.458 17.0215 49.4322 16.9779 49.4537C16.7548 49.5631 16.5413 49.694 16.3156 49.7973C16.2233 49.8395 16.0568 49.8774 16.0115 49.8318C15.8965 49.7164 15.9801 49.6001 16.1021 49.5175C16.1257 49.5011 16.1352 49.4641 16.1509 49.4365C16.4245 49.316 16.6982 49.1971 16.97 49.074C16.9918 49.0637 17.0005 49.0241 17.0154 48.9982C16.9883 48.987 16.9509 48.9595 16.9361 48.9681C16.6755 49.1248 16.4176 49.285 16.1588 49.4451C15.9642 49.4038 15.8901 49.2451 15.9366 48.9689C16.0211 48.9612 16.1161 48.9741 16.1884 48.9405C16.442 48.8226 16.6868 48.6882 16.9352 48.5599C16.9631 48.5453 17.0005 48.5298 17.011 48.5048C17.0258 48.4721 17.0241 48.4282 17.0171 48.392C17.0154 48.3834 16.9544 48.3722 16.9334 48.3843C16.6023 48.5797 16.2738 48.7778 15.9444 48.9758C15.7936 48.7278 15.8015 48.6374 16.015 48.5117C16.2642 48.3645 16.523 48.2318 16.7783 48.0949C16.8254 48.07 16.8873 48.0631 16.9239 48.0286C16.9587 47.9959 16.9683 47.9382 16.9892 47.8909C16.9465 47.8995 16.8986 47.8986 16.8611 47.9184C16.6232 48.0424 16.3906 48.1785 16.1483 48.293C16.0655 48.3317 15.9017 48.3619 15.8712 48.3231C15.7797 48.2052 15.8372 48.076 15.9636 47.9994C16.1108 47.9107 16.272 47.8444 16.4167 47.7514C16.4899 47.704 16.5378 47.6196 16.598 47.5516C16.6877 47.5456 16.7766 47.5395 16.8664 47.5335C16.8603 47.5077 16.8533 47.4827 16.8472 47.4569L16.6058 47.5593C16.4324 47.6394 16.2633 47.7316 16.0838 47.7936C16.0019 47.822 15.9 47.7918 15.8067 47.7884C15.8424 47.6859 15.8599 47.5714 15.9183 47.4836C15.9697 47.4061 16.0664 47.3578 16.1431 47.2967C16.374 47.1968 16.6067 47.0986 16.835 46.9936C16.8576 46.9833 16.8594 46.929 16.8707 46.8954C16.8411 46.892 16.8027 46.8748 16.7836 46.8868C16.5709 47.0229 16.3609 47.1641 16.1501 47.3036C15.8651 47.3234 15.6734 47.4345 15.5758 47.7316C15.2229 48.8036 14.8342 49.8636 14.4874 50.9365C14.3 51.5161 14.1711 52.1137 14.0134 52.7018C13.9942 52.7733 13.9654 52.8465 13.9236 52.9076C13.8556 53.0075 13.7711 53.0238 13.6892 52.9171C13.6761 52.8998 13.67 52.8783 13.6587 52.8602C13.04 51.9061 12.403 50.9641 11.8087 49.9954C11.3817 49.2987 11.0131 48.5668 10.6157 47.853C10.5931 47.8116 10.5469 47.7824 10.512 47.7471C10.4868 47.791 10.4406 47.834 10.4388 47.8788C10.4301 48.2008 10.4493 48.5255 10.424 48.8467C10.3517 49.7448 10.2646 50.642 10.1774 51.5393C10.1277 52.0517 10.0781 52.564 10.0075 53.0738C9.95346 53.4656 9.87503 53.8548 9.79399 54.2423C9.69117 54.7357 9.59008 55.2308 9.46199 55.7182C9.25546 56.4992 9.02192 57.2768 8.49124 57.9149C7.80457 58.7415 6.90614 59.2349 5.86045 59.4803C5.10146 59.6586 4.33984 59.7033 3.56342 59.5802C2.95779 59.4846 2.50117 59.1488 2.09597 58.7432C1.25941 57.9114 0.930892 56.8962 1.01193 55.7251C1.08339 54.6909 1.49382 53.8608 2.3783 53.2951C3.32988 52.6854 4.69451 52.6837 5.59206 53.4819C6.11926 53.9504 6.29006 54.5497 6.29616 55.2214C6.2979 55.3979 6.3223 55.5735 6.33711 55.7501C6.50181 55.682 6.67174 55.6252 6.83033 55.5443C7.20591 55.3531 7.57626 55.1533 7.94573 54.951C8.00063 54.9208 8.03723 54.8597 8.08167 54.8123C8.01196 54.8218 7.93266 54.8123 7.87515 54.8433C7.51264 55.0354 7.15711 55.2386 6.79548 55.4315C6.72576 55.4685 6.63949 55.4745 6.56107 55.4952C6.58634 55.4117 6.59679 55.3204 6.63949 55.2463C6.84253 54.8916 7.24338 54.8097 7.56057 54.6117C7.75228 54.492 7.96578 54.405 8.16707 54.2991C8.20019 54.2819 8.22197 54.2431 8.24899 54.2139C8.20193 54.2053 8.14442 54.1751 8.11043 54.1923C7.88735 54.3026 7.6695 54.4231 7.4499 54.5402C7.37322 54.5807 7.30089 54.6324 7.21985 54.6582C7.13707 54.6849 7.04557 54.6857 6.95756 54.6978C6.98457 54.6091 6.99328 54.5084 7.0447 54.436C7.12051 54.3275 7.22595 54.2397 7.31919 54.1433C7.67298 53.9917 8.02765 53.841 8.38057 53.686C8.40148 53.6765 8.40845 53.6352 8.4224 53.6085C8.37795 53.593 8.31783 53.5517 8.29168 53.5672C7.96752 53.7566 7.64771 53.9547 7.32703 54.1502C7.12313 54.0451 7.11441 53.7937 7.33313 53.6697C7.6878 53.469 8.05902 53.2968 8.41978 53.1065C8.47555 53.0772 8.51389 53.0178 8.56095 52.9722C8.49908 52.9765 8.4285 52.9618 8.37795 52.9877C8.07122 53.1435 7.76971 53.3106 7.46472 53.469C7.42028 53.4923 7.36363 53.4931 7.31309 53.5043C7.30699 53.4449 7.27736 53.3726 7.30089 53.3295C7.35405 53.2322 7.42463 53.1401 7.5048 53.0634C7.61111 52.9636 7.73398 52.8809 7.84988 52.7913C8.14616 52.7121 8.43982 52.6251 8.63851 52.3694C8.66203 52.3401 8.66203 52.2928 8.67336 52.254C8.64199 52.2721 8.61062 52.291 8.57838 52.3091C8.45812 52.378 8.33177 52.4383 8.21849 52.5158C8.09213 52.6019 7.97711 52.7035 7.85772 52.7991C7.75751 52.831 7.65904 52.8671 7.55709 52.893C7.50916 52.905 7.42725 52.9188 7.41069 52.8964C7.37845 52.8525 7.34969 52.7612 7.37409 52.7276C7.47605 52.589 7.59804 52.4658 7.7122 52.3367C8.00848 52.217 8.3065 52.099 8.60104 51.9759C8.63676 51.9612 8.67336 51.9208 8.68469 51.8846C8.70212 51.8261 8.69863 51.7615 8.70386 51.6986C8.66116 51.727 8.61846 51.7563 8.57489 51.7847C8.50344 51.8304 8.43111 51.8743 8.36053 51.9208C8.14703 52.0611 7.93441 52.2032 7.72091 52.3436C7.62506 52.3152 7.5292 52.2867 7.43335 52.2592C7.49173 52.1515 7.52223 51.9974 7.61198 51.9457C7.93615 51.7606 8.28123 51.6134 8.61411 51.4429C8.66726 51.4162 8.7239 51.3464 8.73 51.2905C8.75005 51.1225 8.74917 50.952 8.75179 50.7833C8.75179 50.7437 8.73262 50.704 8.72216 50.6644C8.68382 50.6748 8.64199 50.6782 8.60888 50.6972C8.33961 50.8513 8.07645 51.0158 7.80108 51.1596C7.7244 51.2 7.61634 51.1828 7.5231 51.1923C7.55273 51.0769 7.56144 50.9486 7.61896 50.8487C7.66514 50.7686 7.77058 50.7213 7.84988 50.6601C7.88212 50.6593 7.91785 50.667 7.94661 50.6558C8.20019 50.5551 8.46074 50.4664 8.6995 50.3389C8.77009 50.3011 8.78142 50.1529 8.81627 50.0548C8.8215 50.0393 8.80582 50.016 8.79884 49.9962C8.77357 50.01 8.74656 50.0221 8.72303 50.0384C8.55833 50.1547 8.39364 50.2709 8.22981 50.3889C8.10433 50.4802 7.98059 50.5749 7.85685 50.6687C7.74444 50.6369 7.55709 50.6317 7.53356 50.5671C7.46995 50.3966 7.62331 50.3002 7.76448 50.233C8.06599 50.0909 8.3736 49.9609 8.67249 49.8137C8.72129 49.7896 8.73872 49.7052 8.77009 49.6483C8.71432 49.6604 8.65332 49.6621 8.60365 49.6862C8.31434 49.8292 8.02939 49.9816 7.73921 50.1228C7.56841 50.2063 7.5048 50.159 7.51352 49.9842C7.52049 49.8412 7.49347 49.6948 7.51613 49.5553C7.53269 49.4529 7.578 49.3203 7.65643 49.2695C7.92656 49.0947 8.21413 48.944 8.50257 48.7976C8.57402 48.7614 8.67249 48.7752 8.75789 48.7666C8.73087 48.8734 8.73959 49.0249 8.67075 49.0792C8.49472 49.2169 8.28123 49.3082 8.08777 49.4262C7.96491 49.5011 7.85075 49.5889 7.73311 49.6716C7.86731 49.6234 8.00412 49.5795 8.13657 49.5261C8.34484 49.4434 8.50257 49.1963 8.78055 49.334C8.7849 49.3366 8.85026 49.2626 8.85113 49.223C8.86769 48.8277 8.87901 48.4325 8.88163 48.0364C8.88163 48.008 8.78229 47.9468 8.76834 47.9563C8.65768 48.0321 8.55746 48.1216 8.45377 48.2069L8.46422 48.1983C8.24201 48.3025 8.02416 48.4161 7.79585 48.5057C7.71481 48.5375 7.61024 48.5126 7.51613 48.5134C7.55011 48.411 7.55622 48.2827 7.62419 48.212C7.74705 48.0846 7.90652 47.9916 8.05118 47.884L8.04072 47.8934C8.21064 47.8297 8.37621 47.7298 8.55136 47.7092C8.92694 47.6652 8.90603 47.4293 8.89819 47.1563C8.88686 46.7611 8.91039 46.3659 8.91474 45.9706C8.91648 45.8001 8.86856 45.7622 8.70386 45.8681C8.41542 46.0541 8.11305 46.2212 7.80718 46.377C7.7305 46.4158 7.56144 46.4201 7.52833 46.3745C7.44555 46.2582 7.48476 46.1394 7.63464 46.0619C7.95183 45.8974 8.26031 45.7157 8.57663 45.5495C8.63676 45.5177 8.71867 45.5108 8.78926 45.5151C8.94698 45.5246 9.08118 45.3687 9.01147 45.2344C8.9984 45.2085 8.89731 45.1974 8.85984 45.2189C8.49385 45.4281 8.13657 45.652 7.76797 45.8552C7.69303 45.8966 7.52659 45.9129 7.49522 45.8724C7.4011 45.7467 7.46995 45.6339 7.60589 45.5599C7.94748 45.3739 8.28907 45.1862 8.62979 44.9967C8.68033 44.9692 8.72477 44.9313 8.77183 44.8986C8.70299 44.8986 8.62195 44.877 8.56705 44.9046C8.3065 45.0363 8.05466 45.1844 7.79585 45.3205C7.69825 45.3722 7.578 45.4944 7.48737 45.3429C7.4011 45.1982 7.48302 45.0837 7.63203 45.0062C7.91872 44.8564 8.20106 44.6971 8.48339 44.5395C8.51651 44.5205 8.54091 44.4861 8.56879 44.4585C8.52174 44.4499 8.46248 44.4189 8.42937 44.4361C8.2089 44.5507 7.99976 44.685 7.77581 44.7909C7.69477 44.8288 7.53356 44.8469 7.49696 44.8021C7.395 44.679 7.47605 44.5584 7.59891 44.4835C7.7366 44.4 7.88299 44.3294 8.02416 44.2501C8.11827 44.1976 8.21151 44.1416 8.3004 44.0814C8.32741 44.0624 8.34048 44.0228 8.35965 43.9927C8.3187 43.9927 8.2699 43.9798 8.23853 43.9961C8.07732 44.0831 7.92569 44.1899 7.75925 44.2648C7.67996 44.3001 7.517 44.3156 7.49086 44.276C7.41243 44.1554 7.456 44.0297 7.59281 43.9522C7.75315 43.8618 7.91436 43.7722 8.07122 43.6767C8.12176 43.6457 8.15923 43.5957 8.20367 43.5544C8.1479 43.5656 8.08777 43.5682 8.0381 43.5905C7.93092 43.6396 7.83332 43.7171 7.72178 43.7481C7.63638 43.7714 7.48999 43.7765 7.45165 43.7275C7.36799 43.6207 7.42028 43.5053 7.54837 43.4373C7.67298 43.371 7.79847 43.3064 7.91698 43.2315C7.94486 43.2142 7.94835 43.16 7.96316 43.1221C7.92221 43.129 7.87776 43.1281 7.83942 43.1428C7.70523 43.1936 7.57277 43.2496 7.43945 43.3029C7.42376 43.1669 7.36102 43.0162 7.40023 42.8982C7.51177 42.565 7.3706 42.3928 7.07781 42.2791C7.01856 42.2559 6.97237 42.2007 6.91312 42.1775C6.77282 42.1232 6.62816 42.0802 6.48612 42.032C6.57065 42.1267 6.66476 42.2145 6.73709 42.3179C7.26081 43.0679 6.93054 43.929 6.21947 44.4181C5.52932 44.8934 4.70322 44.71 4.16643 44.1201C3.22705 43.0885 3.50242 41.2053 4.65529 40.5052C5.16158 40.1978 5.7219 40.0747 6.3101 40.1203C6.8312 40.1608 7.34098 40.2753 7.81154 40.5121C8.21761 40.7162 8.53829 41.0288 8.79362 41.393C9.31995 42.143 9.85063 42.8922 10.3334 43.6698C11.0218 44.7771 11.6867 45.9 12.3289 47.0341C12.8544 47.9623 13.3319 48.9181 13.8356 49.8593C13.8704 49.9248 13.9445 49.9695 14.0012 50.0238C14.0456 49.9549 14.1075 49.892 14.1327 49.8171C14.4804 48.8028 14.7793 47.7686 15.1802 46.7749C15.6533 45.6021 16.184 44.4499 16.7444 43.3159C17.3047 42.1818 17.9844 41.1158 18.9455 40.2581C19.1128 40.1091 19.3028 39.9705 19.5058 39.8766C20.1829 39.5623 21.0221 39.9524 21.4247 40.6689C21.7227 41.1993 21.4866 42.0457 20.9332 42.453C20.4905 42.7785 20.0156 42.9137 19.5058 42.6537C19.3263 42.5624 19.2017 42.3669 19.0501 42.2205C19.0074 42.1792 18.9612 42.1413 18.9168 42.1017C18.8784 42.1482 18.8174 42.1913 18.807 42.2429C18.7582 42.4944 18.7233 42.7493 18.685 43.0024C18.6737 43.0765 18.6763 43.1531 18.6623 43.2263C18.4706 44.2889 18.4148 45.3635 18.441 46.4365C18.4645 47.3802 18.5952 48.3205 18.6353 49.2652C18.6658 49.979 18.8 50.6739 19.0022 51.3473C19.2017 52.0121 19.4832 52.6587 19.7864 53.2865C20.2936 54.3379 20.9899 55.2765 21.6739 56.2202C21.7933 56.3855 21.7942 56.5061 21.66 56.6439C21.2826 57.0314 20.9053 57.4189 20.528 57.8055C20.4452 57.8907 20.3529 57.9674 20.2753 58.0569C20.1402 58.2128 20.1594 58.267 20.3677 58.2912C21.3166 58.4005 22.2656 58.5202 23.2163 58.6072C24.5051 58.7251 25.7965 58.8173 27.0862 58.9198C27.921 58.9861 28.7567 59.042 29.5907 59.1187C30.2294 59.1772 30.8664 59.2582 31.5025 59.3357C33.0563 59.5234 34.61 59.7171 36.1794 59.6904C37.2469 59.6723 38.3004 59.5484 39.3382 59.2831C40.2968 59.0386 41.2632 58.8259 42.2261 58.5994C42.2793 58.5874 42.3333 58.5779 42.3847 58.5624C42.559 58.5099 42.5555 58.4057 42.4387 58.3049C42.2758 58.1637 42.1024 58.0311 41.9255 57.9071C41.7616 57.7934 41.7564 57.6867 41.8871 57.5411C42.2261 57.1631 42.3324 56.6895 42.4091 56.2107C42.6566 54.6599 42.5241 53.0988 42.5259 51.541C42.5276 49.4968 42.5363 47.4517 42.5407 45.4075C42.5424 44.5576 42.5328 43.7068 42.5468 42.8569C42.5503 42.6253 42.4866 42.6261 42.3089 42.7096C41.7346 42.98 41.4497 43.4459 41.38 44.0495C41.3399 44.3939 41.3617 44.7306 41.5699 45.0415C41.705 45.243 41.6335 45.342 41.3974 45.336C41.1255 45.3291 40.8519 45.3334 40.5826 45.3007C40.4537 45.2852 40.2802 45.2292 40.2192 45.1345C39.9474 44.71 39.7164 44.2613 39.6894 43.743C39.6825 43.6121 39.7025 43.4717 39.4873 43.5208C39.4559 43.5277 39.4053 43.4605 39.367 43.4244C39.1779 43.247 38.981 43.0773 38.8076 42.8862C38.7448 42.8181 38.7021 42.6933 38.7161 42.6046C38.7387 42.4651 38.8389 42.3953 38.9705 42.5245C39.1796 42.7277 39.3836 42.9361 39.5927 43.1393C39.6337 43.1789 39.692 43.2005 39.7426 43.2306C39.7635 43.1841 39.8071 43.1333 39.8001 43.0911C39.794 43.0541 39.7304 43.0265 39.6947 42.9929C39.4385 42.7536 39.1762 42.5193 38.9348 42.2653C38.9017 42.23 38.9714 42.0991 38.994 42.0122C39.069 42.0345 39.164 42.0354 39.2162 42.0819C39.3923 42.2412 39.5535 42.416 39.7199 42.5857C39.7818 42.6485 39.8419 42.7131 39.9029 42.7777C39.9413 42.6924 39.9787 42.6072 40.0171 42.5219L40.0075 42.5297C40.0336 42.5038 40.0589 42.4789 40.085 42.453L40.0763 42.4625C40.2863 42.2774 40.4955 42.0914 40.7064 41.908C41.0549 41.604 41.4845 41.4955 41.9281 41.4335C42.1085 41.4085 42.105 41.3491 41.9891 41.2466C41.7895 41.0693 41.5865 40.8953 41.3852 40.7197L41.3939 40.7291C41.5612 40.5302 41.7459 40.4829 41.908 40.6353C42.1172 40.8325 42.2845 41.0753 42.5023 41.2621C42.62 41.3629 42.8047 41.3879 42.9598 41.4438C42.9668 41.4464 42.9833 41.4232 42.9955 41.412C42.9772 41.4034 42.9555 41.3982 42.9407 41.3853C42.6993 41.1769 42.4527 40.9728 42.2191 40.7558C42.1128 40.6568 42.1747 40.5698 42.2976 40.5595C42.3899 40.5517 42.5171 40.5604 42.5755 40.6163C42.7925 40.8221 42.9877 41.0495 43.189 41.2708C43.2448 41.3319 43.2814 41.4197 43.3485 41.4576C43.406 41.4903 43.494 41.4679 43.5681 41.4705C43.5323 41.418 43.5036 41.3595 43.46 41.3147C43.2788 41.1295 43.0931 40.9487 42.9102 40.7653C42.8004 40.6559 42.8483 40.5922 42.979 40.5741C43.1655 40.5474 43.3171 40.6137 43.4356 40.7636C43.6256 41.0055 43.8173 41.2466 44.0186 41.4791C44.0717 41.5403 44.1598 41.5799 44.2391 41.6057C44.2922 41.6229 44.3584 41.598 44.4186 41.5911C44.3802 41.5566 44.3393 41.5248 44.3035 41.4878C44.0839 41.2647 43.8626 41.0434 43.6491 40.8152C43.6116 40.7748 43.609 40.7033 43.5907 40.6456C43.6509 40.6344 43.7145 40.6077 43.7711 40.6172C43.8548 40.631 43.9576 40.6473 44.0116 40.7016C44.3035 40.9987 44.6678 41.2303 44.8638 41.6161C44.8944 41.6763 44.9588 41.728 45.0198 41.7616C45.0599 41.7831 45.1227 41.765 45.1749 41.765C45.1549 41.7134 45.1488 41.6496 45.1131 41.6126C44.8987 41.3844 44.6765 41.1648 44.4621 40.9375C44.4229 40.8962 44.4072 40.8342 44.3802 40.7817C44.4351 40.7575 44.5005 40.7016 44.544 40.7154C44.6835 40.7575 44.8412 40.798 44.9458 40.8902C45.1627 41.0813 45.3553 41.3 45.5488 41.517C45.6237 41.6014 45.6655 41.7142 45.7361 41.8029C45.7806 41.8589 45.8477 41.9011 45.913 41.9338C45.9366 41.945 45.9845 41.9088 46.0211 41.8942C45.9897 41.8408 45.9679 41.7779 45.9261 41.7349C45.7082 41.5101 45.4808 41.2931 45.2664 41.065C45.2142 41.009 45.195 40.922 45.1601 40.8497C45.2394 40.8428 45.3248 40.8144 45.3972 40.8342C45.5096 40.8652 45.635 40.9057 45.7152 40.9823C45.981 41.2355 46.2294 41.5058 46.4812 41.7719C46.5239 41.8167 46.5762 41.8744 46.5779 41.9278C46.5788 41.97 46.5091 42.013 46.4699 42.0561C46.659 42.1 46.8489 42.1439 47.038 42.1878C47.0363 42.1637 47.045 42.1293 47.0319 42.1164C46.7565 41.8434 46.4794 41.5713 46.2006 41.3018C46.1623 41.2647 46.1004 41.2458 46.0725 41.2045C46.022 41.1287 45.9888 41.0408 45.9488 40.9582C46.0403 40.953 46.1492 40.9143 46.2206 40.9496C46.3888 41.034 46.5518 41.139 46.6929 41.2621C46.8951 41.4395 47.0816 41.6359 47.2646 41.8339C47.3482 41.9252 47.5347 41.982 47.4214 42.1715C47.4188 42.1758 47.4851 42.2378 47.526 42.249C47.6619 42.286 47.8014 42.3118 47.9391 42.3428L47.9286 42.3351C48.0881 42.3514 48.2475 42.3721 48.407 42.3824C48.4541 42.3859 48.5037 42.36 48.5517 42.3471C48.5334 42.2989 48.5281 42.2378 48.495 42.2033C48.2928 41.9967 48.0846 41.796 47.8781 41.5945C47.8319 41.5498 47.7683 41.5153 47.7412 41.4619C47.716 41.4128 47.7134 41.3388 47.7325 41.2871C47.7412 41.2639 47.8319 41.2518 47.8772 41.2639C48.1386 41.331 48.3364 41.4852 48.4697 41.7185C48.4985 41.7228 48.5264 41.7297 48.5551 41.7314C48.5647 41.7314 48.5752 41.722 48.5856 41.7168C48.5456 41.7168 48.5055 41.7168 48.4663 41.7177C48.427 41.511 48.4079 41.2983 48.3451 41.0985C48.1038 40.3261 48.3103 39.6407 48.8087 39.0526C49.6427 38.0692 50.7188 37.7876 51.9519 38.1545C52.331 38.2673 52.6952 38.4507 53.0394 38.6496C53.6511 39.0026 53.9248 39.5951 54.0154 40.2529C54.2498 41.9527 53.374 43.2651 51.836 43.8308C51.2696 44.0392 50.6779 44.0693 50.0731 44.0297C49.1137 43.9668 48.1778 43.7895 47.2602 43.5208C46.584 43.3227 45.9191 43.0877 45.2481 42.8724C45.0634 42.813 44.8752 42.763 44.687 42.7148C44.5162 42.6709 44.544 42.807 44.5432 42.8931C44.5388 43.3236 44.5397 43.7542 44.5432 44.1847C44.5519 45.2929 44.5684 46.4012 44.5719 47.5094C44.5789 49.8981 44.5798 52.2876 44.5841 54.6763C44.5841 54.9949 44.5876 54.9923 44.9048 55.0302C44.9667 55.0379 45.0416 55.0534 45.0817 55.0939C45.2952 55.3075 45.5104 55.521 45.703 55.7526C45.8825 55.9679 46.32 56.0471 46.5326 55.8663C46.5605 55.8431 46.55 55.726 46.516 55.6889C46.3479 55.5055 46.1623 55.3385 45.9923 55.1576C45.947 55.1094 45.9339 55.0328 45.9061 54.9682C45.9662 54.9492 46.0298 54.9071 46.0856 54.9157C46.1867 54.9312 46.306 54.9518 46.3775 55.0138C46.5805 55.1904 46.7914 55.3695 46.9483 55.5847C47.0947 55.7854 47.2445 55.8482 47.4729 55.7742C47.5548 55.7475 47.6428 55.7389 47.729 55.7234C47.9033 55.6915 47.8955 55.6373 47.7717 55.5279C47.5853 55.3634 47.4101 55.186 47.2437 55.0026C47.1966 54.951 47.1949 54.8588 47.1731 54.7856C47.2637 54.7676 47.4014 54.7038 47.438 54.74C47.6872 54.9828 47.9164 55.2463 48.1499 55.5047C48.1761 55.5339 48.1944 55.6054 48.2074 55.6037C48.2684 55.5933 48.3303 55.571 48.38 55.5365C48.3896 55.5296 48.3608 55.4392 48.3286 55.4065C48.1613 55.2386 47.9774 55.0853 47.8223 54.9079C47.7578 54.8347 47.7508 54.7124 47.7177 54.6126C47.8354 54.6263 47.9913 54.5979 48.0628 54.6616C48.2937 54.8683 48.4941 55.1085 48.705 55.3376C48.7259 55.3608 48.7346 55.4091 48.7573 55.4151C48.8157 55.4315 48.8784 55.4306 48.9403 55.4358C48.9264 55.3841 48.9281 55.3169 48.895 55.2833C48.6841 55.0664 48.4593 54.8623 48.2545 54.6401C48.2127 54.5945 48.204 54.4412 48.2327 54.424C48.305 54.3809 48.4079 54.3783 48.4985 54.3783C48.529 54.3783 48.5621 54.4326 48.5909 54.4644C48.8201 54.7297 49.0457 54.9983 49.281 55.2584C49.3089 55.2885 49.3899 55.2713 49.4466 55.2756C49.4353 55.2205 49.444 55.1464 49.41 55.1129C49.1991 54.8976 48.9813 54.6875 48.7599 54.4817C48.6588 54.3869 48.5499 54.2888 48.6902 54.1665C48.8035 54.0675 48.9107 54.1062 49.0205 54.2294C49.1921 54.4223 49.4091 54.5747 49.5843 54.765C49.6671 54.8554 49.9058 54.9071 49.7403 55.1163C49.7385 55.118 49.7777 55.1637 49.7864 55.1602C49.8553 55.1318 49.9241 55.1008 49.986 55.0603C49.9956 55.0543 49.9799 54.9846 49.9572 54.9613C49.7464 54.7443 49.5329 54.5308 49.3185 54.3181C49.2645 54.2647 49.2043 54.2173 49.1538 54.1613C49.0405 54.0356 49.0187 53.9168 49.1921 53.8204C49.2479 53.7894 49.3107 53.7609 49.3525 53.7153C49.6069 53.4389 49.6078 53.4354 49.8788 53.7084C50.1524 53.9831 50.4191 54.2647 50.6945 54.5376C50.7319 54.5747 50.8025 54.5781 50.8583 54.5962C50.8452 54.5368 50.853 54.4558 50.8164 54.4197C50.4836 54.0959 50.1472 53.7747 49.8013 53.463C49.6836 53.3571 49.6374 53.2512 49.7472 53.1332C49.8806 52.9903 49.9729 53.1099 50.067 53.2055C50.3328 53.4751 50.6047 53.7385 50.8687 54.0098C50.9341 54.077 50.9768 54.1648 51.0308 54.2414C51.0552 54.2759 51.0831 54.3086 51.1092 54.3413C51.1424 54.2905 51.1964 54.2414 51.2016 54.1872C51.2051 54.1484 51.1485 54.0985 51.1101 54.0615C50.7633 53.7222 50.4147 53.3846 50.0679 53.0462C50.0217 53.0006 49.945 52.9584 49.9372 52.9067C49.9215 52.7965 49.9424 52.6811 49.9485 52.5675C50.0383 52.6019 50.1507 52.6148 50.2143 52.676C50.5864 53.0359 50.9463 53.4079 51.3132 53.773C51.3402 53.7997 51.3925 53.8023 51.4334 53.816C51.4334 53.7652 51.4534 53.6955 51.4273 53.6679C51.3471 53.5818 51.2452 53.5164 51.1598 53.4354C50.8225 53.1151 50.4888 52.7913 50.1533 52.4684C50.1298 52.446 50.0932 52.4262 50.0871 52.3995C50.0522 52.2497 50.0252 52.0973 49.9947 51.9466C50.1123 52.0077 50.25 52.0465 50.3433 52.1335C50.7058 52.4745 51.0526 52.8318 51.4099 53.178C51.4569 53.2236 51.5371 53.2365 51.6016 53.2641C51.5824 53.19 51.5885 53.0893 51.5415 53.0454C51.0822 52.6208 50.5995 52.2204 50.1559 51.7804C49.9973 51.6228 49.9215 51.3817 49.8169 51.1733C49.7986 51.1363 49.8257 51.076 49.8318 51.0261C49.8814 51.0399 49.9442 51.0399 49.979 51.0709C50.1089 51.1837 50.2309 51.306 50.3546 51.4274C50.7014 51.7675 51.0456 52.1111 51.3977 52.4469C51.4491 52.496 51.538 52.508 51.6094 52.5373C51.572 52.4736 51.5467 52.397 51.4953 52.347C51.1685 52.0336 50.8286 51.7313 50.5054 51.4145C49.8492 50.7712 49.1974 50.1228 48.5534 49.4675C48.4654 49.378 48.2153 49.3039 48.4253 49.0972C48.4262 49.0964 48.4053 49.0619 48.3904 49.0576C48.3486 49.0464 48.305 49.0387 48.2615 49.037C48.1769 49.0335 48.0924 49.0361 48.0079 49.0352C48.0515 49.1033 48.0863 49.1782 48.1395 49.2367C48.2702 49.3797 48.4114 49.5132 48.5421 49.6561C48.5752 49.6923 48.583 49.7508 48.6022 49.7999C48.5525 49.7973 48.5029 49.7973 48.4541 49.7896C48.4227 49.7853 48.3931 49.7672 48.3617 49.7594C48.1099 49.6957 48.0854 49.7198 48.1133 49.9781C48.1517 50.3364 48.0811 50.6791 47.8188 50.9331C47.0633 51.6642 45.3754 51.7356 44.8569 50.3923C44.6164 49.7689 44.8316 48.9156 45.3501 48.4712C45.7091 48.163 46.1204 47.9718 46.591 47.865C47.2489 47.7152 47.9042 47.5524 48.583 47.58C50.1585 47.6446 51.5667 48.1655 52.7396 49.2144C53.1597 49.5898 53.4254 50.1004 53.6084 50.6377C53.8211 51.2638 53.9256 51.9061 53.8969 52.57C53.8655 53.2873 53.6485 53.9297 53.232 54.5239C52.4721 55.608 51.4395 56.2986 50.1672 56.6318C49.647 56.7679 49.1015 56.8617 48.5647 56.8755C47.4014 56.9057 46.2355 56.8721 45.0712 56.8643C44.9954 56.8643 44.9179 56.8643 44.8429 56.8557C44.5493 56.8187 44.5684 56.8195 44.5371 57.0934C44.5083 57.3465 44.4334 57.5937 44.3811 57.8442C44.334 58.0716 44.3846 58.1103 44.605 58.0759C45.1932 57.9837 45.7884 57.9304 46.3714 57.8167C47.4206 57.6126 48.4776 57.6944 49.5294 57.7168C50.3415 57.734 51.1511 57.8572 51.9615 57.9407C52.3824 57.9837 52.8024 58.044 53.2224 58.094C54.9173 58.2972 56.6096 58.5245 58.3071 58.695C60.0943 58.875 61.8886 58.9189 63.6863 58.8259C64.874 58.7639 66.0478 58.6098 67.2129 58.3936C68.0233 58.2438 68.8206 58.0294 69.6293 57.8684C70.3099 57.7323 70.9992 57.6393 71.6815 57.511C72.6452 57.3302 73.6186 57.2363 74.5972 57.207C75.249 57.1872 75.9026 57.2131 76.5553 57.2217C76.7513 57.2243 76.9474 57.2286 77.1426 57.2449C78.1273 57.3293 79.112 57.4146 80.0958 57.5067C80.745 57.567 81.3942 57.6298 82.0408 57.7073C82.5784 57.7711 83.1126 57.8666 83.6503 57.9321C84.2977 58.0104 84.9469 58.0802 85.5961 58.1396C86.3107 58.205 87.0261 58.2593 87.7424 58.3092C89.0687 58.4022 90.3941 58.3885 91.7065 58.1672C92.4742 58.038 93.2567 57.9149 93.9878 57.6626C95.1712 57.2535 96.2866 56.6878 97.219 55.8293C97.5362 55.5374 97.5014 55.4446 97.9337 55.3585C98.0191 55.3413 98.4773 55.1085 98.5392 55.0285C98.8163 54.6746 99.0873 54.3163 99.36 53.959V54.7986L99.3522 54.7994ZM18.9664 41.5498C18.9725 41.5446 18.9804 41.5394 18.9856 41.5334C18.9891 41.5291 18.9882 41.5213 18.9891 41.5153C18.9839 41.5291 18.9786 41.5429 18.9734 41.5566C18.9473 41.5816 18.922 41.6074 18.8959 41.6324C18.8166 41.7633 18.7373 41.8942 18.6588 42.0251C18.6257 42.0363 18.5926 42.0483 18.5595 42.0595C18.5665 42.063 18.5769 42.0716 18.5804 42.0699C18.6048 42.0535 18.6275 42.0354 18.651 42.0182C18.8427 41.9536 18.8837 41.7995 18.8898 41.6255C18.9159 41.6006 18.9412 41.5747 18.9673 41.5498H18.9664ZM5.72016 43.5277C5.67484 43.538 5.62866 43.5484 5.58334 43.5587C5.58944 43.5733 5.59467 43.588 5.60077 43.6026C5.63999 43.575 5.67833 43.5484 5.71754 43.5208C5.71754 43.5113 5.71754 43.5027 5.71667 43.4932C5.71667 43.4864 5.71493 43.4795 5.71318 43.4726C5.7158 43.4907 5.71841 43.5096 5.72103 43.5277H5.72016ZM19.8143 57.5093C19.9119 57.4645 20.0095 57.4206 20.108 57.3758C20.0984 57.3603 20.0897 57.344 20.0801 57.3285C19.9938 57.3913 19.9084 57.455 19.8222 57.5179C19.7263 57.5541 19.6313 57.5894 19.5355 57.6255C19.3917 57.6953 19.2418 57.7564 19.1067 57.8391C19.0074 57.9002 18.9264 57.9898 18.8366 58.0673C18.9403 58.0285 19.0562 58.007 19.1442 57.9459C19.2819 57.8503 19.5102 57.852 19.5302 57.6204C19.6505 57.6462 19.7681 57.6669 19.8152 57.5101L19.8143 57.5093ZM17.6593 53.3777C17.7012 53.3743 17.75 53.3838 17.7848 53.3657C17.8571 53.3287 17.9234 53.2796 17.9896 53.2322C17.9966 53.2271 17.9835 53.1961 17.98 53.1771C17.9051 53.2055 17.8258 53.2262 17.7578 53.2667C17.7177 53.2908 17.6968 53.345 17.6672 53.3864C17.553 53.4484 17.4389 53.5112 17.3247 53.5732C17.1975 53.6361 17.0694 53.6989 16.9422 53.7618L16.9709 53.81C17.0851 53.7394 17.1992 53.6688 17.3116 53.5973C17.3177 53.5939 17.3151 53.5775 17.3169 53.5663C17.4467 53.5319 17.6158 53.568 17.6585 53.3786L17.6593 53.3777ZM2.75649 56.42C2.75127 56.3899 2.74952 56.358 2.73907 56.3296C2.71902 56.2762 2.69375 56.2237 2.67022 56.1711C2.65715 56.1823 2.63101 56.197 2.63363 56.2056C2.6467 56.2624 2.6589 56.321 2.68417 56.3718C2.69462 56.3933 2.73732 56.3985 2.76521 56.4114C2.82446 56.742 3.02837 56.9461 3.34034 57.0563C3.37694 57.0873 3.41267 57.1183 3.44926 57.1493L3.46234 57.1235L3.3325 57.065C3.14079 56.8497 2.94908 56.6344 2.75737 56.4191L2.75649 56.42ZM5.1703 42.1439C4.88012 42.1956 4.78165 42.4393 4.68144 42.6571C4.5394 42.9654 4.65007 43.3985 4.88622 43.5604C4.92195 43.5854 4.97946 43.5802 5.02651 43.5888C5.00037 43.5587 4.97597 43.5285 4.94896 43.5001C4.64397 43.1781 4.6187 42.9284 4.86443 42.5495C4.9568 42.4074 5.06224 42.2748 5.16245 42.1379C5.18337 42.1336 5.2069 42.1344 5.22607 42.125C5.27138 42.1026 5.31495 42.0759 5.35852 42.05C5.35155 42.0414 5.34109 42.0251 5.33848 42.0268C5.29317 42.0466 5.24698 42.0664 5.20515 42.0922C5.1886 42.1026 5.18163 42.1275 5.1703 42.1456V42.1439ZM48.9664 49.1429C48.8967 49.1877 48.8715 49.2032 48.8462 49.2187C48.8741 49.2617 48.8959 49.3117 48.9325 49.3478C49.6505 50.0651 50.3703 50.7815 51.0909 51.4971C51.1824 51.5884 51.2792 51.6762 51.3802 51.7572C51.4247 51.7925 51.4866 51.8054 51.5415 51.8286C51.5205 51.7641 51.5188 51.6805 51.4761 51.6375C51.3776 51.5402 51.2487 51.4721 51.1493 51.3757C50.5777 50.8203 50.0087 50.2614 49.4449 49.6983C49.3647 49.6182 49.3255 49.4985 49.2505 49.4115C49.1643 49.3125 49.0597 49.229 48.9664 49.1429ZM5.47442 57.3793C5.5206 57.3526 5.57376 57.3207 5.62779 57.2906C6.12798 57.0142 6.62904 56.7403 7.12661 56.4613C7.20504 56.4174 7.26865 56.3485 7.33836 56.2917C7.24599 56.3106 7.1423 56.3106 7.063 56.3528C6.65344 56.5698 6.24997 56.798 5.8439 57.0219C5.71144 57.0942 5.5755 57.1614 5.44653 57.238C5.42039 57.2535 5.41342 57.3043 5.40471 57.3396C5.40296 57.3448 5.43869 57.3594 5.47355 57.3784L5.47442 57.3793ZM7.85075 55.4745C7.74444 55.49 7.70523 55.4866 7.67647 55.5012C7.46733 55.6114 7.25994 55.7268 7.05167 55.8379C6.70921 56.0204 6.36413 56.1987 6.02341 56.3847C5.97722 56.4097 5.95108 56.4725 5.91622 56.5182C5.97548 56.5095 6.04345 56.5164 6.09312 56.4897C6.62555 56.2064 7.1545 55.9188 7.68344 55.6286C7.72701 55.6045 7.75925 55.5606 7.85075 55.4745ZM50.0705 49.6707C50.0513 49.6768 50.033 49.6828 50.0147 49.6888C50.0365 49.725 50.0513 49.7672 50.0801 49.7956C50.4182 50.1263 50.7581 50.4552 51.0988 50.7824C51.1241 50.8074 51.165 50.8169 51.1981 50.8332C51.1807 50.7962 51.1668 50.7566 51.145 50.7221C50.8844 50.3209 50.5472 49.9928 50.1542 49.719C50.128 49.7009 50.0984 49.6862 50.0714 49.6699L50.0705 49.6707ZM50.4862 54.8097C50.4783 54.7899 50.4766 54.7779 50.4696 54.771C50.1594 54.4756 49.8483 54.1803 49.5355 53.8875C49.5241 53.8772 49.4823 53.8978 49.4544 53.9039C49.4649 53.9323 49.4675 53.9676 49.4858 53.9891C49.7516 54.281 50.0182 54.5729 50.291 54.8588C50.3171 54.8864 50.3886 54.8786 50.4374 54.8726C50.4574 54.87 50.4722 54.8287 50.4862 54.8089V54.8097ZM44.7305 55.2127C44.6504 55.2584 44.6016 55.2747 44.6024 55.2868C44.6094 55.3462 44.6103 55.4211 44.6477 55.459C44.8151 55.6321 44.9893 55.7983 45.1706 55.9567C45.2063 55.9877 45.2847 55.9714 45.344 55.9765C45.3257 55.9257 45.3205 55.8611 45.2856 55.825C45.1296 55.6622 44.9623 55.5098 44.8046 55.3488C44.768 55.3118 44.7523 55.2541 44.7305 55.2127ZM15.9618 46.9101C16.0185 46.8799 16.0464 46.8636 16.0751 46.8498C16.3034 46.7378 16.5326 46.6276 16.76 46.5131C16.7932 46.4967 16.8149 46.4597 16.8428 46.4322C16.7975 46.4253 16.7444 46.3986 16.7078 46.4132C16.4812 46.5062 16.2572 46.6052 16.0359 46.7103C15.9923 46.731 15.961 46.7852 15.9348 46.83C15.9261 46.8463 15.9505 46.8808 15.9618 46.9109V46.9101ZM17.004 44.6462C16.9727 44.7057 16.9535 44.7401 16.9361 44.7746C16.8576 44.9244 16.7722 45.0708 16.7051 45.2249C16.6816 45.2783 16.7034 45.3498 16.7051 45.4135C16.7696 45.3868 16.8759 45.3747 16.8916 45.33C16.9596 45.1414 17.0023 44.945 17.0502 44.7496C17.0554 44.7281 17.0302 44.7005 17.0058 44.6462H17.004ZM16.8829 45.8561C16.8359 45.8483 16.7984 45.8311 16.7696 45.8397C16.679 45.8664 16.5849 45.9405 16.503 45.9284C16.2781 45.8957 16.3034 46.1049 16.2058 46.1911C16.2267 46.21 16.259 46.2479 16.2668 46.2436C16.4559 46.1411 16.6424 46.0352 16.828 45.9284C16.8446 45.9189 16.8524 45.8966 16.8829 45.8561ZM49.2671 42.5323C49.3551 42.5185 49.4239 42.5073 49.4919 42.4961C49.3934 42.4418 49.2985 42.3764 49.1939 42.3394C49.1686 42.3308 49.1102 42.416 49.0667 42.4582C49.1364 42.484 49.207 42.5099 49.2662 42.5314L49.2671 42.5323ZM2.86629 55.0431C2.85845 55.025 2.85061 55.0069 2.84276 54.9889C2.82446 54.9975 2.79745 55.0018 2.78786 55.0164C2.73645 55.0965 2.67458 55.1749 2.64495 55.2627C2.62491 55.3221 2.65367 55.3962 2.65977 55.4642C2.68417 55.4073 2.70508 55.3497 2.73297 55.2945C2.77479 55.2093 2.82185 55.1266 2.86629 55.0431ZM44.707 55.9972C44.6782 56.0136 44.6408 56.0351 44.6042 56.0566C44.6268 56.0721 44.6504 56.1031 44.6713 56.1014C44.7541 56.0945 44.8351 56.0781 44.917 56.0652C44.8543 56.0446 44.7915 56.0248 44.7079 55.9972H44.707ZM47.7099 49.0154C47.6985 49.0275 47.6863 49.0396 47.675 49.0516C47.6898 49.0628 47.709 49.0861 47.7186 49.0826C47.7369 49.0757 47.7491 49.0542 47.7648 49.0387C47.7473 49.0309 47.729 49.0241 47.7099 49.0154ZM5.89182 43.1738L5.92581 43.1324C5.91187 43.1221 5.89531 43.1023 5.88311 43.104C5.87004 43.1066 5.86045 43.129 5.85 43.1428C5.86394 43.1531 5.87788 43.1626 5.89182 43.1729V43.1738ZM3.28631 54.6901C3.27498 54.6771 3.26453 54.6625 3.25058 54.6522C3.2471 54.6496 3.22531 54.6599 3.22531 54.6659C3.22357 54.6814 3.22967 54.6969 3.23228 54.7133C3.25058 54.7056 3.26888 54.6987 3.28718 54.6909L3.28631 54.6901ZM17.4877 43.8523C17.4833 43.8437 17.479 43.8291 17.4728 43.8282C17.4641 43.8265 17.4537 43.8351 17.4441 43.8403C17.4519 43.8523 17.4589 43.8652 17.4668 43.8773C17.4737 43.8695 17.4798 43.8609 17.4868 43.8532L17.4877 43.8523ZM20.5603 41.1468C20.5481 41.1614 20.535 41.1726 20.5271 41.1864C20.5245 41.1915 20.5332 41.2113 20.5376 41.2113C20.5515 41.2122 20.5655 41.207 20.5794 41.2045C20.5742 41.1872 20.5681 41.1691 20.5611 41.1468H20.5603ZM18.3939 42.2869C18.3861 42.3041 18.3774 42.3213 18.3695 42.3385C18.3782 42.3428 18.387 42.3463 18.3957 42.3506C18.4035 42.3333 18.4114 42.3161 18.4183 42.298C18.4183 42.2972 18.4026 42.2903 18.3939 42.2869ZM50.6866 42.4918L50.6918 42.5082L50.7127 42.4978L50.6875 42.4909L50.6866 42.4918ZM2.99526 54.8227L2.97522 54.8442C2.98916 54.8502 3.00223 54.8562 3.01617 54.8623C3.01792 54.8528 3.02489 54.8416 3.0214 54.8356C3.01705 54.8287 3.00397 54.827 2.99526 54.8235V54.8227ZM3.68977 57.2673C3.68716 57.2742 3.67844 57.2845 3.68106 57.2888C3.68542 57.2966 3.69674 57.3 3.70459 57.3043C3.70982 57.2923 3.71504 57.2794 3.7194 57.2673H3.6889H3.68977ZM16.5178 45.5685C16.5317 45.5607 16.5422 45.5547 16.5518 45.5495C16.5448 45.547 16.5352 45.5401 16.5309 45.5426C16.5248 45.5461 16.5239 45.5564 16.5178 45.5685Z" fill="#141414"/>
<path d="M77.3717 53.1817C77.1548 53.167 76.9378 53.1593 76.7217 53.1343C76.5657 53.1162 76.4785 53.1601 76.435 53.3177C76.3687 53.5554 76.2799 53.7861 76.2032 54.0204C76.1038 54.3235 76.1448 54.4096 76.4533 54.5276C76.5805 54.5758 76.7295 54.6317 76.6676 54.7876C76.6371 54.8642 76.4864 54.9392 76.3905 54.9383C75.5575 54.9314 74.7253 54.8987 73.8922 54.8909C73.5236 54.8875 73.155 54.9348 72.7855 54.9366C72.7045 54.9366 72.5694 54.8513 72.5555 54.785C72.5406 54.7144 72.6382 54.6197 72.6905 54.5379C72.6992 54.5241 72.7306 54.525 72.7515 54.5181C72.931 54.4561 73.0051 54.3269 72.9973 54.1444C72.9615 53.3289 72.9276 52.5135 72.8883 51.698C72.8857 51.6515 72.8448 51.6067 72.8221 51.5619C72.7829 51.6033 72.7289 51.6377 72.7053 51.6859C72.2426 52.6452 71.7799 53.6045 71.3268 54.568C71.2544 54.7222 71.1612 54.8453 70.9939 54.8152C70.885 54.7954 70.7508 54.7041 70.7011 54.6076C70.2602 53.7465 69.8349 52.8768 69.4062 52.0097C69.3347 51.865 69.2711 51.7178 69.1988 51.5731C69.1866 51.5482 69.1491 51.5352 69.123 51.5172C69.1021 51.5499 69.0629 51.5826 69.062 51.6162C69.0402 52.4532 69.021 53.2902 69.0053 54.128C69.0019 54.3329 69.0899 54.4854 69.306 54.5293C69.462 54.5611 69.5561 54.6533 69.5012 54.7971C69.475 54.8668 69.3408 54.9331 69.2537 54.9366C68.7997 54.9512 68.3448 54.9538 67.8908 54.9392C67.7958 54.9357 67.652 54.8634 67.6215 54.7867C67.564 54.6447 67.6686 54.5508 67.8194 54.5181C68.1941 54.4354 68.3195 54.1332 68.3509 53.8223C68.4659 52.7003 68.5505 51.5757 68.6446 50.452C68.662 50.2488 68.682 50.0447 68.682 49.8406C68.682 49.6598 68.7622 49.5711 68.9339 49.5194C69.2598 49.4213 69.3173 49.4359 69.4611 49.7511C69.9804 50.8963 70.4946 52.0433 71.0157 53.1877C71.0523 53.2678 71.1237 53.3315 71.1795 53.403C71.2248 53.3358 71.278 53.2721 71.3137 53.1997C71.5804 52.671 71.8496 52.144 72.1049 51.6102C72.355 51.0875 72.5999 50.5622 72.8256 50.0292C73.0243 49.5616 73.1419 49.466 73.6412 49.4591C73.8347 49.4566 73.8434 49.5995 73.8547 49.7235C73.8861 50.0654 73.9044 50.4089 73.9271 50.7508C73.9959 51.791 74.0604 52.8321 74.1345 53.8723C74.1667 54.3192 74.3114 54.5043 74.6826 54.5551C74.9815 54.5964 75.3353 54.4828 75.4912 54.0979C75.7422 53.4796 76.0036 52.8665 76.238 52.2422C76.4829 51.5895 76.7025 50.9265 76.9291 50.2669C76.9674 50.1558 76.9683 50.0292 77.0197 49.9259C77.0894 49.7872 77.1617 49.6141 77.2837 49.5444C77.6898 49.3136 77.7987 49.3851 77.9504 49.8311C78.2867 50.8188 78.6344 51.8022 78.9873 52.7838C79.1398 53.2075 79.3176 53.6217 79.4823 54.0402C79.5816 54.2933 79.7298 54.4819 80.0234 54.5474C80.1071 54.5654 80.1646 54.7015 80.2343 54.7833C80.1419 54.8367 80.0539 54.9064 79.9546 54.9366C79.8762 54.9598 79.7821 54.9305 79.6949 54.9305C79.3054 54.9305 78.9159 54.9331 78.5272 54.9357C78.3747 54.9366 78.2196 54.9581 78.0715 54.9374C77.9922 54.9262 77.8772 54.853 77.8641 54.7902C77.8493 54.7239 77.9155 54.6033 77.9817 54.562C78.3251 54.3484 78.3416 54.3295 78.2292 53.9661C78.1656 53.7612 78.0907 53.5597 78.0279 53.3547C77.9756 53.1842 77.8937 53.1007 77.695 53.1636C77.5966 53.1946 77.4789 53.1687 77.37 53.1687V53.1799L77.3717 53.1817ZM77.3142 52.7348C77.3142 52.7348 77.3717 52.7339 77.4258 52.7287C77.7891 52.6951 77.8109 52.6633 77.6933 52.3154C77.5634 51.9305 77.4336 51.5464 77.3012 51.1624C77.289 51.1262 77.2602 51.0952 77.2384 51.0616C77.2158 51.0944 77.1835 51.1245 77.1704 51.1607C77.0484 51.5025 76.9343 51.847 76.8088 52.188C76.6432 52.6357 76.6877 52.7089 77.1661 52.7348C77.1983 52.7365 77.2306 52.7348 77.3142 52.7348Z" fill="#141414"/>
<path d="M62.9649 52.4436C62.9649 51.8735 62.9718 51.3035 62.9622 50.7334C62.957 50.4226 62.9587 50.098 62.5631 49.9714C62.5091 49.9542 62.4437 49.8164 62.4638 49.7682C62.4934 49.6967 62.5893 49.6364 62.6703 49.6071C62.7357 49.5839 62.8202 49.6183 62.896 49.6175C63.3082 49.6157 63.7212 49.608 64.1334 49.6089C64.2502 49.6089 64.3783 49.6045 64.4828 49.6476C64.6528 49.7165 64.6667 49.9016 64.4994 49.9585C64.0986 50.0945 64.0759 50.3993 64.0768 50.736C64.0794 51.8761 64.0768 53.0171 64.0785 54.1572C64.0785 54.4715 64.0959 54.4887 64.4096 54.4878C64.7364 54.487 65.0623 54.4723 65.3891 54.4671C65.6183 54.4637 65.7141 54.3612 65.7124 54.127C65.7054 52.9757 65.7141 51.8244 65.7072 50.674C65.7054 50.3666 65.6706 50.0626 65.2715 49.9826C65.2192 49.9722 65.146 49.8715 65.1521 49.8215C65.1608 49.7509 65.2209 49.6528 65.2837 49.6295C65.3795 49.5934 65.4954 49.6063 65.6026 49.6063C66.0252 49.6063 66.4479 49.6089 66.8705 49.6097C66.9141 49.6097 66.9568 49.5977 67.0003 49.5977C67.1502 49.5977 67.3297 49.5649 67.3716 49.7673C67.4108 49.9559 67.2592 49.9843 67.1171 50.0316C66.8783 50.1117 66.8513 50.327 66.8478 50.5354C66.8383 51.0727 66.8365 51.6109 66.8348 52.1491C66.833 52.633 66.8304 53.117 66.8374 53.6009C66.84 53.7826 66.8548 53.9669 66.8905 54.1451C66.9245 54.3156 67.0003 54.4594 67.1929 54.5335C67.2757 54.5653 67.3193 54.6996 67.3803 54.7866C67.2862 54.8409 67.1973 54.9252 67.0971 54.9416C66.9725 54.9623 66.8356 54.9399 66.7093 54.9123C66.3764 54.8391 66.0488 54.8503 65.7089 54.8788C64.1343 55.0114 62.5596 55.0432 60.9859 54.8469C60.7663 54.8193 60.5354 54.8917 60.3088 54.9123C60.1467 54.927 59.9838 54.9485 59.8234 54.9356C59.7572 54.9304 59.6605 54.8512 59.6457 54.7901C59.6308 54.7289 59.6866 54.5998 59.738 54.5834C60.1894 54.4422 60.1903 54.0753 60.192 53.7171C60.1973 52.6847 60.192 51.6514 60.1955 50.6189C60.1964 50.3313 60.1589 50.0842 59.8226 49.9843C59.7633 49.9671 59.6849 49.8026 59.7093 49.7638C59.7554 49.6898 59.8687 49.6157 59.9559 49.6149C60.314 49.6106 60.673 49.6407 61.0321 49.6433C61.2159 49.645 61.4024 49.5925 61.5837 49.6097C61.6935 49.62 61.8494 49.6941 61.8869 49.7811C61.9592 49.9447 61.7963 49.9783 61.6682 50.023C61.419 50.11 61.3327 50.3124 61.3318 50.5569C61.3292 51.0193 61.3318 51.4817 61.331 51.945C61.331 52.6554 61.3292 53.3649 61.3301 54.0753C61.3301 54.4275 61.3571 54.4585 61.717 54.4732C62.0324 54.4861 62.3479 54.4809 62.6633 54.4913C62.8812 54.4981 62.9744 54.4224 62.9692 54.1899C62.9553 53.6095 62.9649 53.0283 62.9649 52.447V52.4436Z" fill="#141414"/>
<path d="M92.5265 52.2672C92.5265 51.816 92.5361 51.3639 92.5222 50.9136C92.5161 50.7224 92.4899 50.5235 92.4228 50.347C92.3749 50.2212 92.2607 50.0981 92.1431 50.0258C92.0316 49.9569 91.9348 49.9121 91.9592 49.7666C91.9889 49.5918 92.1248 49.5909 92.2599 49.5969C92.5858 49.6107 92.9117 49.6452 93.2367 49.6374C93.6384 49.6288 94.0384 49.5634 94.4393 49.5625C95.1303 49.5608 95.6801 50.0654 95.7507 50.5975C95.8222 51.1374 95.6165 51.5895 95.1085 51.8487C95.0283 51.89 94.9586 51.9512 94.8845 52.0037C94.9673 52.0476 95.0466 52.101 95.1338 52.1337C95.6462 52.324 96.04 52.6194 96.2021 53.1714C96.3825 53.7862 96.0766 54.5362 95.478 54.7919C95.2453 54.891 94.9787 54.9521 94.7259 54.9564C93.9112 54.971 93.0947 54.9538 92.2799 54.9443C92.157 54.9426 92.0002 54.9822 91.9645 54.7988C91.9305 54.6257 92.0368 54.562 92.1858 54.5C92.2808 54.4604 92.381 54.3502 92.4089 54.252C92.4707 54.0376 92.51 53.812 92.5178 53.589C92.5335 53.149 92.5222 52.7081 92.5222 52.2672C92.5239 52.2672 92.5256 52.2672 92.5274 52.2672H92.5265ZM93.635 53.2988C93.6402 53.2988 93.6454 53.2988 93.6498 53.2988C93.6498 53.5881 93.6341 53.8783 93.6541 54.1668C93.6776 54.4974 93.8694 54.6481 94.2005 54.6094C94.5299 54.5706 94.8009 54.4251 94.9551 54.1186C95.3534 53.3289 94.7774 52.3421 93.8885 52.2896C93.7151 52.2793 93.6245 52.3361 93.6323 52.5264C93.6437 52.783 93.635 53.0413 93.635 53.2988ZM93.635 50.9024C93.635 50.9024 93.6437 50.9024 93.648 50.9024C93.648 51.1486 93.6489 51.3949 93.648 51.6412C93.6471 51.8289 93.7317 51.8797 93.9164 51.8401C94.3251 51.7531 94.5874 51.4862 94.6667 51.0522C94.7164 50.781 94.4968 50.2677 94.2458 50.1282C94.129 50.0628 93.9835 50.0327 93.8476 50.018C93.7108 50.0025 93.6271 50.0731 93.6323 50.2299C93.6402 50.4537 93.6341 50.6785 93.6341 50.9032L93.635 50.9024Z" fill="#141414"/>
<path d="M25.6954 52.3201C25.7346 53.8046 24.5852 55.0489 23.0185 55.0678C21.4159 55.0868 20.1838 53.827 20.1846 52.2391C20.1855 50.6676 21.3924 49.4793 22.9758 49.5043C24.5408 49.5284 25.6893 50.6935 25.6954 52.3201ZM24.4571 52.581C24.472 51.7888 24.2977 51.124 23.8794 50.5324C23.5457 50.0606 23.0829 49.8806 22.5522 50.0046C22.0695 50.1174 21.7967 50.4601 21.6312 50.8846C21.3157 51.6898 21.3549 52.5104 21.6286 53.3146C21.7235 53.5936 21.8804 53.8726 22.0747 54.0948C22.8163 54.9438 23.8088 54.6829 24.1896 53.8468C24.3839 53.4197 24.492 52.9771 24.458 52.581H24.4571Z" fill="#141414"/>
<path d="M88.9199 55.0679C87.5178 55.0584 86.1139 54.0862 86.1043 52.2478C86.0956 50.5798 87.2746 49.531 88.8545 49.5043C90.3429 49.4794 91.6125 50.5471 91.6116 52.3425C91.6108 54.0113 90.4291 55.0274 88.9199 55.0679ZM90.3769 52.5397C90.4248 51.9998 90.2949 51.4926 90.0876 51.0026C89.9333 50.6384 89.7067 50.3267 89.3573 50.1192C88.6794 49.717 87.8245 50.1045 87.5195 50.9389C87.286 51.5778 87.3104 52.2323 87.4158 52.8798C87.4881 53.3233 87.6868 53.7375 87.9883 54.0914C88.655 54.8724 89.6579 54.7648 90.1154 53.8503C90.3193 53.4413 90.4239 53.0021 90.376 52.5406L90.3769 52.5397Z" fill="#141414"/>
<path d="M82.2002 53.2424C82.2142 53.511 82.2168 53.7797 82.2438 54.0466C82.2665 54.2671 82.3353 54.4582 82.5941 54.5392C82.6691 54.5624 82.7048 54.7122 82.7579 54.8044C82.6717 54.8509 82.5898 54.9258 82.4983 54.9387C82.3719 54.9559 82.2386 54.9206 82.1087 54.9198C81.7846 54.9172 81.4595 54.9198 81.1354 54.9232C80.9724 54.9249 80.8086 54.943 80.6483 54.9267C80.5925 54.9215 80.5123 54.8423 80.501 54.7854C80.4897 54.7286 80.5376 54.6106 80.5812 54.6003C81.1127 54.4651 81.084 54.0105 81.097 53.6385C81.1301 52.693 81.1092 51.7458 81.1014 50.7994C81.1005 50.6505 81.0535 50.5032 81.0343 50.3534C81.0108 50.176 80.9288 50.0537 80.7432 50.0089C80.6143 49.9779 80.5001 49.9013 80.5611 49.7635C80.5934 49.6903 80.7223 49.618 80.8095 49.6163C81.3628 49.6025 81.917 49.5999 82.4704 49.6137C82.5645 49.6163 82.7039 49.6972 82.737 49.7765C82.7928 49.9091 82.6786 49.9805 82.5453 50.0133C82.3492 50.0615 82.2534 50.2147 82.2455 50.3939C82.2246 50.8985 82.2212 51.4039 82.2203 51.9085C82.2203 52.0377 82.2926 52.0945 82.4033 51.9852C82.8642 51.5305 83.3226 51.0733 83.7784 50.6134C83.8385 50.5532 83.8812 50.4757 83.9317 50.4051C84.0485 50.2406 84.0842 50.1011 83.8542 49.9891C83.7853 49.9556 83.6964 49.8169 83.7174 49.7773C83.7592 49.6981 83.8672 49.6499 83.9526 49.5965C83.9762 49.5818 84.0171 49.5896 84.0494 49.5948C84.4816 49.668 84.9121 49.6878 85.346 49.5982C85.4889 49.5689 85.6406 49.593 85.6589 49.7885C85.6745 49.965 85.5464 49.9779 85.4123 50.0193C85.2293 50.0753 85.0349 50.1467 84.8911 50.2656C84.343 50.7219 83.8089 51.1964 83.2773 51.6726C83.0246 51.8991 83.0455 51.9085 83.3122 52.1126C83.5065 52.2624 83.6895 52.4398 83.8359 52.6353C84.2053 53.127 84.5583 53.6307 84.9033 54.1396C85.068 54.3824 85.2449 54.5486 85.5708 54.4841C85.6379 54.4711 85.7922 54.5616 85.7887 54.5934C85.78 54.6847 85.7321 54.8216 85.6623 54.85C85.258 55.011 84.8214 55.0696 84.4441 54.8311C84.1783 54.6632 83.9631 54.4014 83.7609 54.1525C83.3052 53.5911 82.873 53.0116 82.4277 52.4415C82.3928 52.3968 82.3318 52.3709 82.283 52.3356C82.2586 52.3899 82.2142 52.4433 82.2124 52.4984C82.2046 52.7455 82.2089 52.9926 82.2089 53.2406C82.2055 53.2406 82.2029 53.2406 82.1994 53.2406L82.2002 53.2424Z" fill="#141414"/>
<path d="M34.0271 54.9456C33.3988 54.9456 32.7705 54.9465 32.1422 54.9448C32.015 54.9448 31.8633 54.9697 31.8302 54.7906C31.8015 54.633 31.8965 54.5581 32.0385 54.5142C32.259 54.447 32.3356 54.2671 32.3505 54.0656C32.3714 53.7874 32.3749 53.5067 32.3757 53.2277C32.3783 52.3675 32.3757 51.5064 32.3757 50.6462C32.3757 50.3405 32.3496 50.0589 31.9618 49.9805C31.9078 49.9694 31.8302 49.8385 31.8459 49.7868C31.8686 49.7127 31.9627 49.6137 32.0315 49.6094C32.225 49.5965 32.421 49.6396 32.6154 49.6378C32.9509 49.6344 33.2864 49.612 33.6218 49.6017C33.7081 49.5991 33.8031 49.5879 33.878 49.6198C33.9478 49.649 34.0332 49.7257 34.0401 49.7894C34.0471 49.8505 33.9722 49.9685 33.9155 49.9805C33.5547 50.0589 33.5425 50.3241 33.5434 50.6048C33.5434 50.9166 33.5399 51.2291 33.5425 51.5409C33.5443 51.8552 33.5635 51.8672 33.8711 51.8784C34.1639 51.8887 34.4619 51.8801 34.7486 51.9301C35.3054 52.0274 35.7768 52.3046 35.9529 52.8523C36.2605 53.8081 35.8849 54.8233 34.7102 54.9508C34.4845 54.9749 34.2536 54.9542 34.0253 54.9542C34.0253 54.9516 34.0253 54.9491 34.0253 54.9473L34.0271 54.9456ZM33.5425 53.3156C33.5425 53.3156 33.5452 53.3156 33.546 53.3156C33.546 53.5842 33.5373 53.8538 33.5486 54.1224C33.5635 54.4608 33.8118 54.6485 34.1447 54.5685C34.4863 54.4858 34.7433 54.2843 34.8087 53.9338C34.8549 53.6841 34.8645 53.4189 34.8357 53.1666C34.7791 52.6741 34.3225 52.2969 33.8223 52.284C33.6393 52.2788 33.533 52.3356 33.5408 52.5414C33.5513 52.7989 33.5434 53.0572 33.5434 53.3156H33.5425Z" fill="#141414"/>
<path d="M38.0869 51.0308C38.0869 51.246 38.093 51.4613 38.0852 51.6757C38.0782 51.8522 38.1558 51.9409 38.3309 51.9409C38.5375 51.9409 38.7449 51.9427 38.9514 51.928C39.1274 51.9151 39.2616 51.8385 39.293 51.6421C39.3026 51.581 39.3261 51.5001 39.3705 51.4708C39.4463 51.4234 39.5492 51.3804 39.6311 51.3941C39.6808 51.4028 39.7261 51.5156 39.7479 51.5887C39.7653 51.6473 39.747 51.7171 39.7391 51.7808C39.6991 52.133 39.6642 52.4851 39.6119 52.8356C39.5997 52.9157 39.5222 52.9863 39.4742 53.0612C39.4071 52.9932 39.3034 52.9364 39.2808 52.8563C39.1719 52.4791 39.0891 52.4042 38.6943 52.3956C38.0948 52.3827 38.0861 52.3827 38.1 52.9854C38.1087 53.3695 38.1479 53.7535 38.1715 54.1376C38.1872 54.3925 38.3571 54.5036 38.5793 54.5208C39.1849 54.5673 39.6494 54.5363 39.9125 53.8741C39.9483 53.7845 40.106 53.6864 40.2045 53.689C40.3892 53.6941 40.3639 53.8732 40.3378 53.9912C40.2881 54.2211 40.2437 54.4622 40.1339 54.6646C40.0616 54.798 39.8916 54.91 39.7409 54.9625C39.5727 55.0202 39.3766 55.0133 39.1928 55.0099C38.3998 54.9927 37.6068 54.9668 36.8138 54.9436C36.7598 54.9418 36.6979 54.9591 36.6517 54.9401C36.5707 54.9057 36.4374 54.8514 36.4356 54.8024C36.433 54.7128 36.4914 54.5604 36.5576 54.5406C36.9254 54.4286 36.9524 54.135 36.955 53.8448C36.9646 52.8124 36.9646 51.7791 36.9559 50.7466C36.9532 50.4289 36.9018 50.124 36.5332 49.9854C36.4757 49.9639 36.4182 49.8158 36.4391 49.7512C36.46 49.6849 36.5794 49.6082 36.6544 49.6082C37.0561 49.6117 37.4569 49.6547 37.8586 49.6521C38.4669 49.6496 39.0751 49.6289 39.6834 49.5996C39.9997 49.5841 40.1016 49.6565 40.0424 49.9578C39.9892 50.2299 39.9134 50.5012 39.815 50.7612C39.7827 50.8473 39.6537 50.9464 39.5631 50.9524C39.401 50.9636 39.408 50.812 39.4063 50.6906C39.4002 50.2472 39.3121 50.1542 38.8869 50.1309C38.3588 50.1022 38.0945 50.3482 38.0939 50.8689C38.0939 50.9223 38.0939 50.9765 38.0939 51.0299C38.0922 51.0299 38.0896 51.0299 38.0878 51.0299L38.0869 51.0308Z" fill="#141414"/>
<path d="M56.5705 53.1798C56.3648 53.1669 56.1574 53.1643 55.9535 53.1368C55.808 53.1178 55.72 53.1617 55.6764 53.2943C55.5797 53.5906 55.4777 53.8851 55.3941 54.1856C55.3374 54.3871 55.4612 54.4801 55.6459 54.5249C55.7269 54.5447 55.8219 54.567 55.8777 54.6213C55.9779 54.7177 55.9221 54.8848 55.7862 54.9278C55.7357 54.9433 55.679 54.9451 55.625 54.9451C55.1814 54.9451 54.7388 54.9511 54.2952 54.939C54.1994 54.9365 54.0695 54.8943 54.0216 54.8254C53.9902 54.7806 54.066 54.5851 54.1166 54.5748C54.6577 54.4689 54.7893 54.0039 54.9366 53.6104C55.401 52.373 55.8184 51.1192 56.2489 49.8698C56.3334 49.6244 56.6306 49.3858 56.8859 49.4289C56.9731 49.4435 57.075 49.5693 57.1099 49.6648C57.2859 50.1479 57.4297 50.643 57.6083 51.1253C57.9821 52.1327 58.3699 53.1359 58.7525 54.1399C58.8353 54.3569 58.9817 54.5025 59.223 54.536C59.3712 54.5567 59.4757 54.617 59.4505 54.7858C59.4261 54.9494 59.2901 54.939 59.1725 54.9399C58.5869 54.9433 58.0013 54.9451 57.4157 54.9442C57.2894 54.9442 57.1334 54.9709 57.102 54.7918C57.0707 54.6153 57.1909 54.5481 57.3408 54.5033C57.5578 54.4387 57.5891 54.3044 57.5055 54.1029C57.4149 53.8851 57.3364 53.6595 57.2868 53.4295C57.2371 53.2031 57.1256 53.1195 56.8972 53.1566C56.7918 53.1738 56.6803 53.1592 56.5713 53.1592C56.5713 53.166 56.5713 53.1721 56.5713 53.179L56.5705 53.1798ZM56.5007 52.7329C56.533 52.7329 56.5661 52.7346 56.5983 52.7329C56.9757 52.7157 57.0349 52.6184 56.9033 52.2714C56.7744 51.9304 56.6585 51.5842 56.5321 51.2424C56.5156 51.1967 56.4755 51.1588 56.4459 51.1175C56.4136 51.1554 56.3657 51.189 56.3509 51.2329C56.2472 51.5386 56.1461 51.8451 56.0528 52.1534C55.8908 52.689 55.9221 52.7277 56.4999 52.7329H56.5007Z" fill="#141414"/>
<path d="M29.0348 49.498C29.6849 49.5454 30.3349 49.5936 30.985 49.6401C31.1532 49.6522 31.2055 49.7426 31.1924 49.8993C31.1663 50.2205 31.1593 50.5434 31.1218 50.8629C31.1122 50.949 31.0234 51.0256 30.9711 51.1074C30.8822 51.0429 30.7646 50.9955 30.7105 50.9094C30.6443 50.8043 30.6652 50.6373 30.5877 50.5494C30.4343 50.3755 30.2626 50.1878 30.057 50.0913C28.9921 49.5902 27.631 50.3126 27.3887 51.4545C27.2763 51.9832 27.2536 52.4869 27.3948 53.0113C27.6658 54.0188 28.5756 54.6732 29.4592 54.6078C30.0029 54.5673 30.4535 54.3193 30.8142 53.9146C30.8648 53.8586 30.897 53.7717 30.9589 53.7441C31.0478 53.7045 31.1637 53.6778 31.2525 53.7019C31.2935 53.7131 31.3275 53.8638 31.3127 53.9422C31.1863 54.5966 30.9205 54.7774 30.2766 54.941C29.6152 55.1089 28.9468 55.1356 28.2767 54.9582C27.2101 54.6767 26.4711 54.0567 26.1461 52.9906C25.9143 52.2303 25.9866 51.4966 26.377 50.8086C26.8615 49.9553 27.6484 49.5781 28.6087 49.5101C28.7499 49.5006 28.8919 49.5084 29.0331 49.5084C29.0331 49.5049 29.0331 49.5015 29.0331 49.498H29.0348Z" fill="#141414"/>
<path d="M38.6779 43.6259C38.7406 43.6629 38.7737 43.6741 38.7946 43.6956C39.2025 44.1253 39.6085 44.555 40.0137 44.9864C40.0425 45.0165 40.0756 45.0604 40.0739 45.0966C40.0704 45.1552 40.0521 45.2249 40.0137 45.2645C39.9928 45.2869 39.9109 45.2714 39.8682 45.2507C39.8107 45.2232 39.7602 45.1784 39.714 45.1336C39.4064 44.8314 39.0909 44.5352 38.799 44.2174C38.6962 44.1055 38.6422 43.9427 38.5899 43.7946C38.5751 43.7542 38.6448 43.6844 38.6779 43.625V43.6259Z" fill="#141414"/>
<path d="M47.9339 42.3438C47.6297 42.039 47.3256 41.7341 47.0224 41.4284C46.9692 41.3751 46.9091 41.326 46.869 41.2648C46.8429 41.2252 46.8254 41.1546 46.8446 41.121C46.862 41.0918 46.9457 41.0719 46.9832 41.0874C47.1383 41.1546 47.3099 41.2106 47.4328 41.3182C47.682 41.5387 47.906 41.7875 48.1352 42.0295C48.1909 42.0889 48.2275 42.1655 48.2737 42.2344C48.1892 42.268 48.1064 42.305 48.021 42.3335C47.9922 42.3438 47.9565 42.3352 47.9243 42.3352L47.9347 42.3429L47.9339 42.3438Z" fill="#141414"/>
<path d="M39.6826 44.0948C39.6539 44.1473 39.6399 44.2127 39.6051 44.2265C39.5641 44.242 39.4883 44.23 39.4578 44.1998C39.1894 43.9372 38.9236 43.672 38.6674 43.3981C38.6143 43.3413 38.5942 43.2449 38.5812 43.1639C38.5742 43.1209 38.6047 43.0391 38.6361 43.0287C38.6866 43.0132 38.7703 43.0227 38.8069 43.0563C39.0648 43.2982 39.3201 43.5437 39.5615 43.802C39.6286 43.8735 39.6426 43.9923 39.6835 44.0948H39.6826Z" fill="#141414"/>
<path d="M8.56544 46.537C8.64823 46.5853 8.79985 46.6344 8.79898 46.6817C8.79811 46.7842 8.7467 46.9297 8.66566 46.9796C8.37635 47.1605 8.06961 47.3146 7.76113 47.4636C7.69578 47.4946 7.59818 47.4593 7.5154 47.4541C7.5398 47.3585 7.54502 47.2526 7.59295 47.1708C7.63652 47.0942 7.72541 47.0425 7.79338 46.9796L7.78292 46.99C8.0853 46.8987 8.37809 46.7928 8.57764 46.5293L8.56457 46.537H8.56544Z" fill="#141414"/>
<path d="M7.79408 46.9803C7.69909 46.9579 7.60411 46.9355 7.50912 46.9131C7.55618 46.8046 7.57361 46.6505 7.65639 46.5963C7.95006 46.4051 8.26377 46.2423 8.57747 46.0839C8.63411 46.0555 8.77005 46.0744 8.79358 46.1149C8.82582 46.17 8.8084 46.2802 8.77093 46.3422C8.72387 46.4197 8.63499 46.4731 8.5644 46.5368L8.57747 46.5291C8.31256 46.6824 8.04766 46.8365 7.78275 46.9898L7.7932 46.9794L7.79408 46.9803Z" fill="#141414"/>
<path d="M8.05044 47.8844C7.94936 47.9223 7.85089 47.9688 7.74632 47.9963C7.67573 48.0153 7.59731 48.0067 7.52324 48.011C7.52585 47.9292 7.50145 47.8319 7.53892 47.7707C7.58598 47.6941 7.67748 47.6373 7.76113 47.5899C8.00513 47.4521 8.25174 47.3161 8.50444 47.1955C8.57851 47.1602 8.67698 47.1757 8.765 47.168C8.74844 47.2653 8.75977 47.3824 8.70748 47.453C8.64823 47.5331 8.53059 47.5684 8.43996 47.6269C8.30576 47.7139 8.17331 47.8043 8.03998 47.8939L8.05044 47.8844Z" fill="#141414"/>
<path d="M8.45195 48.2067C8.56262 48.2386 8.75695 48.1404 8.75608 48.3376C8.75608 48.4349 8.64715 48.5632 8.55217 48.6235C8.30033 48.7837 8.03194 48.9189 7.76441 49.0523C7.69906 49.0851 7.61192 49.0764 7.53523 49.0868C7.54482 48.9895 7.51606 48.8517 7.57009 48.8018C7.7008 48.6821 7.8716 48.6071 8.02235 48.5073C8.17223 48.4082 8.31602 48.3006 8.46241 48.1973L8.45195 48.2059V48.2067Z" fill="#141414"/>
<path d="M45.4783 54.9495C45.5315 54.9728 45.6491 54.9952 45.7232 55.0641C45.9219 55.2466 46.1058 55.4455 46.2861 55.6462C46.3201 55.6841 46.3341 55.7641 46.3193 55.8141C46.3097 55.8459 46.2304 55.8726 46.1824 55.8744C46.1197 55.8761 46.036 55.8709 45.996 55.833C45.7598 55.6117 45.5237 55.3896 45.3093 55.1485C45.2187 55.0468 45.2596 54.9427 45.4792 54.9495H45.4783Z" fill="#141414"/>
<path d="M8.7275 51.0679C8.60289 51.1971 8.53754 51.2987 8.44429 51.3564C8.22383 51.4916 7.99378 51.6122 7.76024 51.7241C7.69575 51.7551 7.606 51.7362 7.52757 51.7405C7.5389 51.6406 7.51363 51.4856 7.56853 51.4494C7.85609 51.2617 8.16022 51.0981 8.46869 50.9448C8.51139 50.9233 8.60725 51.0085 8.7275 51.0688V51.0679Z" fill="#141414"/>
<path d="M40.0127 42.5279C39.8925 42.4676 39.7609 42.4211 39.6537 42.3427C39.516 42.242 39.4027 42.1102 39.272 42C39.15 41.8975 39.1317 41.7916 39.2354 41.6702C39.3426 41.5454 39.4472 41.5962 39.5396 41.6857C39.6938 41.8338 39.8576 41.9759 39.9866 42.143C40.0502 42.2248 40.045 42.3582 40.0711 42.4685L40.0798 42.459C40.0537 42.4848 40.0284 42.5098 40.0023 42.5356L40.0119 42.5279H40.0127Z" fill="#141414"/>
<path d="M47.4041 55.7408C47.3205 55.7072 47.2473 55.6986 47.2046 55.6582C47.0103 55.4713 46.8203 55.2801 46.6399 55.0812C46.5998 55.0364 46.5719 54.9254 46.599 54.8909C46.6338 54.847 46.7323 54.8289 46.7976 54.8384C46.8674 54.8479 46.9423 54.8909 46.9946 54.9409C47.1732 55.1122 47.3466 55.2905 47.5139 55.473C47.5523 55.5143 47.5915 55.6048 47.5715 55.6366C47.5383 55.6892 47.4582 55.7115 47.4041 55.7425V55.7408Z" fill="#141414"/>
<path d="M39.8749 41.2325C40.0614 40.9483 40.1294 40.9406 40.3603 41.1705C40.4753 41.285 40.6061 41.3866 40.7037 41.5132C40.7464 41.5692 40.7246 41.6734 40.7315 41.756C40.6453 41.7577 40.5302 41.7956 40.4762 41.7543C40.2618 41.5907 40.0667 41.403 39.8654 41.2239L39.8749 41.2325Z" fill="#141414"/>
<path d="M41.38 40.7236C41.4767 40.8467 41.583 40.9647 41.6658 41.0965C41.7111 41.1679 41.7164 41.2644 41.7399 41.3496C41.6397 41.3539 41.509 41.3996 41.4454 41.3539C41.2632 41.223 41.102 41.0603 40.9434 40.8993C40.8423 40.7968 40.9173 40.6986 41.0201 40.6866C41.1395 40.6719 41.2658 40.715 41.3896 40.7331L41.3809 40.7236H41.38Z" fill="#141414"/>
<path d="M39.8654 41.2246C40.0004 41.4011 40.1242 41.5871 40.2732 41.7507C40.3752 41.8618 40.444 41.9755 40.3168 42.0728C40.2671 42.1107 40.105 42.0504 40.0248 41.9936C39.895 41.9006 39.7878 41.7757 39.6763 41.6595C39.4732 41.4494 39.4959 41.3684 39.7809 41.2616C39.8114 41.2504 39.8427 41.2427 39.8741 41.2332L39.8645 41.2246H39.8654Z" fill="#141414"/>
<path d="M41.2188 41.43C41.2092 41.5445 41.048 41.622 40.9399 41.5359C40.7473 41.3818 40.5748 41.2018 40.4022 41.0244C40.3805 41.002 40.3935 40.8995 40.4153 40.8892C40.4981 40.8513 40.6358 40.7885 40.6741 40.822C40.865 40.9891 41.0314 41.1828 41.2048 41.3688C41.217 41.3826 41.2144 41.4093 41.2188 41.43Z" fill="#141414"/>
<path d="M39.6555 45.2133C39.5178 45.2503 39.4577 45.2856 39.4054 45.277C39.2529 45.2512 38.88 44.8258 38.8678 44.6648C38.866 44.6381 38.9479 44.5795 38.9505 44.5821C39.1675 44.7707 39.3802 44.9636 39.6564 45.2133H39.6555Z" fill="#141414"/>
</svg>
