<svg width="100" height="100" viewBox="0 0 100 100" fill="none" xmlns="http://www.w3.org/2000/svg">
<path d="M49.9667 95.9299C24.7978 96.1593 3.77952 75.141 4.00175 49.6997C4.22397 24.5022 24.6114 3.97136 49.9452 4.00003C75.6158 4.0287 96.0463 24.5308 95.9674 50.2374C95.8814 75.5496 75.2718 96.0446 49.9667 95.9299ZM26.339 45.9864C26.1311 44.2444 25.8372 42.4595 25.7225 40.6673C25.4931 36.9827 25.3641 33.2837 25.2064 29.599C25.1849 29.1044 25.1419 28.6958 24.6114 28.4951C22.9483 27.8642 21.3282 27.8141 19.7153 28.6814C19.0701 29.0327 18.812 29.5058 18.7547 30.2514C18.3461 35.9074 19.0988 41.463 20.2744 46.9685C20.6185 48.5599 21.1562 50.1083 21.6293 51.6711C21.8372 52.3664 22.3246 52.6962 23.063 52.6102C24.2602 52.474 25.4573 52.3951 26.6401 52.1944C27.0201 52.1299 27.4072 51.8288 27.7011 51.542C28.9269 50.3377 30.0237 48.99 31.3427 47.9004C32.9915 46.5384 34.7765 45.3341 36.5758 44.1871C37.0131 43.9075 37.8661 43.8717 38.3321 44.1082C40.1099 44.9971 40.3823 47.6853 38.8124 48.8897C37.8016 49.6639 36.6905 50.3951 35.5148 50.8682C32.9986 51.879 30.4108 52.7249 27.8373 53.6066C27.2423 53.8073 26.8337 54.0797 27.0129 54.7679C27.1634 55.3414 27.443 55.7357 28.1814 55.5636C32.5327 54.5457 36.8769 53.4776 41.0346 51.7929C42.8483 51.0617 44.5759 50.1728 45.9451 48.7033C46.6405 47.9578 46.9989 47.1262 46.5616 46.1226C45.8949 44.5742 44.8698 43.2767 43.3429 42.5598C39.5794 40.782 35.694 40.8107 31.952 42.4881C29.995 43.3627 28.2746 44.7677 26.3319 46.0007L26.339 45.9864ZM60.0098 46.0581C59.7589 44.0365 59.4077 42.0078 59.2787 39.9648C59.0708 36.5382 59.0062 33.0973 58.9059 29.6635C58.8916 29.0972 58.7984 28.6671 58.1962 28.4521C56.741 27.9359 55.2929 27.8212 53.8377 28.4377C52.9846 28.7961 52.3897 29.2836 52.4398 30.3446C52.4828 31.2263 52.3323 32.1152 52.3323 33.0041C52.3323 37.169 52.7337 41.3053 53.6083 45.3771C54.0599 47.4703 54.6979 49.5277 55.2786 51.5922C55.4936 52.3521 56.0098 52.7105 56.8342 52.6102C57.9668 52.4668 59.1138 52.4023 60.2392 52.2016C60.655 52.1299 61.078 51.836 61.3862 51.5277C62.612 50.3234 63.7017 48.9685 65.0279 47.8861C66.6981 46.5169 68.519 45.3197 70.3398 44.1369C70.7269 43.886 71.4437 43.843 71.881 44.015C73.6302 44.7176 74.1105 47.3843 72.7269 48.6603C72.1032 49.2338 71.372 49.7212 70.6337 50.137C67.7376 51.7499 64.6121 52.7822 61.4221 53.6424C60.8414 53.8001 60.4686 54.1012 60.6479 54.7392C60.8199 55.3486 61.1497 55.7213 61.9095 55.5421C66.2393 54.5385 70.5405 53.4632 74.6768 51.8073C76.4331 51.1048 78.1105 50.2302 79.4725 48.8538C80.5192 47.7929 80.6912 46.8323 79.96 45.5204C79.1141 44.0007 77.9385 42.7605 76.2754 42.187C72.3756 40.8394 68.4831 40.8609 64.7985 42.8752C63.1569 43.7713 61.6658 44.9541 60.0242 46.0653L60.0098 46.0581ZM25.4716 65.8219C26.3462 65.0978 26.6043 64.2734 26.296 63.2985C25.9591 62.2304 25.0702 61.8863 24.1024 61.8003C23.0773 61.7071 22.0451 61.7214 21.02 61.7716C20.8192 61.7788 20.468 62.1802 20.468 62.4024C20.425 64.4311 20.425 66.467 20.468 68.5029C20.4895 69.7287 21.278 70.6248 22.4895 70.8255C23.0702 70.9259 23.6938 70.9474 24.2745 70.8614C25.572 70.6678 26.4896 69.9366 26.8337 68.6391C27.1563 67.4133 26.5971 66.5315 25.486 65.829L25.4716 65.8219ZM63.845 65.8219C64.7698 65.0907 65.0494 64.2734 64.7196 63.2913C64.397 62.3308 63.6013 61.915 62.6766 61.8218C61.6873 61.7214 60.6765 61.7644 59.6801 61.7143C59.0063 61.6856 58.784 61.9723 58.7984 62.6318C58.8342 64.3451 58.8916 66.0656 58.7912 67.7789C58.6478 70.1947 60.4041 71.1338 62.3683 70.8972C63.6372 70.7467 64.7053 70.209 65.1211 68.9115C65.5297 67.6212 65.1856 66.5459 63.845 65.8147V65.8219ZM50.705 64.3021C50.6549 64.2304 50.6047 64.0799 50.533 64.0656C50.1029 63.9867 49.6656 63.9222 49.2283 63.915C49.1495 63.915 49.0061 64.2233 49.0061 64.3881C49.0133 66.2233 49.0706 68.0513 49.0563 69.8864C49.0563 70.632 49.4362 70.7108 50.0312 70.718C50.662 70.7252 50.9989 70.5531 50.9774 69.8506C50.9416 68.6749 50.9631 67.4993 50.9774 66.3308C50.9774 65.5925 51.4147 65.2269 52.1101 65.2054C52.8556 65.1767 52.8915 65.743 52.8915 66.2806C52.9058 67.5136 52.913 68.7466 52.8915 69.9725C52.8843 70.6176 53.2355 70.7395 53.766 70.7108C54.2607 70.6893 54.784 70.7753 54.7768 70.0155C54.7625 68.6104 54.827 67.2054 54.7553 65.8075C54.6764 64.2376 53.4936 63.3774 51.9667 63.7358C51.5581 63.829 51.1925 64.0799 50.705 64.3093V64.3021ZM31.5291 70.2377C31.5291 70.3094 31.5148 70.3811 31.5148 70.4456C31.9951 70.5173 32.4825 70.6248 32.9628 70.632C33.0703 70.632 33.2711 70.252 33.2711 70.0441C33.2854 68.2377 33.2424 66.4312 33.2567 64.6319C33.2567 63.8648 32.8194 63.8433 32.246 63.8362C31.6725 63.8362 31.314 63.9365 31.3355 64.6319C31.3714 65.8075 31.357 66.9832 31.3355 68.1588C31.3284 68.933 30.8911 69.399 30.2101 69.3918C29.4 69.3775 29.3355 68.804 29.3355 68.1875C29.3355 66.9545 29.3212 65.7215 29.3355 64.4885C29.3355 63.8433 28.9126 63.8433 28.4609 63.8505C28.0165 63.8577 27.4717 63.7358 27.4717 64.4527C27.4717 65.9437 27.3928 67.442 27.5362 68.9187C27.6939 70.6105 29.3498 71.4062 30.8768 70.6463C31.1061 70.5316 31.3069 70.3739 31.5291 70.2377ZM73.6158 70.2377C73.6373 70.3237 73.6588 70.4026 73.6732 70.4886C74.1606 70.5459 74.6481 70.6678 75.1212 70.6105C75.2431 70.5961 75.3578 69.994 75.365 69.6642C75.3793 68.0011 75.3291 66.338 75.3506 64.682C75.3578 64.0225 75.0925 63.829 74.4832 63.8505C73.9456 63.872 73.4366 63.8147 73.4581 64.6175C73.4939 65.7932 73.4724 66.9688 73.4653 68.1445C73.4653 68.9115 73.028 69.3918 72.3541 69.399C71.5441 69.4061 71.4581 68.8398 71.4581 68.2233C71.4581 67.019 71.4366 65.8147 71.4581 64.6104C71.4724 63.8863 71.0495 63.8577 70.5118 63.8505C69.9598 63.8505 69.5512 63.9007 69.5656 64.6104C69.5942 65.786 69.5799 66.9617 69.5656 68.1373C69.5512 69.1983 69.7735 70.1588 70.8057 70.6893C71.8237 71.2055 72.7484 70.9115 73.6087 70.252L73.6158 70.2377ZM48.5616 67.1982C48.5616 65.4419 47.8591 64.2161 46.6118 63.8003C44.9343 63.234 43.0777 64.1731 42.5472 65.8649C41.8734 68.0226 42.7336 70.2664 44.4397 70.7897C44.5472 70.8255 44.6619 70.847 44.7766 70.8685C46.8699 71.2628 48.5688 69.6212 48.5616 67.2054V67.1982ZM77.8811 68.123C78.2682 68.0584 78.6768 68.0441 79.0424 67.9079C79.6231 67.6929 80.2252 67.4778 80.727 67.1265C81.4224 66.6391 81.6518 65.8935 81.3866 65.0692C81.1142 64.2233 80.4761 63.7788 79.6016 63.6856C78.2395 63.5422 77.2288 64.1157 76.4832 65.234C75.6302 66.5172 75.7019 68.7108 76.6481 69.8434C77.5442 70.9187 79.2288 71.2341 80.6554 70.589C81.6805 70.1302 81.7163 69.7789 80.8489 68.9545C79.0209 69.7502 78.1535 69.5208 77.8883 68.1158L77.8811 68.123ZM49.7086 52.517C49.7086 52.517 49.7229 52.5815 49.7301 52.6173C50.5975 52.4381 51.4721 52.3162 52.318 52.0582C52.5474 51.9865 52.8126 51.5277 52.8054 51.2481C52.7768 50.3091 52.6836 49.3556 52.5115 48.4309C52.4542 48.1155 52.1244 47.7212 51.8305 47.6137C50.7767 47.2266 49.6943 47.2696 48.6333 47.6423C47.4003 48.0725 47.257 48.3018 47.4075 49.6065C47.472 50.1442 47.601 50.6818 47.6297 51.2195C47.6727 52.137 48.1889 52.4668 49.0276 52.4668C49.257 52.4668 49.4864 52.4955 49.7158 52.517H49.7086ZM83.5013 52.5815C84.254 52.4453 85.0139 52.3234 85.7666 52.1585C86.2899 52.0438 86.5264 51.7213 86.4404 51.1549C86.3472 50.5313 86.2827 49.9076 86.2469 49.2839C86.1465 47.6567 86.0318 47.5276 84.4117 47.3771C84.125 47.3484 83.8382 47.3484 83.5586 47.3771C81.3149 47.5563 80.8346 48.1585 81.1643 50.3736C81.1715 50.4309 81.1787 50.4883 81.1858 50.5456C81.4582 52.4668 81.5729 52.56 83.5013 52.5887V52.5815ZM36.0238 63.6498C36.0238 63.3917 35.9951 63.0763 36.0238 62.768C36.1026 62.0082 35.7012 61.8576 35.0417 61.8576C34.4037 61.8576 34.0954 62.044 34.1026 62.7394C34.1313 64.6821 34.0883 66.6319 34.1241 68.5746C34.16 70.5818 35.6582 71.5137 37.4862 70.6678C37.7227 70.5603 37.9521 70.1302 37.9378 69.8578C37.9235 69.4348 37.6726 69.1337 37.1134 69.3416C36.6546 69.5137 36.1026 69.4922 36.0596 68.8613C35.9879 67.7359 36.0381 66.6032 36.0381 65.5853C36.6188 65.0835 37.7299 65.9509 37.7658 64.6605C37.8016 63.2913 36.6259 64.1587 36.0166 63.6569L36.0238 63.6498ZM40.3321 65.5996C40.9199 65.0763 41.9522 65.9079 42.0669 64.7466C42.2174 63.2555 40.8769 64.1731 40.3249 63.6498C40.3249 63.3702 40.3034 63.0261 40.3249 62.6892C40.3823 61.9508 39.9378 61.8648 39.35 61.8576C38.7694 61.8576 38.4324 61.9867 38.4396 62.6605C38.4683 64.6319 38.4181 66.6032 38.4683 68.5746C38.5185 70.5603 39.8733 71.4349 41.7371 70.6965C41.9952 70.5961 42.3321 70.1875 42.3035 69.9581C42.2533 69.5137 42.0239 69.1051 41.3644 69.3416C40.7694 69.5495 40.3464 69.2915 40.3321 68.6033C40.3178 67.5782 40.3321 66.553 40.3321 65.5996ZM65.9311 65.8434C65.9311 66.847 65.9096 67.8506 65.9311 68.847C65.9813 70.675 67.6085 71.5711 69.2071 70.632C69.3935 70.5244 69.5441 70.0872 69.4724 69.8936C69.3864 69.6499 68.9993 69.2915 68.8272 69.3416C67.881 69.5854 67.8093 69.0477 67.8164 68.3595C67.8236 66.4957 67.7949 64.639 67.8308 62.7752C67.8451 62.0297 67.5082 61.8505 66.8415 61.8576C66.1963 61.8576 65.8953 62.0583 65.9168 62.7465C65.9526 63.7788 65.9239 64.8111 65.9239 65.8362L65.9311 65.8434Z" fill="#141414"/>
<path d="M22.3595 66.8408C24.3524 66.7261 24.8398 66.9627 24.847 68.0093C24.8542 68.9555 24.3309 69.4645 23.4205 69.4C22.424 69.3283 22.123 68.6186 22.3595 66.8408Z" fill="#141414"/>
<path d="M22.3025 65.2332V63.1543C22.9979 63.3048 23.6646 63.355 24.2237 63.6274C24.4101 63.7206 24.4746 64.4877 24.3026 64.7744C23.8581 65.5199 23.0696 65.2547 22.2954 65.2332H22.3025Z" fill="#141414"/>
<path d="M60.6621 66.8467C61.2499 66.8467 61.7374 66.8181 62.2105 66.8467C62.956 66.8969 63.3431 67.3055 63.3073 68.0797C63.2714 68.8826 62.8198 69.3557 62.0384 69.3916C61.2499 69.4274 60.7481 69.0618 60.6621 68.3163C60.6119 67.8432 60.6549 67.3629 60.6549 66.8396L60.6621 66.8467Z" fill="#141414"/>
<path d="M60.6835 65.2697V63.1406C61.4075 63.3055 62.0885 63.3844 62.6835 63.6568C62.8484 63.7356 62.9272 64.4453 62.7767 64.7177C62.3322 65.5206 61.5007 65.241 60.6835 65.2697Z" fill="#141414"/>
<path d="M44.2102 67.1471C44.2747 66.7959 44.2604 66.2295 44.5041 65.8138C44.6905 65.4912 45.1995 65.1973 45.5722 65.1973C45.8877 65.1973 46.4325 65.5987 46.4755 65.8783C46.6045 66.7313 46.6045 67.6202 46.5257 68.4805C46.4755 69.054 46.0669 69.4626 45.4074 69.4411C44.7407 69.4196 44.4754 68.9536 44.3464 68.3945C44.2604 68.036 44.2604 67.6633 44.2102 67.1328V67.1471Z" fill="#141414"/>
<path d="M77.7231 66.8476C77.8808 65.8798 78.1102 65.206 78.9919 65.1343C79.2357 65.1128 79.6084 65.3279 79.7231 65.5357C79.8092 65.6934 79.6515 66.1666 79.4722 66.2526C78.9633 66.5035 78.397 66.6325 77.7159 66.8476H77.7231Z" fill="#141414"/>
</svg>
