<svg width="100" height="100" viewBox="0 0 100 100" fill="none" xmlns="http://www.w3.org/2000/svg">
<path d="M5.27792 54.9626C3.01474 54.5971 1.4706 53.0303 1.08123 50.7053C0.94212 49.8757 0.986583 48.5185 1.17714 47.7649C1.64273 45.9244 2.86865 44.6479 4.64273 44.1554C5.33318 43.9637 6.70201 43.9465 7.43756 44.1197C9.05284 44.4998 10.1079 45.5727 10.5144 47.2472C10.5862 47.5441 10.6453 47.8647 10.6453 47.9592V48.1311L9.14812 48.1133L7.65098 48.0954L7.53982 47.7536C7.3823 47.2697 7.14347 46.9762 6.73758 46.77C6.42761 46.612 6.33233 46.5948 5.92708 46.6219C5.37193 46.6596 5.03146 46.8255 4.71324 47.2115C4.30608 47.706 4.10218 48.4643 4.10218 49.483C4.10218 50.6134 4.3245 51.3439 4.8263 51.8629C5.19407 52.243 5.48054 52.3593 6.0465 52.3573C6.77569 52.3547 7.27622 51.9309 7.53284 51.0993L7.67448 50.6399H10.7075V50.8607C10.7075 51.2097 10.4712 52.0903 10.261 52.5246C9.72996 53.6226 8.73906 54.4476 7.52077 54.806C7.06089 54.9415 5.72446 55.034 5.27665 54.9613L5.27792 54.9626ZM66.7197 54.9329C64.9996 54.6704 63.6028 53.5592 62.9353 51.9217C62.605 51.1125 62.5078 50.5328 62.5148 49.4182C62.5218 48.2719 62.6355 47.7159 63.0401 46.84C63.6759 45.4637 64.7443 44.5534 66.1925 44.1541C66.8785 43.965 68.1343 43.9485 68.8603 44.119C69.5488 44.281 70.5474 44.794 71.0047 45.2211C72.0839 46.2292 72.6244 47.4978 72.6873 49.173C72.735 50.4435 72.5679 51.334 72.1017 52.2912C71.154 54.2368 69.0204 55.2839 66.7204 54.9329H66.7197ZM68.3521 52.204C69.195 51.7934 69.6124 50.8627 69.6009 49.4182C69.5927 48.3711 69.3316 47.5857 68.8368 47.1203C68.4601 46.766 68.2124 46.6569 67.71 46.6225C67.3168 46.5961 67.2088 46.6153 66.8677 46.7746C65.9721 47.193 65.5414 48.1972 65.6069 49.715C65.6659 51.0788 66.1341 51.9547 66.97 52.2648C67.3606 52.4096 67.9844 52.3818 68.3515 52.2033L68.3521 52.204ZM11.0264 54.677C11.0264 54.6427 11.3713 53.6385 11.7937 52.4459C13.273 48.2633 14.3884 45.1173 14.5421 44.6915L14.6971 44.2618L16.2209 44.244L17.7448 44.2261L17.9715 44.872C19.9279 50.4482 21.3806 54.6248 21.3806 54.6757C21.3806 54.7154 20.7727 54.7398 19.7952 54.7398H18.2097L18.0128 54.0622C17.9048 53.6894 17.8038 53.347 17.7892 53.3007C17.7683 53.2352 17.4094 53.2207 16.1587 53.2346L14.5542 53.2524L14.3306 53.9961L14.107 54.7398H12.5667C11.6362 54.7398 11.0264 54.7154 11.0264 54.6777V54.677ZM17.1013 50.8197C16.9292 50.1262 16.2591 47.8006 16.2305 47.7999C16.1739 47.7986 15.2618 50.8845 15.2993 50.9486C15.3177 50.9797 15.7388 50.9962 16.2349 50.9856C17.128 50.9658 17.1363 50.9638 17.1007 50.8203L17.1013 50.8197ZM22.2698 49.4843L22.2718 44.2288H25.381V48.1291C25.381 51.2044 25.3975 52.0301 25.4604 52.0308C25.5042 52.0314 26.5186 52.0308 27.7153 52.0294L29.8908 52.0261V54.7398H22.2673L22.2692 49.4843H22.2698ZM31.1619 53.4858V52.2317L33.5019 49.602L35.8419 46.9722L33.6264 46.9551L31.4109 46.9379L31.4178 45.5833L31.4248 44.2288H39.9903V46.5809L37.6433 49.2867C36.3526 50.7747 35.3058 52.0017 35.3166 52.0136C35.3274 52.0248 36.4339 52.0407 37.7748 52.0486L40.2127 52.0632L40.2298 53.4018L40.247 54.7405H31.1612V53.4865L31.1619 53.4858ZM41.7485 54.6962C41.725 54.6718 41.706 52.3064 41.706 49.44V44.2281H50.0905V46.9385H44.814L44.8324 47.5831L44.8508 48.2276L47.2499 48.2448L49.649 48.262L49.6319 49.5008L49.6147 50.7397L47.2169 50.7569L44.819 50.7741V52.0288H50.2156L50.2505 52.1775C50.2696 52.2595 50.2779 52.8617 50.2677 53.5162L50.2499 54.7061L46.0208 54.7233C43.6948 54.7326 41.7727 54.72 41.7492 54.6956L41.7485 54.6962ZM52.0596 49.4896V44.2281L54.8703 44.2301C57.8671 44.2328 58.3206 44.2691 59.0396 44.5653C60.8391 45.3063 61.8148 47.2459 61.6966 49.8472C61.6522 50.8316 61.5137 51.4537 61.1688 52.2179C60.6492 53.3714 59.6748 54.1687 58.3162 54.5534C57.8372 54.6889 57.6422 54.6989 54.9338 54.7233L52.0596 54.7498V49.4889V49.4896ZM57.4936 51.7967C57.9535 51.5515 58.2838 51.1225 58.4508 50.5519C58.6179 49.9834 58.6166 48.8841 58.4489 48.4266C58.0526 47.3444 57.3736 46.9392 55.9558 46.9392H55.172V52.0413L56.1457 52.0189C57.0833 51.9971 57.1328 51.9891 57.4936 51.7967ZM73.6985 54.6956C73.675 54.6711 73.656 52.3064 73.656 49.44V44.2281H76.8688L78.1048 46.5868C78.7845 47.8839 79.4476 49.1558 79.5785 49.4129C79.7093 49.6701 79.8173 49.8506 79.8186 49.8142C79.8198 49.7778 79.8192 48.5059 79.8173 46.9881L79.8135 44.2281H82.8027V54.7418L81.2674 54.724L79.7328 54.7061L78.754 52.8882C78.2154 51.8886 77.5275 50.6134 77.2245 50.0555L76.6738 49.0407L76.6572 51.89L76.6407 54.7392H75.1912C74.3941 54.7392 73.7227 54.7194 73.6992 54.6949L73.6985 54.6956ZM84.7083 49.4843V44.2281H87.8207V54.7392H84.7083V49.4837V49.4843ZM88.6464 54.6744C88.6464 54.6387 89.0028 53.6048 89.4391 52.3772C89.8755 51.1496 90.7 48.8213 91.2723 47.2036L92.3134 44.2618L93.8391 44.244C95.2486 44.2275 95.3686 44.2354 95.4087 44.3432C95.6526 44.9956 99 54.6255 99 54.6744C99 54.7154 98.4163 54.7398 97.4158 54.7398H95.8317L95.6653 54.1614C95.5738 53.8434 95.4766 53.5083 95.4499 53.4177L95.4004 53.2524H92.1749L91.9558 53.9961L91.7366 54.7398H90.1918C89.2156 54.7398 88.6471 54.716 88.6471 54.6744H88.6464ZM94.3593 49.5088C94.1421 48.7314 93.9509 48.0286 93.9344 47.9473C93.9179 47.8653 93.8855 47.7986 93.862 47.7986C93.8239 47.7986 92.8984 50.8071 92.9009 50.9202C92.9022 50.979 94.6286 51.0206 94.7017 50.9631C94.7303 50.9407 94.5766 50.2862 94.3593 49.5088Z" fill="#141414"/>
</svg>
