<svg xmlns="http://www.w3.org/2000/svg" width="586" height="623" viewBox="0 0 586 623" fill="none"><path d="M545.025 622.627H223.909C201.319 622.627 183.007 604.314 183.007 581.725V139.962C183.007 117.372 201.319 99.0597 223.909 99.0597H545.025C567.615 99.0597 585.927 117.372 585.927 139.962V581.725C585.936 604.314 567.615 622.627 545.025 622.627Z" fill="#263238"></path><path d="M566.66 144.249H202.283V597.775H566.66V144.249Z" fill="white" stroke="#1090CF" stroke-miterlimit="10" stroke-linecap="round" stroke-linejoin="round"></path><path d="M310.473 200.062H458.461" stroke="#1090CF" stroke-miterlimit="10" stroke-linecap="round" stroke-linejoin="round"></path><path d="M239.898 263.808H529.036" stroke="#1090CF" stroke-miterlimit="10" stroke-linecap="round" stroke-linejoin="round"></path><path d="M239.898 313.897H529.036" stroke="#1090CF" stroke-miterlimit="10" stroke-linecap="round" stroke-linejoin="round"></path><path d="M239.898 363.986H529.036" stroke="#1090CF" stroke-miterlimit="10" stroke-linecap="round" stroke-linejoin="round"></path><path d="M239.898 414.075H529.036" stroke="#1090CF" stroke-miterlimit="10" stroke-linecap="round" stroke-linejoin="round"></path><path d="M239.898 464.155H529.036" stroke="#1090CF" stroke-miterlimit="10" stroke-linecap="round" stroke-linejoin="round"></path><path d="M239.898 514.244H529.036" stroke="#1090CF" stroke-miterlimit="10" stroke-linecap="round" stroke-linejoin="round"></path><path d="M444.365 91.9244C433.925 91.9244 428.201 80.4672 433.741 71.6311C439.447 62.5407 442.016 51.294 439.947 39.3722C436.844 21.4808 422.722 6.74522 404.953 3.02843C375.508 -3.1253 349.587 19.1754 349.587 47.5334C349.587 56.6938 352.296 65.2143 356.959 72.3499C362.464 80.7652 355.942 91.9332 345.888 91.9332H266.713L288.111 153.4H502.116L523.513 91.9332H444.365V91.9244ZM395.135 65.7403C386.334 65.7403 379.199 58.6049 379.199 49.8038C379.199 41.0027 386.334 33.8673 395.135 33.8673C403.936 33.8673 411.072 41.0027 411.072 49.8038C411.072 58.6049 403.936 65.7403 395.135 65.7403Z" fill="#263238" stroke="white" stroke-width="3" stroke-miterlimit="10" stroke-linecap="round" stroke-linejoin="round"></path><path d="M355.783 352.891C355.783 254.645 276.138 175 177.891 175C79.6446 175 -1.20704e-05 254.645 -7.77588e-06 352.891C-3.48138e-06 451.138 79.6446 530.783 177.891 530.783C276.138 530.783 355.783 451.138 355.783 352.891Z" fill="#1291CF"></path><path d="M174.459 500.077V471.593C154.699 470.627 139.877 464.253 129.992 452.454C120.117 440.655 114.789 422.482 114.017 397.926L158.05 391.312C158.236 401.285 159.105 409.344 160.638 415.487C162.172 421.622 164.432 426.036 167.402 428.722C170.381 431.409 173.971 432.747 178.2 432.747C183.563 432.747 187.074 430.93 188.705 427.286C190.336 423.643 191.151 419.795 191.151 415.771C191.151 406.179 188.891 398.076 184.388 391.454C179.875 384.841 173.687 378.175 165.824 371.455L145.382 353.902C139.637 348.725 134.407 343.397 129.7 337.936C125.001 332.467 121.207 326.137 118.335 318.939C115.454 311.749 114.017 303.159 114.017 293.186C114.017 274.96 119.248 260.669 129.708 250.306C140.16 239.943 154.22 234.092 171.87 232.754V205.414H186.542V232.47C197.667 233.046 206.585 235.591 213.296 240.094C220.007 244.597 225.042 250.165 228.402 256.787C231.762 263.4 234.067 270.403 235.308 277.788C236.558 285.181 237.276 292.043 237.462 298.363L192.862 303.833C192.676 296.927 192.242 290.881 191.568 285.695C190.894 280.518 189.547 276.538 187.535 273.754C185.531 270.979 182.304 269.676 177.898 269.871C173.094 269.871 169.556 271.884 167.252 275.917C164.947 279.951 163.794 283.975 163.794 288C163.794 297.211 166.143 304.648 170.842 310.304C175.54 315.969 180.673 321.288 186.24 326.279L205.805 343.255C212.321 349.213 218.323 355.542 223.783 362.253C229.253 368.973 233.615 376.463 236.886 384.699C240.139 392.952 241.779 402.447 241.779 413.191C241.779 423.359 239.669 432.658 235.45 441.098C231.23 449.546 225.184 456.408 217.321 461.674C209.449 466.957 200.052 470.157 189.113 471.31V500.086H174.459V500.077Z" fill="white"></path></svg>