<svg width="436" height="373" viewBox="0 0 436 373" fill="none" xmlns="http://www.w3.org/2000/svg">
<path d="M298.712 294.722H298.712H136.865H136.858L136.851 294.722C136.637 294.723 136.425 294.682 136.227 294.601C136.029 294.52 135.85 294.401 135.698 294.25C135.546 294.099 135.426 293.92 135.344 293.723C135.262 293.526 135.22 293.314 135.22 293.1V235.703C135.266 235.316 135.448 234.958 135.734 234.693C136.039 234.411 136.438 234.254 136.853 234.254C137.268 234.254 137.667 234.411 137.972 234.693C138.258 234.958 138.44 235.316 138.486 235.703V288.908V291.408H140.986H294.591H297.091V288.908V235.587C297.091 235.157 297.261 234.744 297.565 234.44C297.87 234.136 298.282 233.965 298.712 233.965C299.142 233.965 299.555 234.136 299.859 234.44C300.163 234.744 300.334 235.157 300.334 235.587V293.029V293.051L300.334 293.072C300.338 293.288 300.298 293.501 300.219 293.701C300.139 293.901 300.02 294.083 299.869 294.237C299.718 294.39 299.538 294.512 299.339 294.596C299.141 294.679 298.928 294.722 298.712 294.722Z" stroke="#0093D8" stroke-width="5"/>
<path d="M276.78 127.849L276.778 127.843C273.384 114.813 265.763 103.277 255.109 95.0428C244.455 86.8088 231.371 82.3418 217.906 82.3418C204.441 82.3418 191.356 86.8088 180.702 95.0428C170.052 103.274 162.433 114.804 159.037 127.829L158.695 129.082H137.08C130.106 128.934 123.174 130.178 116.687 132.742C110.192 135.309 104.275 139.148 99.283 144.033C94.2912 148.917 90.3251 154.75 87.6174 161.187C84.9097 167.625 83.5149 174.539 83.5149 181.523C83.5149 188.507 84.9097 195.421 87.6174 201.859C90.3251 208.297 94.2912 214.129 99.283 219.014C104.275 223.898 110.192 227.737 116.687 230.304C123.173 232.868 130.106 234.112 137.079 233.964H151.184C151.614 233.964 152.026 234.135 152.33 234.439C152.634 234.743 152.805 235.156 152.805 235.586C152.805 236.016 152.634 236.429 152.33 236.733C152.026 237.037 151.614 237.208 151.184 237.208H137.053C122.281 237.208 108.115 231.34 97.6695 220.895C87.2244 210.449 81.3564 196.283 81.3564 181.511C81.3564 166.74 87.2244 152.573 97.6695 142.128C108.115 131.683 122.281 125.815 137.053 125.815H154.41H156.252L156.798 124.056C160.852 110.993 168.979 99.5688 179.991 91.4558C191.003 83.3429 204.322 78.9663 218 78.9663C231.678 78.9663 244.997 83.3429 256.009 91.4558C267.021 99.5688 275.148 110.993 279.202 124.056L279.748 125.815H281.589H298.947C313.719 125.815 327.885 131.683 338.33 142.128C348.775 152.573 354.643 166.74 354.643 181.511C354.643 196.283 348.775 210.449 338.33 220.895C327.885 231.34 313.719 237.208 298.947 237.208H298.712H182.908C182.478 237.208 182.065 237.037 181.761 236.733C181.457 236.429 181.286 236.016 181.286 235.586C181.286 235.156 181.457 234.743 181.761 234.439C182.065 234.135 182.478 233.964 182.908 233.964H298.685C305.658 234.112 312.591 232.868 319.077 230.304C325.572 227.737 331.489 223.898 336.481 219.014C341.473 214.129 345.439 208.297 348.147 201.859C350.855 195.421 352.249 188.507 352.249 181.523C352.249 174.539 350.855 167.625 348.147 161.187C345.439 154.75 341.473 148.917 336.481 144.033C331.489 139.148 325.572 135.309 319.077 132.742C312.591 130.178 305.658 128.934 298.685 129.082H277.098L276.78 127.849Z" stroke="#0093D8" stroke-width="5"/>
<path d="M184.529 269.877V269.878C184.529 270.312 184.357 270.729 184.051 271.037C183.746 271.344 183.333 271.518 182.901 271.523C182.467 271.521 182.051 271.348 181.745 271.041C181.436 270.732 181.263 270.314 181.263 269.877V258.476C181.309 258.09 181.491 257.732 181.777 257.467C182.082 257.185 182.481 257.028 182.896 257.028C183.311 257.028 183.71 257.185 184.015 257.467C184.301 257.732 184.483 258.09 184.529 258.476V269.877Z" stroke="#0093D8" stroke-width="5"/>
<path d="M216.165 269.892L216.165 269.884V269.877V254.192C216.165 253.762 216.336 253.349 216.64 253.045C216.944 252.741 217.357 252.57 217.787 252.57C218.217 252.57 218.629 252.741 218.933 253.045C219.237 253.349 219.408 253.762 219.408 254.192V269.877V269.884L219.408 269.892C219.409 270.105 219.368 270.317 219.287 270.515C219.207 270.713 219.087 270.893 218.937 271.044C218.786 271.196 218.607 271.316 218.409 271.398C218.212 271.48 218 271.522 217.787 271.522H217.787C217.573 271.522 217.361 271.48 217.164 271.398C216.967 271.316 216.787 271.196 216.637 271.044C216.486 270.893 216.367 270.713 216.286 270.515C216.205 270.317 216.164 270.105 216.165 269.892Z" stroke="#0093D8" stroke-width="5"/>
<path d="M251.046 269.891L251.046 269.884V269.877V258.36C251.046 257.93 251.217 257.518 251.521 257.214C251.825 256.91 252.237 256.739 252.668 256.739C253.098 256.739 253.51 256.91 253.814 257.214C254.118 257.518 254.289 257.93 254.289 258.36V269.877V269.884L254.289 269.891C254.29 270.105 254.249 270.317 254.168 270.515C254.087 270.713 253.968 270.892 253.817 271.044C253.667 271.196 253.488 271.316 253.29 271.398C253.093 271.48 252.881 271.522 252.668 271.522H252.667C252.454 271.522 252.242 271.48 252.045 271.398C251.847 271.316 251.668 271.196 251.518 271.044C251.367 270.892 251.248 270.713 251.167 270.515C251.086 270.317 251.045 270.105 251.046 269.891Z" stroke="#0093D8" stroke-width="5"/>
</svg>
