<svg xmlns="http://www.w3.org/2000/svg" width="600" height="623" viewBox="0 0 600 623" fill="none"><path d="M558.416 622.627H237.3C214.71 622.627 196.398 604.315 196.398 581.725V139.962C196.398 117.372 214.71 99.0598 237.3 99.0598H558.416C581.006 99.0598 599.318 117.372 599.318 139.962V581.725C599.318 604.315 581.006 622.627 558.416 622.627Z" fill="#263238"></path><path d="M580.042 144.248H215.665V597.775H580.042V144.248Z" fill="white" stroke="#263238" stroke-miterlimit="10" stroke-linecap="round" stroke-linejoin="round"></path><path d="M323.864 200.062H471.843" stroke="#263238" stroke-miterlimit="10" stroke-linecap="round" stroke-linejoin="round"></path><path d="M253.28 263.808H542.418" stroke="#263238" stroke-miterlimit="10" stroke-linecap="round" stroke-linejoin="round"></path><path d="M253.28 313.897H542.418" stroke="#263238" stroke-miterlimit="10" stroke-linecap="round" stroke-linejoin="round"></path><path d="M253.28 363.986H542.418" stroke="#263238" stroke-miterlimit="10" stroke-linecap="round" stroke-linejoin="round"></path><path d="M253.28 414.075H542.418" stroke="#263238" stroke-miterlimit="10" stroke-linecap="round" stroke-linejoin="round"></path><path d="M253.28 464.155H542.418" stroke="#263238" stroke-miterlimit="10" stroke-linecap="round" stroke-linejoin="round"></path><path d="M253.28 514.244H542.418" stroke="#263238" stroke-miterlimit="10" stroke-linecap="round" stroke-linejoin="round"></path><path d="M446.756 91.9244C436.325 91.9244 430.592 80.4672 436.132 71.631C441.838 62.5407 444.407 51.294 442.338 39.3722C439.235 21.4808 425.113 6.74522 407.344 3.02843C377.899 -3.1253 351.978 19.1754 351.978 47.5334C351.978 56.6938 354.687 65.2143 359.35 72.3499C364.855 80.7652 358.333 91.9332 348.279 91.9332H269.104L290.502 153.4H504.515L525.913 91.9332H446.756V91.9244ZM397.518 65.7403C388.716 65.7403 381.581 58.6049 381.581 49.8038C381.581 41.0027 388.716 33.8673 397.518 33.8673C406.319 33.8673 413.454 41.0027 413.454 49.8038C413.454 58.6049 406.319 65.7403 397.518 65.7403Z" fill="#263238" stroke="white" stroke-width="3" stroke-miterlimit="10" stroke-linecap="round" stroke-linejoin="round"></path><path d="M278.728 238.764C197.827 215.113 151.016 160.842 139.875 146.659C128.733 160.842 81.914 215.122 1.02131 238.764C1.02131 238.764 -3.9841 386.813 139.875 522.528C283.734 386.821 278.728 238.764 278.728 238.764Z" fill="#1291CF" stroke="#1291CF" stroke-miterlimit="10" stroke-linecap="round" stroke-linejoin="round"></path><path d="M254.411 255.551C187.685 236.046 149.062 191.278 139.875 179.575C130.688 191.278 92.0649 236.046 25.3382 255.551C25.3382 255.551 21.2095 377.678 139.875 489.62C258.531 377.678 254.411 255.551 254.411 255.551Z" fill="#1291CF" stroke="#1291CF" stroke-miterlimit="10"></path><path d="M254.411 255.551C187.684 236.046 149.061 191.278 139.875 179.575V489.62C258.531 377.678 254.411 255.551 254.411 255.551Z" fill="#8CD6F6" stroke="#1291CF" stroke-miterlimit="10" stroke-linecap="round" stroke-linejoin="round"></path><g opacity="0.52"><path fill-rule="evenodd" clip-rule="evenodd" d="M539.88 519.646C539.598 519.781 539.301 519.885 538.996 519.957L538.219 520.148C537.863 520.241 537.495 520.282 537.128 520.271C536.809 520.262 536.497 520.178 536.217 520.028C536.049 519.937 535.9 519.816 535.777 519.67C535.659 519.527 535.575 519.358 535.531 519.178L535.452 518.857L536.782 518.53L536.86 518.85C536.869 518.89 536.887 518.927 536.911 518.959C536.944 518.998 536.983 519.029 537.027 519.052C537.136 519.109 537.256 519.138 537.378 519.137C537.577 519.139 537.774 519.114 537.966 519.063L538.721 518.877C538.915 518.833 539.102 518.764 539.276 518.669C539.381 518.61 539.47 518.528 539.537 518.429C539.569 518.388 539.593 518.342 539.608 518.293C539.615 518.255 539.613 518.216 539.604 518.178L539.525 517.858L540.862 517.528L540.941 517.849C541.002 518.086 540.995 518.335 540.923 518.568C540.844 518.805 540.709 519.02 540.531 519.195C540.341 519.381 540.121 519.533 539.88 519.646ZM542.808 518.869L544.143 524.284L542.81 524.613L541.693 520.08L537.794 525.763L537.722 525.867L536.158 526.253L534.743 520.512L536.075 520.183L537.149 524.537L540.884 519.1L540.957 518.994L542.731 518.557L542.808 518.869ZM535.274 524.278C535.475 525.095 535.387 525.711 535.01 526.127C534.795 526.347 534.536 526.52 534.251 526.635C533.867 526.798 533.47 526.927 533.064 527.02L530.154 527.738C529.179 527.978 528.443 528.003 527.945 527.813C527.401 527.607 527.036 527.123 526.849 526.36L526.458 524.774C526.368 524.449 526.339 524.11 526.372 523.774C526.405 523.473 526.522 523.188 526.709 522.951C526.927 522.7 527.197 522.5 527.501 522.364C527.89 522.182 528.298 522.042 528.718 521.946L531.631 521.228C532.552 521 533.247 520.973 533.715 521.146C534.014 521.258 534.272 521.457 534.454 521.719C534.656 522.015 534.8 522.346 534.878 522.696L535.274 524.278ZM533.54 522.977C533.501 522.797 533.435 522.626 533.342 522.468C533.294 522.386 533.222 522.321 533.136 522.281C533 522.24 532.857 522.226 532.716 522.242C532.444 522.264 532.174 522.31 531.91 522.38L528.999 523.098C528.418 523.241 528.037 523.411 527.858 523.606C527.789 523.685 527.746 523.783 527.735 523.887C527.717 524.058 527.732 524.231 527.779 524.397L528.181 526.027C528.216 526.195 528.282 526.356 528.376 526.5C528.428 526.581 528.505 526.645 528.595 526.68C528.829 526.763 529.248 526.73 529.853 526.581L532.772 525.862C533.045 525.799 533.312 525.713 533.571 525.605C533.701 525.557 533.82 525.483 533.921 525.387C533.973 525.316 534.002 525.23 534.003 525.141C534.011 524.961 533.99 524.781 533.941 524.607L533.54 522.977ZM520.18 526.732L523.864 525.823C524.085 525.772 524.301 525.706 524.513 525.625C524.615 525.59 524.71 525.537 524.795 525.469C524.835 525.428 524.861 525.375 524.868 525.318C524.88 525.2 524.869 525.081 524.836 524.967C524.767 524.686 524.66 524.512 524.513 524.449C524.407 524.409 524.293 524.394 524.181 524.402C523.984 524.411 523.79 524.44 523.6 524.491L519.855 525.415L520.18 526.732ZM519.575 529.993L518.242 524.586L523.049 523.401C523.428 523.302 523.815 523.241 524.206 523.218C524.515 523.197 524.826 523.235 525.12 523.331C525.389 523.425 525.624 523.594 525.798 523.819C525.981 524.062 526.11 524.341 526.176 524.638C526.254 524.921 526.269 525.218 526.219 525.507C526.17 525.777 526.035 526.023 525.835 526.21C525.492 526.531 524.865 526.804 523.953 527.029L520.465 527.889L520.983 529.989L519.655 530.317L519.575 529.993ZM510.584 526.474L518.074 524.628L518.359 525.783L515.109 526.585L516.238 531.164L514.906 531.492L513.777 526.913L510.547 527.709L510.262 526.554L510.584 526.474ZM508.818 533.009L505.911 533.726C505.504 533.833 505.087 533.897 504.667 533.917C504.338 533.938 504.01 533.887 503.702 533.77C503.421 533.652 503.181 533.455 503.01 533.202C502.819 532.919 502.683 532.603 502.608 532.269L502.242 530.786C502.153 530.454 502.127 530.109 502.164 529.768C502.2 529.461 502.321 529.17 502.513 528.927C502.729 528.674 502.997 528.471 503.299 528.331C503.676 528.15 504.072 528.011 504.479 527.917L507.393 527.198C509.218 526.748 510.277 527.115 510.568 528.297L510.647 528.619L509.315 528.947L509.236 528.626C509.217 528.537 509.177 528.455 509.12 528.385C509.069 528.331 509.004 528.291 508.932 528.271C508.778 528.228 508.618 528.213 508.459 528.227C508.199 528.246 507.942 528.288 507.69 528.355L504.765 529.076C504.497 529.137 504.236 529.223 503.986 529.335C503.845 529.392 503.718 529.477 503.613 529.587C503.548 529.674 503.51 529.778 503.505 529.886C503.492 530.079 503.512 530.272 503.564 530.458L503.93 531.942C504.027 532.336 504.174 532.574 504.366 532.652C504.602 532.745 505.023 532.717 505.627 532.568L508.542 531.85C508.791 531.792 509.036 531.714 509.272 531.615C509.415 531.56 509.546 531.481 509.662 531.381C509.725 531.326 509.77 531.253 509.793 531.173C509.815 531.078 509.812 530.98 509.785 530.888L509.706 530.566L511.038 530.237L511.118 530.559C511.198 530.825 511.206 531.108 511.14 531.378C511.074 531.648 510.937 531.895 510.743 532.094C510.519 532.317 510.255 532.495 509.964 532.619C509.595 532.786 509.211 532.916 508.818 533.009ZM501.493 529.055L502.828 534.47L501.496 534.798L500.378 530.266L496.48 535.949L496.407 536.053L494.844 536.438L493.428 530.697L494.761 530.369L495.834 534.723L499.569 529.286L499.643 529.18L501.416 528.742L501.493 529.055ZM485.814 532.581L493.304 530.734L493.589 531.89L490.34 532.691L491.469 537.271L490.136 537.599L489.007 533.02L485.777 533.816L485.492 532.66L485.814 532.581ZM485.465 533.007L486.8 538.422L485.468 538.75L484.35 534.218L480.451 539.9L480.381 540.004L478.816 540.39L477.4 534.649L478.733 534.321L479.806 538.675L483.543 533.237L483.615 533.131L485.388 532.694L485.465 533.007ZM475.613 541.196L472.699 541.914C472.292 542.021 471.875 542.085 471.455 542.106C471.126 542.125 470.797 542.075 470.489 541.959C470.209 541.84 469.968 541.643 469.796 541.391C469.606 541.107 469.47 540.791 469.396 540.458L469.03 538.974C468.941 538.643 468.915 538.297 468.952 537.956C468.988 537.649 469.109 537.358 469.301 537.115C469.517 536.863 469.784 536.66 470.085 536.52C470.462 536.339 470.858 536.2 471.265 536.105L474.18 535.387C476.003 534.938 477.061 535.304 477.353 536.486L477.432 536.808L476.1 537.136L476.021 536.815C476.002 536.726 475.963 536.644 475.907 536.573C475.855 536.52 475.79 536.48 475.718 536.46C475.564 536.416 475.404 536.402 475.244 536.416C474.984 536.435 474.727 536.477 474.475 536.544L471.562 537.262C471.295 537.322 471.034 537.409 470.784 537.521C470.643 537.577 470.517 537.663 470.412 537.773C470.347 537.86 470.308 537.964 470.302 538.072C470.29 538.265 470.311 538.458 470.362 538.644L470.728 540.128C470.767 540.306 470.836 540.478 470.931 540.634C470.987 540.724 471.068 540.795 471.164 540.837C471.395 540.933 471.822 540.903 472.426 540.754L475.34 540.035C475.59 539.978 475.834 539.899 476.071 539.801C476.213 539.746 476.345 539.666 476.46 539.567C476.523 539.511 476.569 539.439 476.592 539.358C476.612 539.264 476.609 539.166 476.582 539.074L476.503 538.752L477.836 538.423L477.915 538.745C477.987 539.016 477.993 539.301 477.932 539.574C477.868 539.841 477.733 540.086 477.542 540.283C477.318 540.505 477.054 540.684 476.763 540.808C476.393 540.974 476.008 541.103 475.613 541.196Z" fill="#027BCE"></path><path fill-rule="evenodd" clip-rule="evenodd" d="M522.877 517.289L504.529 524.065L503.037 518.014L522.877 517.289ZM519.599 513.059L521.221 515.087L516.619 514.97L517.235 517.004L502.972 517.515L502.92 517.517L501.515 511.818L519.599 513.059ZM516.384 509.024L518.161 511.256L515.361 510.846L515.815 512.314L501.47 511.329L501.393 511.323L499.972 505.562L516.384 509.024ZM512.49 504.135L515.907 508.421L499.954 505.071L499.84 505.047L498.551 499.816L512.49 504.135ZM508.647 499.313L511.953 503.466L498.546 499.303L498.421 499.263L497.261 494.557L508.647 499.313ZM504.767 494.444L508.015 498.517L497.276 494.042L497.112 493.972L496.086 489.811L504.767 494.444ZM499.75 488.148L504.005 493.492L496.115 489.286L495.93 489.186L494.994 485.391L499.75 488.148ZM493.846 480.735L498.92 487.103L495.035 484.855L494.835 484.744L493.846 480.735Z" fill="#027BCE"></path><path fill-rule="evenodd" clip-rule="evenodd" d="M485.133 526.595L504.529 524.065L503.038 518.014L485.133 526.595ZM486.07 521.325L494.442 519.013L494.866 521.383L502.868 517.541L502.915 517.518L501.51 511.819L486.07 521.325ZM487.04 516.259L486.568 518.72L500.675 508.445L499.965 505.564L487.04 516.259ZM488.216 510.119L492.516 508.937L492.875 510.817L499.749 505.116L499.836 505.041L498.547 499.811L488.216 510.119ZM489.378 504.063L488.773 507.214L497.835 496.914L497.255 494.559L489.378 504.063ZM490.549 497.949L490.774 499.817L491.051 501.282L496.997 494.116L497.111 493.977L496.084 489.812L490.549 497.949ZM492.064 490.043L490.779 496.756L495.812 489.364L495.929 489.19L494.993 485.391L492.064 490.043ZM493.847 480.738L492.315 488.734L494.71 484.939L494.836 484.747L493.847 480.738Z" fill="#0093D8"></path><path fill-rule="evenodd" clip-rule="evenodd" d="M487.04 516.259L493.429 513.722L493.853 515.962L501.322 511.366L501.388 511.324L499.968 505.565L487.04 516.259Z" fill="#0093D8"></path><path fill-rule="evenodd" clip-rule="evenodd" d="M485.133 526.595L504.529 524.065L503.038 518.014L485.133 526.595ZM486.07 521.325L485.558 523.976L502.206 514.672L501.503 511.823L486.07 521.325ZM487.04 516.259L486.568 518.72L500.685 508.484L499.965 505.564L487.04 516.259ZM488.216 510.119L487.588 513.425L499.285 502.78L499.844 505.046L498.554 499.815L488.216 510.119ZM489.378 504.063L488.773 507.214L497.885 497.115L497.256 494.562L489.378 504.063ZM490.549 497.949L489.989 500.877L496.599 491.892L496.086 489.811L490.549 497.949ZM492.064 490.043L491.657 492.161L495.253 486.438L494.992 485.38L492.064 490.043ZM493.847 480.738L492.315 488.734L494.341 482.74L493.847 480.738Z" fill="#8ED8FB"></path><path d="M470.454 544.053L545.165 525.633" stroke="#8ED8FB" stroke-width="4.25" stroke-miterlimit="10"></path><circle cx="501.962" cy="513.962" r="53.5" transform="rotate(-13.8498 501.962 513.962)" stroke="#027BCE" stroke-width="2"></circle><circle cx="501.962" cy="513.962" r="48.9897" transform="rotate(-13.8498 501.962 513.962)" stroke="#027BCE" stroke-width="2"></circle></g></svg>