<svg xmlns="http://www.w3.org/2000/svg" width="359" height="351" viewBox="0 0 359 351" fill="none"><path d="M85.5 88L273.5 18.5" stroke="#263238" stroke-width="6"></path><circle cx="76" cy="91" r="12" fill="#263238" stroke="#263238" stroke-width="6"></circle><circle cx="284" cy="15" r="12" fill="#263238" stroke="#263238" stroke-width="6"></circle><circle cx="179.5" cy="52.5" r="29.5" fill="white" stroke="#263238" stroke-width="6"></circle><path d="M324.5 202H246H215.465C213.638 202 212.23 203.606 212.512 205.412C216.6 231.608 227.914 278 281.5 278C338.253 278 351.242 241.295 355.619 205.32C355.835 203.548 354.443 202 352.658 202H324.5Z" fill="#263238" stroke="#263238" stroke-width="6"></path><path d="M29 271.5L70.5 89.5H81.5L125 271.5H29Z" stroke="#263238" stroke-width="6"></path><path d="M237 202L278.5 20H289.5L333 202H237Z" stroke="#263238" stroke-width="6"></path><path d="M115.5 271.5H37H6.46547C4.6376 271.5 3.22993 273.106 3.5118 274.912C7.6003 301.108 18.9142 347.5 72.5 347.5C129.253 347.5 142.242 310.795 146.619 274.82C146.835 273.048 145.443 271.5 143.658 271.5H115.5Z" fill="#1291CF" stroke="#1291CF" stroke-width="6"></path></svg>