<svg xmlns="http://www.w3.org/2000/svg" width="582" height="902" viewBox="0 0 582 902" fill="none"><path d="M524.763 5H308.508H275.945H59.6906C44.5005 5 30.9152 11.5265 21.4357 21.8485C10.7847 31.8603 4.33041 46.248 5.05528 62.0694L14.8584 276.112V849.789C14.8584 875.814 35.9572 896.913 61.9829 896.913H261.964H317.062H517.046C530.749 896.913 543.048 891.029 551.66 881.688C560.998 873.078 566.885 860.779 566.885 847.074V273.4L576.688 59.3572C578.042 29.7472 554.402 5 524.763 5Z" fill="white" stroke="#212121" stroke-width="9" stroke-miterlimit="10"></path><path d="M541.614 266.849L550.615 67.1623C551.433 49.0192 536.944 33.8638 518.782 33.8638H65.6741C47.5123 33.8638 33.0229 49.0192 33.8414 67.1623L42.8421 266.849H541.614Z" fill="#212121"></path><path d="M521.775 85.7039H60.6028V241.677H521.775V85.7039Z" fill="white"></path><path d="M280.845 398.492H74.7364C67.3941 398.492 61.4426 392.54 61.4426 385.198V343.493C61.4426 336.15 67.3941 330.199 74.7364 330.199H280.845C288.188 330.199 294.139 336.15 294.139 343.493V385.198C294.139 392.54 288.188 398.492 280.845 398.492Z" fill="white" stroke="#212121" stroke-width="4" stroke-miterlimit="10"></path><path d="M110.346 331.044V398.492" stroke="#212121" stroke-width="4" stroke-miterlimit="10"></path><path d="M157.272 331.044V398.492" stroke="#212121" stroke-width="4" stroke-miterlimit="10"></path><path d="M204.202 331.044V398.492" stroke="#212121" stroke-width="4" stroke-miterlimit="10"></path><path d="M251.128 331.044V398.492" stroke="#212121" stroke-width="4" stroke-miterlimit="10"></path><path d="M423.704 421.345H365.655C358.824 421.345 353.284 415.806 353.284 408.974V380.105C353.284 373.274 358.824 367.734 365.655 367.734H423.704C430.535 367.734 436.074 373.274 436.074 380.105V408.974C436.074 415.806 430.535 421.345 423.704 421.345Z" fill="#1090CF"></path><path d="M133.261 504.813H75.2125C68.3811 504.813 62.8416 499.273 62.8416 492.442V454.074C62.8416 447.243 68.3811 441.703 75.2125 441.703H133.261C140.092 441.703 145.632 447.243 145.632 454.074V492.442C145.632 499.273 140.092 504.813 133.261 504.813Z" fill="#1090CF"></path><path d="M230.3 504.813H172.251C165.42 504.813 159.88 499.273 159.88 492.442V454.074C159.88 447.243 165.42 441.703 172.251 441.703H230.3C237.131 441.703 242.671 447.243 242.671 454.074V492.442C242.671 499.273 237.134 504.813 230.3 504.813Z" fill="#1090CF"></path><path d="M327.341 504.813H269.293C262.461 504.813 256.922 499.273 256.922 492.442V454.074C256.922 447.243 262.461 441.703 269.293 441.703H327.341C334.173 441.703 339.712 447.243 339.712 454.074V492.442C339.712 499.273 334.173 504.813 327.341 504.813Z" fill="#1090CF"></path><path d="M424.38 504.813H366.332C359.5 504.813 353.961 499.273 353.961 492.442V454.074C353.961 447.243 359.5 441.703 366.332 441.703H424.38C431.212 441.703 436.751 447.243 436.751 454.074V492.442C436.751 499.273 431.214 504.813 424.38 504.813Z" fill="#1090CF"></path><path d="M521.422 504.813H463.373C456.542 504.813 451.003 499.273 451.003 492.442V454.074C451.003 447.243 456.542 441.703 463.373 441.703H521.422C528.253 441.703 533.793 447.243 533.793 454.074V492.442C533.793 499.273 528.253 504.813 521.422 504.813Z" fill="#1090CF"></path><path d="M133.261 589.638H75.2125C68.3811 589.638 62.8416 584.099 62.8416 577.267V538.9C62.8416 532.069 68.3811 526.529 75.2125 526.529H133.261C140.092 526.529 145.632 532.069 145.632 538.9V577.267C145.632 584.099 140.092 589.638 133.261 589.638Z" fill="#1090CF"></path><path d="M230.3 589.638H172.251C165.42 589.638 159.88 584.099 159.88 577.267V538.9C159.88 532.069 165.42 526.529 172.251 526.529H230.3C237.131 526.529 242.671 532.069 242.671 538.9V577.267C242.671 584.099 237.134 589.638 230.3 589.638Z" fill="#263238"></path><path d="M327.341 589.638H269.293C262.461 589.638 256.922 584.099 256.922 577.267V538.9C256.922 532.069 262.461 526.529 269.293 526.529H327.341C334.173 526.529 339.712 532.069 339.712 538.9V577.267C339.712 584.099 334.173 589.638 327.341 589.638Z" fill="#263238"></path><path d="M424.38 589.638H366.332C359.5 589.638 353.961 584.099 353.961 577.267V538.9C353.961 532.069 359.5 526.529 366.332 526.529H424.38C431.212 526.529 436.751 532.069 436.751 538.9V577.267C436.751 584.099 431.214 589.638 424.38 589.638Z" fill="#263238"></path><path d="M521.422 589.638H463.373C456.542 589.638 451.003 584.099 451.003 577.267V538.9C451.003 532.069 456.542 526.529 463.373 526.529H521.422C528.253 526.529 533.793 532.069 533.793 538.9V577.267C533.793 584.099 528.253 589.638 521.422 589.638Z" fill="#1090CF"></path><path d="M133.261 674.464H75.2125C68.3811 674.464 62.8416 668.925 62.8416 662.093V623.726C62.8416 616.894 68.3811 611.355 75.2125 611.355H133.261C140.092 611.355 145.632 616.894 145.632 623.726V662.093C145.632 668.925 140.092 674.464 133.261 674.464Z" fill="#1090CF"></path><path d="M230.3 674.464H172.251C165.42 674.464 159.88 668.925 159.88 662.093V623.726C159.88 616.894 165.42 611.355 172.251 611.355H230.3C237.131 611.355 242.671 616.894 242.671 623.726V662.093C242.671 668.925 237.134 674.464 230.3 674.464Z" fill="#263238"></path><path d="M327.341 674.464H269.293C262.461 674.464 256.922 668.925 256.922 662.093V623.726C256.922 616.894 262.461 611.355 269.293 611.355H327.341C334.173 611.355 339.712 616.894 339.712 623.726V662.093C339.712 668.925 334.173 674.464 327.341 674.464Z" fill="#263238"></path><path d="M424.38 674.464H366.332C359.5 674.464 353.961 668.925 353.961 662.093V623.726C353.961 616.894 359.5 611.355 366.332 611.355H424.38C431.212 611.355 436.751 616.894 436.751 623.726V662.093C436.751 668.925 431.214 674.464 424.38 674.464Z" fill="#263238"></path><path d="M521.422 674.464H463.373C456.542 674.464 451.003 668.925 451.003 662.093V623.726C451.003 616.894 456.542 611.355 463.373 611.355H521.422C528.253 611.355 533.793 616.894 533.793 623.726V662.093C533.793 668.925 528.253 674.464 521.422 674.464Z" fill="#1090CF"></path><path d="M133.261 759.29H75.2125C68.3811 759.29 62.8416 753.75 62.8416 746.919V708.552C62.8416 701.72 68.3811 696.181 75.2125 696.181H133.261C140.092 696.181 145.632 701.72 145.632 708.552V746.919C145.632 753.75 140.092 759.29 133.261 759.29Z" fill="#263238"></path><path d="M230.3 759.29H172.251C165.42 759.29 159.88 753.75 159.88 746.919V708.552C159.88 701.72 165.42 696.181 172.251 696.181H230.3C237.131 696.181 242.671 701.72 242.671 708.552V746.919C242.671 753.75 237.134 759.29 230.3 759.29Z" fill="#263238"></path><path d="M327.341 759.29H269.293C262.461 759.29 256.922 753.75 256.922 746.919V708.552C256.922 701.72 262.461 696.181 269.293 696.181H327.341C334.173 696.181 339.712 701.72 339.712 708.552V746.919C339.712 753.75 334.173 759.29 327.341 759.29Z" fill="#263238"></path><path d="M424.38 759.29H366.332C359.5 759.29 353.961 753.75 353.961 746.919V708.552C353.961 701.72 359.5 696.181 366.332 696.181H424.38C431.212 696.181 436.751 701.72 436.751 708.552V746.919C436.751 753.75 431.214 759.29 424.38 759.29Z" fill="#263238"></path><path d="M133.261 844.115H75.2125C68.3811 844.115 62.8416 838.576 62.8416 831.745V793.377C62.8416 786.546 68.3811 781.006 75.2125 781.006H133.261C140.092 781.006 145.632 786.546 145.632 793.377V831.745C145.632 838.576 140.092 844.115 133.261 844.115Z" fill="#263238"></path><path d="M230.3 844.115H172.251C165.42 844.115 159.88 838.576 159.88 831.745V793.377C159.88 786.546 165.42 781.006 172.251 781.006H230.3C237.131 781.006 242.671 786.546 242.671 793.377V831.745C242.671 838.576 237.134 844.115 230.3 844.115Z" fill="#263238"></path><path d="M327.341 844.115H269.293C262.461 844.115 256.922 838.576 256.922 831.745V793.377C256.922 786.546 262.461 781.006 269.293 781.006H327.341C334.173 781.006 339.712 786.546 339.712 793.377V831.745C339.712 838.576 334.173 844.115 327.341 844.115Z" fill="#263238"></path><path d="M424.38 844.115H366.332C359.5 844.115 353.961 838.576 353.961 831.745V793.377C353.961 786.546 359.5 781.006 366.332 781.006H424.38C431.212 781.006 436.751 786.546 436.751 793.377V831.745C436.751 838.576 431.214 844.115 424.38 844.115Z" fill="#1090CF"></path><path d="M521.237 696.178H463.555C456.622 696.178 451 701.798 451 708.733V726.376V746.734V831.56C451 838.493 456.62 844.116 463.555 844.116H521.237C528.17 844.116 533.793 838.496 533.793 831.56V746.734V726.376V708.733C533.793 701.8 528.173 696.178 521.237 696.178Z" fill="#1090CF"></path><path d="M521.422 421.345H463.373C456.542 421.345 451.003 415.806 451.003 408.974V380.105C451.003 373.274 456.542 367.734 463.373 367.734H521.422C528.253 367.734 533.793 373.274 533.793 380.105V408.974C533.793 415.806 528.253 421.345 521.422 421.345Z" fill="#263238"></path><path d="M466.971 407.787C464.438 405.005 463.17 401.247 463.17 396.518C463.17 391.787 464.438 388.031 466.971 385.247C469.501 382.462 472.973 381.071 477.381 381.071C481.789 381.071 485.256 382.462 487.784 385.247C490.309 388.031 491.571 391.787 491.571 396.518C491.571 401.247 490.309 405.005 487.784 407.787C485.259 410.574 481.792 411.965 477.381 411.965C472.973 411.965 469.501 410.572 466.971 407.787ZM484.526 405.342C486.227 403.195 487.077 400.252 487.077 396.518C487.077 392.782 486.227 389.839 484.526 387.691C482.825 385.544 480.444 384.468 477.379 384.468C474.303 384.468 471.911 385.541 470.21 387.691C468.509 389.839 467.661 392.782 467.661 396.518C467.661 400.252 468.514 403.195 470.221 405.342C471.93 407.49 474.313 408.566 477.379 408.566C480.444 408.563 482.825 407.49 484.526 405.342Z" fill="white"></path><path d="M498.4 411.008C498.015 410.682 497.822 410.221 497.822 409.633V384.214C497.822 383.375 498.05 382.714 498.504 382.23C498.959 381.748 499.531 381.505 500.216 381.505C500.708 381.505 501.214 381.644 501.738 381.925C502.262 382.206 502.712 382.618 503.091 383.163L518.373 405.412V383.372C518.373 382.783 518.56 382.326 518.94 381.997C519.317 381.668 519.777 381.502 520.325 381.502C520.841 381.502 521.296 381.665 521.689 381.997C522.08 382.326 522.278 382.783 522.278 383.372V408.79C522.278 409.617 522.029 410.275 521.534 410.764C521.039 411.254 520.424 411.497 519.699 411.497C519.223 411.497 518.75 411.38 518.274 411.142C517.795 410.904 517.404 410.561 517.099 410.112L501.757 387.863V409.63C501.757 410.219 501.562 410.676 501.168 411.005C500.775 411.334 500.315 411.5 499.78 411.5C499.242 411.503 498.782 411.337 498.4 411.008Z" fill="white"></path><path d="M88.6024 490.486C88.1397 490.165 87.776 489.703 87.5112 489.101L77.7321 467.146V490.002C77.7321 490.478 77.5395 490.847 77.1543 491.115C76.7692 491.382 76.3118 491.513 75.7795 491.513C75.2606 491.513 74.8059 491.38 74.4127 491.115C74.0222 490.847 73.8242 490.478 73.8242 490.002V465.151C73.8242 464.34 74.1425 463.661 74.7791 463.115C75.4157 462.569 76.162 462.297 77.0153 462.297C77.7134 462.297 78.3767 462.503 78.9973 462.917C79.6178 463.329 80.1207 463.955 80.5005 464.795L90.0308 485.95L99.5611 464.795C99.9249 463.955 100.417 463.329 101.04 462.917C101.661 462.505 102.324 462.297 103.022 462.297C103.876 462.297 104.627 462.569 105.269 463.115C105.914 463.661 106.235 464.34 106.235 465.151V490.002C106.235 490.478 106.039 490.847 105.646 491.115C105.256 491.382 104.801 491.513 104.282 491.513C103.75 491.513 103.292 491.38 102.905 491.115C102.519 490.847 102.327 490.478 102.327 490.002V467.146L92.5478 489.101C92.2803 489.703 91.9192 490.163 91.4565 490.486C90.9937 490.807 90.5176 490.97 90.0308 490.97C89.5413 490.968 89.0652 490.807 88.6024 490.486Z" fill="white"></path><path d="M119.036 490.152C116.91 488.78 115.313 486.947 114.251 484.65C113.189 482.355 112.654 479.76 112.654 476.864C112.654 474.708 112.981 472.688 113.631 470.8C114.281 468.911 115.201 467.264 116.391 465.857C117.579 464.45 119.076 463.342 120.882 462.529C122.687 461.716 124.688 461.312 126.884 461.312C129.599 461.312 132.124 461.962 134.462 463.262C135.077 463.599 135.387 464.083 135.387 464.712C135.387 465.159 135.232 465.549 134.925 465.886C134.617 466.22 134.245 466.392 133.812 466.392C133.603 466.392 133.371 466.333 133.119 466.22C133.063 466.194 132.892 466.105 132.606 465.958C132.319 465.811 132.084 465.699 131.902 465.621C131.72 465.546 131.439 465.442 131.062 465.308C130.685 465.175 130.321 465.07 129.971 464.993C129.623 464.918 129.185 464.848 128.66 464.795C128.136 464.741 127.596 464.712 127.037 464.712C125.678 464.712 124.445 464.921 123.34 465.34C122.235 465.76 121.305 466.341 120.55 467.082C119.793 467.823 119.157 468.703 118.638 469.724C118.122 470.746 117.744 471.848 117.506 473.03C117.266 474.21 117.148 475.467 117.148 476.797C117.148 478.126 117.266 479.378 117.506 480.552C117.744 481.726 118.119 482.826 118.638 483.837C119.157 484.85 119.799 485.722 120.561 486.45C121.323 487.177 122.268 487.753 123.394 488.173C124.522 488.592 125.777 488.801 127.162 488.801C128.406 488.801 129.498 488.638 130.436 488.306C131.375 487.98 132.389 487.506 133.48 486.891C133.761 486.736 134.026 486.661 134.28 486.661C134.713 486.661 135.085 486.822 135.393 487.145C135.698 487.466 135.853 487.844 135.853 488.277C135.853 488.921 135.502 489.467 134.804 489.914C132.467 491.438 129.711 492.201 126.534 492.201C123.661 492.206 121.163 491.521 119.036 490.152Z" fill="white"></path><path d="M97.6247 820.901H83.1861L80.7093 827.283C80.3589 828.206 79.7089 828.669 78.7567 828.669C78.211 828.669 77.7242 828.495 77.2963 828.145C76.871 827.794 76.657 827.353 76.657 826.823C76.657 826.599 76.7104 826.339 76.8255 826.048L86.7944 801.3C87.2706 800.113 87.7841 799.324 88.3378 798.939C88.8888 798.553 89.5789 798.361 90.4027 798.361C91.2292 798.361 91.9167 798.553 92.4704 798.939C93.0214 799.321 93.5349 800.113 94.011 801.3L103.983 826.048C104.095 826.339 104.151 826.599 104.151 826.823C104.151 827.353 103.935 827.794 103.501 828.145C103.068 828.495 102.578 828.669 102.033 828.669C101.094 828.669 100.449 828.206 100.102 827.283L97.6247 820.901ZM90.4054 802.346L84.3818 817.857H96.4291L90.4054 802.346Z" fill="white"></path><path d="M114.353 826.946C112.226 825.574 110.63 823.742 109.568 821.447C108.503 819.152 107.971 816.557 107.971 813.661C107.971 811.505 108.297 809.483 108.947 807.592C109.597 805.703 110.517 804.058 111.707 802.649C112.895 801.244 114.393 800.132 116.198 799.324C118.004 798.511 120.005 798.107 122.201 798.107C124.916 798.107 127.441 798.757 129.778 800.057C130.394 800.391 130.704 800.875 130.704 801.504C130.704 801.953 130.549 802.344 130.241 802.678C129.934 803.015 129.562 803.183 129.128 803.183C128.92 803.183 128.687 803.127 128.436 803.015C128.38 802.986 128.208 802.9 127.922 802.75C127.636 802.603 127.401 802.491 127.219 802.416C127.037 802.338 126.756 802.234 126.379 802.1C126.002 801.966 125.638 801.862 125.287 801.787C124.94 801.71 124.501 801.643 123.977 801.587C123.453 801.533 122.912 801.504 122.353 801.504C120.994 801.504 119.761 801.715 118.657 802.132C117.552 802.552 116.621 803.133 115.867 803.874C115.11 804.614 114.476 805.5 113.954 806.519C113.438 807.541 113.061 808.643 112.823 809.822C112.582 811.005 112.464 812.262 112.464 813.591C112.464 814.92 112.582 816.172 112.823 817.347C113.061 818.523 113.438 819.617 113.954 820.631C114.473 821.648 115.115 822.517 115.878 823.247C116.64 823.975 117.584 824.547 118.71 824.97C119.839 825.387 121.093 825.598 122.479 825.598C123.723 825.598 124.814 825.435 125.753 825.103C126.692 824.774 127.705 824.301 128.797 823.689C129.075 823.533 129.342 823.456 129.597 823.456C130.03 823.456 130.402 823.619 130.709 823.94C131.014 824.261 131.169 824.641 131.169 825.074C131.169 825.716 130.819 826.262 130.121 826.711C127.783 828.236 125.028 828.998 121.85 828.998C118.978 829.003 116.479 828.319 114.353 826.946Z" fill="white"></path><path d="M97.7556 741.353C95.6291 739.981 94.0323 738.148 92.9704 735.853C91.9085 733.559 91.3735 730.964 91.3735 728.067C91.3735 725.911 91.6998 723.889 92.3498 721.998C92.9998 720.11 93.9199 718.465 95.1102 717.055C96.2978 715.651 97.7957 714.538 99.6012 713.73C101.407 712.917 103.407 712.513 105.603 712.513C108.318 712.513 110.843 713.163 113.181 714.463C113.796 714.797 114.107 715.282 114.107 715.91C114.107 716.36 113.951 716.75 113.644 717.084C113.336 717.421 112.964 717.59 112.531 717.59C112.323 717.59 112.09 717.534 111.838 717.421C111.782 717.392 111.611 717.306 111.325 717.157C111.039 717.01 110.803 716.897 110.621 716.822C110.439 716.745 110.159 716.64 109.781 716.507C109.404 716.373 109.041 716.269 108.69 716.194C108.342 716.116 107.904 716.049 107.379 715.993C106.855 715.94 106.315 715.91 105.756 715.91C104.397 715.91 103.164 716.121 102.059 716.539C100.955 716.959 100.024 717.539 99.2695 718.28C98.5126 719.021 97.8786 719.906 97.3571 720.925C96.8408 721.947 96.4637 723.049 96.2256 724.229C95.9849 725.411 95.8672 726.668 95.8672 727.998C95.8672 729.327 95.9849 730.579 96.2256 731.753C96.4637 732.93 96.8381 734.024 97.3571 735.038C97.876 736.054 98.5179 736.923 99.2802 737.654C100.043 738.381 100.987 738.954 102.113 739.376C103.242 739.794 104.496 740.005 105.882 740.005C107.125 740.005 108.217 739.842 109.156 739.51C110.094 739.181 111.108 738.708 112.199 738.095C112.48 737.94 112.745 737.862 112.999 737.862C113.433 737.862 113.804 738.025 114.112 738.346C114.417 738.667 114.572 739.047 114.572 739.48C114.572 740.122 114.222 740.668 113.523 741.117C111.186 742.642 108.431 743.404 105.253 743.404C102.38 743.41 99.8821 742.725 97.7556 741.353Z" fill="white"></path><path d="M87.118 559.247C85.8394 557.715 85.1948 555.751 85.1948 553.36C85.1948 551.038 85.8394 549.091 87.1287 547.524C88.4126 545.956 90.1512 545.173 92.3312 545.173C93.5348 545.173 94.6101 545.408 95.5543 545.876C96.4985 546.347 97.2501 546.975 97.8118 547.764C98.3709 548.556 98.7935 549.425 99.0824 550.378C99.3686 551.327 99.513 552.322 99.513 553.357C99.513 555.693 98.8604 557.642 97.5604 559.202C96.2605 560.761 94.5165 561.54 92.3338 561.54C90.1351 561.542 88.3992 560.777 87.118 559.247ZM94.6957 558.333C95.3189 557.757 95.7522 557.054 95.9983 556.211C96.2417 555.374 96.3648 554.422 96.3648 553.36C96.3648 552.296 96.2417 551.349 95.9983 550.514C95.7522 549.682 95.3189 548.982 94.6957 548.414C94.0751 547.847 93.2887 547.567 92.3338 547.567C91.3977 547.567 90.6193 547.847 90.0068 548.414C89.3916 548.982 88.9582 549.682 88.7148 550.514C88.4714 551.346 88.3484 552.296 88.3484 553.36C88.3484 554.422 88.4714 555.374 88.7148 556.211C88.9609 557.051 89.3916 557.757 90.0068 558.333C90.622 558.908 91.4003 559.191 92.3338 559.191C93.2861 559.191 94.0724 558.908 94.6957 558.333ZM92.6494 575.911C92.382 575.679 92.2509 575.398 92.2509 575.061C92.2509 574.866 92.3338 574.619 92.505 574.328L108.896 545.32C109.204 544.774 109.613 544.501 110.113 544.501C110.437 544.501 110.718 544.624 110.953 544.868C111.191 545.114 111.309 545.403 111.309 545.74C111.309 545.964 111.221 546.256 111.036 546.62L94.685 575.459C94.3934 575.989 94.0136 576.256 93.5536 576.256C93.2165 576.256 92.9142 576.141 92.6494 575.911ZM107.331 573.14C106.05 571.594 105.408 569.634 105.408 567.253C105.408 564.931 106.061 562.989 107.361 561.427C108.661 559.868 110.397 559.087 112.566 559.087C113.754 559.087 114.821 559.322 115.765 559.793C116.712 560.261 117.458 560.887 118.012 561.671C118.563 562.454 118.983 563.321 119.272 564.273C119.558 565.223 119.702 566.221 119.702 567.253C119.702 568.764 119.424 570.136 118.87 571.367C118.317 572.597 117.49 573.587 116.394 574.336C115.294 575.085 114.018 575.459 112.563 575.459C110.357 575.459 108.613 574.686 107.331 573.14ZM114.896 572.215C115.511 571.648 115.944 570.95 116.188 570.118C116.431 569.286 116.554 568.331 116.554 567.253C116.554 566.469 116.485 565.747 116.345 565.078C116.204 564.415 115.984 563.803 115.685 563.243C115.385 562.684 114.968 562.243 114.436 561.922C113.903 561.601 113.28 561.438 112.569 561.438C111.614 561.438 110.83 561.724 110.207 562.299C109.584 562.872 109.15 563.578 108.915 564.407C108.677 565.239 108.559 566.188 108.559 567.25C108.559 568.315 108.677 569.262 108.915 570.096C109.153 570.928 109.584 571.632 110.207 572.204C110.827 572.779 111.614 573.065 112.569 573.065C113.505 573.068 114.283 572.782 114.896 572.215Z" fill="white"></path><path d="M197.354 574.231C196.921 573.86 196.704 573.394 196.704 572.835C196.704 572.584 196.774 572.284 196.913 571.934L207.198 548.321H193.366C192.821 548.321 192.401 548.158 192.106 547.826C191.812 547.5 191.665 547.104 191.665 546.641C191.665 546.194 191.812 545.804 192.106 545.467C192.401 545.132 192.821 544.964 193.366 544.964H209.444C210.201 544.964 210.782 545.14 211.186 545.496C211.59 545.855 211.796 546.336 211.796 546.935C211.796 547.55 211.67 548.152 211.418 548.741L200.671 573.614C200.334 574.397 199.732 574.791 198.866 574.791C198.291 574.788 197.788 574.603 197.354 574.231Z" fill="white"></path><path d="M293.778 574.296C292.232 573.659 290.999 572.688 290.084 571.388C289.167 570.088 288.709 568.55 288.709 566.769C288.709 564.881 289.226 563.254 290.263 561.89C291.299 560.526 292.767 559.649 294.671 559.258C292.853 558.825 291.483 558.001 290.568 556.789C289.651 555.58 289.193 554.107 289.193 552.373C289.193 550.667 289.64 549.196 290.536 547.968C291.43 546.735 292.615 545.825 294.083 545.237C295.551 544.648 297.21 544.357 299.055 544.357C300.441 544.357 301.728 544.525 302.918 544.868C304.105 545.213 305.154 545.708 306.058 546.36C306.959 547.01 307.668 547.856 308.187 548.888C308.703 549.926 308.963 551.084 308.963 552.373C308.963 554.136 308.495 555.62 307.559 556.824C306.62 558.025 305.28 558.838 303.528 559.258C305.486 559.788 306.962 560.695 307.957 561.976C308.95 563.254 309.447 564.854 309.447 566.772C309.447 568.55 308.984 570.088 308.061 571.391C307.136 572.691 305.903 573.662 304.357 574.299C302.811 574.935 301.043 575.253 299.055 575.253C297.084 575.251 295.321 574.933 293.778 574.296ZM303.485 570.746C304.632 569.872 305.207 568.553 305.207 566.79C305.207 564.958 304.627 563.549 303.466 562.562C302.303 561.577 300.845 561.082 299.08 561.082C297.301 561.082 295.83 561.575 294.661 562.562C293.492 563.549 292.909 564.958 292.909 566.79C292.909 567.981 293.195 568.981 293.77 569.792C294.342 570.605 295.081 571.185 295.985 571.533C296.886 571.883 297.919 572.057 299.082 572.057C300.866 572.06 302.337 571.624 303.485 570.746ZM303.389 556.035C304.432 555.176 304.953 553.927 304.953 552.29C304.953 550.624 304.392 549.394 303.274 548.596C302.153 547.797 300.757 547.401 299.077 547.401C298.29 547.401 297.563 547.492 296.884 547.674C296.204 547.856 295.584 548.134 295.017 548.503C294.449 548.875 294.005 549.386 293.682 550.035C293.361 550.685 293.2 551.437 293.2 552.293C293.2 553.93 293.725 555.179 294.773 556.038C295.824 556.899 297.258 557.327 299.077 557.327C300.909 557.324 302.348 556.896 303.389 556.035Z" fill="white"></path><path d="M385.379 573.697C384.86 573.443 384.603 573.004 384.603 572.375C384.603 571.899 384.753 571.461 385.055 571.062C385.355 570.666 385.716 570.463 386.136 570.463C386.291 570.463 386.465 570.508 386.66 570.591C388.466 571.431 390.228 571.851 391.951 571.851C392.89 571.851 393.735 571.741 394.492 571.525C395.246 571.308 395.891 571.011 396.434 570.634C396.972 570.254 397.44 569.773 397.838 569.184C398.237 568.596 398.56 567.975 398.804 567.317C399.047 566.659 399.243 565.892 399.392 565.009C399.539 564.129 399.636 563.257 399.684 562.396C399.732 561.534 399.756 560.566 399.756 559.488C399.422 560.622 398.579 561.625 397.228 562.5C395.878 563.375 394.291 563.811 392.475 563.811C389.592 563.797 387.289 562.909 385.569 561.147C383.849 559.384 382.988 557.086 382.988 554.262C382.988 551.365 383.903 548.99 385.737 547.136C387.572 545.282 390.02 544.357 393.085 544.357C394.735 544.357 396.204 544.606 397.493 545.1C398.78 545.598 399.834 546.267 400.655 547.104C401.473 547.944 402.147 548.958 402.68 550.148C403.212 551.338 403.586 552.571 403.803 553.855C404.02 555.136 404.129 556.516 404.129 557.998C404.129 559.218 404.089 560.355 404.012 561.409C403.937 562.468 403.782 563.594 403.552 564.798C403.319 566.001 403.022 567.085 402.658 568.05C402.294 569.016 401.794 569.963 401.16 570.886C400.524 571.811 399.786 572.584 398.956 573.205C398.122 573.828 397.105 574.325 395.902 574.697C394.698 575.066 393.353 575.253 391.871 575.253C389.656 575.251 387.492 574.732 385.379 573.697ZM397.731 559.004C398.871 557.803 399.443 556.185 399.443 554.155C399.443 552.309 398.908 550.763 397.838 549.527C396.768 548.289 395.26 547.671 393.315 547.671C391.301 547.671 389.758 548.262 388.688 549.444C387.618 550.627 387.083 552.218 387.083 554.219C387.083 556.15 387.57 557.731 388.541 558.961C389.512 560.194 390.964 560.807 392.895 560.807C394.979 560.81 396.592 560.208 397.731 559.004Z" fill="white"></path><path d="M205.919 657.193C205.502 656.859 205.29 656.396 205.29 655.807V651.169H193.326C192.681 651.169 192.16 650.953 191.764 650.519C191.365 650.086 191.165 649.575 191.165 648.989C191.165 648.527 191.299 648.093 191.563 647.687L203.025 629.68C203.875 628.351 205.018 627.687 206.443 627.687C207.283 627.687 207.981 627.933 208.543 628.42C209.102 628.912 209.38 629.637 209.38 630.603V648.107H212.424C212.916 648.107 213.291 648.259 213.558 648.559C213.826 648.858 213.957 649.219 213.957 649.639C213.957 650.057 213.823 650.418 213.558 650.72C213.291 651.019 212.916 651.169 212.424 651.169H209.359V655.807C209.359 656.396 209.155 656.859 208.752 657.193C208.348 657.53 207.877 657.698 207.347 657.698C206.812 657.696 206.339 657.53 205.919 657.193ZM205.288 648.104V631.986L195.255 648.104H205.288Z" fill="white"></path><path d="M294.583 657.3C293.171 656.738 291.828 655.901 290.555 654.78C290.274 654.542 290.135 654.243 290.135 653.879C290.135 653.416 290.325 652.98 290.702 652.568C291.082 652.156 291.486 651.95 291.919 651.95C292.186 651.95 292.43 652.041 292.655 652.223C294.586 653.903 296.811 654.74 299.328 654.74C301.398 654.74 302.966 654.173 304.03 653.039C305.092 651.908 305.627 650.324 305.627 648.297C305.627 646.438 305.103 644.937 304.052 643.795C303.001 642.653 301.61 642.083 299.874 642.083C298.756 642.083 297.646 642.34 296.546 642.848C295.447 643.359 294.578 644.009 293.933 644.793C293.778 644.961 293.505 645.044 293.115 645.044C292.542 645.044 291.967 644.892 291.395 644.592C290.82 644.293 290.533 643.931 290.533 643.512V629.806C290.533 628.546 291.21 627.917 292.569 627.917H306.336C306.826 627.917 307.205 628.075 307.481 628.391C307.754 628.704 307.89 629.081 307.89 629.514C307.89 629.948 307.756 630.319 307.492 630.627C307.227 630.935 306.842 631.087 306.336 631.087H293.89L293.869 641.227L294.12 640.973C294.275 640.805 294.53 640.601 294.885 640.363C295.244 640.125 295.661 639.89 296.145 639.66C296.627 639.43 297.25 639.229 298.012 639.061C298.774 638.892 299.574 638.807 300.414 638.807C303.212 638.807 305.453 639.7 307.131 641.484C308.81 643.268 309.65 645.574 309.65 648.401C309.65 651.341 308.703 653.695 306.807 655.476C304.91 657.252 302.466 658.14 299.47 658.14C297.63 658.137 295.998 657.859 294.583 657.3Z" fill="white"></path><path d="M389.715 657.394C388.434 656.896 387.385 656.227 386.567 655.388C385.748 654.548 385.071 653.537 384.542 652.344C384.01 651.156 383.635 649.92 383.418 648.639C383.202 647.361 383.095 645.978 383.095 644.493C383.095 643.276 383.135 642.139 383.21 641.083C383.285 640.026 383.44 638.897 383.67 637.694C383.9 636.49 384.197 635.407 384.561 634.439C384.924 633.476 385.424 632.529 386.061 631.603C386.698 630.68 387.433 629.907 388.265 629.284C389.097 628.664 390.113 628.166 391.32 627.794C392.523 627.423 393.866 627.238 395.351 627.238C397.56 627.238 399.724 627.754 401.837 628.792C402.353 629.044 402.613 629.485 402.613 630.113C402.613 630.59 402.46 631.026 402.161 631.424C401.861 631.823 401.5 632.023 401.08 632.023C400.925 632.023 400.751 631.98 400.559 631.898C398.737 631.058 396.974 630.638 395.268 630.638C394.329 630.638 393.481 630.745 392.727 630.961C391.97 631.178 391.322 631.475 390.785 631.855C390.247 632.232 389.779 632.713 389.378 633.302C388.979 633.89 388.656 634.513 388.412 635.169C388.169 635.827 387.974 636.597 387.824 637.477C387.677 638.36 387.58 639.229 387.53 640.093C387.481 640.952 387.457 641.923 387.457 643.001C387.778 641.867 388.616 640.861 389.966 639.986C391.317 639.114 392.901 638.675 394.722 638.675C397.603 638.692 399.911 639.58 401.636 641.342C403.367 643.105 404.231 645.4 404.231 648.225C404.231 651.108 403.313 653.48 401.481 655.339C399.646 657.201 397.194 658.132 394.112 658.132C392.459 658.137 390.993 657.891 389.715 657.394ZM389.474 643.487C388.327 644.691 387.752 646.309 387.752 648.34C387.752 650.185 388.289 651.728 389.367 652.964C390.445 654.203 391.956 654.82 393.901 654.82C395.902 654.82 397.442 654.229 398.52 653.047C399.598 651.868 400.139 650.276 400.139 648.273C400.139 646.341 399.652 644.761 398.678 643.53C397.707 642.3 396.255 641.685 394.324 641.685C392.237 641.682 390.619 642.286 389.474 643.487Z" fill="white"></path><path d="M202.046 744.081C201.631 743.733 201.428 743.241 201.428 742.613V719.04L196.894 721.958C196.629 722.113 196.357 722.191 196.076 722.191C195.656 722.191 195.297 722.035 194.995 721.728C194.693 721.42 194.543 721.056 194.543 720.636C194.543 720.144 194.781 719.74 195.257 719.419L202.455 714.926C202.763 714.717 203.151 714.613 203.611 714.613C204.172 714.613 204.643 714.789 205.028 715.148C205.413 715.504 205.606 716.009 205.606 716.667L205.627 742.61C205.627 743.238 205.416 743.731 204.999 744.078C204.579 744.429 204.081 744.603 203.506 744.603C202.945 744.608 202.46 744.431 202.046 744.081Z" fill="white"></path><path d="M307.43 727.439C306.66 728.896 305.387 730.44 303.608 732.077L294.019 741.417H306.654C307.171 741.417 307.577 741.575 307.871 741.89C308.163 742.203 308.31 742.581 308.31 743.014C308.31 743.447 308.163 743.822 307.871 744.135C307.577 744.45 307.171 744.608 306.654 744.608H292.213C291.387 744.608 290.723 744.402 290.218 743.988C289.715 743.576 289.461 743.059 289.461 742.447C289.461 741.73 289.79 741.048 290.448 740.387L301.364 729.327C302.498 728.163 303.327 727.099 303.862 726.125C304.392 725.154 304.659 724.175 304.659 723.196C304.659 721.546 304.124 720.214 303.054 719.197C301.984 718.184 300.671 717.678 299.117 717.678C298.194 717.678 297.335 717.761 296.546 717.93C295.757 718.101 295.196 718.253 294.869 718.392C294.54 718.534 294.051 718.794 293.401 719.179C292.748 719.567 292.36 719.791 292.235 719.863C292.037 719.96 291.836 720.011 291.627 720.011C291.191 720.011 290.804 719.834 290.461 719.476C290.119 719.117 289.948 718.716 289.948 718.269C289.948 717.737 290.22 717.304 290.766 716.969C292.152 716.129 293.476 715.488 294.744 715.046C296.011 714.608 297.568 714.385 299.414 714.385C302.043 714.385 304.234 715.207 305.972 716.844C307.714 718.478 308.588 720.473 308.588 722.824C308.586 724.443 308.198 725.983 307.43 727.439Z" fill="white"></path><path d="M385.946 743.495C385.219 743.118 384.855 742.594 384.855 741.923C384.855 741.46 385.015 741.056 385.339 740.706C385.66 740.355 386.037 740.181 386.473 740.181C386.612 740.181 386.789 740.216 386.997 740.286C388.998 741.211 390.924 741.669 392.77 741.669C394.631 741.669 396.137 741.235 397.293 740.369C398.448 739.502 399.023 738.277 399.023 736.696C399.023 734.861 398.357 733.398 397.031 732.309C395.701 731.218 394.005 730.672 391.951 730.672H390.418C389.942 730.672 389.576 730.525 389.316 730.231C389.057 729.94 388.929 729.581 388.929 729.161C388.929 728.728 389.057 728.356 389.316 728.049C389.576 727.744 389.942 727.588 390.418 727.588H391.783C393.741 727.588 395.313 727.144 396.496 726.254C397.675 725.366 398.269 724.074 398.269 722.383C398.269 720.859 397.729 719.674 396.653 718.837C395.575 717.997 394.254 717.577 392.687 717.577C390.504 717.577 388.46 718.053 386.556 719.002C386.417 719.072 386.248 719.107 386.053 719.107C385.633 719.107 385.264 718.909 384.94 718.508C384.619 718.112 384.459 717.67 384.459 717.197C384.459 716.651 384.689 716.247 385.152 715.98C385.81 715.576 386.882 715.172 388.375 714.773C389.865 714.375 391.325 714.174 392.751 714.174C394.583 714.174 396.22 714.463 397.662 715.033C399.101 715.608 400.272 716.523 401.168 717.772C402.062 719.026 402.511 720.532 402.511 722.295C402.511 723.975 402.046 725.376 401.115 726.502C400.184 727.629 398.956 728.444 397.432 728.947C399.224 729.394 400.636 730.306 401.671 731.675C402.709 733.05 403.225 734.714 403.225 736.672C403.225 738.084 402.945 739.344 402.377 740.449C401.81 741.554 401.04 742.436 400.069 743.094C399.095 743.752 398.009 744.244 396.814 744.573C395.618 744.902 394.334 745.068 392.962 745.068C390.269 745.068 387.934 744.544 385.946 743.495Z" fill="white"></path><path d="M197.742 825.802C196.498 825.234 195.487 824.478 194.709 823.533C193.933 822.589 193.297 821.439 192.799 820.08C192.302 818.721 191.957 817.33 191.759 815.902C191.563 814.476 191.464 812.914 191.464 811.221C191.464 800.91 194.984 795.753 202.022 795.753C209.046 795.753 212.561 800.91 212.561 811.221C212.561 812.901 212.467 814.452 212.274 815.881C212.087 817.306 211.745 818.7 211.245 820.059C210.747 821.418 210.113 822.568 209.335 823.512C208.559 824.453 207.548 825.216 206.302 825.791C205.055 826.363 203.629 826.649 202.019 826.649C200.417 826.649 198.989 826.369 197.742 825.802ZM204.114 822.843C204.737 822.568 205.264 822.215 205.689 821.773C206.114 821.332 206.486 820.784 206.802 820.126C207.117 819.468 207.366 818.804 207.545 818.133C207.727 817.462 207.872 816.702 207.976 815.854C208.08 815.009 208.15 814.23 208.185 813.524C208.222 812.815 208.238 812.05 208.238 811.227C208.238 810.36 208.222 809.558 208.185 808.825C208.15 808.092 208.078 807.3 207.965 806.452C207.853 805.607 207.706 804.845 207.524 804.173C207.345 803.502 207.093 802.844 206.78 802.202C206.465 801.56 206.093 801.02 205.668 800.586C205.242 800.153 204.718 799.808 204.103 799.546C203.488 799.286 202.795 799.158 202.027 799.158C201.257 799.158 200.564 799.286 199.949 799.546C199.334 799.808 198.815 800.148 198.395 800.576C197.975 801.003 197.603 801.536 197.282 802.183C196.959 802.825 196.712 803.483 196.536 804.154C196.362 804.826 196.218 805.588 196.105 806.441C195.993 807.295 195.921 808.089 195.883 808.825C195.848 809.558 195.83 810.36 195.83 811.227C195.83 812.053 195.846 812.823 195.883 813.535C195.921 814.246 195.99 815.03 196.095 815.875C196.199 816.721 196.343 817.483 196.525 818.154C196.707 818.826 196.956 819.489 197.271 820.147C197.587 820.805 197.954 821.351 198.373 821.784C198.793 822.217 199.315 822.57 199.936 822.846C200.556 823.119 201.254 823.252 202.025 823.252C202.795 823.25 203.49 823.113 204.114 822.843Z" fill="white"></path><path d="M295.196 816.124C294.219 815.148 293.733 813.987 293.733 812.644C293.733 811.363 294.219 810.234 295.196 809.255C296.172 808.276 297.456 807.789 299.042 807.789C300.599 807.789 301.875 808.271 302.867 809.231C303.859 810.191 304.354 811.331 304.354 812.641C304.354 813.984 303.865 815.142 302.888 816.121C301.912 817.098 300.628 817.587 299.042 817.587C297.456 817.59 296.175 817.1 295.196 816.124Z" fill="white"></path><path d="M489.391 463.811C488.442 462.861 487.965 461.732 487.965 460.424C487.965 459.178 488.439 458.079 489.391 457.129C490.341 456.179 491.59 455.703 493.133 455.703C494.647 455.703 495.888 456.171 496.854 457.108C497.819 458.044 498.301 459.151 498.301 460.427C498.301 461.732 497.825 462.861 496.875 463.813C495.926 464.763 494.677 465.239 493.133 465.239C491.59 465.236 490.341 464.76 489.391 463.811Z" fill="white"></path><path d="M489.391 491.725C488.442 490.775 487.965 489.646 487.965 488.338C487.965 487.089 488.439 485.993 489.391 485.043C490.341 484.094 491.59 483.617 493.133 483.617C494.647 483.617 495.888 484.085 496.854 485.019C497.819 485.955 498.301 487.063 498.301 488.338C498.301 489.644 497.825 490.773 496.875 491.725C495.926 492.674 494.677 493.15 493.133 493.15C491.59 493.15 490.341 492.674 489.391 491.725Z" fill="white"></path><path d="M379.353 810.207C378.847 809.713 378.596 809.138 378.596 808.469C378.596 807.715 378.861 807.105 379.387 806.647C379.914 806.187 380.567 805.957 381.345 805.957H411.119C411.876 805.957 412.52 806.187 413.06 806.647C413.598 807.105 413.868 807.712 413.868 808.469C413.868 809.18 413.598 809.769 413.06 810.24C412.52 810.71 411.876 810.946 411.119 810.946H381.174C380.463 810.946 379.856 810.702 379.353 810.207ZM379.353 823.943C378.847 823.461 378.596 822.891 378.596 822.223C378.596 821.49 378.861 820.888 379.387 820.417C379.914 819.946 380.567 819.711 381.345 819.711H411.22C411.953 819.711 412.579 819.941 413.095 820.398C413.611 820.859 413.868 821.463 413.868 822.223C413.868 822.934 413.603 823.517 413.079 823.975C412.552 824.435 411.91 824.662 411.153 824.662H381.174C380.463 824.662 379.856 824.421 379.353 823.943Z" fill="white"></path><path d="M490.769 562.634L482.394 573.884C481.918 574.513 481.359 574.828 480.714 574.828C480.225 574.828 479.794 574.652 479.425 574.293C479.056 573.935 478.869 573.52 478.869 573.044C478.869 572.64 479.01 572.252 479.289 571.889L488.608 559.692L479.834 547.748C479.623 547.484 479.519 547.176 479.519 546.826C479.519 546.309 479.741 545.839 480.179 545.419C480.621 545.002 481.123 544.79 481.682 544.79C482.311 544.79 482.851 545.092 483.298 545.694L491.293 556.586L499.414 545.734C499.906 545.092 500.484 544.769 501.158 544.769C501.634 544.769 502.04 544.932 502.385 545.253C502.725 545.574 502.896 545.962 502.896 546.408C502.896 546.788 502.771 547.141 502.519 547.478L493.492 559.587L502.458 571.824C502.709 572.175 502.835 572.53 502.835 572.894C502.835 573.41 502.61 573.855 502.166 574.226C501.717 574.598 501.219 574.783 500.671 574.783C500.013 574.783 499.491 574.507 499.098 573.962L490.769 562.634Z" fill="white"></path><path d="M490.079 795.9C489.53 795.325 489.255 794.597 489.255 793.717V779.838H474.816C473.963 779.838 473.217 779.563 472.591 779.014C471.962 778.469 471.649 777.778 471.649 776.949C471.649 776.096 471.949 775.406 472.553 774.884C473.155 774.363 473.909 774.101 474.819 774.101H489.257V760.106C489.257 759.25 489.533 758.52 490.081 757.921C490.627 757.316 491.344 757.017 492.226 757.017C493.082 757.017 493.791 757.311 494.353 757.899C494.915 758.488 495.193 759.223 495.193 760.106V774.101H509.671C510.527 774.101 511.271 774.363 511.9 774.884C512.525 775.403 512.841 776.093 512.841 776.949C512.841 777.778 512.536 778.469 511.918 779.014C511.306 779.563 510.554 779.838 509.671 779.838H495.193V793.717C495.193 794.547 494.915 795.261 494.353 795.863C493.791 796.465 493.082 796.767 492.226 796.767C491.341 796.767 490.624 796.478 490.079 795.9Z" fill="white"></path><path d="M89.0974 654.208C88.6988 653.791 88.4982 653.258 88.4982 652.619V642.522H77.9916C77.371 642.522 76.8281 642.321 76.3733 641.923C75.916 641.527 75.6859 641.024 75.6859 640.419C75.6859 639.799 75.9053 639.296 76.3439 638.919C76.7799 638.539 77.3309 638.349 77.9916 638.349H88.4982V628.166C88.4982 627.543 88.6988 627.013 89.0974 626.575C89.4932 626.136 90.0148 625.917 90.6567 625.917C91.28 625.917 91.7962 626.131 92.2028 626.559C92.612 626.986 92.8153 627.521 92.8153 628.163V638.346H103.349C103.972 638.346 104.512 638.536 104.97 638.916C105.427 639.293 105.654 639.796 105.654 640.417C105.654 641.021 105.432 641.524 104.983 641.92C104.536 642.318 103.991 642.519 103.349 642.519H92.8153V652.616C92.8153 653.218 92.612 653.74 92.2028 654.176C91.7935 654.612 91.28 654.834 90.6567 654.834C90.0148 654.836 89.4932 654.628 89.0974 654.208Z" fill="white"></path><path d="M476.02 645.641C475.592 645.328 475.375 644.945 475.375 644.496C475.375 644.062 475.592 643.685 476.02 643.362C476.451 643.041 477.052 642.88 477.823 642.88H506.636C507.409 642.88 508.01 643.043 508.438 643.372C508.869 643.701 509.083 644.084 509.083 644.517C509.083 644.95 508.869 645.328 508.438 645.641C508.01 645.956 507.409 646.114 506.636 646.114H477.823C477.05 646.114 476.451 645.959 476.02 645.641Z" fill="white"></path><path d="M110.255 659.908C109.966 659.595 109.819 659.212 109.819 658.763C109.819 658.33 109.966 657.953 110.255 657.629C110.546 657.308 110.953 657.147 111.472 657.147H130.939C131.461 657.147 131.867 657.313 132.156 657.64C132.448 657.969 132.592 658.351 132.592 658.784C132.592 659.218 132.448 659.595 132.156 659.908C131.867 660.223 131.461 660.381 130.939 660.381H111.472C110.95 660.381 110.544 660.223 110.255 659.908Z" fill="white"></path><path d="M99.0502 665.707C98.4591 666.103 97.9669 666.191 97.579 665.966C97.2046 665.75 97.0387 665.282 97.0789 664.567C97.1217 663.851 97.4319 662.997 98.007 662.002L119.483 624.847C120.058 623.849 120.649 623.156 121.251 622.768C121.858 622.378 122.348 622.292 122.722 622.509C123.097 622.726 123.262 623.191 123.214 623.902C123.169 624.614 122.856 625.467 122.281 626.462L100.805 663.618C100.227 664.613 99.644 665.308 99.0502 665.707Z" fill="white"></path><path d="M476.02 475.791C475.592 475.478 475.375 475.096 475.375 474.646C475.375 474.213 475.592 473.836 476.02 473.512C476.451 473.191 477.052 473.031 477.823 473.031H506.636C507.409 473.031 508.01 473.194 508.438 473.523C508.869 473.852 509.083 474.234 509.083 474.668C509.083 475.101 508.869 475.478 508.438 475.791C508.01 476.107 507.409 476.265 506.636 476.265H477.823C477.05 476.265 476.451 476.109 476.02 475.791Z" fill="white"></path><path d="M186.679 490.487C186.216 490.166 185.853 489.703 185.588 489.101L175.809 467.147V490.003C175.809 490.479 175.616 490.848 175.231 491.115C174.849 491.383 174.389 491.514 173.856 491.514C173.337 491.514 172.883 491.38 172.489 491.115C172.099 490.848 171.901 490.479 171.901 490.003V465.151C171.901 464.341 172.219 463.661 172.856 463.116C173.492 462.57 174.239 462.297 175.092 462.297C175.79 462.297 176.453 462.503 177.074 462.918C177.695 463.33 178.197 463.955 178.575 464.795L188.105 485.95L197.635 464.795C197.999 463.955 198.491 463.33 199.114 462.918C199.738 462.506 200.398 462.297 201.096 462.297C201.95 462.297 202.701 462.57 203.343 463.116C203.988 463.661 204.309 464.341 204.309 465.151V490.003C204.309 490.479 204.114 490.848 203.72 491.115C203.33 491.383 202.875 491.514 202.356 491.514C201.824 491.514 201.367 491.38 200.979 491.115C200.593 490.848 200.401 490.479 200.401 490.003V467.147L190.622 489.101C190.354 489.703 189.993 490.163 189.531 490.487C189.068 490.808 188.592 490.971 188.105 490.971C187.615 490.968 187.142 490.808 186.679 490.487Z" fill="white"></path><path d="M212.483 491.198C212.071 490.848 211.862 490.353 211.862 489.708V463.806C211.862 463.233 212.068 462.746 212.483 462.348C212.895 461.947 213.398 461.749 213.983 461.749H223.091C224.239 461.749 225.29 461.808 226.25 461.925C227.208 462.046 228.173 462.273 229.136 462.607C230.102 462.944 230.915 463.38 231.57 463.918C232.228 464.458 232.763 465.186 233.178 466.101C233.59 467.018 233.796 468.077 233.796 469.281C233.796 471.017 233.266 472.493 232.199 473.71C231.137 474.927 229.556 475.733 227.459 476.123V476.206C230.746 476.92 232.608 479.164 233.041 482.941L233.796 489.535C233.809 489.601 233.817 489.703 233.817 489.826C233.817 490.385 233.622 490.84 233.229 491.19C232.835 491.541 232.37 491.715 231.824 491.715C231.265 491.715 230.757 491.549 230.302 491.22C229.848 490.893 229.591 490.425 229.537 489.823L228.887 483.968C228.746 482.695 228.58 481.7 228.382 480.989C228.187 480.274 227.868 479.681 227.427 479.204C226.988 478.728 226.437 478.41 225.782 478.252C225.124 478.089 224.236 478.009 223.115 478.009H216.105V489.7C216.105 490.342 215.893 490.84 215.465 491.19C215.04 491.541 214.537 491.715 213.965 491.715C213.39 491.725 212.895 491.549 212.483 491.198ZM222.214 474.767C223.04 474.767 223.773 474.73 224.415 474.66C225.06 474.593 225.718 474.451 226.389 474.243C227.06 474.031 227.617 473.745 228.058 473.381C228.497 473.018 228.858 472.526 229.136 471.902C229.417 471.279 229.556 470.541 229.556 469.688C229.556 468.987 229.462 468.374 229.273 467.842C229.083 467.31 228.804 466.884 228.441 466.563C228.077 466.242 227.697 465.978 227.296 465.777C226.9 465.574 226.411 465.427 225.838 465.336C225.263 465.245 224.76 465.183 224.327 465.156C223.894 465.13 223.377 465.114 222.775 465.114H216.099V474.77L222.214 474.767Z" fill="white"></path><path d="M284.753 490.487C284.29 490.166 283.927 489.703 283.662 489.101L273.883 467.146V490.002C273.883 490.479 273.69 490.848 273.305 491.115C272.923 491.383 272.463 491.514 271.93 491.514C271.411 491.514 270.957 491.38 270.563 491.115C270.173 490.848 269.975 490.479 269.975 490.002V465.151C269.975 464.34 270.293 463.661 270.93 463.115C271.566 462.57 272.313 462.297 273.166 462.297C273.864 462.297 274.527 462.503 275.148 462.917C275.769 463.329 276.271 463.955 276.649 464.795L286.179 485.95L295.709 464.795C296.073 463.955 296.565 463.329 297.188 462.917C297.809 462.505 298.472 462.297 299.17 462.297C300.024 462.297 300.775 462.57 301.417 463.115C302.062 463.661 302.383 464.34 302.383 465.151V490.002C302.383 490.479 302.188 490.848 301.794 491.115C301.404 491.383 300.949 491.514 300.43 491.514C299.898 491.514 299.44 491.38 299.053 491.115C298.667 490.848 298.475 490.479 298.475 490.002V467.146L288.696 489.101C288.428 489.703 288.067 490.163 287.605 490.487C287.142 490.808 286.666 490.971 286.179 490.971C285.692 490.968 285.216 490.808 284.753 490.487Z" fill="white"></path><path d="M307.516 481.711C307.203 481.446 307.042 481.104 307.042 480.684C307.042 480.234 307.198 479.873 307.505 479.603C307.813 479.328 308.219 479.194 308.722 479.194H318.063C318.568 479.194 318.972 479.33 319.28 479.603C319.587 479.876 319.742 480.234 319.742 480.684C319.742 481.101 319.582 481.446 319.269 481.711C318.953 481.978 318.552 482.109 318.063 482.109H308.722C308.233 482.112 307.831 481.978 307.516 481.711Z" fill="white"></path><path d="M382.833 490.487C382.37 490.166 382.006 489.703 381.741 489.101L371.962 467.146V490.002C371.962 490.479 371.77 490.848 371.384 491.115C371.002 491.383 370.542 491.514 370.01 491.514C369.491 491.514 369.036 491.38 368.643 491.115C368.25 490.848 368.054 490.479 368.054 490.002V465.151C368.054 464.34 368.373 463.661 369.009 463.115C369.646 462.57 370.392 462.297 371.245 462.297C371.943 462.297 372.607 462.503 373.227 462.917C373.848 463.329 374.351 463.955 374.731 464.795L384.261 485.95L393.791 464.795C394.155 463.955 394.647 463.329 395.27 462.917C395.891 462.505 396.554 462.297 397.252 462.297C398.106 462.297 398.857 462.57 399.499 463.115C400.144 463.661 400.465 464.34 400.465 465.151V490.002C400.465 490.479 400.27 490.848 399.876 491.115C399.483 491.383 399.031 491.514 398.512 491.514C397.98 491.514 397.522 491.38 397.135 491.115C396.749 490.848 396.557 490.479 396.557 490.002V467.146L386.778 489.101C386.51 489.703 386.149 490.163 385.687 490.487C385.224 490.808 384.748 490.971 384.261 490.971C383.769 490.968 383.293 490.808 382.833 490.487Z" fill="white"></path><path d="M417.161 491.209C416.875 490.909 416.73 490.527 416.73 490.064V482.802H409.174C408.727 482.802 408.337 482.658 408.008 482.371C407.679 482.088 407.513 481.727 407.513 481.294C407.513 480.844 407.673 480.483 407.986 480.213C408.302 479.937 408.698 479.804 409.171 479.804H416.728V472.48C416.728 472.031 416.872 471.648 417.158 471.335C417.442 471.02 417.819 470.862 418.282 470.862C418.728 470.862 419.1 471.017 419.392 471.325C419.686 471.632 419.833 472.017 419.833 472.48V479.804H427.411C427.857 479.804 428.248 479.94 428.577 480.213C428.906 480.486 429.072 480.844 429.072 481.294C429.072 481.727 428.908 482.088 428.588 482.371C428.267 482.658 427.873 482.802 427.413 482.802H419.836V490.064C419.836 490.5 419.689 490.875 419.394 491.188C419.103 491.503 418.731 491.661 418.284 491.661C417.822 491.661 417.444 491.514 417.161 491.209Z" fill="white"></path></svg>