<svg xmlns="http://www.w3.org/2000/svg" width="1102" height="811" viewBox="0 0 1102 811" fill="none"><path d="M701.318 810.953H202.05V92.575H756.171V764.162C756.172 790.004 731.613 810.953 701.318 810.953Z" fill="#F7F7F7"></path><path d="M755.115 92.575H201.92V125.927H755.115V92.575Z" fill="#1291CF"></path><path d="M616.439 487.654C623.9 487.654 623.9 479.219 616.439 479.219C523.881 479.219 431.324 479.219 338.766 479.219C331.305 479.219 331.305 487.654 338.766 487.654H616.439Z" fill="#0777BC" fill-opacity="0.4"></path><path d="M466.463 149.059C421.97 149.059 382.149 168.763 355.154 199.897L466.463 296.346L577.772 199.897C550.776 168.763 510.955 149.059 466.463 149.059Z" fill="#1291CF" fill-opacity="0.4"></path><path d="M622.854 274.762L477.073 295.722V443.009C558.483 443.009 624.36 377.133 624.36 295.722C624.36 288.602 623.827 281.61 622.854 274.762Z" fill="#1090CF"></path><path d="M355.311 200.384C302.84 262.63 310.75 355.458 372.996 407.928C378.44 412.517 384.129 416.616 389.994 420.284L467.926 295.313L355.311 200.384Z" fill="#C4D4DD"></path><path d="M467.724 442.799C440.125 442.805 412.431 435.101 388.101 419.408L467.739 295.516L467.724 442.799Z" fill="#79AAD8"></path><path d="M630.343 266.649C626.266 237.986 613.951 212.012 595.871 191.16L484.562 287.609L630.343 266.649Z" fill="#263238"></path><path d="M321.303 648.351H267.196V778.678H321.303V648.351Z" fill="#0777BC"></path><path d="M321.303 597.886H267.196V659.13H321.303V597.886Z" fill="#1291CF" fill-opacity="0.4"></path><path d="M677.51 654.231H623.403V784.558H677.51V654.231Z" fill="#0777BC"></path><path d="M677.863 544.237H623.403V665.01H677.863V544.237Z" fill="#1291CF" fill-opacity="0.4"></path><path d="M558.774 643.942H504.667V781.618H558.774V643.942Z" fill="#0777BC"></path><path d="M558.774 631.693H504.667V723.069H558.774V631.693Z" fill="#1291CF" fill-opacity="0.4"></path><path d="M440.039 595.988H385.932V780.883H440.039V595.988Z" fill="#0777BC"></path><path d="M440.039 524.394H385.932V672.279H440.039V524.394Z" fill="#1291CF" fill-opacity="0.4"></path><path d="M223.056 118.683C219.132 118.683 215.941 115.491 215.941 111.568C215.941 107.645 219.133 104.453 223.056 104.453C226.98 104.453 230.171 107.645 230.171 111.568C230.171 115.491 226.98 118.683 223.056 118.683ZM223.056 105.638C219.787 105.638 217.126 108.298 217.126 111.568C217.126 114.838 219.786 117.498 223.056 117.498C226.325 117.498 228.986 114.838 228.986 111.568C228.986 108.298 226.326 105.638 223.056 105.638Z" fill="white"></path><path d="M244.995 118.683C241.071 118.683 237.88 115.491 237.88 111.568C237.88 107.645 241.072 104.453 244.995 104.453C248.918 104.453 252.11 107.645 252.11 111.568C252.11 115.491 248.919 118.683 244.995 118.683ZM244.995 105.638C241.726 105.638 239.065 108.298 239.065 111.568C239.065 114.838 241.725 117.498 244.995 117.498C248.265 117.498 250.925 114.838 250.925 111.568C250.925 108.298 248.265 105.638 244.995 105.638Z" fill="white"></path><path d="M266.935 118.683C263.011 118.683 259.82 115.491 259.82 111.568C259.82 107.645 263.012 104.453 266.935 104.453C270.858 104.453 274.05 107.645 274.05 111.568C274.05 115.491 270.858 118.683 266.935 118.683ZM266.935 105.638C263.666 105.638 261.005 108.298 261.005 111.568C261.005 114.838 263.665 117.498 266.935 117.498C270.204 117.498 272.865 114.838 272.865 111.568C272.864 108.298 270.204 105.638 266.935 105.638Z" fill="white"></path><path d="M264.71 136H1.834C0.821 136 0 136.895 0 137.998V277.258C0 311.591 25.543 339.423 57.054 339.423H166.049L210.615 401.949C211.806 403.621 214.44 402.8 214.47 400.747L215.385 339.423H264.709C265.722 339.423 266.543 338.528 266.543 337.425V137.998C266.544 136.894 265.723 136 264.71 136Z" fill="#1291CF" fill-opacity="0.4"></path><path d="M198.17 169.279H34.4241V176.102H198.17V169.279Z" fill="white" fill-opacity="0.58"></path><path d="M229.725 221.303H34.4241V228.126H229.725V221.303Z" fill="white" fill-opacity="0.58"></path><path d="M229.725 273.326H34.4241V280.149H229.725V273.326Z" fill="white" fill-opacity="0.58"></path><path d="M619.471 350.854C618.733 350.854 618.091 350.31 617.987 349.559C617.708 347.534 617.525 345.475 617.444 343.438C617.411 342.61 618.056 341.912 618.883 341.88C619.714 341.849 620.409 342.492 620.441 343.319C620.518 345.259 620.692 347.22 620.958 349.149C621.071 349.97 620.498 350.727 619.677 350.84C619.609 350.849 619.54 350.854 619.471 350.854Z" fill="#1090CF"></path><path d="M619.618 332.953C619.543 332.953 619.467 332.947 619.391 332.936C618.572 332.812 618.009 332.047 618.133 331.228C618.731 327.29 619.704 323.302 621.025 319.378C621.289 318.593 622.14 318.17 622.925 318.435C623.71 318.699 624.132 319.55 623.868 320.335C622.602 324.095 621.671 327.912 621.099 331.679C620.986 332.421 620.346 332.953 619.618 332.953ZM627.12 310.368C626.889 310.368 626.654 310.314 626.434 310.201C625.698 309.821 625.409 308.917 625.788 308.18C627.591 304.684 629.7 301.185 632.056 297.782C632.527 297.101 633.462 296.931 634.143 297.403C634.824 297.874 634.994 298.809 634.523 299.49C632.24 302.788 630.198 306.174 628.455 309.556C628.188 310.071 627.664 310.368 627.12 310.368ZM640.642 290.712C640.292 290.712 639.941 290.59 639.657 290.343C639.033 289.799 638.968 288.851 639.512 288.227C642.106 285.252 644.932 282.321 647.912 279.515C648.515 278.947 649.464 278.975 650.032 279.579C650.6 280.182 650.571 281.131 649.968 281.699C647.06 284.438 644.302 287.298 641.773 290.199C641.476 290.538 641.06 290.712 640.642 290.712ZM658.008 274.313C657.564 274.313 657.123 274.116 656.827 273.739C656.315 273.088 656.429 272.144 657.08 271.633C660.224 269.164 663.527 266.792 666.897 264.583C667.59 264.129 668.52 264.323 668.974 265.015C669.428 265.708 669.234 266.637 668.542 267.092C665.243 269.254 662.009 271.576 658.933 273.992C658.659 274.208 658.333 274.313 658.008 274.313ZM677.989 261.2C677.459 261.2 676.946 260.919 676.673 260.422C676.274 259.696 676.539 258.784 677.265 258.385C680.751 256.47 684.36 254.625 687.993 252.903C688.741 252.548 689.636 252.867 689.991 253.615C690.346 254.364 690.027 255.258 689.279 255.613C685.7 257.311 682.144 259.128 678.71 261.014C678.481 261.14 678.233 261.2 677.989 261.2ZM699.582 250.948C698.989 250.948 698.428 250.594 698.192 250.012C697.88 249.244 698.25 248.37 699.018 248.058C702.685 246.569 706.478 245.149 710.291 243.838C711.074 243.568 711.928 243.985 712.197 244.769C712.467 245.552 712.05 246.406 711.266 246.675C707.504 247.969 703.762 249.37 700.146 250.838C699.961 250.912 699.77 250.948 699.582 250.948ZM722.18 243.163C721.528 243.163 720.928 242.735 720.739 242.077C720.51 241.281 720.97 240.45 721.766 240.221C725.557 239.131 729.472 238.108 733.401 237.181C734.209 236.991 735.015 237.49 735.206 238.296C735.396 239.102 734.897 239.91 734.091 240.101C730.208 241.018 726.34 242.028 722.595 243.105C722.456 243.144 722.317 243.163 722.18 243.163ZM913.434 238.913L912.217 238.909C911.389 238.903 910.722 238.226 910.728 237.398C910.734 236.57 911.379 235.893 912.239 235.909L913.434 235.913C917.142 235.913 920.718 235.782 924.06 235.523C924.882 235.462 925.607 236.076 925.671 236.903C925.735 237.729 925.117 238.451 924.291 238.515C920.873 238.779 917.22 238.913 913.434 238.913ZM900.28 238.452C900.247 238.452 900.214 238.451 900.181 238.449C896.611 238.217 892.697 237.888 888.215 237.446C887.391 237.365 886.788 236.63 886.87 235.806C886.951 234.982 887.685 234.376 888.51 234.461C892.959 234.901 896.84 235.226 900.376 235.456C901.203 235.51 901.829 236.224 901.775 237.05C901.724 237.843 901.064 238.452 900.28 238.452ZM745.438 237.658C744.731 237.658 744.102 237.157 743.966 236.437C743.812 235.623 744.347 234.838 745.161 234.684C749.025 233.952 753.012 233.283 757.011 232.696C757.833 232.577 758.593 233.143 758.713 233.962C758.833 234.782 758.267 235.544 757.447 235.664C753.489 236.245 749.543 236.907 745.719 237.631C745.624 237.649 745.53 237.658 745.438 237.658ZM936.022 236.95C935.318 236.95 934.69 236.452 934.551 235.734C934.394 234.921 934.925 234.134 935.739 233.977C939.689 233.213 943.504 232.199 947.079 230.963C947.864 230.692 948.716 231.108 948.987 231.89C949.258 232.673 948.842 233.527 948.06 233.798C944.351 235.08 940.398 236.131 936.309 236.922C936.213 236.94 936.117 236.95 936.022 236.95ZM876.473 236.191C876.418 236.191 876.363 236.188 876.308 236.182L872.748 235.794C869.984 235.495 867.212 235.21 864.434 234.939C863.609 234.859 863.006 234.125 863.086 233.301C863.166 232.477 863.896 231.871 864.724 231.953C867.513 232.224 870.296 232.511 873.071 232.811L876.635 233.2C877.459 233.29 878.053 234.031 877.963 234.854C877.878 235.622 877.228 236.191 876.473 236.191ZM769.086 234.171C768.33 234.171 767.68 233.601 767.597 232.832C767.508 232.008 768.103 231.268 768.927 231.179C772.828 230.757 776.851 230.394 780.886 230.099C781.715 230.039 782.431 230.66 782.491 231.486C782.551 232.312 781.93 233.031 781.104 233.091C777.104 233.383 773.116 233.743 769.25 234.161C769.195 234.168 769.14 234.171 769.086 234.171ZM852.669 233.889C852.629 233.889 852.589 233.887 852.548 233.884C848.532 233.563 844.529 233.281 840.649 233.046C839.822 232.996 839.192 232.285 839.242 231.458C839.292 230.631 840.005 230.007 840.83 230.051C844.73 230.287 848.753 230.57 852.788 230.893C853.614 230.959 854.23 231.682 854.163 232.508C854.1 233.294 853.443 233.889 852.669 233.889ZM828.796 232.454C828.776 232.454 828.757 232.454 828.737 232.453C824.714 232.297 820.704 232.189 816.819 232.131C815.991 232.119 815.329 231.437 815.341 230.609C815.353 229.781 816.028 229.093 816.863 229.131C820.772 229.189 824.806 229.298 828.852 229.455C829.68 229.487 830.325 230.184 830.293 231.012C830.263 231.82 829.598 232.454 828.796 232.454ZM792.93 232.421C792.13 232.421 791.465 231.789 791.433 230.982C791.399 230.154 792.043 229.456 792.871 229.422C796.788 229.262 800.824 229.157 804.867 229.11C805.684 229.122 806.375 229.764 806.384 230.592C806.394 231.42 805.73 232.1 804.902 232.11C800.888 232.157 796.881 232.261 792.993 232.42C792.972 232.42 792.951 232.421 792.93 232.421ZM958.514 229.092C957.98 229.092 957.463 228.806 957.192 228.303C956.799 227.574 957.072 226.664 957.802 226.271C961.175 224.455 964.488 222.32 967.647 219.926C968.308 219.425 969.248 219.556 969.748 220.216C970.248 220.876 970.119 221.817 969.458 222.317C966.175 224.804 962.732 227.023 959.223 228.912C958.998 229.034 958.754 229.092 958.514 229.092ZM977.55 214.763C977.166 214.763 976.781 214.616 976.488 214.323C975.903 213.737 975.904 212.787 976.49 212.202C979.183 209.515 981.815 206.554 984.312 203.401C984.827 202.752 985.771 202.643 986.419 203.157C987.068 203.672 987.178 204.615 986.663 205.264C984.093 208.507 981.383 211.556 978.608 214.325C978.317 214.617 977.933 214.763 977.55 214.763ZM992.426 196.101C992.148 196.101 991.867 196.024 991.616 195.862C990.919 195.414 990.718 194.486 991.166 193.789C993.235 190.573 995.243 187.137 997.134 183.574C997.523 182.842 998.431 182.564 999.162 182.952C999.894 183.34 1000.17 184.249 999.784 184.98C997.854 188.616 995.803 192.126 993.689 195.411C993.403 195.857 992.92 196.101 992.426 196.101Z" fill="#1090CF"></path><path d="M1003.7 174.954C1003.5 174.954 1003.29 174.913 1003.1 174.826C1002.34 174.491 1001.99 173.606 1002.33 172.848C1003.12 171.066 1003.89 169.221 1004.64 167.365C1004.95 166.597 1005.83 166.225 1006.59 166.534C1007.36 166.844 1007.73 167.718 1007.42 168.486C1006.66 170.372 1005.87 172.247 1005.07 174.059C1004.83 174.62 1004.28 174.954 1003.7 174.954Z" fill="#1090CF"></path><path d="M1077.83 55.3821L1071.56 197.649L1024.59 148.333C1024.59 148.333 1078.03 51.3931 1078.4 52.9961L1076.35 51.2851C1077.93 50.8331 1019.19 144.656 1019.19 144.656L953.259 127.573L1074.54 52.9431L1077.83 55.3821Z" fill="#1291CF" fill-opacity="0.4"></path><path opacity="0.07" d="M994.749 516.1H717.525V716.513H994.749V516.1Z" fill="#2E4661"></path><path d="M1006.1 504.472H726.996V705.482H1006.1V504.472Z" fill="#1291CF" fill-opacity="0.4"></path><path d="M1005.72 504.472H726.996V520.473H1005.72V504.472Z" fill="#212121"></path><path opacity="0.03" d="M1005.52 555.02V554.4H971.257V520.781H970.637V554.4H929.565V520.781H928.945V554.4H887.873V520.781H887.253V554.4H846.181V520.781H845.561V554.4H804.489V520.781H803.869V554.4H762.797V520.781H762.177V554.4H727.969V555.02H762.177V593.005H727.969V593.625H762.177V631.61H727.969V632.23H762.177V670.216H727.969V670.836H762.177V706.181H762.797V670.836H803.869V706.181H804.489V670.836H845.561V706.181H846.181V670.836H887.253V706.181H887.873V670.836H928.945V706.181H929.565V670.836H970.637V706.181H971.257V670.836H1005.52V670.216H971.257V632.23H1005.52V631.61H971.257V593.625H1005.52V593.005H971.257V555.02H1005.52ZM928.944 555.02V593.005H887.872V555.02H928.944ZM846.18 593.625H887.252V631.61H846.18V593.625ZM845.56 631.611H804.488V593.626H845.56V631.611ZM887.872 593.625H928.944V631.61H887.872V593.625ZM887.252 555.02V593.005H846.18V555.02H887.252ZM845.56 555.02V593.005H804.488V555.02H845.56ZM762.796 555.02H803.868V593.005H762.796V555.02ZM762.796 593.625H803.868V631.61H762.796V593.625ZM762.796 670.217V632.231H803.868V670.217H762.796ZM804.488 670.217V632.231H845.56V670.217H804.488ZM846.18 670.217V632.231H887.252V670.217H846.18ZM887.872 670.217V632.231H928.944V670.217H887.872ZM970.636 670.217H929.564V632.231H970.636V670.217ZM970.636 631.611H929.564V593.626H970.636V631.611ZM970.636 593.005H929.564V555.02H970.636V593.005Z" fill="#272525"></path><path d="M976.069 546.242C971.366 546.242 967.553 550.055 967.553 554.758C967.553 557.132 968.526 559.276 970.092 560.821C960.217 569.325 950.341 577.828 940.466 586.332C939.715 586.979 938.964 587.625 938.213 588.272C936.753 587.096 934.9 586.39 932.88 586.39C928.177 586.39 924.364 590.203 924.364 594.906C924.364 597.9 925.912 600.527 928.247 602.046C926.084 607.254 923.921 612.462 921.757 617.67C920.835 619.891 919.912 622.111 918.99 624.331C918.37 624.187 917.727 624.104 917.064 624.104C913.921 624.104 911.182 625.812 909.707 628.345C900.167 622.315 890.627 616.285 881.087 610.255C874.018 605.787 866.949 601.319 859.881 596.851C860.273 595.873 860.494 594.808 860.494 593.69C860.494 588.987 856.681 585.174 851.978 585.174C847.275 585.174 843.462 588.987 843.462 593.69C843.462 594.286 843.524 594.867 843.641 595.429C830.263 600.89 816.884 606.35 803.506 611.811C802.194 612.347 800.882 612.882 799.57 613.418C798.26 610.401 795.257 608.29 791.758 608.29C787.055 608.29 783.242 612.103 783.242 616.806C783.242 619.248 784.275 621.444 785.922 622.996C783.935 625.251 781.948 627.506 779.962 629.762C770.478 640.528 760.994 651.293 751.51 662.059C750.15 661.14 748.511 660.602 746.746 660.602C742.043 660.602 738.23 664.415 738.23 669.118C738.23 673.821 742.043 677.634 746.746 677.634C751.449 677.634 755.262 673.821 755.262 669.118C755.262 667.3 754.688 665.619 753.718 664.236C761.816 655.044 769.914 645.852 778.012 636.659C781.526 632.67 785.041 628.681 788.555 624.692C789.545 625.095 790.626 625.321 791.76 625.321C796.463 625.321 800.276 621.508 800.276 616.805C800.276 616.69 800.263 616.579 800.259 616.465C800.452 616.386 800.646 616.307 800.839 616.228C815.497 610.245 830.155 604.262 844.814 598.279C846.328 600.638 848.969 602.206 851.98 602.206C854.449 602.206 856.666 601.149 858.222 599.469C864.633 603.521 871.044 607.574 877.455 611.626C887.855 618.2 898.256 624.774 908.656 631.347C908.593 631.764 908.551 632.186 908.551 632.62C908.551 637.323 912.364 641.136 917.067 641.136C921.77 641.136 925.583 637.323 925.583 632.62C925.583 629.677 924.089 627.083 921.819 625.553C924.91 618.112 928.001 610.671 931.092 603.23C931.67 603.354 932.268 603.422 932.883 603.422C937.586 603.422 941.399 599.609 941.399 594.906C941.399 593.341 940.969 591.879 940.233 590.619C941.98 589.114 943.727 587.61 945.474 586.106C952.956 579.663 960.438 573.221 967.92 566.778C969.534 565.388 971.148 563.998 972.762 562.609C973.78 563.039 974.898 563.277 976.072 563.277C980.775 563.277 984.588 559.464 984.588 554.761C984.585 550.055 980.772 546.242 976.069 546.242Z" fill="#212121"></path><path d="M1029.69 415.807L996.293 469.305L806.774 349.912L840.174 296.414L1029.69 415.807Z" fill="#F7F7F7"></path><path d="M1094.98 493.31L1094.59 493.927C1084.06 510.803 1065.25 518.077 1052.6 510.176L907.124 420.883L945.353 356.589L1091.14 448.446C1103.79 456.348 1105.51 476.434 1094.98 493.31Z" fill="#263238"></path><path opacity="0.2" d="M820.034 357.888L829.208 364.569L912.253 343.013L843.061 298.863L820.034 357.888Z" fill="#BBBCBF"></path><path d="M781.449 70.1472C692.514 14.6252 575.408 41.7112 519.886 130.646C464.364 219.581 491.45 336.687 580.385 392.209C669.32 447.731 786.426 420.645 841.948 331.71C897.471 242.775 870.384 125.67 781.449 70.1472ZM819.446 317.662C771.682 394.17 670.941 417.471 594.433 369.707C517.926 321.943 494.624 221.202 542.388 144.695C590.151 68.1871 690.893 44.8862 767.401 92.6502C843.908 140.413 867.21 241.155 819.446 317.662Z" fill="#263238"></path><path opacity="0.5" d="M796.382 346.658C860.158 282.883 860.157 179.482 796.382 115.707C732.606 51.931 629.206 51.931 565.43 115.707C501.655 179.482 501.655 282.883 565.43 346.658C629.206 410.434 732.607 410.434 796.382 346.658Z" fill="#D1E7F5"></path><g opacity="0.22"><path d="M563.23 224.599C562.426 172.527 596.265 125.409 646.5 110.957C696.609 96.5411 751.223 118.651 777.585 163.626C785.016 176.303 805.226 165.71 797.785 153.014C767.436 101.238 707.267 74.4351 648.6 86.9211C590.783 99.2261 548.125 148.918 541.173 206.998C540.501 212.615 540.335 218.283 540.422 223.935C540.648 238.586 563.457 239.357 563.23 224.599Z" fill="white"></path></g><path opacity="0.31" d="M811.677 185.939C818.716 190.334 820.86 199.603 816.466 206.642C812.071 213.681 802.802 215.825 795.763 211.431C788.724 207.036 786.58 197.767 790.974 190.728C795.368 183.688 804.638 181.545 811.677 185.939Z" fill="white"></path><path d="M909.054 418.754L945.426 357.583C946.675 355.482 946.131 352.776 944.167 351.321L943.53 350.849C941.249 349.159 938.004 349.828 936.577 352.282L900.759 413.879C899.418 416.185 900.232 419.142 902.564 420.437L902.648 420.484C904.899 421.734 907.737 420.968 909.054 418.754Z" fill="#0777BC" fill-opacity="0.4"></path><path d="M840.223 232.346C840.081 271.598 825.825 309.644 799.904 339.159C774.315 368.295 738.693 387.103 700.377 392.536C661.203 398.09 620.763 388.153 588.029 366.202C556.148 344.823 532.885 311.841 522.685 274.931C512.108 236.657 516.487 194.916 534.316 159.503C551.491 125.389 581.026 97.934 616.245 83.183C653.013 67.783 694.746 66.858 732.337 79.875C768.535 92.41 799.28 118.471 818.543 151.442C832.852 175.93 840.121 204.038 840.223 232.346C840.243 237.948 848.932 237.95 848.911 232.346C848.769 193.021 835.163 155.155 810.466 124.597C786.354 94.762 751.803 73.9 714.374 65.822C675.555 57.444 634.506 63.279 599.35 81.595C565.557 99.201 538.304 128.669 522.876 163.44C506.749 199.783 504.087 241.284 514.939 279.494C525.425 316.416 548.872 348.713 579.898 371.098C611.795 394.112 651.648 404.893 690.786 402.2C729.589 399.529 766.487 383.116 794.945 356.715C829.321 324.824 848.743 279.107 848.912 232.348C848.932 226.742 840.244 226.744 840.223 232.346Z" fill="#F7F7F7"></path></svg>