<svg xmlns="http://www.w3.org/2000/svg" width="875" height="522" viewBox="0 0 875 522" fill="none"><path d="M597.513 343.884C597.173 342.456 596.322 341.203 595.12 340.36L471.03 253.375C469.342 252.192 467.165 251.958 465.265 252.755L434.821 265.526C433.336 266.149 431.664 266.149 430.179 265.527L399.727 252.755C397.826 251.958 395.65 252.192 393.962 253.375L269.872 340.36C268.67 341.203 267.819 342.456 267.479 343.884L249.209 420.632C248.312 424.402 251.17 428.022 255.046 428.022H432.5H609.946C613.821 428.022 616.68 424.402 615.783 420.632L597.513 343.884Z" fill="white" stroke="#0093D8" stroke-width="12" stroke-miterlimit="10"></path><path d="M311.6 422.022C311.6 425.335 314.286 428.022 317.6 428.022H432.5H549.864C553.178 428.022 555.864 425.335 555.864 422.022V315.966C555.864 314.01 554.91 312.176 553.308 311.053L470.953 253.322C469.307 252.168 467.193 251.915 465.321 252.648L434.688 264.643C433.281 265.194 431.719 265.194 430.313 264.644L399.67 252.647C397.798 251.915 395.684 252.168 394.039 253.321L314.156 309.318C312.554 310.441 311.6 312.274 311.6 314.231V422.022Z" fill="#0093D8" stroke="#0093D8" stroke-width="12" stroke-miterlimit="10"></path><path d="M391.84 23.9165C393.593 23.4287 395.458 23.934 396.85 25.107L404.04 31.1685C407.942 34.4574 413.907 31.6839 413.907 26.5809V12C413.907 8.68629 416.594 6 419.907 6H436.152C439.465 6 442.152 8.68629 442.152 12V25.6638C442.152 31.0571 448.713 33.7119 452.464 29.8358L454.965 27.2504C456.55 25.6118 458.924 25.0185 461.03 25.8926C464.774 27.4469 471.096 30.4445 477.759 35.2434C490.505 44.4214 498.368 66.3715 501.541 81.5191V81.5191C502.048 83.9507 505.775 85.6347 505.775 88.1186V99.3733C505.775 102.178 503.854 104.595 501.1 105.127C489.135 107.44 455.66 113.075 417.729 112.13C391.489 111.473 366.259 105.364 356.474 102.722C353.928 102.035 352.204 99.7133 352.204 97.076V84.1724C352.204 82.0292 353.941 80.2919 356.084 80.2919V80.2919C358.236 80.2919 359.998 78.564 360.136 76.4163C360.876 64.9114 365.313 31.2974 391.84 23.9165Z" fill="#0093D8" stroke="#0093D8" stroke-width="12" stroke-miterlimit="10"></path><path d="M417.729 123.999C399.473 123.541 381.741 120.454 369.332 117.726C365.919 116.976 362.52 119.212 362.196 122.691C361.952 125.322 361.82 127.991 361.82 130.696C361.82 211.063 391.449 233.127 428.003 233.127C464.557 233.127 494.195 204.76 494.195 130.696C494.195 128.62 494.105 126.571 493.947 124.545C493.684 121.17 490.519 118.866 487.173 119.376C470.9 121.854 445.542 124.694 417.729 123.999Z" stroke="#0093D8" stroke-width="12" stroke-miterlimit="10"></path><path d="M393.557 243.19C391.185 241.708 388.103 242.061 386.128 244.042L365.102 265.133C362.874 267.368 362.758 270.946 364.836 273.321L407.516 322.097C410.722 325.761 416.726 324.283 417.865 319.55L429.648 270.578C430.252 268.069 429.183 265.454 426.995 264.086L393.557 243.19Z" fill="white" stroke="#0093D8" stroke-width="12" stroke-miterlimit="10"></path><path d="M472.829 243.19C475.201 241.708 478.282 242.061 480.257 244.041L501.291 265.133C503.519 267.368 503.636 270.947 501.557 273.321L458.869 322.099C455.663 325.762 449.659 324.284 448.521 319.551L436.737 270.578C436.133 268.069 437.202 265.454 439.391 264.086L472.829 243.19Z" fill="white" stroke="#0093D8" stroke-width="12" stroke-miterlimit="10"></path><path d="M849.676 431.762C849.336 430.335 848.485 429.082 847.284 428.24L723.173 341.226C721.501 340.053 719.347 339.812 717.457 340.585L686.935 353.071C685.479 353.666 683.847 353.666 682.391 353.071L651.869 340.585C649.979 339.812 647.825 340.053 646.153 341.226L522.043 428.24C520.841 429.082 519.99 430.335 519.65 431.762L501.373 508.511C500.475 512.281 503.334 515.901 507.209 515.901H684.663H862.117C865.992 515.901 868.851 512.281 867.953 508.511L849.676 431.762Z" fill="white" stroke="#0093D8" stroke-width="12" stroke-miterlimit="10"></path><path d="M563.762 509.901C563.762 513.214 566.449 515.901 569.762 515.901H684.663H802.027C805.341 515.901 808.027 513.214 808.027 509.901V403.837C808.027 401.88 807.073 400.047 805.471 398.924L723.362 341.358C721.588 340.114 719.28 339.924 717.326 340.86L687.254 355.259C685.616 356.044 683.71 356.044 682.072 355.259L652 340.86C650.046 339.924 647.739 340.114 645.964 341.358L566.318 397.197C564.716 398.32 563.762 400.153 563.762 402.11V509.901Z" fill="#0093D8" stroke="#0093D8" stroke-width="12" stroke-miterlimit="10"></path><path d="M644.011 111.795C645.765 111.308 647.63 111.813 649.021 112.987L656.211 119.051C660.112 122.341 666.079 119.568 666.079 114.464V99.8879C666.079 96.5742 668.765 93.8879 672.079 93.8879H688.323C691.637 93.8879 694.323 96.5742 694.323 99.8879V113.552C694.323 118.945 700.885 121.6 704.635 117.724L707.139 115.136C708.723 113.499 711.094 112.905 713.199 113.777C716.943 115.329 723.266 118.326 729.931 123.131C742.676 132.309 750.54 154.259 753.713 169.407V169.407C754.219 171.834 757.938 173.519 757.938 175.998V187.27C757.938 190.075 756.017 192.492 753.263 193.024C741.299 195.337 707.83 200.971 669.892 200.027C643.651 199.376 618.42 193.263 608.636 190.62C606.09 189.932 604.366 187.611 604.366 184.974V172.052C604.366 169.909 606.104 168.171 608.247 168.171V168.171C610.399 168.171 612.161 166.443 612.299 164.296C613.042 152.79 617.483 119.17 644.011 111.795Z" fill="#0093D8" stroke="#0093D8" stroke-width="12" stroke-miterlimit="10"></path><path d="M669.901 211.878C651.645 211.42 633.913 208.333 621.504 205.605C618.091 204.855 614.692 207.091 614.372 210.571C614.129 213.201 614 215.87 614 218.576C614 298.942 643.629 321.006 680.184 321.006C716.738 321.006 746.367 292.639 746.367 218.576C746.367 216.499 746.277 214.45 746.119 212.424C745.856 209.049 742.691 206.745 739.345 207.254C723.068 209.731 697.715 212.565 669.901 211.878Z" stroke="#0093D8" stroke-width="12" stroke-miterlimit="10"></path><path d="M645.727 331.069C643.356 329.587 640.275 329.94 638.299 331.92L617.267 353.004C615.038 355.238 614.922 358.817 617 361.192L659.687 409.975C662.893 413.639 668.897 412.16 670.036 407.427L681.812 358.456C682.415 355.947 681.347 353.333 679.159 351.966L645.727 331.069Z" fill="white" stroke="#0093D8" stroke-width="12" stroke-miterlimit="10"></path><path d="M724.993 331.069C727.364 329.587 730.445 329.94 732.421 331.92L753.453 353.004C755.682 355.238 755.799 358.817 753.721 361.192L711.041 409.975C707.835 413.639 701.831 412.161 700.692 407.428L688.909 358.457C688.305 355.947 689.373 353.333 691.562 351.965L724.993 331.069Z" fill="white" stroke="#0093D8" stroke-width="12" stroke-miterlimit="10"></path><path d="M355.054 431.762C354.714 430.335 353.863 429.082 352.662 428.24L228.815 341.411C227.001 340.139 224.634 339.97 222.658 340.971L192.754 356.126C191.049 356.99 189.034 356.99 187.329 356.126L157.425 340.971C155.449 339.97 153.082 340.139 151.268 341.411L27.4213 428.239C26.2198 429.082 25.3686 430.335 25.0288 431.763L6.75904 508.511C5.86156 512.281 8.72041 515.901 12.5959 515.901H190.041H367.495C371.371 515.901 374.23 512.281 373.332 508.511L355.054 431.762Z" fill="white" stroke="#0093D8" stroke-width="12" stroke-miterlimit="10"></path><path d="M69.1497 509.901C69.1497 513.214 71.8359 515.901 75.1497 515.901H190.042H307.406C310.719 515.901 313.406 513.214 313.406 509.901V403.837C313.406 401.88 312.452 400.047 310.85 398.924L229.07 341.589C227.124 340.225 224.556 340.138 222.522 341.367L193.145 359.124C191.237 360.277 188.846 360.277 186.938 359.124L157.561 341.368C155.527 340.138 152.959 340.225 151.013 341.59L71.7051 397.197C70.1033 398.32 69.1497 400.153 69.1497 402.11V509.901Z" fill="#0093D8" stroke="#0093D8" stroke-width="12" stroke-miterlimit="10"></path><path d="M149.39 111.795C151.143 111.308 153.008 111.813 154.399 112.987L161.589 119.051C165.49 122.341 171.458 119.568 171.458 114.464V99.8879C171.458 96.5742 174.144 93.8879 177.458 93.8879H193.702C197.015 93.8879 199.702 96.5742 199.702 99.8879V113.552C199.702 118.945 206.263 121.6 210.014 117.724L212.518 115.136C214.102 113.499 216.473 112.905 218.577 113.777C222.321 115.329 228.645 118.326 235.309 123.131C248.055 132.309 255.918 154.259 259.091 169.407V169.407C259.598 171.839 263.325 173.523 263.325 176.006V187.27C263.325 190.075 261.404 192.492 258.65 193.024C246.685 195.337 213.21 200.971 175.279 200.027C149.038 199.376 123.807 193.263 114.023 190.62C111.477 189.932 109.754 187.611 109.754 184.974V172.052C109.754 169.908 111.491 168.171 113.634 168.171V168.171C115.786 168.171 117.548 166.443 117.686 164.295C118.426 152.789 122.862 119.17 149.39 111.795Z" fill="#0093D8" stroke="#0093D8" stroke-width="12" stroke-miterlimit="10"></path><path d="M175.28 211.878C157.023 211.42 139.291 208.333 126.882 205.605C123.469 204.855 120.07 207.091 119.747 210.57C119.502 213.201 119.37 215.87 119.37 218.576C119.37 298.942 149.008 321.006 185.553 321.006C222.099 321.006 251.737 292.639 251.737 218.576C251.737 216.499 251.647 214.45 251.489 212.424C251.226 209.049 248.061 206.746 244.714 207.255C228.443 209.731 203.092 212.565 175.28 211.878Z" stroke="#0093D8" stroke-width="12" stroke-miterlimit="10"></path><path d="M151.106 331.069C148.734 329.587 145.653 329.94 143.678 331.92L122.646 353.004C120.417 355.238 120.3 358.817 122.378 361.192L165.065 409.975C168.271 413.639 174.276 412.16 175.414 407.427L187.19 358.456C187.794 355.947 186.725 353.333 184.537 351.966L151.106 331.069Z" fill="white" stroke="#0093D8" stroke-width="12" stroke-miterlimit="10"></path><path d="M230.371 331.069C232.743 329.587 235.824 329.94 237.799 331.92L258.831 353.004C261.06 355.238 261.177 358.817 259.099 361.192L216.419 409.975C213.214 413.639 207.209 412.161 206.07 407.428L194.287 358.457C193.683 355.947 194.752 353.333 196.94 351.965L230.371 331.069Z" fill="white" stroke="#0093D8" stroke-width="12" stroke-miterlimit="10"></path></svg>