<svg width="436" height="373" viewBox="0 0 436 373" fill="none" xmlns="http://www.w3.org/2000/svg">
<path d="M118.887 289.173C116.928 291.041 118.251 294.344 120.958 294.344H335.887C337.544 294.344 338.887 293.001 338.887 291.344V86.3508C338.887 83.7122 335.726 82.3588 333.816 84.1799L118.887 289.173ZM296.722 251.382C296.722 253.039 295.379 254.382 293.722 254.382H220.365C217.658 254.382 216.336 251.08 218.294 249.211L291.651 179.243C293.561 177.421 296.722 178.775 296.722 181.413V251.382Z" stroke="#0093D8" stroke-width="6" stroke-miterlimit="10"/>
<path d="M141.085 283.175V294.344" stroke="#0093D8" stroke-width="3" stroke-miterlimit="10"/>
<path d="M155.283 283.175V294.344" stroke="#0093D8" stroke-width="3" stroke-miterlimit="10"/>
<path d="M169.486 283.175V294.344" stroke="#0093D8" stroke-width="3" stroke-miterlimit="10"/>
<path d="M183.682 283.175V294.344" stroke="#0093D8" stroke-width="3" stroke-miterlimit="10"/>
<path d="M197.889 283.175V294.344" stroke="#0093D8" stroke-width="3" stroke-miterlimit="10"/>
<path d="M212.085 283.175V294.344" stroke="#0093D8" stroke-width="3" stroke-miterlimit="10"/>
<path d="M226.282 283.175V294.344" stroke="#0093D8" stroke-width="3" stroke-miterlimit="10"/>
<path d="M240.489 283.175V294.344" stroke="#0093D8" stroke-width="3" stroke-miterlimit="10"/>
<path d="M254.685 283.175V294.344" stroke="#0093D8" stroke-width="3" stroke-miterlimit="10"/>
<path d="M268.893 283.175V294.344" stroke="#0093D8" stroke-width="3" stroke-miterlimit="10"/>
<path d="M283.088 283.175V294.344" stroke="#0093D8" stroke-width="3" stroke-miterlimit="10"/>
<path d="M297.292 283.175V294.344" stroke="#0093D8" stroke-width="3" stroke-miterlimit="10"/>
<path d="M311.492 283.175V294.344" stroke="#0093D8" stroke-width="3" stroke-miterlimit="10"/>
<path d="M325.695 283.175V294.344" stroke="#0093D8" stroke-width="3" stroke-miterlimit="10"/>
<path d="M144.161 233.598C143.181 234.888 141.353 235.166 140.033 234.227L136.648 231.819C135.269 230.837 134.974 228.909 135.998 227.561L223.845 111.83C224.824 110.541 226.649 110.261 227.97 111.197L231.428 113.648C232.812 114.629 233.108 116.561 232.082 117.911L144.161 233.598Z" stroke="#0093D8" stroke-width="3" stroke-miterlimit="10" stroke-linecap="round" stroke-linejoin="round"/>
<path d="M136.034 227.959C135.053 229.249 133.226 229.528 131.906 228.589L128.521 226.18C127.141 225.199 126.847 223.271 127.87 221.922L215.718 106.192C216.696 104.902 218.521 104.622 219.842 105.558L223.301 108.01C224.684 108.99 224.981 110.922 223.955 112.272L136.034 227.959Z" stroke="#0093D8" stroke-width="3" stroke-miterlimit="10" stroke-linecap="round" stroke-linejoin="round"/>
<path d="M235.69 113.163C234.721 114.439 232.92 114.727 231.601 113.819L220.046 105.864C218.636 104.894 218.322 102.942 219.358 101.578L222.147 97.9064C223.116 96.6309 224.916 96.3415 226.236 97.2492L237.797 105.2C239.208 106.17 239.522 108.124 238.485 109.487L235.69 113.163Z" stroke="#0093D8" stroke-width="3" stroke-miterlimit="10" stroke-linecap="round" stroke-linejoin="round"/>
<path d="M238.03 105.36C239.35 106.268 241.151 105.978 242.119 104.701L243.873 102.39C247.218 97.9849 246.237 91.876 241.681 88.7365C237.122 85.6071 230.717 86.6354 227.372 91.0338L225.782 93.123C224.745 94.4866 225.059 96.4405 226.47 97.4112L238.03 105.36Z" stroke="#0093D8" stroke-width="3" stroke-miterlimit="10" stroke-linecap="round" stroke-linejoin="round"/>
<path d="M124.835 228.743C125.347 226.717 127.721 225.822 129.443 227.006L138.522 233.246C140.33 234.489 140.236 237.189 138.345 238.303L125.827 245.679C123.531 247.032 120.742 244.943 121.395 242.359L124.835 228.743Z" stroke="#0093D8" stroke-width="3" stroke-miterlimit="10" stroke-linecap="round" stroke-linejoin="round"/>
<path d="M126.278 239.549C124.556 238.365 122.182 239.259 121.669 241.285L121.398 242.358C120.744 244.942 123.532 247.031 125.829 245.679L126.815 245.097C128.706 243.984 128.801 241.284 126.993 240.041L126.278 239.549Z" stroke="#0093D8" stroke-width="3" stroke-miterlimit="10" stroke-linecap="round" stroke-linejoin="round"/>
<path d="M225.707 109.764L134.152 230.237" stroke="#0093D8" stroke-width="3" stroke-miterlimit="10" stroke-linecap="round" stroke-linejoin="round"/>
</svg>
