<svg width="436" height="373" viewBox="0 0 436 373" fill="none" xmlns="http://www.w3.org/2000/svg">
<path d="M167.486 291.987V291.987C165.933 294.533 162.574 295.276 160.092 293.623L108.264 259.121C104.215 256.426 103.04 251.001 105.611 246.872L212.907 74.557C214.35 72.2394 217.351 71.451 219.747 72.7599V72.7599L271.952 103.122C276.313 105.658 277.738 111.283 275.111 115.589L273.02 119.015M167.486 291.987L187.222 299.876C191.879 301.738 197.159 299.433 198.962 294.753L255.708 147.39M167.486 291.987L255.708 147.39M255.708 147.39L259.74 140.783M200.343 296.651L217.991 301.006C222.967 302.234 227.962 299.065 228.971 294.04L259.74 140.783M259.74 140.783L265.194 131.842M231.389 296.651H251.033C255.887 296.651 259.867 292.801 260.028 287.949L265.194 131.842M265.194 131.842L271.36 121.736M261.658 286.545L288.234 281.865C293.081 281.011 296.343 276.424 295.558 271.566L271.36 121.736M271.36 121.736L273.02 119.015M296.973 266.721L311.278 260.325C315.495 258.439 317.6 253.666 316.148 249.28L314.33 243.788M273.02 119.015L314.33 243.788M273.02 119.015L331.29 219.137C333.449 222.847 332.688 227.566 329.471 230.409L314.33 243.788" stroke="#0093D8" stroke-width="5"/>
<circle cx="248.574" cy="113.349" r="7.64346" fill="#0093D8"/>
</svg>
