<svg width="436" height="373" viewBox="0 0 436 373" fill="none" xmlns="http://www.w3.org/2000/svg">
<path d="M358.318 239.666C356.265 237.682 353.51 236.631 350.664 236.401L329.721 234.708C322.45 234.12 316.849 228.048 316.849 220.753V176.689C316.849 169.653 311.145 163.949 304.109 163.949V163.949C299.515 163.949 295.324 161.443 292.807 157.6C272.581 126.722 237.683 106.322 198.011 106.322C135.472 106.322 84.7722 157.015 84.7722 219.557C84.7722 222.751 84.9131 225.911 85.1803 229.037C85.4066 231.685 84.7483 234.344 83.2031 236.505V236.505C78.1751 243.538 83.2016 253.311 91.8464 253.311H357.561C361.699 253.311 365.627 250.839 363.942 247.059C363.057 245.076 361.37 242.615 358.318 239.666Z" stroke="#0093D8" stroke-width="7" stroke-miterlimit="10"/>
<path d="M296.674 163.95V188.782" stroke="#0093D8" stroke-width="7" stroke-miterlimit="10"/>
<path d="M204.003 204.998H178.859C171.127 204.998 164.859 211.266 164.859 218.998V239.312C164.859 247.044 171.127 253.312 178.859 253.312H204.003C211.735 253.312 218.003 247.044 218.003 239.312V218.998C218.003 211.266 211.735 204.998 204.003 204.998Z" stroke="#0093D8" stroke-width="7" stroke-miterlimit="10"/>
<path d="M267.609 173.2C251.547 144.547 219.958 126.7 186.973 129.955C159.735 132.638 135.598 149.487 122.295 173.2" stroke="#0093D8" stroke-width="7" stroke-miterlimit="10"/>
<path d="M290.766 253.312H99.1322C95.2512 253.312 92.105 256.458 92.105 260.339C92.105 264.22 95.2512 267.366 99.1322 267.366H290.766C294.647 267.366 297.793 264.22 297.793 260.339C297.793 256.458 294.647 253.312 290.766 253.312Z" stroke="#0093D8" stroke-width="7" stroke-miterlimit="10"/>
</svg>
