<svg width="100" height="100" viewBox="0 0 100 100" fill="none" xmlns="http://www.w3.org/2000/svg">
<mask id="mask0_531_696" style="mask-type:luminance" maskUnits="userSpaceOnUse" x="18" y="8" width="59" height="58">
<path d="M76.8724 8H18.8446V65.5308H76.8724V8Z" fill="white"/>
</mask>
<g mask="url(#mask0_531_696)">
<path d="M32.9595 37.5044C32.9595 29.5769 32.9595 21.6495 32.9595 13.722C32.9595 13.3453 33.2158 12.7594 32.5776 12.6757C32.1612 12.633 31.7426 12.7325 31.39 12.9582C23.909 18.1583 19.0123 27.0414 18.8345 36.186C18.7298 43.7508 21.2252 51.2998 26.5248 56.7929C28.2465 58.5603 30.0927 60.2019 32.0492 61.7053C32.126 61.7769 32.2225 61.824 32.3263 61.8397C32.4301 61.8559 32.5363 61.8402 32.6311 61.7953C32.7259 61.7503 32.805 61.6775 32.8579 61.5865C32.9109 61.496 32.9353 61.3914 32.9281 61.2868C32.9595 53.361 32.9595 45.4301 32.9595 37.5044Z" fill="white"/>
<path d="M37.1442 27.9894C36.9716 31.5991 41.5073 30.6052 41.8526 28.0261C41.7479 25.3371 37.1076 24.772 37.1442 27.9894Z" fill="white"/>
<path d="M68.0106 28.2089C68.2094 24.6044 63.6896 25.5304 63.3025 28.1095C63.3496 30.7462 68.0106 31.442 68.0106 28.2089Z" fill="white"/>
<path d="M37.1449 36.9926C37.0874 40.3983 41.3301 39.4671 41.8533 37.0606C41.8847 34.3402 36.9723 33.498 37.1449 36.9926Z" fill="white"/>
<path d="M68.0106 36.9136C68.0681 33.6596 63.5013 34.235 63.3025 36.8769C63.4908 39.4508 68.1257 40.4919 68.0106 36.9136Z" fill="white"/>
<path d="M59.1173 36.9717C59.1958 33.5085 54.7804 34.4763 54.4089 36.9717C54.7594 39.4671 59.1748 40.4402 59.1173 36.9717Z" fill="white"/>
<path d="M76.8735 37.102C76.8735 33.5603 72.4581 34.0678 72.1652 36.9503C72.5157 39.5399 76.7793 40.2828 76.8735 37.102Z" fill="white"/>
<path d="M37.1449 45.8804C37.0978 49.1501 41.5498 48.5485 41.8062 45.6921C41.6126 42.705 37.0037 42.7311 37.1449 45.8804Z" fill="white"/>
<path d="M68.0106 45.8019C68.2251 42.8461 63.5274 42.8356 63.3025 45.5089C63.5222 48.4072 67.8798 49.3489 68.0106 45.8019Z" fill="white"/>
<path d="M37.1447 19.0636C37.1447 22.6053 41.56 22.0979 41.853 19.2154C41.492 16.6206 37.2231 15.8829 37.1447 19.0636Z" fill="white"/>
<path d="M68.0106 19.1733C67.9844 15.9036 63.7838 16.4947 63.3025 19.3616C63.4124 21.7786 68.1937 22.5895 68.0106 19.1733Z" fill="white"/>
<path d="M59.1173 28.172C59.2167 24.5728 54.7961 25.5301 54.4089 28.2557C54.9321 30.4687 59.1173 31.515 59.1173 28.172Z" fill="white"/>
<path d="M59.1173 45.8032C59.3213 42.8474 54.6339 42.8369 54.4089 45.5154C54.7124 48.2044 59.0597 49.4286 59.1173 45.8032Z" fill="white"/>
<path d="M37.1448 55.261C37.7203 57.9448 41.7276 56.8619 41.8113 54.4502C41.2568 51.6043 36.5693 51.2119 37.1448 55.261Z" fill="white"/>
<path d="M50.2238 54.4073C50.2238 52.5972 49.9989 52.3984 48.1312 52.3984C41.9162 52.7176 49.9832 60.9729 50.2238 54.4073Z" fill="white"/>
<path d="M59.1173 55.1399C59.4364 51.6557 54.7385 51.5981 54.4089 54.4336C54.7228 56.9029 58.547 58.1427 59.1173 55.1399Z" fill="white"/>
<path d="M47.9839 65.4724C51.4785 66.142 50.7305 60.9367 48.1095 60.832C45.5513 60.8739 44.8293 66.0845 47.9839 65.4724Z" fill="white"/>
<path d="M59.1177 19.2361C59.1962 15.9821 54.8279 16.5 54.5035 19.3146C54.7808 21.9879 59.0602 22.579 59.1177 19.2361Z" fill="white"/>
<path d="M46.0384 28.1305C46.1745 31.5152 50.1661 30.7044 50.6631 28.0468C50.3858 25.5514 45.8396 24.6515 46.0384 28.1305Z" fill="white"/>
<path d="M65.6993 52.3998C62.0894 52.4312 63.2456 56.7576 65.9766 57.1081C68.2784 56.7001 68.8905 52.3108 65.6993 52.3998Z" fill="white"/>
<path d="M46.0389 19.2358C46.1854 22.6206 50.1456 21.8149 50.6688 19.1521C50.3183 16.4788 45.8663 15.9975 46.0389 19.2358Z" fill="white"/>
<path d="M50.2233 36.8987C50.1762 33.8749 46.0381 33.8697 46.0381 36.8987C45.9335 40.1632 50.2809 40.1213 50.2233 36.8987Z" fill="white"/>
<path d="M50.6735 45.8079C50.5389 45.2215 50.2062 44.6994 49.7316 44.3297C49.257 43.9599 48.6695 43.7651 48.068 43.7779C47.4664 43.7909 46.8878 44.0107 46.4295 44.4005C45.9712 44.7903 45.6612 45.3261 45.5519 45.9177C46.4255 48.7166 50.0876 48.5753 50.6735 45.8079Z" fill="white"/>
<path d="M50.2237 10.2282C49.1094 4.47356 42.7375 11.5204 48.0474 12.6556C49.6587 12.687 50.2237 12.2109 50.2237 10.2282Z" fill="white"/>
<path d="M59.1171 63.0093C58.6986 60.9743 55.455 60.0535 54.9319 62.8733C54.7488 65.3426 58.8346 65.6931 59.1171 63.0093Z" fill="white"/>
<path d="M57.103 12.6562C59.3578 12.426 59.6664 9.09877 56.9931 8.99414C54.4088 9.13539 54.1263 12.6719 57.103 12.6562Z" fill="white"/>
<path d="M37.6678 63.0346C37.5265 65.7655 41.3298 65.3469 41.3298 62.8358C41.0473 60.1677 37.9084 60.3456 37.6678 63.0346Z" fill="white"/>
<path d="M39.3413 12.6556C44.2956 12.6085 38.5775 5.95927 37.6411 10.495C37.4789 11.9127 38.0596 12.9172 39.3413 12.6556Z" fill="white"/>
<path d="M75.8274 28.1731C76.3139 25.1493 72.0974 26.0805 72.1654 28.1261C72.2805 30.0094 76.1151 30.9301 75.8274 28.1731Z" fill="white"/>
<path d="M75.8271 45.77C76.1148 43.013 72.2749 43.939 72.165 45.8224C72.1127 47.847 76.3032 48.7886 75.8271 45.77Z" fill="white"/>
<path d="M64.0873 60.2784C63.8664 60.2039 63.6253 60.2166 63.4134 60.3139C63.2014 60.4113 63.0346 60.5855 62.9469 60.8016C62.817 61.0145 62.774 61.2693 62.8266 61.513C62.8781 61.7485 63.0196 61.9546 63.2209 62.0875C63.4222 62.2203 63.6673 62.2695 63.9042 62.2245C64.1222 62.1853 64.3212 62.0754 64.471 61.9122C64.6209 61.749 64.7131 61.5413 64.7339 61.3211C64.7546 61.1003 64.7027 60.879 64.586 60.6907C64.4692 60.5028 64.2941 60.3579 64.0873 60.2784Z" fill="white"/>
<path d="M73.7657 20.6492C73.2791 18.8443 71.5946 19.3047 71.1499 20.759C71.5056 21.8524 73.2425 21.4915 73.7657 20.6492Z" fill="white"/>
<path d="M64.3486 13.1785C66.2686 13.5343 65.1595 11.0859 64.312 11.0859C63.2343 11.1383 62.7111 13.686 64.3486 13.1785Z" fill="white"/>
<path d="M72.0439 54.5227C72.398 54.4498 72.713 54.25 72.9296 53.9609C73.1467 53.6718 73.2503 53.3134 73.221 52.9532C72.3892 51.2007 69.9147 53.8164 72.0439 54.5227Z" fill="white"/>
</g>
<path d="M18.662 92.2281C17.4937 92.2281 16.5869 91.9231 15.9417 91.3125C15.3139 90.702 15 89.8566 15 88.7753V74.8857C15 74.5022 15.1046 74.2056 15.3139 73.9963C15.5406 73.7698 15.8458 73.6562 16.2294 73.6562C16.613 73.6562 16.9182 73.7698 17.1449 73.9963C17.3716 74.2056 17.485 74.5022 17.485 74.8857V88.8014C17.485 89.2372 17.5983 89.5862 17.825 89.8477C18.0517 90.1093 18.3656 90.2401 18.7667 90.2401H27.3725C28.1921 90.2401 28.6019 90.5712 28.6019 91.2341C28.6019 91.548 28.4885 91.7923 28.2618 91.9665C28.0526 92.1407 27.7561 92.2281 27.3725 92.2281H18.662ZM37.9385 92.4896C36.3516 92.4896 34.974 92.1757 33.8056 91.548C32.6372 90.9202 31.7304 90.0219 31.0852 88.8537C30.4575 87.6678 30.1436 86.2642 30.1436 84.6424V74.8857C30.1436 74.5022 30.2482 74.2056 30.4575 73.9963C30.6841 73.7698 30.9893 73.6562 31.373 73.6562C31.7566 73.6562 32.0617 73.7698 32.2885 73.9963C32.5152 74.2056 32.6285 74.5022 32.6285 74.8857V84.7209C32.6285 86.5519 33.0906 87.9644 34.0149 88.9584C34.9565 89.9524 36.2818 90.4494 37.9908 90.4494C39.6997 90.4494 41.0338 89.9435 41.9929 88.9322C42.952 87.921 43.4316 86.5168 43.4316 84.7209V74.8857C43.4316 74.5022 43.5449 74.2056 43.7716 73.9963C43.9983 73.7698 44.3034 73.6562 44.6871 73.6562C45.0707 73.6562 45.3672 73.7698 45.5765 73.9963C45.7857 74.2056 45.8904 74.5022 45.8904 74.8857V84.6424C45.8904 86.2118 45.5677 87.5893 44.9225 88.7753C44.2773 89.9612 43.3531 90.8768 42.1498 91.5218C40.964 92.1668 39.5603 92.4896 37.9385 92.4896ZM50.6079 92.4896C50.2242 92.4896 49.9191 92.385 49.6924 92.1757C49.4831 91.9492 49.3785 91.6437 49.3785 91.2602V80.8757C49.3785 79.3936 49.6924 78.1119 50.3202 77.0306C50.948 75.9492 51.846 75.1211 53.0144 74.5456C54.2002 73.9529 55.5953 73.6562 57.1996 73.6562C58.8039 73.6562 60.1902 73.9529 61.3586 74.5456C62.5444 75.1211 63.4512 75.9492 64.079 77.0306C64.7068 78.1119 65.0207 79.3936 65.0207 80.8757V91.2602C65.0207 91.6437 64.9073 91.9492 64.6806 92.1757C64.4714 92.385 64.1749 92.4896 63.7913 92.4896C63.4076 92.4896 63.1025 92.385 62.8758 92.1757C62.649 91.9492 62.5357 91.6437 62.5357 91.2602V80.7972C62.5357 79.1755 62.0649 77.9199 61.1232 77.0306C60.199 76.1412 58.8911 75.6965 57.1996 75.6965C55.5255 75.6965 54.2177 76.1501 53.276 77.0567C52.3343 77.9461 51.8635 79.1927 51.8635 80.7972V91.2602C51.8635 91.6437 51.7501 91.9492 51.5234 92.1757C51.2967 92.385 50.9915 92.4896 50.6079 92.4896ZM69.7413 92.4896C69.3579 92.4896 69.0523 92.385 68.8258 92.1757C68.6166 91.9492 68.5119 91.6437 68.5119 91.2602V81.3989C68.5119 78.9751 69.2009 77.0829 70.5784 75.7227C71.9558 74.3452 73.857 73.6562 76.2807 73.6562C77.8852 73.6562 79.2716 73.9701 80.4397 74.5979C81.6257 75.2084 82.5235 76.0978 83.134 77.266C83.7617 78.4342 84.0756 79.8122 84.0756 81.3989V91.2602C84.0756 91.6437 83.9621 91.9492 83.7356 92.1757C83.5091 92.385 83.2035 92.4896 82.8201 92.4896C82.4539 92.4896 82.1572 92.385 81.9307 92.1757C81.7042 91.9492 81.5907 91.6437 81.5907 91.2602V85.9241H70.9707V91.2602C70.9707 91.6437 70.8572 91.9492 70.6307 92.1757C70.4214 92.385 70.1248 92.4896 69.7413 92.4896ZM81.5907 83.9361V81.3204C81.5907 79.5066 81.1371 78.1203 80.2305 77.1613C79.3239 76.1846 78.0071 75.6965 76.2807 75.6965C74.5543 75.6965 73.2375 76.1763 72.3309 77.1352C71.4243 78.0769 70.9707 79.4721 70.9707 81.3204V83.9361H81.5907Z" fill="white"/>
</svg>
