<svg width="100" height="100" viewBox="0 0 100 100" fill="none" xmlns="http://www.w3.org/2000/svg">
<mask id="mask0_531_674" style="mask-type:luminance" maskUnits="userSpaceOnUse" x="4" y="13" width="92" height="75">
<path d="M95.9677 13H4V87.8466H95.9677V13Z" fill="white"/>
</mask>
<g mask="url(#mask0_531_674)">
<path d="M85.8934 70.8756C86.5827 69.1524 87.2527 67.4485 87.9444 65.7543C88.6361 64.06 89.3326 62.3416 90.0845 60.6618C90.1756 60.5085 90.2988 60.3767 90.4458 60.2757C90.5926 60.1745 90.7596 60.1065 90.9353 60.0762C91.097 60.0774 91.256 60.1186 91.3982 60.196C91.5402 60.2733 91.6612 60.3844 91.7499 60.5196C93.179 63.9515 94.5624 67.4051 95.9675 70.8829C93.9454 71.1696 93.9478 71.1697 93.0224 69.4802C92.9332 69.3187 92.7814 69.0801 92.6464 69.0777C91.4848 69.056 90.3207 69.0777 89.1615 69.1091C89.0361 69.1091 88.8915 69.3693 88.8072 69.5356C87.9516 71.1624 87.954 71.1648 85.8934 70.8756ZM89.7905 66.8605H92.0463L90.9088 64.0359L89.7905 66.8605Z" fill="white"/>
<path d="M68.5966 33.9794C68.4361 35.0254 68.2802 36.0697 68.1291 37.1125C67.9503 37.4566 67.7895 37.8097 67.6471 38.1705C66.9195 40.2882 65.7875 42.2444 64.314 43.9305C61.152 47.8155 57.0428 50.0135 52.0998 50.534C45.7084 51.2089 40.3147 49.088 35.9115 44.4125C35.6584 44.145 35.2487 44.0269 34.9113 43.8389L31.7035 37.139C31.477 35.3829 31.2497 33.6267 31.0215 31.8706C31.142 30.6969 31.101 29.4798 31.4167 28.3616C31.9783 26.3733 32.7543 24.4452 33.4388 22.4907C34.504 21.2013 35.4849 19.8396 36.6441 18.6346C42.6982 12.3902 52.5023 11.1321 59.7807 15.8678C62.345 17.5332 64.7815 19.5504 66.2107 22.4352C66.5071 23.0233 66.8156 23.6065 67.1 24.2018C68.4135 26.9445 68.7533 29.8679 68.6954 32.8635L68.587 34.0107L68.5966 33.9794Z" fill="white"/>
<path d="M68.7051 32.8678C68.7629 29.8721 68.4231 26.9487 67.1096 24.206C66.8253 23.6108 66.5168 23.0275 66.2203 22.4395H95.6567V31.8965H94.4204C86.2358 31.8965 78.0527 31.8965 69.8716 31.8965C69.1558 31.8917 68.5653 31.9062 68.7051 32.8678Z" fill="white"/>
<path d="M33.4387 22.4945C32.7543 24.4491 31.9782 26.3771 31.4167 28.3654C31.101 29.4837 31.142 30.7008 31.0215 31.8745L4.78326 31.8986C4.61637 31.8827 4.45109 31.8529 4.28918 31.8094V22.5114C4.61454 22.4873 4.8869 22.4512 5.15683 22.4512C14.4259 22.4512 23.6941 22.4512 32.9615 22.4512C33.1213 22.4573 33.2806 22.4717 33.4387 22.4945Z" fill="white"/>
<path d="M64.314 43.9352C65.7875 42.2492 66.9195 40.2929 67.6471 38.1752C67.7895 37.8144 67.9503 37.4613 68.1291 37.1172H84.5632V43.9352H64.314Z" fill="white"/>
<path d="M31.7035 37.1426L34.9113 43.8425H15.4309V37.1426H31.7035Z" fill="white"/>
<path d="M50.8175 87.4273V76.582H52.8805V85.345H56.3221V76.582H58.5321V85.345H61.8676V76.6085H63.9981V87.4273H50.8175Z" fill="white"/>
<path d="M6.13286 62.1809V70.939H4V60.0938H12.2785V70.939H10.2468V62.1857L6.13286 62.1809Z" fill="white"/>
<path d="M78.878 87.4278H76.7282V81.0773L76.4679 80.9809L73.5445 84.837C73.0625 85.4756 72.6335 86.1721 72.072 86.7361C71.6671 87.1458 71.0863 87.3772 70.3344 87.8447V76.5825H72.4624V83.3909C74.0964 81.2219 75.5569 79.33 76.9331 77.3923C77.4392 76.6693 77.9501 76.3006 78.878 76.6331V87.4278Z" fill="white"/>
<path d="M54.0353 64.4475V60.1094H56.1754V70.9402H54.0064V66.5731H49.8659V70.9522H47.7499V60.119H49.8177V64.4571L54.0353 64.4475Z" fill="white"/>
<path d="M62.5305 70.9213V60.1074H69.7028V62.0813H64.6972V64.4913H69.2979V66.4748H64.6996V68.9427H69.7294V70.9165L62.5305 70.9213Z" fill="white"/>
<path d="M34.7932 70.9623H32.3494C32.7856 69.8705 33.1808 68.8535 33.5954 67.8461C34.5714 65.4746 35.5427 63.1007 36.5573 60.7461C36.6371 60.586 36.7492 60.4443 36.8863 60.3299C37.0237 60.2154 37.1832 60.1306 37.355 60.0809C37.518 60.0742 37.6799 60.1089 37.8257 60.1819C37.9715 60.2549 38.0964 60.3636 38.1889 60.4978C39.635 63.9201 41.0304 67.3617 42.527 70.9936C42.006 70.9649 41.484 70.9649 40.9629 70.9936C40.2857 71.0756 39.888 70.8418 39.7747 70.1573C39.6229 69.2463 39.1072 68.8487 38.1793 69.015C38.0195 69.0403 37.8568 69.0403 37.6973 69.015C36.1573 68.8342 34.8679 69.0005 34.7932 70.9623ZM36.297 66.8821H38.5263C38.1528 65.9373 37.8033 65.0818 37.3936 64.0262L36.297 66.8821Z" fill="white"/>
<path d="M29.3658 84.4983L30.6503 85.6527C28.7584 88.0049 25.3338 88.2194 22.9671 86.2239C20.6004 84.2284 20.3884 80.4904 22.5333 78.1526C24.6782 75.8149 28.2041 75.8053 30.7275 78.2539L29.2115 79.2926C26.6521 78.1117 24.9963 78.249 23.8419 79.8541C23.3696 80.5586 23.1463 81.4004 23.2075 82.2464C23.2686 83.092 23.6107 83.8934 24.1794 84.5224C25.435 85.8287 27.3486 85.8335 29.3658 84.4983Z" fill="white"/>
<path d="M27.8573 70.9918C27.4216 70.9639 26.9844 70.9639 26.5486 70.9918C25.6955 71.1171 25.2713 70.7822 24.9869 69.9483C24.3314 68.0202 23.5578 66.15 22.748 64.0292C22.025 65.8922 21.3887 67.5165 20.7693 69.1481C20.0078 71.1533 20.015 71.1557 17.6893 70.8834C18.4461 69.0156 19.1835 67.1791 19.9306 65.3402C20.5645 63.7834 21.1863 62.2072 21.8732 60.684C21.9624 60.5279 22.0833 60.3919 22.2282 60.2854C22.3731 60.1786 22.5386 60.1034 22.7142 60.0646C22.8735 60.0615 23.0311 60.0981 23.1729 60.1709C23.3146 60.2437 23.4361 60.3505 23.5265 60.4816C24.9701 63.9207 26.3703 67.3623 27.8573 70.9918Z" fill="white"/>
<path d="M37.1211 87.349C37.7526 86.2355 38.3864 85.2161 38.907 84.1388C38.9928 83.9407 39.0371 83.7269 39.0371 83.5109C39.0371 83.295 38.9928 83.0812 38.907 82.8831C37.8032 80.8081 36.6222 78.7716 35.463 76.7134C37.3694 76.2 37.6851 76.3181 38.613 77.9015C39.2155 78.9355 39.8059 79.9742 40.5169 81.213C41.1676 80.126 41.8593 79.2464 42.2545 78.251C42.886 76.6628 43.9006 76.1085 45.6286 76.6724C44.6863 78.3595 43.7271 80.0826 42.7582 81.801C41.975 83.1916 41.0712 84.5316 40.4133 85.98C39.7264 87.4719 38.6901 87.7828 37.1211 87.349Z" fill="white"/>
<path d="M79.7915 70.9452H77.5839V62.1388H74.6219V60.0879H82.5896V62.0834H79.7915V70.9452Z" fill="white"/>
<path d="M68.5967 33.9785V34.015L68.6769 34.0295L68.5967 33.9785Z" fill="white"/>
</g>
</svg>
