<svg width="100" height="100" viewBox="0 0 100 100" fill="none" xmlns="http://www.w3.org/2000/svg">
<path d="M57.6562 48.1656C57.3843 48.2092 57.1135 48.254 56.751 48.3122C57.0296 48.8682 57.2803 49.3705 57.5913 49.9936C58.1765 48.6131 59.2261 48.5482 60.3552 48.7708C60.6539 48.8301 60.9627 49.0136 61.1899 49.2228C62.0101 49.9768 63.0351 50.2352 64.0701 50.2889C65.5505 50.3661 67.0387 50.2732 68.5247 50.2621C68.6746 50.2621 68.8794 50.2777 68.9667 50.3717C69.3225 50.7509 69.6447 51.1637 69.9748 51.5676C70.0196 51.6224 70.0599 51.6962 70.0644 51.7634C70.0912 52.2008 69.0674 53.3653 68.6209 53.4022C66.8518 53.5477 65.132 53.2579 63.4245 52.834C62.2686 52.5476 61.1037 52.2925 59.9512 51.9938C59.2474 51.8115 58.576 51.8741 57.9393 52.1862C56.2005 53.0364 54.4236 53.8229 52.7507 54.7894C48.5255 57.2316 44.3854 59.8191 40.1479 62.2377C31.909 66.9396 23.519 71.3462 14.6401 74.7448C12.6036 75.5245 10.5212 76.1477 8.34372 76.4408C6.00958 76.7551 4.18567 75.1106 3.94398 73.4583C3.69557 71.7624 4.23603 70.3382 5.52171 69.2072C5.69627 69.054 5.93685 68.96 6.16064 68.8783C13.5905 66.1554 21.0562 63.5265 28.4425 60.6895C34.9089 58.2059 41.2982 55.5144 47.3338 52.0721C48.1406 51.6123 48.9026 51.0698 49.6613 50.5294C50.0328 50.2654 50.3461 49.9197 50.8172 49.4913C46.6356 49.0494 42.6297 48.6276 38.5064 48.1925V53.4671C25.9405 51.7701 13.4954 50.0887 1 48.4005C1.14546 45.248 1.28869 42.1504 1.43639 38.9531C20.2092 42.0038 38.9271 45.0456 57.645 48.0884C57.6495 48.1142 57.654 48.1399 57.6585 48.1667L57.6562 48.1656ZM53.7544 52.344C54.484 52.3395 55.0692 51.7611 55.077 51.0384C55.0849 50.2744 54.4616 49.6468 53.7007 49.6568C52.9488 49.6658 52.3691 50.2677 52.3859 51.0217C52.4027 51.7723 52.998 52.3484 53.7544 52.3428V52.344ZM10.0893 72.334C10.0904 71.5867 9.49849 70.9815 8.7555 70.9714C8.0058 70.9614 7.39485 71.552 7.38813 72.2949C7.38142 73.0421 8.03153 73.6798 8.78571 73.6653C9.50744 73.6507 10.0882 73.0589 10.0893 72.3351V72.334Z" fill="white"/>
<path d="M60.2669 34.7305C60.4168 34.8111 60.522 34.8804 60.635 34.9274C63.4593 36.0953 64.5413 38.4603 64.3097 41.4092C64.1419 43.547 63.0397 45.1031 61.2035 46.1524C60.9696 46.2856 60.6362 46.3505 60.371 46.3068C56.7881 45.7217 53.2096 45.1076 49.629 44.5124C49.281 44.4543 49.1814 44.3032 49.1825 43.9587C49.1926 37.7946 49.1903 31.6306 49.1903 25.4666C49.1903 25.2227 49.1579 24.971 49.5339 24.9665C52.084 24.9352 54.6341 24.8435 57.1831 24.8826C58.3781 24.9005 59.5049 25.3402 60.5623 25.942C63.3575 27.5317 64.2135 32.3634 60.6742 34.4587C60.5478 34.5336 60.4303 34.622 60.2669 34.7316V34.7305ZM53.1839 44.0381C54.5166 44.0381 55.7676 44.1377 56.9962 44.0124C58.5236 43.8569 59.7522 43.1499 60.07 41.4852C60.1863 40.8744 60.2098 40.2233 60.1449 39.6036C59.9838 38.0766 59.2699 37.1782 57.7493 36.9243C56.3685 36.6938 54.9429 36.7386 53.5364 36.6625C53.1694 36.6424 53.1828 36.8952 53.1839 37.148C53.1861 38.6169 53.1839 40.0869 53.1839 41.5557C53.1839 42.3701 53.1839 43.1857 53.1839 44.0381ZM53.1839 28.1861C53.1839 29.6293 53.1839 30.984 53.1839 32.3376C53.1839 33.5592 53.1839 33.5626 54.4058 33.5939C55.4297 33.6197 56.4546 33.6353 57.4259 33.227C58.5583 32.7504 59.0931 31.7962 59.0036 30.4325C58.9309 29.3317 58.3166 28.6101 57.1316 28.2958C55.8504 27.9557 54.5546 28.1022 53.185 28.1861H53.1839Z" fill="white"/>
<path d="M81.1265 31.0036C82.4245 31.0036 83.6318 30.9868 84.838 31.0248C84.9913 31.0293 85.1972 31.3023 85.2733 31.4925C86.6228 34.862 87.9555 38.2382 89.2926 41.6122C89.3665 41.8002 89.4482 41.9847 89.5735 42.2857C89.6943 41.9847 89.7782 41.7901 89.851 41.591C91.055 38.2461 92.2646 34.9034 93.4495 31.5529C93.5984 31.1334 93.7875 30.9756 94.2429 30.9913C95.3372 31.0282 96.4338 31.0036 97.6121 31.0036C97.527 31.2575 97.4711 31.4466 97.4006 31.6301C95.1548 37.5066 92.8576 43.3641 90.6868 49.2686C89.9271 51.3326 88.5429 52.5632 86.5612 53.2579C86.0376 53.4413 85.4904 53.5823 84.9421 53.6718C83.0891 53.975 82.8899 53.8855 81.8101 52.3484C81.7341 52.241 81.7866 52.0374 81.7967 51.8785C81.8001 51.8349 81.8706 51.798 81.903 51.7532C82.5364 50.8426 83.3028 50.2519 84.5191 50.3347C85.0674 50.3716 85.6605 50.1613 86.1931 49.9577C87.2013 49.5729 87.6757 48.8435 87.4307 47.8031C87.0816 46.3253 86.6653 44.8486 86.1159 43.4357C84.5762 39.4811 82.9537 35.5601 81.3637 31.6245C81.2954 31.4544 81.235 31.2821 81.1298 31.0025L81.1265 31.0036Z" fill="white"/>
<path d="M81.3021 39.175C81.1566 40.1472 81.094 41.1406 80.8512 42.0881C79.8911 45.8235 76.8923 47.8886 72.9301 47.7197C68.0917 47.5138 65.7587 44.0929 65.5002 40.0711C65.4151 38.7443 65.4979 37.4299 65.8896 36.1478C66.9806 32.5814 70.0644 30.4693 73.8387 30.7031C78.1489 30.9694 80.8288 33.6196 81.151 37.9355C81.1813 38.3439 81.2059 38.7522 81.2327 39.1605C81.2562 39.165 81.2786 39.1695 81.3021 39.1739V39.175ZM69.3225 39.2959C69.5374 40.3273 69.6627 41.3878 69.9917 42.3824C70.4035 43.6252 71.3456 44.3591 72.6727 44.5291C74.7506 44.7965 76.2612 43.8322 76.8699 41.7895C77.3925 40.0364 77.379 38.2555 76.8833 36.4991C76.4033 34.7987 75.3493 33.9686 73.6361 33.84C72.064 33.7225 70.7682 34.5045 70.0577 36.0024C69.5665 37.0372 69.4602 38.1436 69.3225 39.297V39.2959Z" fill="white"/>
<path d="M46.2317 24V44.0012C45.0322 43.8323 43.8718 43.6824 42.7204 43.4855C42.6063 43.4665 42.4653 43.1633 42.463 42.991C42.4429 41.3342 42.4507 39.6775 42.4507 38.0207C42.4507 37.1458 42.4328 36.2699 42.4597 35.3962C42.4709 35.0293 42.3277 34.8234 42.0345 34.6299C39.7809 33.1398 36.5896 34.1242 35.5747 36.6346C34.9067 38.2858 34.9537 40.2804 35.7415 42.4955C35.1294 42.416 34.5554 42.3467 33.9836 42.2672C33.2462 42.1643 32.5066 42.0715 31.7759 41.935C31.5991 41.9014 31.3283 41.7303 31.3093 41.5916C30.9243 38.9056 31.0933 36.3068 32.7124 33.9933C34.8015 31.0064 38.5288 29.8978 41.9271 31.2279C42.0781 31.2872 42.2325 31.3376 42.453 31.417C42.453 30.3386 42.453 29.3194 42.453 28.3003C42.453 27.3136 42.4384 26.3269 42.4664 25.3413C42.4709 25.1724 42.6219 24.8961 42.7562 24.8592C43.8852 24.5538 45.0255 24.292 46.2351 24.0011L46.2317 24Z" fill="white"/>
<path d="M20.9806 40.4083C19.6423 40.2181 18.3253 40.0313 17.0911 39.8557C17.1974 38.4047 17.3574 37.0231 17.3843 35.6404C17.4123 34.1838 17.2075 32.7452 16.6502 31.377C15.7696 29.2157 14.1147 28.1999 11.8309 28.1272C9.65228 28.0578 8.08014 29.0166 7.09994 30.9564C6.48563 32.1735 6.1891 33.4779 6.1298 34.826C6.08057 35.9391 6.11973 37.0555 6.11973 38.2895C4.77922 38.1015 3.39954 37.9069 2.01427 37.7122C1.72782 34.0183 2.32198 30.6331 4.70648 27.7345C6.32226 25.7679 8.41471 24.7387 10.9536 24.6122C12.8201 24.5194 14.6417 24.7275 16.3425 25.552C18.8277 26.7557 20.2455 28.8353 20.956 31.4195C21.7303 34.2331 21.7337 37.0813 21.116 39.9306C21.0847 40.0738 21.0366 40.2125 20.9795 40.4094L20.9806 40.4083Z" fill="white"/>
<path d="M28.1808 41.4304C26.9701 41.2593 25.7952 41.0993 24.6237 40.9192C24.5353 40.9058 24.4413 40.7615 24.3999 40.6585C24.3607 40.5623 24.3864 40.4382 24.3864 40.3274C24.3864 35.3962 24.3943 30.4638 24.3764 25.5326C24.3741 25.0516 24.514 24.8457 24.9896 24.7495C26.0403 24.5381 27.0798 24.2674 28.1819 24.0078V41.4304H28.1808Z" fill="white"/>
<path d="M74.2631 25.6238C74.9624 25.6238 75.636 25.5601 76.2918 25.6395C77.2429 25.7536 77.5092 26.6586 76.9049 27.6263C77.3357 28.0413 77.4555 28.5403 77.1869 29.0896C76.9195 29.6366 76.407 29.7328 75.8621 29.735C75.344 29.7373 74.8248 29.735 74.262 29.735V25.6238H74.2631ZM75.2556 28.896C75.6439 28.792 75.9471 28.7249 76.2336 28.6141C76.2694 28.6007 76.2481 28.2494 76.2 28.236C75.9057 28.1498 75.5969 28.1152 75.2556 28.0581V28.896ZM75.2612 27.2437C75.6137 27.1531 75.9012 27.0927 76.1743 26.9931C76.2078 26.9808 76.1966 26.6698 76.1575 26.6575C75.88 26.5736 75.589 26.5311 75.2623 26.4684V27.2437H75.2612Z" fill="white"/>
<path d="M81.4983 25.6292C82.2133 25.6292 82.8612 25.5856 83.5012 25.6427C83.998 25.6874 84.3416 26.0241 84.487 26.5119C84.6291 26.9907 84.553 27.4315 84.1782 27.7928C84.0999 27.8689 84.0193 27.9438 83.9097 28.0467C84.1816 28.5748 84.449 29.0961 84.722 29.6263C83.7787 29.8892 83.6534 29.8199 83.2338 28.9842C83.0939 28.7057 82.8757 28.4651 82.6945 28.2078C82.634 28.511 82.5647 28.8119 82.5177 29.1173C82.4897 29.2952 82.4975 29.4798 82.4852 29.7315C82.2301 29.7315 82.0085 29.7584 81.7993 29.7203C81.6885 29.7002 81.5128 29.5682 81.5117 29.4843C81.4938 28.209 81.4994 26.9336 81.4994 25.6292H81.4983ZM82.4718 27.239C82.5233 27.2916 82.5747 27.3442 82.6262 27.3968C82.9093 27.2972 83.2036 27.2167 83.4677 27.0791C83.5113 27.0567 83.471 26.6842 83.3972 26.654C83.1734 26.5633 82.8466 26.4548 82.6866 26.5555C82.5322 26.6528 82.5367 27.0008 82.4718 27.239Z" fill="white"/>
<path d="M72.8865 28.0624C73.145 28.5826 73.4046 29.1072 73.6698 29.6431C72.6649 29.8646 72.6135 29.8344 72.2062 29.0066C72.0596 28.709 71.8749 28.4304 71.7082 28.1429C71.6333 28.1731 71.5583 28.2045 71.4833 28.2347C71.4833 28.5982 71.4665 28.9641 71.4878 29.3265C71.5102 29.708 71.2953 29.7438 70.9988 29.7382C70.7012 29.7326 70.4483 29.7471 70.4561 29.3187C70.474 28.2224 70.4662 27.126 70.4583 26.0297C70.4561 25.7377 70.5367 25.5733 70.8679 25.5867C71.2953 25.6035 71.7228 25.5845 72.1502 25.5956C72.7399 25.6124 73.1987 25.8585 73.418 26.4268C73.644 27.0164 73.4997 27.5198 72.9973 27.9136C72.9559 27.946 72.9335 28.0009 72.8898 28.0624H72.8865ZM71.4609 27.2424C71.5057 27.2938 71.5505 27.3453 71.5952 27.3979C71.8772 27.2938 72.1681 27.2066 72.4311 27.0667C72.4714 27.0455 72.421 26.6741 72.346 26.6461C72.1178 26.5611 71.7989 26.4671 71.6254 26.5667C71.4867 26.6472 71.5102 27.0063 71.4609 27.2413V27.2424Z" fill="white"/>
<path d="M65.5977 27.6266C66.0285 28.0372 66.1527 28.5372 65.8864 29.0876C65.6089 29.6626 65.0695 29.732 64.5089 29.7376C63.6764 29.7443 63.729 29.7286 63.4571 28.9467C63.1337 28.0148 62.7689 27.1053 62.9189 26.0895C62.9345 25.9799 62.9289 25.8669 62.9413 25.7561C62.9446 25.7226 62.9748 25.6924 63.0084 25.6331C63.6753 25.6331 64.3679 25.5604 65.0393 25.651C65.9501 25.7751 66.1907 26.6858 65.5965 27.6266H65.5977ZM63.955 28.903C64.3433 28.7945 64.6477 28.724 64.9341 28.6099C64.9677 28.5965 64.9408 28.2441 64.8894 28.2296C64.5951 28.1446 64.284 28.1143 63.955 28.0618V28.9019V28.903ZM63.9584 27.244C64.3086 27.1545 64.5973 27.093 64.8715 26.9934C64.9061 26.9811 64.895 26.6712 64.8569 26.6589C64.5783 26.5739 64.2874 26.5314 63.9595 26.4665V27.2429L63.9584 27.244Z" fill="white"/>
<path d="M90.7798 28.1185C90.5605 28.105 90.415 28.1073 90.2729 28.0871C89.8388 28.0245 89.6463 28.1901 89.7079 28.6387C89.7302 28.8031 89.7011 28.9732 89.7134 29.1398C89.7414 29.5191 89.6955 29.7562 89.192 29.754C88.6739 29.7518 88.6806 29.4833 88.684 29.1208C88.693 28.0995 88.7041 27.077 88.6795 26.0556C88.6695 25.6204 88.8921 25.5902 89.2323 25.5824C89.5948 25.5745 89.7537 25.6987 89.7112 26.0645C89.7011 26.1563 89.7101 26.2502 89.7101 26.3431C89.7108 26.9629 90.067 27.2224 90.7787 27.1217C90.7787 26.7727 90.7988 26.408 90.7731 26.0455C90.7451 25.6551 90.9353 25.5745 91.2744 25.5857C91.5776 25.5958 91.8137 25.5936 91.8059 26.0153C91.7858 27.1295 91.7891 28.2449 91.8037 29.3591C91.8093 29.7652 91.5586 29.7406 91.2878 29.7383C91.0182 29.7361 90.7541 29.7641 90.7742 29.3558C90.7944 28.9541 90.7787 28.5503 90.7787 28.1207L90.7798 28.1185Z" fill="white"/>
<path d="M95.655 27.6487C95.6349 27.9105 95.6304 28.1723 95.5924 28.4284C95.4682 29.282 94.8818 29.7742 94.0213 29.7608C93.1989 29.7474 92.6059 29.2417 92.5231 28.4139C92.4738 27.9183 92.4783 27.4115 92.5231 26.9148C92.598 26.0937 93.1922 25.5724 94.0079 25.5478C94.8427 25.5221 95.4659 26.0378 95.5935 26.8746C95.6326 27.1308 95.6349 27.3914 95.6539 27.6487H95.655ZM94.6312 27.6588C94.6054 27.4048 94.6368 27.1218 94.5372 26.8992C94.4566 26.7202 94.225 26.5211 94.0437 26.5032C93.8971 26.4886 93.6017 26.718 93.5861 26.8623C93.529 27.3892 93.5279 27.9295 93.5827 28.4564C93.5984 28.6018 93.8927 28.8334 94.0404 28.82C94.2239 28.8032 94.46 28.6063 94.5417 28.4273C94.6424 28.2047 94.6077 27.9217 94.6323 27.6599L94.6312 27.6588Z" fill="white"/>
<path d="M80.7886 25.5904V26.4809H79.0508C79.0352 26.7371 79.0251 26.9149 79.0105 27.1666H80.5088V28.0594H79.0631V28.8134H80.7662V29.7016H77.999C77.999 29.1702 77.999 28.6579 77.999 28.1466C77.999 27.4586 78.0124 26.7706 77.9945 26.0826C77.9856 25.7403 78.0684 25.5714 78.4544 25.5826C79.212 25.606 79.9717 25.5893 80.7897 25.5893L80.7886 25.5904Z" fill="white"/>
<path d="M70.0083 29.6969C69.5182 29.7103 68.9889 29.9643 68.8368 29.2326C68.3914 29.2416 67.8028 29.076 67.5332 29.2975C67.0419 29.7014 67.1214 29.7976 66.3527 29.6712C66.3851 29.5313 66.4019 29.3904 66.4489 29.2584C66.8372 28.1755 67.2366 27.0959 67.6204 26.0108C67.7167 25.7389 67.833 25.5801 68.1643 25.5801C68.4865 25.5801 68.6219 25.7121 68.7204 25.994C69.1087 27.097 69.516 28.1922 69.9121 29.293C69.9546 29.4105 69.9714 29.5358 70.0083 29.6969ZM68.2549 27.3812C68.2113 27.3812 68.1676 27.3812 68.1251 27.3812C68.0389 27.6474 67.9528 27.9137 67.8554 28.2135H68.529C68.4239 27.8947 68.3388 27.6385 68.2549 27.3812Z" fill="white"/>
<path d="M84.9453 29.2097C85.2038 28.8327 85.4623 28.4837 86.0027 28.7902C86.08 28.8338 86.1952 28.8674 86.2713 28.8417C86.5287 28.7555 86.9561 28.6817 86.993 28.5273C87.0926 28.1022 86.6741 28.1302 86.3921 28.0888C85.4466 27.949 85.0349 27.5574 85.0707 26.8202C85.1065 26.0841 85.6402 25.5684 86.5074 25.5684C86.9807 25.5684 87.454 25.7485 88.0135 25.8659C87.6801 26.413 87.4574 26.7698 86.8934 26.4767C86.7648 26.4096 86.551 26.4309 86.4078 26.4879C86.2747 26.5405 86.1829 26.6971 86.0732 26.8079C86.184 26.913 86.278 27.0685 86.4089 27.1133C86.6517 27.1972 86.9192 27.2073 87.1721 27.2643C87.6331 27.3683 87.9285 27.6469 88.0146 28.1224C88.1042 28.6123 88.0135 29.052 87.6185 29.3876C86.9527 29.9548 85.5977 29.8698 84.9442 29.2108L84.9453 29.2097Z" fill="white"/>
<path d="M97.3311 28.2737C97.3311 28.6406 97.3087 28.9718 97.3367 29.2984C97.3714 29.7123 97.1398 29.7392 96.8209 29.7414C96.4941 29.7437 96.2983 29.6967 96.3061 29.2928C96.3285 28.2133 96.3218 27.1337 96.3095 26.0542C96.3061 25.732 96.3901 25.5664 96.747 25.5855C97.1744 25.6078 97.6041 25.5787 98.0316 25.6022C98.8283 25.647 99.3486 26.1672 99.3598 26.9022C99.371 27.6427 98.8641 28.1685 98.0685 28.2357C97.8492 28.2547 97.6276 28.2592 97.3311 28.2737ZM97.3781 26.4368V27.4335C97.7362 27.3015 98.0204 27.2199 98.2755 27.0845C98.3225 27.0599 98.3012 26.7288 98.2363 26.6986C97.989 26.5822 97.7104 26.5319 97.377 26.4368H97.3781Z" fill="white"/>
</svg>
