<svg width="100" height="100" viewBox="0 0 100 100" fill="none" xmlns="http://www.w3.org/2000/svg">
<path d="M22.2298 57.1069C17.8143 57.0512 14.7751 53.6393 14.8197 49.4729C14.8643 45.2817 18.1903 42.1016 22.3662 42.153C26.4826 42.2043 29.7456 45.6356 29.6739 49.7126C29.5996 53.8773 26.2797 57.1167 22.2298 57.106V57.1069ZM24.5232 49.6941C24.5345 48.4273 23.5422 47.4304 22.2508 47.4101C21.0302 47.3915 20.0072 48.3796 19.9914 49.5923C19.9748 50.8741 20.9733 51.917 22.2455 51.9471C23.4591 51.9763 24.5127 50.9343 24.5232 49.6932V49.6941Z" fill="white"/>
<path d="M79.9103 49.5474C79.8972 45.4163 83.2013 42.1611 87.4288 42.1407C91.4123 42.1212 94.7488 45.5455 94.7794 49.6482C94.8056 53.1759 91.8058 57.2097 87.177 57.1292C83.2136 57.0602 79.9156 53.8164 79.9103 49.5474ZM89.605 49.6429C89.605 48.3947 88.6275 47.4199 87.3659 47.4129C86.0683 47.4058 85.0777 48.3912 85.0934 49.6747C85.1083 50.9264 86.1287 51.9552 87.3519 51.9517C88.5978 51.949 89.6042 50.9176 89.605 49.642V49.6429Z" fill="white"/>
<path d="M38.3037 47.4632C38.3623 47.1792 38.4576 46.8962 38.4707 46.6096C38.5005 45.9806 38.4838 45.3499 38.4961 44.7201C38.5206 43.4357 39.4072 42.4803 40.64 42.4016C41.9034 42.3211 42.9509 43.1747 43.0838 44.4724C43.1677 45.2942 43.1625 46.1275 43.1633 46.9554C43.166 49.4871 43.1502 52.0179 43.1441 54.5496C43.1424 55.2909 42.9893 55.9712 42.4446 56.5187C41.5817 57.3856 40.2605 57.4422 39.3529 56.5568C38.7593 55.9774 38.2548 55.3033 37.7328 54.6531C37.1409 53.9163 36.5813 53.1529 35.9937 52.4125C35.8346 52.2117 35.6221 52.0533 35.3554 51.8021C35.275 52.1383 35.1841 52.3744 35.1675 52.615C35.1133 53.4085 35.0748 54.2038 35.0494 54.999C35.0171 56.0012 34.5021 56.6656 33.6199 57.0238C32.7315 57.3847 31.9027 57.199 31.1805 56.5665C30.6847 56.1322 30.4224 55.5864 30.4206 54.9106C30.4128 51.5615 30.3813 48.2116 30.3935 44.8625C30.3997 43.2933 31.4943 42.2733 32.9632 42.3945C33.57 42.444 34.0702 42.7386 34.4592 43.1959C35.171 44.0337 35.8599 44.8899 36.5568 45.7409C36.8698 46.1239 37.1653 46.5229 37.4941 46.8918C37.6952 47.1164 37.9444 47.2969 38.1717 47.4968C38.2154 47.4862 38.2591 47.4747 38.3029 47.4641L38.3037 47.4632Z" fill="white"/>
<path d="M1.00151 49.5654C1.00151 47.9961 0.997141 46.426 1.00326 44.8567C1.00763 43.6493 1.59344 42.7673 2.63129 42.5135C3.11131 42.3958 3.62629 42.4108 4.12642 42.3949C5.01825 42.3666 5.91096 42.3295 6.80191 42.3534C8.67213 42.4047 10.4103 42.8832 11.8355 44.1818C13.8544 46.0226 14.6701 48.3314 14.1385 51.0197C13.6297 53.5947 12.1232 55.4276 9.6855 56.4148C8.76132 56.789 7.7838 56.8942 6.79492 56.8933C5.65914 56.8933 4.52337 56.9119 3.38935 56.8854C1.88285 56.85 1.01113 55.9866 1.00938 54.3059C1.00938 53.5098 1.00326 52.7145 1.00151 51.9184C0.999764 51.1338 1.00151 50.3491 1.00151 49.5645V49.5654ZM9.00439 49.5203C8.97641 49.5194 8.94843 49.5185 8.92045 49.5176C8.92045 49.0983 8.9458 48.6773 8.9152 48.2606C8.847 47.3495 8.21485 46.7524 7.28018 46.6816C6.4548 46.6188 5.63029 47.1576 5.54198 48.005C5.43794 48.9957 5.44318 50.0121 5.53848 51.0037C5.6128 51.7813 6.35337 52.3235 7.10269 52.3563C7.89222 52.3908 8.59956 51.9591 8.80853 51.1895C8.95367 50.6552 8.94493 50.0785 9.00526 49.5203H9.00439Z" fill="white"/>
<path d="M43.7473 48.1966C43.7473 46.9812 43.7123 45.764 43.7569 44.5503C43.8032 43.3031 44.8306 42.3663 46.0678 42.3583C47.2744 42.3504 48.3402 43.3199 48.3953 44.5495C48.446 45.664 48.4189 46.7813 48.4285 47.8976C48.4381 48.9804 48.4346 50.064 48.4714 51.1458C48.4915 51.7244 48.6489 52.2631 49.2242 52.5576C49.9341 52.9212 50.8854 52.4798 51.0166 51.6872C51.0918 51.2325 51.0935 50.7628 51.0961 50.3002C51.1049 48.5319 51.0996 46.7627 51.0996 44.9944C51.0996 44.3265 51.2317 43.702 51.6697 43.173C52.7154 41.9107 54.8978 42.1372 55.5684 43.5959C55.7022 43.886 55.7765 44.2328 55.7756 44.5539C55.7678 47.0387 55.7809 49.5262 55.6961 52.0092C55.6121 54.4878 53.8101 56.4604 51.515 57.1195C49.3125 57.7519 47.3155 57.3096 45.6315 55.7059C44.3619 54.4967 43.728 52.9858 43.7237 51.2139C43.7219 50.2082 43.7237 49.2024 43.7237 48.1975C43.7315 48.1975 43.7385 48.1975 43.7464 48.1975L43.7473 48.1966Z" fill="white"/>
<path d="M62.3087 42.341C63.5319 42.341 64.7551 42.333 65.9783 42.3427C67.2199 42.3533 68.0724 43.0389 68.284 44.1738C68.5139 45.4069 67.5583 46.6162 66.3167 46.6577C66.0002 46.6684 65.6837 46.6604 65.3663 46.6675C64.7849 46.6799 64.6563 46.8126 64.6528 47.3964C64.638 49.7388 64.6371 52.0812 64.603 54.4227C64.5925 55.156 64.3748 55.8522 63.8231 56.3652C63.0825 57.0552 62.202 57.1587 61.2962 56.7828C60.4175 56.4174 60.0179 55.685 60.0066 54.7385C59.9795 52.3518 59.9593 49.9661 59.9392 47.5795C59.9331 46.8152 59.7915 46.6852 59.043 46.6595C58.5455 46.6418 58.0297 46.6348 57.5584 46.495C56.6342 46.2225 56.1149 45.2893 56.218 44.2526C56.3133 43.2972 57.0504 42.4621 57.9886 42.4108C59.3386 42.3374 60.6938 42.3595 62.0473 42.341C62.1347 42.3401 62.2222 42.341 62.3096 42.341H62.3087Z" fill="white"/>
<path d="M74.6983 42.346C75.9765 42.346 77.2548 42.3345 78.5331 42.3495C79.418 42.3602 80.1306 42.7105 80.517 43.5579C80.8939 44.3841 80.7828 45.1749 80.253 45.8985C79.8123 46.5009 79.1522 46.6035 78.4746 46.6478C78.1475 46.669 77.8205 46.6805 77.4935 46.7017C77.2102 46.7203 77.0572 46.8884 77.0266 47.1644C77.0057 47.3501 76.9995 47.5394 76.9995 47.727C76.9978 49.9933 77.0022 52.2596 76.9969 54.5259C76.9934 55.7431 76.2607 56.7055 75.1879 56.9293C73.7374 57.2327 72.4573 56.2615 72.4101 54.7541C72.3585 53.1088 72.3777 51.4608 72.3664 49.8137C72.3603 48.9627 72.3629 48.1117 72.3436 47.2608C72.334 46.8317 72.2177 46.7123 71.7928 46.6787C71.4343 46.6504 71.0724 46.6663 70.7121 46.6548C69.6017 46.6186 68.7728 45.9047 68.6609 44.8945C68.5271 43.6826 69.1129 42.7343 70.2164 42.4389C70.5276 42.3557 70.8651 42.3513 71.1904 42.3487C72.3594 42.3389 73.5284 42.3451 74.6983 42.3451V42.346Z" fill="white"/>
<path d="M95.4227 47.1023C95.3292 46.76 95.2172 46.5123 95.198 46.2566C95.0913 44.8174 95.3938 43.5073 96.52 42.5228C96.7806 42.2946 97.1347 42.1486 97.4695 42.0425C97.9216 41.8991 98.2757 42.1274 98.3789 42.5953C98.5529 43.3808 98.4444 44.1389 97.8831 44.7263C97.1198 45.5251 96.2953 46.2646 95.4218 47.1014L95.4227 47.1023Z" fill="white"/>
<path d="M99.3592 44.4777C99.3504 45.9266 98.8818 46.9536 97.9707 47.7798C97.4933 48.2133 96.9468 48.3053 96.3575 48.0877C95.7717 47.8718 95.6685 47.4048 96.1188 46.966C96.5272 46.5688 96.9521 46.184 97.4015 45.8373C98.1639 45.249 98.5451 44.4414 98.7926 43.5427C98.8214 43.4365 98.8372 43.3233 98.8853 43.226C98.9124 43.172 98.9902 43.1251 99.0514 43.1154C99.0811 43.111 99.1502 43.195 99.1589 43.2463C99.242 43.7231 99.3154 44.2017 99.36 44.4777H99.3592Z" fill="white"/>
</svg>
