<svg width="100" height="100" viewBox="0 0 100 100" fill="none" xmlns="http://www.w3.org/2000/svg">
<path d="M87.4377 52.4241H91.0581C91.0581 52.8957 91.287 53.2633 91.7447 53.5269C92.2025 53.7904 92.7434 53.9222 93.3676 53.9222C93.9502 53.9222 94.4635 53.7974 94.9073 53.5477C95.3651 53.298 95.5939 52.9651 95.5939 52.549C95.5939 52.327 95.5523 52.1328 95.4691 51.9664C95.3997 51.7861 95.2818 51.6473 95.1154 51.5502C94.9489 51.4393 94.7963 51.356 94.6576 51.3006C94.5328 51.2312 94.3317 51.1827 94.0543 51.1549C93.7907 51.1133 93.6034 51.0856 93.4925 51.0717C93.3815 51.0578 93.1873 51.0439 92.9099 51.0301C92.2025 50.9885 91.5436 50.8844 90.9332 50.718C90.3368 50.5515 89.775 50.3088 89.2479 49.9897C88.7347 49.6707 88.3255 49.2407 88.0203 48.6997C87.729 48.1449 87.5834 47.4999 87.5834 46.7647C87.5834 45.2528 88.1313 44.0807 89.2271 43.2484C90.3229 42.4161 91.6615 42 93.2428 42C94.2138 42 95.1154 42.1734 95.9477 42.5202C96.7938 42.8531 97.4873 43.394 98.0283 44.1431C98.5832 44.8783 98.8537 45.7521 98.8398 46.7647H95.2818C95.268 46.2931 95.0738 45.9394 94.6993 45.7036C94.3247 45.4678 93.8601 45.3499 93.3052 45.3499C91.9875 45.3499 91.3286 45.7937 91.3286 46.6815C91.3286 47.1392 91.502 47.4583 91.8487 47.6386C92.2094 47.8189 92.7781 47.9507 93.5549 48.0339C94.2484 48.0894 94.8518 48.1657 95.3651 48.2628C95.8783 48.3599 96.3985 48.5194 96.9256 48.7413C97.4527 48.9494 97.8827 49.213 98.2156 49.532C98.5485 49.8372 98.819 50.2533 99.027 50.7804C99.249 51.2936 99.3599 51.8901 99.3599 52.5698C99.3599 54.0124 98.7704 55.1498 97.5914 55.9821C96.4123 56.8143 95.0183 57.2305 93.4092 57.2305C91.7447 57.2305 90.3229 56.8143 89.1439 55.9821C87.9787 55.1498 87.41 53.9638 87.4377 52.4241Z" fill="white"/>
<path d="M85.3515 42.332V45.6403H80.0666V47.7209H84.9354V51.05H80.0666V53.422H85.5388V56.8967H76.259V42.332H85.3515Z" fill="white"/>
<path d="M59.5594 49.6369C59.5594 48.0417 59.934 46.6615 60.683 45.4964C61.432 44.3312 62.3614 43.485 63.4711 42.9579C64.5808 42.417 65.7737 42.1465 67.0498 42.1465C68.0624 42.1465 69.0126 42.3129 69.9003 42.6458C70.7881 42.9788 71.5857 43.5336 72.2931 44.3104C73.0005 45.0872 73.4791 46.0373 73.7288 47.1609H70.0252C69.7062 46.5922 69.3108 46.183 68.8392 45.9333C68.3676 45.6836 67.7711 45.5588 67.0498 45.5588C65.9124 45.5588 65.0177 45.9472 64.3658 46.7239C63.7277 47.5007 63.4087 48.4648 63.4087 49.6161C63.4087 50.8367 63.7346 51.8077 64.3866 52.529C65.0524 53.2503 65.9402 53.6109 67.0498 53.6109C67.8405 53.6109 68.4786 53.4861 68.964 53.2364C69.4495 52.9729 69.8587 52.5082 70.1916 51.8424H67.0914V48.6382H73.9576C74.0825 50.3166 73.9507 51.7245 73.5623 52.8619C73.063 54.3045 72.2168 55.3726 71.0239 56.0661C69.8449 56.7458 68.5202 57.0856 67.0498 57.0856C66.1066 57.0856 65.1911 56.9261 64.3034 56.6071C63.4295 56.2881 62.6319 55.8303 61.9106 55.2339C61.2032 54.6374 60.6345 53.8537 60.2045 52.8827C59.7745 51.9117 59.5594 50.8298 59.5594 49.6369Z" fill="white"/>
<path d="M55.4724 51.7171L58.323 56.3362V56.8771H54.2865L51.7897 52.3205H49.7922V56.8771H45.9846V42.3125H52.3931C54.0437 42.3125 55.3268 42.8257 56.2423 43.8522C57.1717 44.8787 57.6363 46.0854 57.6363 47.4725C57.6086 49.3313 56.8873 50.7461 55.4724 51.7171ZM49.7298 49.2203H52.3723C52.8716 49.2203 53.26 49.04 53.5374 48.6793C53.8149 48.3187 53.9536 47.8887 53.9536 47.3893C53.9536 46.89 53.8149 46.4738 53.5374 46.1409C53.2739 45.7941 52.8855 45.6208 52.3723 45.6208H49.7298V49.2203Z" fill="white"/>
<path d="M43.6136 49.6146C43.6136 51.834 42.9131 53.6511 41.5121 55.066C40.125 56.467 38.3287 57.1674 36.1232 57.1674C35.1384 57.1674 34.2021 57.0079 33.3143 56.6889C32.4404 56.3699 31.6498 55.9052 30.9424 55.2948C30.2488 54.6845 29.694 53.8939 29.2778 52.9229C28.8756 51.938 28.6744 50.8353 28.6744 49.6146C28.6744 48.0056 29.042 46.6185 29.7772 45.4533C30.5124 44.2743 31.4348 43.4143 32.5445 42.8733C33.668 42.3184 34.8818 42.041 36.1856 42.041C37.1289 42.041 38.0374 42.2075 38.9113 42.5404C39.7991 42.8594 40.5897 43.3241 41.2833 43.9344C41.9907 44.5447 42.5525 45.3423 42.9686 46.3272C43.3986 47.2982 43.6136 48.394 43.6136 49.6146ZM32.4821 49.6146C32.4821 50.8492 32.8427 51.8201 33.564 52.5276C34.2853 53.2211 35.1453 53.5679 36.144 53.5679C37.1289 53.5679 37.9819 53.2211 38.7032 52.5276C39.4384 51.8201 39.806 50.8492 39.806 49.6146C39.806 48.3801 39.4453 47.4161 38.724 46.7225C38.0027 46.0151 37.1566 45.6614 36.1856 45.6614C35.1592 45.6614 34.2853 46.0081 33.564 46.7017C32.8427 47.3814 32.4821 48.3524 32.4821 49.6146Z" fill="white"/>
<path d="M26.7925 42.332V45.6403H21.5076V47.7209H26.3763V51.05H21.5076V53.422H26.9797V56.8967H17.7V42.332H26.7925Z" fill="white"/>
<path d="M1 49.6369C1 48.0417 1.37452 46.6615 2.12356 45.4964C2.8726 44.3312 3.80196 43.485 4.91165 42.9579C6.02134 42.417 7.21425 42.1465 8.49039 42.1465C9.50298 42.1465 10.4531 42.3129 11.3409 42.6458C12.2286 42.9788 13.0262 43.5336 13.7337 44.3104C14.4411 45.0872 14.9196 46.0373 15.1693 47.1609H11.4657C11.1467 46.5922 10.7514 46.183 10.2798 45.9333C9.80814 45.6836 9.21169 45.5588 8.49039 45.5588C7.35296 45.5588 6.45827 45.9472 5.80633 46.7239C5.16826 47.5007 4.84923 48.4648 4.84923 49.6161C4.84923 50.8367 5.1752 51.8077 5.82714 52.529C6.49295 53.2503 7.3807 53.6109 8.49039 53.6109C9.28104 53.6109 9.91911 53.4861 10.4046 53.2364C10.8901 52.9729 11.2993 52.5082 11.6322 51.8424H8.532V48.6382H15.3982C15.523 50.3166 15.3913 51.7245 15.0029 52.8619C14.5035 54.3045 13.6574 55.3726 12.4645 56.0661C11.2854 56.7458 9.96073 57.0856 8.49039 57.0856C7.54716 57.0856 6.63166 56.9261 5.74391 56.6071C4.87003 56.2881 4.07245 55.8303 3.35115 55.2339C2.64372 54.6374 2.07501 53.8537 1.64501 52.8827C1.215 51.9117 1 50.8298 1 49.6369Z" fill="white"/>
</svg>
