<svg width="100" height="100" viewBox="0 0 100 100" fill="none" xmlns="http://www.w3.org/2000/svg">
<path d="M50.1863 66.5801C46.8718 63.5837 42.9373 62.2951 38.5425 62.2888C30.0198 62.2763 21.4971 62.3025 12.9756 62.2751C7.48052 62.2576 2.62787 58.3693 1.33425 53.0301C-0.265003 46.4323 4.03876 39.7508 10.7364 38.4846C11.7082 38.3013 12.7149 38.2264 13.7054 38.2239C22.1657 38.2052 30.626 38.2663 39.0851 38.1927C43.2654 38.1566 47.024 36.8043 50.084 34C51.2654 34.7747 52.3856 35.6317 53.6119 36.2879C56.0669 37.6014 58.7302 38.204 61.5133 38.209C70.1807 38.2214 78.8494 38.1927 87.5168 38.2252C93.4423 38.2476 98.6355 42.9805 99.2854 48.8686C100.013 55.4502 95.3446 61.3994 88.7792 62.1391C87.0328 62.3362 85.2539 62.2763 83.49 62.2788C76.2147 62.2926 68.9395 62.2626 61.6643 62.2926C57.3381 62.31 53.4659 63.6174 50.1851 66.5789L50.1863 66.5801ZM50.3136 64.3821C50.4795 64.2661 50.7477 64.0715 51.0221 63.8856C54.2755 61.69 57.8882 60.6933 61.7878 60.6896C70.0822 60.6821 78.3778 60.6908 86.6723 60.6796C87.4382 60.6796 88.2129 60.6384 88.9688 60.5212C95.417 59.5132 99.384 52.8118 97.1585 46.7129C95.644 42.5639 91.6197 39.8182 86.9966 39.8132C78.7022 39.8032 70.4065 39.802 62.1121 39.8132C57.8782 39.8194 53.9761 38.7778 50.5294 36.2479C50.2612 36.0508 50.0803 36.0733 49.8221 36.2604C49.3019 36.6384 48.768 37.0027 48.2103 37.322C45.2002 39.0448 41.9406 39.8107 38.4851 39.8107C30.1907 39.8095 21.895 39.8057 13.6006 39.8169C12.8559 39.8169 12.1024 39.8643 11.3676 39.9791C5.25005 40.9459 1.27188 47.1882 2.98465 53.1075C4.28202 57.5921 8.47725 60.6746 13.3461 60.6808C21.7241 60.6933 30.1021 60.6871 38.4801 60.6846C41.1285 60.6846 43.7082 61.09 46.1321 62.1691C47.5454 62.799 48.8765 63.6124 50.3136 64.3808V64.3821Z" fill="white"/>
<path d="M26.4981 40.463C31.0713 40.463 35.6458 40.5528 40.2152 40.433C43.647 40.3432 46.8068 39.1868 49.6623 37.267C50.0428 37.0112 50.286 36.9788 50.689 37.2507C54.0272 39.5037 57.7434 40.5253 61.749 40.5291C70.127 40.5366 78.5038 40.5241 86.8817 40.5341C90.7165 40.5391 93.7515 42.1258 95.7225 45.4192C99.0558 50.9879 95.9246 58.1284 89.5289 59.6515C88.6095 59.8698 87.6377 59.9472 86.6896 59.9497C78.3541 59.9721 70.0172 59.9559 61.6817 59.9671C57.8544 59.9721 54.2767 60.9177 51.052 63.0134C50.4108 63.4301 50.0079 63.4738 49.3367 63.0322C46.0858 60.8965 42.4607 59.9671 38.5898 59.9646C30.2118 59.9596 21.835 59.9634 13.4571 59.9634C10.1288 59.9634 7.37815 58.6997 5.32357 56.0825C1.00359 50.5787 3.96258 42.4589 10.8735 40.8372C11.7343 40.6351 12.64 40.5515 13.5257 40.5465C17.8494 40.5179 22.1731 40.5328 26.4968 40.5328C26.4968 40.5104 26.4968 40.4867 26.4968 40.4642L26.4981 40.463ZM92.6338 55.7145C93.1727 55.5349 93.2476 55.1444 93.043 54.6928C92.8359 54.235 92.4168 54.1527 92.0026 54.346C91.6072 54.5307 91.4375 54.8999 91.6333 55.3253C91.8367 55.7681 92.1585 55.9952 92.6525 55.6945L92.6338 55.7145ZM88.8465 44.6981C89.0835 45.2944 89.4702 45.8383 89.4902 46.3947C89.5638 48.5216 89.5201 50.6535 89.5201 52.8354C89.3405 52.6632 89.1509 52.4861 88.9663 52.3039C86.5574 49.95 84.1298 47.6147 81.7547 45.227C81.1509 44.6195 80.5284 44.6357 79.74 44.7355C80.2976 45.3306 80.4323 45.9755 80.4286 46.6878C80.4136 49.2451 80.4211 51.8024 80.4236 54.3598C80.4244 55.4243 80.9563 55.9153 82.0191 55.833C82.0503 55.8305 82.079 55.7894 82.1426 55.7407C81.4153 54.8812 81.2931 53.8458 81.2968 52.773C81.3018 51.276 81.2968 49.7791 81.2981 48.2821C81.2981 48.1074 81.3243 47.9328 81.3455 47.6546C81.6 47.8979 81.7771 48.0638 81.9518 48.2334C84.3756 50.6011 86.8119 52.9564 89.212 55.3502C89.7272 55.8642 90.2586 55.9303 90.7489 55.8293C90.6653 54.9124 90.5306 54.0404 90.5194 53.1672C90.4869 50.8594 90.5243 48.5515 90.5031 46.2437C90.4869 44.4648 90.8375 44.6694 88.8502 44.6994C88.8315 44.6994 88.8141 44.7143 88.8502 44.6994L88.8465 44.6981ZM64.5708 49.8626C65.6286 49.2851 66.1962 48.4143 65.9467 47.198C65.7022 46.008 64.7716 45.4616 63.6801 45.388C62.137 45.2844 60.5814 45.3618 59.1917 45.3618C59.2765 46.0691 59.435 46.83 59.4462 47.5935C59.4811 49.8801 59.4849 52.1667 59.4424 54.4533C59.43 55.1494 59.6845 55.5174 60.3331 55.6359C61.0866 55.7744 61.8426 55.9877 62.5998 55.9952C64.0955 56.0089 65.5563 55.7706 66.694 54.6554C67.924 53.4491 67.8229 51.7937 66.4195 50.7945C65.8769 50.4078 65.2195 50.182 64.572 49.8614L64.5708 49.8626ZM34.1338 52.9202C33.9043 52.7069 33.7509 52.5721 33.6049 52.4299C31.3158 50.192 29.0167 47.964 26.7501 45.7048C26.2149 45.1709 25.651 45.2021 25.177 45.2832C25.3092 45.9493 25.5263 46.5581 25.5363 47.1706C25.5774 49.582 25.5425 51.9933 25.5575 54.4047C25.5662 55.8131 25.2631 55.7382 26.9596 55.7095C27.0145 55.7095 27.0682 55.6771 27.1804 55.6409C26.5081 54.7976 26.3846 53.8271 26.3933 52.8179C26.4033 51.7164 26.3958 50.6149 26.3958 49.5121V48.0413C26.654 48.2721 26.8087 48.3981 26.9509 48.5378C29.225 50.7608 31.5104 52.9726 33.7608 55.2205C34.2536 55.712 34.7588 55.8006 35.2553 55.6921C35.173 54.9174 35.037 54.1889 35.0295 53.4578C35.0021 50.9629 35.0208 48.4692 35.017 45.9743C35.017 45.6774 35.1093 45.2957 34.6353 45.2657C34.2299 45.2395 33.822 45.2607 33.4814 45.2607C33.7097 45.8957 34.0802 46.4832 34.1051 47.0833C34.1837 48.9882 34.1338 50.898 34.1338 52.9227V52.9202ZM73.8856 45.0399C70.5886 45.0561 68.1872 47.4051 68.2009 50.6011C68.2134 53.7048 70.5312 55.9465 73.7135 55.9353C76.9145 55.9228 79.3445 53.4716 79.3308 50.2681C79.3183 47.2055 77.0467 45.025 73.8856 45.0412V45.0399ZM38.4363 55.6883C38.2268 54.9199 37.8875 54.1826 37.85 53.4316C37.7627 51.6914 37.8213 49.9437 37.8251 48.1998C37.8251 48.1773 37.8837 48.1561 37.9336 48.1199C38.0671 48.2422 38.2081 48.3632 38.3403 48.4917C40.6132 50.7134 42.8998 52.9202 45.1452 55.1706C45.6504 55.6771 46.1632 55.8193 46.6784 55.6983C46.5935 54.8375 46.4513 54.0067 46.4401 53.1747C46.4077 50.7446 46.4351 48.3133 46.4114 45.8832C46.4089 45.6749 46.238 45.3181 46.0945 45.2894C45.6879 45.2071 45.2538 45.2607 44.7261 45.2607C45.4484 46.1003 45.6143 46.9872 45.6205 47.9141C45.6305 49.4098 45.6255 50.9055 45.6218 52.4012C45.6218 52.5534 45.5931 52.7056 45.5706 52.9314C45.3411 52.7156 45.1739 52.5634 45.0117 52.4062C42.7538 50.1995 40.4797 48.0077 38.2505 45.7734C37.7003 45.2221 37.1302 45.1771 36.3855 45.3131C36.9631 45.9581 37.0142 46.6853 37.008 47.445C36.9905 49.7504 37.0018 52.0569 37.0018 54.3623C37.0018 55.3428 37.4795 55.7848 38.4351 55.6883H38.4363ZM15.352 47.581C15.3083 47.6197 15.2646 47.6596 15.2197 47.6983C15.2272 47.7744 15.2197 47.8555 15.2434 47.9278C15.5441 48.8572 16.4073 49.4547 17.4377 49.4522C18.5243 49.4485 19.4686 48.7761 19.8129 47.7619C20.2969 46.3348 19.5709 44.7455 18.0914 44.0457C17.0373 43.548 15.9146 43.4057 14.7557 43.4369C9.49634 43.5791 6.37892 49.2526 9.08593 53.7772C10.0714 55.4238 11.5946 56.3008 13.4321 56.6052C15.8447 57.0044 18.1138 56.6738 20.0063 54.9511C20.1385 54.8301 20.1659 54.5955 20.242 54.4134C20.0674 54.4745 19.8541 54.4895 19.7243 54.603C18.5517 55.6272 17.187 56.1361 15.6426 56.2397C13.4084 56.3881 11.5958 55.4189 10.7513 53.5227C9.7396 51.2486 9.77453 48.9582 10.8399 46.7153C11.9676 44.3401 14.6197 43.286 17.0348 44.1979C18.5218 44.7592 19.0432 46.22 18.2261 47.5299C17.6772 48.4106 16.6181 48.584 15.8085 47.9291C15.6601 47.8093 15.5054 47.6983 15.3532 47.5848L15.352 47.581ZM58.6391 55.6758C58.3784 55.2729 58.0727 54.8824 57.8532 54.4471C57.2943 53.3356 56.7641 52.2091 56.2402 51.0802C55.3932 49.2564 54.5673 47.4213 53.7103 45.6013C53.608 45.3855 53.3685 45.2345 53.1926 45.0524C53.0317 45.2233 52.8334 45.3718 52.7198 45.5701C52.4916 45.9643 52.3094 46.3847 52.1086 46.7939C50.6603 49.7491 49.212 52.7044 47.7699 55.6471C48.6107 55.838 48.9862 55.6746 49.3617 54.9049C49.7708 54.0666 50.1526 53.2121 50.5917 52.39C50.6915 52.2029 50.9721 52.0083 51.178 51.9983C52.0899 51.9559 53.0055 51.9908 53.9187 51.9746C54.3303 51.9671 54.5624 52.1492 54.7358 52.5085C55.0801 53.2171 55.4406 53.9194 55.8248 54.608C56.4111 55.6571 57.6062 56.08 58.6391 55.6758ZM21.4097 45.2869C21.4995 45.857 21.6567 46.4034 21.6616 46.951C21.6878 49.6294 21.6729 52.3077 21.6729 54.986C21.6729 55.208 21.6729 55.4301 21.6729 55.6858H23.4131V45.2869H21.4097Z" fill="white"/>
<path d="M61.6281 50.3695C62.4128 50.4531 63.0365 50.4593 63.6315 50.5928C65.136 50.9309 65.9581 52.2207 65.6025 53.6017C65.3655 54.5211 64.7567 55.1174 63.8473 55.2359C63.165 55.3244 62.4439 55.2147 61.7553 55.0986C61.5607 55.0662 61.2825 54.7044 61.2801 54.4911C61.2489 51.6307 61.2588 48.769 61.2588 45.9198C62.5313 45.6079 63.6041 45.9085 63.9945 46.7132C64.3862 47.5215 64.4012 48.3411 63.9459 49.1557C63.4681 50.0102 62.414 49.7657 61.6293 50.3682L61.6281 50.3695Z" fill="white"/>
<path d="M77.4784 50.4981C77.4734 51.803 77.1391 53.0031 76.322 54.041C74.9298 55.8099 72.6694 55.8298 71.2473 54.0921C69.6618 52.1548 69.6518 48.839 71.2273 46.8992C72.6532 45.1428 74.8787 45.1428 76.3033 46.9004C77.068 47.8435 77.4834 49.116 77.4784 50.4981Z" fill="white"/>
<path d="M54.1668 51.2345H51.1068C51.6432 50.1243 52.1597 49.0577 52.7447 47.8477C53.2375 49.0203 53.6803 50.0731 54.1681 51.2345H54.1668Z" fill="white"/>
<path d="M92.6512 55.6966C92.5302 55.6841 92.408 55.6816 92.2907 55.6567C91.8342 55.5618 91.6707 55.2587 91.798 54.8358C91.914 54.4504 92.2346 54.3356 92.5851 54.4853C92.9843 54.6549 93.0193 54.9992 92.8633 55.366C92.8097 55.492 92.7124 55.5993 92.6338 55.7153L92.6512 55.6966Z" fill="white"/>
</svg>
