<svg width="100" height="100" viewBox="0 0 100 100" fill="none" xmlns="http://www.w3.org/2000/svg">
<mask id="mask0_531_31" style="mask-type:luminance" maskUnits="userSpaceOnUse" x="4" y="13" width="92" height="74">
<path d="M95.9677 13H4V86.5411H95.9677V13Z" fill="white"/>
</mask>
<g mask="url(#mask0_531_31)">
<path d="M47.6707 57.4197C47.6186 57.9174 47.7342 58.4183 47.9993 58.8429C48.1034 59.0131 48.2464 59.1562 48.4165 59.2605C48.5866 59.3649 48.7791 59.4274 48.978 59.443C49.9445 59.5493 50.8055 59.2472 51.5997 58.7237C52.464 58.1534 53.1245 57.3826 53.6995 56.5336C55.0845 54.4899 55.9871 52.1582 56.3391 49.7146C56.4206 49.2039 56.3896 48.6817 56.248 48.1842C56.0305 47.4324 55.5376 46.9946 54.7692 46.8705C54.0443 46.7505 53.3476 46.8786 52.654 47.0655C52.5002 47.1065 52.3513 47.1613 52.1974 47.2008C51.317 47.4295 50.5502 47.0735 50.1644 46.247C49.8411 45.5704 49.7499 44.806 49.905 44.0723C50.2626 42.3752 51.0713 40.9311 52.5019 39.8953C53.3878 39.2509 54.3955 39.0302 55.4723 39.1647C56.273 39.2637 56.7909 39.7285 57.0189 40.5066C57.2709 41.3676 57.1518 42.215 56.8658 43.0389C56.6265 43.7415 56.2673 44.3975 55.8042 44.9777C55.7647 45.0268 55.7318 45.0808 55.6609 45.1847C55.834 45.1759 55.9565 45.1742 56.0781 45.1629C57.0447 45.0824 57.9822 45.1799 58.8819 45.5432C60.5887 46.2318 61.4731 47.5568 61.7735 49.3239C61.9346 50.2784 61.85 51.2249 61.6277 52.1576C61.1984 53.961 60.5202 55.6597 59.4336 57.1764C57.8228 59.4236 55.6552 60.8316 52.9762 61.4712C51.6775 61.7871 50.3422 61.9278 49.0061 61.8891C47.0013 61.8263 45.8343 60.4828 45.446 59.0257C45.4267 58.9525 45.3976 58.8816 45.3542 58.7551L44.9684 59.1434C43.7916 60.321 42.4312 61.2126 40.8524 61.753C39.7091 62.1548 38.4782 62.2392 37.2907 61.9971C36.1292 61.7619 35.3012 61.1184 34.8743 59.9907C34.8469 59.9174 34.8106 59.8465 34.7776 59.7756C34.7728 59.766 34.7575 59.7611 34.7164 59.7322C34.6134 59.8127 34.5014 59.8989 34.3887 59.985C33.4494 60.6995 32.4643 61.3374 31.3745 61.8022C30.2408 62.3001 28.9857 62.4538 27.7653 62.2444C26.1061 61.9608 25.0509 60.9686 24.4742 59.4253C24.0666 58.337 24.0239 57.2038 24.1158 56.0601C24.2341 54.5804 24.6796 53.1869 25.2434 51.8249C25.9788 50.0609 26.8415 48.3703 27.9957 46.8391C29.501 44.8407 31.3907 43.3353 33.7145 42.3905C34.9704 41.8862 36.3183 41.651 37.6708 41.7002C38.6697 41.7276 39.3366 42.0369 40.2983 42.8714C40.3611 42.6861 40.4239 42.5202 40.4738 42.3519C40.5375 42.1392 40.6494 42.0297 40.8952 42.0209C42.6535 41.9911 44.4118 41.9475 46.1701 41.9112C46.2614 41.9164 46.3524 41.9271 46.4424 41.9435C46.3312 42.2657 46.2402 42.5678 46.1266 42.8585C45.0275 45.6793 43.9266 48.4983 42.8242 51.3159C42.1879 52.9542 41.5644 54.5981 40.941 56.242C40.8696 56.4268 40.8201 56.6192 40.7937 56.8155C40.7348 57.2795 40.9426 57.5808 41.397 57.7016C41.8502 57.8145 42.3278 57.7794 42.7597 57.6017C43.6309 57.2736 44.4008 56.7232 44.9933 56.0052C45.3665 55.5412 45.6708 55.0257 45.897 54.4749C46.5583 52.9446 47.4049 51.5341 48.6847 50.4275C49.2622 49.9281 49.893 49.5092 50.663 49.3988C51.0267 49.3379 51.3975 49.3311 51.7633 49.3787C52.4736 49.4923 52.9441 49.9369 53.1865 50.6136C53.3855 51.1787 53.4223 51.7883 53.2928 52.3734C52.9771 53.9223 52.2626 55.2578 51.073 56.3081C50.1515 57.1216 49.0698 57.5212 47.8229 57.3995C47.7717 57.4027 47.7209 57.4095 47.6707 57.4197ZM29.5736 56.9815C29.6428 57.3415 29.671 57.7161 29.7903 58.0592C29.965 58.5618 30.338 58.8776 30.8962 58.8574C31.2909 58.8525 31.6839 58.8026 32.0672 58.7085C32.9759 58.4603 33.7281 57.9183 34.4603 57.3456C34.7825 57.0926 35.0321 56.8124 35.0958 56.387C35.135 56.2061 35.1939 56.03 35.2714 55.8619C36.1059 53.692 36.9412 51.5226 37.7772 49.3537C38.275 48.0596 38.7717 46.7647 39.2672 45.469C39.3922 45.142 39.3664 45.0775 39.0893 44.873C38.8281 44.6891 38.517 44.5891 38.1976 44.5862C37.3326 44.5372 36.475 44.7704 35.7539 45.2508C34.9838 45.7622 34.3629 46.4234 33.8167 47.1605C33.1786 48.0367 32.6155 48.9652 32.1333 49.9361C31.3858 51.4076 30.6359 52.8809 30.1197 54.4539C29.8474 55.2714 29.63 56.1019 29.5736 56.9815Z" fill="white"/>
<path d="M95.5189 40.9044C95.3256 41.44 95.1573 41.9378 94.9672 42.4267C93.3864 46.4927 91.8036 50.5575 90.219 54.6214C90.0995 54.9157 89.9955 55.216 89.9073 55.5211C89.7107 56.2387 90.0394 56.6745 90.7852 56.7252C91.3491 56.764 91.8573 56.5989 92.343 56.3403C93.4497 55.7523 94.305 54.9178 94.8472 53.7764C94.8858 53.6959 94.939 53.6153 95.0083 53.5026C95.3232 53.9971 95.6172 54.4691 95.9209 54.9266C96.0119 55.0652 95.9523 55.1788 95.9015 55.2988C95.6043 56.0069 95.2107 56.6707 94.732 57.2714C93.5867 58.7397 92.0705 59.8761 90.3398 60.5632C89.0704 61.0707 87.7624 61.2359 86.4108 60.9805C85.2026 60.751 84.3391 60.0945 83.9235 58.9041C83.9017 58.8437 83.8719 58.7856 83.8244 58.6753C83.6939 58.7719 83.5827 58.8533 83.474 58.9362C82.4696 59.6974 81.4201 60.3805 80.2433 60.85C79.0134 61.3414 77.7464 61.4541 76.4674 61.14C74.9547 60.7687 74.0139 59.7546 73.5048 58.3104C73.4388 58.1244 73.384 57.9343 73.322 57.7466C73.322 57.7361 73.3043 57.7289 73.2688 57.6958C73.1126 57.7764 73.0272 57.9439 72.9088 58.0744C71.5766 59.5645 69.9922 60.672 68.0679 61.2584C67.0651 61.5668 66.0037 61.6358 64.9694 61.4598C63.2779 61.1787 62.2549 60.026 62.1727 58.3136C62.1348 57.3188 62.3072 56.3271 62.6786 55.4035C63.9287 52.1591 65.1973 48.9219 66.4579 45.6815C67.1199 43.9815 67.7801 42.2807 68.4384 40.579C68.4755 40.4823 68.4997 40.3816 68.5464 40.231H65.7233C65.7877 40.0651 65.8208 39.9547 65.8731 39.8541C66.2307 39.1614 66.598 38.4752 66.9467 37.776C67.0765 37.5142 67.2464 37.4232 67.5347 37.4232C68.1686 37.4232 68.8025 37.3869 69.4373 37.3636C69.5178 37.3636 69.5919 37.3466 69.695 37.3353C69.8449 36.9391 70.0043 36.5493 70.138 36.1505C70.1632 36.0495 70.2181 35.9584 70.2957 35.8888C70.3731 35.8194 70.4698 35.7747 70.573 35.7607C72.5061 35.3628 74.4287 34.9552 76.3562 34.5468C76.4264 34.5417 76.497 34.5417 76.5672 34.5468C76.2217 35.4457 75.8882 36.3108 75.5298 37.242C76.0863 37.2709 76.5825 37.2307 77.0779 37.2242C77.5733 37.2178 78.0565 37.204 78.5454 37.2C79.0344 37.196 79.5442 37.2 80.108 37.2L78.6662 39.9652C77.9574 39.9845 77.2712 40.0047 76.5849 40.0208C76.0162 40.0336 75.4477 40.0603 74.8798 40.0449C74.5769 40.0369 74.4376 40.1521 74.3328 40.4259C73.6426 42.2423 72.9378 44.0505 72.2386 45.8661C70.9875 49.0943 69.7379 52.3234 68.49 55.5534C68.3985 55.7723 68.3331 56.0013 68.2951 56.2356C68.2339 56.7107 68.4667 57.0208 68.9338 57.1344C69.4023 57.2422 69.893 57.1988 70.3353 57.0103C71.6611 56.482 72.6221 55.5549 73.227 54.2678C73.3317 54.0462 73.3527 53.7846 73.4058 53.5429C73.7183 52.1115 74.2862 50.7729 74.9007 49.4528C75.6401 47.8644 76.527 46.3622 77.6852 45.0388C79.4717 42.9977 81.632 41.5302 84.2972 40.8987C85.0967 40.7097 85.9188 40.634 86.7394 40.674C87.6987 40.7215 88.5493 41.0292 89.2234 41.7445C89.2682 41.7806 89.3158 41.8129 89.3661 41.8412C89.416 41.6969 89.4634 41.5681 89.5054 41.4384C89.6375 41.0236 89.6535 41.0042 90.0829 40.9946C91.4709 40.9623 92.859 40.9331 94.2471 40.9067C94.6394 40.8979 95.0365 40.9044 95.5189 40.9044ZM78.6751 55.9472C78.6654 56.3499 78.7057 56.7405 78.8781 57.1078C79.0858 57.55 79.4193 57.8045 79.9251 57.8328C80.4282 57.859 80.9309 57.7765 81.3992 57.5911C82.2232 57.2738 82.9408 56.7856 83.6142 56.2218C83.8639 56.0141 84.0733 55.7965 84.1192 55.4519C84.1512 55.2827 84.2031 55.1181 84.2739 54.9613C85.0842 52.8532 85.8961 50.7458 86.7096 48.6393C87.2565 47.2216 87.7985 45.8024 88.3519 44.388C88.4324 44.1802 88.397 44.0441 88.2311 43.9047C87.9315 43.6558 87.5868 43.5616 87.205 43.5446C86.091 43.4972 85.1365 43.8894 84.2924 44.5918C83.4338 45.321 82.7145 46.1997 82.1692 47.1854C81.5168 48.3324 80.9102 49.5067 80.3167 50.6843C79.8192 51.6471 79.4089 52.6527 79.0908 53.6887C78.8676 54.4257 78.6912 55.1739 78.6751 55.9472Z" fill="white"/>
<path d="M14.8317 38.1971C14.52 38.2946 14.2043 38.3849 13.8958 38.492C12.2043 39.076 10.5241 39.6825 9.03 40.6885C8.40817 41.1073 7.84113 41.6091 7.25233 42.0771C7.1299 42.1754 7.02198 42.2921 6.877 42.4282L5.70181 41.2853C5.94345 40.9261 6.16415 40.5975 6.38808 40.2728C6.97444 39.4239 7.56728 38.5814 8.1456 37.7268C8.26695 37.5385 8.44325 37.392 8.65063 37.3072C10.6533 36.4681 12.7587 35.8992 14.9115 35.6157C16.6031 35.3941 18.3066 35.276 20.0125 35.2621C21.6298 35.2484 23.1337 35.6511 24.4264 36.6612C25.6853 37.6454 26.37 38.9712 26.6221 40.5338C26.8774 42.1117 26.6446 43.6405 26.15 45.1427C25.4759 47.1877 24.4111 48.9928 22.8477 50.4885C21.0999 52.1639 19.0041 53.1184 16.6175 53.4583C15.1483 53.6676 13.6896 53.5694 12.2357 53.3133L11.8282 53.2449C11.7476 53.418 11.6671 53.5671 11.6083 53.7282C11.0879 55.0571 10.5612 56.3861 10.0602 57.7208C9.92661 58.0654 9.8407 58.4266 9.80484 58.7944C9.74363 59.558 10.0964 59.9608 10.8519 60.0558C11.0624 60.0745 11.2737 60.0823 11.485 60.0791C11.6244 60.0791 11.7645 60.0791 11.9434 60.0791C11.9234 60.161 11.8989 60.2417 11.8701 60.3208C11.572 60.9652 11.2692 61.616 10.9736 62.2652C10.9492 62.3249 10.9109 62.3778 10.8621 62.4199C10.8132 62.4618 10.7551 62.4916 10.6925 62.5068C9.26358 62.9362 7.81456 63.0706 6.34297 62.7936C5.51818 62.6398 4.82306 62.2612 4.37845 61.5162C4.10781 61.061 4.01438 60.5568 3.99827 60.034C3.96928 59.0949 4.15936 58.188 4.45577 57.3092C4.81662 56.2459 5.22015 55.1964 5.62128 54.1478C6.70274 51.32 7.78851 48.4942 8.87857 45.6702C9.44239 44.2148 10.0062 42.7609 10.5523 41.3007C10.6421 41.053 10.8152 40.8442 11.042 40.7102C12.3139 39.9048 13.5801 39.0888 14.8478 38.2761L14.8317 38.1971ZM12.7077 50.9041C13.2619 50.8655 13.7258 50.8671 14.1769 50.7938C15.5743 50.5682 16.7245 49.8474 17.7056 48.8712C19.7531 46.8334 20.9782 44.3518 21.5178 41.5278C21.6893 40.695 21.667 39.8342 21.4526 39.0115C21.2255 38.169 20.6915 37.6148 19.8289 37.465C19.3407 37.3796 18.8325 37.4111 18.3322 37.3941C18.0439 37.3836 17.8982 37.5311 17.7926 37.8042C16.1656 42.0055 14.5321 46.2037 12.8922 50.3991C12.8406 50.5321 12.7939 50.6666 12.7077 50.9041Z" fill="white"/>
<path d="M50.4752 13C54.281 13.0113 57.6003 13.447 60.8552 14.35C63.6852 15.1389 66.4128 16.2578 68.9814 17.6838C72.4963 19.623 75.6857 22.1008 78.4335 25.0272C80.6777 27.4059 82.6052 30.0644 84.1685 32.9368C84.2154 33.0164 84.2513 33.1021 84.2756 33.1913C84.3166 33.3726 84.2272 33.4998 84.0718 33.5788C84.0033 33.6219 83.9207 33.6367 83.8414 33.62C83.7622 33.6033 83.6926 33.5564 83.6473 33.4893C83.5738 33.3795 83.5074 33.2652 83.4483 33.1471C82.0256 30.5761 80.314 28.1761 78.3466 25.9937C76.4536 23.8864 74.3241 22.0043 72.0004 20.3845C68.4401 17.912 64.4726 16.0852 60.2792 14.9879C56.9779 14.1103 53.5719 13.6883 50.1562 13.7338C45.1416 13.7884 40.1927 14.8804 35.6208 16.9411C31.9925 18.5645 28.6463 20.7561 25.708 23.4332C22.6044 26.2452 19.994 29.5576 17.9853 33.2324C17.9414 33.3279 17.8874 33.4183 17.8242 33.5022C17.7736 33.5655 17.7012 33.6073 17.6212 33.6196C17.5412 33.6318 17.4596 33.6135 17.3924 33.5683C17.3184 33.5367 17.2584 33.4789 17.2241 33.406C17.1899 33.3331 17.1835 33.2501 17.2064 33.1728C17.2401 33.0727 17.2854 32.977 17.3417 32.8876C18.9139 30.0054 20.8488 27.3365 23.0991 24.9458C25.5319 22.3428 28.3219 20.0984 31.3857 18.2798C35.1528 16.0455 39.1987 14.5481 43.4951 13.7096C45.7947 13.257 48.1314 13.0195 50.4752 13Z" fill="white"/>
<path d="M50.4422 86.5405C44.9393 86.5009 39.6876 85.3556 34.6986 83.0229C31.1207 81.3556 27.8215 79.1463 24.9171 76.473C21.8308 73.6419 19.2318 70.3219 17.2241 66.6464C17.1833 66.5783 17.1473 66.5075 17.1162 66.4345C17.0356 66.2186 17.0857 66.0479 17.2556 65.9512C17.4457 65.8449 17.6309 65.8924 17.7597 66.1027C17.9112 66.3499 18.0481 66.6069 18.1915 66.8598C19.6222 69.3802 21.3386 71.7273 23.307 73.8544C25.6897 76.4494 28.4363 78.6849 31.4606 80.4914C35.3883 82.8343 39.713 84.4355 44.2192 85.2154C46.9165 85.6926 49.6581 85.8716 52.3946 85.7495C55.9947 85.5952 59.5513 84.9026 62.9462 83.6948C65.7286 82.7108 68.3831 81.3974 70.8535 79.7827C76.1297 76.3255 80.2966 71.8365 83.3542 66.3153C83.3953 66.2319 83.4415 66.1512 83.4927 66.0737C83.6232 65.8924 83.7964 65.8522 83.976 65.9529C84.1556 66.0535 84.208 66.2243 84.1283 66.4289C84.1011 66.4892 84.0705 66.5478 84.0364 66.6044C82.1639 70.0338 79.7831 73.16 76.9749 75.877C74.6579 78.1275 72.0606 80.0705 69.2473 81.6577C66.5807 83.1542 63.7403 84.3175 60.7899 85.1212C58.15 85.8502 55.4399 86.2963 52.7055 86.4518C51.9501 86.5002 51.1953 86.5131 50.4422 86.5405Z" fill="white"/>
<path d="M73.0652 73.4702C72.714 73.7489 72.4015 73.989 72.0987 74.241C71.9754 74.3433 71.8571 74.3152 71.7306 74.2732C71.1512 74.0885 70.5716 73.9065 69.9916 73.7272C69.8474 73.6829 69.7008 73.6466 69.555 73.6095L69.5083 73.6861C69.7371 73.9722 69.9666 74.2575 70.197 74.5415C70.2203 74.5705 70.2654 74.6067 70.2936 74.6019C70.7092 74.5326 70.731 74.924 71.0145 75.1657C70.9309 75.2055 70.8502 75.2509 70.7728 75.3018C70.4208 75.5765 70.0713 75.856 69.6944 76.1556C69.5599 75.9945 69.4399 75.8592 69.3295 75.7167C69.2916 75.6674 69.2393 75.5724 69.2586 75.5467C69.4197 75.3276 69.2377 75.2059 69.1305 75.0699C68.8213 74.6752 68.5064 74.2837 68.1905 73.8939C68.1028 73.7851 68.0294 73.641 67.8385 73.7328C67.8064 73.7488 67.7178 73.6934 67.6774 73.6523C67.5574 73.5137 67.4479 73.3655 67.3086 73.1875C67.4165 73.0933 67.51 73.0095 67.6066 72.929C67.7395 72.8193 67.8708 72.709 68.0093 72.6068C68.2509 72.4255 68.4773 72.1549 68.7472 72.1002C69 72.0486 69.3004 72.2225 69.5784 72.3055C69.9199 72.4069 70.259 72.5174 70.6005 72.6196C70.6811 72.6446 70.7728 72.6534 70.9597 72.688C70.7245 72.3916 70.5473 72.1678 70.3669 71.9454C70.3436 71.9165 70.2993 71.8745 70.2752 71.881C69.8378 71.9922 69.8563 71.5371 69.5655 71.3623L70.8599 70.3281C71.0097 70.5053 71.1426 70.6608 71.2714 70.8202C71.294 70.8485 71.3198 70.9056 71.3069 70.9257C71.1458 71.1762 71.352 71.3115 71.4753 71.4671C71.9915 72.1235 72.5103 72.7727 73.0652 73.4702Z" fill="white"/>
<path d="M61.767 80.1666C61.6776 79.9588 61.5971 79.7824 61.5253 79.6028C61.5068 79.5577 61.4915 79.4739 61.5132 79.4562C61.7404 79.2749 61.5785 79.0937 61.5132 78.9246C61.3336 78.4695 61.1282 78.0249 60.9567 77.5674C60.885 77.3748 60.7794 77.2951 60.5822 77.3378C60.4879 77.1099 60.4033 76.9037 60.3066 76.6677C60.4058 76.6137 60.4903 76.5565 60.5829 76.5179C61.1318 76.2892 61.6818 76.0633 62.2333 75.8405C62.3553 75.7891 62.4811 75.7471 62.6095 75.7148C63.3852 75.5328 63.9908 75.7728 64.3984 76.4679C64.5714 76.7643 64.7029 77.083 64.789 77.4151C64.9937 78.2118 64.6771 78.8787 63.9176 79.2516C63.4085 79.5021 62.8753 79.7035 62.3517 79.9258C62.1689 80.0015 61.9869 80.0756 61.767 80.1666ZM62.1471 76.7772C62.4282 77.4482 62.7005 78.1006 62.9703 78.7458C63.4963 78.6338 63.5679 78.517 63.3932 78.0716C63.2444 77.6914 63.0874 77.3156 62.922 76.9439C62.7432 76.5275 62.6168 76.4954 62.1471 76.7772Z" fill="white"/>
<path d="M40.9861 78.5215C40.9104 78.3765 40.8355 78.2541 40.7791 78.1188C40.5697 77.6258 40.7791 77.1465 41.2914 76.9774C41.4418 76.9287 41.5989 76.9035 41.757 76.9025C42.4545 76.8953 43.0763 77.124 43.6418 77.5243C43.8157 77.6468 43.877 77.7845 43.7979 77.9963C43.73 78.208 43.673 78.4231 43.6272 78.6407L42.6735 78.3822C42.662 78.263 42.6385 78.1454 42.6035 78.0309C42.5382 77.8699 42.2716 77.7894 42.1266 77.8699C41.9817 77.9505 41.9535 78.1034 42.0799 78.2822C42.3071 78.6044 42.5632 78.9041 42.8363 79.2569C42.949 79.0153 43.0981 78.9943 43.297 79.0652C43.5547 79.157 43.8246 79.215 44.1283 79.2987C44.0646 79.5549 44.009 79.782 43.955 80.0004L43.5604 80.0809L43.8826 80.614L43.0828 81.219C43.0408 81.1384 43.0135 81.0757 42.9789 81.0192C42.8894 80.8758 42.771 80.863 42.6059 80.8896C41.8979 81.0031 41.2366 80.8332 40.6341 80.4682C40.4238 80.3354 40.2501 80.1517 40.1291 79.9343C39.9012 79.5194 40.0929 78.9757 40.5118 78.739C40.6574 78.6552 40.8178 78.5972 40.9861 78.5215ZM42.1613 79.9979C42.0341 79.8271 41.9261 79.6886 41.8238 79.5452C41.7344 79.4204 41.6345 79.3608 41.5017 79.4776C41.4704 79.5017 41.4453 79.5328 41.4285 79.5685C41.4118 79.6043 41.4039 79.6435 41.4054 79.6829C41.4069 79.7223 41.4178 79.7608 41.4372 79.7952C41.4565 79.8294 41.4839 79.8587 41.5169 79.8803C41.6069 79.9502 41.7125 79.9976 41.8247 80.018C41.9369 80.0384 42.0524 80.0316 42.1613 79.9979Z" fill="white"/>
<path d="M33.7665 73.0408C33.6249 73.2236 33.5145 73.3694 33.3985 73.5119C33.3663 73.5515 33.305 73.6134 33.2792 73.6046C32.974 73.4911 32.8983 73.7609 32.7663 73.9155C32.5519 74.1668 32.3579 74.4351 32.1508 74.6927C32.0533 74.8179 31.9487 74.9373 31.8375 75.0504C31.4452 75.4322 30.9942 75.5176 30.4884 75.3002C30.0861 75.1255 29.731 74.8576 29.4525 74.5188C29.0095 73.9889 28.9845 73.4508 29.3921 72.8861C29.6789 72.4899 29.9931 72.1137 30.2935 71.7279C30.3812 71.616 30.4989 71.5161 30.374 71.3462C30.3474 71.3091 30.3942 71.1971 30.4344 71.1391C30.5318 70.999 30.6455 70.8709 30.7864 70.6953L32.241 71.8439C32.022 72.0758 31.9681 72.4238 31.5806 72.4335C31.5217 72.4335 31.4582 72.5285 31.4099 72.5889C31.1053 72.9718 30.803 73.3566 30.5029 73.7432C30.4546 73.8052 30.3804 73.8712 30.3764 73.9389C30.3648 74.0506 30.3881 74.1631 30.4433 74.261C30.5238 74.3851 30.6736 74.3892 30.7969 74.3061C30.8702 74.2499 30.9345 74.1828 30.9878 74.1072C31.2673 73.7552 31.5515 73.4032 31.8214 73.0472C31.9323 72.9251 31.9952 72.7668 31.9986 72.6019C32.0027 72.4053 32.2282 72.2136 32.3885 71.9719L33.7665 73.0408Z" fill="white"/>
<path d="M73.4181 67.4844L75.4575 68.4412C75.6371 68.5218 75.816 68.6096 75.9964 68.6925C76.0523 68.7274 76.1135 68.7529 76.1776 68.7683C76.288 68.7804 76.4241 68.7288 76.5055 68.7771C76.6713 68.8771 76.8083 69.026 76.9943 69.1871L75.7056 70.6813L75.1418 70.198L75.244 69.9233L74.9388 69.7413C74.7882 69.9121 74.6448 70.0755 74.4934 70.2488L74.6923 70.5387L74.9679 70.3986L75.5244 70.8819C75.1483 71.3159 74.789 71.73 74.4056 72.1705C74.23 72.0216 74.0835 71.8983 73.9368 71.7678C73.9006 71.7356 73.849 71.6744 73.8563 71.6446C73.9432 71.3957 73.7548 71.2483 73.6476 71.0808C73.2505 70.4573 72.8421 69.8404 72.4395 69.2201C72.3678 69.1106 72.3025 68.9979 72.2163 68.8569L73.4181 67.4844ZM74.4708 69.4691L73.6831 69.043L73.6211 69.1154C73.7959 69.3434 73.9698 69.5706 74.1647 69.8234L74.4708 69.4691Z" fill="white"/>
<path d="M56.5693 77.5933L58.3486 77.1816C58.5097 77.4675 58.6652 77.7277 58.8126 77.9871C59.0889 78.4832 59.3563 78.9843 59.6398 79.4764C59.7396 79.6495 59.7807 79.8863 60.0425 79.9241C60.0739 79.9283 60.1069 80.0047 60.123 80.0506C60.169 80.2392 60.2036 80.4301 60.2552 80.6572L58.3421 81.1001C58.2802 80.8343 58.2278 80.6073 58.1747 80.3753L58.4283 80.2094L58.2721 79.8936L57.6165 80.0426V80.3954L57.9209 80.4445C57.9668 80.6636 58.0144 80.8899 58.07 81.1574L56.4275 81.548C56.3696 81.3321 56.314 81.134 56.2665 80.9358C56.2569 80.8989 56.2504 80.8392 56.2706 80.8215C56.5282 80.5935 56.438 80.2826 56.4558 80.0063C56.5017 79.2243 56.5299 78.4333 56.5693 77.5933ZM58.0361 79.4063C57.8992 79.0938 57.8105 78.832 57.5971 78.5348V79.5102L58.0361 79.4063Z" fill="white"/>
<path d="M27.6186 70.6978L28.4241 71.5677L27.4761 72.4385C26.5538 72.0139 25.8281 71.4364 25.5888 70.3974C25.5213 70.0961 25.5678 69.7805 25.7193 69.5114C26.0115 68.9558 26.4806 68.5136 27.0524 68.2548C27.2685 68.15 27.5073 68.1004 27.7472 68.1107C27.9873 68.121 28.2209 68.1907 28.4273 68.3137C29.0975 68.6962 29.5316 69.2802 29.8159 69.9906C29.8492 70.0557 29.8582 70.1303 29.8416 70.2015C29.8249 70.2726 29.7836 70.3354 29.7249 70.3789C29.4833 70.5858 29.2561 70.8025 28.9791 71.0546L28.1825 70.1912C28.288 70.0752 28.3782 69.9842 28.4571 69.8843C28.5925 69.7136 28.586 69.5709 28.4491 69.4243C28.3121 69.2778 28.1438 69.2489 27.9899 69.3833C27.5823 69.741 27.1845 70.1082 26.7954 70.486C26.6578 70.6181 26.6835 70.7719 26.8003 70.9129C26.8248 70.9484 26.8561 70.9788 26.8926 71.0019C26.929 71.0251 26.9698 71.0408 27.0124 71.0479C27.0551 71.0551 27.0986 71.0536 27.1406 71.0436C27.1827 71.0335 27.2222 71.0151 27.257 70.9894C27.3204 70.9422 27.3807 70.8907 27.4374 70.8356C27.4873 70.7945 27.5389 70.7566 27.6186 70.6978Z" fill="white"/>
<path d="M34.925 76.4208C34.8082 76.6237 34.7043 76.8026 34.5898 77.0006L34.9724 77.2995L34.6043 77.9616L32.7373 76.9193C32.8646 76.6857 32.9717 76.49 33.0925 76.27C33.1693 76.2975 33.2539 76.2936 33.3279 76.2592C33.4018 76.2248 33.4594 76.1629 33.488 76.0865C33.7297 75.6161 33.9987 75.1609 34.2548 74.6986C34.3442 74.5375 34.4964 74.37 34.2153 74.2459L34.581 73.6016C34.7155 73.6652 34.8227 73.7087 34.9242 73.7627C35.4679 74.0632 36.0123 74.3619 36.5504 74.6713C36.7103 74.7636 36.8592 74.8739 36.9942 74.9999C37.355 75.3398 37.4211 75.699 37.2262 76.1509C36.904 76.8976 36.3619 77.1102 35.6209 76.7735C35.3945 76.6744 35.1778 76.5512 34.925 76.4208ZM35.2875 75.7764C35.4211 75.9182 35.5419 75.9826 35.6974 75.8996C35.8279 75.8295 35.997 75.5242 35.9672 75.3954C35.9309 75.2343 35.8279 75.1538 35.629 75.1416C35.5186 75.3478 35.3993 75.5637 35.2875 75.7707V75.7764Z" fill="white"/>
<path d="M48.0497 78.1426C48.3719 78.1426 48.6207 78.1426 48.8697 78.1426C49.3062 78.1491 49.7428 78.1531 50.1793 78.1708C50.3906 78.1745 50.6011 78.1991 50.8076 78.2441C51.3029 78.3633 51.5454 78.6621 51.5897 79.1663C51.6614 79.9718 51.2836 80.4188 50.4621 80.4688C50.2148 80.4832 49.9658 80.4688 49.6784 80.4688C49.6662 80.7048 49.6566 80.9085 49.6453 81.1317L50.0948 81.2372V81.9428H47.9805C47.9805 81.7237 47.9805 81.5401 47.9805 81.3628C47.9805 81.3121 47.9877 81.2283 48.0159 81.2162C48.3501 81.0721 48.2301 80.7748 48.2446 80.5332C48.2704 80.0975 48.2752 79.6609 48.2841 79.2244C48.2841 79.0971 48.3067 78.9609 48.1343 78.8957C48.086 78.8779 48.0537 78.7669 48.0489 78.696C48.0416 78.5309 48.0497 78.3608 48.0497 78.1426ZM49.7298 79.7478C50.0996 79.7631 50.1745 79.6979 50.1793 79.3773C50.1842 79.0568 50.1028 78.9746 49.7298 78.9947V79.7478Z" fill="white"/>
<path d="M64.8043 74.6111L66.4096 73.6719C66.5263 73.8733 66.6263 74.0408 66.7197 74.2115C66.743 74.2543 66.7688 74.338 66.7503 74.3541C66.5376 74.5425 66.7189 74.6933 66.8002 74.8374C67.0419 75.2643 67.2835 75.6847 67.5357 76.1051C67.6161 76.2341 67.6565 76.4153 67.8835 76.342C67.9182 76.3308 67.9972 76.3984 68.0285 76.4468C68.1277 76.6014 68.2139 76.764 68.333 76.9719L66.6882 77.9385L66.3146 77.3182L66.4619 77.0766C66.1397 76.5224 65.8273 75.9731 65.5091 75.4262C65.4768 75.3706 65.4229 75.2796 65.3851 75.2828C64.9823 75.3166 64.9742 74.9494 64.8212 74.7359C64.8043 74.7174 64.8116 74.6851 64.8043 74.6111Z" fill="white"/>
<path d="M54.9036 81.7382L53.0123 81.9177C53.0446 81.5955 52.7956 81.3096 53.1348 81.0567C53.1815 81.022 53.1629 80.8827 53.1549 80.7942C53.0985 80.19 53.0373 79.5859 52.9768 78.9705C52.5323 78.8199 52.7006 78.4567 52.6668 78.1175L54.5371 77.9355C54.5604 78.1513 54.5837 78.3439 54.599 78.5364C54.6031 78.5855 54.5942 78.6677 54.566 78.6822C54.3244 78.8039 54.4001 79.0132 54.4171 79.2017C54.4605 79.685 54.5121 80.1739 54.5588 80.6604C54.5717 80.7942 54.5789 80.9182 54.7425 80.9738C54.7744 80.9927 54.8018 81.0184 54.8225 81.0491C54.8433 81.08 54.8569 81.115 54.8625 81.1517C54.8882 81.3281 54.8899 81.5134 54.9036 81.7382Z" fill="white"/>
<path d="M52.6151 31.6771C52.7061 30.9909 52.9751 30.6889 53.6139 30.5495C54.0892 30.4413 54.5794 30.4141 55.0638 30.469C54.6948 31.4709 53.5817 32.0203 52.6151 31.6771Z" fill="white"/>
<path d="M52.2591 30.1328C51.5092 31.341 50.8343 31.6446 49.8081 31.3668C49.7864 30.8585 50.032 30.4581 50.4952 30.2995C51.0517 30.1086 51.6277 30.0845 52.2591 30.1328Z" fill="white"/>
<path d="M54.9728 33.6078C54.3284 33.6118 53.7469 33.5216 53.2073 33.2598C52.7739 33.0496 52.604 32.6646 52.6023 32.1966C53.6898 31.901 54.3856 32.4198 54.9728 33.6078Z" fill="white"/>
<path d="M48.7911 29.9977C48.3625 31.2671 47.8245 31.7399 46.7226 31.7036C46.5864 31.3009 46.6961 30.8322 47.0448 30.5824C47.5421 30.2339 48.1212 30.0204 48.7258 29.9631C48.7443 29.9606 48.7685 29.9856 48.7911 29.9977Z" fill="white"/>
<path d="M57.4271 34.3289C56.7666 34.1864 56.2125 33.9882 55.7259 33.6354C55.3724 33.3793 55.2475 32.9339 55.3804 32.416C55.8911 32.4579 56.3921 32.5496 56.7497 32.9645C57.0671 33.335 57.266 33.7828 57.4271 34.3289Z" fill="white"/>
<path d="M49.8148 31.8112C50.5268 31.7355 51.1534 31.8112 51.6004 32.4283C51.7849 32.6819 51.9742 32.9341 52.1877 33.2225C52.1201 33.2527 52.0489 33.274 51.9758 33.2861C51.4606 33.2737 50.9514 33.1714 50.4712 32.984C49.9831 32.7851 49.7672 32.3992 49.8148 31.8112Z" fill="white"/>
<path d="M58.0609 31.1712C57.4528 32.1032 56.483 32.4076 55.4568 31.9622C55.5277 31.5523 55.7396 31.2462 56.1326 31.081C56.545 30.9071 57.6267 30.9659 58.0609 31.1712Z" fill="white"/>
<path d="M59.7904 33.4975C59.1074 33.6377 58.4839 33.6908 57.8637 33.5185C57.4762 33.4105 57.2322 33.0569 57.1646 32.6027C58.1932 32.1516 58.8592 32.4367 59.7904 33.4975Z" fill="white"/>
<path d="M43.748 34.1442C43.6519 34.2127 43.5487 34.2707 43.4403 34.3174C43.0134 34.4487 42.589 34.5977 42.1516 34.6806C41.6465 34.7757 41.218 34.4954 41.0013 33.9984C41.8439 33.3105 42.6188 33.3565 43.748 34.1442Z" fill="white"/>
<path d="M42.4019 31.3619C42.4656 32.484 41.8743 33.3248 40.8554 33.5625C40.7274 33.3794 40.6639 33.159 40.6748 32.936C40.6857 32.7128 40.7705 32.4997 40.9158 32.3301C41.3015 31.8941 41.7859 31.5566 42.3286 31.3458C42.348 31.3378 42.3769 31.3555 42.4019 31.3619Z" fill="white"/>
<path d="M46.8047 32.1432C47.4185 31.9411 48.0233 31.8138 48.596 32.264C48.8731 32.4815 49.143 32.7095 49.4667 32.9745C49.3193 33.0324 49.2437 33.0857 49.1655 33.0888C48.6927 33.1114 48.2167 33.1614 47.747 33.1268C47.209 33.0873 46.8844 32.7184 46.8047 32.1432Z" fill="white"/>
<path d="M43.8003 32.9362C44.4551 32.614 45.0841 32.482 45.7285 32.8984C45.9895 33.0667 46.2706 33.2069 46.5267 33.4799C45.9812 33.7138 45.3896 33.8208 44.7967 33.7933C44.2981 33.7732 43.971 33.4904 43.8003 32.9362Z" fill="white"/>
<path d="M45.5539 30.4902C45.2575 31.9134 44.7525 32.3976 43.6546 32.5039C43.5233 32.0777 43.5515 31.6661 43.8809 31.3472C44.3328 30.9114 44.9006 30.6714 45.5539 30.4902Z" fill="white"/>
<path d="M51.1856 19.8827C51.5312 19.8827 51.8848 19.8674 52.2376 19.8867C52.5904 19.9061 52.791 20.0752 52.8344 20.3531C52.8844 20.6753 52.7732 20.8501 52.4092 21.0152L52.2586 21.082C52.3947 21.2786 52.5195 21.4695 52.6557 21.6523C52.7918 21.8351 52.7797 22.1356 53.13 22.105C52.9037 22.2967 52.7837 22.3168 52.6202 22.1444C52.4947 21.9943 52.3838 21.8325 52.2892 21.6612C52.2217 21.5336 52.1478 21.4097 52.0677 21.2898C51.971 21.1682 51.8575 21.0482 51.6206 21.1287C51.6206 21.3889 51.6069 21.6628 51.6287 21.9342C51.6351 22.0236 51.7325 22.1058 51.7898 22.1952H51.1237C51.4764 21.8496 51.2976 21.4252 51.3073 21.0498C51.3169 20.6745 51.474 20.2444 51.1856 19.8827ZM51.644 21.0104C51.8558 20.9894 52.0153 20.9959 52.1602 20.9548C52.2303 20.9366 52.2957 20.9035 52.3519 20.8577C52.4079 20.812 52.4536 20.7546 52.4854 20.6896C52.5174 20.6246 52.5349 20.5534 52.5367 20.481C52.5386 20.4086 52.5247 20.3367 52.4961 20.2701C52.4011 20.0212 52.0081 19.8634 51.7632 19.9898C51.7322 20.0098 51.7059 20.0363 51.6862 20.0675C51.6664 20.0986 51.6536 20.1337 51.6488 20.1703C51.636 20.4296 51.644 20.6882 51.644 21.012V21.0104Z" fill="white"/>
<path d="M71.5228 27.3293C72.0391 27.5895 72.2525 28.0437 72.1003 28.6092C72.0459 28.8287 71.9337 29.0296 71.7755 29.1912C71.6173 29.3527 71.4188 29.4691 71.2006 29.5282C70.7649 29.6619 70.3951 29.5226 70.0729 29.2149C69.543 28.7026 69.6372 27.8456 70.2646 27.3856C70.6328 27.1175 71.2417 27.0128 71.5357 27.3438C70.7713 27.3325 70.2122 27.712 69.9997 28.3845C69.9046 28.6857 69.9384 28.9636 70.1728 29.1899C70.4072 29.4162 70.6972 29.4195 70.9856 29.3067C71.2677 29.1868 71.507 28.9847 71.6726 28.7268C72.0351 28.2089 72.0036 27.8545 71.5566 27.4002C71.542 27.3784 71.5306 27.3545 71.5228 27.3293Z" fill="white"/>
<path d="M68.925 25.28C69.2133 25.4235 69.3278 25.6828 69.372 25.9777C69.4581 26.568 69.0562 27.1657 68.4981 27.3702C67.7788 27.6336 66.8066 26.941 66.9991 26.0396C67.198 25.1109 68.1638 24.6889 68.9 25.2286C68.9185 25.2422 68.9266 25.272 68.9395 25.2946C68.631 25.1673 68.3265 25.0626 68.0052 25.2728C67.6429 25.4964 67.3802 25.8504 67.2714 26.2619C67.186 26.5841 67.2198 26.8919 67.513 27.1134C67.7877 27.3203 68.0824 27.3114 68.4272 27.0884C69.066 26.676 69.2609 25.9664 68.925 25.28Z" fill="white"/>
<path d="M40.5358 22.5997C40.7846 23.0943 40.7943 23.7113 41.3412 24.0987L40.8684 24.2775C40.8461 24.03 40.8098 23.7839 40.7597 23.5405C40.6896 23.2739 40.5648 23.021 40.485 22.756C40.3956 22.4596 40.278 22.2067 39.8406 22.2244C40.1628 21.9884 40.3827 21.9691 40.655 22.1592C41.0875 22.462 41.5474 22.723 41.9969 23.0025C42.0701 23.0476 42.1515 23.083 42.3191 23.1636C42.0621 22.5635 42.0242 21.9642 41.4943 21.5623L41.9405 21.3867C41.9839 21.6557 41.9969 21.8901 42.0637 22.1116C42.1838 22.5023 42.3384 22.8825 42.4745 23.2675C42.5212 23.398 42.5551 23.5325 42.5969 23.6646L42.5245 23.7201L40.6074 22.5345L40.5358 22.5997Z" fill="white"/>
<path d="M57.5689 22.6975C58.0916 22.9391 58.4436 22.923 58.8826 22.6363L58.6796 23.1018L57.0905 22.7442C57.1711 22.629 57.2838 22.5332 57.3136 22.4164C57.4457 21.892 57.5487 21.3596 57.6752 20.8345C57.7147 20.6685 57.6905 20.5534 57.5439 20.4414L59.1646 20.8127C59.1501 20.9513 59.1388 21.064 59.1266 21.18C58.9543 21.0455 58.8149 20.8981 58.6433 20.8135C58.4719 20.729 58.2729 20.7096 58.036 20.6524C57.9603 20.9867 57.8944 21.2743 57.8258 21.5771C58.1263 21.6681 58.3817 21.7793 58.6821 21.5537C58.6442 21.7463 58.6144 21.8961 58.5709 22.1135C58.38 21.7914 58.1109 21.739 57.7944 21.7108C57.7171 22.0499 57.6446 22.3681 57.5689 22.6975Z" fill="white"/>
<path d="M54.8434 21.0546C55.1518 21.1996 55.4071 21.1988 55.6802 21.0014C55.6672 21.177 55.6569 21.3164 55.6416 21.5363C55.3999 21.239 55.1373 21.2101 54.8159 21.2439C54.7773 21.5781 54.7354 21.8995 54.6999 22.2386C55.1623 22.4086 55.5667 22.3925 55.9943 22.0534L55.8413 22.5117L54.2198 22.3256C54.29 22.1919 54.3914 22.0759 54.4115 21.9462C54.4921 21.438 54.5453 20.9257 54.6106 20.4159C54.6322 20.2491 54.6315 20.0937 54.4495 19.9922L56.0733 20.1807C56.0805 20.3071 56.0869 20.4223 56.0966 20.5721C56.0545 20.5493 56.0149 20.5223 55.9782 20.4916C55.7576 20.2072 55.4216 20.2137 55.1147 20.1694C55.0632 20.1613 54.9536 20.2918 54.9319 20.3732C54.8835 20.5826 54.8723 20.8073 54.8434 21.0546Z" fill="white"/>
<path d="M45.565 22.7665L45.4369 22.2712C45.5908 22.396 45.6834 22.5063 45.8026 22.5579C45.9467 22.6222 46.1023 22.6562 46.2601 22.6578C46.3729 22.656 46.4817 22.6147 46.5673 22.5411C46.6529 22.4676 46.7101 22.3663 46.7288 22.255C46.7668 22.0239 46.6846 21.8676 46.4324 21.7589C46.1409 21.6332 45.8461 21.5172 45.5465 21.4166C45.1784 21.2949 45.1188 20.7722 45.428 20.545C45.5797 20.4432 45.7518 20.3756 45.9323 20.3469C46.1095 20.3139 46.2979 20.3397 46.5211 20.3397C46.5574 20.4822 46.5952 20.6272 46.6323 20.7722C46.4131 20.5459 46.186 20.4017 45.8702 20.4419C45.6504 20.4693 45.4821 20.5877 45.4627 20.7569C45.4393 20.9582 45.5618 21.0831 45.7285 21.154C45.9839 21.2627 46.2497 21.3449 46.5058 21.4512C46.8811 21.6083 47.0011 21.7983 46.9625 22.1439C46.927 22.4556 46.7135 22.6795 46.3584 22.7303C46.1102 22.7617 45.8582 22.7536 45.565 22.7665Z" fill="white"/>
<path d="M32.8999 29.2535C32.9547 28.7428 32.4972 28.8234 32.291 28.5874L31.7063 29.0908C31.8343 29.3872 31.7997 29.7553 32.2555 29.8326C32.1154 29.9606 31.993 30.0743 31.8802 30.1758C31.8297 29.9175 31.766 29.6622 31.6893 29.4106C31.5234 28.9506 31.3293 28.5012 31.1513 28.0453C31.111 27.9414 31.0885 27.831 31.0345 27.6426C31.2286 27.7352 31.3446 27.7851 31.4558 27.844C31.9471 28.1033 32.4344 28.3699 32.9282 28.6237C33.0809 28.6877 33.2377 28.7415 33.3977 28.7848L32.8999 29.2535ZM31.662 29.003C31.8431 28.8419 31.9841 28.7139 32.1702 28.5431C31.8561 28.4053 31.6491 28.2071 31.3011 28.1637L31.662 29.003Z" fill="white"/>
<path d="M48.9995 20.0939C49.0172 20.3356 49.031 20.5563 49.0503 20.777C49.0824 21.158 49.1235 21.5381 49.151 21.9199C49.1623 22.081 49.1969 22.2083 49.3853 22.2735L48.7321 22.3541C48.7788 22.222 48.8537 22.1124 48.8464 22.0109C48.8046 21.394 48.7434 20.7786 48.6853 20.1721C48.2907 20.0915 48.1707 20.1431 47.8348 20.5498C47.8244 20.3742 47.8164 20.2413 47.8066 20.0778L49.8332 19.8926C49.8541 20.0351 49.8718 20.1576 49.9001 20.3541C49.627 20.1149 49.3725 19.9852 48.9995 20.0939Z" fill="white"/>
<path d="M38.3206 24.4133C38.1595 24.8159 38.2401 25.1712 38.5727 25.35L38.0798 25.6021C38.2699 24.7161 37.9533 23.8825 37.9815 22.9844C38.0664 23.0269 38.1472 23.0771 38.2231 23.1342C38.6573 23.5409 39.0825 23.9566 39.5199 24.3601C39.6563 24.4708 39.7997 24.5725 39.9493 24.6646L39.466 24.9191C39.4337 24.5711 39.1857 24.419 38.9738 24.265C38.8933 24.2095 38.7112 24.3038 38.5759 24.3286L38.7725 24.0419L38.199 23.5079L38.1184 23.5514C38.1877 23.8382 38.0452 24.1635 38.3206 24.4133Z" fill="white"/>
<path d="M29.4945 29.2539L29.8706 29.601C29.468 29.5599 29.1941 29.6461 29.0015 29.9836L29.7055 30.6232C29.9109 30.8093 30.1147 30.9969 30.3218 31.1798C30.4562 31.2989 30.5851 31.4632 30.805 31.2973L30.3483 31.816C30.2815 31.6832 30.2476 31.5326 30.1542 31.4456C29.6846 31.0074 29.1997 30.5861 28.7043 30.1415L29.4945 29.2539Z" fill="white"/>
<path d="M61.6963 21.6517C61.5852 21.6517 61.4901 21.663 61.4467 21.7919C61.2573 22.3557 61.0584 22.9131 60.8755 23.4777C60.849 23.5583 60.8885 23.6638 60.9005 23.7999L60.307 23.5977C60.4052 23.5172 60.5485 23.4527 60.584 23.3561C60.7878 22.8003 60.9674 22.2341 61.1526 21.6711C61.1589 21.6286 61.1589 21.5855 61.1526 21.543C60.8562 21.3618 60.5816 21.3908 60.2529 21.6598C60.3118 21.4641 60.3496 21.3376 60.4035 21.1523C60.8466 21.3537 61.3146 21.3763 61.6859 21.6678L61.6963 21.6517Z" fill="white"/>
<path d="M65.3538 24.421C65.2796 24.4701 65.179 24.5016 65.138 24.5725C64.9977 24.8093 64.8785 25.0558 64.7449 25.3151L64.9494 25.5422L64.9253 25.5777L64.2133 25.2056C64.4347 25.2104 64.5225 25.0799 64.6039 24.9236C64.8351 24.4798 65.0751 24.0376 65.3094 23.5962C65.39 23.4488 65.5003 23.2974 65.2072 23.1613L65.3247 23.1113L65.9764 23.56L65.9844 23.5511C65.7895 23.4915 65.6542 23.5511 65.5817 23.746C65.4963 23.9716 65.2756 24.1488 65.3497 24.429L65.3538 24.421Z" fill="white"/>
<path d="M74.1718 30.0216L73.8005 29.7606L72.3071 31.0897L72.5488 31.4866L71.8118 30.8286L71.8473 30.748C71.9809 30.8286 72.0961 30.8858 72.2314 30.7593C72.643 30.3735 73.0715 30.0062 73.488 29.6245C73.5577 29.5418 73.6179 29.4515 73.6675 29.3555C73.8391 29.5713 74.1219 29.7034 74.1718 30.0216Z" fill="white"/>
<path d="M72.6567 31.595C72.8267 31.6804 73.0143 31.7246 73.2044 31.7241C73.3946 31.7237 73.582 31.6785 73.7515 31.5923C73.9209 31.506 74.0677 31.3812 74.1802 31.2277C74.2925 31.0743 74.3671 30.8966 74.3982 30.709C74.4416 30.4545 74.3498 30.2435 74.2025 30.0469C74.3648 30.1581 74.4905 30.3149 74.5637 30.4976C74.637 30.6802 74.6545 30.8805 74.614 31.0731C74.4303 31.8568 73.4574 32.2764 72.8316 31.835C72.7542 31.7835 72.7139 31.6771 72.6567 31.595Z" fill="white"/>
<path d="M29.2199 33.1729L28.8567 33.6658C28.781 33.5566 28.6947 33.4551 28.5989 33.363C28.1962 33.0456 27.779 32.7379 27.3641 32.4318C27.2385 32.3384 27.1072 32.1991 26.9404 32.4448L26.9001 32.3561L27.3327 31.7754C27.3085 31.9768 27.4012 32.0895 27.5535 32.1983C27.9521 32.4817 28.342 32.7773 28.7278 33.0787C28.8808 33.1978 29.0209 33.2832 29.2199 33.1729Z" fill="white"/>
<path d="M35.261 24.5646L35.7443 24.2617C36.1123 24.8626 36.4579 25.4385 36.8187 26.0031C36.8695 26.0837 37.0008 26.1078 37.1175 26.1698C36.9161 26.2923 36.7153 26.4152 36.515 26.5387C36.5916 26.3833 36.6125 26.252 36.5085 26.0917C36.2274 25.66 35.9689 25.2138 35.6967 24.7756C35.5718 24.5686 35.567 24.5718 35.261 24.5646Z" fill="white"/>
<path d="M34.8742 27.5789L34.3741 28.0767C34.3319 27.948 34.2779 27.8234 34.213 27.7046C33.8996 27.2648 33.5686 26.8348 33.2577 26.3949C33.161 26.2604 33.0563 26.196 32.8734 26.2338L33.3567 25.8633C33.411 26.013 33.4786 26.1576 33.5589 26.2951C33.8392 26.6978 34.1477 27.0731 34.4215 27.4767C34.5577 27.6772 34.697 27.6853 34.8831 27.5837L34.8742 27.5789Z" fill="white"/>
<path d="M37.9349 34.8933C38.3377 34.8288 38.6776 34.8079 38.9974 34.7144C39.3242 34.6126 39.6397 34.4777 39.939 34.3117C40.2313 34.1547 40.5027 33.9508 40.8169 33.7422C40.6735 34.3496 38.527 35.2984 37.9349 34.8933Z" fill="white"/>
<path d="M34.8781 27.5883C34.9875 27.4772 35.0882 27.3579 35.1794 27.2315C35.264 27.0771 35.3387 26.9176 35.4033 26.7539L35.6249 27.0882C35.3671 27.2774 35.1875 27.5279 34.8708 27.5803L34.8781 27.5883Z" fill="white"/>
<path d="M65.9763 23.5604L66.7938 23.8907L66.6392 24.2797C66.5756 23.877 66.2035 23.7828 65.9853 23.5508L65.9763 23.5604Z" fill="white"/>
<path d="M61.6855 21.662L62.3654 21.7836L62.2252 22.221C62.131 21.9302 61.891 21.811 61.6953 21.6523L61.6855 21.662Z" fill="white"/>
<path d="M28.5789 30.2695C28.5201 30.5643 28.4733 30.7987 28.4178 31.0628L28.1182 30.7962L28.5789 30.2695Z" fill="white"/>
<path d="M65.3459 24.4295C65.4459 24.4553 65.5441 24.4868 65.6448 24.5061C65.7777 24.531 65.913 24.5455 66.083 24.5697L65.8944 24.9652C65.824 24.8585 65.7458 24.7571 65.6609 24.6615C65.5638 24.5745 65.4613 24.4938 65.354 24.4199L65.3459 24.4295Z" fill="white"/>
</g>
</svg>
