<svg width="100" height="100" viewBox="0 0 100 100" fill="none" xmlns="http://www.w3.org/2000/svg">
<mask id="mask0_531_2" style="mask-type:luminance" maskUnits="userSpaceOnUse" x="4" y="8" width="92" height="84">
<path d="M95.9677 8H4V91.3015H95.9677V8Z" fill="white"/>
</mask>
<g mask="url(#mask0_531_2)">
<path d="M35.0541 40.9272C36.371 42.7287 37.5707 44.3455 38.7637 45.9736C39.2499 46.6357 39.1802 47.2662 38.5251 47.7391C37.6968 48.3381 37.4897 49.133 37.5212 50.0968C37.564 51.4074 37.5212 52.7225 37.5212 54.0354C37.5212 55.3482 38.0074 55.8369 39.2702 55.8369C42.0074 55.8549 44.7468 55.8234 47.484 55.8549C48.2335 55.8549 48.4519 55.5666 48.4496 54.8573C48.43 50.4301 48.43 46.0013 48.4496 41.5712C48.4496 40.8956 48.2898 40.5038 47.52 40.5286C47.1193 40.5421 46.7164 40.416 46.2077 40.3372C46.2077 38.6753 46.1717 37.0674 46.2504 35.4664C46.2504 35.2592 46.8807 34.8989 47.1936 34.9237C48.2448 35.0092 48.6387 34.6084 48.4947 33.5725C48.455 33.2735 48.455 32.9708 48.4947 32.6718C48.6365 31.4558 48.2245 30.6181 47.2026 29.8209C44.3641 27.6118 44.1615 23.3512 46.6354 20.7323C49.1092 18.1134 53.4513 18.1224 55.9093 20.7323C56.495 21.356 56.9475 22.0925 57.2394 22.8968C57.5314 23.7011 57.6568 24.5564 57.6077 25.4107C57.5586 26.265 57.3362 27.1003 56.954 27.8659C56.572 28.6314 56.0381 29.3112 55.3849 29.8637C54.1513 30.886 53.5661 32.9037 54.1198 34.3877C54.1867 34.5057 54.279 34.6073 54.3899 34.6852C54.5009 34.7631 54.6276 34.8153 54.7613 34.8381C55.2968 34.8811 55.8344 34.8878 56.3708 34.8584C56.3708 36.6283 56.4113 38.306 56.3168 39.9769C56.3055 40.1863 55.5762 40.5038 55.1733 40.5151C54.3922 40.5353 54.1468 40.8101 54.1536 41.587C54.1806 45.9781 54.1806 50.3693 54.1536 54.7605C54.1536 55.6207 54.453 55.8481 55.2633 55.8346C57.8879 55.7963 60.5148 55.8346 63.1417 55.8143C64.5103 55.8143 64.9425 55.3482 64.9605 53.9858C64.9605 52.5221 65.0347 51.0584 64.9244 49.5969C64.8697 48.9513 64.5994 48.3428 64.1569 47.8697C63.4005 47.1379 63.3735 46.4871 63.9318 45.7012C64.3054 45.1855 64.6746 44.663 65.0573 44.1586C65.8293 43.1475 66.6149 42.1319 67.5198 40.979C68.7871 42.7332 70.0566 44.3793 71.1731 46.1245C71.3825 46.451 71.1461 47.345 70.8152 47.6783C70.5134 47.9548 70.2761 48.2944 70.1203 48.6732C69.9648 49.0519 69.8946 49.4604 69.9148 49.8694C69.9553 52.2316 69.9148 54.5983 69.9463 56.9606C69.9711 59.9173 67.9497 61.9867 64.9605 62.0025C62.2593 62.0183 59.5581 62.034 56.857 61.9867C56.3138 61.9512 55.7711 62.0629 55.2863 62.3101C54.8012 62.5576 54.3922 62.9312 54.1018 63.3919C53.4265 64.3805 52.6769 65.3218 51.9656 66.2878C51.5154 66.8936 51.081 66.9184 50.6151 66.3059C49.852 65.2835 49.0596 64.2792 48.3281 63.241C47.7091 62.3583 46.8852 61.9912 45.834 61.998C43.2071 62.0138 40.5825 61.998 37.9556 62.0205C34.3698 62.0363 32.2877 59.6921 32.5308 56.1229C32.6485 53.8725 32.6524 51.6177 32.5421 49.3672C32.5263 48.8448 32.1684 48.2278 31.779 47.8472C31.1037 47.1829 30.9124 46.5726 31.4886 45.7845L35.0541 40.9272ZM47.9747 24.9388C47.9567 26.6818 49.5076 28.2941 51.2161 28.3166C52.9245 28.3392 54.525 26.7764 54.5588 25.0469C54.5599 24.1618 54.2159 23.3111 53.6003 22.6754C52.9847 22.0397 52.1455 21.669 51.2611 21.6421C49.5323 21.6308 47.9927 23.1846 47.9747 24.9456V24.9388Z" fill="white"/>
<path d="M63.083 11.5619C63.9834 11.8682 64.9378 12.2375 65.926 12.5167C66.1376 12.5798 66.4302 12.3591 66.6846 12.2668C66.5698 11.9943 66.5315 11.607 66.3244 11.4718C65.4616 10.876 64.5531 10.3489 63.6075 9.89553C63.137 9.68161 62.5248 9.77393 61.9778 9.7289C61.8945 9.84149 61.8135 9.95408 61.7324 10.0712L61.1922 8.50837C61.7009 8.35524 62.2096 8.07375 62.7206 8.06925C67.1482 8.03547 71.5781 7.93639 76.0013 8.06925C82.0429 8.26066 86.3872 12.85 86.3827 18.3446C86.3708 35.4244 86.3708 52.504 86.3827 69.5838C86.3827 75.4004 81.3496 79.8051 76.0913 79.7983C69.8269 79.7983 63.5625 79.7983 57.2958 79.7781C56.8028 79.7781 56.3099 79.5034 55.8169 79.3547L55.8529 78.9381L57.7235 77.9248C57.5749 77.5577 57.4443 77.2267 57.3205 76.9182C58.1669 77.3551 58.9863 77.8347 59.8551 78.195C60.1703 78.3279 60.6047 78.177 60.9806 78.1545C60.8118 77.828 60.7105 77.4339 60.4629 77.1839C59.7876 76.4971 59.0425 75.8666 58.3245 75.2158C58.7454 74.0786 59.6435 73.984 60.5597 73.9817C63.747 73.9817 66.9367 73.9817 70.124 73.9817C72.1116 73.9817 74.106 74.0245 76.0846 73.8737C78.9478 73.6485 80.3614 72.1284 80.6023 69.2505C80.6338 68.8767 80.6203 68.5007 80.6203 68.1246C80.6203 51.9471 80.6203 35.7689 80.6203 19.5899C80.6203 19.403 80.6203 19.2138 80.6203 19.0269C80.5572 15.6896 78.7947 13.8814 75.4431 13.8228C72.7419 13.7755 70.0407 13.7305 67.3396 13.8476C65.3565 13.9399 63.7628 13.5548 63.083 11.5619ZM64.4674 78.1973C62.9187 76.1526 61.208 74.9185 59.8394 75.7044C60.8996 77.5285 62.6531 78.5035 64.4674 78.1973ZM63.0222 75.8913C64.3098 77.0601 65.2034 78.5936 67.2338 78.2783C66.6395 76.2516 64.7915 75.1482 63.0222 75.8913ZM84.7823 62.3575C82.797 62.9565 81.6647 65.0238 82.5539 66.4109C84.3749 65.1544 85.129 63.7807 84.7823 62.3575ZM72.0418 10.0081C73.7458 12.26 75.227 12.9738 76.1566 11.9965C74.6912 9.85274 73.6625 9.33256 72.0418 10.0081ZM84.8723 36.7199C82.4953 37.8616 81.5904 39.6473 82.7137 40.9354C83.7581 39.7239 85.2865 38.8051 84.8723 36.7199ZM84.8048 65.5732C82.8172 66.0934 81.6985 68.0751 82.5854 69.5028C84.3141 68.4444 85.12 67.0189 84.8048 65.5732ZM82.5133 60.1349C83.7198 58.9122 85.0839 57.9416 84.8318 55.9937C82.7587 56.5274 81.6647 58.4348 82.5133 60.1349ZM66.3469 75.8823C67.7988 77.909 69.2574 78.6724 70.4617 78.0689C69.2912 75.9048 67.9293 75.1572 66.3469 75.8823ZM82.5539 37.9652C83.6523 36.5803 85.2708 35.7133 84.8768 33.6461C82.7362 34.5018 81.8268 36.0871 82.5606 37.9697L82.5539 37.9652ZM84.8228 39.9919C82.6777 40.8926 81.748 42.5883 82.5223 44.0655C84.2421 43.0522 85.0974 41.5727 84.8296 39.9964L84.8228 39.9919ZM84.8791 20.9252C82.6461 21.826 81.6647 23.6275 82.6281 25.1025C83.7829 23.9292 85.2055 22.9947 84.8858 20.9185L84.8791 20.9252ZM82.5448 31.4212C84.6 29.7819 85.1942 28.6357 84.735 27.271C82.6214 28.2393 81.703 29.8945 82.5516 31.4145L82.5448 31.4212ZM84.8949 43.1152C82.5696 44.1173 81.5859 46.0021 82.6799 47.2992C83.7986 46.1282 85.2055 45.1757 84.9016 43.1085L84.8949 43.1152ZM84.5144 17.8424C82.914 18.6418 81.829 20.6888 82.313 22.0016C84.3704 20.9703 85.237 19.3354 84.5212 17.8357L84.5144 17.8424ZM69.9732 12.1767C68.7037 10.2491 67.1415 9.43389 65.881 10.0442C66.9029 11.7511 68.7059 13.2598 69.98 12.1699L69.9732 12.1767ZM72.5956 75.9048C73.9124 77.8752 75.4903 78.6904 76.7238 78.0802C75.6434 76.0985 74.2073 75.3126 72.6023 75.8891L72.5956 75.9048ZM84.9039 49.5714C82.8037 50.2807 81.6805 52.2871 82.5448 53.8499C83.6276 52.5641 85.192 51.6724 84.9106 49.5556L84.9039 49.5714ZM84.5685 59.1576C82.3175 60.6641 81.6084 62.1098 82.3873 63.4362C84.3996 61.8103 85.0051 60.6596 84.5752 59.1374L84.5685 59.1576ZM69.0593 9.92481C69.6806 11.7984 71.3846 12.7712 72.9265 12.1339C72.0756 10.2423 70.6035 9.40012 69.0661 9.90904L69.0593 9.92481ZM82.3603 34.7495C84.3614 33.4141 85.1852 31.8603 84.546 30.6331C82.7564 31.7117 81.4959 33.4839 82.367 34.7337L82.3603 34.7495ZM84.8926 24.0914C82.6754 25.0237 81.7413 26.7193 82.5921 28.3474C83.7176 27.0954 85.2212 26.1834 84.8994 24.0756L84.8926 24.0914ZM83.4362 14.2664C83.1774 15.9418 81.8245 17.106 82.2027 18.858C84.5572 17.7433 85.1222 15.9013 83.443 14.2507L83.4362 14.2664ZM73.4622 77.9766C72.384 76.1481 70.5945 74.9163 69.3452 75.7427C70.4257 77.6028 72.1566 78.5395 73.469 77.9608L73.4622 77.9766ZM84.6 52.7916C82.349 54.3679 81.7007 55.6177 82.3625 56.9823C84.3254 55.6289 85.0974 54.2283 84.6067 52.7758L84.6 52.7916ZM82.4616 50.2965C84.5279 48.9634 85.1942 47.7203 84.5302 46.5246C82.3963 47.9298 81.8448 48.9161 82.4683 50.2807L82.4616 50.2965ZM75.9338 75.2631C76.8679 77.837 78.6664 78.517 80.2106 76.9227L75.9338 75.2631ZM81.5814 12.3546V16.7322C83.2967 15.0613 83.6613 12.8387 81.5792 12.3388L81.5814 12.3546ZM78.5494 13.7057C79.0266 12.4356 78.5696 11.5799 78.0429 10.8211C77.4734 10.0036 76.6203 10.0712 75.5353 10.3954L78.5494 13.7057ZM78.7587 11.1971L80.4897 15.0411C81.3181 14.0052 81.1808 13.145 80.9399 12.3095C80.663 11.3547 79.9607 11.0552 78.7565 11.1723L78.7587 11.1971ZM83.6973 72.5248L83.2877 72.1375L79.6501 73.939C80.6946 74.7789 81.6377 74.6145 82.3715 74.1979C82.941 73.8466 83.2629 73.0787 83.6951 72.5068L83.6973 72.5248ZM77.9979 74.9748C79.452 76.8146 81.4734 76.8011 82.223 74.9748H77.9979ZM81.1042 71.6961C82.2455 71.9956 83.3012 72.0023 83.9585 71.1489C84.3186 70.6805 84.2826 69.9081 84.4244 69.2731L83.99 69.0794L81.1042 71.6961Z" fill="white"/>
<path d="M34.6761 9.90259L36.666 11.4519L38.5658 12.9246C38.1651 13.8794 37.3435 13.8411 36.5782 13.8434C33.5776 13.8591 30.5771 13.8434 27.5743 13.8434C27.123 13.8406 26.6719 13.8661 26.2237 13.92C23.4348 14.2938 21.9469 15.9466 21.9469 18.766C21.9041 27.8883 21.8569 37.0062 21.8546 46.1331C21.8546 53.6769 21.9086 61.2207 21.9401 68.769C21.9559 72.2796 23.6531 74.0023 27.2074 74.0158C31.8219 74.0361 36.4364 74.0001 41.0508 73.9956C41.5778 73.9776 42.1052 74.0077 42.6265 74.0856C43.07 74.1449 43.4873 74.3288 43.8299 74.6164C44.1727 74.9038 44.4266 75.283 44.5623 75.7092C43.9186 75.5696 43.3828 75.4278 42.8381 75.3489C42.7359 75.3397 42.633 75.3512 42.5356 75.3829C42.4381 75.4147 42.3481 75.466 42.2709 75.5336C42.2382 75.6153 42.2267 75.7041 42.2373 75.7914C42.2479 75.8786 42.2803 75.9619 42.3316 76.0335C43.2703 77.0559 44.1707 78.1143 45.6833 78.3439C46.0615 78.4002 46.6963 78.765 46.6963 78.988C46.6963 79.6635 46.1425 79.8167 45.4987 79.8054C43.698 79.7716 41.8972 79.8054 40.0964 79.8054C35.671 79.8054 31.2411 79.7491 26.8157 79.8189C21.1883 79.909 16.1304 75.2589 16.1687 69.2351C16.279 52.3032 16.2632 35.3713 16.2182 18.4395C16.2047 13.1408 20.2879 8.24071 26.7392 8.08082C31.2411 7.96598 35.7431 8.04029 40.245 8.08082C40.6682 8.08082 41.0869 8.50642 41.5078 8.73386C41.2332 9.10542 41.0283 9.61435 40.6614 9.80576C40.3643 9.95889 39.8691 9.72695 39.4617 9.65939C39.0542 9.59184 38.6716 9.51977 37.9265 9.38691L39.1555 11.1074C37.8275 10.3777 36.6817 9.20676 34.6761 9.90259ZM18.0797 54.5844C19.0004 53.1342 21.006 52.4 20.2519 50.1955C18.082 51.2223 17.1974 52.9157 18.082 54.5844H18.0797ZM17.6295 48.0314C19.1287 47.3874 20.3307 46.1263 20.3532 45.1287C20.3667 44.7076 20.1596 44.2798 19.9953 43.6245C18.6943 45.0634 17.2964 46.0227 17.6273 48.0314H17.6295ZM19.9075 18.4079C17.992 19.705 17.2064 21.2701 17.8344 22.5018C19.9593 21.4772 20.8237 19.7703 19.9053 18.4079H19.9075ZM39.0722 75.8624C40.3778 77.7112 41.8859 78.5331 43.2028 78.1143C42.2956 75.9772 40.4993 74.9999 39.07 75.8624H39.0722ZM32.7043 75.8849C33.9986 77.7675 35.4549 78.5466 36.7943 78.1165C36.0267 76.0921 34.2259 75.0832 32.702 75.8849H32.7043ZM19.9751 40.697C18.082 41.9716 17.2086 43.6245 17.7669 44.881C19.5654 43.9195 21.1703 41.9266 19.9751 40.697ZM33.0802 12.2085C31.8444 10.0309 30.1764 9.17973 28.9451 10.0962C30.3452 11.8955 31.9434 13.1363 33.0802 12.2085ZM35.9276 75.6597C36.828 77.6098 38.3744 78.4881 39.8533 77.9566C39.178 76.1123 37.7419 75.2431 35.9276 75.6597ZM26.4736 75.9277C27.3582 77.7697 28.9902 78.6705 30.3633 78.0715C29.5732 76.0943 27.9007 75.1733 26.4781 75.9277H26.4736ZM18.019 28.7103C19.9615 27.8748 20.8732 26.1657 20.1146 24.783C18.1203 25.8819 17.3437 27.3479 18.019 28.7103ZM20.1956 37.5467C18.046 38.5262 17.0713 40.5169 18.199 41.6226C20.5986 39.3009 20.8034 38.882 20.1844 37.5467H20.1956ZM17.9222 67.1521C20.2001 65.4925 20.8484 64.2697 20.1596 62.9456C18.172 63.8936 17.3639 65.3596 17.9109 67.1521H17.9222ZM19.9863 59.7569C17.9379 61.2679 17.2356 62.5988 17.7939 63.8418C19.9525 62.7947 20.7832 61.2972 19.9751 59.7569H19.9863ZM20.2362 27.6992C18.2441 29.0661 17.4337 30.6536 18.1135 31.8584C20.2699 30.3564 20.9205 29.0796 20.2249 27.6992H20.2362ZM20.2632 56.4557C17.8997 57.9262 17.1253 59.579 18.2238 60.7478C19.1444 59.4664 20.9452 58.6603 20.2519 56.4557H20.2632ZM20.2137 53.1724C18.0752 54.6474 17.2874 56.1945 18.0617 57.478C19.1737 56.2598 20.9452 55.4491 20.2024 53.1724H20.2137ZM20.2137 21.1958C17.9875 22.9567 17.2874 24.4587 18.1878 25.5734C19.3245 24.3754 20.9452 23.4296 20.2069 21.2003L20.2137 21.1958ZM25.8141 9.98141C27.1646 12.0531 28.5467 12.7512 29.7893 12.0374C28.8461 10.1233 27.3717 9.33061 25.8073 9.9859L25.8141 9.98141ZM17.7939 35.2137C19.8445 33.9256 21.0735 32.3898 20.0178 30.8901C18.9689 32.1737 17.3302 33.0159 17.7939 35.2137ZM36.3711 12.2265C35.3221 10.425 33.6272 9.47924 32.2878 9.93637C33.1972 11.7446 34.9012 12.9539 36.3598 12.2265H36.3711ZM29.3053 75.6394C30.5388 77.6661 32.1685 78.5218 33.6001 77.9071C32.4431 76.6348 31.5248 75.081 29.294 75.6394H29.3053ZM20.1326 46.8784C18.0122 48.4548 17.3324 49.8194 18.0167 51.0332C20.342 49.2452 20.7629 48.4457 20.1214 46.8784H20.1326ZM19.0071 73.4146C19.4573 71.9734 20.7179 70.8204 20.2384 69.0752C17.9447 70.271 17.3549 72.2368 19.0026 73.4146H19.0071ZM20.1439 34.1418C18.0572 35.6776 17.409 36.9026 17.9087 38.301C19.8963 37.013 20.9565 35.6123 20.1439 34.1418ZM17.9559 70.0683C19.6487 68.7014 20.9632 67.3187 20.0403 66.123C18.1068 67.321 17.4315 68.5505 17.9559 70.0705V70.0683ZM26.3926 12.5756L26.6177 12.3279C26.0819 11.3911 25.5552 10.353 24.3509 10.1751C23.7342 10.0827 23.0499 10.4408 22.3948 10.5962L22.4264 11.0646L26.3926 12.5756ZM24.1281 74.4504C23.7364 77.1054 25.2536 78.4633 26.953 77.5265L24.1281 74.4504ZM20.9205 71.4825L20.6053 71.4082C19.9931 72.39 19.1692 73.3425 19.6036 74.6374C19.741 75.0472 20.3172 75.3129 20.9205 75.8421V71.4825ZM20.2857 12.6206L20.5108 12.9787H24.5625C23.6981 12.1027 22.7617 11.3618 21.5372 11.6275C21.0713 11.7131 20.6999 12.2693 20.2857 12.6161V12.6206ZM18.2981 19.0339L21.5642 16.1268C18.8878 15.8341 17.8929 16.7145 18.2981 19.0295V19.0339ZM18.8901 15.9511L22.8 14.1384C20.378 13.2331 19.347 13.724 18.8901 15.9466V15.9511ZM23.7432 76.6776L22.1315 73.1579C21.1703 75.1891 21.7511 77.1527 23.7432 76.6731V76.6776Z" fill="white"/>
<path d="M19.9097 91.2986C19.2213 91.2833 18.5451 91.1135 17.9311 90.8016C17.317 90.4899 16.7809 90.0441 16.3622 89.4971C16.0706 89.1143 15.858 88.6772 15.7368 88.2113C15.6156 87.7454 15.5883 87.2601 15.6564 86.7836C15.7245 86.3071 15.8866 85.8488 16.1334 85.4354C16.3801 85.0221 16.7066 84.6621 17.0938 84.3763C18.042 83.6647 19.1886 83.2668 20.3737 83.238C21.5588 83.2094 22.7233 83.5514 23.7049 84.2164C24.2201 84.5792 24.6363 85.0652 24.9154 85.6304C25.1944 86.1954 25.3275 86.8214 25.3024 87.4513C25.2774 88.0811 25.095 88.6945 24.7718 89.2356C24.4487 89.7768 23.9952 90.228 23.4528 90.5487C22.5614 91.0644 21.643 91.2986 19.9097 91.2986Z" fill="white"/>
<path d="M95.9677 83.4258V91.0551H94.3109V88.4114H91.0673L89.1697 91.0326H87.2429C87.8349 90.1319 88.4247 89.2311 89.0302 88.2921C88.8951 88.1975 88.7848 88.1052 88.6633 88.0354C87.5671 87.4094 87.3127 86.4591 87.5378 85.2768C87.7426 84.2027 88.4697 83.6172 89.7077 83.4753C90.0818 83.4427 90.4577 83.4305 90.8332 83.4393L95.9677 83.4258Z" fill="white"/>
<path d="M26.7166 91.0483V83.4414H29.6293C30.649 83.4414 31.6687 83.4414 32.6884 83.4414C34.4284 83.4594 35.5741 84.9231 35.1644 86.594C34.9258 87.5781 34.2055 88.2199 33.089 88.2852C31.8127 88.3618 30.5319 88.3415 29.2624 88.3618C28.9878 88.3618 28.7154 88.3618 28.362 88.3618V91.0415L26.7166 91.0483Z" fill="white"/>
<path d="M4 83.4824H5.77827L9.10969 87.6597L12.4456 83.4847H14.2464V91.0487H12.5874V85.946L12.4299 85.8987L9.10294 90.0714L5.76927 85.8424L5.64771 85.8739V91.0532H4.01127L4 83.4824Z" fill="white"/>
<path d="M55.4276 91.0628H53.8092V85.9083L53.6651 85.8407L50.2887 90.0743L46.9843 85.8633L46.8762 85.8813V91.0471H45.1925V83.4785H47.036C48.0827 84.8161 49.1722 86.2055 50.2909 87.6377L53.5999 83.4875H55.4254L55.4276 91.0628Z" fill="white"/>
<path d="M44.0806 89.5371V91.0481H36.1279V83.4863H43.7407V84.9793H37.8094V86.3305H41.9017V87.8527H37.7936V89.5371H44.0806Z" fill="white"/>
<path d="M77.1338 83.4895H78.7297V88.6868L78.9233 88.7679L83.8597 83.4805H85.6604V91.0535H84.042V85.854L83.8979 85.7774C82.2547 87.5316 80.6138 89.2881 78.9458 91.0783L77.145 90.9567L77.1338 83.4895Z" fill="white"/>
<path d="M66.0253 91.0733H64.1637L63.3466 89.5286H58.8447C58.5701 90.033 58.3 90.5329 58.0186 91.0531H56.1593C57.5234 88.4904 58.8605 85.9976 60.1975 83.4688H61.9758L66.0253 91.0733Z" fill="white"/>
<path d="M73.6337 91.0411V87.9402H68.4092V91.0298H66.7615V83.504H68.3507V86.3324H73.6382V83.4883H75.2701V91.0411H73.6337Z" fill="white"/>
</g>
</svg>
