<svg width="100" height="100" viewBox="0 0 100 100" fill="none" xmlns="http://www.w3.org/2000/svg">
<path d="M68.4536 10.9004L67.7497 11.1174L68.8876 12.4074C67.194 12.0026 65.9198 11.6533 64.6272 11.3992C61.2149 10.7311 57.8185 9.85518 54.3705 9.50985C45.2729 8.59956 37.5884 11.9973 31.2918 18.2899C26.2773 23.3005 22.824 29.2888 22.7115 36.7101C22.6864 38.3401 22.4998 39.9741 22.5885 41.5963C22.6334 42.3901 23.1693 43.1575 23.426 43.9553C24.2278 46.4507 24.7716 49.0612 25.8472 51.4308C27.2722 54.5719 28.2989 58.0172 31.2415 60.2665C33.3254 61.8542 35.2862 63.6271 37.4601 65.0878C41.6821 67.9298 46.4571 68.5662 51.4293 68.1521C53.1837 68.0066 54.9461 67.9311 56.6913 67.7155C61.3816 67.1333 65.4581 64.9555 68.9193 61.9759C76.2823 55.6356 80.8708 47.6335 80.4726 37.6997C80.263 32.2645 78.737 26.9613 76.0257 22.246C74.6562 19.8644 73.3384 17.5331 71.2294 15.7139C70.9648 15.481 71.117 14.7533 71.076 14.2584C71.4729 14.3021 71.9002 14.2584 72.2562 14.404C75.6552 15.7469 77.2919 18.794 79.2527 21.5712C82.0153 25.4836 83.2828 29.9689 83.8994 34.5468C84.9221 42.1334 83.5991 49.3324 79.385 55.9399C76.6488 60.2294 73.5634 64.1656 69.2289 66.8489C61.8778 71.3937 53.8387 73.2474 45.2901 71.612C42.4839 71.0828 39.6551 70.5244 36.9414 69.0743C28.209 64.4104 21.5856 56.3422 19.8272 48.9632C19.4183 47.2432 18.7687 45.5894 18.254 43.8998C18.1488 43.613 18.0968 43.3095 18.1005 43.004C18.3876 39.1512 18.5226 35.2771 19.0452 31.4574C19.5745 27.5701 21.4268 24.1367 23.6297 20.9282C24.0637 20.2957 24.8827 19.9372 25.3604 19.3246C26.0854 18.3984 26.5339 17.2341 27.3304 16.3886C31.8872 11.5527 37.2537 8.00814 43.9062 6.87292C49.1986 5.97057 54.569 5.40561 59.8164 7.0436C62.7921 7.96977 65.6301 9.33917 68.5303 10.5088C68.5025 10.6451 68.4774 10.7721 68.4536 10.9004Z" fill="white"/>
<path d="M58.4179 76.0321C59.1483 76.0321 59.8575 76.0136 60.564 76.0493C60.687 76.0493 60.859 76.269 60.9067 76.4198C61.8222 79.2823 62.9641 82.0674 64.3216 84.7487C64.4235 84.9551 64.5452 85.1456 64.7026 85.4327C64.8349 85.2171 64.9302 85.0609 65.0136 84.8956C66.4028 82.1926 67.5589 79.3761 68.4695 76.4767C68.578 76.1235 68.7209 76.007 69.0781 76.0229C69.7185 76.0507 70.3602 76.0308 71.035 76.0308C71.2215 79.7514 71.4835 83.415 72.329 87.035H69.995C69.8627 84.2922 69.737 81.564 69.6087 78.8318L69.4142 78.8027C69.0067 79.6429 68.5608 80.4672 68.2009 81.3272C67.4692 83.0776 66.7759 84.8453 66.0839 86.6196C65.9582 86.945 65.8193 87.0959 65.4489 87.0707C64.9536 87.0396 64.4569 87.0396 63.9617 87.0707C63.6111 87.0893 63.4589 86.9649 63.3213 86.6328C62.3065 84.1784 61.2626 81.7373 60.2239 79.2923C60.1472 79.1345 60.0615 78.9812 59.9673 78.8331L59.7992 78.8464C59.6841 81.5548 59.569 84.2618 59.4513 87.0178H57.1755C57.4402 85.1999 57.7511 83.3952 57.9562 81.5772C58.1612 79.7593 58.2658 77.9242 58.4179 76.0321Z" fill="white"/>
<path d="M30.8724 76.0539H32.9113V84.5561L33.0687 84.6884C33.1668 84.5014 33.2824 84.3242 33.414 84.1592C35.7293 81.7516 37.844 79.159 39.7371 76.4071C39.925 76.1346 40.1129 76.001 40.4569 76.0102C41.1184 76.0406 41.7707 76.0195 42.4018 76.0195V87.0012H40.3682V78.5532C40.3074 78.4923 40.2452 78.4328 40.183 78.3733C40.1049 78.536 40.0613 78.7331 39.9422 78.8575C37.5931 81.2774 35.4493 83.8885 33.5331 86.6638C33.3413 86.943 33.1455 87.0607 32.8094 87.0488C32.1478 87.025 31.4982 87.0409 30.8684 87.0409L30.8724 76.0539Z" fill="white"/>
<path d="M54.8416 87.029H52.7934V82.6099C51.5735 82.6099 50.2875 82.4432 49.3891 83.6128C48.6151 84.6183 47.8371 85.6199 47.1067 86.6559C46.9136 86.9285 46.7694 87.0859 46.4201 87.07C45.7585 87.0423 45.097 87.0621 44.3031 87.0621C45.732 85.6067 46.6384 83.8298 48.3663 82.6959C47.8874 82.6072 47.4732 82.549 47.0684 82.4524C45.0414 81.9708 44.0967 80.5009 44.4963 78.4554C44.6894 77.4683 45.269 76.7658 46.1978 76.4218C46.8104 76.1942 47.4693 75.9812 48.1123 75.9653C50.3549 75.9097 52.5989 75.9441 54.8349 75.9441L54.8416 87.029ZM52.8119 77.3162C51.3182 77.3162 49.9011 77.295 48.4854 77.3307C48.1069 77.3625 47.7379 77.4658 47.3978 77.635C46.8249 77.8864 46.5166 78.3561 46.4584 78.9872C46.342 80.2627 46.9982 81.1227 48.3901 81.2444C49.7503 81.3648 51.1263 81.3146 52.4917 81.3344C52.5983 81.3279 52.7042 81.3119 52.808 81.2868L52.8119 77.3162Z" fill="white"/>
<path d="M19.0267 80.8556C21.2508 81.0779 23.5041 80.5327 25.711 81.3517C25.5456 81.5992 25.2095 81.8677 25.7282 82.0411V76.058H27.7657V87.0278H25.7229V82.5293H19.0293V87.0199H16.9786V82.3057C16.8383 82.2726 16.6359 82.1601 16.4639 82.1946C16.1374 82.2624 15.8005 82.2639 15.4734 82.1988C15.1464 82.1338 14.8357 82.0037 14.5599 81.8161C14.4091 81.7062 14.2483 81.6105 14.0796 81.5304C13.7608 81.398 13.4287 81.3041 13 81.1572L16.9812 80.9482V76.0527H19.0267V80.8556Z" fill="white"/>
<path d="M75.515 87.041H73.0541C73.1533 86.8465 73.234 86.693 73.3081 86.5369C74.868 83.2411 76.4438 79.9532 77.9641 76.6388C78.1798 76.1691 78.369 75.9773 78.8757 76.0196C79.3824 76.062 80.044 75.8661 80.4264 76.1069C80.777 76.3279 80.8326 77 81.0469 77.4618C81.7084 78.8682 82.37 80.2654 83.0315 81.6719C83.0726 81.787 83.1512 81.885 83.2545 81.9503C83.3579 82.0155 83.4802 82.0442 83.6018 82.0318C84.8257 82.0318 86.0482 82.041 87.2707 82.0596C87.4727 82.0766 87.673 82.1089 87.8701 82.1561C87.6055 82.3586 87.3726 82.4909 87.2086 82.6854C86.5827 83.4091 85.6685 83.0823 84.9156 83.335C84.6418 83.4276 84.3308 83.4091 83.9511 83.4501L85.8312 87.0225H83.185C82.8966 86.1373 82.6293 85.272 82.3303 84.4186C82.0895 83.7333 81.8275 83.6089 81.0932 83.6446C80.3589 83.6803 79.614 83.6976 78.877 83.6684C78.3478 83.6486 77.8185 83.5851 77.6095 82.9394C77.5764 82.8322 77.3449 82.7859 77.0803 82.6457L75.515 87.041ZM79.3652 77.9328L77.3184 82.213L81.2983 81.9484C80.6473 80.6028 80.0334 79.326 79.3626 77.9328H79.3652Z" fill="white"/>
<path d="M63.5278 52.9257C61.8329 52.5486 60.527 52.0458 59.2158 52.0286C57.9245 52.0114 56.6265 52.4877 55.3656 52.9124C59.1616 54.3083 62.9377 55.4449 66.9559 55.1366C67.5751 55.0889 68.1652 54.6708 69.057 54.3057C65.4225 51.2864 62.206 48.5925 58.9525 45.9477C58.6667 45.7148 58.0978 45.6526 57.7194 45.7466C56.1065 46.1435 54.5082 46.6053 52.9205 47.0974C50.142 47.9575 47.6824 46.039 48.0012 43.1851C48.0396 42.849 48.463 42.2761 48.6866 42.2854C50.7401 42.3766 52.7975 42.4997 54.8311 42.7762C55.4926 42.8649 56.0867 43.4312 57.0922 43.9908C58.4855 43.1163 60.3537 42.0842 62.0353 40.8061C62.595 40.3814 63.0832 39.2184 62.9086 38.5794C62.0658 35.5151 61.0483 32.4931 59.9634 29.5042C59.4738 28.1573 58.3452 27.5196 56.8488 27.4667C56.1476 27.4442 55.4543 27.1227 54.798 26.6728C56.3791 25.9173 58.0449 26.133 59.3772 26.8461C60.8772 27.6685 62.1939 28.7876 63.2473 30.1354C65.5032 33.0276 66.0139 36.6185 66.555 40.1261C66.6463 40.7135 65.9768 41.6675 65.3947 42.0617C63.9512 43.0355 62.3515 43.7818 60.785 44.6431C63.4087 46.6979 65.9689 48.9246 68.758 50.8127C70.9173 52.276 71.4306 54.1641 70.8749 56.4134C70.7109 57.0749 69.7172 57.8608 68.9975 57.9892C65.8974 58.5396 62.853 58.0024 59.8602 57.0987C56.907 56.2056 53.9658 55.2464 50.965 54.5544C50.0917 54.352 49.0002 54.864 48.0648 55.2001C44.5969 56.4491 41.1701 57.8132 37.6838 59.0093C36.9481 59.262 35.8618 59.2739 35.2294 58.8942C33.9434 58.1321 32.656 57.1834 31.7669 56.0111C31.3051 55.4025 31.4189 54.049 31.7391 53.2088C32.8227 50.3628 35.0151 48.3597 37.3834 46.5642C38.5147 45.7069 39.7121 44.9355 40.8975 44.1536C41.3572 43.8364 41.8958 43.6532 42.4535 43.6243C40.064 47.5936 36.018 50.3496 34.5308 55.1525C35.0958 55.0466 35.5602 54.9937 36.0061 54.8706C40.9372 53.5224 45.8406 52.063 50.8049 50.8458C53.3876 50.212 56.0668 49.7476 58.7157 49.6841C60.6117 49.6431 62.3582 50.6407 63.5278 52.9257ZM50.3762 44.2634L50.1539 44.8694C50.703 45.134 51.2865 45.6632 51.7946 45.5997C52.5725 45.5005 53.2976 44.9911 54.0438 44.6563C53.9843 44.4592 53.9261 44.2594 53.8665 44.0636L50.3762 44.2634Z" fill="white"/>
<path d="M38.3187 40.5521C37.0817 39.7715 35.8168 39.1139 34.7173 38.2473C32.8438 36.7681 32.5725 34.9846 34.1431 33.2341C37.6704 29.3005 41.6847 26.1397 47.3449 26.0418C47.5475 26.0252 47.7442 25.9652 47.9216 25.8659C48.099 25.7666 48.2529 25.6303 48.373 25.4662C48.5053 25.2413 48.365 24.6604 48.1454 24.4368C45.6977 21.9455 45.2716 19.5215 46.7799 16.317C48.1679 13.3691 51.2282 12.3834 53.5873 14.1233C55.1287 15.2612 55.175 16.2839 53.5277 17.8955C53.107 17.1016 52.808 16.3077 52.3078 15.6687C51.9652 15.2374 51.2494 14.6936 50.8617 14.7941C50.1843 14.9688 49.1681 15.547 49.102 16.059C48.8978 17.6158 48.9264 19.1943 49.1867 20.7428C49.4447 22.2326 50.22 23.5398 51.9863 23.389L49.5095 28.1905C47.5989 26.313 45.7545 27.3529 44.0848 28.2024C41.2613 29.63 38.8189 31.6146 37.0645 34.319C36.0735 35.8446 36.26 36.7218 37.7128 37.8094C40.789 40.1142 42.7644 40.2068 45.9557 38.197C45.9054 38.0647 45.8538 37.9324 45.8022 37.8001L43.6363 38.8586C44.7252 36.9361 45.4952 36.7284 47.0194 37.6678C47.3436 37.8676 47.8569 37.8795 48.2578 37.816C49.9183 37.5514 51.5656 37.2285 53.2208 36.9269L53.3716 37.562L43.0991 40.3881C43.1295 40.568 43.1586 40.7466 43.1891 40.9253C44.1351 40.7929 45.1049 40.7612 46.0205 40.5204C48.0779 39.9766 50.1036 39.3111 52.1557 38.7422C52.7008 38.59 53.2909 38.6098 53.8598 38.5477C53.9061 38.6958 53.9511 38.844 53.9921 38.9922C53.5952 39.1947 53.2142 39.4553 52.7947 39.5876C51.0152 40.1539 49.2819 40.6659 47.804 42.0102C47.0525 42.6929 45.5627 43.0779 44.5624 42.8649C42.4878 42.423 40.6606 42.898 38.7805 43.5265C38.2817 43.6932 37.7617 43.7911 37.2523 43.9234C37.1941 43.7554 37.1359 43.5886 37.0764 43.4206L41.2798 41.8739C39.3045 40.4688 37.6016 42.5791 35.7361 41.6093L38.3187 40.5521Z" fill="white"/>
<path d="M73.6269 89.9352C74.2382 89.9352 74.8177 89.9087 75.388 89.9445C75.8074 89.9709 76.2136 90.098 76.3591 90.5756C76.4257 90.7632 76.4262 90.9679 76.3605 91.1559C76.2948 91.3438 76.1669 91.5037 75.9979 91.6089C76.1792 91.855 76.42 92.0627 76.5086 92.3234C76.715 92.9254 76.3049 93.4864 75.5825 93.5526C74.9461 93.6108 74.2991 93.5645 73.6256 93.5645L73.6269 89.9352ZM74.221 93.0577C74.6378 93.0577 75.0281 93.0789 75.4118 93.0511C75.7161 93.0299 75.941 92.8725 75.941 92.5219C75.941 92.1712 75.7293 92.0072 75.4118 91.9926C75.0241 91.9675 74.6338 91.9926 74.221 91.9926V93.0577ZM74.1919 90.4671C74.2028 90.6358 74.2028 90.8051 74.1919 90.9738C74.1297 91.3708 74.3136 91.5031 74.6894 91.4594C74.8826 91.4369 75.1114 91.5097 75.2689 91.4303C75.4713 91.3298 75.7161 91.1432 75.7651 90.95C75.8431 90.6417 75.5745 90.4869 75.2821 90.4711C74.9394 90.4539 74.5981 90.4671 74.1919 90.4671Z" fill="white"/>
<path d="M48.0674 91.6906C47.5553 90.906 47.5765 90.4442 48.119 90.0737C48.6191 89.7337 49.4302 89.8171 49.7464 90.2418C50.0917 90.7049 49.9104 91.0939 48.9909 91.8295L49.7953 92.5969L50.0348 91.8851H50.5958C50.4741 92.2635 50.3616 92.6075 50.2386 92.9885L50.7334 93.5178L50.6818 93.6382L49.9223 93.4291C49.3455 93.5138 48.852 93.6382 48.3571 93.6448C48.1474 93.657 47.9396 93.5984 47.7671 93.4785C47.5946 93.3585 47.4674 93.1841 47.4058 92.9832C47.2603 92.5294 47.468 92.1894 47.8027 91.897C47.8821 91.8295 47.9615 91.7726 48.0674 91.6906ZM49.3799 93.0759C49.3799 93.011 49.3931 92.9436 49.3984 92.88C49.1924 92.6728 48.9756 92.4767 48.7488 92.2926C48.6297 92.2026 48.3836 92.1007 48.3201 92.1603C48.1475 92.2941 48.0272 92.4842 47.98 92.6975C47.9655 92.8218 48.1759 93.0772 48.3095 93.0944C48.6561 93.1394 49.0226 93.0878 49.3799 93.0759ZM48.4392 91.4154L48.7329 91.4961C48.9366 91.2315 49.1497 90.9668 49.327 90.6837C49.3428 90.6572 49.1113 90.386 49.0094 90.3953C48.7699 90.4178 48.4034 90.4826 48.3373 90.6361C48.2486 90.8438 48.3915 91.1547 48.4392 91.4193V91.4154Z" fill="white"/>
<path d="M33.5027 89.8653C34.6352 89.8561 35.4278 90.6129 35.4503 91.7177C35.4728 92.8224 34.6763 93.6573 33.541 93.6639C32.4058 93.6705 31.5961 92.8939 31.5974 91.7547C31.5987 90.6155 32.3648 89.8746 33.5027 89.8653ZM33.5133 93.0963C34.315 93.0963 34.843 92.5671 34.843 91.76C34.843 90.9529 34.2886 90.4091 33.508 90.4184C32.7485 90.4276 32.214 90.9701 32.2021 91.7415C32.1902 92.5406 32.726 93.095 33.5133 93.0963Z" fill="white"/>
<path d="M38.3359 89.8653C39.4843 89.8733 40.2544 90.6592 40.2358 91.8116C40.2186 92.9203 39.4248 93.6785 38.2922 93.6639C37.1596 93.6494 36.3896 92.878 36.3843 91.7626C36.379 90.6473 37.1755 89.8561 38.3359 89.8653ZM38.3041 93.0963C39.1072 93.0963 39.6272 92.5763 39.6272 91.764C39.6272 90.9516 39.0821 90.4091 38.3041 90.4157C37.5447 90.4157 37.0128 90.9608 36.9982 91.7388C36.9784 92.5419 37.5076 93.0924 38.3001 93.0963H38.3041Z" fill="white"/>
<path d="M82.5644 92.2889V93.5551H81.9875V89.8809C82.7007 89.9338 83.4046 89.9364 84.0886 90.0515C84.5517 90.1283 84.7885 90.504 84.819 90.9923C84.856 91.5929 84.561 91.9568 83.9576 92.1751L85.0386 93.5207C84.6417 93.6662 84.3585 93.6292 84.131 93.2812C83.9881 93.0616 83.7817 92.8843 83.6441 92.658C83.4033 92.2651 83.0844 92.1261 82.5644 92.2889ZM82.5829 91.671C82.9537 91.688 83.3252 91.6849 83.6957 91.6617C83.7665 91.6597 83.8361 91.6435 83.9005 91.6141C83.965 91.5847 84.0228 91.5426 84.0707 91.4905C84.1186 91.4383 84.1555 91.377 84.1792 91.3103C84.203 91.2436 84.2131 91.1728 84.209 91.1021C84.2172 91.0275 84.2096 90.952 84.1867 90.8805C84.1639 90.809 84.1264 90.7431 84.0765 90.687C84.0266 90.6309 83.9656 90.5858 83.8972 90.5548C83.8289 90.5237 83.7548 90.5073 83.6798 90.5067C83.315 90.485 82.9494 90.4819 82.5843 90.4974L82.5829 91.671Z" fill="white"/>
<path d="M41.4332 93.5714V89.8984C42.0591 89.9289 42.669 89.8984 43.2604 89.999C44.1707 90.1432 44.6457 90.859 44.6073 91.891C44.5729 92.8172 44.0027 93.4787 43.1096 93.5634C42.5698 93.611 42.026 93.5714 41.4332 93.5714ZM42.0392 93.0421C42.718 93.0421 43.3994 93.1744 43.832 92.4917C44.1072 92.0577 44.0688 91.2678 43.7526 90.904C43.2763 90.3509 42.6505 90.4621 42.0392 90.5071V93.0421Z" fill="white"/>
<path d="M65.8855 91.4659H67.796V89.951L68.3888 89.9219V93.5683H67.841V92.0812H65.9212V93.5723H65.3496V89.951L65.8894 89.9272L65.8855 91.4659Z" fill="white"/>
<path d="M20.1433 89.9453H22.6135V90.4746H20.7387V91.447H22.4376V92.0146H20.7387V93.0467H22.6413V93.5587H20.1433V89.9453Z" fill="white"/>
<path d="M80.9277 93.5363C80.4871 93.6991 80.241 93.5721 80.1471 93.1659C80.0809 92.8748 79.9023 92.7689 79.6073 92.802C79.3434 92.83 79.0773 92.83 78.8134 92.802C78.3635 92.7491 78.0844 92.8761 77.9243 93.3432C77.87 93.5019 77.5472 93.5681 77.3474 93.6779L77.2402 93.5456C77.7245 92.3998 78.1995 91.25 78.7062 90.1148C78.7539 90.0076 79.0026 89.9388 79.1521 89.9481C79.2259 89.9589 79.2963 89.9862 79.3579 90.0282C79.4196 90.0701 79.4709 90.1255 79.508 90.1902C79.991 91.2791 80.4487 92.3892 80.9277 93.5363ZM79.0873 90.5594C78.8399 91.1653 78.6242 91.6906 78.3953 92.2529H79.7845L79.0873 90.5594Z" fill="white"/>
<path d="M57.7775 89.9629C57.7775 90.7118 57.7775 91.4183 57.7775 92.1262C57.7775 92.834 58.0593 93.0986 58.7288 93.1039C59.3983 93.1092 59.6854 92.8287 59.6934 92.142C59.7013 91.4329 59.6934 90.725 59.6934 89.955L60.2557 89.9219C60.2557 90.8639 60.3152 91.7742 60.2358 92.6633C60.1736 93.35 59.475 93.7152 58.5899 93.6649C57.7722 93.6199 57.2298 93.1886 57.1967 92.4741C57.157 91.6525 57.1874 90.8269 57.1874 89.9602L57.7775 89.9629Z" fill="white"/>
<path d="M27.1849 93.5357C26.7046 93.6998 26.4877 93.5357 26.3911 93.1388C26.3289 92.8742 26.1622 92.7683 25.8843 92.7934C25.6205 92.8222 25.3543 92.8222 25.0905 92.7934C24.6208 92.7339 24.3244 92.8583 24.1643 93.3531C24.1167 93.5013 23.7859 93.5595 23.5861 93.6588L23.4908 93.5264C23.9698 92.3912 24.4395 91.2534 24.9317 90.1248C25.064 89.8297 25.5932 89.8204 25.7256 90.1129C26.2297 91.2375 26.6927 92.3767 27.1849 93.5357ZM26.0418 92.2708C25.8049 91.6992 25.5932 91.1859 25.3352 90.5614C25.0706 91.2018 24.8695 91.7178 24.6486 92.2708H26.0418Z" fill="white"/>
<path d="M61.5166 92.8932C61.973 92.9699 62.4044 93.0718 62.8397 93.1023C63.1241 93.1234 63.4827 93.1142 63.5475 92.7212C63.6123 92.3282 63.2975 92.2197 63.0183 92.1073C62.7391 91.9948 62.4255 91.8982 62.1397 91.7712C61.6449 91.5489 61.4147 91.1705 61.4901 90.7127C61.5721 90.2179 61.9188 89.9586 62.3726 89.9056C62.7493 89.8799 63.1277 89.899 63.4999 89.9625C63.8651 90.0062 64.0106 90.2272 63.8968 90.5804C63.5118 90.5196 63.1281 90.4058 62.7484 90.4177C62.5301 90.4177 62.3184 90.6373 62.104 90.7564C62.2522 90.9496 62.3686 91.201 62.5578 91.32C62.833 91.4894 63.1757 91.5463 63.484 91.6773C64.0132 91.9048 64.2144 92.2462 64.172 92.7569C64.1257 93.302 63.7566 93.5614 63.2869 93.5997C62.8131 93.6203 62.3386 93.5865 61.8725 93.4992C61.4901 93.4502 61.4107 93.1883 61.5166 92.8932Z" fill="white"/>
<path d="M16.3315 92.8892C16.7959 92.9699 17.2114 93.0744 17.6321 93.1035C17.9364 93.1247 18.3585 93.1035 18.3479 92.6987C18.3479 92.4936 18.0304 92.2515 17.8054 92.1099C17.5408 91.9471 17.222 91.8876 16.9348 91.7632C16.4956 91.5727 16.2574 91.2432 16.3064 90.7497C16.3553 90.2562 16.7033 89.9824 17.1545 89.9188C17.5299 89.8819 17.9086 89.8952 18.2804 89.9585C18.6535 90.0075 18.8348 90.2232 18.6932 90.5632C18.2701 90.4914 17.8427 90.4472 17.4138 90.4309C17.2458 90.4309 16.9494 90.6412 16.9468 90.759C16.9602 90.8645 16.9969 90.9657 17.0541 91.0554C17.1112 91.145 17.1876 91.2209 17.2775 91.2776C17.5699 91.451 17.9192 91.5277 18.2394 91.6613C18.7911 91.8902 19.0333 92.2581 18.987 92.7542C18.9407 93.2504 18.6178 93.5745 18.0079 93.6275C17.5816 93.645 17.1548 93.6117 16.7364 93.5282C16.3593 93.4713 16.2098 93.2319 16.3315 92.8892Z" fill="white"/>
<path d="M53.4285 92.9138C53.9366 92.9813 54.405 93.0898 54.872 93.0819C55.0758 93.0819 55.269 92.8358 55.478 92.7008C55.3192 92.5129 55.1935 92.2695 54.9938 92.1504C54.7 91.9758 54.3494 91.9003 54.0305 91.7654C53.5661 91.5682 53.3412 91.2163 53.41 90.7069C53.4748 90.2187 53.8215 89.9832 54.2489 89.9223C54.6247 89.8865 55.0035 89.8989 55.3761 89.9594C55.7559 90.0057 55.9199 90.2319 55.7956 90.5719C55.3655 90.519 54.9475 90.4251 54.5307 90.4396C54.3547 90.4396 54.0676 90.6513 54.0451 90.7995C54.0226 90.9477 54.2277 91.1965 54.3957 91.2997C54.6921 91.4703 55.0414 91.5457 55.3589 91.6807C55.8802 91.9017 56.1303 92.2774 56.0893 92.7392C56.0483 93.2009 55.7559 93.5516 55.1711 93.6177C54.7285 93.6459 54.2842 93.6201 53.848 93.541C53.4801 93.4867 53.3095 93.2578 53.4285 92.9138Z" fill="white"/>
<path d="M28.8361 91.5588H30.5561V92.0973H28.8361V93.5606L28.246 93.5937V89.9473H30.7003V90.4765H28.8361V91.5588Z" fill="white"/>
<path d="M70.3985 93.5703H69.8613V89.9503L70.3985 89.9238V93.5703Z" fill="white"/>
<path d="M40.4529 51.0864L41.5722 51.7479C41.5312 51.916 41.4915 52.084 41.4505 52.2534L37.9324 51.6553C40.085 48.382 43.8254 48.1412 46.506 49.7818C46.3618 51.1049 45.5124 51.0719 44.4685 50.9237C43.1652 50.7384 41.8421 50.6895 40.527 50.5823C40.5031 50.7477 40.478 50.917 40.4529 51.0864Z" fill="white"/>
</svg>
