<svg width="76" height="88" viewBox="0 0 76 88" fill="none" xmlns="http://www.w3.org/2000/svg">
<path d="M56.2642 5.22269L55.5604 5.43968L56.6982 6.7297C55.0047 6.32483 53.7305 5.97554 52.4379 5.7215C49.0256 5.05334 45.6292 4.17745 42.1812 3.83212C33.0836 2.92183 25.3991 6.31954 19.1025 12.6122C14.0879 17.6227 10.6346 23.6111 10.5222 31.0323C10.497 32.6624 10.3105 34.2964 10.3991 35.9185C10.4441 36.7124 10.98 37.4798 11.2367 38.2776C12.0384 40.773 12.5822 43.3834 13.6579 45.7531C15.0829 48.8941 16.1096 52.3395 19.0522 54.5887C21.1361 56.1764 23.0969 57.9494 25.2707 59.4101C29.4927 62.2521 34.2678 62.8885 39.24 62.4744C40.9944 62.3288 42.7568 62.2534 44.5019 62.0378C49.1923 61.4556 53.2688 59.2778 56.73 56.2982C64.093 49.9579 68.6815 41.9558 68.2832 32.022C68.0737 26.5867 66.5477 21.2836 63.8363 16.5682C62.4669 14.1867 61.1491 11.8554 59.0401 10.0361C58.7755 9.80325 58.9276 9.07555 58.8866 8.58071C59.2836 8.62437 59.7109 8.58071 60.0668 8.72625C63.4659 10.0692 65.1025 13.1163 67.0634 15.8935C69.826 19.8059 71.0935 24.2911 71.7101 28.8691C72.7328 36.4557 71.4097 43.6547 67.1957 50.2622C64.4595 54.5517 61.374 58.4879 57.0396 61.1711C49.6885 65.716 41.6493 67.5696 33.1008 65.9343C30.2945 65.405 27.4657 64.8467 24.7521 63.3966C16.0196 58.7327 9.39623 50.6644 7.63783 43.2855C7.229 41.5655 6.57935 39.9116 6.06467 38.222C5.95952 37.9353 5.90751 37.6317 5.91119 37.3263C6.19831 33.4734 6.33326 29.5994 6.85589 25.7796C7.38512 21.8924 9.23745 18.4589 11.4404 15.2504C11.8744 14.618 12.6934 14.2594 13.171 13.6468C13.8961 12.7207 14.3446 11.5564 15.1411 10.7109C19.6979 5.87498 25.0643 2.33041 31.7169 1.19519C37.0092 0.292838 42.3797 -0.272127 47.6271 1.36587C50.6027 2.29203 53.4408 3.66144 56.341 4.83105C56.3132 4.96733 56.2881 5.09435 56.2642 5.22269Z" fill="#1E9DD8"/>
<path d="M46.2285 70.3544C46.9588 70.3544 47.668 70.3359 48.3745 70.3716C48.4976 70.3716 48.6696 70.5913 48.7172 70.7421C49.6327 73.6046 50.7746 76.3897 52.1321 79.071C52.234 79.2774 52.3557 79.4679 52.5132 79.755C52.6455 79.5393 52.7407 79.3832 52.8241 79.2178C54.2133 76.5149 55.3695 73.6984 56.28 70.799C56.3885 70.4457 56.5314 70.3293 56.8887 70.3452C57.529 70.3729 58.1707 70.3531 58.8455 70.3531C59.0321 74.0736 59.294 77.7373 60.1395 81.3573H57.8056C57.6732 78.6145 57.5476 75.8863 57.4192 73.1541L57.2247 73.125C56.8172 73.9651 56.3713 74.7894 56.0114 75.6494C55.2798 77.3999 54.5865 79.1676 53.8945 80.9418C53.7688 81.2673 53.6299 81.4181 53.2594 81.393C52.7642 81.3619 52.2675 81.3619 51.7722 81.393C51.4216 81.4115 51.2695 81.2872 51.1319 80.9551C50.117 78.5007 49.0731 76.0596 48.0345 73.6145C47.9577 73.4567 47.872 73.3034 47.7778 73.1554L47.6098 73.1686C47.4947 75.877 47.3796 78.5841 47.2618 81.3401H44.9861C45.2507 79.5221 45.5616 77.7174 45.7667 75.8995C45.9718 74.0816 46.0763 72.2464 46.2285 70.3544Z" fill="#1E9DD8"/>
<path d="M18.683 70.3761H20.7219V78.8784L20.8793 79.0107C20.9774 78.8237 21.093 78.6465 21.2247 78.4814C23.5399 76.0739 25.6546 73.4812 27.5477 70.7294C27.7356 70.4569 27.9235 70.3232 28.2675 70.3325C28.929 70.3629 29.5813 70.3417 30.2124 70.3417V81.3234H28.1788V72.8755C28.118 72.8146 28.0558 72.7551 27.9936 72.6955C27.9156 72.8583 27.8719 73.0554 27.7528 73.1798C25.4037 75.5996 23.2599 78.2107 21.3437 80.9861C21.1519 81.2652 20.9561 81.383 20.62 81.3711C19.9584 81.3472 19.3088 81.3631 18.679 81.3631L18.683 70.3761Z" fill="#1E9DD8"/>
<path d="M42.6522 81.3513H40.604V76.9322C39.3841 76.9322 38.0981 76.7654 37.1997 77.9351C36.4257 78.9406 35.6477 79.9422 34.9173 80.9782C34.7242 81.2507 34.58 81.4082 34.2307 81.3923C33.5691 81.3645 32.9076 81.3844 32.1137 81.3844C33.5427 79.9289 34.449 78.152 36.1769 77.0181C35.698 76.9295 35.2838 76.8713 34.879 76.7747C32.852 76.2931 31.9073 74.8231 32.3069 72.7776C32.5001 71.7906 33.0796 71.088 34.0084 70.744C34.621 70.5165 35.2799 70.3034 35.9229 70.2876C38.1655 70.232 40.4095 70.2664 42.6456 70.2664L42.6522 81.3513ZM40.6225 71.6384C39.1288 71.6384 37.7117 71.6173 36.296 71.653C35.9175 71.6848 35.5485 71.788 35.2084 71.9573C34.6355 72.2087 34.3272 72.6784 34.269 73.3095C34.1526 74.585 34.8089 75.445 36.2007 75.5667C37.5609 75.6871 38.9369 75.6368 40.3023 75.6567C40.4089 75.6501 40.5148 75.6342 40.6186 75.6091L40.6225 71.6384Z" fill="#1E9DD8"/>
<path d="M6.83731 75.1778C9.06143 75.4001 11.3147 74.855 13.5216 75.674C13.3562 75.9214 13.0201 76.19 13.5388 76.3633V70.3803H15.5764V81.3501H13.5335V76.8516H6.83996V81.3421H4.78916V76.628C4.64891 76.5949 4.44647 76.4824 4.27447 76.5168C3.94796 76.5847 3.61114 76.5861 3.28405 76.5211C2.95696 76.4561 2.64629 76.326 2.37054 76.1384C2.21967 76.0284 2.05888 75.9328 1.89025 75.8526C1.57138 75.7203 1.23929 75.6264 0.810608 75.4795L4.7918 75.2705V70.375H6.83731V75.1778Z" fill="#1E9DD8"/>
<path d="M63.3256 81.3633H60.8646C60.9639 81.1688 61.0446 81.0153 61.1187 80.8592C62.6786 77.5633 64.2544 74.2755 65.7746 70.9611C65.9903 70.4914 66.1795 70.2995 66.6862 70.3419C67.193 70.3842 67.8545 70.1884 68.2369 70.4292C68.5875 70.6502 68.6431 71.3223 68.8574 71.7841C69.519 73.1905 70.1805 74.5877 70.8421 75.9941C70.8832 76.1093 70.9617 76.2073 71.0651 76.2725C71.1685 76.3378 71.2907 76.3665 71.4123 76.354C72.6362 76.354 73.8588 76.3633 75.0813 76.3818C75.2832 76.3989 75.4836 76.4312 75.6807 76.4784C75.416 76.6808 75.1832 76.8131 75.0191 77.0076C74.3933 77.7314 73.479 77.4046 72.7262 77.6573C72.4523 77.7499 72.1414 77.7314 71.7616 77.7724L73.6418 81.3448H70.9956C70.7071 80.4596 70.4399 79.5943 70.1408 78.7409C69.9 78.0555 69.6381 77.9312 68.9038 77.9669C68.1694 78.0026 67.4245 78.0198 66.6876 77.9907C66.1583 77.9709 65.6291 77.9074 65.42 77.2617C65.387 77.1545 65.1554 77.1082 64.8908 76.9679L63.3256 81.3633ZM67.1758 72.2551L65.129 76.5353L69.1088 76.2707C68.4579 74.9251 67.844 73.6483 67.1731 72.2551H67.1758Z" fill="#1E9DD8"/>
<path d="M51.3383 47.248C49.6434 46.8709 48.3375 46.3681 47.0264 46.3509C45.735 46.3337 44.4371 46.81 43.1761 47.2347C46.9721 48.6306 50.7482 49.7671 54.7665 49.4588C55.3857 49.4112 55.9758 48.9931 56.8675 48.6279C53.233 45.6086 50.0166 42.9148 46.7631 40.2699C46.4773 40.0371 45.9083 39.9749 45.5299 40.0688C43.9171 40.4658 42.3188 40.9275 40.7311 41.4197C37.9526 42.2797 35.4929 40.3612 35.8118 37.5073C35.8502 37.1713 36.2736 36.5984 36.4972 36.6076C38.5506 36.6989 40.608 36.822 42.6416 37.0985C43.3032 37.1871 43.8972 37.7534 44.9028 38.3131C46.296 37.4385 48.1642 36.4065 49.8459 35.1284C50.4055 34.7037 50.8938 33.5407 50.7191 32.9016C49.8763 29.8373 48.8588 26.8154 47.7739 23.8265C47.2844 22.4796 46.1558 21.8419 44.6593 21.7889C43.9581 21.7665 43.2648 21.4449 42.6085 20.9951C44.1896 20.2396 45.8554 20.4553 47.1878 21.1684C48.6877 21.9907 50.0045 23.1099 51.0578 24.4576C53.3137 27.3499 53.8244 30.9408 54.3656 34.4483C54.4569 35.0358 53.7874 35.9897 53.2052 36.384C51.7617 37.3578 50.1621 38.104 48.5956 38.9654C51.2192 41.0201 53.7794 43.2469 56.5685 45.135C58.7278 46.5983 59.2412 48.4864 58.6855 50.7356C58.5214 51.3972 57.5278 52.1831 56.808 52.3114C53.708 52.8618 50.6635 52.3247 47.6707 51.421C44.7176 50.5279 41.7763 49.5687 38.7755 48.8767C37.9023 48.6742 36.8107 49.1863 35.8753 49.5224C32.4075 50.7714 28.9807 52.1355 25.4943 53.3315C24.7587 53.5843 23.6724 53.5962 23.04 53.2164C21.7539 52.4543 20.4665 51.5057 19.5774 50.3334C19.1156 49.7248 19.2294 48.3713 19.5496 47.5311C20.6332 44.6851 22.8256 42.6819 25.194 40.8865C26.3252 40.0291 27.5226 39.2578 28.7081 38.4758C29.1677 38.1587 29.7064 37.9755 30.2641 37.9466C27.8745 41.9159 23.8285 44.6719 22.3414 49.4747C22.9063 49.3689 23.3707 49.3159 23.8166 49.1929C28.7478 47.8447 33.6512 46.3853 38.6154 45.168C41.1981 44.5343 43.8774 44.0699 46.5262 44.0064C48.4222 43.9654 50.1687 44.963 51.3383 47.248ZM38.1868 38.5856L37.9645 39.1916C38.5136 39.4562 39.097 39.9855 39.6051 39.922C40.3831 39.8227 41.1081 39.3133 41.8544 38.9786C41.7948 38.7815 41.7366 38.5817 41.6771 38.3859L38.1868 38.5856Z" fill="#1E9DD8"/>
<path d="M26.1294 34.8744C24.8923 34.0938 23.6274 33.4362 22.5279 32.5696C20.6544 31.0904 20.3832 29.3068 21.9537 27.5564C25.481 23.6228 29.4953 20.4619 35.1555 20.364C35.3581 20.3474 35.5548 20.2875 35.7322 20.1882C35.9096 20.0889 36.0635 19.9525 36.1836 19.7885C36.3159 19.5636 36.1756 18.9827 35.956 18.7591C33.5083 16.2677 33.0822 13.8438 34.5906 10.6393C35.9785 7.69141 39.0388 6.7057 41.3979 8.44557C42.9393 9.58344 42.9856 10.6062 41.3383 12.2177C40.9176 11.4239 40.6186 10.63 40.1184 9.99095C39.7758 9.55962 39.06 9.01583 38.6723 9.11639C37.9949 9.29103 36.9787 9.86923 36.9126 10.3813C36.7084 11.9381 36.737 13.5166 36.9973 15.065C37.2553 16.5548 38.0306 17.8621 39.7969 17.7112L37.3201 22.5127C35.4096 20.6353 33.5652 21.6752 31.8954 22.5246C29.0719 23.9523 26.6295 25.9369 24.8751 28.6413C23.8841 30.1668 24.0706 31.0441 25.5234 32.1316C28.5996 34.4365 30.575 34.5291 33.7663 32.5193C33.716 32.387 33.6644 32.2547 33.6128 32.1224L31.4469 33.1809C32.5358 31.2584 33.3058 31.0507 34.83 31.9901C35.1542 32.1899 35.6676 32.2018 36.0685 32.1383C37.7289 31.8736 39.3762 31.5508 41.0314 31.2491L41.1822 31.8842L30.9097 34.7103C30.9401 34.8903 30.9692 35.0689 30.9997 35.2475C31.9457 35.1152 32.9155 35.0835 33.8311 34.8427C35.8885 34.2989 37.9142 33.6333 39.9663 33.0644C40.5114 32.9123 41.1015 32.9321 41.6704 32.8699C41.7167 33.0181 41.7617 33.1663 41.8027 33.3145C41.4058 33.5169 41.0248 33.7776 40.6053 33.9099C38.8258 34.4762 37.0925 34.9882 35.6146 36.3325C34.8631 37.0152 33.3733 37.4002 32.373 37.1872C30.2984 36.7453 28.4712 37.2203 26.5911 37.8487C26.0923 38.0154 25.5723 38.1134 25.0629 38.2457C25.0047 38.0776 24.9465 37.9109 24.887 37.7429L29.0904 36.1962C27.1151 34.7911 25.4122 36.9014 23.5467 35.9316L26.1294 34.8744Z" fill="#1E9DD8"/>
<path d="M61.4375 84.2575C62.0488 84.2575 62.6283 84.231 63.1985 84.2667C63.6179 84.2932 64.0241 84.4202 64.1697 84.8979C64.2363 85.0855 64.2368 85.2902 64.1711 85.4781C64.1054 85.6661 63.9774 85.8259 63.8085 85.9312C63.9897 86.1773 64.2305 86.385 64.3192 86.6457C64.5256 87.2477 64.1154 87.8087 63.393 87.8748C62.7566 87.933 62.1096 87.8867 61.4362 87.8867L61.4375 84.2575ZM62.0316 87.38C62.4483 87.38 62.8386 87.4011 63.2223 87.3734C63.5266 87.3522 63.7516 87.1947 63.7516 86.8441C63.7516 86.4935 63.5399 86.3294 63.2223 86.3149C62.8347 86.2897 62.4444 86.3149 62.0316 86.3149V87.38ZM62.0024 84.7894C62.0134 84.9581 62.0134 85.1274 62.0024 85.2961C61.9403 85.693 62.1242 85.8254 62.4999 85.7817C62.6931 85.7592 62.922 85.832 63.0794 85.7526C63.2819 85.652 63.5267 85.4655 63.5756 85.2723C63.6537 84.964 63.3851 84.8092 63.0927 84.7933C62.75 84.7761 62.4086 84.7894 62.0024 84.7894Z" fill="#1E9DD8"/>
<path d="M35.878 86.0128C35.3659 85.2283 35.3871 84.7665 35.9296 84.396C36.4297 84.056 37.2408 84.1393 37.557 84.564C37.9023 85.0271 37.721 85.4161 36.8015 86.1518L37.6059 86.9192L37.8454 86.2073H38.4064C38.2847 86.5857 38.1722 86.9297 38.0492 87.3108L38.544 87.84L38.4924 87.9604L37.733 87.7514C37.1561 87.8361 36.6626 87.9604 36.1677 87.967C35.958 87.9792 35.7502 87.9207 35.5777 87.8007C35.4052 87.6808 35.278 87.5064 35.2164 87.3055C35.0709 86.8517 35.2786 86.5116 35.6134 86.2192C35.6927 86.1518 35.7721 86.0949 35.878 86.0128ZM37.1905 87.3981C37.1905 87.3333 37.2037 87.2658 37.209 87.2023C37.003 86.9951 36.7862 86.799 36.5594 86.6148C36.4403 86.5249 36.1942 86.423 36.1307 86.4825C35.9581 86.6164 35.8378 86.8065 35.7907 87.0197C35.7761 87.1441 35.9865 87.3995 36.1201 87.4167C36.4668 87.4616 36.8332 87.41 37.1905 87.3981ZM36.2498 85.7376L36.5435 85.8183C36.7472 85.5537 36.9603 85.2891 37.1376 85.006C37.1534 84.9795 36.9219 84.7083 36.82 84.7175C36.5805 84.74 36.214 84.8048 36.1479 84.9583C36.0592 85.1661 36.2021 85.477 36.2498 85.7416V85.7376Z" fill="#1E9DD8"/>
<path d="M21.3133 84.1876C22.4459 84.1783 23.2384 84.9351 23.2609 86.0399C23.2834 87.1447 22.4869 87.9796 21.3517 87.9862C20.2165 87.9928 19.4068 87.2162 19.4081 86.077C19.4094 84.9378 20.1755 84.1968 21.3133 84.1876ZM21.3239 87.4186C22.1257 87.4186 22.6536 86.8893 22.6536 86.0822C22.6536 85.2752 22.0993 84.7314 21.3186 84.7406C20.5592 84.7499 20.0246 85.2924 20.0127 86.0637C20.0008 86.8629 20.5367 87.4173 21.3239 87.4186Z" fill="#1E9DD8"/>
<path d="M26.1465 84.1876C27.295 84.1955 28.065 84.9814 28.0465 86.1338C28.0293 87.2426 27.2354 88.0007 26.1029 87.9862C24.9703 87.9716 24.2003 87.2003 24.195 86.0849C24.1897 84.9695 24.9862 84.1783 26.1465 84.1876ZM26.1148 87.4186C26.9179 87.4186 27.4379 86.8986 27.4379 86.0862C27.4379 85.2738 26.8928 84.7314 26.1148 84.738C25.3553 84.738 24.8234 85.2831 24.8089 86.0611C24.789 86.8642 25.3183 87.4146 26.1108 87.4186H26.1148Z" fill="#1E9DD8"/>
<path d="M70.375 86.6112V87.8774H69.7982V84.2031C70.5113 84.256 71.2152 84.2587 71.8992 84.3738C72.3623 84.4505 72.5992 84.8263 72.6296 85.3145C72.6666 85.9152 72.3716 86.2791 71.7682 86.4974L72.8492 87.843C72.4523 87.9885 72.1691 87.9514 71.9416 87.6035C71.7987 87.3838 71.5923 87.2066 71.4547 86.9803C71.2139 86.5873 70.895 86.4484 70.375 86.6112ZM70.3935 85.9933C70.7644 86.0102 71.1358 86.0071 71.5063 85.984C71.5771 85.982 71.6467 85.9658 71.7112 85.9364C71.7756 85.907 71.8334 85.8649 71.8813 85.8127C71.9292 85.7605 71.9661 85.6993 71.9898 85.6326C72.0136 85.5658 72.0237 85.495 72.0196 85.4243C72.0278 85.3497 72.0202 85.2742 71.9974 85.2027C71.9745 85.1312 71.937 85.0653 71.8871 85.0092C71.8373 84.9531 71.7762 84.9081 71.7079 84.8771C71.6395 84.846 71.5654 84.8296 71.4904 84.8289C71.1256 84.8072 70.76 84.8041 70.3949 84.8197L70.3935 85.9933Z" fill="#1E9DD8"/>
<path d="M29.2439 87.8936V84.2207C29.8697 84.2511 30.4797 84.2207 31.0711 84.3213C31.9814 84.4655 32.4564 85.1813 32.418 86.2133C32.3836 87.1394 31.8134 87.801 30.9203 87.8857C30.3804 87.9333 29.8366 87.8936 29.2439 87.8936ZM29.8499 87.3644C30.5286 87.3644 31.21 87.4967 31.6427 86.814C31.9179 86.38 31.8795 85.5901 31.5633 85.2263C31.087 84.6732 30.4611 84.7843 29.8499 84.8293V87.3644Z" fill="#1E9DD8"/>
<path d="M53.6961 85.7882H55.6066V84.2732L56.1994 84.2441V87.8906H55.6516V86.4034H53.7318V87.8946H53.1602V84.2732L53.7 84.2494L53.6961 85.7882Z" fill="#1E9DD8"/>
<path d="M7.95398 84.2676H10.4242V84.7968H8.54937V85.7693H10.2482V86.3369H8.54937V87.3689H10.452V87.881H7.95398V84.2676Z" fill="#1E9DD8"/>
<path d="M68.7383 87.8586C68.2977 88.0213 68.0516 87.8943 67.9577 87.4881C67.8915 87.197 67.7129 87.0912 67.4179 87.1243C67.154 87.1522 66.8879 87.1522 66.624 87.1243C66.1742 87.0714 65.895 87.1984 65.7349 87.6654C65.6806 87.8242 65.3578 87.8903 65.158 88.0002L65.0508 87.8679C65.5351 86.7221 66.0101 85.5723 66.5168 84.4371C66.5645 84.3299 66.8132 84.2611 66.9627 84.2704C67.0365 84.2811 67.1069 84.3085 67.1685 84.3505C67.2302 84.3924 67.2815 84.4478 67.3186 84.5125C67.8016 85.6014 68.2594 86.7115 68.7383 87.8586ZM66.8979 84.8816C66.6505 85.4876 66.4348 86.0129 66.2059 86.5752H67.5952L66.8979 84.8816Z" fill="#1E9DD8"/>
<path d="M45.5881 84.2852C45.5881 85.034 45.5881 85.7406 45.5881 86.4484C45.5881 87.1563 45.8699 87.4209 46.5394 87.4262C47.2089 87.4315 47.496 87.151 47.504 86.4643C47.5119 85.7551 47.504 85.0473 47.504 84.2772L48.0663 84.2441C48.0663 85.1862 48.1258 86.0965 48.0464 86.9856C47.9843 87.6723 47.2857 88.0375 46.4005 87.9872C45.5828 87.9422 45.0404 87.5109 45.0073 86.7964C44.9676 85.9748 44.998 85.1491 44.998 84.2825L45.5881 84.2852Z" fill="#1E9DD8"/>
<path d="M14.9955 87.858C14.5152 88.022 14.2982 87.858 14.2016 87.461C14.1394 87.1964 13.9727 87.0906 13.6949 87.1157C13.431 87.1444 13.1649 87.1444 12.901 87.1157C12.4313 87.0562 12.1349 87.1805 11.9749 87.6754C11.9272 87.8236 11.5964 87.8818 11.3967 87.981L11.3014 87.8487C11.7804 86.7135 12.2501 85.5756 12.7422 84.447C12.8746 84.152 13.4038 84.1427 13.5361 84.4351C14.0402 85.5597 14.5033 86.6989 14.9955 87.858ZM13.8523 86.5931C13.6155 86.0215 13.4038 85.5082 13.1458 84.8836C12.8812 85.524 12.6801 86.04 12.4591 86.5931H13.8523Z" fill="#1E9DD8"/>
<path d="M49.3272 87.2155C49.7836 87.2922 50.215 87.3941 50.6503 87.4245C50.9347 87.4457 51.2933 87.4364 51.3581 87.0435C51.423 86.6505 51.1081 86.542 50.8289 86.4295C50.5497 86.3171 50.2361 86.2205 49.9504 86.0935C49.4555 85.8712 49.2253 85.4928 49.3007 85.035C49.3827 84.5402 49.7294 84.2808 50.1832 84.2279C50.5599 84.2021 50.9383 84.2212 51.3105 84.2848C51.6757 84.3285 51.8212 84.5494 51.7074 84.9027C51.3224 84.8418 50.9387 84.728 50.559 84.74C50.3407 84.74 50.129 84.9596 49.9146 85.0787C50.0628 85.2718 50.1792 85.5232 50.3685 85.6423C50.6437 85.8117 50.9863 85.8686 51.2946 85.9995C51.8239 86.2271 52.025 86.5685 51.9826 87.0792C51.9363 87.6243 51.5672 87.8836 51.0975 87.922C50.6237 87.9425 50.1492 87.9088 49.6831 87.8214C49.3007 87.7725 49.2213 87.5105 49.3272 87.2155Z" fill="#1E9DD8"/>
<path d="M4.14219 87.2115C4.60659 87.2922 5.02205 87.3967 5.44279 87.4258C5.7471 87.447 6.16917 87.4258 6.15858 87.0209C6.15858 86.8159 5.84104 86.5737 5.61612 86.4321C5.3515 86.2694 5.03263 86.2099 4.74552 86.0855C4.30625 85.895 4.06809 85.5655 4.11705 85.072C4.166 84.5785 4.51397 84.3046 4.96515 84.2411C5.34056 84.2041 5.71923 84.2175 6.0911 84.2808C6.46422 84.3297 6.64548 84.5454 6.50391 84.8855C6.08075 84.8137 5.65337 84.7695 5.22448 84.7531C5.05644 84.7531 4.76007 84.9635 4.75743 85.0813C4.7709 85.1868 4.80754 85.288 4.86473 85.3776C4.92191 85.4673 4.99823 85.5432 5.0882 85.5999C5.38061 85.7732 5.7299 85.85 6.05009 85.9836C6.60182 86.2125 6.84395 86.5803 6.79764 87.0765C6.75133 87.5727 6.42849 87.8968 5.81855 87.9497C5.39228 87.9673 4.96544 87.934 4.54705 87.8505C4.16997 87.7936 4.02046 87.5541 4.14219 87.2115Z" fill="#1E9DD8"/>
<path d="M41.2391 87.2361C41.7472 87.3036 42.2155 87.4121 42.6826 87.4041C42.8863 87.4041 43.0795 87.158 43.2886 87.0231C43.1298 86.8352 43.0041 86.5918 42.8043 86.4727C42.5106 86.298 42.16 86.2226 41.8411 86.0877C41.3767 85.8905 41.1518 85.5386 41.2206 85.0292C41.2854 84.541 41.632 84.3054 42.0594 84.2446C42.4352 84.2087 42.814 84.2212 43.1867 84.2816C43.5664 84.3279 43.7305 84.5542 43.6061 84.8942C43.1761 84.8413 42.758 84.7474 42.3412 84.7619C42.1653 84.7619 41.8781 84.9736 41.8556 85.1218C41.8332 85.27 42.0382 85.5187 42.2063 85.6219C42.5026 85.7926 42.8519 85.868 43.1695 86.003C43.6908 86.2239 43.9408 86.5997 43.8998 87.0614C43.8588 87.5232 43.5664 87.8738 42.9816 87.94C42.5391 87.9682 42.0948 87.9424 41.6585 87.8633C41.2907 87.809 41.12 87.5801 41.2391 87.2361Z" fill="#1E9DD8"/>
<path d="M16.6467 85.8811H18.3668V86.4196H16.6467V87.8829L16.0566 87.916V84.2695H18.511V84.7988H16.6467V85.8811Z" fill="#1E9DD8"/>
<path d="M58.2091 87.8926H57.6719V84.2726L58.2091 84.2461V87.8926Z" fill="#1E9DD8"/>
<path d="M28.2635 45.4087L29.3829 46.0702C29.3419 46.2382 29.3022 46.4063 29.2611 46.5756L25.743 45.9776C27.8957 42.7042 31.6361 42.4635 34.3167 44.1041C34.1725 45.4272 33.3231 45.3941 32.2791 45.2459C30.9759 45.0607 29.6528 45.0117 28.3376 44.9046C28.3138 45.0699 28.2887 45.2393 28.2635 45.4087Z" fill="#1E9DD8"/>
</svg>
