<svg width="166" height="164" viewBox="0 0 166 164" fill="none" xmlns="http://www.w3.org/2000/svg">
<path d="M83.2666 83.6442L54.1996 123.57C51.8343 126.819 50.5601 130.734 50.5601 134.753V135.057C50.5601 135.609 51.0078 136.057 51.5601 136.057H114.973C115.525 136.057 115.973 135.609 115.973 135.057V134.753C115.973 130.734 114.699 126.819 112.334 123.57L83.2666 83.6442ZM83.2666 83.6442L112.334 43.7184C114.699 40.4695 115.973 36.5543 115.973 32.5356V29.1484C115.973 28.5962 115.525 28.1484 114.973 28.1484H51.5601C51.0078 28.1484 50.5601 28.5962 50.5601 29.1484V32.5356C50.5601 36.5543 51.8343 40.4695 54.1996 43.7184L83.2666 83.6442Z" stroke="#1E9DD8" stroke-width="4"/>
<path d="M61.4761 53.459L83.2707 61.5809L104.438 53.459" stroke="#1E9DD8" stroke-width="4" stroke-linecap="round" stroke-linejoin="round"/>
<path d="M58.7437 117.203L83.4271 108.653L108.043 117.203" stroke="#1E9DD8" stroke-width="4" stroke-linecap="round" stroke-linejoin="round"/>
<path d="M39.0161 20.4248H127.644" stroke="#1E9DD8" stroke-width="4" stroke-linecap="round"/>
<path d="M39.0161 143.575H127.644" stroke="#1E9DD8" stroke-width="4" stroke-linecap="round"/>
</svg>
