<svg width="166" height="165" viewBox="0 0 166 165" fill="none" xmlns="http://www.w3.org/2000/svg">
<rect x="22.5679" y="39.8027" width="121.181" height="95.9072" rx="13" stroke="#1E9DD8" stroke-width="4"/>
<path d="M54.3828 29.1074V48.786" stroke="#1E9DD8" stroke-width="4" stroke-linecap="round"/>
<path d="M143.749 63.1729L22.5685 63.1729" stroke="#1E9DD8" stroke-width="4" stroke-linecap="round"/>
<path d="M83.1582 29.1074V48.786" stroke="#1E9DD8" stroke-width="4" stroke-linecap="round"/>
<path d="M110.673 29.1074V48.786" stroke="#1E9DD8" stroke-width="4" stroke-linecap="round"/>
<rect x="37.4531" y="72.3545" width="13.2715" height="13.2715" rx="3" stroke="#1E9DD8" stroke-width="4"/>
<rect x="37.4531" y="92.1484" width="13.2715" height="13.2715" rx="3" stroke="#1E9DD8" stroke-width="4"/>
<rect x="37.4531" y="111.941" width="13.2715" height="13.2715" rx="3" stroke="#1E9DD8" stroke-width="4"/>
<rect x="63.4995" y="72.3545" width="13.2715" height="13.2715" rx="3" stroke="#1E9DD8" stroke-width="4"/>
<rect x="63.4995" y="92.1484" width="13.2715" height="13.2715" rx="3" stroke="#1E9DD8" stroke-width="4"/>
<rect x="63.4995" y="111.941" width="13.2715" height="13.2715" rx="3" stroke="#1E9DD8" stroke-width="4"/>
<rect x="89.5459" y="72.3545" width="13.2715" height="13.2715" rx="3" stroke="#1E9DD8" stroke-width="4"/>
<rect x="89.5459" y="92.1484" width="13.2715" height="13.2715" rx="3" stroke="#1E9DD8" stroke-width="4"/>
<rect x="89.5459" y="111.941" width="13.2715" height="13.2715" rx="3" stroke="#1E9DD8" stroke-width="4"/>
<rect x="115.592" y="72.3545" width="13.2715" height="13.2715" rx="3" stroke="#1E9DD8" stroke-width="4"/>
<rect x="115.592" y="92.1484" width="13.2715" height="13.2715" rx="3" stroke="#1E9DD8" stroke-width="4"/>
</svg>
