<svg width="165" height="164" viewBox="0 0 165 164" fill="none" xmlns="http://www.w3.org/2000/svg">
<path d="M78.043 51.3144L82.4997 43.4739L86.9565 51.3144C87.3057 51.9287 87.8985 52.3666 88.5884 52.5196L97.3286 54.459L91.3363 61.3307C90.8833 61.8502 90.6649 62.5336 90.7327 63.2196L91.6331 72.3325L83.5286 68.673C82.8745 68.3777 82.125 68.3777 81.4709 68.673L73.3663 72.3325L74.2668 63.2196C74.3346 62.5336 74.1162 61.8502 73.6632 61.3307L67.6709 54.459L76.4111 52.5196C77.101 52.3666 77.6938 51.9287 78.043 51.3144Z" stroke="#1E9DD8" stroke-width="4"/>
<path d="M84.0884 29.8027C71.4517 29.8027 67.3163 29.8027 42.1489 29.8027C39.3875 29.8027 37.4567 32.5554 38.3849 35.1561C52.28 74.087 57.4234 84.0965 71.655 90.592V119.77C71.655 122.032 70.3833 124.101 68.3656 125.123L50.8188 134.008C50.7249 134.056 50.7587 134.197 50.864 134.197H84.0884" stroke="#1E9DD8" stroke-width="4"/>
<path d="M80.9131 29.8027C93.5498 29.8027 97.6852 29.8027 122.853 29.8027C125.614 29.8027 127.545 32.5554 126.617 35.1561C112.721 74.087 107.578 84.0965 93.3465 90.592V119.77C93.3465 122.032 94.6182 124.101 96.6359 125.123L114.183 134.008C114.277 134.056 114.243 134.197 114.137 134.197H80.9131" stroke="#1E9DD8" stroke-width="4"/>
<path d="M121.274 49.2274C127.458 44.2051 147.208 48.5386 137.576 66.9251C127.945 85.3115 111.351 90.3653 104.496 84.8652" stroke="#1E9DD8" stroke-width="4"/>
<path d="M43.7259 49.2274C37.5423 44.2051 17.7925 48.5386 27.4237 66.9251C37.055 85.3115 53.6488 90.3653 60.5044 84.8652" stroke="#1E9DD8" stroke-width="4"/>
</svg>
