<svg width="165" height="164" viewBox="0 0 165 164" fill="none" xmlns="http://www.w3.org/2000/svg">
<path d="M45.1183 88.3687L92.6777 96.5043C95.2646 96.9468 97.6569 98.1619 99.5401 99.9897L111.954 112.039C115.101 115.093 120.381 113.417 121.19 109.107L126.081 83.0562L129.733 79.3544C131.579 77.4831 132.613 74.9602 132.613 72.3316V72.1228C132.613 68.6316 130.793 65.3932 127.81 63.579L126.081 62.5272L120.969 35.8017C120.202 31.7913 115.486 29.9855 112.237 32.4578L100.137 41.6631C97.8743 43.3848 95.1094 44.317 92.266 44.317H52.6976C41.48 44.317 32.3863 53.4106 32.3863 64.6282L32.3863 72.0618C32.3862 79.7748 37.6356 86.498 45.1183 88.3687V88.3687ZM45.1183 88.3687L61.6469 130.317C63.0074 133.77 67.1449 135.172 70.3243 133.258L73.4925 131.35C79.8326 127.532 82.1062 119.44 78.6819 112.879L67.9257 92.2701" stroke="#1E9DD8" stroke-width="4" stroke-linecap="round"/>
<path d="M121.612 60.6064L125.637 62.1873" stroke="#1E9DD8" stroke-width="4" stroke-linecap="round"/>
<path d="M121.496 84.2324L126.081 82.7584" stroke="#1E9DD8" stroke-width="4" stroke-linecap="round"/>
<path d="M113.126 42.1582C97.6243 60.4685 102.06 87.3758 114.163 103.67" stroke="#1E9DD8" stroke-width="4" stroke-linecap="round"/>
</svg>
