<svg width="165" height="164" viewBox="0 0 165 164" fill="none" xmlns="http://www.w3.org/2000/svg">
<path d="M35.6094 49.0186L35.417 47.0279L33.4645 47.2166L33.6153 49.1724L35.6094 49.0186ZM82.2502 30.4355L83.1336 28.6412L82.2136 28.1883L81.3088 28.6709L82.2502 30.4355ZM82.2502 133.565L81.5783 135.449L82.2742 135.697L82.9644 135.434L82.2502 133.565ZM129.39 49.0186L131.379 49.2267L131.586 47.2469L129.607 47.0305L129.39 49.0186ZM82.2496 123.573H80.2496V127.713L83.4925 125.14L82.2496 123.573ZM82.2496 41.9367L83.2211 40.1885L80.2496 38.5371V41.9367H82.2496ZM118.449 57.9623L120.445 58.0883L120.531 56.7233L119.291 56.1479L118.449 57.9623ZM94.1693 47.212L93.3702 49.0454L93.3702 49.0454L94.1693 47.212ZM35.8017 51.0094C38.0487 50.7923 41.4548 49.8362 45.318 48.528C49.2389 47.2002 53.8079 45.4469 58.4607 43.5375C67.7567 39.7225 77.4918 35.2408 83.1916 32.2002L81.3088 28.6709C75.7679 31.6269 66.165 36.052 56.9421 39.837C52.3354 41.7275 47.8497 43.4475 44.035 44.7393C40.1627 46.0506 37.1526 46.8602 35.417 47.0279L35.8017 51.0094ZM82.9221 131.682C79.6688 130.521 75.392 127.62 70.6978 123.051C66.0375 118.514 61.0842 112.448 56.4556 105.131C47.1962 90.4945 39.3078 70.9672 37.6035 48.8649L33.6153 49.1724C35.3774 72.024 43.5238 92.1714 53.0752 107.27C57.8521 114.821 62.9984 121.138 67.9076 125.917C72.7831 130.663 77.5459 134.011 81.5783 135.449L82.9221 131.682ZM127.4 48.8106C124.887 72.8438 116.856 92.2888 107.692 106.387C98.4761 120.565 88.2571 129.128 81.536 131.697L82.9644 135.434C90.8029 132.437 101.606 123.089 111.046 108.567C120.538 93.9636 128.797 73.9181 131.379 49.2267L127.4 48.8106ZM81.3668 32.2299C87.5006 35.2496 96.4988 39.6072 105.393 43.3676C114.206 47.0941 123.182 50.3517 129.172 51.0068L129.607 47.0305C124.28 46.4479 115.813 43.4306 106.95 39.6833C98.1676 35.9699 89.2547 31.6547 83.1336 28.6412L81.3668 32.2299ZM84.2496 123.573V41.9367H80.2496V123.573H84.2496ZM116.453 57.8364C115.501 72.924 109.434 86.7657 102.155 97.9843C94.8748 109.205 86.4621 117.679 81.0066 122.006L83.4925 125.14C89.2866 120.544 97.9934 111.747 105.511 100.161C113.029 88.5733 119.437 74.0716 120.445 58.0883L116.453 57.8364ZM93.3702 49.0454C101.415 52.5513 111.568 56.9762 117.608 59.7768L119.291 56.1479C113.198 53.323 102.993 48.8756 94.9683 45.3785L93.3702 49.0454ZM81.278 43.6849C81.7194 43.9302 83.2549 44.6174 85.3012 45.5189C87.4167 46.4509 90.2327 47.6781 93.3702 49.0454L94.9683 45.3785C91.8278 44.0099 89.0204 42.7865 86.9139 41.8584C85.8602 41.3942 84.9874 41.0063 84.3384 40.7123C84.0136 40.5651 83.7504 40.444 83.5514 40.35C83.4519 40.303 83.3728 40.2649 83.3126 40.2351C83.2827 40.2203 83.2598 40.2087 83.243 40.2C83.2254 40.1909 83.2191 40.1874 83.2211 40.1885L81.278 43.6849Z" fill="#1E9DD8"/>
</svg>
