<svg width="165" height="164" viewBox="0 0 165 164" fill="none" xmlns="http://www.w3.org/2000/svg">
<path d="M63.0915 45.9785H47.0898C36.0441 45.9785 27.0898 54.9328 27.0898 65.9785V110.8C27.0898 121.846 36.0442 130.8 47.0899 130.8H114.836C125.882 130.8 134.836 121.846 134.836 110.8V72.7179" stroke="#1E9DD8" stroke-width="4"/>
<path d="M27.9492 74.6348H134.55" stroke="#1E9DD8" stroke-width="4" stroke-linecap="round"/>
<path d="M28.2358 103.577H134.836" stroke="#1E9DD8" stroke-width="4" stroke-linecap="round"/>
<path d="M61.1904 46.2646V74.6343" stroke="#1E9DD8" stroke-width="4" stroke-linecap="square"/>
<path d="M81.5361 74.6348L81.5361 102.574" stroke="#1E9DD8" stroke-width="4" stroke-linecap="square"/>
<path d="M59.7578 103.965L59.7578 130.012" stroke="#1E9DD8" stroke-width="4" stroke-linecap="square"/>
<path d="M102.168 103.577L102.168 130.125" stroke="#1E9DD8" stroke-width="4" stroke-linecap="square"/>
<path d="M76.0181 35.2002C76.0181 34.0956 76.9135 33.2002 78.0181 33.2002H117.91C128.955 33.2002 137.91 42.1545 137.91 53.2002V57.3299C137.91 58.4345 137.014 59.3299 135.91 59.3299H78.0181C76.9135 59.3299 76.0181 58.4345 76.0181 57.3299V35.2002Z" stroke="#1E9DD8" stroke-width="4"/>
</svg>
