<svg width="165" height="164" viewBox="0 0 165 164" fill="none" xmlns="http://www.w3.org/2000/svg">
<circle cx="82.5001" cy="72.5548" r="50.6036" stroke="#1E9DD8" stroke-width="4"/>
<rect x="53.623" y="60.7578" width="21.3971" height="36.8493" rx="4" stroke="#1E9DD8" stroke-width="4"/>
<path d="M87.5566 49.9379C88.3314 60.2685 80.3798 64.8539 76.6811 66.8492C75.6117 67.4261 75.02 68.511 75.02 69.726V89.6606C75.02 90.8802 75.6566 92.0114 76.6991 92.6443C81.341 95.4627 86.6673 96.953 92.0978 96.953H95.3983C102.532 96.953 108.525 91.5891 109.313 84.4991L110.883 70.3663C111.146 67.9968 109.291 65.9246 106.907 65.9246H102.262C99.8249 65.9246 97.9544 63.7646 98.3026 61.353L98.4271 60.4901C99.0828 55.9484 98.8851 51.3243 97.844 46.8552C97.3816 44.8705 95.4969 43.5541 93.4744 43.8031L90.84 44.1275C88.6107 44.4019 87.0444 46.4577 87.3715 48.6799L87.5566 49.9379Z" stroke="#1E9DD8" stroke-width="4"/>
<path d="M47.6064 110.165L37.7553 129.997C37.4251 130.662 37.9087 131.442 38.6509 131.442H51.9983C52.3993 131.442 52.7615 131.682 52.9185 132.051L56.4248 140.293C56.7405 141.036 57.7598 141.118 58.1905 140.436L69.573 122.415C69.7867 122.076 70.1816 121.898 70.5768 121.961L79.007 123.314C82.1449 123.817 85.3415 123.835 88.4847 123.367L98.106 121.933C98.4288 121.885 98.7548 121.998 98.9792 122.235L116.026 140.227C116.647 140.884 117.752 140.444 117.752 139.54V127.648C117.752 127.166 118.096 126.752 118.57 126.665L130.68 124.433C131.488 124.284 131.782 123.279 131.182 122.719L117.752 110.165" stroke="#1E9DD8" stroke-width="4"/>
</svg>
