<svg width="165" height="164" viewBox="0 0 165 164" fill="none" xmlns="http://www.w3.org/2000/svg">
<path d="M118.746 50.9734C118.746 69.4813 104.71 84.2613 87.6634 84.2613C70.6167 84.2613 56.5811 69.4813 56.5811 50.9734C56.5811 32.4655 70.6167 17.6855 87.6634 17.6855C104.71 17.6855 118.746 32.4655 118.746 50.9734Z" stroke="#1E9DD8" stroke-width="4"/>
<path d="M50.1704 46.5625H125.157" stroke="#1E9DD8" stroke-width="4" stroke-linecap="round"/>
<path d="M81.0474 24.5078L81.0474 33.3298" stroke="#1E9DD8" stroke-width="4" stroke-linecap="round"/>
<path d="M94.2798 24.5078L94.2798 33.3298" stroke="#1E9DD8" stroke-width="4" stroke-linecap="round"/>
<path d="M127.157 89.2744C127.157 88.1698 126.262 87.2744 125.157 87.2744C124.053 87.2744 123.157 88.1698 123.157 89.2744H127.157ZM123.743 149.729C124.524 150.51 125.79 150.51 126.571 149.729L139.299 137.001C140.08 136.22 140.08 134.953 139.299 134.172C138.518 133.391 137.252 133.391 136.471 134.172L125.157 145.486L113.844 134.172C113.062 133.391 111.796 133.391 111.015 134.172C110.234 134.953 110.234 136.22 111.015 137.001L123.743 149.729ZM123.157 89.2744V148.314H127.157V89.2744H123.157Z" fill="#1E9DD8"/>
<path d="M117.854 113.021C96.4282 85.0036 49.7317 96.5403 39.8428 145.488" stroke="#1E9DD8" stroke-width="4" stroke-linecap="round"/>
</svg>
