<svg width="165" height="164" viewBox="0 0 165 164" fill="none" xmlns="http://www.w3.org/2000/svg">
<path d="M65.2421 61.0372L64.4416 47.9998C64.1773 43.6947 61.6228 39.8627 57.7508 37.9625L45.695 32.0462C45.3171 31.8608 44.8636 31.9318 44.5605 32.2239L35.9374 40.5337C35.6263 40.8335 35.5429 41.2992 35.7306 41.6883L41.7917 54.2515C43.7933 58.4003 47.9932 61.0372 52.5997 61.0372H65.2421ZM65.2421 61.0372L91.2085 87.53" stroke="#1E9DD8" stroke-width="4" stroke-linecap="round"/>
<rect x="97.9653" y="81.4531" width="52.6343" height="19.2222" rx="9.61111" transform="rotate(45 97.9653 81.4531)" stroke="#1E9DD8" stroke-width="4"/>
<path d="M79.4517 88.9688L48.4422 119.978C45.0133 123.407 39.4539 123.407 36.025 119.978V119.978C32.5962 116.549 32.5962 110.99 36.025 107.561L67.0345 76.5516" stroke="#1E9DD8" stroke-width="4" stroke-linecap="round"/>
<path d="M81.4355 57.5657L83.3203 45.0201C83.8888 41.2362 86.5667 38.1084 90.2178 36.9638L103.478 32.8064C105.648 32.1261 108.005 32.4015 109.96 33.5637L111.416 34.4295L94.3952 51.6852C93.9994 52.0865 94.0133 52.7355 94.4259 53.1195L101.805 59.986C102.188 60.3421 102.78 60.3434 103.164 59.9891L121.765 42.8363L122.885 43.9757C125.025 46.1517 125.74 49.3553 124.729 52.2346L120.724 63.6431C119.458 67.2487 116.248 69.8177 112.453 70.2626L98.7306 71.8711" stroke="#1E9DD8" stroke-width="4" stroke-linecap="round"/>
</svg>
