<svg width="166" height="164" viewBox="0 0 166 164" fill="none" xmlns="http://www.w3.org/2000/svg">
<path d="M99.598 45.9337C100.379 45.1527 100.379 43.8864 99.598 43.1053L86.8701 30.3774C86.089 29.5963 84.8227 29.5963 84.0416 30.3774C83.2606 31.1584 83.2606 32.4248 84.0416 33.2058L95.3553 44.5195L84.0416 55.8332C83.2606 56.6143 83.2606 57.8806 84.0416 58.6617C84.8227 59.4427 86.089 59.4427 86.8701 58.6617L99.598 45.9337ZM124.408 106.242C125.408 106.711 126.599 106.282 127.069 105.282L134.721 88.9892C135.19 87.9894 134.76 86.7983 133.76 86.3287C132.761 85.8592 131.57 86.289 131.1 87.2888L124.298 101.771L109.816 94.9692C108.816 94.4997 107.625 94.9295 107.155 95.9293C106.686 96.9291 107.116 98.1202 108.115 98.5898L124.408 106.242ZM117.93 84.1223L116.048 84.8012L117.93 84.1223ZM98.1838 42.5195H42.9273V46.5195H98.1838V42.5195ZM30.9272 54.5195V67.5166H34.9272V54.5195H30.9272ZM42.9272 79.5166H108.523V75.5166H42.9272V79.5166ZM116.048 84.8012L123.377 105.11L127.139 103.753L119.811 83.4434L116.048 84.8012ZM108.523 79.5166C111.894 79.5166 114.904 81.63 116.048 84.8012L119.811 83.4434C118.094 78.6868 113.58 75.5166 108.523 75.5166V79.5166ZM30.9272 67.5166C30.9272 74.144 36.2998 79.5166 42.9272 79.5166V75.5166C38.509 75.5166 34.9272 71.9349 34.9272 67.5166H30.9272ZM42.9273 42.5195C36.2998 42.5195 30.9272 47.8921 30.9272 54.5195H34.9272C34.9272 50.1013 38.509 46.5195 42.9273 46.5195V42.5195Z" fill="#1E9DD8"/>
<path d="M64.1415 120.884C63.3604 121.665 63.3604 122.931 64.1415 123.712L76.8694 136.44C77.6504 137.221 78.9168 137.221 79.6978 136.44C80.4788 135.659 80.4788 134.393 79.6978 133.612L68.3841 122.298L79.6978 110.984C80.4788 110.203 80.4788 108.937 79.6978 108.156C78.9168 107.375 77.6504 107.375 76.8694 108.156L64.1415 120.884ZM100.961 124.298C102.065 124.298 102.961 123.402 102.961 122.298C102.961 121.193 102.065 120.298 100.961 120.298V124.298ZM65.5557 124.298H100.961V120.298H65.5557V124.298Z" fill="#1E9DD8"/>
<circle cx="120.975" cy="41.702" r="9.4373" stroke="#1E9DD8" stroke-width="4"/>
<circle cx="120.975" cy="122.298" r="9.4373" stroke="#1E9DD8" stroke-width="4"/>
<circle cx="44.3646" cy="122.298" r="9.4373" stroke="#1E9DD8" stroke-width="4"/>
</svg>
