<svg width="165" height="164" viewBox="0 0 165 164" fill="none" xmlns="http://www.w3.org/2000/svg">
<path d="M58.5935 111.574C58.5935 121.454 50.5841 129.464 40.704 129.464C30.8239 129.464 22.8145 121.454 22.8145 111.574C22.8145 101.694 30.8239 93.6846 40.704 93.6846C50.5841 93.6846 58.5935 101.694 58.5935 111.574Z" stroke="#1E9DD8" stroke-width="4"/>
<path d="M91.9659 33.5343C92.747 32.7533 92.747 31.487 91.9659 30.7059L79.238 17.978C78.457 17.1969 77.1906 17.1969 76.4096 17.978C75.6285 18.759 75.6285 20.0254 76.4096 20.8064L87.7233 32.1201L76.4096 43.4338C75.6285 44.2149 75.6285 45.4812 76.4096 46.2623C77.1906 47.0433 78.457 47.0433 79.238 46.2623L91.9659 33.5343ZM42.209 93.5804V58.1201H38.209V93.5804H42.209ZM66.209 34.1201H90.5517V30.1201H66.209V34.1201ZM42.209 58.1201C42.209 44.8653 52.9542 34.1201 66.209 34.1201V30.1201C50.745 30.1201 38.209 42.6561 38.209 58.1201H42.209Z" fill="#1E9DD8"/>
<path d="M106.407 48.1798C106.407 38.2997 114.417 30.2903 124.297 30.2903C134.177 30.2903 142.187 38.2997 142.187 48.1798C142.187 58.0599 134.177 66.0693 124.297 66.0693C114.417 66.0693 106.407 58.0599 106.407 48.1798Z" stroke="#1E9DD8" stroke-width="4"/>
<path d="M73.035 126.22C72.254 127.001 72.254 128.267 73.035 129.048L85.763 141.776C86.544 142.557 87.8103 142.557 88.5914 141.776C89.3724 140.995 89.3724 139.729 88.5914 138.947L77.2777 127.634L88.5914 116.32C89.3724 115.539 89.3724 114.273 88.5914 113.492C87.8103 112.711 86.544 112.711 85.763 113.492L73.035 126.22ZM122.792 66.1735L122.792 101.634L126.792 101.634L126.792 66.1735L122.792 66.1735ZM98.792 125.634L74.4493 125.634L74.4493 129.634L98.792 129.634L98.792 125.634ZM122.792 101.634C122.792 114.889 112.047 125.634 98.792 125.634L98.792 129.634C114.256 129.634 126.792 117.098 126.792 101.634L122.792 101.634Z" fill="#1E9DD8"/>
</svg>
