<svg width="166" height="164" viewBox="0 0 166 164" fill="none" xmlns="http://www.w3.org/2000/svg">
<path d="M109.004 109.209V34.501C109.004 31.7396 106.765 29.501 104.004 29.501H42.2036C39.4422 29.501 37.2036 31.7395 37.2036 34.501V128.756C37.2036 131.792 39.8863 134.127 42.8927 133.708L52.4117 132.384" stroke="#1E9DD8" stroke-width="4"/>
<path d="M59.8617 111.388C59.69 110.169 60.6252 109.059 61.8557 109.059H125.332C126.195 109.059 126.965 109.616 127.223 110.44C130.124 119.714 129.986 124.979 122.014 132.017C121.656 132.333 121.191 132.505 120.714 132.505H50.8271C59.1172 130.785 62.0995 127.27 59.8617 111.388Z" stroke="#1E9DD8" stroke-width="4"/>
<path d="M57.5684 55.8714L64.1509 62.4551L78.8634 52.7744" stroke="#1E9DD8" stroke-width="4" stroke-linecap="round"/>
<path d="M58.5708 83.7093L65.1533 90.293L79.8658 80.6123" stroke="#1E9DD8" stroke-width="4" stroke-linecap="round"/>
<path d="M119.712 32.2881C119.712 31.7358 120.16 31.2881 120.712 31.2881H127.952C128.504 31.2881 128.952 31.7358 128.952 32.2881V88.4014C128.952 88.5268 128.928 88.6512 128.882 88.7679L124.425 100.085C124.391 100.17 124.272 100.17 124.239 100.085L119.781 88.7679C119.736 88.6512 119.712 88.5269 119.712 88.4014V32.2881Z" stroke="#1E9DD8" stroke-width="4"/>
</svg>
