<svg width="165" height="164" viewBox="0 0 165 164" fill="none" xmlns="http://www.w3.org/2000/svg">
<path d="M34.9515 36.8778C34.1705 37.6588 34.1705 38.9252 34.9515 39.7062L47.6794 52.4341C48.4605 53.2152 49.7268 53.2152 50.5079 52.4341C51.2889 51.6531 51.2889 50.3867 50.5079 49.6057L39.1941 38.292L50.5079 26.9783C51.2889 26.1972 51.2889 24.9309 50.5079 24.1499C49.7268 23.3688 48.4605 23.3688 47.6794 24.1499L34.9515 36.8778ZM130.047 39.7062C130.828 38.9251 130.828 37.6588 130.047 36.8778L117.319 24.1498C116.538 23.3688 115.272 23.3688 114.491 24.1498C113.71 24.9309 113.71 26.1972 114.491 26.9783L125.804 38.292L114.491 49.6057C113.71 50.3867 113.71 51.6531 114.491 52.4341C115.272 53.2152 116.538 53.2152 117.319 52.4341L130.047 39.7062ZM36.3657 40.292L128.633 40.292L128.633 36.292L36.3657 36.292L36.3657 40.292Z" fill="#1E9DD8"/>
<path d="M115.367 99.6866H50.9237V93.4814C50.9237 88.732 47.0736 84.8819 42.3242 84.8819C37.5748 84.8819 33.7246 88.732 33.7246 93.4814V106.756C33.7246 112.832 38.6495 117.756 44.7246 117.756H119.534C125.466 117.756 130.329 113.054 130.528 107.126L131.004 92.9652C131.152 88.5457 127.609 84.8822 123.187 84.8821C118.868 84.8819 115.367 88.3834 115.367 92.7028V99.6866Z" stroke="#1E9DD8" stroke-width="4" stroke-linecap="round"/>
<path d="M41.5625 84.2295V73.7168C41.5625 66.5371 47.3828 60.7168 54.5625 60.7168H110.858C118.037 60.7168 123.858 66.5371 123.858 73.7168V84.2295" stroke="#1E9DD8" stroke-width="4" stroke-linecap="round"/>
<path d="M47.2886 125.709V117.757" stroke="#1E9DD8" stroke-width="4" stroke-linecap="round"/>
<path d="M117.67 125.709V117.757" stroke="#1E9DD8" stroke-width="4" stroke-linecap="round"/>
</svg>
