<svg width="166" height="165" viewBox="0 0 166 165" fill="none" xmlns="http://www.w3.org/2000/svg">
<path d="M46.8785 22.8799H136.943C138.6 22.8799 139.943 24.223 139.943 25.8799V31.513C139.943 33.1699 138.6 34.513 136.943 34.513H28.7935C27.1366 34.513 25.7935 33.1699 25.7935 31.513V25.8799C25.7935 24.223 27.1366 22.8799 28.7935 22.8799H37.2446" stroke="#1E9DD8" stroke-width="4" stroke-linecap="round"/>
<path d="M27.9746 33.6045L17.6138 52.1445H149.395L136.853 33.6045" stroke="#1E9DD8" stroke-width="4"/>
<path d="M36.5176 52.5078C36.5176 50.1813 40.2741 40.0268 42.1523 35.2402" stroke="#1E9DD8" stroke-width="4"/>
<path d="M58.3296 34.5127L55.0576 51.7812" stroke="#1E9DD8" stroke-width="4"/>
<path d="M74.6885 34.6943L73.416 51.5986" stroke="#1E9DD8" stroke-width="4"/>
<path d="M91.0474 35.0586L92.6836 51.2354" stroke="#1E9DD8" stroke-width="4"/>
<path d="M107.407 35.2402L111.405 53.417" stroke="#1E9DD8" stroke-width="4"/>
<path d="M123.402 35.2402L130.673 52.8711" stroke="#1E9DD8" stroke-width="4"/>
<path d="M16.5234 53.417V62.233C16.5234 67.3025 20.6331 71.4121 25.7026 71.4121V71.4121C30.772 71.4121 34.8817 67.3025 34.8817 62.233V53.417" stroke="#1E9DD8" stroke-width="4"/>
<path d="M34.8818 53.417V62.233C34.8818 67.3025 38.9915 71.4121 44.061 71.4121V71.4121C49.1304 71.4121 53.2401 67.3025 53.2401 62.233V53.417" stroke="#1E9DD8" stroke-width="4"/>
<path d="M55.0576 53.417V62.233C55.0576 67.3025 59.1672 71.4121 64.2367 71.4121V71.4121C69.3062 71.4121 73.4158 67.3025 73.4158 62.233V53.417" stroke="#1E9DD8" stroke-width="4"/>
<path d="M74.3252 53.417V62.233C74.3252 67.3025 78.4348 71.4121 83.5043 71.4121V71.4121C88.5738 71.4121 92.6834 67.3025 92.6834 62.233V53.417" stroke="#1E9DD8" stroke-width="4"/>
<path d="M92.6836 53.417V62.233C92.6836 67.3025 96.7932 71.4121 101.863 71.4121V71.4121C106.932 71.4121 111.042 67.3025 111.042 62.233V53.417" stroke="#1E9DD8" stroke-width="4"/>
<path d="M111.951 53.417V62.233C111.951 67.3025 116.061 71.4121 121.13 71.4121V71.4121C126.2 71.4121 130.309 67.3025 130.309 62.233V53.417" stroke="#1E9DD8" stroke-width="4"/>
<path d="M132.688 54.0254V62.8414C132.688 67.9109 136.797 72.0205 141.867 72.0205V72.0205C146.936 72.0205 151.046 67.9109 151.046 62.8414V54.0254" stroke="#1E9DD8" stroke-width="4"/>
<path d="M26.3389 72.1387V127.941" stroke="#1E9DD8" stroke-width="4"/>
<path d="M139.943 72.6846V128.487" stroke="#1E9DD8" stroke-width="4"/>
<rect x="15.6143" y="129.759" width="133.508" height="12.1787" rx="4" stroke="#1E9DD8" stroke-width="4"/>
<path d="M34.518 128.486C34.2455 126.306 34.3773 99.5885 34.4946 84.02C34.5071 82.3727 35.8463 81.0449 37.4936 81.0449H57.1472C58.8041 81.0449 60.1472 82.3881 60.1472 84.0449V128.486" stroke="#1E9DD8" stroke-width="4"/>
<path d="M52.8765 101.948C52.8765 102.675 52.8765 106.493 52.8765 108.311" stroke="#1E9DD8" stroke-width="4" stroke-linecap="round"/>
<path d="M95.228 81.1357H71.8721C70.2152 81.1357 68.8721 82.4789 68.8721 84.1357V114.944C68.8721 116.601 70.2152 117.944 71.8721 117.944H127.309C128.966 117.944 130.309 116.601 130.309 114.944V84.227C130.309 82.5702 128.966 81.227 127.309 81.227H102.862" stroke="#1E9DD8" stroke-width="4" stroke-linecap="round"/>
</svg>
