<svg width="58" height="24" viewBox="0 0 58 24" fill="none" xmlns="http://www.w3.org/2000/svg">
<path d="M2.08838 10.4883C1.25995 10.4883 0.588379 11.1599 0.588379 11.9883C0.588379 12.8167 1.25995 13.4883 2.08838 13.4883L2.08838 10.4883ZM57.1955 13.0489C57.7813 12.4631 57.7813 11.5134 57.1955 10.9276L47.6496 1.38167C47.0638 0.795886 46.1141 0.795886 45.5283 1.38167C44.9425 1.96746 44.9425 2.91721 45.5283 3.50299L54.0136 11.9883L45.5283 20.4736C44.9425 21.0593 44.9425 22.0091 45.5283 22.5949C46.1141 23.1807 47.0638 23.1807 47.6496 22.5949L57.1955 13.0489ZM2.08838 13.4883L56.1349 13.4883L56.1349 10.4883L2.08838 10.4883L2.08838 13.4883Z" fill="#1E9DD8"/>
</svg>
