<svg width="14" height="23" viewBox="0 0 14 23" fill="none" xmlns="http://www.w3.org/2000/svg">
<path d="M10.9116 9.71484C10.0831 9.71393 9.41083 10.3848 9.40991 11.2132C9.409 12.0416 10.0798 12.7139 10.9083 12.7148L10.9116 9.71484ZM12.597 12.2774C13.1834 11.6922 13.1844 10.7425 12.5993 10.156L3.06391 0.599569C2.47877 0.0131354 1.52902 0.0120862 0.942586 0.597225C0.356153 1.18236 0.355104 2.13211 0.940243 2.71854L9.41614 11.2132L0.921495 19.6891C0.335062 20.2742 0.334013 21.224 0.919152 21.8104C1.50429 22.3968 2.45404 22.3979 3.04047 21.8128L12.597 12.2774ZM10.9083 12.7148L11.5358 12.7155L11.5391 9.71554L10.9116 9.71484L10.9083 12.7148Z" fill="#1E9DD8"/>
</svg>
